<svg width="34" height="30" viewBox="0 0 34 30" fill="none" xmlns="http://www.w3.org/2000/svg">
<path fill-rule="evenodd" clip-rule="evenodd" d="M26.1632 1.12046C25.2316 1.23738 23.2098 2.40233 22.8353 3.03814C22.7217 3.23086 22.4078 3.59005 22.1376 3.83598C21.8675 4.08194 21.639 4.37614 21.6298 4.48974C21.6206 4.60312 21.3913 4.74025 21.1205 4.79438C20.5117 4.91557 19.6497 6.37974 19.7661 7.09514C19.8291 7.48265 19.8087 7.51351 19.6696 7.24059C19.5201 6.94759 19.4824 6.96156 19.4244 7.3313C19.3866 7.57153 19.3541 7.98447 19.3522 8.24883C19.35 8.51317 19.2595 8.78164 19.1509 8.84561C19.0251 8.91946 19.0083 9.21158 19.1049 9.64936C19.2145 10.1466 19.1907 10.4005 19.0188 10.5664C18.7346 10.8409 18.6445 11.5809 18.8925 11.601C18.9891 11.6088 19.0111 11.7944 18.9417 12.0135C18.8572 12.28 19.012 12.6292 19.4099 13.069C19.7371 13.4306 20.2502 14.1397 20.5501 14.645C20.8498 15.1501 21.1238 15.5552 21.1589 15.545C21.4138 15.4716 22.8128 15.9926 22.7241 16.1279C22.6625 16.222 22.7658 16.3203 22.9534 16.3464C23.1412 16.3722 23.6664 16.4537 24.1209 16.527C24.5752 16.6006 24.99 16.5948 25.0425 16.5146C25.183 16.2999 26.1005 16.6224 26.0797 16.8793C26.0617 17.1012 24.6029 18.4777 24.4028 18.4614C24.343 18.4566 24.1546 18.7399 23.9838 19.091C23.8132 19.4421 23.572 19.7218 23.4476 19.7126C23.3235 19.7034 23.0027 20.0021 22.7349 20.3765C22.4671 20.7509 21.7197 21.5923 21.0738 22.2459C20.4281 22.8998 19.8882 23.5764 19.8742 23.7493C19.8602 23.9224 19.7564 24.0565 19.6438 24.0473C19.5312 24.0382 19.485 24.1347 19.5415 24.262C19.5978 24.3891 19.4943 24.6377 19.3115 24.8142C19.0089 25.1064 19.0149 25.1743 19.3777 25.5667C19.6861 25.9 19.7217 26.0621 19.534 26.28C19.2243 26.6402 19.3111 27.7124 19.6655 27.9021C19.8383 27.9948 19.9 27.9452 19.8367 27.7651C19.7821 27.6099 19.8625 27.6922 20.0151 27.9479C20.2424 28.3284 20.5082 28.4251 21.4809 28.4812C22.3326 28.5301 22.7424 28.4536 22.9278 28.2114C23.0701 28.0254 23.2832 27.881 23.4012 27.8905C23.5195 27.9001 23.8301 27.6312 24.0917 27.2925C24.3532 26.9541 24.8376 26.5948 25.1677 26.4941C25.498 26.3935 25.7254 26.2536 25.673 26.1837C25.5493 26.0179 28.4209 23.2104 28.6916 23.2324C28.805 23.2416 28.856 23.1546 28.8048 23.0392C28.7536 22.9238 29.0538 22.3998 29.4721 21.8748C29.8901 21.35 30.2415 20.8072 30.2527 20.6686C30.264 20.5299 30.513 20.1153 30.806 19.7474C31.0989 19.3792 31.2968 19.0219 31.2455 18.9532C31.1942 18.8846 31.3192 18.5287 31.5232 18.1624C31.7273 17.7961 31.8853 17.327 31.8744 17.1198C31.8635 16.9125 31.9816 16.5273 32.137 16.2637C32.2924 16 32.3779 15.6904 32.327 15.5755C32.2761 15.4608 32.3279 15.312 32.4422 15.2447C32.5565 15.1777 32.6899 14.6307 32.7386 14.0293C32.7873 13.4279 32.9649 12.7266 33.1331 12.4708C33.5443 11.846 33.8523 8.28311 33.5265 7.92185C33.3989 7.78058 33.3496 7.49151 33.4169 7.27977C33.4841 7.0678 33.3803 6.5173 33.1864 6.05638C32.9924 5.59544 32.8765 5.10657 32.9291 4.96972C33.0217 4.72819 32.7332 4.15962 31.9282 2.99783C31.7125 2.68642 31.5432 2.34072 31.5522 2.22976C31.5873 1.79668 30.75 1.4809 28.9507 1.24861C27.9184 1.11519 26.664 1.05754 26.1632 1.12046ZM9.1269 0.134222C8.85632 0.16825 8.53505 0.274913 8.41308 0.371411C8.29092 0.467894 7.91568 0.548294 7.57894 0.550199C7.2424 0.5519 7.00008 0.597725 7.04049 0.651869C7.13081 0.772868 5.70716 1.46455 5.4165 1.441C5.10436 1.4157 3.58918 3.02312 3.69674 3.26539C3.74781 3.38034 3.6446 3.52413 3.4675 3.58475C3.26354 3.6547 3.16933 3.85829 3.21058 4.14009C3.25124 4.41719 3.18001 4.57729 3.02172 4.56446C2.76764 4.54387 1.89607 6.46067 2.14732 6.48744C2.2205 6.49537 2.18103 6.5667 2.05947 6.6462C1.77765 6.83082 1.00952 8.73078 0.87035 9.58759C0.811942 9.94779 0.665351 10.6222 0.544966 11.0862C0.387357 11.6922 0.390487 11.8916 0.556137 11.7944C0.700328 11.7096 0.736515 11.7752 0.652774 11.9696C0.579121 12.1406 0.663264 12.7464 0.839969 13.3156C1.08393 14.1028 1.24077 14.3234 1.4944 14.2367C1.74484 14.1508 1.79012 14.2098 1.67637 14.4742C1.56026 14.7437 1.69543 14.8999 2.25547 15.1424C2.65742 15.3165 3.15119 15.3959 3.353 15.3189C4.01509 15.0662 4.87775 15.0981 5.45181 15.3959C6.45519 15.9169 7.24405 16.1456 7.37054 15.9523C7.43834 15.8488 7.66264 15.7778 7.86931 15.7946C8.36142 15.8345 8.30346 16.7972 7.78709 17.1576C7.44496 17.3966 6.64474 18.7457 6.61304 19.1368C6.60549 19.23 6.46495 19.4524 6.30049 19.631C5.8568 20.1137 5.05737 21.5082 5.02988 21.8475C5.01668 22.0103 4.8653 22.2559 4.69345 22.3935C4.52161 22.531 4.36225 22.8751 4.33931 23.1581C4.3141 23.4692 4.11712 23.7607 3.84135 23.8947C3.16466 24.224 2.69416 24.759 2.56776 25.3428C2.50587 25.6282 2.34422 25.8249 2.20854 25.7805C2.07287 25.7362 2.0086 25.8057 2.06612 25.9349C2.12342 26.0643 2.07806 26.1626 1.96543 26.1534C1.85281 26.1443 1.74095 26.3781 1.71703 26.6732C1.69312 26.9683 1.58154 27.2635 1.46905 27.3296C1.14122 27.522 1.20495 27.8003 1.61288 27.9583C1.83348 28.0437 1.97563 28.2894 1.9546 28.5489C1.90178 29.2006 2.40736 29.8098 2.76417 29.5242C2.91892 29.4005 3.1317 29.3708 3.23719 29.4583C3.34267 29.5461 3.48919 29.4781 3.56262 29.3076C3.69769 28.9941 4.69323 28.7178 5.26755 28.8344C5.43905 28.8693 5.64579 28.7434 5.72712 28.5547C5.80844 28.366 5.94902 28.273 6.03953 28.3483C6.25599 28.5279 8.5592 26.3686 8.59276 25.9544C8.60704 25.7782 8.75976 25.5858 8.93187 25.5268C9.10417 25.4677 9.19826 25.3137 9.14077 25.1843C9.08345 25.0551 9.33502 24.5876 9.69964 24.1456C10.0644 23.7037 10.3716 23.2327 10.3824 23.0991C10.3933 22.9655 10.4946 22.8636 10.6078 22.8728C10.7208 22.8819 10.8015 22.6991 10.7868 22.4668C10.7722 22.2343 11.0476 21.734 11.3989 21.3553C11.7502 20.9764 12.0446 20.5886 12.0531 20.4938C12.0616 20.3987 12.1914 20.2488 12.3415 20.1606C12.4918 20.0724 12.6168 19.912 12.6195 19.8041C12.6341 19.2182 13.1757 17.9977 13.3551 18.1465C13.4761 18.247 13.5109 18.2098 13.4419 18.0542C13.3785 17.9113 13.4246 17.6233 13.5446 17.4145C13.6872 17.166 13.7037 16.886 13.5921 16.6043C13.4579 16.2654 13.477 16.203 13.6809 16.3118C13.8723 16.4138 13.9681 16.2236 14.0457 15.5883C14.1036 15.1143 14.2383 14.6157 14.3449 14.4801C14.5592 14.208 14.7908 12.6387 14.9634 10.2873C15.0254 9.44085 15.1116 8.29069 15.1548 7.73153C15.2115 6.99787 15.1487 6.66942 14.9298 6.55193C14.7627 6.46253 14.6751 6.26899 14.7354 6.12171C14.8575 5.82352 14.4155 4.60312 14.1782 4.58389C14.0948 4.57713 14.0349 4.46854 14.0451 4.34264C14.0553 4.21674 13.9047 3.8845 13.7104 3.60446C13.5163 3.32443 13.4045 2.98583 13.4623 2.85207C13.5756 2.58877 13.1517 2.01675 12.6402 1.74263C12.4651 1.64882 12.3346 1.39585 12.3505 1.18039C12.3751 0.846644 12.3472 0.835093 12.162 1.10297C11.9745 1.37396 11.9237 1.37183 11.7918 1.08779C11.6653 0.815445 10.0548 0.01766 9.71728 0.059979C9.66315 0.0668724 9.39749 0.100194 9.1269 0.134222ZM19.6047 12.654C19.5998 12.7144 19.5522 12.7603 19.499 12.756C19.4458 12.7517 19.4062 12.6987 19.4111 12.6383C19.416 12.5779 19.4636 12.532 19.5168 12.5363C19.57 12.5406 19.6096 12.5935 19.6047 12.654ZM31.1585 19.1064C31.1541 19.1598 31.0443 19.2657 30.9144 19.3419C30.7681 19.428 30.7386 19.3885 30.8371 19.2383C30.9954 18.9961 31.1733 18.9232 31.1585 19.1064ZM19.5751 25.037C19.5702 25.0975 19.5226 25.1434 19.4694 25.1391C19.4162 25.1347 19.3767 25.0818 19.3816 25.0214C19.3865 24.9609 19.434 24.915 19.4872 24.9193C19.5404 24.9236 19.58 24.9766 19.5751 25.037ZM3.50868 28.6008C3.50378 28.6612 3.45623 28.7071 3.40302 28.7028C3.3498 28.6985 3.31027 28.6455 3.31516 28.5851C3.32006 28.5247 3.36761 28.4787 3.42082 28.4831C3.47404 28.4874 3.51357 28.5403 3.50868 28.6008ZM1.36221 28.648C1.35732 28.7084 1.39685 28.7614 1.45007 28.7657C1.50328 28.77 1.55083 28.7241 1.55573 28.6637C1.56062 28.6032 1.52109 28.5503 1.46787 28.546C1.41466 28.5417 1.36711 28.5876 1.36221 28.648ZM2.82758 28.9941C2.79679 29.374 2.44664 29.289 2.36185 28.8812C2.33131 28.734 2.42983 28.6239 2.58058 28.6361C2.73133 28.6484 2.84254 28.8095 2.82758 28.9941Z" fill="#FD73C5"/>
</svg>
