<svg width="31" height="32" viewBox="0 0 31 32" fill="none" xmlns="http://www.w3.org/2000/svg">
<path fill-rule="evenodd" clip-rule="evenodd" d="M15.1599 0.919855C15.1496 0.969977 15.1788 1.01875 15.2249 1.02825C15.2709 1.03774 15.3171 1.0045 15.3274 0.954376C15.3377 0.904254 15.3085 0.855477 15.2624 0.845984C15.2164 0.836491 15.1702 0.869732 15.1599 0.919855ZM15.9194 1.48357C15.8033 2.02891 15.2501 2.09804 15.0161 1.59647C14.8663 1.27526 14.7804 1.2338 14.5827 1.38648C14.3924 1.53384 14.3788 1.6063 14.523 1.70498C14.6441 1.78769 14.5522 1.91334 14.2629 2.0614C13.9354 2.22893 13.8238 2.40182 13.8458 2.70771C13.8621 2.93738 13.8292 3.0522 13.7725 2.96318C13.6185 2.72109 13.154 3.05762 13.1978 3.3794C13.2189 3.53291 13.1526 3.64122 13.0506 3.6202C12.9486 3.59917 12.8821 3.49996 12.9027 3.39972C12.9234 3.29947 12.8604 3.20099 12.7629 3.1809C12.6654 3.1608 12.6149 3.23494 12.6507 3.34569C12.6866 3.45626 12.6219 3.48283 12.5071 3.40445C12.2613 3.23673 11.6433 3.95469 11.7498 4.28408C11.7901 4.40809 11.7097 4.48386 11.569 4.45486C11.3142 4.40236 9.87773 5.36906 9.82416 5.62896C9.77728 5.85643 7.53199 9.01308 7.23941 9.26267C7.09151 9.38894 6.51557 10.339 5.95967 11.374C5.40361 12.4089 4.72546 13.6372 4.45265 14.1035C3.40944 15.8856 2.02665 19.699 1.53544 22.1475C0.633556 26.6435 0.435299 28.5449 0.794529 29.2528C1.07323 29.8016 2.2062 30.2059 3.11126 30.0793C3.45843 30.0308 3.99438 30.1312 4.54496 30.3479C5.96226 30.906 6.96307 30.558 8.78732 28.8732C9.49192 28.2223 10.4996 26.8988 10.5808 26.5176C10.6087 26.3864 11.0333 25.7216 11.5241 25.0406C12.6047 23.5414 13.5258 20.9183 13.4055 19.6835C13.2907 18.5078 13.1537 18.0943 12.8121 17.8935C12.633 17.7882 12.3476 17.5244 12.1777 17.3069C11.7652 16.7792 9.73143 16.459 8.71766 16.7623C8.32822 16.8787 8.02461 16.9014 8.0429 16.8127C8.17217 16.1855 9.62775 13.1524 10.4744 11.7461C11.4505 10.1247 11.9336 9.22164 12.0364 8.82633C12.0622 8.72716 12.2388 8.56537 12.4288 8.46678C12.6187 8.36798 12.7487 8.20837 12.7172 8.11183C12.686 8.01514 12.7569 7.89674 12.8746 7.84841C13.033 7.7836 13.0466 7.71762 12.9266 7.59521C12.6794 7.34306 13.8069 5.7816 14.3441 5.63201C14.5877 5.56422 14.8428 5.5657 14.9109 5.63521C14.9792 5.70476 15.0698 5.59272 15.1123 5.3864C15.1561 5.17425 15.2989 5.03363 15.4409 5.0629C15.5791 5.09138 15.7084 5.03595 15.7283 4.93953C15.7481 4.84311 15.9549 4.63702 16.1878 4.48151C16.4808 4.28578 16.675 3.94332 16.8186 3.36909C17.0479 2.45358 17.0188 2.38185 16.5807 2.78024C16.3149 3.02168 16.3039 2.97285 16.4786 2.33169C16.6261 1.79073 16.6125 1.59925 16.424 1.56042C16.2862 1.532 16.1349 1.41533 16.0879 1.30114C16.0409 1.18694 15.9652 1.26899 15.9194 1.48357ZM16.5546 1.77734C16.5443 1.82746 16.4982 1.8607 16.4521 1.85121C16.406 1.84172 16.3768 1.79294 16.3871 1.74282C16.3975 1.69269 16.4436 1.65945 16.4897 1.66895C16.5357 1.67844 16.565 1.72722 16.5546 1.77734ZM28.6876 4.75308C28.5476 4.93323 28.3227 5.05788 28.1879 5.03009C28.0529 5.00227 27.9238 5.07028 27.9009 5.18128C27.878 5.29228 27.756 5.31254 27.6297 5.22628C27.5034 5.1402 27.3879 5.12857 27.3729 5.20053C27.3581 5.2727 27.0186 5.59719 26.6187 5.92195C26.2186 6.24667 25.9137 6.58093 25.9408 6.66461C26.0396 6.97019 25.2462 7.96169 24.7764 8.11966C24.5108 8.20875 24.2553 8.40899 24.2087 8.56469C24.1619 8.72036 24.0932 8.95548 24.0561 9.08748C24.0187 9.21944 23.8413 9.40176 23.6615 9.49277C23.482 9.58364 23.1337 9.99617 22.8873 10.4094C22.6412 10.8225 22.2727 11.41 22.0686 11.7149C21.8647 12.0198 21.7145 12.3926 21.7351 12.5436C21.7556 12.6945 21.5507 13.0096 21.2794 13.2439C20.7482 13.7027 20.48 14.1371 20.1954 14.9988C20.0958 15.2999 19.9267 15.6261 19.8193 15.7235C19.5055 16.0086 18.4719 17.9128 18.3172 18.491C18.2391 18.7829 18.0842 19.109 17.9729 19.2152C17.8616 19.3217 17.7883 19.539 17.81 19.6981C17.8318 19.8574 17.7662 20.0218 17.6641 20.0636C17.5621 20.1055 17.5062 20.2249 17.5401 20.3291C17.5738 20.4334 17.5405 20.5061 17.4659 20.4908C17.3914 20.4754 17.2827 20.6455 17.2243 20.8685C17.0238 21.6345 16.3144 23.3336 16.1211 23.5111C16.0145 23.6088 15.8956 23.8105 15.8567 23.9592C15.2756 26.1839 14.86 27.5072 14.6626 27.7613C14.4942 27.9782 14.4634 28.1467 14.5617 28.3108C14.6398 28.441 14.6752 28.6859 14.6404 28.8548C14.5672 29.2102 15.1393 29.8915 15.5889 29.9842C15.7579 30.019 16.0069 29.9677 16.1423 29.8702C16.3336 29.7324 16.37 29.7821 16.3057 30.0939C16.2489 30.3693 16.3249 30.5159 16.5482 30.5619C16.727 30.5988 16.9324 30.5615 17.0045 30.4793C17.0767 30.3969 17.5603 30.3586 18.0797 30.394C18.792 30.4426 19.1514 30.5617 19.5444 30.8796C20.0171 31.2617 20.1595 31.2939 21.0788 31.2261C21.6363 31.185 22.3354 31.0266 22.6322 30.8742C22.9292 30.7219 23.2674 30.6168 23.384 30.6408C23.6886 30.7036 24.7673 29.7771 25.4665 28.8523C25.7966 28.4158 26.1211 28.0271 26.1879 27.9886C26.3181 27.9134 26.6517 27.1093 27.0139 25.9972C27.1376 25.6176 27.3345 25.2238 27.4515 25.1219C27.5686 25.0201 27.8085 24.3931 27.9846 23.7285C28.2307 22.8003 28.2656 22.3399 28.1353 21.7417C28.042 21.3136 27.9827 20.8803 28.0035 20.7791C28.0684 20.4645 27.4791 19.7045 27.1116 19.6287C26.9192 19.5891 26.6343 19.4101 26.4784 19.2311C26.2121 18.9252 25.5029 18.5506 24.7561 18.3213C24.5754 18.2658 24.3992 18.1535 24.3644 18.0714C24.3296 17.9894 24.0729 17.9956 23.7942 18.085C23.5152 18.1746 23.303 18.1707 23.3224 18.0765C23.3418 17.9821 23.2527 17.8833 23.1242 17.8569C22.7363 17.7769 23.694 15.8185 24.3751 15.2986C24.5176 15.1899 24.6837 14.8604 24.7443 14.5664C24.8508 14.0495 25.6812 12.8004 25.7935 12.9879C25.8239 13.0386 25.9113 12.862 25.9876 12.5952C26.064 12.3286 26.2068 12.0985 26.3051 12.084C26.4033 12.0693 26.522 11.88 26.5687 11.6633C26.6155 11.4465 26.8435 11.0944 27.0753 10.881C27.3072 10.6675 27.5191 10.3935 27.5462 10.2722C27.5733 10.1508 27.7709 9.99261 27.9853 9.92053C28.2133 9.844 28.3589 9.67185 28.3361 9.50546C28.3119 9.32813 28.4695 9.17593 28.7553 9.10088C29.0071 9.03478 29.2358 8.87063 29.2634 8.7363C29.2911 8.60215 29.436 8.51745 29.5854 8.54824C29.799 8.59226 29.8269 8.54122 29.7157 8.31004C29.6035 8.07677 29.6341 8.03388 29.8638 8.10306C30.0229 8.15106 30.1749 8.09498 30.2012 7.97841C30.2274 7.86203 30.3103 7.72255 30.3854 7.66847C30.7256 7.42319 30.6082 4.95894 30.2528 4.88568C30.1624 4.86704 30.0272 5.02652 29.9526 5.24029C29.818 5.62468 29.8127 5.62263 29.4327 5.03814C28.9737 4.3321 29.0051 4.34409 28.6876 4.75308ZM29.6737 5.05134C29.6634 5.10146 29.6926 5.15024 29.7387 5.15973C29.7848 5.16922 29.8309 5.13598 29.8412 5.08586C29.8516 5.03574 29.8223 4.98696 29.7763 4.97747C29.7302 4.96797 29.6841 5.00121 29.6737 5.05134ZM17.0728 3.49918C17.0452 3.63278 17.0842 3.69782 17.1594 3.64378C17.2345 3.58952 17.2571 3.48017 17.2095 3.40064C17.1618 3.32126 17.1003 3.36559 17.0728 3.49918ZM16.5515 3.48675C16.5412 3.53687 16.4951 3.57012 16.449 3.56062C16.4029 3.55113 16.3737 3.50235 16.384 3.45223C16.3944 3.40211 16.4405 3.36886 16.4866 3.37836C16.5326 3.38785 16.5619 3.43663 16.5515 3.48675ZM23.782 30.2478C23.7717 30.298 23.7256 30.3312 23.6795 30.3217C23.6335 30.3122 23.6042 30.2634 23.6146 30.2133C23.6249 30.1632 23.671 30.1299 23.7171 30.1394C23.7631 30.1489 23.7924 30.1977 23.782 30.2478ZM20.2992 31.05C20.2889 31.1002 20.2427 31.1334 20.1967 31.1239C20.1506 31.1144 20.1214 31.0656 20.1317 31.0155C20.142 30.9654 20.1882 30.9321 20.2342 30.9416C20.2803 30.9511 20.3095 30.9999 20.2992 31.05Z" fill="#FD73C5"/>
</svg>
