<svg width="159" height="180" viewBox="0 0 159 180" fill="none" xmlns="http://www.w3.org/2000/svg">
<path fill-rule="evenodd" clip-rule="evenodd" d="M1.27142 18.8494C0.992299 18.964 0.919798 19.1833 1.02595 19.5922C1.14726 20.0595 1.40972 20.2274 2.37194 20.4531C3.02936 20.6072 4.41545 20.9713 5.45231 21.2622C6.48916 21.553 7.46321 21.7738 7.61653 21.7528C7.77007 21.7318 8.62963 22.0307 9.52638 22.4171C10.4233 22.8034 11.3445 23.0939 11.5734 23.0626C11.8021 23.0313 12.2536 23.1415 12.5762 23.3075C12.899 23.4734 13.7788 23.81 14.5313 24.0553C15.284 24.3006 16.0589 24.6474 16.2537 24.826C16.4484 25.0046 16.8273 25.1205 17.096 25.0838C17.3645 25.047 17.9797 25.2614 18.4632 25.5599C18.9467 25.8584 19.6944 26.131 20.1246 26.1656C20.5549 26.2002 21.1591 26.4494 21.4675 26.7196C21.7761 26.9895 22.4654 27.3429 22.9996 27.5049C23.5339 27.6669 24.3922 28.0907 24.9071 28.4465C25.4221 28.8023 26.488 29.3631 27.2759 29.6929C28.0638 30.0227 29.0094 30.5181 29.3776 30.7937C30.7354 31.8107 31.6162 32.3529 31.8572 32.32C31.9935 32.3013 32.1188 32.3883 32.1359 32.5132C32.153 32.6382 32.2801 32.7249 32.4184 32.706C32.5567 32.687 33.2742 33.1616 34.0128 33.7605C34.7512 34.3594 35.5207 34.8269 35.7224 34.7993C35.9241 34.7717 36.4265 35.0935 36.8388 35.5142C37.9699 36.6687 40.9538 38.9428 41.2793 38.8982C41.4367 38.8767 41.5869 39.0156 41.6131 39.2068C41.6393 39.3983 41.8221 39.5927 42.0193 39.6388C42.2165 39.6852 42.3962 39.8568 42.4186 40.0206C42.441 40.1841 42.5498 40.3402 42.6607 40.3676C42.7713 40.3948 43.2771 40.8289 43.7844 41.3322C44.292 41.8355 45.084 42.5573 45.5449 42.9362C46.0056 43.3152 46.4005 43.7556 46.4223 43.9153C46.4441 44.0748 46.5542 44.1928 46.6666 44.1774C46.8922 44.1465 48.081 45.5347 48.2377 46.0114C48.2917 46.1764 48.5683 46.4308 48.852 46.5767C49.1358 46.7227 49.3822 46.9454 49.3994 47.0715C49.4167 47.1977 49.7322 47.6009 50.1005 47.9677C50.4688 48.3346 50.7798 48.705 50.7916 48.7911C50.8034 48.8772 51.1648 49.2084 51.5944 49.5273C52.0242 49.8459 52.3203 50.1143 52.2521 50.1236C52.1842 50.1329 52.5786 50.6516 53.1287 51.2763C53.6791 51.901 54.2025 52.4021 54.2923 52.3898C54.382 52.3775 54.7705 53.0151 55.156 53.8064C55.5414 54.5978 56.2098 55.5712 56.6415 55.9699C57.0732 56.3683 57.4508 56.8743 57.4809 57.0939C57.511 57.3138 58.3106 58.6124 59.2581 59.9799C60.2052 61.3472 61.4312 63.4399 61.9819 64.6303C62.5328 65.8208 63.1757 66.9563 63.4105 67.1537C63.645 67.3511 63.7748 67.5213 63.6984 67.5317C63.6223 67.5421 63.761 67.9415 64.0066 68.4193C64.2524 68.8968 64.4161 69.4471 64.3703 69.6422C64.3182 69.8645 64.423 69.9779 64.6522 69.9465C64.9073 69.9116 65.0456 70.1042 65.1114 70.5853C65.1632 70.9641 65.4257 71.631 65.6948 72.0674C65.9637 72.5038 66.2561 73.1633 66.3447 73.5329C66.6123 74.6519 67.3062 76.2938 67.5002 76.2672C67.7789 76.2291 68.0869 77.3354 67.8517 77.5293C67.7324 77.628 67.813 77.7657 68.0433 77.8562C68.4796 78.0276 68.7048 78.8791 68.3276 78.9307C68.1656 78.9529 68.1843 79.0899 68.388 79.3707C68.6461 79.7264 68.9694 80.6573 69.1387 81.5314C69.1679 81.6825 69.33 81.7302 69.4989 81.6374C69.7232 81.5142 69.7901 81.6006 69.7471 81.9577C69.7147 82.2267 69.6004 82.4589 69.4932 82.4735C69.2727 82.5037 69.692 83.8879 69.9645 84.0288C70.0618 84.0791 70.1941 84.5978 70.2585 85.1818C70.3231 85.7656 70.4462 86.1852 70.5325 86.1141C70.7284 85.9524 70.7924 86.3273 70.6098 86.5677C70.4161 86.8228 70.498 87.6581 70.714 87.6285C70.8142 87.6148 70.8571 87.7693 70.8096 87.972C70.7571 88.1958 70.831 88.2993 70.9974 88.2355C71.1485 88.1779 71.3362 88.2521 71.4147 88.4004C71.4934 88.5488 71.447 88.6852 71.3116 88.7037C70.9591 88.7519 71.0671 89.1745 71.5195 89.5182C71.7326 89.68 71.9258 89.9511 71.949 90.1205C71.9722 90.29 71.8589 90.6031 71.6971 90.8161C71.5353 91.0291 71.411 91.2618 71.4208 91.3333C71.4305 91.4047 71.5918 91.4421 71.7792 91.4164C72.1611 91.3642 72.3228 91.931 72.0016 92.1959C71.8872 92.2902 71.8146 92.5206 71.8402 92.708C71.8662 92.8979 71.9881 92.9652 72.1156 92.8601C72.2817 92.7231 72.2934 92.8083 72.1583 93.1727C71.9069 93.8499 71.953 94.0127 72.3369 93.8017C72.5145 93.7043 72.6733 93.7235 72.6899 93.8443C72.7064 93.9654 72.6296 94.0768 72.5194 94.0919C72.2053 94.1348 72.2254 95.2342 72.5451 95.4938C72.7546 95.6641 72.759 95.7654 72.5607 95.8702C72.4117 95.9494 72.3497 96.0868 72.4229 96.1755C72.4962 96.2643 72.6857 96.8803 72.8439 97.5445C73.0021 98.2084 73.2376 99.0389 73.3674 99.3902C73.5339 99.841 73.5202 99.9917 73.321 99.9035C72.9394 99.734 73.0394 100.327 73.4491 100.663C73.6402 100.819 73.66 100.885 73.4971 100.821C73.3419 100.76 73.1944 100.918 73.1628 101.18C73.1196 101.539 73.2204 101.633 73.5971 101.585L74.0875 101.523L73.6406 101.984C73.1997 102.439 73.2219 103.083 73.7069 103.91C73.8198 104.103 73.8101 104.644 73.6852 105.113C73.5154 105.752 73.5638 106.523 73.878 108.18C74.2698 110.247 74.2687 110.433 73.8606 111.006C73.4325 111.606 73.4334 111.624 73.9053 111.894C74.1917 112.058 74.2903 112.222 74.1484 112.3C74.0171 112.371 73.7378 112.613 73.5277 112.836C73.1662 113.221 73.1784 113.231 73.752 113.024C74.3919 112.793 74.6737 113.145 74.1008 113.46C73.9233 113.558 73.8055 113.838 73.839 114.084C73.8726 114.329 73.7919 114.69 73.6595 114.885C72.8483 116.084 72.7971 116.267 73.2939 116.199C73.4679 116.176 73.6895 116.3 73.7862 116.476C73.8879 116.661 73.8427 116.79 73.679 116.78C73.4866 116.769 73.446 117.142 73.5523 117.943C73.6385 118.591 73.6444 119.207 73.5658 119.31C73.4872 119.414 73.4625 119.788 73.5109 120.142C73.5622 120.517 73.4839 120.777 73.3236 120.765C73.1721 120.754 72.9942 121.065 72.9282 121.456C72.8621 121.847 72.7374 122.366 72.6514 122.61C72.5654 122.855 72.5057 123.592 72.5187 124.248C72.5339 125.026 72.4108 125.566 72.1649 125.796C71.9574 125.991 71.8187 126.377 71.8566 126.655C71.8946 126.933 71.7464 127.331 71.5273 127.539C71.1417 127.906 71.2167 128.428 71.6082 128.105C72.0512 127.74 71.798 128.308 71.1977 129.027C70.7307 129.586 70.6849 129.71 71.033 129.474C71.4159 129.214 71.5959 129.209 71.912 129.449C72.1307 129.615 72.2601 129.863 72.1996 129.999C72.139 130.136 72.1944 130.233 72.323 130.216C72.8088 130.149 72.3674 130.882 71.7239 131.21C71.2192 131.467 71.1254 131.609 71.3475 131.777C71.5693 131.946 71.7123 131.926 71.9217 131.697C72.0749 131.53 72.2833 131.456 72.3843 131.533C72.4855 131.61 72.6355 131.521 72.7176 131.336C72.9599 130.79 73.6056 131.086 73.5307 131.708C73.495 132.004 73.4072 132.126 73.3351 131.98C73.1169 131.537 72.8177 131.735 73.0083 132.196C73.106 132.433 73.2987 132.589 73.4363 132.543C73.7762 132.429 73.7913 133.706 73.4552 134.148C73.3113 134.338 73.0935 134.507 72.9713 134.523C72.8491 134.54 72.8318 134.754 72.9328 134.998C73.0636 135.315 73.2333 135.387 73.5249 135.248C74.0359 135.006 74.4169 135.606 74.141 136.22C73.9101 136.734 74.1507 137.003 74.5003 136.622C74.788 136.308 75.4593 136.988 76.0839 138.227C76.4004 138.854 76.6706 139.053 77.3899 139.189C77.8887 139.284 78.5655 139.581 78.8942 139.851C79.5266 140.37 79.9099 140.481 79.558 140.043C79.4158 139.866 79.4853 139.866 79.7755 140.042C80.145 140.266 80.1954 140.249 80.1495 139.914C80.1203 139.701 80.2304 139.553 80.3938 139.585C80.5574 139.618 80.7241 139.916 80.7647 140.248C80.805 140.58 80.9187 140.841 81.0175 140.827C81.116 140.814 81.1771 140.659 81.1531 140.484C81.1292 140.309 81.4161 140.01 81.7907 139.819C82.7275 139.341 83.0769 139.324 83.1355 139.752C83.1683 139.992 83.3025 140.053 83.5259 139.93C83.7131 139.827 83.9602 139.73 84.0749 139.715C84.1896 139.699 84.2648 139.55 84.242 139.384C84.1844 138.962 85.478 138.41 86.2829 138.513C87.1109 138.618 87.5199 138.406 87.6214 137.82C87.7089 137.315 88.0197 137.182 88.21 137.568C88.284 137.718 88.5263 137.549 88.8085 137.151C89.226 136.561 89.4054 136.481 90.3101 136.48C91.2442 136.48 91.2898 136.506 90.8116 136.763C90.3023 137.037 90.3007 137.054 90.7651 137.307C91.0846 137.482 91.3236 137.483 91.481 137.311C91.6111 137.17 91.7938 137.111 91.8873 137.182C91.9808 137.253 92.0409 137.192 92.021 137.047C92.001 136.901 91.8562 136.792 91.6988 136.806C91.5417 136.819 91.6429 136.7 91.9237 136.54C92.2277 136.367 92.5489 136.319 92.7171 136.42C92.8726 136.513 93.3356 136.614 93.7461 136.645C94.2319 136.681 94.4666 136.812 94.4182 137.018C94.3414 137.346 95.7087 137.953 95.9142 137.683C95.9755 137.602 95.7612 137.321 95.4376 137.058L94.8496 136.58L95.5711 136.78C95.968 136.891 96.5078 137.083 96.7709 137.209C97.1076 137.369 97.324 137.355 97.5028 137.16C97.6889 136.957 97.9135 137.02 98.3449 137.398C98.6685 137.682 99.0942 137.895 99.2908 137.872C99.4876 137.849 99.8625 137.951 100.124 138.098C100.386 138.245 100.673 138.304 100.763 138.23C100.852 138.156 101.087 138.27 101.284 138.482C101.481 138.695 101.984 138.897 102.402 138.93C102.82 138.964 103.175 139.082 103.19 139.194C103.205 139.305 103.68 139.541 104.245 139.717C104.81 139.893 105.145 140.058 104.99 140.084C104.834 140.111 104.722 140.241 104.74 140.374C104.76 140.518 104.961 140.527 105.235 140.397C105.53 140.257 105.656 140.27 105.583 140.434C105.521 140.574 105.582 140.739 105.72 140.801C105.858 140.862 105.956 140.803 105.938 140.671C105.919 140.539 106.211 140.389 106.586 140.337C106.991 140.282 107.284 140.363 107.308 140.537C107.33 140.698 107.893 141.056 108.56 141.332C109.226 141.608 109.767 141.946 109.762 142.084C109.756 142.221 109.936 142.275 110.162 142.204C110.422 142.123 110.527 142.177 110.449 142.353C110.381 142.506 110.528 142.802 110.776 143.011C111.176 143.347 111.274 143.346 111.645 143.003C112.016 142.66 112.147 142.661 112.832 143.013C113.255 143.232 113.747 143.55 113.925 143.721C114.213 143.997 114.245 143.987 114.203 143.634C114.152 143.206 114.698 143.01 114.982 143.354C115.076 143.468 115.045 143.577 114.913 143.595C114.78 143.613 114.686 143.73 114.703 143.855C114.72 143.98 114.836 144.068 114.961 144.051C115.086 144.034 115.659 144.366 116.234 144.789C116.809 145.213 117.406 145.489 117.561 145.404C117.716 145.319 117.925 145.401 118.027 145.585C118.128 145.769 118.343 145.902 118.504 145.88C118.665 145.858 118.959 146.035 119.157 146.273C119.359 146.515 119.652 146.632 119.824 146.537C119.999 146.441 120.264 146.553 120.44 146.796C120.695 147.147 120.803 147.164 121.053 146.892C121.298 146.624 121.404 146.618 121.607 146.859C121.745 147.023 121.871 147.239 121.887 147.34C121.902 147.441 122.015 147.441 122.137 147.34C122.259 147.24 122.441 147.355 122.54 147.596C122.669 147.906 122.88 147.995 123.263 147.899C123.564 147.824 123.803 147.878 123.801 148.021C123.794 148.443 124.232 149.03 124.524 148.99C125.153 148.904 126.113 149.396 126.396 149.949C126.564 150.276 126.849 150.523 127.029 150.498C127.21 150.474 127.437 150.599 127.535 150.776C127.633 150.955 127.995 151.062 128.344 151.016C128.785 150.958 128.892 151.005 128.695 151.171C128.486 151.347 128.488 151.441 128.703 151.536C128.862 151.607 129.037 151.604 129.093 151.531C129.25 151.324 130.158 151.966 130.618 152.611C130.846 152.929 131.187 153.169 131.375 153.143C131.563 153.118 131.797 153.242 131.894 153.419C131.992 153.597 132.225 153.721 132.414 153.695C132.979 153.618 134.638 154.369 134.84 154.793C134.943 155.011 135.125 155.189 135.243 155.188C135.362 155.188 135.56 155.187 135.683 155.186C135.931 155.184 136.589 155.603 137.246 156.183C137.875 156.737 138.795 157.219 139.133 157.173C139.295 157.15 139.44 157.228 139.456 157.344C139.472 157.461 139.696 157.592 139.954 157.637C140.211 157.682 140.805 157.998 141.273 158.34C142.116 158.955 142.638 159.174 144.032 159.496C144.426 159.588 145.239 160.001 145.839 160.415C146.438 160.829 147.141 161.204 147.399 161.249C147.658 161.294 147.882 161.426 147.898 161.542C147.914 161.659 148.025 161.741 148.144 161.725C148.263 161.708 148.773 161.899 149.276 162.148C150.315 162.664 150.782 162.658 151.335 162.125C151.688 161.784 151.684 161.671 151.287 160.801C150.245 158.52 149.513 157.28 148.927 156.803C148.748 156.658 148.581 156.39 148.557 156.209C148.505 155.834 147.284 154.322 146.892 154.148C146.749 154.084 146.674 153.937 146.725 153.821C146.894 153.441 145.559 151.218 145.26 151.382C145.108 151.466 144.83 151.394 144.644 151.223C144.403 151.002 144.381 150.901 144.567 150.876C144.76 150.849 144.749 150.727 144.525 150.419C144.357 150.187 144.299 149.98 144.396 149.959C144.493 149.938 144.33 149.859 144.033 149.785C143.669 149.693 143.468 149.459 143.414 149.061C143.368 148.723 143.244 148.546 143.124 148.645C143.009 148.74 142.832 148.666 142.73 148.482C142.629 148.298 142.438 148.228 142.306 148.328C142.164 148.435 142.165 148.367 142.31 148.162C142.508 147.879 142.442 147.742 141.954 147.425C141.258 146.972 140.372 145.791 140.552 145.554C140.62 145.465 140.505 145.415 140.297 145.444C140.088 145.472 139.904 145.393 139.887 145.269C139.87 145.144 139.667 145.067 139.437 145.099C138.881 145.175 138.066 144.47 138.175 144.007C138.233 143.76 138.126 143.658 137.849 143.696C137.623 143.727 137.224 143.573 136.964 143.354C136.526 142.986 136.52 142.953 136.88 142.903C137.098 142.873 137.189 142.752 137.086 142.628C136.986 142.506 136.768 142.48 136.602 142.571C136.413 142.675 136.28 142.584 136.245 142.327C136.169 141.771 135.9 141.604 135.602 141.929C135.428 142.119 135.303 142.101 135.175 141.87C135.076 141.689 135.094 141.528 135.215 141.511C135.336 141.495 135.421 141.379 135.404 141.254C135.387 141.129 135.194 141.049 134.975 141.075C134.756 141.101 134.273 140.812 133.903 140.432C133.533 140.052 133.181 139.763 133.121 139.79C132.93 139.875 131.64 138.794 131.754 138.645C131.813 138.566 131.655 138.328 131.403 138.115C131.149 137.902 130.992 137.617 131.052 137.481C131.113 137.346 130.909 136.924 130.601 136.545C130.292 136.166 130.009 135.639 129.972 135.373C129.936 135.107 129.75 134.793 129.56 134.675C129.371 134.557 128.892 133.777 128.497 132.941C128.102 132.106 127.694 131.433 127.59 131.448C127.487 131.462 127.381 131.164 127.356 130.786C127.33 130.407 127.247 130.106 127.171 130.117C127.095 130.127 126.771 129.625 126.45 129C126.13 128.376 125.746 127.747 125.598 127.603C125.415 127.424 125.399 127.248 125.549 127.051C125.712 126.837 125.663 126.704 125.36 126.54C125.135 126.419 124.907 126.181 124.852 126.012C124.797 125.842 124.459 125.133 124.101 124.436C123.742 123.738 123.487 123.082 123.533 122.978C123.579 122.873 123.447 122.683 123.24 122.554C123.033 122.425 122.841 122.15 122.812 121.943C122.784 121.736 122.567 121.358 122.329 121.101C122.092 120.845 121.933 120.487 121.975 120.305C122.051 119.984 121.614 118.908 121.107 118.165C120.97 117.963 120.843 117.7 120.827 117.582C120.811 117.464 120.64 117.095 120.447 116.763C120.253 116.431 120.104 116.069 120.114 115.957C120.124 115.845 119.93 115.521 119.682 115.236C119.404 114.917 119.247 114.472 119.271 114.074C119.293 113.719 119.23 113.367 119.13 113.292C119.03 113.216 118.931 113.087 118.91 113.006C118.888 112.924 118.765 112.611 118.637 112.31C118.509 112.009 118.305 111.413 118.184 110.984C118.063 110.555 117.871 109.956 117.758 109.654C117.645 109.351 117.477 108.789 117.383 108.405C117.289 108.02 117.121 107.513 117.009 107.277C116.897 107.041 116.67 106.199 116.505 105.407C116.339 104.614 116.109 103.718 115.993 103.416C115.877 103.114 115.679 102.36 115.553 101.741C115.428 101.122 115.227 100.368 115.108 100.066C114.989 99.7645 114.765 98.9621 114.61 98.2833C114.041 95.7878 113.666 94.5555 113.416 94.3655C113.145 94.1598 113.066 93.2198 113.303 93.024C113.436 92.9141 113.415 92.7189 113.243 92.4821C112.956 92.0866 112.908 91.618 113.108 91.1744C113.175 91.024 113.147 90.8367 113.044 90.7585C112.941 90.6802 112.803 90.2942 112.737 89.9004C112.671 89.5068 112.445 88.5313 112.236 87.7327C112.027 86.9341 111.675 85.1601 111.452 83.7906C111.23 82.4211 111.021 81.2523 110.986 81.1934C110.952 81.1344 110.911 80.8533 110.895 80.5686C110.879 80.2767 110.7 80.0121 110.485 79.9615C110.247 79.9057 110.069 79.6045 110.01 79.1597C109.958 78.7679 109.833 78.0943 109.732 77.6627C109.623 77.1947 109.664 76.6988 109.834 76.434C110.076 76.0551 110.071 75.9966 109.792 76.0347C109.54 76.0692 109.428 75.7515 109.299 74.631C109.207 73.8344 109.183 73.0674 109.245 72.927C109.308 72.7863 109.17 72.404 108.939 72.0771C108.709 71.7502 108.596 71.4165 108.688 71.3353C108.901 71.1488 108.8 70.3856 108.567 70.4176C108.471 70.4307 108.36 70.1336 108.319 69.7573C108.278 69.3811 108.332 69.0614 108.438 69.0469C108.732 69.0066 108.605 68.5656 108.214 68.2679C107.979 68.0899 107.829 67.5748 107.759 66.706C107.673 65.6454 107.597 65.4411 107.341 65.5822C107.168 65.6769 107.023 65.7316 107.019 65.7034C107.016 65.6753 107.062 65.3091 107.122 64.8899C107.19 64.422 107.144 64.0883 107.004 64.0261C106.879 63.9706 106.75 63.7339 106.718 63.5006C106.686 63.2671 106.362 62.901 105.997 62.6873C105.633 62.4734 105.424 62.2828 105.534 62.2636C105.644 62.2446 105.515 62.1061 105.248 61.9557C104.832 61.7222 104.816 61.6751 105.138 61.631C105.38 61.5979 105.452 61.4636 105.338 61.2566C105.24 61.0791 105.025 60.9523 104.859 60.975C104.694 60.9976 104.473 60.8455 104.369 60.6371C103.972 59.8391 102.982 59.5684 101.121 59.7484C100.138 59.8435 99.1109 59.8386 98.8378 59.7371C98.5646 59.6359 98.0721 59.5896 97.7435 59.6346C97.4148 59.6796 96.9613 59.6493 96.7356 59.5672C96.5101 59.4852 95.9088 59.4168 95.3996 59.4154C94.8903 59.4141 94.0014 59.3147 93.4242 59.1944C92.8471 59.0741 92.3333 59.0306 92.2825 59.0973C92.2317 59.1641 91.8757 59.1073 91.4914 58.9706C91.1071 58.8341 90.8003 58.8023 90.8095 58.8996C90.8189 58.9971 90.6692 58.9197 90.4773 58.7278C90.2854 58.5361 89.6483 58.2329 89.0621 58.0544C88.4756 57.8759 87.39 57.4874 86.6495 57.1912C85.909 56.8949 84.6827 56.5439 83.9244 56.4112C83.166 56.2785 82.2548 55.9993 81.8993 55.7907C81.5438 55.5822 81.1244 55.4293 80.9672 55.4508C80.81 55.4723 80.5983 55.3383 80.4966 55.1535C80.3949 54.9684 80.2175 54.8946 80.1024 54.9897C79.9872 55.0846 79.8765 55.0421 79.8564 54.8951C79.8342 54.733 79.6031 54.7012 79.2669 54.8145C78.9628 54.917 78.7034 54.9238 78.6905 54.8297C78.6776 54.7357 78.4028 54.6294 78.0798 54.5937C77.7567 54.5581 77.4792 54.4323 77.463 54.3139C77.4172 53.9789 75.8933 52.868 75.6988 53.0283C75.6036 53.1068 75.2826 52.9996 74.9853 52.7902C74.6882 52.5807 74.3386 52.424 74.2085 52.4418C74.0783 52.4596 73.9578 52.3719 73.9407 52.247C73.9237 52.1221 73.7052 52.0478 73.4554 52.082C73.2055 52.1162 72.9892 52.0574 72.9748 51.9516C72.9602 51.8455 72.4873 51.624 71.924 51.459C71.3606 51.294 70.6219 50.9108 70.2828 50.6071C69.9437 50.3036 69.5291 50.0739 69.3619 50.0967C69.1945 50.1196 68.9033 50.0294 68.715 49.896C68.5267 49.7628 67.9642 49.5109 67.4651 49.3365C66.9659 49.1618 66.5456 48.9331 66.5312 48.8279C66.5168 48.7225 66.3508 48.6575 66.1621 48.6834C65.9735 48.7092 65.6215 48.5544 65.3797 48.3394C65.1378 48.1245 64.8633 48.0121 64.7693 48.0895C64.6753 48.1671 64.584 48.1255 64.5665 47.9972C64.5489 47.869 63.8872 47.4073 63.0956 46.9713C62.3041 46.5354 61.585 46.1043 61.4971 46.0134C61.4094 45.9224 61.2491 45.8918 61.1407 45.9451C61.0325 45.9985 60.9038 45.9742 60.8547 45.8912C60.5857 45.4353 58.3813 43.9339 57.5609 43.6475C57.0358 43.4641 56.4506 43.1716 56.2607 42.9974C56.0707 42.8233 55.797 42.6969 55.6528 42.7166C55.5083 42.7364 55.2086 42.595 54.9865 42.4028C54.7645 42.2106 53.6198 41.4039 52.4427 40.6105C51.2658 39.817 49.5457 38.6103 48.6202 37.9291C47.6949 37.2477 46.6101 36.5772 46.2094 36.4393C45.4763 36.1867 44.5888 35.5281 43.8372 34.6787C43.6122 34.4245 43.0764 34.2023 42.6352 34.1805C42.1972 34.159 41.747 34.0276 41.6344 33.8889C41.4359 33.6441 40.7082 33.3707 40.2351 33.3628C39.7008 33.3539 39.0145 33.0663 38.4012 32.5939C38.0414 32.3169 37.04 31.6776 36.1755 31.1732C35.3112 30.6687 34.5941 30.1851 34.5822 30.0983C34.5703 30.0114 34.0413 29.7607 33.4069 29.5411C32.7724 29.3216 32.0344 28.9366 31.7673 28.6855C31.4999 28.4347 31.1953 28.3003 31.0901 28.3869C30.9849 28.4737 30.8857 28.4489 30.8697 28.3317C30.8536 28.2147 30.5165 28.0336 30.1205 27.9297C29.7245 27.8259 29.3889 27.6559 29.3747 27.5521C29.3161 27.1242 21.1902 23.5981 20.4849 23.6946C20.3897 23.7076 19.8156 23.4738 19.209 23.175C18.6023 22.8762 17.9494 22.6531 17.7577 22.6793C17.5662 22.7055 17.2562 22.6133 17.069 22.4746C16.7167 22.2132 15.2346 21.7713 15.1324 21.897C15.1005 21.9361 14.6046 21.7545 14.0306 21.4931C13.4564 21.232 12.8246 21.0403 12.6266 21.0674C12.1952 21.1264 11.3754 20.8524 10.7476 20.4396C10.4967 20.2745 10.0616 20.139 9.78086 20.1385C9.50009 20.1378 8.9995 20.0593 8.66835 19.9644C3.93055 18.6041 2.42272 18.3768 1.27142 18.8494ZM123.442 23.3769C123.451 23.4394 123.509 23.4835 123.572 23.4749C123.634 23.4664 123.678 23.4083 123.67 23.3458C123.661 23.2834 123.603 23.2393 123.54 23.2478C123.478 23.2563 123.434 23.3144 123.442 23.3769ZM123.808 25.2091C124.01 26.0551 124.78 28.8934 125.518 31.5163C126.256 34.139 126.838 36.5064 126.81 36.7772C126.782 37.0478 126.78 37.8913 126.805 38.6515C126.829 39.4118 126.829 40.63 126.806 41.3585C126.781 42.0869 126.818 43.0191 126.886 43.4299C127.089 44.6402 127.511 50.7813 127.507 52.439C127.506 52.8209 127.503 53.7887 127.501 54.5896C127.499 55.3903 127.577 56.2391 127.675 56.4759C127.773 56.7127 127.744 57.0813 127.61 57.2956C127.477 57.5098 127.423 58.1675 127.489 58.7572C127.556 59.3469 127.558 59.9446 127.493 60.0857C127.429 60.2267 127.401 60.9594 127.431 61.7139C127.493 63.2295 127.487 64.1847 127.408 65.7574C127.335 67.2158 127.766 69.6516 128.201 70.2344C128.506 70.6432 128.517 70.8196 128.27 71.3382C128.109 71.6777 128.037 72.0709 128.111 72.2122C128.185 72.3534 128.175 72.6683 128.089 72.9117C128.002 73.1554 128.159 75.293 128.437 77.6621C128.889 81.5136 128.987 81.9887 129.357 82.1477C129.741 82.3126 129.744 82.3479 129.389 82.6318C129.1 82.8634 129.066 83.0791 129.25 83.5186C129.383 83.8379 129.574 84.5392 129.673 85.0768C129.772 85.6146 129.977 86.1097 130.129 86.1771C130.43 86.3104 130.64 87.934 130.419 88.4173C130.344 88.5814 130.406 88.8853 130.557 89.0926C131.109 89.8526 131.574 90.9862 131.684 91.8403C131.712 92.059 131.833 92.2248 131.952 92.2085C132.199 92.1748 132.161 93.1841 131.886 94.0252C131.745 94.454 131.788 94.6881 132.068 95.0244C132.38 95.3992 132.385 95.5109 132.102 95.7836C131.801 96.074 131.823 96.1532 132.34 96.6526C132.846 97.1419 132.883 97.2696 132.68 97.8181C132.482 98.3493 132.505 98.4638 132.84 98.6472C133.378 98.9406 133.861 100.152 133.397 100.043C133.129 99.9801 133.104 100.217 133.272 101.195C133.389 101.872 133.615 102.525 133.774 102.646C133.977 102.8 134.012 103.006 133.891 103.333C133.795 103.59 133.814 104.118 133.932 104.507C134.559 106.565 134.69 106.836 134.981 106.676C135.145 106.587 135.294 106.626 135.313 106.764C135.332 106.903 135.245 107.03 135.121 107.047C134.996 107.064 134.908 107.186 134.926 107.318C134.944 107.451 135.036 107.496 135.13 107.418C135.224 107.341 135.556 107.766 135.868 108.363C136.286 109.166 136.44 109.776 136.458 110.706C136.477 111.722 136.553 111.98 136.852 112.051C137.136 112.117 137.234 112.394 137.276 113.248C137.31 113.954 137.429 114.378 137.6 114.411C137.788 114.447 137.788 114.597 137.598 114.902C137.395 115.231 137.4 115.374 137.618 115.471C137.778 115.542 138.01 116.049 138.134 116.598C138.417 117.853 138.81 118.806 139.032 118.775C139.126 118.763 139.189 119.015 139.172 119.336C139.155 119.657 139.26 120.033 139.405 120.172C139.549 120.311 139.664 120.607 139.658 120.83C139.653 121.054 139.79 121.217 139.964 121.193C140.188 121.163 140.284 121.37 140.292 121.9C140.31 123.02 140.652 123.865 141.007 123.67C141.222 123.552 141.332 123.699 141.4 124.193C141.519 125.06 141.811 125.604 142.053 125.405C142.155 125.32 142.254 125.36 142.272 125.492C142.29 125.624 142.192 125.748 142.053 125.767C141.899 125.788 141.89 125.945 142.031 126.175C142.158 126.38 142.337 126.954 142.43 127.451C142.523 127.947 142.821 128.726 143.092 129.182C143.363 129.637 143.596 130.1 143.611 130.21C143.626 130.319 143.716 130.398 143.81 130.385C143.99 130.361 144.397 130.987 145.083 132.344C145.399 132.97 145.548 133.084 145.753 132.86C145.898 132.702 146.03 132.609 146.046 132.655C146.062 132.7 146.186 133.19 146.321 133.744C146.789 135.667 147.778 137.205 148.281 136.79C148.402 136.69 148.439 136.737 148.367 136.899C148.297 137.056 148.353 137.168 148.491 137.15C148.656 137.127 148.728 137.4 148.701 137.938C148.668 138.607 148.763 138.827 149.207 139.118C149.508 139.314 149.75 139.564 149.746 139.673C149.722 140.253 149.943 140.612 150.355 140.662C150.674 140.7 150.808 140.869 150.79 141.208C150.775 141.477 150.844 141.687 150.943 141.673C151.041 141.66 151.373 142.057 151.68 142.556C151.987 143.055 152.341 143.517 152.468 143.582C152.594 143.647 152.659 143.865 152.612 144.066C152.565 144.267 152.678 144.526 152.863 144.641C153.049 144.756 153.364 145.13 153.564 145.472C153.763 145.814 154.038 146.032 154.175 145.957C154.549 145.751 153.549 139.407 152.829 137.419C151.946 134.98 151.879 134.718 151.277 131.34C150.969 129.606 150.588 128.07 150.432 127.927C150.276 127.784 150.238 127.655 150.347 127.64C150.578 127.609 150.383 126.207 150.099 125.863C149.992 125.733 149.988 125.405 150.089 125.132C150.209 124.809 150.179 124.512 150.005 124.281C149.739 123.929 149.533 121.711 149.702 121.018C149.75 120.821 149.612 119.225 149.396 117.473C149.18 115.721 149.027 113.503 149.056 112.545C149.084 111.587 149.057 110.227 148.994 109.524C148.88 108.244 148.931 107.666 149.354 105.447C149.479 104.793 149.561 103.948 149.537 103.568C149.514 103.189 149.555 102.742 149.629 102.575C149.703 102.409 149.753 101.778 149.741 101.173C149.729 100.569 149.814 99.7494 149.929 99.3518C150.071 98.8648 150.018 97.9101 149.768 96.426C149.433 94.4379 149.321 94.1374 148.615 93.3443C148.185 92.8609 147.845 92.3859 147.86 92.2883C147.874 92.1908 147.784 92.1251 147.659 92.1422C147.534 92.1593 147.411 92.0195 147.385 91.8317C147.319 91.3456 146.303 89.9967 146.152 90.1948C146.083 90.2857 145.997 90.1386 145.96 89.868C145.923 89.5973 145.75 89.3953 145.576 89.4191C145.194 89.4713 144.873 88.9506 144.988 88.4644C145.033 88.2705 144.876 87.9645 144.639 87.7845C144.362 87.5744 144.23 87.2591 144.269 86.9036C144.305 86.5822 144.229 86.3639 144.089 86.3831C143.956 86.4013 143.853 86.2853 143.86 86.1251C143.867 85.9652 143.635 85.4502 143.344 84.981C142.507 83.6326 141.491 81.3756 141.332 80.5127C141.252 80.0782 141.103 79.578 141 79.4012C140.434 78.4256 139.73 76.4671 139.597 75.4965C139.513 74.8848 139.306 74.2786 139.135 74.1492C138.965 74.0198 138.9 73.9036 138.992 73.8911C139.084 73.8785 139.026 73.6844 138.863 73.46C138.657 73.175 138.634 72.9962 138.79 72.8682C138.912 72.7673 138.92 72.5256 138.806 72.3313C138.346 71.5438 137.837 70.2041 137.416 68.6691C137.348 68.4237 137.208 68.0785 137.105 67.9017C136.81 67.3994 136.474 66.1834 136.087 64.223C135.437 60.9255 135.13 59.5859 134.925 59.1542C134.757 58.8007 134.445 57.6947 134.208 56.6128C134.181 56.4892 134.088 55.773 134.002 55.0212C133.77 52.9885 133.263 50.4885 133.025 50.2001C132.91 50.0606 132.86 49.8883 132.914 49.817C133.134 49.5271 132.326 48.1676 131.611 47.6241C130.988 47.1511 130.812 46.8392 130.668 45.9503C130.57 45.3493 130.403 44.401 130.297 43.8428C130.191 43.2846 129.933 41.8332 129.725 40.6173C129.255 37.8782 128.624 36.0075 128.067 35.7067C127.831 35.5791 127.602 35.1748 127.55 34.7939C127.425 33.8837 125.92 29.1217 125.323 27.7475C125.062 27.1469 124.637 26.0305 124.378 25.2669C123.722 23.3288 123.349 23.2911 123.808 25.2091ZM127.8 70.4474C127.808 70.5099 127.866 70.554 127.929 70.5454C127.991 70.5369 128.035 70.4788 128.027 70.4163C128.018 70.3539 127.96 70.3097 127.898 70.3183C127.835 70.3268 127.791 70.3849 127.8 70.4474ZM127.943 70.9293C128.037 71.001 128.174 70.9823 128.246 70.8878C128.317 70.7931 128.24 70.7343 128.073 70.757C127.907 70.7798 127.848 70.8573 127.943 70.9293ZM109.521 74.6835C109.461 74.819 109.52 74.915 109.652 74.897C109.784 74.8789 109.879 74.7618 109.861 74.6369C109.844 74.512 109.785 74.4159 109.73 74.4235C109.675 74.431 109.581 74.548 109.521 74.6835ZM69.2404 82.161C69.2489 82.2235 69.307 82.2676 69.3695 82.2591C69.4319 82.2505 69.4761 82.1924 69.4675 82.13C69.459 82.0675 69.4009 82.0234 69.3384 82.0319C69.2759 82.0405 69.2318 82.0986 69.2404 82.161ZM70.8015 86.8067C70.81 86.8691 70.7659 86.9272 70.7035 86.9358C70.641 86.9443 70.5829 86.9002 70.5744 86.8378C70.5658 86.7753 70.6099 86.7172 70.6724 86.7086C70.7348 86.7001 70.7929 86.7442 70.8015 86.8067ZM130.223 88.1643C130.232 88.2268 130.29 88.2709 130.352 88.2623C130.415 88.2538 130.459 88.1957 130.451 88.1332C130.442 88.0708 130.384 88.0267 130.321 88.0352C130.259 88.0437 130.215 88.1018 130.223 88.1643ZM131.287 89.1757C131.296 89.2382 131.252 89.2963 131.189 89.3048C131.127 89.3134 131.069 89.2692 131.06 89.2068C131.052 89.1443 131.096 89.0862 131.158 89.0777C131.221 89.0691 131.279 89.1132 131.287 89.1757ZM131.951 91.2061C131.879 91.3006 131.801 91.2418 131.779 91.0753C131.756 90.9088 131.815 90.8314 131.909 90.9031C132.004 90.9751 132.023 91.1114 131.951 91.2061ZM113.539 94.1878C113.633 94.2595 113.77 94.2409 113.842 94.1463C113.913 94.0516 113.836 93.9928 113.67 94.0156C113.503 94.0384 113.444 94.1158 113.539 94.1878ZM73.0759 105.123C73.0986 105.289 73.1761 105.348 73.2481 105.253C73.3198 105.159 73.3012 105.022 73.2066 104.95C73.1119 104.879 73.0531 104.956 73.0759 105.123ZM72.9902 114.081C73.085 114.153 73.2212 114.135 73.2932 114.04C73.365 113.945 73.2875 113.886 73.121 113.909C72.9545 113.932 72.8957 114.009 72.9902 114.081ZM72.535 119.774C72.5578 119.941 72.6353 119.999 72.7073 119.905C72.779 119.81 72.7603 119.674 72.6658 119.602C72.5711 119.53 72.5122 119.608 72.535 119.774ZM136.893 111.548C136.902 111.61 136.858 111.668 136.795 111.677C136.733 111.686 136.675 111.641 136.666 111.579C136.658 111.516 136.702 111.458 136.764 111.45C136.827 111.441 136.885 111.485 136.893 111.548ZM72.0633 121.823C71.9825 121.931 71.9449 122.226 71.9797 122.48C72.0254 122.814 72.1021 122.864 72.2574 122.66C72.3752 122.504 72.4129 122.209 72.341 122.003C72.2691 121.797 72.1442 121.716 72.0633 121.823ZM138.26 115.333C138.188 115.428 138.11 115.369 138.087 115.202C138.065 115.036 138.123 114.959 138.218 115.03C138.313 115.102 138.331 115.238 138.26 115.333ZM71.7937 124.503C71.8165 124.67 71.8939 124.729 71.9659 124.634C72.0376 124.539 72.019 124.403 71.9245 124.331C71.8297 124.259 71.7709 124.337 71.7937 124.503ZM70.9436 128.438C70.9521 128.5 71.0102 128.544 71.0727 128.536C71.1351 128.527 71.1793 128.469 71.1707 128.407C71.1622 128.344 71.1041 128.3 71.0416 128.309C70.9791 128.317 70.935 128.375 70.9436 128.438ZM72.1414 128.737C72.15 128.799 72.1058 128.857 72.0434 128.866C71.9809 128.874 71.9228 128.83 71.9143 128.768C71.9057 128.705 71.9498 128.647 72.0123 128.639C72.0748 128.63 72.1329 128.674 72.1414 128.737ZM72.2036 129.191C72.2121 129.253 72.168 129.311 72.1055 129.32C72.0431 129.328 71.985 129.284 71.9764 129.222C71.9679 129.159 72.012 129.101 72.0745 129.093C72.1369 129.084 72.195 129.128 72.2036 129.191ZM71.3847 130.804C71.3228 130.944 71.4191 130.97 71.6106 130.864C71.9834 130.66 72.0331 130.487 71.7065 130.531C71.5888 130.548 71.4441 130.67 71.3847 130.804ZM73.1025 130.688C73.1111 130.75 73.0669 130.808 73.0045 130.817C72.942 130.825 72.8839 130.781 72.8754 130.719C72.8668 130.656 72.9109 130.598 72.9734 130.59C73.0359 130.581 73.094 130.625 73.1025 130.688ZM72.4115 132.402C72.42 132.464 72.4781 132.508 72.5406 132.5C72.603 132.491 72.6472 132.433 72.6386 132.371C72.6301 132.308 72.572 132.264 72.5095 132.273C72.447 132.281 72.4029 132.339 72.4115 132.402ZM74.5471 132.79C74.5547 132.845 74.4527 132.979 74.3206 133.088C74.172 133.211 74.1286 133.178 74.207 133.002C74.3329 132.718 74.5212 132.601 74.5471 132.79ZM71.7391 133.689C71.8338 133.761 71.9701 133.743 72.0421 133.648C72.1138 133.553 72.0364 133.494 71.8699 133.517C71.7034 133.54 71.6446 133.617 71.7391 133.689ZM74.4413 134.554C74.3812 134.689 74.2298 134.814 74.1049 134.831C73.9799 134.848 73.9269 134.751 73.987 134.616C74.0472 134.48 74.1985 134.356 74.3235 134.339C74.4484 134.321 74.5014 134.418 74.4413 134.554ZM76.0265 135.147C76.035 135.209 75.9909 135.267 75.9284 135.276C75.866 135.284 75.8079 135.24 75.7993 135.178C75.7908 135.115 75.8349 135.057 75.8974 135.049C75.9598 135.04 76.0179 135.084 76.0265 135.147ZM72.1914 136.713C72.2857 136.827 72.4139 136.914 72.4764 136.905C72.5388 136.897 72.5128 136.796 72.4185 136.682C72.3242 136.567 72.196 136.481 72.1335 136.489C72.071 136.498 72.097 136.598 72.1914 136.713ZM76.4864 136.53C76.4039 136.764 76.3998 137.077 76.477 137.226C76.7079 137.669 76.394 137.565 76.0441 137.082C75.7908 136.733 75.7811 136.582 76.0001 136.397C76.4501 136.017 76.6482 136.072 76.4864 136.53ZM74.6133 138.348C74.6219 138.411 74.68 138.455 74.7424 138.446C74.8049 138.438 74.849 138.38 74.8405 138.317C74.8319 138.255 74.7738 138.211 74.7114 138.219C74.6489 138.228 74.6048 138.286 74.6133 138.348ZM86.7605 137.496C86.7776 137.621 86.6321 137.745 86.4375 137.772C86.2428 137.798 86.1325 137.709 86.1927 137.574C86.2528 137.438 86.398 137.314 86.5157 137.298C86.6333 137.282 86.7434 137.371 86.7605 137.496ZM77.8147 139.761C77.8233 139.824 77.8814 139.868 77.9438 139.859C78.0063 139.851 78.0504 139.793 78.0419 139.73C78.0333 139.668 77.9752 139.624 77.9128 139.632C77.8503 139.641 77.8062 139.699 77.8147 139.761ZM77.1644 140.082C77.1729 140.144 77.231 140.188 77.2935 140.18C77.356 140.171 77.4001 140.113 77.3915 140.051C77.383 139.988 77.3249 139.944 77.2624 139.953C77.2 139.961 77.1558 140.019 77.1644 140.082ZM83.9392 139.425C83.8672 139.519 83.7898 139.461 83.767 139.294C83.7442 139.128 83.803 139.05 83.8978 139.122C83.9923 139.194 84.0109 139.33 83.9392 139.425ZM88.1 138.831C88.1266 139.025 88.242 139.108 88.3564 139.013C88.4708 138.919 88.5512 138.746 88.5351 138.628C88.519 138.51 88.4036 138.428 88.2787 138.445C88.1538 138.463 88.0734 138.636 88.1 138.831ZM96.2908 137.812C96.3135 137.979 96.391 138.037 96.463 137.943C96.5347 137.848 96.5161 137.712 96.4215 137.64C96.3268 137.568 96.268 137.646 96.2908 137.812ZM77.6775 140.45C77.6842 140.499 77.8511 140.577 78.0483 140.623C78.2455 140.669 78.3933 140.608 78.3768 140.487C78.3603 140.366 78.1934 140.288 78.006 140.314C77.8186 140.339 77.6708 140.4 77.6775 140.45ZM85.9646 139.572C85.9869 139.735 86.1344 139.798 86.2924 139.712C86.4501 139.625 86.5752 139.525 86.5704 139.489C86.5655 139.453 86.418 139.391 86.2428 139.349C86.0673 139.308 85.9422 139.408 85.9646 139.572ZM81.9123 140.396C82.007 140.468 82.1433 140.449 82.2153 140.355C82.287 140.26 82.2096 140.201 82.0431 140.224C81.8766 140.247 81.8178 140.324 81.9123 140.396ZM82.544 140.503C82.5725 140.711 82.7007 140.829 82.8288 140.766C82.9569 140.703 83.0486 140.555 83.0323 140.436C83.0161 140.317 82.8879 140.199 82.7475 140.172C82.6072 140.146 82.5155 140.294 82.544 140.503ZM84.1166 140.158C84.1327 140.276 84.2567 140.421 84.3922 140.481C84.5277 140.541 84.6167 140.431 84.5901 140.236C84.5634 140.042 84.4394 139.896 84.3145 139.913C84.1896 139.93 84.1005 140.041 84.1166 140.158ZM78.6826 141.031C78.6912 141.093 78.7492 141.138 78.8117 141.129C78.8742 141.12 78.9183 141.062 78.9097 141C78.9012 140.937 78.8431 140.893 78.7806 140.902C78.7182 140.91 78.6741 140.968 78.6826 141.031ZM80.0921 141.185C79.8266 141.413 79.8392 141.445 80.1795 141.401C80.3982 141.373 80.5634 141.248 80.5463 141.123C80.5084 140.846 80.4828 140.849 80.0921 141.185ZM99.6572 138.74C99.6743 138.865 99.7966 138.952 99.9288 138.934C100.061 138.916 100.092 138.808 99.9979 138.693C99.9036 138.579 99.7814 138.492 99.7263 138.499C99.6711 138.507 99.6401 138.615 99.6572 138.74ZM100.808 138.698C100.817 138.761 100.875 138.805 100.938 138.796C101 138.788 101.044 138.73 101.036 138.667C101.027 138.605 100.969 138.56 100.906 138.569C100.844 138.578 100.8 138.636 100.808 138.698ZM147.291 135.116C147.299 135.178 147.255 135.236 147.193 135.245C147.13 135.253 147.072 135.209 147.064 135.147C147.055 135.084 147.099 135.026 147.162 135.018C147.224 135.009 147.282 135.053 147.291 135.116ZM111.22 142.634C111.148 142.729 111.011 142.748 110.917 142.676C110.822 142.604 110.881 142.526 111.047 142.504C111.214 142.481 111.291 142.54 111.22 142.634ZM153.208 137.777C153.217 137.839 153.275 137.884 153.337 137.875C153.4 137.866 153.444 137.808 153.435 137.746C153.427 137.683 153.369 137.639 153.306 137.648C153.244 137.656 153.2 137.715 153.208 137.777ZM153.911 139.532C153.92 139.594 153.978 139.639 154.04 139.63C154.103 139.621 154.147 139.563 154.138 139.501C154.13 139.438 154.072 139.394 154.009 139.403C153.947 139.411 153.903 139.469 153.911 139.532ZM116.815 145.764C116.824 145.826 116.882 145.87 116.945 145.862C117.007 145.853 117.051 145.795 117.043 145.733C117.034 145.67 116.976 145.626 116.914 145.635C116.851 145.643 116.807 145.701 116.815 145.764ZM117.559 146.125C117.568 146.187 117.626 146.232 117.688 146.223C117.751 146.214 117.795 146.156 117.786 146.094C117.778 146.031 117.72 145.987 117.657 145.996C117.595 146.004 117.551 146.062 117.559 146.125ZM120.048 147.404C120.057 147.467 120.115 147.511 120.177 147.502C120.24 147.494 120.284 147.436 120.275 147.373C120.267 147.311 120.208 147.267 120.146 147.275C120.084 147.284 120.039 147.342 120.048 147.404ZM123.063 147.454C123.071 147.517 123.027 147.575 122.965 147.584C122.902 147.592 122.844 147.548 122.836 147.486C122.827 147.423 122.871 147.365 122.934 147.356C122.996 147.348 123.054 147.392 123.063 147.454ZM124.612 148.631C124.621 148.693 124.577 148.751 124.514 148.76C124.452 148.769 124.394 148.724 124.385 148.662C124.377 148.599 124.421 148.541 124.483 148.533C124.546 148.524 124.604 148.568 124.612 148.631ZM127.06 151.304C127.069 151.366 127.127 151.411 127.19 151.402C127.252 151.394 127.296 151.335 127.288 151.273C127.279 151.21 127.221 151.166 127.158 151.175C127.096 151.183 127.052 151.242 127.06 151.304ZM129.332 150.993C129.34 151.056 129.296 151.114 129.234 151.122C129.171 151.131 129.113 151.087 129.105 151.024C129.096 150.962 129.14 150.904 129.203 150.895C129.265 150.887 129.323 150.931 129.332 150.993ZM131.584 153.925C131.593 153.987 131.651 154.031 131.713 154.023C131.776 154.014 131.82 153.956 131.811 153.894C131.803 153.831 131.745 153.787 131.682 153.796C131.62 153.804 131.575 153.862 131.584 153.925Z" fill="#EA9D09"/>
<path fill-rule="evenodd" clip-rule="evenodd" d="M1.27142 18.8494C0.992299 18.964 0.919798 19.1833 1.02595 19.5922C1.14726 20.0595 1.40972 20.2274 2.37194 20.4531C3.02936 20.6072 4.41545 20.9713 5.45231 21.2622C6.48916 21.553 7.46321 21.7738 7.61653 21.7528C7.77007 21.7318 8.62963 22.0307 9.52638 22.4171C10.4233 22.8034 11.3445 23.0939 11.5734 23.0626C11.8021 23.0313 12.2536 23.1415 12.5762 23.3075C12.899 23.4734 13.7788 23.81 14.5313 24.0553C15.284 24.3006 16.0589 24.6474 16.2537 24.826C16.4484 25.0046 16.8273 25.1205 17.096 25.0838C17.3645 25.047 17.9797 25.2614 18.4632 25.5599C18.9467 25.8584 19.6944 26.131 20.1246 26.1656C20.5549 26.2002 21.1591 26.4494 21.4675 26.7196C21.7761 26.9895 22.4654 27.3429 22.9996 27.5049C23.5339 27.6669 24.3922 28.0907 24.9071 28.4465C25.4221 28.8023 26.488 29.3631 27.2759 29.6929C28.0638 30.0227 29.0094 30.5181 29.3776 30.7937C30.7354 31.8107 31.6162 32.3529 31.8572 32.32C31.9935 32.3013 32.1188 32.3883 32.1359 32.5132C32.153 32.6382 32.2801 32.7249 32.4184 32.706C32.5567 32.687 33.2742 33.1616 34.0128 33.7605C34.7512 34.3594 35.5207 34.8269 35.7224 34.7993C35.9241 34.7717 36.4265 35.0935 36.8388 35.5142C37.9699 36.6687 40.9538 38.9428 41.2793 38.8982C41.4367 38.8767 41.5869 39.0156 41.6131 39.2068C41.6393 39.3983 41.8221 39.5927 42.0193 39.6388C42.2165 39.6852 42.3962 39.8568 42.4186 40.0206C42.441 40.1841 42.5498 40.3402 42.6607 40.3676C42.7713 40.3948 43.2771 40.8289 43.7844 41.3322C44.292 41.8355 45.084 42.5573 45.5449 42.9362C46.0056 43.3152 46.4005 43.7556 46.4223 43.9153C46.4441 44.0748 46.5542 44.1928 46.6666 44.1774C46.8922 44.1465 48.081 45.5347 48.2377 46.0114C48.2917 46.1764 48.5683 46.4308 48.852 46.5767C49.1358 46.7227 49.3822 46.9454 49.3994 47.0715C49.4167 47.1977 49.7322 47.6009 50.1005 47.9677C50.4688 48.3346 50.7798 48.705 50.7916 48.7911C50.8034 48.8772 51.1648 49.2084 51.5944 49.5273C52.0242 49.8459 52.3203 50.1143 52.2521 50.1236C52.1842 50.1329 52.5786 50.6516 53.1287 51.2763C53.6791 51.901 54.2025 52.4021 54.2923 52.3898C54.382 52.3775 54.7705 53.0151 55.156 53.8064C55.5414 54.5978 56.2098 55.5712 56.6415 55.9699C57.0732 56.3683 57.4508 56.8743 57.4809 57.0939C57.511 57.3138 58.3106 58.6124 59.2581 59.9799C60.2052 61.3472 61.4312 63.4399 61.9819 64.6303C62.5328 65.8208 63.1757 66.9563 63.4105 67.1537C63.645 67.3511 63.7748 67.5213 63.6984 67.5317C63.6223 67.5421 63.761 67.9415 64.0066 68.4193C64.2524 68.8968 64.4161 69.4471 64.3703 69.6422C64.3182 69.8645 64.423 69.9779 64.6522 69.9465C64.9073 69.9116 65.0456 70.1042 65.1114 70.5853C65.1632 70.9641 65.4257 71.631 65.6948 72.0674C65.9637 72.5038 66.2561 73.1633 66.3447 73.5329C66.6123 74.6519 67.3062 76.2938 67.5002 76.2672C67.7789 76.2291 68.0869 77.3354 67.8517 77.5293C67.7324 77.628 67.813 77.7657 68.0433 77.8562C68.4796 78.0276 68.7048 78.8791 68.3276 78.9307C68.1656 78.9529 68.1843 79.0899 68.388 79.3707C68.6461 79.7264 68.9694 80.6573 69.1387 81.5314C69.1679 81.6825 69.33 81.7302 69.4989 81.6374C69.7232 81.5142 69.7901 81.6006 69.7471 81.9577C69.7147 82.2267 69.6004 82.4589 69.4932 82.4735C69.2727 82.5037 69.692 83.8879 69.9645 84.0288C70.0618 84.0791 70.1941 84.5978 70.2585 85.1819C70.3231 85.7656 70.4462 86.1852 70.5325 86.1141C70.7284 85.9524 70.7924 86.3273 70.6098 86.5677C70.4161 86.8228 70.498 87.6581 70.714 87.6285C70.8142 87.6148 70.8571 87.7693 70.8096 87.972C70.7571 88.1958 70.831 88.2993 70.9974 88.2356C71.1485 88.1779 71.3362 88.2521 71.4147 88.4004C71.4934 88.5488 71.447 88.6852 71.3116 88.7037C70.9591 88.7519 71.0671 89.1745 71.5195 89.5182C71.7326 89.68 71.9258 89.9511 71.949 90.1205C71.9722 90.29 71.8589 90.6031 71.6971 90.8161C71.5353 91.0291 71.411 91.2618 71.4208 91.3333C71.4305 91.4047 71.5918 91.4421 71.7792 91.4164C72.1611 91.3642 72.3228 91.931 72.0016 92.1959C71.8872 92.2902 71.8146 92.5206 71.8402 92.708C71.8662 92.8979 71.9881 92.9652 72.1156 92.8601C72.2817 92.7231 72.2934 92.8083 72.1583 93.1727C71.9069 93.8499 71.953 94.0127 72.3369 93.8017C72.5145 93.7043 72.6733 93.7235 72.6899 93.8443C72.7064 93.9654 72.6296 94.0768 72.5194 94.0919C72.2053 94.1348 72.2254 95.2342 72.5451 95.4938C72.7546 95.6641 72.759 95.7654 72.5607 95.8702C72.4116 95.9494 72.3497 96.0868 72.4229 96.1755C72.4962 96.2643 72.6857 96.8803 72.8439 97.5445C73.0021 98.2084 73.2376 99.0389 73.3674 99.3902C73.5339 99.8411 73.5202 99.9917 73.321 99.9035C72.9394 99.734 73.0394 100.327 73.4491 100.663C73.6402 100.819 73.66 100.885 73.4971 100.821C73.3419 100.76 73.1944 100.918 73.1628 101.18C73.1196 101.539 73.2204 101.633 73.5971 101.585L74.0875 101.523L73.6406 101.984C73.1997 102.439 73.2219 103.083 73.7069 103.91C73.8198 104.103 73.8101 104.644 73.6853 105.113C73.5154 105.752 73.5638 106.523 73.878 108.18C74.2698 110.247 74.2687 110.433 73.8606 111.006C73.4325 111.606 73.4334 111.624 73.9053 111.894C74.1917 112.058 74.2903 112.222 74.1484 112.3C74.0171 112.371 73.7378 112.613 73.5277 112.836C73.1662 113.221 73.1784 113.231 73.752 113.024C74.3919 112.793 74.6737 113.145 74.1008 113.46C73.9233 113.558 73.8055 113.838 73.839 114.084C73.8726 114.329 73.7919 114.69 73.6595 114.885C72.8483 116.084 72.7971 116.267 73.2939 116.199C73.4679 116.176 73.6895 116.3 73.7862 116.476C73.8879 116.661 73.8427 116.79 73.679 116.78C73.4866 116.769 73.446 117.142 73.5523 117.943C73.6385 118.591 73.6444 119.207 73.5658 119.31C73.4872 119.414 73.4625 119.788 73.5109 120.142C73.5622 120.517 73.4839 120.777 73.3236 120.765C73.1721 120.754 72.9942 121.065 72.9282 121.456C72.8621 121.847 72.7374 122.366 72.6514 122.61C72.5654 122.855 72.5057 123.592 72.5187 124.248C72.5339 125.026 72.4108 125.566 72.1649 125.796C71.9574 125.991 71.8187 126.377 71.8566 126.655C71.8946 126.933 71.7464 127.331 71.5273 127.539C71.1417 127.906 71.2167 128.428 71.6082 128.105C72.0512 127.74 71.798 128.308 71.1977 129.027C70.7307 129.586 70.6849 129.71 71.033 129.474C71.4159 129.214 71.5959 129.209 71.912 129.449C72.1307 129.615 72.2601 129.863 72.1996 129.999C72.139 130.136 72.1944 130.233 72.323 130.216C72.8088 130.149 72.3674 130.882 71.7239 131.21C71.2192 131.467 71.1254 131.609 71.3474 131.777C71.5693 131.946 71.7123 131.926 71.9217 131.697C72.0749 131.53 72.2833 131.456 72.3843 131.533C72.4855 131.61 72.6355 131.521 72.7176 131.336C72.9599 130.79 73.6056 131.086 73.5307 131.708C73.495 132.004 73.4072 132.126 73.3351 131.98C73.1169 131.537 72.8177 131.735 73.0083 132.196C73.106 132.433 73.2987 132.589 73.4363 132.543C73.7762 132.429 73.7912 133.706 73.4552 134.148C73.3113 134.338 73.0935 134.507 72.9713 134.523C72.8491 134.54 72.8318 134.754 72.9328 134.998C73.0636 135.315 73.2333 135.387 73.5249 135.248C74.0359 135.006 74.4169 135.606 74.141 136.22C73.9101 136.734 74.1507 137.003 74.5003 136.622C74.788 136.308 75.4593 136.988 76.0839 138.227C76.4004 138.854 76.6706 139.053 77.3899 139.189C77.8887 139.284 78.5655 139.581 78.8942 139.851C79.5266 140.37 79.9099 140.481 79.558 140.043C79.4158 139.866 79.4853 139.866 79.7755 140.042C80.145 140.266 80.1954 140.249 80.1495 139.914C80.1203 139.701 80.2304 139.553 80.3938 139.585C80.5574 139.618 80.7241 139.916 80.7647 140.248C80.805 140.58 80.9187 140.841 81.0175 140.827C81.116 140.814 81.1771 140.659 81.1531 140.484C81.1292 140.309 81.4161 140.01 81.7907 139.819C82.7275 139.341 83.0769 139.324 83.1355 139.752C83.1683 139.992 83.3025 140.053 83.5259 139.93C83.7131 139.827 83.9602 139.73 84.0749 139.715C84.1896 139.699 84.2648 139.55 84.242 139.384C84.1844 138.962 85.478 138.41 86.2829 138.513C87.1109 138.618 87.5199 138.406 87.6214 137.82C87.7089 137.315 88.0197 137.182 88.21 137.568C88.284 137.718 88.5263 137.549 88.8085 137.151C89.226 136.561 89.4054 136.481 90.3101 136.48C91.2442 136.48 91.2898 136.506 90.8116 136.763C90.3023 137.037 90.3007 137.054 90.7651 137.307C91.0846 137.482 91.3236 137.483 91.481 137.311C91.6111 137.17 91.7938 137.111 91.8873 137.182C91.9808 137.253 92.0409 137.192 92.021 137.047C92.001 136.901 91.8562 136.792 91.6988 136.806C91.5417 136.819 91.6429 136.7 91.9237 136.54C92.2277 136.367 92.5489 136.319 92.7171 136.42C92.8726 136.513 93.3356 136.614 93.7461 136.645C94.2319 136.681 94.4666 136.812 94.4182 137.018C94.3414 137.346 95.7087 137.953 95.9142 137.683C95.9755 137.602 95.7612 137.321 95.4376 137.058L94.8496 136.58L95.5711 136.78C95.968 136.891 96.5078 137.083 96.7709 137.209C97.1076 137.369 97.324 137.355 97.5028 137.16C97.6889 136.957 97.9135 137.02 98.3449 137.398C98.6685 137.682 99.0942 137.895 99.2908 137.872C99.4876 137.849 99.8625 137.951 100.124 138.098C100.386 138.245 100.673 138.304 100.763 138.23C100.852 138.156 101.087 138.27 101.284 138.482C101.481 138.695 101.984 138.897 102.402 138.93C102.82 138.964 103.175 139.082 103.19 139.194C103.205 139.305 103.68 139.541 104.245 139.717C104.81 139.893 105.145 140.058 104.99 140.084C104.834 140.111 104.722 140.241 104.74 140.374C104.76 140.518 104.961 140.527 105.235 140.397C105.53 140.257 105.656 140.27 105.583 140.434C105.521 140.574 105.582 140.739 105.72 140.801C105.858 140.862 105.956 140.803 105.938 140.671C105.919 140.539 106.211 140.389 106.586 140.337C106.991 140.282 107.284 140.363 107.308 140.537C107.33 140.698 107.893 141.056 108.56 141.332C109.226 141.608 109.767 141.946 109.762 142.084C109.756 142.221 109.936 142.275 110.162 142.204C110.422 142.123 110.527 142.177 110.449 142.353C110.381 142.506 110.528 142.802 110.776 143.011C111.176 143.347 111.274 143.346 111.645 143.003C112.016 142.66 112.147 142.661 112.832 143.013C113.255 143.232 113.747 143.55 113.925 143.721C114.213 143.997 114.245 143.987 114.203 143.634C114.152 143.206 114.698 143.01 114.982 143.354C115.076 143.468 115.045 143.577 114.913 143.595C114.78 143.613 114.686 143.73 114.703 143.855C114.72 143.98 114.836 144.068 114.961 144.051C115.086 144.034 115.659 144.366 116.234 144.789C116.809 145.213 117.406 145.489 117.561 145.404C117.716 145.319 117.925 145.401 118.027 145.585C118.128 145.769 118.343 145.902 118.504 145.88C118.665 145.858 118.959 146.035 119.157 146.273C119.359 146.515 119.652 146.632 119.824 146.537C119.999 146.441 120.264 146.553 120.44 146.796C120.695 147.147 120.803 147.164 121.053 146.892C121.298 146.624 121.404 146.618 121.607 146.859C121.745 147.022 121.871 147.239 121.887 147.34C121.902 147.441 122.015 147.441 122.137 147.34C122.259 147.24 122.441 147.355 122.54 147.596C122.669 147.906 122.88 147.995 123.263 147.899C123.564 147.824 123.803 147.878 123.801 148.021C123.794 148.443 124.232 149.03 124.524 148.99C125.153 148.904 126.113 149.396 126.396 149.949C126.564 150.276 126.849 150.523 127.029 150.498C127.21 150.474 127.437 150.599 127.535 150.776C127.633 150.955 127.995 151.062 128.344 151.016C128.785 150.958 128.892 151.005 128.695 151.171C128.486 151.347 128.488 151.441 128.703 151.536C128.862 151.607 129.037 151.604 129.093 151.531C129.25 151.324 130.158 151.966 130.618 152.611C130.846 152.929 131.187 153.169 131.375 153.143C131.563 153.118 131.797 153.242 131.894 153.419C131.992 153.597 132.225 153.721 132.414 153.695C132.979 153.618 134.638 154.369 134.84 154.793C134.943 155.011 135.125 155.189 135.243 155.188C135.362 155.188 135.56 155.187 135.683 155.186C135.931 155.184 136.589 155.603 137.246 156.183C137.875 156.737 138.795 157.219 139.133 157.173C139.295 157.15 139.44 157.228 139.456 157.344C139.472 157.461 139.696 157.592 139.954 157.637C140.211 157.682 140.805 157.998 141.273 158.34C142.116 158.955 142.638 159.174 144.032 159.496C144.426 159.588 145.239 160.001 145.839 160.415C146.438 160.829 147.141 161.204 147.399 161.249C147.658 161.294 147.882 161.426 147.898 161.542C147.914 161.659 148.025 161.741 148.144 161.725C148.263 161.708 148.773 161.899 149.276 162.148C150.315 162.664 150.782 162.658 151.335 162.125C151.688 161.784 151.684 161.671 151.287 160.801C150.245 158.52 149.513 157.28 148.927 156.803C148.748 156.658 148.581 156.39 148.557 156.209C148.505 155.834 147.284 154.322 146.892 154.148C146.749 154.084 146.674 153.937 146.725 153.821C146.894 153.441 145.559 151.218 145.26 151.382C145.108 151.466 144.83 151.394 144.644 151.223C144.403 151.002 144.381 150.901 144.567 150.876C144.76 150.849 144.749 150.727 144.525 150.419C144.357 150.187 144.299 149.98 144.396 149.959C144.493 149.938 144.33 149.859 144.033 149.785C143.669 149.693 143.468 149.459 143.414 149.061C143.368 148.723 143.244 148.546 143.124 148.645C143.009 148.74 142.832 148.666 142.73 148.482C142.629 148.298 142.438 148.228 142.306 148.328C142.164 148.435 142.165 148.367 142.31 148.162C142.508 147.879 142.442 147.742 141.954 147.425C141.258 146.972 140.372 145.791 140.552 145.554C140.62 145.465 140.505 145.415 140.297 145.444C140.088 145.472 139.904 145.393 139.887 145.269C139.87 145.144 139.667 145.067 139.437 145.099C138.881 145.175 138.066 144.47 138.175 144.007C138.233 143.76 138.126 143.658 137.849 143.696C137.623 143.727 137.224 143.573 136.964 143.354C136.526 142.986 136.52 142.953 136.88 142.903C137.098 142.873 137.189 142.752 137.086 142.628C136.986 142.506 136.768 142.48 136.602 142.571C136.413 142.675 136.28 142.584 136.245 142.327C136.169 141.771 135.9 141.604 135.602 141.929C135.428 142.119 135.303 142.101 135.175 141.87C135.076 141.689 135.094 141.528 135.215 141.511C135.336 141.495 135.421 141.379 135.404 141.254C135.387 141.129 135.194 141.049 134.975 141.075C134.756 141.101 134.273 140.812 133.903 140.432C133.533 140.052 133.181 139.763 133.121 139.79C132.93 139.875 131.64 138.794 131.754 138.645C131.813 138.566 131.655 138.328 131.403 138.115C131.149 137.902 130.992 137.617 131.052 137.481C131.113 137.346 130.909 136.924 130.601 136.545C130.292 136.166 130.009 135.639 129.972 135.373C129.936 135.107 129.75 134.793 129.56 134.675C129.371 134.557 128.892 133.777 128.497 132.941C128.102 132.106 127.694 131.433 127.59 131.448C127.487 131.462 127.381 131.164 127.356 130.786C127.33 130.407 127.247 130.106 127.171 130.117C127.095 130.127 126.771 129.625 126.45 129C126.13 128.376 125.746 127.747 125.598 127.603C125.415 127.424 125.399 127.248 125.549 127.051C125.712 126.837 125.663 126.704 125.36 126.54C125.135 126.419 124.907 126.181 124.852 126.012C124.797 125.842 124.459 125.133 124.101 124.436C123.742 123.738 123.487 123.082 123.533 122.978C123.579 122.873 123.447 122.683 123.24 122.554C123.033 122.425 122.841 122.15 122.812 121.943C122.784 121.736 122.567 121.358 122.329 121.101C122.092 120.845 121.933 120.487 121.975 120.305C122.051 119.984 121.614 118.908 121.107 118.165C120.97 117.963 120.843 117.7 120.827 117.582C120.811 117.464 120.64 117.095 120.447 116.763C120.253 116.431 120.104 116.069 120.114 115.957C120.124 115.845 119.93 115.521 119.682 115.236C119.404 114.917 119.247 114.472 119.271 114.074C119.293 113.719 119.23 113.367 119.13 113.292C119.03 113.216 118.931 113.087 118.91 113.006C118.888 112.924 118.765 112.611 118.637 112.31C118.509 112.009 118.304 111.413 118.184 110.984C118.063 110.555 117.871 109.956 117.758 109.654C117.645 109.351 117.477 108.789 117.383 108.405C117.289 108.02 117.121 107.513 117.009 107.277C116.897 107.041 116.67 106.199 116.505 105.407C116.339 104.614 116.109 103.718 115.993 103.416C115.877 103.114 115.679 102.36 115.553 101.741C115.428 101.122 115.227 100.368 115.108 100.066C114.989 99.7645 114.765 98.9621 114.61 98.2833C114.041 95.7878 113.666 94.5555 113.416 94.3655C113.145 94.1598 113.066 93.2198 113.303 93.024C113.436 92.9141 113.415 92.719 113.243 92.4821C112.956 92.0866 112.908 91.618 113.108 91.1744C113.175 91.024 113.147 90.8367 113.044 90.7585C112.941 90.6802 112.803 90.2942 112.737 89.9004C112.671 89.5068 112.445 88.5313 112.236 87.7327C112.027 86.9341 111.675 85.1601 111.452 83.7906C111.23 82.4211 111.021 81.2523 110.986 81.1934C110.952 81.1344 110.911 80.8533 110.895 80.5686C110.879 80.2767 110.7 80.0121 110.485 79.9615C110.247 79.9057 110.069 79.6045 110.01 79.1597C109.958 78.7679 109.833 78.0943 109.732 77.6627C109.623 77.1947 109.664 76.6988 109.834 76.434C110.076 76.0551 110.071 75.9966 109.792 76.0347C109.54 76.0692 109.428 75.7515 109.299 74.631C109.207 73.8344 109.183 73.0674 109.245 72.927C109.308 72.7863 109.17 72.404 108.939 72.0771C108.709 71.7502 108.596 71.4165 108.688 71.3353C108.901 71.1489 108.8 70.3856 108.567 70.4176C108.471 70.4307 108.36 70.1336 108.319 69.7573C108.278 69.3811 108.332 69.0614 108.438 69.0469C108.732 69.0066 108.605 68.5656 108.214 68.2679C107.979 68.0899 107.829 67.5748 107.759 66.706C107.673 65.6454 107.597 65.4411 107.341 65.5822C107.168 65.6769 107.023 65.7316 107.019 65.7034C107.016 65.6753 107.062 65.3091 107.122 64.8899C107.19 64.422 107.144 64.0883 107.004 64.0261C106.879 63.9706 106.75 63.7339 106.718 63.5006C106.686 63.2671 106.362 62.901 105.997 62.6873C105.633 62.4734 105.424 62.2828 105.534 62.2636C105.644 62.2446 105.515 62.1061 105.248 61.9557C104.832 61.7222 104.816 61.6751 105.138 61.631C105.38 61.5979 105.452 61.4636 105.338 61.2566C105.24 61.0791 105.025 60.9523 104.859 60.975C104.694 60.9976 104.473 60.8455 104.369 60.6371C103.972 59.8391 102.982 59.5684 101.121 59.7484C100.138 59.8435 99.1109 59.8386 98.8378 59.7371C98.5646 59.6359 98.0721 59.5896 97.7435 59.6346C97.4148 59.6796 96.9613 59.6493 96.7356 59.5672C96.5101 59.4852 95.9088 59.4168 95.3996 59.4154C94.8903 59.4141 94.0014 59.3147 93.4242 59.1944C92.8471 59.0741 92.3333 59.0306 92.2825 59.0973C92.2317 59.1641 91.8757 59.1073 91.4914 58.9706C91.1071 58.8341 90.8003 58.8023 90.8095 58.8996C90.8189 58.9971 90.6692 58.9197 90.4773 58.7278C90.2854 58.5361 89.6483 58.2329 89.0621 58.0544C88.4756 57.8759 87.39 57.4874 86.6495 57.1912C85.909 56.8949 84.6827 56.5439 83.9244 56.4112C83.166 56.2785 82.2548 55.9993 81.8993 55.7907C81.5438 55.5822 81.1244 55.4293 80.9672 55.4508C80.81 55.4723 80.5983 55.3383 80.4966 55.1535C80.3949 54.9684 80.2175 54.8946 80.1024 54.9897C79.9872 55.0846 79.8765 55.0421 79.8564 54.8951C79.8342 54.733 79.6031 54.7012 79.2669 54.8145C78.9628 54.917 78.7034 54.9238 78.6905 54.8297C78.6776 54.7357 78.4028 54.6294 78.0798 54.5937C77.7567 54.5581 77.4792 54.4323 77.463 54.3139C77.4172 53.9789 75.8933 52.868 75.6988 53.0283C75.6036 53.1068 75.2826 52.9996 74.9853 52.7902C74.6882 52.5807 74.3386 52.424 74.2085 52.4418C74.0783 52.4596 73.9578 52.3719 73.9407 52.247C73.9237 52.1221 73.7052 52.0478 73.4554 52.082C73.2055 52.1162 72.9892 52.0574 72.9748 51.9516C72.9602 51.8455 72.4873 51.624 71.924 51.459C71.3606 51.294 70.6219 50.9108 70.2828 50.6071C69.9437 50.3036 69.5291 50.0739 69.3619 50.0967C69.1945 50.1196 68.9033 50.0294 68.715 49.896C68.5267 49.7628 67.9642 49.5109 67.4651 49.3365C66.9659 49.1618 66.5456 48.9331 66.5313 48.8279C66.5168 48.7225 66.3508 48.6575 66.1621 48.6834C65.9735 48.7092 65.6215 48.5544 65.3797 48.3394C65.1378 48.1245 64.8633 48.0121 64.7693 48.0895C64.6753 48.1671 64.584 48.1255 64.5665 47.9972C64.5489 47.869 63.8872 47.4073 63.0956 46.9713C62.3041 46.5354 61.585 46.1043 61.4971 46.0134C61.4094 45.9224 61.2491 45.8918 61.1407 45.9451C61.0325 45.9985 60.9038 45.9742 60.8547 45.8912C60.5857 45.4353 58.3813 43.9339 57.5609 43.6475C57.0358 43.4641 56.4506 43.1716 56.2607 42.9974C56.0707 42.8233 55.797 42.6969 55.6528 42.7166C55.5083 42.7364 55.2086 42.595 54.9865 42.4028C54.7645 42.2106 53.6198 41.4039 52.4427 40.6105C51.2658 39.817 49.5457 38.6103 48.6202 37.9291C47.6949 37.2477 46.6101 36.5772 46.2094 36.4393C45.4763 36.1867 44.5888 35.5281 43.8372 34.6787C43.6122 34.4245 43.0764 34.2023 42.6352 34.1805C42.1972 34.159 41.747 34.0276 41.6344 33.8889C41.4359 33.6441 40.7082 33.3707 40.2351 33.3628C39.7008 33.3539 39.0145 33.0663 38.4012 32.5939C38.0414 32.3169 37.04 31.6776 36.1755 31.1732C35.3112 30.6687 34.5941 30.1851 34.5822 30.0983C34.5703 30.0114 34.0413 29.7607 33.4069 29.5411C32.7724 29.3216 32.0344 28.9366 31.7673 28.6855C31.4999 28.4347 31.1953 28.3003 31.0901 28.3869C30.9849 28.4737 30.8857 28.4489 30.8697 28.3317C30.8536 28.2147 30.5165 28.0336 30.1205 27.9297C29.7245 27.8259 29.3889 27.6559 29.3747 27.5521C29.3161 27.1242 21.1902 23.5981 20.4849 23.6946C20.3897 23.7076 19.8156 23.4738 19.209 23.175C18.6023 22.8762 17.9494 22.6531 17.7577 22.6793C17.5662 22.7055 17.2562 22.6133 17.069 22.4746C16.7167 22.2132 15.2346 21.7713 15.1324 21.897C15.1005 21.9361 14.6046 21.7545 14.0306 21.4931C13.4564 21.232 12.8246 21.0403 12.6266 21.0674C12.1952 21.1264 11.3754 20.8524 10.7476 20.4396C10.4967 20.2745 10.0616 20.139 9.78086 20.1385C9.50009 20.1378 8.9995 20.0593 8.66835 19.9644C3.93055 18.6041 2.42272 18.3768 1.27142 18.8494ZM123.442 23.3769C123.451 23.4394 123.509 23.4835 123.572 23.4749C123.634 23.4664 123.678 23.4083 123.67 23.3458C123.661 23.2834 123.603 23.2393 123.54 23.2478C123.478 23.2563 123.434 23.3144 123.442 23.3769ZM123.808 25.2091C124.01 26.0551 124.78 28.8934 125.518 31.5163C126.256 34.139 126.838 36.5064 126.81 36.7772C126.782 37.0478 126.78 37.8913 126.805 38.6515C126.829 39.4118 126.829 40.63 126.806 41.3585C126.781 42.0869 126.818 43.0191 126.886 43.4299C127.089 44.6402 127.511 50.7813 127.507 52.439C127.506 52.8209 127.503 53.7887 127.501 54.5896C127.499 55.3903 127.577 56.2391 127.675 56.4759C127.773 56.7127 127.744 57.0813 127.61 57.2956C127.477 57.5098 127.423 58.1675 127.489 58.7572C127.556 59.3469 127.558 59.9446 127.493 60.0857C127.429 60.2267 127.401 60.9594 127.431 61.7139C127.493 63.2295 127.487 64.1847 127.408 65.7574C127.335 67.2158 127.766 69.6516 128.201 70.2344C128.506 70.6432 128.517 70.8196 128.27 71.3382C128.109 71.6777 128.037 72.0709 128.111 72.2122C128.185 72.3534 128.175 72.6683 128.089 72.9117C128.002 73.1554 128.159 75.293 128.437 77.6621C128.889 81.5136 128.987 81.9887 129.357 82.1477C129.741 82.3126 129.744 82.3479 129.389 82.6318C129.1 82.8634 129.066 83.0791 129.249 83.5186C129.383 83.8379 129.574 84.5391 129.673 85.0768C129.772 85.6146 129.977 86.1097 130.129 86.1771C130.43 86.3104 130.64 87.934 130.419 88.4173C130.344 88.5814 130.406 88.8853 130.557 89.0926C131.109 89.8526 131.574 90.9862 131.684 91.8403C131.712 92.059 131.833 92.2248 131.952 92.2085C132.199 92.1748 132.161 93.1841 131.886 94.0252C131.745 94.454 131.788 94.6881 132.068 95.0244C132.38 95.3992 132.385 95.5109 132.102 95.7836C131.801 96.074 131.823 96.1532 132.34 96.6526C132.846 97.1419 132.883 97.2696 132.68 97.8181C132.482 98.3493 132.505 98.4638 132.84 98.6472C133.378 98.9407 133.861 100.152 133.397 100.043C133.129 99.9801 133.104 100.217 133.272 101.195C133.389 101.872 133.615 102.525 133.774 102.646C133.977 102.8 134.012 103.006 133.891 103.333C133.795 103.59 133.814 104.118 133.932 104.507C134.559 106.565 134.69 106.836 134.981 106.676C135.145 106.587 135.294 106.626 135.313 106.764C135.332 106.903 135.246 107.03 135.121 107.047C134.996 107.064 134.908 107.186 134.926 107.319C134.944 107.451 135.036 107.496 135.13 107.418C135.224 107.341 135.556 107.766 135.868 108.363C136.286 109.166 136.44 109.776 136.458 110.706C136.477 111.722 136.553 111.98 136.852 112.051C137.136 112.117 137.234 112.394 137.276 113.248C137.31 113.954 137.429 114.378 137.6 114.411C137.788 114.447 137.788 114.597 137.598 114.902C137.395 115.231 137.4 115.374 137.618 115.471C137.778 115.542 138.01 116.049 138.134 116.598C138.417 117.853 138.81 118.806 139.032 118.775C139.126 118.763 139.189 119.015 139.172 119.336C139.155 119.657 139.26 120.033 139.405 120.172C139.549 120.311 139.664 120.607 139.658 120.83C139.653 121.054 139.79 121.217 139.964 121.193C140.188 121.163 140.284 121.37 140.292 121.9C140.31 123.02 140.652 123.865 141.007 123.67C141.222 123.552 141.332 123.699 141.4 124.193C141.519 125.06 141.811 125.604 142.053 125.405C142.155 125.32 142.254 125.36 142.272 125.492C142.29 125.624 142.192 125.748 142.053 125.767C141.899 125.788 141.89 125.945 142.031 126.175C142.158 126.38 142.337 126.954 142.43 127.451C142.523 127.947 142.821 128.726 143.092 129.182C143.363 129.637 143.596 130.1 143.611 130.21C143.626 130.319 143.716 130.398 143.81 130.386C143.99 130.361 144.397 130.987 145.083 132.344C145.399 132.97 145.548 133.084 145.753 132.86C145.898 132.702 146.03 132.609 146.046 132.655C146.062 132.7 146.186 133.19 146.321 133.744C146.789 135.667 147.778 137.205 148.281 136.79C148.402 136.69 148.439 136.737 148.367 136.899C148.297 137.056 148.353 137.168 148.491 137.15C148.655 137.127 148.728 137.4 148.701 137.938C148.668 138.607 148.763 138.827 149.207 139.118C149.508 139.314 149.75 139.564 149.746 139.673C149.722 140.253 149.943 140.612 150.355 140.662C150.674 140.7 150.808 140.869 150.79 141.208C150.775 141.477 150.844 141.687 150.943 141.673C151.041 141.66 151.373 142.057 151.68 142.556C151.987 143.055 152.341 143.517 152.468 143.582C152.594 143.647 152.659 143.865 152.612 144.066C152.565 144.267 152.678 144.526 152.863 144.641C153.049 144.756 153.364 145.13 153.564 145.472C153.763 145.814 154.038 146.032 154.175 145.957C154.549 145.751 153.549 139.407 152.829 137.419C151.946 134.98 151.879 134.718 151.277 131.341C150.969 129.606 150.588 128.07 150.432 127.927C150.276 127.784 150.238 127.655 150.347 127.64C150.578 127.609 150.383 126.207 150.099 125.863C149.992 125.733 149.988 125.405 150.089 125.132C150.209 124.809 150.179 124.512 150.005 124.281C149.739 123.929 149.534 121.711 149.702 121.018C149.75 120.821 149.612 119.225 149.396 117.473C149.18 115.721 149.027 113.503 149.056 112.545C149.084 111.587 149.057 110.227 148.994 109.524C148.88 108.244 148.931 107.666 149.354 105.447C149.479 104.793 149.561 103.948 149.538 103.568C149.514 103.189 149.555 102.742 149.629 102.575C149.703 102.409 149.753 101.778 149.741 101.173C149.729 100.569 149.814 99.7494 149.929 99.3518C150.071 98.8648 150.018 97.9101 149.768 96.426C149.433 94.4379 149.321 94.1374 148.615 93.3443C148.185 92.8609 147.845 92.3859 147.86 92.2883C147.874 92.1908 147.784 92.1251 147.659 92.1422C147.534 92.1593 147.411 92.0195 147.385 91.8317C147.319 91.3456 146.303 89.9967 146.152 90.1948C146.083 90.2857 145.997 90.1386 145.96 89.868C145.923 89.5973 145.75 89.3953 145.576 89.4191C145.194 89.4713 144.873 88.9506 144.988 88.4644C145.033 88.2705 144.876 87.9645 144.639 87.7845C144.362 87.5744 144.23 87.2591 144.269 86.9036C144.305 86.5822 144.229 86.3639 144.089 86.3831C143.956 86.4013 143.853 86.2853 143.86 86.1251C143.867 85.9652 143.635 85.4502 143.344 84.981C142.507 83.6326 141.491 81.3756 141.332 80.5127C141.252 80.0782 141.103 79.578 141 79.4012C140.434 78.4256 139.73 76.4671 139.597 75.4965C139.513 74.8849 139.306 74.2786 139.135 74.1492C138.965 74.0198 138.9 73.9036 138.992 73.8911C139.084 73.8785 139.026 73.6844 138.863 73.46C138.657 73.175 138.634 72.9962 138.79 72.8682C138.912 72.7673 138.92 72.5256 138.806 72.3313C138.346 71.5438 137.837 70.2041 137.416 68.6691C137.348 68.4237 137.208 68.0785 137.105 67.9017C136.81 67.3994 136.474 66.1834 136.087 64.223C135.437 60.9255 135.13 59.5859 134.925 59.1542C134.757 58.8007 134.445 57.6947 134.208 56.6128C134.181 56.4892 134.088 55.773 134.002 55.0212C133.77 52.9885 133.263 50.4885 133.025 50.2001C132.91 50.0606 132.86 49.8883 132.914 49.817C133.134 49.5271 132.326 48.1676 131.611 47.6241C130.988 47.1511 130.812 46.8392 130.668 45.9503C130.57 45.3493 130.403 44.401 130.297 43.8428C130.191 43.2846 129.933 41.8332 129.725 40.6173C129.255 37.8782 128.624 36.0075 128.067 35.7067C127.831 35.5791 127.602 35.1748 127.55 34.7939C127.425 33.8837 125.92 29.1217 125.323 27.7475C125.062 27.1468 124.637 26.0305 124.378 25.2669C123.722 23.3288 123.349 23.2911 123.808 25.2091ZM53.8054 45.6144C53.7539 45.6823 53.5455 45.531 53.3423 45.2784C52.9895 44.8391 52.9938 44.8336 53.4362 45.1547C53.6908 45.3397 53.857 45.5465 53.8054 45.6144ZM54.315 45.792C54.3235 45.8545 54.2794 45.9126 54.2169 45.9211C54.1545 45.9297 54.0964 45.8856 54.0878 45.8231C54.0793 45.7606 54.1234 45.7025 54.1859 45.694C54.2483 45.6854 54.3064 45.7296 54.315 45.792ZM55.7319 46.3715C55.7999 46.5096 56.0318 46.5984 56.2474 46.5689C56.4627 46.5395 56.9968 46.8917 57.4341 47.3513C58.5076 48.4804 59.303 49.159 59.5179 49.1296C59.6155 49.1162 60.181 49.4033 60.7744 49.7675C61.368 50.1318 61.957 50.4156 62.0838 50.3983C62.2105 50.3809 62.407 50.5623 62.5205 50.8013C62.6339 51.0403 62.8732 51.2158 63.0521 51.1914C63.2311 51.1669 63.3902 51.239 63.4056 51.3515C63.4297 51.5273 64.819 52.2512 65.5092 52.4476C65.6342 52.4831 66.0236 52.7304 66.3748 52.997C66.726 53.2637 67.3779 53.5787 67.8236 53.6973C68.2692 53.8157 68.5887 54.0147 68.5333 54.1393C68.478 54.264 69.4796 54.8036 70.7591 55.3387C72.0385 55.8735 73.3314 56.5489 73.6319 56.8393C73.9326 57.1298 74.1688 57.2965 74.1569 57.2099C74.1451 57.1232 74.2742 57.1145 74.4436 57.1908C74.6132 57.2669 74.8943 57.3314 75.0684 57.3337C75.2426 57.3363 75.7101 57.591 76.1073 57.8997C76.5045 58.2084 77.5769 58.7135 78.49 59.0217C79.4034 59.3302 80.2426 59.6948 80.3551 59.8321C80.5251 60.0398 82.1557 60.2733 82.3824 60.1226C82.4204 60.0973 82.6757 60.2734 82.9497 60.5138C83.2395 60.7683 83.5855 60.8753 83.7772 60.7701C83.9711 60.6635 84.4604 60.8231 84.9669 61.1583C85.4399 61.4715 86.0436 61.698 86.3082 61.6618C86.5729 61.6256 86.8021 61.6893 86.8177 61.8036C86.869 62.1786 89.1557 63.0181 90.4721 63.1453C92.1581 63.3082 93.7828 63.6654 93.8121 63.8796C93.8431 64.1065 96.0327 64.4965 96.7357 64.4003C97.0419 64.3584 97.5177 64.4756 97.7929 64.6606C98.3785 65.0546 99.0702 66.5346 99.0283 67.3041C99.0074 67.6911 99.1264 67.856 99.4554 67.8957C99.808 67.9381 99.8753 68.0476 99.7522 68.3792C99.6648 68.6149 99.6548 68.8544 99.7299 68.9116C100.163 69.2403 101.001 72.1755 101.382 74.6976C101.623 76.2872 101.879 77.5797 101.952 77.5699C102.125 77.5465 102.178 78.412 102.016 78.6243C101.948 78.7144 102.085 79.0104 102.321 79.2817C102.601 79.6038 102.66 79.7872 102.489 79.8106C102.296 79.8369 102.31 79.9591 102.539 80.2753C102.71 80.5113 102.811 80.9269 102.764 81.199C102.71 81.513 102.757 81.6289 102.894 81.5163C103.187 81.2747 103.596 82.191 103.344 82.5233C103.206 82.7051 103.245 82.9115 103.467 83.1782C103.696 83.4533 103.736 83.6874 103.606 83.9751C103.435 84.3501 103.971 86.3189 104.511 87.3024C104.604 87.4713 104.584 87.6226 104.467 87.6386C104.35 87.6546 104.334 87.8124 104.431 87.9893C104.528 88.1662 104.668 88.2611 104.742 88.2004C104.969 88.0133 105.126 89.2656 104.918 89.6016C104.801 89.7907 104.81 89.9057 104.94 89.8878C105.06 89.8714 105.223 90.2247 105.301 90.6728C105.38 91.1209 105.62 91.8228 105.835 92.2321C106.082 92.7043 106.152 93.0457 106.026 93.165C105.741 93.4347 105.955 94.6684 106.34 94.9783C106.52 95.1226 106.656 95.4967 106.642 95.8093C106.628 96.128 106.703 96.3075 106.812 96.2173C106.919 96.1291 107.055 96.3426 107.113 96.6921C107.353 98.1227 107.748 99.559 107.957 99.7595C108.08 99.8769 108.134 100.187 108.077 100.448C108.019 100.716 108.158 101.236 108.396 101.64C108.628 102.034 108.711 102.31 108.58 102.251C108.368 102.157 108.559 102.661 109.199 103.883C109.292 104.061 109.395 104.307 109.428 104.43C109.461 104.553 109.709 105.232 109.979 105.939C110.374 106.975 110.426 107.32 110.247 107.72C110.125 107.992 110.118 108.137 110.233 108.042C110.535 107.794 110.732 108.119 111.025 109.344C111.166 109.938 111.594 111.11 111.975 111.949C113.014 114.233 113.26 114.906 113.233 115.389C113.22 115.63 113.386 116.078 113.601 116.382C113.816 116.687 113.957 117.085 113.915 117.266C113.873 117.446 113.963 117.577 114.116 117.556C114.288 117.533 114.382 117.735 114.363 118.089C114.346 118.413 114.458 118.69 114.622 118.728C114.781 118.766 115.042 119.225 115.201 119.749C115.359 120.272 115.62 120.821 115.781 120.968C115.941 121.114 116.129 121.51 116.2 121.847C116.27 122.184 116.487 122.732 116.68 123.063C116.873 123.395 117.058 123.858 117.09 124.093C117.122 124.327 117.259 124.568 117.395 124.628C117.53 124.688 117.666 124.917 117.696 125.135C117.726 125.354 117.956 125.707 118.208 125.919C118.459 126.132 118.722 126.533 118.79 126.81C118.898 127.247 120.484 129.899 121.283 130.977C121.431 131.177 121.587 131.59 121.628 131.894C121.67 132.197 121.84 132.486 122.005 132.535C122.171 132.585 122.099 132.625 121.844 132.626C121.57 132.626 121.373 132.466 121.36 132.233C121.345 131.974 121.172 131.863 120.85 131.907C120.368 131.973 119.793 131.632 118.34 130.422C117.933 130.082 117.514 129.875 117.41 129.961C117.305 130.047 117.2 129.972 117.176 129.794C117.145 129.567 116.878 129.513 116.283 129.613C115.57 129.733 115.438 129.686 115.45 129.317C115.461 129.013 115.37 128.931 115.153 129.05C114.964 129.154 114.724 129.036 114.544 128.751C114.18 128.175 111.519 126.615 111.262 126.827C111.16 126.912 110.825 126.761 110.517 126.492C110.207 126.22 109.822 126.078 109.65 126.172C109.461 126.276 109.258 126.167 109.127 125.891C109.01 125.644 108.767 125.461 108.588 125.486C108.409 125.51 108.251 125.444 108.236 125.338C108.201 125.079 106.308 124.53 106.154 124.733C105.964 124.984 105.126 124.593 105.077 124.231C105.052 124.052 104.813 123.825 104.545 123.725C104.277 123.625 104.066 123.611 104.078 123.693C104.089 123.776 103.929 123.737 103.721 123.608C103.514 123.479 103.395 123.261 103.456 123.122C103.527 122.964 103.31 122.945 102.869 123.073C102.377 123.215 102.157 123.184 102.127 122.967C102.104 122.797 101.897 122.615 101.667 122.563C101.437 122.51 101.089 122.346 100.893 122.199C100.698 122.053 100.395 122.011 100.221 122.106C100.047 122.202 99.467 122.021 98.9275 121.702C98.3895 121.384 97.8471 121.208 97.7219 121.312C97.5968 121.415 97.2538 121.303 96.9594 121.062C96.5989 120.768 96.3841 120.716 96.3008 120.904C96.129 121.291 95.3894 121.079 94.683 120.44C94.0886 119.902 93.3717 119.815 93.1628 120.256C93.0998 120.389 92.9249 120.443 92.7744 120.376C92.4334 120.225 92.3298 119.611 92.638 119.569C92.7629 119.552 92.8512 119.436 92.8341 119.311C92.817 119.186 92.6497 119.105 92.4623 119.13C92.2749 119.156 92.144 119.341 92.1715 119.542C92.2064 119.797 92.0952 119.877 91.8029 119.808C91.5729 119.753 91.0957 119.69 90.7425 119.668C90.3894 119.645 90.0884 119.538 90.0734 119.428C90.0585 119.319 89.7966 119.264 89.4913 119.306C89.1752 119.349 88.7543 119.185 88.5137 118.925C88.1662 118.55 88.1005 118.538 88.1445 118.86C88.174 119.075 88.1027 119.264 87.9861 119.28C87.8696 119.296 87.7409 119.001 87.7003 118.625C87.6597 118.249 87.7131 117.929 87.819 117.915C87.9248 117.9 87.9976 117.786 87.9805 117.661C87.9634 117.536 87.7961 117.455 87.6087 117.481C87.1835 117.539 87.0768 116.879 87.4063 116.229C87.8373 115.38 87.8775 114.667 87.4916 114.72C87.0001 114.787 86.835 114.497 86.8866 113.657C86.9164 113.174 87.042 112.946 87.2505 112.995C87.644 113.087 87.861 112.676 87.5026 112.517C87.3592 112.453 87.2774 112.197 87.3208 111.947C87.3678 111.676 87.2919 111.508 87.1322 111.53C86.9584 111.553 86.8886 111.354 86.9322 110.959C86.9756 110.566 86.9232 110.415 86.7828 110.53C86.6639 110.628 86.5444 110.546 86.5172 110.348C86.49 110.149 86.6266 109.899 86.8207 109.792C87.1461 109.614 87.1412 109.581 86.7547 109.372C86.3156 109.135 86.2405 108.661 86.5828 108.29C86.7127 108.149 86.6733 108.043 86.472 107.992C86.2381 107.933 86.2519 107.821 86.5268 107.547C86.7873 107.287 86.8024 107.191 86.5789 107.216C86.3437 107.243 86.2634 107.018 86.2617 106.327C86.2592 105.372 86.1106 105.219 85.7038 105.755C85.5344 105.978 85.4586 105.992 85.4331 105.806C85.4136 105.663 85.4916 105.469 85.6064 105.375C85.7212 105.28 85.718 104.961 85.5991 104.665C85.4179 104.214 85.4539 104.14 85.8246 104.204C86.2205 104.273 86.2243 104.256 85.861 104.028C85.6386 103.89 85.4599 103.551 85.4641 103.277C85.4684 102.994 85.3187 102.742 85.1184 102.695C84.8891 102.641 84.7217 102.298 84.6424 101.718C84.5335 100.922 84.5742 100.83 85.0134 100.883C85.4611 100.937 85.4735 100.902 85.1476 100.511C84.9499 100.273 84.7292 100.128 84.6568 100.188C84.4576 100.352 84.3861 99.545 84.5845 99.3714C84.8131 99.1715 83.9232 96.4031 83.5671 96.2073C83.3689 96.0981 83.3698 96.008 83.5705 95.8935C83.7892 95.7687 83.752 95.6489 83.4032 95.3555C83.052 95.0602 83.0236 94.968 83.2731 94.9311C83.5332 94.8925 83.5242 94.853 83.2236 94.716C82.9343 94.5841 82.9066 94.481 83.0944 94.2336C83.2691 94.0035 83.2552 93.8479 83.0425 93.6527C82.8271 93.4552 82.8269 93.3759 83.042 93.3465C83.2382 93.3196 83.1807 93.1796 82.8643 92.9135C82.6072 92.6972 82.3156 92.5869 82.2165 92.6687C82.1175 92.7503 82.0146 92.6577 81.9879 92.4631C81.9591 92.2525 82.1459 92.0733 82.4481 92.0211C82.7277 91.9729 82.822 91.8991 82.6571 91.8576C82.4924 91.8158 82.3392 91.6479 82.3168 91.4844C82.2944 91.3206 82.1148 91.149 81.9175 91.1026C81.4073 90.9829 81.2946 89.8833 81.7857 89.8161C82.1389 89.7678 82.1346 89.7445 81.7315 89.5266C81.4342 89.366 81.2925 89.0695 81.2911 88.606C81.2901 88.2299 81.1394 87.8085 80.9561 87.6693C80.773 87.5303 80.6581 87.2668 80.7009 87.0841C80.7439 86.9012 80.5736 86.5157 80.3226 86.2272C80.0717 85.9387 79.9176 85.5868 79.9804 85.4454C80.0432 85.304 80.0074 85.2001 79.9009 85.2147C79.7946 85.2293 79.5209 84.7967 79.2929 84.2534C78.7697 83.0063 78.7385 82.7648 79.1172 82.8958C79.2843 82.9535 79.1942 82.8637 78.9175 82.6963C78.5212 82.4565 78.473 82.3432 78.6905 82.1637C78.8949 81.9953 78.8247 81.9186 78.4213 81.8701C77.8839 81.8053 77.8818 81.7984 78.2809 81.4088C78.6781 81.0207 78.6768 81.008 78.21 80.752C77.9481 80.6083 77.7907 80.363 77.8599 80.2071C77.9292 80.0509 77.8706 79.9391 77.73 79.9583C77.5813 79.9787 77.507 79.8033 77.5526 79.5395C77.6033 79.2468 77.4675 78.9983 77.1704 78.8397C76.6697 78.5725 76.4185 77.5804 76.7699 77.2586C76.9026 77.1373 76.8414 77.0776 76.6144 77.1063C76.1612 77.1642 75.799 76.5952 76.1573 76.3881C76.3402 76.2824 76.3067 76.1845 76.0396 76.0456C75.8341 75.9388 75.7678 75.8343 75.8922 75.8133C76.0242 75.7911 76.0053 75.7201 75.8461 75.6426C75.5754 75.5105 74.261 73.0423 74.0714 72.3093C74.0166 72.0979 73.7741 71.7495 73.5325 71.5349C73.291 71.3204 73.1457 71.0755 73.2098 70.9911C73.274 70.9067 73.1452 70.7332 72.9235 70.6059C72.7019 70.4784 72.4489 70.0715 72.3617 69.7017C72.2743 69.3318 71.9989 68.7968 71.7497 68.5127C71.5007 68.2286 71.1828 67.7515 71.0433 67.4524C70.9038 67.1534 70.5812 66.8009 70.3264 66.6691C69.9681 66.4838 69.9018 66.3258 70.0333 65.9713C70.1361 65.6942 70.1132 65.4729 69.9755 65.4116C69.8499 65.3562 69.6409 65.021 69.5111 64.6674C69.381 64.3136 69.1093 63.921 68.907 63.7953C68.5307 63.561 64.1512 57.2886 64.3454 57.262C64.4047 57.2539 64.1884 56.867 63.8652 56.4021C63.542 55.9373 63.1946 55.5683 63.0933 55.5822C62.992 55.596 62.7255 55.346 62.5014 55.0268C62.2772 54.7076 62.0026 54.3546 61.8915 54.2425C61.7801 54.1305 61.2361 53.5281 60.6821 52.9039C60.1284 52.2797 59.5222 51.6523 59.3354 51.5099C59.1483 51.3672 58.9701 51.0658 58.9393 50.8403C58.9084 50.6147 58.7124 50.3238 58.5037 50.1939C58.2951 50.0639 58.1076 49.8353 58.0871 49.6858C58.0667 49.5361 57.635 49.0447 57.1279 48.5937C56.6207 48.1427 56.1913 47.6674 56.1735 47.5374C56.1557 47.4075 55.7662 47.033 55.3077 46.7056C54.5039 46.1313 54.4946 46.1101 55.0411 46.1152C55.3529 46.1179 55.6637 46.2332 55.7319 46.3715ZM100.077 70.7693C100.085 70.8317 100.143 70.8758 100.206 70.8673C100.268 70.8587 100.312 70.8006 100.304 70.7382C100.295 70.6757 100.237 70.6316 100.175 70.6401C100.112 70.6487 100.068 70.7068 100.077 70.7693ZM100.521 72.3282C100.53 72.3906 100.588 72.4347 100.65 72.4262C100.713 72.4176 100.757 72.3595 100.748 72.2971C100.74 72.2346 100.682 72.1905 100.619 72.199C100.557 72.2076 100.513 72.2657 100.521 72.3282ZM127.8 70.4474C127.808 70.5099 127.866 70.554 127.929 70.5454C127.991 70.5369 128.035 70.4788 128.027 70.4163C128.018 70.3539 127.96 70.3097 127.898 70.3183C127.835 70.3268 127.791 70.3849 127.8 70.4474ZM127.943 70.9293C128.037 71.001 128.174 70.9823 128.246 70.8878C128.317 70.7931 128.24 70.7343 128.073 70.757C127.907 70.7798 127.848 70.8573 127.943 70.9293ZM101.152 75.2499C101.161 75.3124 101.219 75.3565 101.282 75.3479C101.344 75.3394 101.388 75.2813 101.38 75.2188C101.371 75.1564 101.313 75.1122 101.25 75.1208C101.188 75.1293 101.144 75.1874 101.152 75.2499ZM109.521 74.6835C109.461 74.819 109.52 74.915 109.652 74.897C109.784 74.8789 109.879 74.7618 109.861 74.6369C109.844 74.512 109.785 74.4159 109.73 74.4235C109.675 74.431 109.581 74.548 109.521 74.6835ZM133.154 72.3759C133.171 72.5008 133.185 72.6717 133.185 72.7557C133.185 72.8397 133.359 72.9765 133.571 73.0598C133.782 73.1428 133.98 73.4376 134.011 73.7143C134.041 73.9913 134.26 74.8161 134.497 75.5474C134.733 76.2786 135.033 77.2643 135.162 77.7376C135.292 78.2109 135.46 78.6738 135.536 78.7661C135.612 78.8585 135.61 79.2118 135.531 79.5514C135.436 79.965 135.465 80.1584 135.62 80.1372C135.747 80.1198 135.843 80.2369 135.833 80.3973C135.823 80.5579 135.993 80.9249 136.212 81.2131C136.603 81.7268 136.709 81.9478 136.996 82.8413C137.146 83.3058 137.607 84.4367 138.248 85.9095C138.457 86.39 138.722 87.0305 138.837 87.3329C138.952 87.6353 139.162 87.9373 139.304 88.004C139.446 88.0707 139.639 88.4087 139.733 88.7551C139.828 89.1016 140.083 89.5914 140.301 89.8434C140.519 90.0955 140.732 90.5548 140.774 90.8642C140.816 91.1736 140.962 91.4758 141.097 91.5359C141.233 91.596 141.379 91.9007 141.421 92.213C141.473 92.5887 141.581 92.7129 141.742 92.5803C141.903 92.4482 141.956 92.5069 141.898 92.7522C141.846 92.975 142.06 93.302 142.433 93.5671C142.775 93.8104 143.082 94.2024 143.114 94.4377C143.146 94.6732 143.266 94.7887 143.38 94.6944C143.502 94.5948 143.627 94.8073 143.681 95.2025C143.746 95.673 143.914 95.9063 144.229 95.9606C144.537 96.0139 144.783 96.3416 144.989 96.9714C145.157 97.4839 145.279 98.0096 145.26 98.1395C145.241 98.2693 145.27 98.976 145.325 99.7096C145.379 100.443 145.302 101.651 145.152 102.394C145.002 103.137 144.875 104.135 144.87 104.613C144.864 105.09 144.805 105.931 144.74 106.481C144.675 107.032 144.65 107.903 144.685 108.418C144.719 108.932 144.714 109.557 144.673 109.808C144.631 110.058 144.66 111.124 144.736 112.176C144.813 113.228 144.83 114.191 144.775 114.315C144.551 114.82 144.641 115.821 144.947 116.244C145.164 116.543 145.243 116.965 145.181 117.495C145.129 117.934 145.215 118.778 145.371 119.369C145.527 119.96 145.596 120.492 145.523 120.552C145.396 120.658 145.645 122.261 145.893 122.927C145.96 123.109 145.868 123.278 145.688 123.303C145.303 123.355 144.374 122.242 144.183 121.498C144.033 120.914 143.607 119.826 143.34 119.343C143.241 119.166 143.082 118.635 142.985 118.165C142.888 117.694 142.67 117.182 142.5 117.026C142.33 116.87 142.086 116.259 141.957 115.666C141.488 113.517 141.247 112.712 140.946 112.298C140.778 112.066 140.596 111.551 140.542 111.155C140.411 110.197 139.229 106.491 138.883 105.954C138.402 105.206 137.625 103.125 137.774 102.983C137.954 102.812 137.599 100.509 137.155 98.9614C136.971 98.32 136.714 97.2617 136.585 96.6098C136.455 95.9581 136.133 94.4132 135.869 93.1767C135.605 91.9401 135.344 90.5182 135.288 90.0167C135.232 89.5153 135.109 88.9594 135.014 88.7815C134.808 88.3944 134.349 86.1766 133.803 82.9311C133.583 81.6249 133.377 80.5076 133.346 80.4483C133.277 80.3162 132.762 76.1965 132.736 75.5569C132.725 75.3038 132.808 75.0076 132.921 74.8987C133.05 74.7734 133.028 74.7128 132.861 74.7334C132.57 74.7693 132.387 73.3296 132.593 72.6261C132.727 72.1717 133.103 72.0038 133.154 72.3759ZM132.631 73.0645C132.726 73.1362 132.862 73.1176 132.934 73.0231C133.006 72.9283 132.928 72.8695 132.762 72.8923C132.595 72.9151 132.537 72.9925 132.631 73.0645ZM69.2404 82.161C69.2489 82.2235 69.307 82.2676 69.3695 82.2591C69.4319 82.2505 69.4761 82.1924 69.4675 82.13C69.459 82.0675 69.4009 82.0234 69.3384 82.0319C69.2759 82.0405 69.2318 82.0986 69.2404 82.161ZM79.4114 83.7776C79.4199 83.8401 79.478 83.8842 79.5405 83.8757C79.6029 83.8671 79.647 83.809 79.6385 83.7466C79.6299 83.6841 79.5718 83.64 79.5094 83.6485C79.4469 83.6571 79.4028 83.7152 79.4114 83.7776ZM70.8015 86.8067C70.81 86.8691 70.7659 86.9272 70.7035 86.9358C70.641 86.9443 70.5829 86.9002 70.5744 86.8377C70.5658 86.7753 70.6099 86.7172 70.6724 86.7086C70.7348 86.7001 70.7929 86.7442 70.8015 86.8067ZM81.8666 90.7306C81.9609 90.8449 82.1403 90.9245 82.2652 90.9074C82.3901 90.8903 82.4152 90.7828 82.3209 90.6684C82.2266 90.5541 82.0472 90.4745 81.9223 90.4916C81.7974 90.5086 81.7723 90.6162 81.8666 90.7306ZM130.223 88.1643C130.232 88.2268 130.29 88.2709 130.352 88.2623C130.415 88.2538 130.459 88.1957 130.451 88.1332C130.442 88.0708 130.384 88.0267 130.321 88.0352C130.259 88.0437 130.215 88.1018 130.223 88.1643ZM105.62 92.6871C105.629 92.7496 105.687 92.7937 105.75 92.7852C105.812 92.7766 105.856 92.7185 105.848 92.6561C105.839 92.5936 105.781 92.5495 105.719 92.558C105.656 92.5666 105.612 92.6247 105.62 92.6871ZM131.287 89.1757C131.296 89.2382 131.252 89.2963 131.189 89.3048C131.127 89.3134 131.069 89.2692 131.06 89.2068C131.052 89.1443 131.096 89.0862 131.158 89.0777C131.221 89.0691 131.279 89.1132 131.287 89.1757ZM131.951 91.2061C131.879 91.3006 131.801 91.2418 131.779 91.0753C131.756 90.9088 131.815 90.8314 131.909 90.9031C132.004 90.9751 132.023 91.1114 131.951 91.2061ZM113.539 94.1878C113.633 94.2595 113.77 94.2409 113.842 94.1463C113.913 94.0516 113.836 93.9928 113.67 94.0156C113.503 94.0383 113.444 94.1158 113.539 94.1878ZM84.9931 102.027C85.0879 102.098 85.2241 102.08 85.2961 101.985C85.3678 101.891 85.2904 101.832 85.1239 101.855C84.9574 101.877 84.8986 101.955 84.9931 102.027ZM73.0759 105.123C73.0986 105.289 73.1761 105.348 73.2481 105.253C73.3198 105.159 73.3012 105.022 73.2066 104.95C73.1119 104.879 73.0531 104.956 73.0759 105.123ZM136.93 99.9734C136.938 100.036 136.894 100.094 136.832 100.102C136.769 100.111 136.711 100.067 136.702 100.004C136.694 99.942 136.738 99.8839 136.8 99.8753C136.863 99.8668 136.921 99.9109 136.93 99.9734ZM72.9902 114.081C73.085 114.153 73.2212 114.135 73.2932 114.04C73.365 113.945 73.2875 113.886 73.121 113.909C72.9545 113.932 72.8957 114.009 72.9902 114.081ZM87.1737 114.301C87.268 114.415 87.3901 114.502 87.4453 114.495C87.5005 114.487 87.5315 114.379 87.5144 114.254C87.4973 114.129 87.375 114.042 87.2428 114.06C87.1106 114.078 87.0794 114.186 87.1737 114.301ZM72.535 119.774C72.5578 119.941 72.6353 119.999 72.7073 119.905C72.779 119.81 72.7603 119.674 72.6658 119.602C72.5711 119.53 72.5122 119.608 72.535 119.774ZM136.893 111.548C136.902 111.61 136.858 111.668 136.795 111.677C136.733 111.686 136.675 111.641 136.666 111.579C136.658 111.516 136.702 111.458 136.764 111.45C136.827 111.441 136.885 111.485 136.893 111.548ZM90.2423 118.971C90.2594 119.096 90.3695 119.185 90.4871 119.169C90.6048 119.153 90.75 119.029 90.8102 118.894C90.8703 118.758 90.76 118.669 90.5654 118.696C90.3707 118.722 90.2252 118.846 90.2423 118.971ZM72.0633 121.823C71.9825 121.931 71.9449 122.226 71.9797 122.48C72.0254 122.814 72.1021 122.864 72.2574 122.66C72.3752 122.504 72.4129 122.209 72.341 122.003C72.2691 121.797 72.1442 121.716 72.0633 121.823ZM97.1401 120.342C97.1629 120.508 97.2404 120.567 97.3123 120.472C97.3841 120.378 97.3654 120.241 97.2709 120.169C97.1762 120.098 97.1173 120.175 97.1401 120.342ZM138.26 115.333C138.188 115.428 138.11 115.369 138.087 115.202C138.065 115.036 138.123 114.959 138.218 115.03C138.313 115.102 138.331 115.239 138.26 115.333ZM71.7937 124.503C71.8165 124.67 71.8939 124.729 71.9659 124.634C72.0376 124.539 72.019 124.403 71.9245 124.331C71.8297 124.259 71.7709 124.337 71.7937 124.503ZM99.4533 121.182C99.5476 121.296 99.6759 121.383 99.7383 121.375C99.8008 121.366 99.7748 121.265 99.6805 121.151C99.5861 121.037 99.4579 120.95 99.3954 120.959C99.333 120.967 99.359 121.068 99.4533 121.182ZM103.708 122.683C103.725 122.807 103.847 122.895 103.98 122.877C104.112 122.859 104.143 122.75 104.049 122.636C103.954 122.522 103.832 122.434 103.777 122.442C103.722 122.449 103.691 122.558 103.708 122.683ZM70.9436 128.438C70.9521 128.5 71.0102 128.544 71.0727 128.536C71.1351 128.527 71.1793 128.469 71.1707 128.407C71.1622 128.344 71.1041 128.3 71.0416 128.309C70.9791 128.317 70.935 128.375 70.9436 128.438ZM72.1414 128.737C72.15 128.799 72.1058 128.857 72.0434 128.866C71.9809 128.874 71.9228 128.83 71.9143 128.768C71.9057 128.705 71.9498 128.647 72.0123 128.639C72.0748 128.63 72.1329 128.674 72.1414 128.737ZM107.006 124.237C107.1 124.309 107.237 124.29 107.309 124.195C107.38 124.101 107.303 124.042 107.136 124.065C106.97 124.087 106.911 124.165 107.006 124.237ZM72.2036 129.191C72.2121 129.253 72.168 129.311 72.1055 129.32C72.0431 129.328 71.985 129.284 71.9764 129.222C71.9679 129.159 72.012 129.101 72.0745 129.093C72.1369 129.084 72.195 129.128 72.2036 129.191ZM109.14 125.179C109.157 125.304 109.279 125.391 109.412 125.373C109.544 125.355 109.575 125.247 109.481 125.132C109.386 125.018 109.264 124.93 109.209 124.938C109.154 124.946 109.123 125.054 109.14 125.179ZM71.3847 130.804C71.3228 130.944 71.4191 130.969 71.6106 130.864C71.9834 130.66 72.0331 130.487 71.7065 130.531C71.5888 130.548 71.4441 130.67 71.3847 130.804ZM73.1025 130.688C73.1111 130.75 73.0669 130.808 73.0045 130.817C72.942 130.825 72.8839 130.781 72.8754 130.719C72.8668 130.656 72.9109 130.598 72.9734 130.59C73.0359 130.581 73.094 130.625 73.1025 130.688ZM110.901 126.211C111.082 126.377 111.333 126.499 111.457 126.482C111.584 126.464 111.539 126.317 111.355 126.148C111.174 125.982 110.924 125.86 110.799 125.878C110.672 125.895 110.717 126.042 110.901 126.211ZM112.114 126.623C112.131 126.748 112.254 126.835 112.386 126.817C112.518 126.799 112.549 126.691 112.455 126.576C112.361 126.462 112.239 126.375 112.183 126.382C112.128 126.39 112.097 126.498 112.114 126.623ZM72.4115 132.402C72.42 132.464 72.4781 132.508 72.5406 132.5C72.603 132.491 72.6472 132.433 72.6386 132.371C72.6301 132.308 72.572 132.264 72.5095 132.273C72.447 132.281 72.4029 132.339 72.4115 132.402ZM112.89 126.968C112.961 127.111 113.092 127.21 113.181 127.189C113.449 127.123 113.353 126.819 113.047 126.762C112.891 126.732 112.82 126.825 112.89 126.968ZM74.5471 132.79C74.5547 132.845 74.4527 132.979 74.3206 133.088C74.172 133.211 74.1286 133.178 74.207 133.002C74.3329 132.718 74.5212 132.601 74.5471 132.79ZM71.7391 133.689C71.8338 133.761 71.9701 133.743 72.0421 133.648C72.1138 133.553 72.0364 133.494 71.8699 133.517C71.7034 133.54 71.6446 133.617 71.7391 133.689ZM145.944 124.656C146.041 124.834 146.022 124.992 145.901 125.009C145.78 125.025 145.66 124.886 145.634 124.698C145.608 124.511 145.628 124.352 145.677 124.345C145.726 124.339 145.846 124.478 145.944 124.656ZM74.4413 134.554C74.3812 134.689 74.2298 134.814 74.1049 134.831C73.9799 134.848 73.9269 134.751 73.987 134.616C74.0472 134.48 74.1985 134.356 74.3235 134.339C74.4484 134.321 74.5014 134.418 74.4413 134.554ZM117.35 129.378C117.367 129.503 117.484 129.591 117.609 129.574C117.734 129.557 117.822 129.44 117.805 129.315C117.788 129.191 117.671 129.102 117.546 129.119C117.422 129.137 117.333 129.253 117.35 129.378ZM76.0265 135.147C76.035 135.209 75.9909 135.267 75.9284 135.276C75.866 135.284 75.8079 135.24 75.7993 135.178C75.7908 135.115 75.8349 135.057 75.8974 135.049C75.9598 135.04 76.0179 135.084 76.0265 135.147ZM72.1914 136.713C72.2857 136.827 72.4139 136.914 72.4764 136.905C72.5388 136.897 72.5128 136.796 72.4185 136.682C72.3242 136.567 72.196 136.481 72.1335 136.489C72.071 136.498 72.097 136.598 72.1914 136.713ZM146.11 126.484C146.118 126.547 146.074 126.605 146.012 126.613C145.949 126.622 145.891 126.578 145.883 126.515C145.874 126.453 145.918 126.395 145.981 126.386C146.043 126.378 146.101 126.422 146.11 126.484ZM76.4864 136.53C76.4039 136.764 76.3998 137.077 76.477 137.226C76.7079 137.669 76.394 137.565 76.0441 137.082C75.7908 136.733 75.7811 136.582 76.0001 136.397C76.4501 136.017 76.6482 136.072 76.4864 136.53ZM146.172 126.939C146.181 127.001 146.136 127.059 146.074 127.068C146.012 127.076 145.953 127.032 145.945 126.97C145.936 126.907 145.98 126.849 146.043 126.841C146.105 126.832 146.163 126.876 146.172 126.939ZM146.492 127.589C146.501 127.651 146.457 127.71 146.394 127.718C146.332 127.727 146.274 127.683 146.265 127.62C146.257 127.558 146.301 127.499 146.363 127.491C146.426 127.482 146.484 127.527 146.492 127.589ZM74.6133 138.348C74.6219 138.411 74.68 138.455 74.7424 138.446C74.8049 138.438 74.849 138.38 74.8405 138.317C74.8319 138.255 74.7738 138.211 74.7114 138.219C74.6489 138.228 74.6048 138.286 74.6133 138.348ZM86.7605 137.496C86.7776 137.621 86.6321 137.745 86.4375 137.772C86.2428 137.798 86.1325 137.709 86.1926 137.574C86.2528 137.438 86.398 137.314 86.5157 137.298C86.6333 137.282 86.7434 137.371 86.7605 137.496ZM77.8147 139.761C77.8233 139.824 77.8814 139.868 77.9438 139.859C78.0063 139.851 78.0504 139.793 78.0419 139.73C78.0333 139.668 77.9752 139.624 77.9128 139.632C77.8503 139.641 77.8062 139.699 77.8147 139.761ZM77.1644 140.082C77.1729 140.144 77.231 140.188 77.2935 140.18C77.356 140.171 77.4001 140.113 77.3915 140.051C77.383 139.988 77.3249 139.944 77.2624 139.953C77.2 139.961 77.1558 140.019 77.1644 140.082ZM83.9392 139.425C83.8672 139.519 83.7898 139.461 83.767 139.294C83.7442 139.128 83.803 139.05 83.8978 139.122C83.9923 139.194 84.0109 139.33 83.9392 139.425ZM88.1 138.831C88.1266 139.025 88.242 139.108 88.3564 139.013C88.4708 138.919 88.5512 138.746 88.5351 138.628C88.519 138.51 88.4036 138.428 88.2787 138.445C88.1538 138.463 88.0734 138.636 88.1 138.831ZM96.2908 137.812C96.3135 137.979 96.391 138.037 96.463 137.943C96.5347 137.848 96.5161 137.712 96.4215 137.64C96.3268 137.568 96.268 137.646 96.2908 137.812ZM77.6775 140.45C77.6842 140.499 77.8511 140.577 78.0483 140.623C78.2455 140.669 78.3933 140.608 78.3768 140.487C78.3603 140.366 78.1934 140.288 78.006 140.314C77.8186 140.339 77.6708 140.4 77.6775 140.45ZM85.9646 139.572C85.9869 139.735 86.1344 139.798 86.2924 139.712C86.4501 139.625 86.5752 139.525 86.5704 139.489C86.5655 139.453 86.418 139.391 86.2428 139.349C86.0673 139.308 85.9422 139.408 85.9646 139.572ZM81.9123 140.396C82.0071 140.468 82.1433 140.449 82.2153 140.355C82.287 140.26 82.2096 140.201 82.0431 140.224C81.8766 140.247 81.8178 140.324 81.9123 140.396ZM82.544 140.503C82.5725 140.711 82.7007 140.829 82.8288 140.766C82.9569 140.703 83.0486 140.555 83.0323 140.436C83.0161 140.317 82.8879 140.199 82.7475 140.172C82.6072 140.146 82.5155 140.294 82.544 140.503ZM84.1166 140.158C84.1327 140.276 84.2567 140.421 84.3922 140.481C84.5277 140.541 84.6167 140.431 84.5901 140.236C84.5634 140.042 84.4394 139.896 84.3145 139.913C84.1896 139.93 84.1005 140.041 84.1166 140.158ZM78.6826 141.031C78.6912 141.093 78.7492 141.138 78.8117 141.129C78.8742 141.12 78.9183 141.062 78.9097 141C78.9012 140.937 78.8431 140.893 78.7806 140.902C78.7182 140.91 78.6741 140.968 78.6826 141.031ZM80.0921 141.185C79.8266 141.413 79.8392 141.445 80.1794 141.401C80.3982 141.373 80.5634 141.248 80.5463 141.123C80.5084 140.846 80.4828 140.849 80.0921 141.185ZM99.6572 138.74C99.6743 138.865 99.7966 138.952 99.9288 138.934C100.061 138.916 100.092 138.808 99.9979 138.693C99.9036 138.579 99.7814 138.492 99.7263 138.499C99.6711 138.507 99.6401 138.615 99.6572 138.74ZM100.808 138.698C100.817 138.761 100.875 138.805 100.938 138.796C101 138.788 101.044 138.73 101.036 138.667C101.027 138.605 100.969 138.56 100.906 138.569C100.844 138.578 100.8 138.636 100.808 138.698ZM147.291 135.116C147.299 135.178 147.255 135.236 147.193 135.245C147.13 135.253 147.072 135.209 147.064 135.147C147.055 135.084 147.099 135.026 147.162 135.018C147.224 135.009 147.282 135.053 147.291 135.116ZM111.22 142.634C111.148 142.729 111.011 142.748 110.917 142.676C110.822 142.604 110.881 142.526 111.047 142.504C111.214 142.481 111.291 142.54 111.22 142.634ZM153.208 137.777C153.217 137.839 153.275 137.884 153.337 137.875C153.4 137.866 153.444 137.808 153.435 137.746C153.427 137.683 153.369 137.639 153.306 137.648C153.244 137.656 153.2 137.715 153.208 137.777ZM153.911 139.532C153.92 139.594 153.978 139.639 154.04 139.63C154.103 139.621 154.147 139.563 154.138 139.501C154.13 139.438 154.072 139.394 154.009 139.403C153.947 139.411 153.903 139.469 153.911 139.532ZM116.815 145.764C116.824 145.826 116.882 145.87 116.945 145.862C117.007 145.853 117.051 145.795 117.043 145.733C117.034 145.67 116.976 145.626 116.914 145.635C116.851 145.643 116.807 145.701 116.815 145.764ZM117.559 146.125C117.568 146.187 117.626 146.232 117.688 146.223C117.751 146.214 117.795 146.156 117.786 146.094C117.778 146.031 117.72 145.987 117.657 145.996C117.595 146.004 117.55 146.062 117.559 146.125ZM120.048 147.404C120.057 147.467 120.115 147.511 120.177 147.502C120.24 147.494 120.284 147.436 120.275 147.373C120.267 147.311 120.208 147.267 120.146 147.275C120.084 147.284 120.039 147.342 120.048 147.404ZM123.063 147.454C123.071 147.517 123.027 147.575 122.965 147.584C122.902 147.592 122.844 147.548 122.836 147.486C122.827 147.423 122.871 147.365 122.934 147.356C122.996 147.348 123.054 147.392 123.063 147.454ZM124.612 148.631C124.621 148.693 124.577 148.751 124.514 148.76C124.452 148.769 124.394 148.724 124.385 148.662C124.377 148.599 124.421 148.541 124.483 148.533C124.546 148.524 124.604 148.568 124.612 148.631ZM127.06 151.304C127.069 151.366 127.127 151.411 127.19 151.402C127.252 151.394 127.296 151.335 127.288 151.273C127.279 151.21 127.221 151.166 127.158 151.175C127.096 151.183 127.052 151.242 127.06 151.304ZM129.332 150.993C129.34 151.056 129.296 151.114 129.234 151.122C129.171 151.131 129.113 151.087 129.105 151.024C129.096 150.962 129.14 150.904 129.203 150.895C129.265 150.887 129.323 150.931 129.332 150.993ZM131.584 153.925C131.593 153.987 131.651 154.031 131.713 154.023C131.776 154.014 131.82 153.956 131.811 153.894C131.803 153.831 131.745 153.787 131.682 153.796C131.62 153.804 131.575 153.862 131.584 153.925Z" fill="#43AFDE"/>
</svg>
