<svg width="94" height="98" viewBox="0 0 94 98" fill="none" xmlns="http://www.w3.org/2000/svg">
<path fill-rule="evenodd" clip-rule="evenodd" d="M52.8969 0.309054C53.7885 0.669857 56.0795 6.07376 56.4947 8.79633C56.5823 9.3673 57.0001 10.8558 57.4235 12.1041C57.8469 13.3529 58.8927 17.2368 59.7471 20.7354C61.2687 26.9642 61.5695 28.326 62.2173 31.9264C62.5201 33.6068 63.3673 34.9258 64.2543 35.0983C64.4742 35.1411 67.1733 36.365 70.2521 37.8179C73.3309 39.2707 79.3994 42.1063 83.7377 44.119C88.076 46.1321 91.909 48.0542 92.2556 48.3911C92.6021 48.7275 93.0306 50.0602 93.2077 51.3528L93.5298 53.7024L90.2877 55.2397C88.5045 56.085 86.015 57.0453 84.7555 57.3735C81.7668 58.1521 73.4296 62.2207 72.3279 63.4375C71.6027 64.2395 71.477 65.4857 71.5213 71.4408C71.5503 75.3206 71.6892 80.3265 71.8302 82.5657C72.3391 90.6647 72.3564 92.26 71.9508 93.7613C71.475 95.5236 69.8145 97.0691 68.3977 97.0691C67.2537 97.0691 58.4947 91.2988 51.932 86.2215C45.0615 80.9062 44.03 80.6522 37.6831 82.7132C36.2836 83.1677 34.9468 83.4852 34.7127 83.4196C34.2318 83.2842 24.6275 86.1803 22.6708 87.051C21.9711 87.362 20.8261 87.6576 20.1264 87.7075C19.4266 87.7574 17.5208 88.1029 15.8919 88.4754C13.0166 89.1319 12.8589 89.112 10.5485 87.795C8.30276 86.5157 8.17557 86.3284 8.31297 84.502C8.51042 81.8675 12.4864 62.5505 13.1861 60.8233C13.495 60.0605 14.3845 59.1725 15.1626 58.8503C16.7906 58.1761 17.417 56.425 16.586 54.8718C16.128 54.0164 15.8186 53.9044 15.0497 54.3156C13.2762 55.2647 12.12 54.8866 10.8895 52.9553C8.71295 49.5397 8.47122 48.961 6.3868 42.1714C5.24841 38.4647 3.4149 33.3386 2.31213 30.7804C-0.0201187 25.3714 0.0963821 24.974 4.42603 23.5577C8.35416 22.2733 16.3717 22.5527 20.4958 24.119C23.3181 25.1907 30.5983 24.889 32.5347 23.6203C33.7189 22.8443 35.7427 20.4494 38.7009 16.3228C40.0479 14.4435 40.5329 12.7067 39.795 12.4044C39.4734 12.2726 39.8321 12.1463 40.5934 12.1245C41.6672 12.0934 41.9038 11.895 41.6519 11.2375C41.4601 10.7377 41.5339 10.5184 41.8321 10.7026C42.2346 10.9515 45.1877 6.30378 48.067 0.888669C48.5159 0.0444186 51.3911 -0.301107 52.8969 0.309054ZM38.9553 14.0577C38.9553 14.303 38.5742 14.8185 38.1086 15.2027C37.3412 15.8358 37.3187 15.7941 37.8719 14.7559C38.5029 13.5718 38.9553 13.2802 38.9553 14.0577Z" fill="#FD73C5"/>
<path fill-rule="evenodd" clip-rule="evenodd" d="M53.0971 0.300989C53.9887 0.661793 56.2797 6.0657 56.695 8.78826C56.7825 9.35924 57.2003 10.8477 57.6237 12.096C58.9581 16.0288 61.8837 28.3531 62.3997 32.2125C62.7188 34.6007 61.7412 35.9941 59.7473 35.9941C58.2354 35.9941 57.7311 35.0771 56.9403 30.893C56.5978 29.0803 56.0055 26.8758 55.6243 25.9939C55.2432 25.1119 54.9312 24.0646 54.9312 23.6672C54.9312 23.2698 53.9378 19.8693 52.7231 16.1107C51.256 11.5693 50.2499 9.22541 49.7242 9.12312C48.9848 8.97911 45.7712 13.0344 45.7712 14.1118C45.7712 14.3642 45.4536 14.753 45.0658 14.9769C44.2638 15.44 40.6822 22.2616 40.6822 23.3267C40.6822 24.4168 37.1297 29.3067 36.1002 29.6334C35.5933 29.7942 35.0499 30.2609 34.8931 30.6701C34.5435 31.5805 26.876 31.7056 22.1077 30.8787C20.4284 30.5871 17.228 30.3479 14.9955 30.3469C11.7712 30.3449 10.8073 30.5214 10.3081 31.2039C9.64956 32.1041 10.1355 33.6318 11.4266 34.7218C12.0266 35.2282 13.3797 40.0041 14.0219 43.8819C14.2077 45.0014 14.7858 47.0136 15.3074 48.3535C16.5481 51.5417 16.5354 53.6195 15.2713 54.2964C13.4764 55.2566 12.3248 54.8851 11.0897 52.9473C8.9132 49.5316 8.67146 48.953 6.58705 42.1634C5.44866 38.4566 3.61514 33.3305 2.51238 30.7724C0.18013 25.3633 0.29663 24.9659 4.62628 23.5497C8.5544 22.2652 16.572 22.5446 20.696 24.111C23.7433 25.2682 30.9894 24.8789 32.9333 23.4535C35.6259 21.4795 42.4328 11.7078 46.8851 3.42506C48.5039 0.413951 48.8189 0.108118 50.398 0.0134642C51.3517 -0.0435316 52.5664 0.085728 53.0971 0.300989ZM68.9257 37.0037C71.4447 38.2724 77.6969 41.2458 82.8194 43.6117C87.9419 45.9775 92.35 48.1739 92.6151 48.4929C92.8797 48.8125 93.2328 50.0807 93.3987 51.3122C93.6847 53.4312 93.6125 53.6027 92.0451 54.5187C91.1347 55.051 87.918 56.3421 84.8972 57.3878C79.4343 59.2789 73.4559 62.2559 72.2834 63.6686C71.6462 64.436 71.5134 74.3416 72.0304 82.5576C72.5393 90.6566 72.5566 92.252 72.1511 93.7532C71.6752 95.5155 70.0147 97.061 68.5979 97.061C67.454 97.061 58.695 91.2907 52.1323 86.2135C45.2618 80.8981 44.2302 80.6442 37.8833 82.7052C36.4839 83.1596 35.147 83.4772 34.9129 83.4115C34.432 83.2761 24.8277 86.1723 22.8711 87.043C22.1713 87.3539 21.0263 87.6496 20.3266 87.6994C19.6269 87.7493 17.7211 88.0948 16.0921 88.4673C13.2169 89.1238 13.0591 89.104 10.7487 87.787C8.50301 86.5076 8.37582 86.3203 8.51322 84.4939C8.70965 81.8782 12.6841 62.5495 13.3782 60.8341C14.0184 59.2519 16.1354 58.0616 16.9181 58.8443C17.4183 59.3445 17.5455 68.9346 17.143 75.8148C17.0326 77.7038 17.1048 79.2498 17.3038 79.2498C17.9404 79.2498 23.04 77.6738 25.7097 76.6519C27.1315 76.1079 29.536 75.4535 31.053 75.1975C32.5705 74.9415 34.9572 74.3721 36.3567 73.9319C37.7561 73.4917 40.9621 72.9909 43.4811 72.8189L48.0612 72.507L52.085 76.2601C54.2981 78.3241 56.5021 80.4426 56.983 80.9673C58.3708 82.4818 59.1046 83.1784 61.5814 85.3305L63.9055 87.3508L63.876 75.5395C63.8597 69.0435 64.0103 63.1561 64.2108 62.4564C64.9462 59.8885 69.3028 56.0871 72.3994 55.3116C78.8796 53.6892 83.4815 52.3961 83.7573 52.1198C84.283 51.5941 82.8612 50.2115 80.591 49.041C73.1154 45.1857 65.0306 39.7848 64.0815 38.0113C63.4907 36.9075 63.4236 35.1071 63.964 34.8669C64.1737 34.7737 66.4067 35.7351 68.9257 37.0037Z" fill="#16E912"/>
</svg>