<svg viewBox="0 0 488.95 421.35" xmlns="http://www.w3.org/2000/svg"><g fill="#3a92e9"><path d="m270.56 184.76-2.5 1.23a3.53 3.53 0 0 0 -1.87 3v7.34a1.26 1.26 0 0 0 1.92 1.25l2.45-1.2a3.48 3.48 0 0 0 1.89-3v-7.34a1.3 1.3 0 0 0 -1.92-1.3zm-11.19 5.69-2.47 1.18a3.56 3.56 0 0 0 -1.9 3v7.37a1.28 1.28 0 0 0 1.92 1.3l2.45-1.23a3.45 3.45 0 0 0 1.92-3v-7.34a1.28 1.28 0 0 0 -1.95-1.25zm-16.69 8.39-2.49 1.23a3.51 3.51 0 0 0 -1.9 3v7.34a1.27 1.27 0 0 0 1.92 1.28l2.47-1.23a3.51 3.51 0 0 0 1.88-2.95v-7.34c0-1.18-.87-1.76-1.9-1.31zm-11.21 5.69-2.45 1.2a3.51 3.51 0 0 0 -1.92 3v7.36a1.29 1.29 0 0 0 2 1.28l2.45-1.2a3.56 3.56 0 0 0 1.9-3v-7.34a1.28 1.28 0 0 0 -1.95-1.28zm-16.19 7.33-2.5 1.23a3.5 3.5 0 0 0 -1.9 3v7.34a1.27 1.27 0 0 0 1.93 1.25l2.47-1.18a3.51 3.51 0 0 0 1.89-3v-7.34c0-1.18-.87-1.76-1.92-1.3zm-11.19 5.69-2.47 1.2a3.53 3.53 0 0 0 -1.93 3v7.34a1.29 1.29 0 0 0 1.95 1.28l2.45-1.2a3.5 3.5 0 0 0 1.9-3v-7.31a1.27 1.27 0 0 0 -1.92-1.28zm-17.47 7.78-2.5 1.22a3.51 3.51 0 0 0 -1.9 3v7.34a1.25 1.25 0 0 0 1.92 1.25l2.48-1.2a3.52 3.52 0 0 0 1.89-3v-7.34a1.29 1.29 0 0 0 -1.92-1.3zm-11.19 5.67-2.43 1.19a3.54 3.54 0 0 0 -1.9 3v7.37a1.28 1.28 0 0 0 1.93 1.28l2.45-1.21a3.44 3.44 0 0 0 1.89-3v-7.36a1.27 1.27 0 0 0 -1.92-1.26zm16.92 19.45c-28.8 11.8-73.38 30.59-93.8 30.4a38.43 38.43 0 0 1 -8.92-1c-.45 5.63 2.66 7.77 5.49 8.24 52.66 8.78 150.23-31.68 209.34-67.35 36-21.71 48.21-44.22 49.53-59-17.67 25.33-45.37 41.08-161.64 88.72zm26.65-100.87a7.19 7.19 0 0 1 -2.62 1.53c-5.1 1.7-11.1-2.5-13.39-9.39a21.64 21.64 0 0 1 -.68-2.84v.12c-17.28 9.85-25 10.55-28.44 9.47-2.15 7-11.22 21.3-20.71 28 15.21-1.18 62.74-21.3 65.84-26.81zm-3-4.23c3-1 10.47-9 9.1-13.13s-11-2.65-14-1.65-3.92 4.91-2.55 9 4.47 6.76 7.49 5.76zm75 22.48c10-3.34 24.4-7.65 28.74-8.15a127.54 127.54 0 0 0 -13.53-1.43c-10.84-.4-14.82 2.46-14.82 2.46s-2 7.66-.39 7.12zm68.36 25.62a15.36 15.36 0 0 1 -.48-1.95v.05a74 74 0 0 1 -11.37 5.45c-5.55 7-17.2 16.78-22.68 20.45 10.51-.83 43.38-14.71 45.53-18.54a4.9 4.9 0 0 1 -1.8 1c-3.52 1.2-7.66-1.7-9.26-6.47zm9.76 2.06c-2.07.7-4.22-1.18-5.19-4s-.3-5.57 1.79-6.24 8.77-1.66 9.69 1.15-4.19 8.37-6.29 9.07z"/><path d="m379 208.89c5.08-5 6.78-14.33 3.71-23.57-3.62-10.81-12.49-17.76-20.64-16.63a16.44 16.44 0 0 0 -.31-7c-.66-2.48-1.82-7.91-8.6-7.77s-31.26 1.05-32.18 1-16.32-3.28-27.59-.39c-3.23.84-16.57 7.45-32.89 16.12a3.23 3.23 0 0 0 -.76-.41s-11.17-3.24-28.74-8.45c5.79-7.19 7.52-19 3.6-30.83-5.42-16.3-19.58-26.23-31.62-22.2-9 3-14.25 13-14.09 24.64-8.64 4.08-17 8.52-19.33 10.24 0 0-126.92-43.9-127.94-44.41l-.45-.16c41.62-59.89 110.72-99.07 189-99.07 125.83 0 227.99 101.22 230.14 226.89-13.31-3.89-62.31-12.36-81.31-18z"/><path d="m482.62 245.15-23.55 8.67a226.85 226.85 0 0 1 -8.7 43.38 303.13 303.13 0 0 1 -12.61 32.53c-140.51-40.73-254.27-3.73-335.64 91.62-43.87-28.81-102.12-93.46-102.12-190.43v-.79c0-2.13.05-4.31.11-6.44a230.34 230.34 0 0 1 25.32-98.34c-5.63-3.35-20.15-12.13-20.15-12.13s-8.16-4-4.08-7.71c3.22-3 15.08-11.05 23.52-8.46.36.11 3.18 1 8.38 2.61-6.1 1.92-13.1 6.18-15.2 8.14-4.11 3.74 3.63 8.42 3.63 8.42a61.75 61.75 0 0 0 6.33 3.89c27.07 14.89 128.28 73.55 154.58 88.6 0 0-50.14 31.54-54.29 33.59-14.53 7.34-16.74-4.53-17.27-4.76-.82-.21-8.27-24.14-10.33-24.74s-10.53 6-11.88 9.43c-.67 1.8-2.5 27-3.44 38.31-12-.45-23.55-.9-25.57-1a15.26 15.26 0 0 0 -7.76 1.79 15.64 15.64 0 0 0 -4.08 3.3c-1.35 1.5-.9 3.86 1.61 4.64 1.13.26 22.35 6 34.45 9.21-.1 1.84-.1 4.65-.1 4.65-.23 6.78 3.51 10.52 8.2 11.31 56.02 5.56 111.42-14.34 193.9-55.14 52.5 4.35 154.53 12 154.53 12s9.59-3.15 19.4-6.48c5.73-1.95 11.54-4 15.54-5.43a15.26 15.26 0 0 0 5.39-3c3.86 1.13 6.18 1.8 6.41 1.91 3.6 1.38 1.68 4.57-4.53 6.85z"/><path d="m412.66 75.36v-8h-3.09v-1.36h7.74v1.31h-3.12v8z"/><path d="m418.71 75.36v-9.36h2.38l1.82 5.67c0 .16.11.35.16.56s.11.4.16.59a4.8 4.8 0 0 1 .11.51h.11a4.27 4.27 0 0 1 .1-.49c0-.19.09-.39.14-.6s.1-.41.16-.59l1.82-5.65h2.33v9.35h-1.51v-5.12c0-.34 0-.7 0-1.07s0-.71 0-1 0-.48 0-.56h-.11c0 .1-.06.27-.13.51s-.14.5-.21.77-.14.51-.2.71l-1.84 5.77h-1.35l-1.89-5.75c-.06-.18-.12-.38-.18-.62s-.13-.47-.19-.72-.12-.47-.16-.67h-.11v.81s0 .63 0 1 0 .61 0 .86v5.13z"/></g></svg>