<?xml version="1.0" encoding="utf-8"?>
<!-- Generator: Adobe Illustrator 26.0.1, SVG Export Plug-In . SVG Version: 6.00 Build 0)  -->
<svg version="1.1" id="Layer_1" xmlns="http://www.w3.org/2000/svg" xmlns:xlink="http://www.w3.org/1999/xlink" x="0px" y="0px"
	 viewBox="0 0 677.72 223.33" style="enable-background:new 0 0 677.72 223.33;" xml:space="preserve">
<style type="text/css">
	.st0{fill:#182742;}
	.st1{fill:#00D4C1;}
</style>
<g id="Layer_1_00000000209962049627088370000014353278175960938904_">
	<path class="st0" d="M84.38,0.03H0v223.3h84.38c70.19,0,112.75-43.65,112.75-111.66S154.57,0.03,84.38,0.03z M81.48,172.8h-24V50.2
		h24c37.08,0,57.81,23.64,57.81,61.47c0,37.46-20.73,61.1-57.81,61.1L81.48,172.8z M398.79,76.03c0-48.74-33.12-76-81.12-76H217.26
		v223.3h57.85V149.5h20.37L342,223.33h64.74l-52.39-80C381.67,133.13,398.79,109.85,398.79,76.03z M311.48,102.95h-36.37V49.1h36.37
		c20.73,0,30.17,10.55,30.17,26.92S332.21,102.94,311.48,102.95L311.48,102.95z M560.13,0.03H504l58.8,222.9h56.09L560.13,0.03z
		 M404.46,0.03l58.79,222.9h56.09L460.55,0.03H404.46z"/>
	<polygon class="st1" points="677.72,0 610.46,0 644.09,127.5 	"/>
</g>
</svg>
