<?xml version="1.0" encoding="UTF-8" standalone="no"?>
<!-- Created with Inkscape (http://www.inkscape.org/) -->

<svg
   version="1.1"
   id="svg2"
   xmlSpace="preserve"
   width="2580.7068"
   height="2008.7867"
   viewBox="0 0 2580.7068 2008.7867"
   sodipodiDocname="HRT - for light bgs.eps"
   xmlnsInkscape="http://www.inkscape.org/namespaces/inkscape"
   xmlnsSodipodi="http://sodipodi.sourceforge.net/DTD/sodipodi-0.dtd"
   xmlns="http://www.w3.org/2000/svg"
   xmlnsSvg="http://www.w3.org/2000/svg"><defs
     id="defs6" /><sodipodiNamedview
     id="namedview4"
     pagecolor="#ffffff"
     bordercolor="#666666"
     borderopacity="1.0"
     inkscapePageshadow="2"
     inkscapePageopacity="0.0"
     inkscapePagecheckerboard="0" /><g
     id="g8"
     inkscapeGroupmode="layer"
     inkscapeLabel="ink_ext_XXXXXX"
     transform="matrix(1.3333333,0,0,-1.3333333,0,2008.7867)"><g
       id="g10"
       transform="scale(0.1)"><path
         d="M 19032.7,15065.9 H 3574.18 c -171.11,0 -335.22,-68 -456.22,-189 L 188.969,11947.5 C 67.9727,11826.5 0,11662.4 0,11491.3 V 4096.5 C 0,3918.3 144.434,3773.9 322.594,3773.9 H 15781.1 c 171.1,0 335.2,68 456.2,189 l 2929,2929.36 c 121,120.99 189,285.13 189,456.24 v 7394.8 c 0,178.2 -144.5,322.6 -322.6,322.6"
         style="fill:#f46e16;fill-opacity:1;fill-rule:evenodd;stroke:none"
         id="path12" /><path
         d="m 16419.7,11839.6 h -3604.9 c -62.4,0 -112.9,-50.5 -112.9,-112.9 v -984 c 0,-62.4 50.5,-112.9 112.9,-112.9 h 1080.7 c 62.3,0 112.9,-50.6 112.9,-113 V 7113.09 c 0,-62.37 50.5,-112.92 112.9,-112.92 h 983.9 c 62.3,0 112.9,50.55 112.9,112.92 v 3403.71 c 0,62.4 50.5,113 112.9,113 h 1088.7 c 62.4,0 112.9,50.5 112.9,112.9 v 984 c 0,62.4 -50.5,112.9 -112.9,112.9 z M 10887.3,9516.68 H 9274.4 v 1209.82 h 1612.9 z m 621.9,-1126.39 -6.9,13.84 c -18.5,18.35 -11.6,32.19 20.7,41.45 l 20.7,6.92 c 161.3,50.63 293.7,146.21 397.4,286.79 103.7,140.48 155.5,298.22 155.5,473.36 v 1817.45 c 0,110.5 -21.9,215.3 -65.7,314.4 -43.8,99 -101.4,184.2 -172.7,255.7 -71.5,71.3 -156.7,128.9 -255.7,172.8 -99.2,43.7 -203.9,65.6 -314.5,65.6 H 8196.59 c -87.56,0 -131.29,-43.9 -131.29,-131.3 V 7132.61 c 0,-87.56 43.73,-131.3 131.29,-131.3 h 945.64 c 87.47,0 131.3,43.74 131.3,131.3 v 1245.01 c 0,23 11.45,34.56 34.55,34.56 h 798.22 c 23,0 39.1,-9.3 48.4,-27.64 l 732.5,-1272.66 c 18.4,-32.27 46,-58.73 82.9,-79.46 36.9,-20.72 73.7,-31.11 110.6,-31.11 h 1098.8 c 36.9,0 62.2,10.39 76,31.11 13.9,20.73 11.5,47.19 -6.9,79.46 z M 7145.33,11839.6 h -983.9 c -62.36,0 -112.91,-50.5 -112.91,-112.9 v -1589 c 0,-62.3 -50.54,-112.9 -112.91,-112.9 H 4548.49 c -62.36,0 -112.9,50.6 -112.9,112.9 v 1589 c 0,62.4 -50.56,112.9 -112.91,112.9 h -983.89 c -62.35,0 -112.91,-50.5 -112.91,-112.9 V 7113.09 c 0,-62.37 50.56,-112.92 112.91,-112.92 h 983.89 c 62.35,0 112.91,50.55 112.91,112.92 v 1588.96 c 0,62.37 50.54,112.9 112.9,112.9 h 1387.12 c 62.37,0 112.91,-50.53 112.91,-112.9 V 7113.09 c 0,-62.37 50.55,-112.92 112.91,-112.92 h 983.9 c 62.35,0 112.89,50.55 112.89,112.92 v 4613.61 c 0,62.4 -50.54,112.9 -112.89,112.9"
         style="fill:#ffffff;fill-opacity:1;fill-rule:evenodd;stroke:none"
         id="path14" /><path
         d="m 10211.3,1292.1 c 13,54.7 41.5,106.6 77.9,140.4 33.7,33.8 90.9,70.2 179.2,70.2 83.1,0 137.7,-31.2 171.4,-62.4 39,-36.4 67.6,-88.4 78,-148.2 z m 262.3,429 c -155.8,0 -275.3,-57.2 -366.2,-148.2 -114.33,-117 -174.08,-280.8 -174.08,-449.7 0,-163.802 57.15,-314.598 161.08,-418.598 103.9,-104.004 223.4,-140.403 368.8,-140.403 116.9,0 233.8,26 322.1,83.199 70.1,44.2 137.7,117 184.4,200.204 l -213,119.597 c -23.4,-41.601 -57.1,-85.801 -101.3,-119.597 -52,-39 -103.9,-54.602 -174,-54.602 -62.4,0 -135.1,10.398 -194.8,70.199 -54.6,54.602 -88.3,142.901 -93.5,220.901 h 784.4 v 31.2 c 0,114.4 -13,317.2 -153.3,462.8 -64.9,67.6 -176.6,143 -350.6,143 z m 7189,0 c -62.3,0 -187,-7.8 -296.1,-130 v 101.4 H 17112 V 598 h 254.5 v 525.2 c 0,353.5 116.9,369.1 231.2,369.1 96.1,0 200,-7.8 200,-285.9 V 598 h 254.5 v 670.7 c 0,169 -25.9,244.4 -67.5,304.2 -33.8,46.8 -119.5,148.2 -322.1,148.2 z m -8014.19,-28.6 -280.53,-623.9 -280.52,623.9 H 8801.63 L 9367.88,520 9934.12,1692.5 Z m 1886.19,-7.8 c -36.4,-20.8 -77.9,-57.2 -106.5,-91 v 98.8 h -254.6 V 598 h 254.6 v 566.8 c 0,72.7 0,176.7 70.1,252.1 49.4,52 103.9,59.8 158.5,59.8 25.9,0 72.7,-2.6 129.9,-39 l 103.9,231.4 c -70.2,41.6 -137.7,52 -200,52 -57.2,0 -106.6,-7.8 -155.9,-36.4 z M 16598.2,598 h 254.5 v 1094.5 h -254.5 z m -2113.7,195 c -184.5,0 -303.9,158.598 -303.9,348.3 0,195 119.4,351 303.9,351 161,0 309,-114.4 309,-353.5 0,-228.8 -148,-345.8 -309,-345.8 z m 293.5,772.1 c -104,135.2 -244.2,156 -324.7,156 -288.4,0 -532.5,-218.4 -532.5,-574.5 0,-301.6 192.2,-582.401 529.9,-582.401 77.9,0 215.6,18.199 327.3,148.199 V 598 h 254.5 V 1692.5 H 14778 Z m -6231.75,596.8 c -93.49,0 -163.62,-70.2 -163.62,-163.8 0,-93.6 70.13,-163.8 163.62,-163.8 93.53,0 163.66,70.2 163.66,163.8 0,93.6 -70.13,163.8 -163.66,163.8 z m 8179.15,0 c -93.5,0 -163.6,-70.2 -163.6,-163.8 0,-93.6 70.1,-163.8 163.6,-163.8 93.5,0 163.7,70.2 163.7,163.8 0,93.6 -70.2,163.8 -163.7,163.8 z m -3004.1,-440.8 c -57.1,0 -106.5,-7.8 -155.8,-36.4 -36.4,-20.8 -77.9,-57.2 -106.5,-91 v 98.8 h -254.5 V 598 h 254.5 v 566.8 c 0,72.7 0,176.7 70.1,252.1 49.4,52 103.9,59.8 158.5,59.8 25.9,0 72.7,-2.6 129.8,-39 l 104,231.4 c -70.2,41.6 -137.7,52 -200.1,52 z m -927.4,418.9 h -254.5 v -447.5 h -190.3 v -234 h 190.3 V 598 h 254.5 v 860.5 h 194.9 v 234 h -194.9 z M 549.176,1721.1 c -64.942,0 -184.442,-10.4 -293.52,-122.2 v 537.9 H 1.10547 V 598 H 255.656 v 527.8 c 0,140.3 15.586,223.5 51.942,275.5 33.765,49.4 101.297,91 187.004,91 64.957,0 114.296,-26 142.871,-57.2 49.367,-54.6 49.367,-124.8 49.367,-189.8 V 598 h 254.551 v 670.7 c 0,78.1 -2.606,205.4 -70.137,304.2 -31.176,44.2 -122.074,148.2 -322.078,148.2 z M 8418.98,598 h 254.55 v 1094.5 h -254.55 z m 7373.22,195 c -184.4,0 -303.9,158.598 -303.9,348.3 0,195 119.5,351 303.9,351 161,0 309.1,-114.4 309.1,-353.5 0,-228.8 -148.1,-345.8 -309.1,-345.8 z m 293.5,772.1 c -103.9,135.2 -244.2,156 -324.7,156 -288.3,0 -532.5,-218.4 -532.5,-574.5 0,-301.6 192.3,-582.401 529.9,-582.401 78,0 215.6,18.199 327.3,148.199 V 598 h 254.6 v 1538.8 h -254.6 z m -11961.86,-325 -129.87,65 c -54.55,28.6 -70.13,33.8 -85.72,44.2 -23.37,15.6 -36.36,33.8 -36.36,62.4 0,23.4 10.39,44.2 23.37,57.2 15.59,15.6 41.56,28.6 77.94,28.6 80.51,0 129.87,-52 155.84,-93.6 l 189.6,124.8 c -38.95,70.2 -88.3,111.8 -124.68,135.2 -62.34,41.6 -124.65,57.2 -202.59,57.2 -135.07,0 -218.19,-52 -267.54,-104 -57.15,-59.8 -90.91,-145.6 -90.91,-234 0,-70.2 20.78,-130 77.93,-184.6 41.56,-41.6 101.31,-70.2 150.63,-93.5 l 93.53,-44.2 c 41.56,-18.3 77.91,-36.5 109.08,-67.601 23.4,-26 33.78,-52 33.78,-83.199 0,-31.199 -15.59,-65 -36.38,-85.801 -23.37,-23.398 -64.92,-36.398 -103.89,-36.398 -59.74,0 -96.12,26 -111.68,41.597 -23.38,20.801 -46.76,67.602 -59.74,104 l -207.82,-98.796 c 25.97,-78.004 77.96,-153.403 140.27,-200.204 77.94,-59.796 166.25,-70.199 236.38,-70.199 114.3,0 220.77,28.602 306.49,122.199 59.74,65 96.12,150.801 96.12,249.602 0,75.4 -20.79,143 -80.53,202.8 -41.56,44.2 -96.1,72.7 -153.25,101.3 z M 1881.23,1065.9 c 0,-64.9 -2.61,-140.302 -46.77,-197.502 C 1800.71,824.199 1740.97,793 1668.24,793 c -72.74,0 -132.48,31.199 -166.24,75.398 -44.15,57.2 -46.77,132.602 -46.77,197.502 v 626.6 H 1200.7 v -634.3 c 0,-140.399 15.59,-257.399 116.88,-358.802 98.71,-101.398 233.76,-135.199 345.47,-135.199 122.07,0 257.12,36.399 355.84,135.199 101.3,101.403 116.89,218.403 116.89,358.802 v 634.3 H 1881.23 Z M 2890.84,793 c -184.41,0 -303.9,158.598 -303.9,348.3 0,195 119.49,351 303.9,351 161.03,0 309.09,-114.4 309.09,-353.5 C 3199.93,910 3051.87,793 2890.84,793 Z m 293.51,772.1 c -103.9,135.2 -244.16,156 -324.67,156 -288.32,0 -532.5,-218.4 -532.5,-574.5 0,-301.6 192.24,-582.401 529.89,-582.401 77.93,0 215.6,18.199 327.28,148.199 V 598 h 254.54 v 1538.8 h -254.54 z m 4747.48,119.6 c -36.37,-20.8 -77.96,-57.2 -106.5,-91 v 98.8 H 7570.76 V 598 h 254.57 v 566.8 c 0,72.7 0,176.7 70.13,252.1 49.34,52 103.89,59.8 158.44,59.8 25.98,0 72.71,-2.6 129.86,-39 l 103.9,231.4 c -70.12,41.6 -137.65,52 -199.99,52 -57.16,0 -106.5,-7.8 -155.84,-36.4 z m -1531.77,36.4 c -62.35,0 -187.01,-7.8 -296.13,-130 v 101.4 H 5849.38 V 598 h 254.55 v 525.2 c 0,353.5 116.9,369.1 231.18,369.1 96.1,0 200,-7.8 200,-285.9 V 598 h 254.55 v 670.7 c 0,169 -25.97,244.4 -67.53,304.2 -33.77,46.8 -119.46,148.2 -322.07,148.2 z M 5074.09,793 c -200.01,0 -324.67,137.801 -324.67,348.3 0,249.6 163.64,351 324.67,351 161.05,0 324.69,-101.4 324.69,-351 0,-210.499 -124.69,-348.3 -324.69,-348.3 z m 0,928.1 c -329.86,0 -584.43,-239.2 -584.43,-577.2 0,-335.298 254.57,-579.701 584.43,-579.701 329.87,0 584.44,244.403 584.44,579.701 0,338 -254.57,577.2 -584.44,577.2 z M 19019.4,881.398 c -62.3,-65 -132.4,-88.398 -212.9,-88.398 -78,0 -148.1,31.199 -194.9,72.801 -67.5,59.797 -109,166.399 -109,275.499 0,117 46.7,218.4 111.6,278.2 57.2,54.6 122.1,72.8 192.3,72.8 72.7,0 142.8,-15.6 205.2,-78 64.9,-62.4 103.8,-153.4 103.8,-275.5 0,-83.2 -20.7,-176.8 -96.1,-257.402 z m 80.6,811.102 v -119.6 c -93.5,111.8 -215.6,148.2 -324.7,148.2 -132.5,0 -262.4,-39 -371.5,-150.8 -85.7,-85.8 -161,-223.5 -161,-423.7 0,-181.998 64.9,-330.202 163.6,-434.202 103.9,-109.199 220.8,-148.199 361.1,-148.199 72.7,0 215.6,7.801 332.5,156 v -143 c 0,-80.601 0,-195 -83.2,-275.601 -31.1,-31.2 -93.5,-72.797 -200,-72.797 -103.9,0 -166.2,41.597 -197.3,75.398 -39,41.602 -70.2,111.801 -80.6,171.602 h -246.7 c 18.1,-132.602 80.5,-260 161,-340.602 C 18557.1,31.1992 18684.4,0 18811.6,0 c 179.3,0 293.6,59.8008 363.7,117 150.6,127.398 179.2,312 179.2,569.398 V 1692.5 H 19100"
         style="fill:#1c1c28;fill-opacity:1;fill-rule:evenodd;stroke:none"
         id="path16" /></g></g></svg>
