<svg width="852" height="162" viewBox="0 0 852 162" fill="none" xmlns="http://www.w3.org/2000/svg">
<path fill-rule="evenodd" clip-rule="evenodd" d="M158.423 23.8362H179.093V52.2723C184.164 46.0111 192.224 44.1849 199.764 44.1849C219.785 44.4458 225.375 59.3161 225.115 76.9256V115.797H204.444V77.0561C204.444 67.7948 199.374 63.7511 193.914 63.6207C187.674 63.4902 180.133 68.8383 180.133 77.4474V115.797H158.423V23.8362ZM266.457 85.6652L271.657 67.7948L280.367 45.2285H301.558V48.4895C289.988 77.8387 278.417 107.058 266.977 136.407H245.786V133.276L254.886 110.058L231.485 48.4895V45.2285H252.806L261.517 67.7948L266.457 85.6652ZM347.45 116.971C340.56 116.971 333.929 114.623 329.249 109.275V136.407H308.968V45.2285H329.249V52.2723C334.059 46.272 340.95 44.3154 347.71 44.3154C370.071 44.3154 381.641 62.3162 381.511 81.752C381.251 101.057 370.201 116.971 347.45 116.971ZM345.24 64.012C336.399 64.012 329.249 71.5776 329.249 80.9693C329.249 90.3611 336.399 98.0571 345.24 98.0571C355.64 98.0571 360.84 89.7089 360.97 81.2302C361.1 72.7515 355.77 64.012 345.24 64.012ZM461.984 80.3171C461.984 83.1868 461.724 85.7956 461.204 88.4045H410.762C413.232 94.9265 419.603 98.1875 425.843 98.318C430.393 98.318 434.683 96.7527 437.673 93.4916H459.904C454.444 109.145 439.623 116.841 424.803 116.58C406.992 116.188 389.311 104.188 389.311 80.3171C389.311 56.0551 407.642 44.0545 425.973 44.1849C444.044 44.3154 461.984 56.316 461.984 80.3171ZM411.542 72.3602H439.623C437.673 65.3164 431.953 62.0554 425.323 62.0554C419.213 62.0554 413.622 65.4468 411.542 72.3602ZM492.145 76.6648V115.797H471.735V45.2285H490.195L490.975 49.9244C495.526 45.6198 500.596 43.7936 506.316 43.7936C508.786 43.7936 511.516 44.1849 514.246 44.8372L513.986 64.1424C511.906 63.4902 509.436 63.0989 507.096 63.0989C499.686 63.2293 492.145 67.1426 492.145 76.6648ZM565.988 115.928C561.958 116.58 558.188 116.971 554.808 116.971C539.077 117.101 529.587 109.797 529.587 91.4046V63.6207H520.357V46.0111H529.587V32.5757L549.998 30.7495V46.0111H564.688V63.6207H549.998V91.4046C549.998 97.6658 554.548 99.6224 559.488 99.6224C561.438 99.6224 563.518 99.3615 565.338 98.9702L565.988 115.928ZM595.499 76.6648V115.797H575.089V45.2285H593.549L594.329 49.9244C598.88 45.6198 603.95 43.7936 609.67 43.7936C612.14 43.7936 614.87 44.1849 617.6 44.8372L617.34 64.1424C615.26 63.4902 612.79 63.0989 610.45 63.0989C603.04 63.2293 595.499 67.1426 595.499 76.6648ZM658.422 44.0545C665.312 44.0545 672.072 46.6633 676.623 52.5332V45.2285H697.033V115.797H676.623V108.753C671.812 114.754 664.922 116.71 658.162 116.71C635.801 116.71 624.231 98.7093 624.361 79.2736C624.621 59.9683 635.671 44.0545 658.422 44.0545ZM660.632 97.0136C669.472 97.0136 676.623 89.448 676.623 80.0562C676.623 70.6645 669.472 62.9685 660.632 62.9685C650.232 62.9685 645.031 71.1862 644.901 79.7953C644.771 88.274 650.102 97.0136 660.632 97.0136ZM756.446 85.7956C751.115 103.275 725.894 100.405 725.894 80.4475C725.894 60.4901 751.245 57.7508 756.446 75.2299H776.726C771.006 31.7931 705.874 34.7932 705.874 80.4475C705.874 126.102 770.876 129.102 776.726 85.7956H756.446ZM807.798 73.0124L827.168 45.2285H849.529V46.272L825.738 80.3171L851.869 114.884V115.797H827.948L807.798 88.274V115.797H787.387V24.4884H807.798V73.0124Z" fill="black"/>
<path d="M68.721 55.4378C60.0405 55.4378 52.707 51.1666 52.707 46.1097C52.707 41.0528 60.0405 36.78 68.721 36.78C77.4 36.78 84.735 41.0528 84.735 46.1097C84.735 51.1666 77.4 55.4378 68.721 55.4378Z" fill="black"/>
<path d="M136.695 43.2576C136.636 43.1402 136.576 43.0258 136.51 42.9144C136.333 42.6149 136.128 42.338 135.906 42.0701C135.808 41.9542 135.724 41.8293 135.619 41.721C135.592 41.6894 135.571 41.6547 135.541 41.6261C135.226 41.3101 134.883 41.0377 134.517 40.7984C134.505 40.7908 134.498 40.7788 134.486 40.7713L72.1095 0.99031C71.094 0.343147 69.9225 0 68.7195 0C67.5165 0 66.3435 0.343147 65.328 0.9873L2.961 40.7713C2.9055 40.8059 2.868 40.8571 2.814 40.8932C2.4285 41.1536 2.064 41.4485 1.7415 41.7887C1.74 41.7887 1.74 41.7902 1.7385 41.7917C1.7325 41.7977 1.728 41.8052 1.722 41.8113C1.3755 42.18 1.0965 42.5924 0.8505 43.0228C0.8295 43.0604 0.8115 43.0996 0.7905 43.1387C0.2895 44.0598 0 45.0862 0 46.1593V115.841C0 118.028 1.0995 120.031 2.946 121.205L65.322 161.008C66.3375 161.658 67.512 162 68.7195 162C69.927 162 71.1015 161.657 72.12 161.008L134.497 121.202C136.341 120.032 137.442 118.028 137.442 115.841V46.1593C137.442 45.1509 137.161 44.1591 136.695 43.2576ZM70.8046 119.842C71.1298 119.721 71.4441 119.56 71.7405 119.361L95.8742 103.126C95.8644 100.931 96.2684 98.5491 97.131 96.1711C99.8142 88.7744 105.918 84.2129 110.764 85.9827C115.61 87.7525 117.364 95.1834 114.681 102.58C111.998 109.977 105.894 114.538 101.048 112.768C99.5379 112.217 98.3283 111.116 97.4595 109.639L75.0817 124.361C73.7693 125.244 72.3066 125.8 70.8046 126.028C68.3496 126.4 65.7895 125.895 63.6089 124.506L0.221467 84.8553V76.453L66.8236 119.423C68.0286 120.19 69.504 120.328 70.8046 119.842ZM68.7195 13.8463L119.31 46.1081L68.7195 78.4181L18.1275 46.1096L68.7195 13.8463Z" fill="black"/>
</svg>
