<?xml version="1.0" encoding="utf-8"?>
<!-- Generator: Adobe Illustrator 26.3.1, SVG Export Plug-In . SVG Version: 6.00 Build 0)  -->
<svg version="1.1" id="Calque_1" xmlns="http://www.w3.org/2000/svg" xmlns:xlink="http://www.w3.org/1999/xlink" x="0px" y="0px"
	 viewBox="0 0 295.8 67" style="enable-background:new 0 0 295.8 67;" xml:space="preserve">
<style type="text/css">
	.st0{fill:#43AAA6;}
	.st1{fill:#0D0B0C;}
	.st2{fill:#44B1A6;}
	.st3{fill:#0D0C0D;}
	.st4{fill:#CA0019;}
	.st5{fill:#45B3A8;}
</style>
<g>
	<g>
		<g>
			<g>
				<path id="Fill-3_00000082333183376179310540000016880596123703188355_" class="st3" d="M112.5,35c0-5.4-1.4-7-2.5-8.2
					c-1.8-1.9-4.8-3.1-7.9-3.1c-1.3,0-6.5,0.2-10.3,5.5v-4.5H79.7v1.5h5v28.2h-3.2h-1.7h-3.2V24.7H64.1v1.6h5.2v28.2H64V56h15.7h1.7
					H97v-1.6h-5.1V41.1c0.1-5.8,0.2-10.4,3.7-13.4c1.4-1.1,3.2-1.8,4.9-1.8c1.1,0,3.7,0.4,4.5,3.5c0.2,0.8,0.2,1.4,0.3,4.5v20.5
					h-4.8V56h17.1v-1.6h-5.1L112.5,35L112.5,35z"/>
				<path id="Fill-5_00000030470568993124722590000005890129221439276691_" class="st3" d="M154,41.9c-0.2,3.9-0.3,6.6-2.7,8.9
					c-0.7,0.6-2.1,1.7-4.2,1.7c-2.4,0-4.8-1.6-4.8-5.4c0-6.3,5.9-8,11.8-8.1V41.9z M162.8,53.8c-1.7,0-1.7-1.8-1.7-4.4V33.5
					c0-2.9,0-5.4-2.1-7.6c-1.9-1.8-5.5-3-9.1-3c-7.7,0-12.6,4.3-12.6,8.1c0,1.9,1.3,3.6,3.3,3.6s3.5-1.6,3.5-3.2
					c0-1.7-1.6-2.7-1.6-3.6c0-1.1,2.8-3.2,6.3-3.2c5.1,0,5.2,3.6,5.4,5.8v7.6c-2.8,0-7,0.3-10.3,1.3c-5.1,1.6-8.6,4.9-8.6,9.5
					c0,0.4,0,0.8,0.1,1.1c-0.3,1.4-1.1,3.9-4.5,3.9c-3.8,0-3.7-3.2-3.7-5.6V25.4h8.2v-1.6H127V11.1h-1.1c-0.4,1.6-0.9,3.9-3.9,7.5
					c-1.9,2.3-4.2,4.5-7,5.7v1.1h5v19.2c0,3.9,0,5.6,0.6,7c1.1,3,4.2,4.5,7.9,4.5c4.5,0,6.6-2,7.6-3.9c1.4,2.5,4.3,3.9,7.7,3.9
					c5.2,0,8.5-2.9,10.2-6.3c0.2,1.5,0.4,3.4,2.1,4.9c1.1,0.9,2.7,1.4,4.4,1.4c3.2,0,5-1.7,5.7-2.5l-0.9-1.1
					C164.7,52.9,163.8,53.8,162.8,53.8L162.8,53.8z"/>
				<path id="Fill-7_00000065786587650608617570000011942395153722568586_" class="st3" d="M181.5,54.3c-3.9,0-6-2.2-6.9-4.7
					c-0.8-2.1-0.8-5.1-0.8-7.6c0-3.4,0.1-10.4,1.3-13.4c1.5-3.7,4.7-4.2,6.9-4.2c4.1,0,6,1.9,6,2.6c0,0.3-0.2,0.5-0.4,0.8
					c-0.6,0.6-1.5,1.8-1.5,3.6c0,2,1.4,4,3.6,4c2.2,0,3.9-1.8,3.9-4.2c0-3.8-4.3-8.2-11.4-8.2c-9,0-16.6,7.1-16.6,16.9
					c0,9,6.8,16.3,15.7,16.3c8.2,0,12.2-5.7,13.3-11.1h-1.9C191.6,49.5,187.9,54.3,181.5,54.3"/>
				<path id="Fill-9_00000137107069947301795340000008464091419129708721_" class="st3" d="M214.2,49.2c-0.2,1.2-0.8,4.3-4.5,4.3
					s-3.7-3.2-3.7-5.6V25.4h8.2v-1.6H206V11.1h-1.1c-0.4,1.6-0.9,3.9-3.9,7.5c-1.9,2.3-4.2,4.5-7,5.7v1.1h5v19.2c0,3.9,0,5.6,0.6,7
					c1.1,3,4.2,4.5,7.9,4.5c7.1,0,8.2-5,8.5-6.8H214.2z"/>
				<path id="Fill-11_00000017475923272826011220000018148602917777328274_" class="st3" d="M71.3,11c2.9,0,5.2,2.3,5.2,5.2
					s-2.3,5.2-5.2,5.2s-5.2-2.3-5.2-5.2S68.5,11,71.3,11"/>
				<g>
					<path class="st5" d="M233.5,49.2c-0.2,1.2-0.7,4.3-4.5,4.3s-3.7-3.2-3.7-5.6V11.2h0V11h-12.5v1.6h5.4v31.9c0,3.9,0,5.6,0.6,7
						c1.1,3,4.2,4.5,7.9,4.5c4.6,0,6.6-2.1,7.6-4c1.3,2.4,4,4,7.6,4c4.3,0,8.1-2.3,10.4-6.3c1.8,3.7,5.6,6.4,10,6.4
						c4.6,0,8.4-2.5,10.3-6.3l0.1,0.1c2.2,4.3,5,6.2,9.1,6.2c7.5,0,13.9-7.8,13.9-17c0-9-6.2-16.3-13.5-16.3c-4.3,0-7.8,2.3-9.6,6.5
						l0,0.1v-18h0V11h-12.5v1.6h5.4v32l0,0V50c0,1.3-1.1,2.4-2.4,2.4H262c-1.3,0-2.4-1.1-2.4-2.4v-2.8c0-0.1,0-0.1,0-0.2
						s0-0.1,0-0.2v-7.8v-3.7c0-7.1-0.1-7.5-1.8-9.4c-1.9-2.1-5.5-3.4-9.4-3.4c-6.6,0-12.6,3.8-12.6,8.1c0,2.1,1.4,3.6,3.4,3.6
						c1.8,0,3.3-1.5,3.3-3.5c0-0.9-0.2-1.5-1.1-2.5c-0.3-0.4-0.4-0.6-0.4-0.9c0-1.6,3.2-3.4,6.1-3.4c1.8,0,3.5,0.6,4.3,1.6
						c0.9,1,1,1.9,1,6.5v5.6c-5.4,0.1-8.6,0.6-11.6,1.8c-4.7,1.9-7.3,5.1-7.3,9L233.5,49.2z M252.4,40.6c0,1.7-0.1,3-0.2,4.2
						c-0.1,1.1-0.3,2.1-0.6,2.8c-0.1,0.4-0.3,0.8-0.5,1.2c-1.3,2.3-3.3,3.6-5.7,3.6c-3,0-4.8-2-4.8-5.4c0-2.7,1.2-4.7,3.6-6.1
						c1.9-1.2,3.9-1.7,8.2-1.9V40.6z M286.8,49.4c-0.7,2.8-2.8,4.7-5.4,4.7c-3.5,0-6.3-2.8-7.7-7.2c-0.2-0.7-0.4-1.4-0.6-2.1
						c-0.4-1.7-0.6-3.6-0.6-5.7c0-8.5,3.6-14.6,8.7-14.6c2.4,0,4.2,1.4,5.2,3.8c0.6,1.5,0.8,4.2,0.8,11.9
						C287.2,45.7,287.1,48.1,286.8,49.4z"/>
				</g>
			</g>
		</g>
	</g>
	<g>
		<path class="st0" d="M33.8,41.8c0.3-1.8-0.8-3.5-2.6-3.8c-1.8-0.3-3.5,0.8-3.8,2.6c-0.3,1.8,0.8,3.5,2.6,3.8
			C31.8,44.8,33.5,43.6,33.8,41.8z"/>
		<path class="st1" d="M37,26c0.3-1.8-0.8-3.5-2.6-3.8c-1.8-0.3-3.5,0.8-3.8,2.6c-0.3,1.8,0.8,3.5,2.6,3.8C35,29,36.7,27.8,37,26z"
			/>
		<g>
			<path class="st2" d="M49.8,13.3L29.4,3.7c-0.5-0.2-0.7-0.8-0.5-1.3l0.8-1.8c0.2-0.5,0.8-0.7,1.3-0.5l20.5,9.6
				C52,9.9,52.3,10.5,52,11l-0.8,1.8C50.9,13.3,50.3,13.5,49.8,13.3z"/>
			<path class="st3" d="M45,6.6l-7.3-3.4l2.1-1.3c0.6-0.4,1.3-0.4,1.9-0.1l1.8,0.8c0.6,0.3,1,0.9,1.1,1.5L45,6.6z"/>
			<path class="st2" d="M24.8,49.9c1.6,1.7,3.4,3.3,5.4,4.6c2.3,1.2,4.5,2.1,6.8,2.3c1.2-1.3,2.3-2.9,3.1-4.6
				c1.2-2.6,1.8-5.4,1.8-8.3l0-2.5C38.5,45.2,33.3,49.3,24.8,49.9z"/>
			<path class="st4" d="M29.8,54.2c-1.9-1.2-3.6-2.7-5-4.3c-7-7.6-10.3-17.7-19.4-12.7c-1.6,4-1.7,8.2-0.6,12.1
				c0.9-0.4,2-0.6,3.3-0.4c5.5,0.7,9.1,9.2,19.7,6.1c0.6-0.2,1.1-0.4,1.8-0.6L29.8,54.2z"/>
			<path class="st1" d="M28.7,7.8c-1.1-0.5-2.3,0-2.8,1l0,0c-2,4.3-5.9,7.8-9.5,10.8L9,25.8c-2.9,2.2-5.3,5.2-6.9,8.5
				c-5.3,11.4-0.4,25,11,30.4l0.1,0.1l0.6,0.3l0,0C25.1,70,38.4,65,43.7,53.9c1.6-3.3,2.3-7.1,2.2-10.7l0-9.7
				c0-4.6,0.2-9.9,2.3-14.2l0,0c0.5-1.1,0-2.3-1-2.8L28.7,7.8z M41.9,33.4l0,7.9l0,2.5c0,2.9-0.6,5.7-1.8,8.3
				c-0.8,1.7-1.9,3.3-3.1,4.6c-2.3-0.2-4.5-1-6.8-2.3c-0.1-0.1-0.3-0.2-0.4-0.3c-0.1,0-0.2,0.1-0.3,0.1c-0.6,0.2-1.2,0.4-1.8,0.6
				C17.1,58.1,13.5,49.5,8,48.9c-1.3-0.2-2.4,0-3.3,0.4c-1.1-3.9-1-8.1,0.6-12.1c0.1-0.4,0.3-0.7,0.5-1.1c1.2-2.6,3-4.9,5.2-6.7
				l8-6.7c3.7-3.1,7.1-6.2,9.4-10c0.2-0.3,0.6-0.5,1-0.3l6.9,3.2l6.9,3.3c0.3,0.2,0.5,0.6,0.4,0.9C42.1,24,41.9,28.6,41.9,33.4z"/>
		</g>
		<path class="st4" d="M25,31.6c0.3-1.8-0.8-3.5-2.6-3.8c-1.8-0.3-3.5,0.8-3.8,2.6c-0.3,1.8,0.8,3.5,2.6,3.8
			C23,34.5,24.7,33.4,25,31.6z"/>
	</g>
</g>
</svg>
