<?xml version="1.0" encoding="UTF-8" standalone="no"?>
<!-- Created with Inkscape (http://www.inkscape.org/) -->

<svg
   version="1.1"
   id="svg2"
   xmlSpace="preserve"
   width="1610.2933"
   height="414.72"
   viewBox="0 0 1610.2933 414.72"
   sodipodiDocname="NEXT-logo.eps"
   xmlnsInkscape="http://www.inkscape.org/namespaces/inkscape"
   xmlnsSodipodi="http://sodipodi.sourceforge.net/DTD/sodipodi-0.dtd"
   xmlns="http://www.w3.org/2000/svg"
   xmlnsSvg="http://www.w3.org/2000/svg"><defs
     id="defs6" /><sodipodiNamedview
     id="namedview4"
     pagecolor="#ffffff"
     bordercolor="#666666"
     borderopacity="1.0"
     inkscapePageshadow="2"
     inkscapePageopacity="0.0"
     inkscapePagecheckerboard="0" /><g
     id="g8"
     inkscapeGroupmode="layer"
     inkscapeLabel="ink_ext_XXXXXX"
     transform="matrix(1.3333333,0,0,-1.3333333,0,414.72)"><g
       id="g10"
       transform="scale(0.1)"><path
         d="m 10122.1,0 h 1039.7 v 2230.6 h 915.4 v 879.8 H 9206.73 v -879.8 h 915.37 V 0 Z M 5980.82,0 H 7140.55 L 7638.22,808.699 8131.44,0 H 9313.39 L 8260.3,1595.19 9268.96,3110.4 H 8109.22 L 7655.99,2368.35 7207.21,3110.4 H 6025.25 L 7033.91,1581.86 5980.82,0 Z M 3354.78,0 H 6029.73 V 853.141 H 4376.77 v 337.699 h 1519.65 v 750.94 H 4376.77 v 315.49 H 6007.51 V 3110.4 H 3354.78 V 0 Z M 0,0 H 1030.88 V 1435.23 L 2186.17,0 H 3110.4 V 3110.4 H 2079.52 V 1737.38 L 973.109,3110.4 H 0 V 0 0"
         style="fill:#1e1d1c;fill-opacity:1;fill-rule:nonzero;stroke:none"
         id="path12" /></g></g></svg>
