<svg id="svg" version="1.1" xmlns="http://www.w3.org/2000/svg" xmlns:xlink="http://www.w3.org/1999/xlink" width="400" height="155.26315789473685" viewBox="0, 0, 400,155.26315789473685"><g id="svgg"><path id="path0" d="M112.333 38.431 C 112.333 38.613,112.047 38.667,111.073 38.667 C 110.374 38.667,109.855 38.733,109.906 38.816 C 110.034 39.024,109.592 39.167,108.820 39.167 C 108.350 39.167,108.167 39.237,108.167 39.417 C 108.167 39.603,107.970 39.667,107.399 39.667 C 106.785 39.667,106.650 39.717,106.727 39.917 C 106.784 40.066,106.724 40.175,106.578 40.188 C 106.443 40.199,106.258 40.227,106.167 40.250 C 106.075 40.273,105.887 40.301,105.750 40.313 C 105.612 40.324,105.519 40.427,105.542 40.542 C 105.567 40.666,105.366 40.771,105.042 40.802 C 104.706 40.835,104.500 40.946,104.500 41.094 C 104.500 41.239,104.334 41.333,104.078 41.333 C 103.846 41.333,103.616 41.438,103.567 41.567 C 103.517 41.695,103.325 41.840,103.138 41.889 C 102.952 41.938,102.849 42.058,102.910 42.155 C 102.975 42.261,102.872 42.333,102.659 42.333 C 102.406 42.333,102.327 42.409,102.394 42.583 C 102.454 42.740,102.392 42.833,102.229 42.833 C 102.086 42.833,101.931 42.978,101.885 43.155 C 101.835 43.346,101.706 43.441,101.567 43.387 C 101.412 43.328,101.333 43.416,101.333 43.649 C 101.333 43.850,101.226 44.000,101.083 44.000 C 100.946 44.000,100.833 44.112,100.833 44.250 C 100.833 44.387,100.721 44.500,100.583 44.500 C 100.446 44.500,100.333 44.612,100.333 44.750 C 100.333 44.889,100.185 45.000,100.000 45.000 C 99.815 45.000,99.667 45.111,99.667 45.250 C 99.667 45.387,99.554 45.500,99.417 45.500 C 99.279 45.500,99.167 45.612,99.167 45.750 C 99.167 45.887,99.054 46.000,98.917 46.000 C 98.779 46.000,98.667 46.112,98.667 46.250 C 98.667 46.387,98.563 46.500,98.436 46.500 C 98.309 46.500,98.164 46.658,98.114 46.850 C 98.064 47.043,97.943 47.151,97.845 47.090 C 97.740 47.026,97.667 47.123,97.667 47.323 C 97.667 47.517,97.558 47.667,97.417 47.667 C 97.279 47.667,97.167 47.779,97.167 47.917 C 97.167 48.054,97.069 48.167,96.951 48.167 C 96.832 48.167,96.550 48.388,96.326 48.660 C 96.101 48.931,95.823 49.156,95.708 49.160 C 95.594 49.163,95.500 49.279,95.500 49.417 C 95.500 49.554,95.388 49.667,95.250 49.667 C 95.112 49.667,95.000 49.771,95.000 49.899 C 95.000 50.027,94.888 50.174,94.750 50.227 C 94.612 50.280,94.500 50.438,94.500 50.578 C 94.500 50.718,94.388 50.833,94.250 50.833 C 94.112 50.833,94.000 50.946,94.000 51.083 C 94.000 51.221,93.888 51.333,93.750 51.333 C 93.612 51.333,93.500 51.446,93.500 51.583 C 93.500 51.721,93.385 51.833,93.245 51.833 C 93.104 51.833,92.946 51.946,92.894 52.083 C 92.841 52.221,92.702 52.333,92.585 52.333 C 92.468 52.333,92.331 52.491,92.281 52.683 C 92.230 52.876,92.109 52.984,92.011 52.924 C 91.913 52.863,91.833 52.931,91.833 53.073 C 91.833 53.216,91.721 53.333,91.583 53.333 C 91.444 53.333,91.333 53.481,91.333 53.667 C 91.333 53.852,91.222 54.000,91.083 54.000 C 90.946 54.000,90.833 54.112,90.833 54.250 C 90.833 54.387,90.721 54.500,90.583 54.500 C 90.446 54.500,90.333 54.612,90.333 54.750 C 90.333 54.889,90.185 55.000,90.000 55.000 C 89.817 55.000,89.676 55.056,89.686 55.125 C 89.748 55.518,89.641 55.693,89.397 55.599 C 89.193 55.521,89.147 55.573,89.209 55.810 C 89.272 56.052,89.220 56.106,88.979 56.043 C 88.743 55.981,88.667 56.052,88.667 56.332 C 88.667 56.597,88.594 56.674,88.410 56.604 C 88.232 56.535,88.168 56.593,88.202 56.794 C 88.234 56.985,88.156 57.068,87.972 57.038 C 87.696 56.992,87.653 57.247,87.876 57.603 C 87.993 57.790,87.494 58.500,87.246 58.500 C 87.174 58.500,87.239 58.363,87.391 58.195 C 87.543 58.027,87.617 57.839,87.556 57.778 C 87.347 57.570,87.203 57.666,87.098 58.082 C 87.041 58.311,86.939 58.480,86.872 58.459 C 86.686 58.399,85.923 58.978,86.037 59.093 C 86.093 59.148,86.327 59.069,86.558 58.918 C 86.790 58.766,87.152 58.666,87.363 58.696 C 87.592 58.728,87.747 58.664,87.748 58.536 C 87.751 58.242,88.141 58.025,88.497 58.118 C 88.956 58.238,90.297 59.667,89.951 59.667 C 89.795 59.667,89.667 59.554,89.667 59.417 C 89.667 59.279,89.554 59.167,89.417 59.167 C 89.279 59.167,89.167 59.054,89.167 58.917 C 89.167 58.756,89.006 58.667,88.717 58.667 C 88.367 58.667,88.311 58.711,88.467 58.867 C 88.577 58.977,88.667 59.202,88.667 59.367 C 88.667 59.532,88.779 59.667,88.917 59.667 C 89.056 59.667,89.167 59.815,89.167 60.000 C 89.167 60.215,89.278 60.333,89.480 60.333 C 89.652 60.333,89.895 60.458,90.021 60.610 C 90.227 60.859,90.258 60.833,90.333 60.355 L 90.417 59.822 91.913 61.328 C 92.868 62.289,93.305 62.833,93.122 62.833 C 92.963 62.833,92.833 62.721,92.833 62.583 C 92.833 62.417,92.667 62.333,92.333 62.333 C 92.000 62.333,91.833 62.250,91.833 62.083 C 91.833 61.946,91.723 61.833,91.589 61.833 C 91.161 61.833,91.488 62.275,92.512 63.079 L 93.500 63.855 93.500 63.397 L 93.500 62.938 94.012 63.427 L 94.524 63.917 94.055 64.001 L 93.586 64.086 94.293 64.853 C 94.682 65.275,95.000 65.706,95.000 65.810 C 95.000 65.915,95.112 66.000,95.250 66.000 C 95.388 66.000,95.500 66.112,95.500 66.250 C 95.500 66.387,95.612 66.500,95.750 66.500 C 95.917 66.500,96.000 66.333,96.000 66.000 C 96.000 65.667,95.917 65.500,95.750 65.500 C 95.612 65.500,95.502 65.369,95.504 65.208 C 95.507 64.997,95.687 65.106,96.160 65.607 C 96.864 66.352,96.930 67.000,96.302 67.000 C 96.006 67.000,96.000 67.024,96.238 67.262 C 96.382 67.406,96.500 67.593,96.500 67.679 C 96.500 68.048,96.801 67.789,96.890 67.342 C 96.967 66.959,97.063 66.865,97.327 66.916 C 97.542 66.957,97.667 66.893,97.667 66.740 C 97.667 66.495,97.842 66.436,98.398 66.495 C 98.641 66.521,98.692 66.449,98.622 66.181 C 98.572 65.990,98.611 65.785,98.708 65.724 C 98.812 65.660,98.836 65.694,98.766 65.808 C 98.695 65.922,98.753 66.000,98.907 66.000 C 99.050 66.000,99.167 65.887,99.167 65.750 C 99.167 65.612,99.279 65.500,99.417 65.500 C 99.554 65.500,99.667 65.387,99.667 65.250 C 99.667 65.112,99.787 65.000,99.934 65.000 C 100.103 65.000,100.167 64.908,100.107 64.752 C 100.052 64.609,100.097 64.521,100.214 64.544 C 100.326 64.565,100.399 64.492,100.377 64.381 C 100.353 64.256,100.443 64.219,100.613 64.284 C 100.804 64.358,100.849 64.327,100.761 64.184 C 100.679 64.051,100.758 63.945,100.983 63.886 C 101.239 63.819,101.339 63.653,101.353 63.272 C 101.363 62.985,101.406 62.881,101.448 63.042 C 101.555 63.450,101.833 63.407,101.833 62.982 C 101.833 62.738,101.910 62.660,102.083 62.727 C 102.236 62.785,102.333 62.727,102.333 62.578 C 102.333 62.443,102.441 62.333,102.572 62.333 C 102.709 62.333,102.834 62.137,102.864 61.875 C 102.904 61.523,103.010 61.412,103.320 61.396 C 103.738 61.375,104.221 60.890,104.069 60.644 C 104.022 60.567,104.099 60.548,104.241 60.603 C 104.436 60.678,104.503 60.585,104.513 60.226 C 104.520 59.964,104.564 59.844,104.610 59.958 C 104.727 60.249,105.000 60.219,105.000 59.917 C 105.000 59.779,105.084 59.667,105.187 59.667 C 105.323 59.667,105.321 59.603,105.181 59.434 C 105.033 59.256,105.038 59.204,105.202 59.210 C 105.763 59.233,106.000 59.146,106.000 58.917 C 106.000 58.779,106.112 58.667,106.250 58.667 C 106.388 58.667,106.500 58.554,106.500 58.417 C 106.500 58.279,106.585 58.167,106.689 58.167 C 106.912 58.167,107.667 57.388,107.667 57.158 C 107.667 57.071,107.779 57.000,107.917 57.000 C 108.054 57.000,108.167 56.918,108.167 56.817 C 108.167 56.568,109.250 55.500,109.501 55.500 C 109.612 55.500,109.659 55.387,109.606 55.250 C 109.549 55.100,109.605 55.000,109.747 55.000 C 110.036 55.000,110.833 54.283,110.833 54.023 C 110.833 53.918,110.946 53.833,111.083 53.833 C 111.221 53.833,111.333 53.721,111.333 53.583 C 111.333 53.417,111.500 53.333,111.833 53.333 C 112.167 53.333,112.333 53.250,112.333 53.083 C 112.333 52.946,112.446 52.833,112.583 52.833 C 112.721 52.833,112.833 52.731,112.833 52.606 C 112.833 52.447,113.156 52.353,113.917 52.292 C 115.499 52.165,117.167 52.326,117.167 52.606 C 117.167 52.747,117.356 52.833,117.667 52.833 C 118.000 52.833,118.167 52.917,118.167 53.083 C 118.167 53.221,118.279 53.333,118.417 53.333 C 118.554 53.333,118.667 53.446,118.667 53.583 C 118.667 53.721,118.770 53.833,118.897 53.833 C 119.024 53.833,119.169 53.991,119.219 54.183 C 119.270 54.376,119.386 54.487,119.477 54.431 C 119.568 54.375,119.691 54.480,119.749 54.664 C 119.819 54.885,120.008 55.004,120.303 55.013 C 120.549 55.020,120.656 55.064,120.542 55.110 C 120.251 55.227,120.281 55.500,120.583 55.500 C 120.721 55.500,120.833 55.600,120.833 55.723 C 120.833 55.880,121.132 55.956,121.855 55.982 C 122.720 56.013,122.861 55.979,122.777 55.760 C 122.715 55.600,122.768 55.500,122.914 55.500 C 123.180 55.500,124.000 54.739,124.000 54.492 C 124.000 54.405,124.112 54.333,124.250 54.333 C 124.388 54.333,124.500 54.221,124.500 54.083 C 124.500 53.946,124.612 53.833,124.750 53.833 C 124.888 53.833,125.000 53.721,125.000 53.583 C 125.000 53.446,125.112 53.333,125.250 53.333 C 125.388 53.333,125.500 53.221,125.500 53.083 C 125.500 52.946,125.612 52.833,125.750 52.833 C 125.888 52.833,126.000 52.721,126.000 52.583 C 126.000 52.446,126.112 52.333,126.250 52.333 C 126.388 52.333,126.500 52.221,126.500 52.083 C 126.500 51.946,126.612 51.833,126.750 51.833 C 126.888 51.833,127.000 51.726,127.000 51.595 C 127.000 51.463,127.150 51.308,127.333 51.250 C 127.517 51.192,127.667 51.037,127.667 50.905 C 127.667 50.774,127.779 50.667,127.917 50.667 C 128.054 50.667,128.158 50.610,128.147 50.542 C 128.091 50.186,128.193 50.021,128.417 50.106 C 128.575 50.167,128.667 50.104,128.667 49.934 C 128.667 49.787,128.779 49.667,128.917 49.667 C 129.054 49.667,129.167 49.554,129.167 49.417 C 129.167 49.279,129.270 49.167,129.397 49.167 C 129.524 49.167,129.669 49.009,129.719 48.817 C 129.770 48.624,129.891 48.516,129.989 48.576 C 130.087 48.637,130.167 48.569,130.167 48.427 C 130.167 48.284,130.274 48.167,130.405 48.167 C 130.537 48.167,130.692 48.017,130.750 47.833 C 130.808 47.650,130.949 47.500,131.063 47.500 C 131.193 47.500,131.286 47.217,131.310 46.750 C 131.340 46.168,131.291 46.000,131.091 46.000 C 130.949 46.000,130.833 45.887,130.833 45.750 C 130.833 45.612,130.721 45.500,130.583 45.500 C 130.446 45.500,130.333 45.387,130.333 45.250 C 130.333 45.111,130.185 45.000,130.000 45.000 C 129.815 45.000,129.667 44.889,129.667 44.750 C 129.667 44.612,129.554 44.500,129.417 44.500 C 129.279 44.500,129.167 44.387,129.167 44.250 C 129.167 44.112,129.054 44.000,128.917 44.000 C 128.778 44.000,128.667 43.852,128.667 43.667 C 128.667 43.481,128.556 43.333,128.417 43.333 C 128.279 43.333,128.167 43.221,128.167 43.083 C 128.167 42.946,128.110 42.842,128.042 42.853 C 127.686 42.909,127.521 42.807,127.606 42.583 C 127.668 42.424,127.604 42.333,127.429 42.333 C 127.279 42.333,127.113 42.221,127.060 42.083 C 127.006 41.941,126.757 41.833,126.482 41.833 C 126.165 41.833,126.000 41.748,126.000 41.583 C 126.000 41.446,125.888 41.333,125.750 41.333 C 125.612 41.333,125.500 41.221,125.500 41.083 C 125.500 40.917,125.333 40.833,125.000 40.833 C 124.663 40.833,124.500 40.750,124.500 40.579 C 124.500 40.354,123.642 40.033,123.298 40.129 C 123.232 40.148,123.221 40.051,123.274 39.915 C 123.349 39.718,123.215 39.667,122.619 39.667 C 122.106 39.667,121.839 39.588,121.773 39.417 C 121.707 39.245,121.439 39.167,120.922 39.167 C 120.362 39.167,120.167 39.102,120.167 38.917 C 120.167 38.717,119.919 38.667,118.934 38.667 C 117.980 38.667,117.680 38.609,117.604 38.411 C 117.464 38.045,112.333 38.065,112.333 38.431 M90.833 61.250 C 91.049 61.479,91.249 61.667,91.279 61.667 C 91.309 61.667,91.333 61.479,91.333 61.250 C 91.333 60.909,91.252 60.833,90.888 60.833 L 90.442 60.833 90.833 61.250 M113.500 63.666 C 113.500 63.853,113.377 63.934,113.125 63.914 C 112.617 63.872,112.333 63.992,112.333 64.250 C 112.333 64.368,112.216 64.509,112.073 64.564 C 111.929 64.619,111.859 64.740,111.916 64.832 C 112.015 64.993,111.771 65.077,111.417 65.006 C 111.325 64.987,111.306 65.028,111.374 65.096 C 111.536 65.258,111.174 65.691,110.977 65.569 C 110.893 65.517,110.836 65.537,110.849 65.613 C 110.908 65.950,110.819 66.178,110.667 66.083 C 110.575 66.027,110.500 66.097,110.500 66.240 C 110.500 66.478,110.300 66.577,109.946 66.516 C 109.870 66.502,109.844 66.550,109.887 66.621 C 109.983 66.780,109.571 67.182,109.443 67.054 C 109.391 67.003,109.299 67.161,109.238 67.407 C 109.161 67.711,109.047 67.823,108.878 67.758 C 108.709 67.693,108.659 67.741,108.723 67.906 C 108.779 68.052,108.693 68.189,108.507 68.248 C 108.337 68.302,108.154 68.460,108.100 68.600 C 108.046 68.740,107.925 68.807,107.830 68.748 C 107.736 68.690,107.669 68.704,107.682 68.779 C 107.739 69.103,107.656 69.346,107.517 69.261 C 107.435 69.210,107.325 69.281,107.273 69.418 C 107.220 69.555,107.067 69.667,106.933 69.667 C 106.799 69.667,106.642 69.815,106.584 69.997 C 106.527 70.178,106.391 70.309,106.282 70.288 C 106.173 70.267,106.101 70.339,106.122 70.448 C 106.143 70.557,106.010 70.694,105.828 70.752 C 105.645 70.810,105.531 70.916,105.575 70.987 C 105.671 71.142,104.810 71.930,104.613 71.868 C 104.537 71.845,104.523 71.902,104.582 71.997 C 104.640 72.092,104.573 72.213,104.434 72.267 C 104.294 72.320,104.134 72.508,104.078 72.684 C 104.022 72.861,103.906 72.962,103.821 72.909 C 103.736 72.857,103.667 72.895,103.667 72.994 C 103.667 73.094,103.472 73.249,103.233 73.340 C 102.951 73.447,102.832 73.590,102.894 73.750 C 102.946 73.885,102.934 73.988,102.869 73.978 C 102.504 73.924,102.333 74.037,102.333 74.333 C 102.333 74.519,102.222 74.667,102.083 74.667 C 101.946 74.667,101.833 74.742,101.833 74.833 C 101.833 74.925,101.721 75.000,101.583 75.000 C 101.417 75.000,101.333 75.167,101.333 75.500 C 101.333 75.836,101.250 76.000,101.080 76.000 C 100.876 76.000,100.832 76.224,100.851 77.164 C 100.868 77.975,100.932 78.293,101.063 78.215 C 101.166 78.153,101.147 78.230,101.021 78.385 C 100.824 78.628,100.830 78.667,101.063 78.667 C 101.309 78.667,101.410 78.938,101.350 79.438 C 101.338 79.542,101.471 79.664,101.645 79.709 C 101.885 79.772,101.941 79.898,101.878 80.229 C 101.818 80.545,101.864 80.667,102.046 80.667 C 102.184 80.667,102.344 80.787,102.400 80.934 C 102.461 81.091,102.609 81.161,102.760 81.103 C 102.902 81.048,102.973 81.075,102.919 81.162 C 102.865 81.250,102.974 81.474,103.161 81.661 C 103.347 81.847,103.500 82.075,103.500 82.167 C 103.500 82.258,103.612 82.333,103.750 82.333 C 103.888 82.333,104.000 82.446,104.000 82.583 C 104.000 82.721,104.112 82.833,104.250 82.833 C 104.388 82.833,104.500 82.946,104.500 83.083 C 104.500 83.221,104.612 83.333,104.750 83.333 C 104.888 83.333,105.000 83.437,105.000 83.564 C 105.000 83.691,105.158 83.836,105.350 83.886 C 105.573 83.944,105.655 84.051,105.574 84.182 C 105.485 84.326,105.549 84.359,105.795 84.295 C 106.038 84.231,106.116 84.270,106.057 84.425 C 106.010 84.547,106.128 84.744,106.319 84.863 C 106.510 84.983,106.667 85.175,106.667 85.290 C 106.667 85.406,106.779 85.500,106.917 85.500 C 107.054 85.500,107.167 85.612,107.167 85.750 C 107.167 85.888,107.279 86.000,107.417 86.000 C 107.554 86.000,107.667 86.112,107.667 86.250 C 107.667 86.388,107.779 86.500,107.917 86.500 C 108.054 86.500,108.167 86.621,108.167 86.769 C 108.167 86.951,108.269 87.012,108.479 86.957 C 108.719 86.894,108.772 86.948,108.709 87.188 C 108.665 87.360,108.712 87.500,108.814 87.500 C 109.045 87.500,110.333 88.772,110.333 89.000 C 110.333 89.092,110.481 89.167,110.661 89.167 C 110.885 89.167,110.959 89.247,110.894 89.417 C 110.833 89.575,110.896 89.667,111.066 89.667 C 111.213 89.667,111.333 89.779,111.333 89.917 C 111.333 90.054,111.446 90.167,111.583 90.167 C 111.721 90.167,111.833 90.279,111.833 90.417 C 111.833 90.581,111.998 90.667,112.314 90.667 C 112.645 90.667,112.820 90.765,112.877 90.981 C 112.952 91.268,113.140 91.296,115.000 91.296 C 116.860 91.296,117.048 91.268,117.123 90.981 C 117.169 90.808,117.309 90.667,117.436 90.667 C 117.563 90.667,117.667 90.554,117.667 90.417 C 117.667 90.279,117.779 90.167,117.917 90.167 C 118.054 90.167,118.167 90.054,118.167 89.917 C 118.167 89.779,118.279 89.667,118.417 89.667 C 118.554 89.667,118.667 89.554,118.667 89.417 C 118.667 89.279,118.779 89.167,118.917 89.167 C 119.054 89.167,119.167 89.019,119.167 88.839 C 119.167 88.615,119.247 88.541,119.417 88.606 C 119.575 88.667,119.667 88.604,119.667 88.434 C 119.667 88.287,119.786 88.167,119.932 88.167 C 120.078 88.167,120.237 88.017,120.285 87.833 C 120.333 87.650,120.484 87.500,120.621 87.500 C 120.773 87.500,120.832 87.403,120.773 87.250 C 120.714 87.096,120.773 87.000,120.927 87.000 C 121.065 87.000,121.220 86.888,121.273 86.750 C 121.326 86.612,121.473 86.500,121.601 86.500 C 121.729 86.500,121.833 86.388,121.833 86.250 C 121.833 86.112,121.946 86.000,122.083 86.000 C 122.221 86.000,122.333 85.888,122.333 85.750 C 122.333 85.612,122.454 85.500,122.601 85.500 C 122.771 85.500,122.834 85.408,122.773 85.250 C 122.711 85.088,122.778 84.999,122.964 84.997 C 123.278 84.994,124.000 84.312,124.000 84.018 C 124.000 83.917,124.112 83.833,124.250 83.833 C 124.388 83.833,124.500 83.721,124.500 83.583 C 124.500 83.446,124.612 83.333,124.750 83.333 C 124.888 83.333,125.000 83.221,125.000 83.083 C 125.000 82.946,125.112 82.833,125.250 82.833 C 125.388 82.833,125.500 82.721,125.500 82.583 C 125.500 82.446,125.612 82.333,125.750 82.333 C 125.888 82.333,126.000 82.221,126.000 82.083 C 126.000 81.946,126.112 81.833,126.250 81.833 C 126.388 81.833,126.500 81.730,126.500 81.603 C 126.500 81.476,126.650 81.333,126.833 81.285 C 127.017 81.237,127.167 81.078,127.167 80.932 C 127.167 80.786,127.287 80.667,127.434 80.667 C 127.604 80.667,127.667 80.575,127.606 80.417 C 127.550 80.270,127.604 80.167,127.737 80.167 C 127.862 80.167,128.008 80.054,128.060 79.917 C 128.113 79.779,128.271 79.667,128.411 79.667 C 128.582 79.667,128.667 79.506,128.667 79.184 C 128.667 78.910,128.774 78.661,128.917 78.606 C 129.101 78.536,129.167 78.245,129.167 77.505 C 129.167 76.723,129.111 76.500,128.917 76.500 C 128.695 76.500,128.545 75.700,128.654 75.104 C 128.669 75.023,128.525 74.998,128.334 75.048 C 128.049 75.123,128.005 75.080,128.089 74.815 C 128.146 74.637,128.130 74.502,128.054 74.516 C 127.670 74.582,127.473 74.477,127.560 74.250 C 127.644 74.031,127.492 73.930,127.145 73.974 C 127.087 73.981,127.049 73.859,127.061 73.702 C 127.073 73.545,126.971 73.417,126.833 73.417 C 126.696 73.417,126.528 73.281,126.460 73.114 C 126.392 72.948,126.261 72.859,126.168 72.916 C 126.075 72.973,126.000 72.862,126.000 72.667 C 126.000 72.473,125.933 72.355,125.851 72.406 C 125.769 72.456,125.493 72.236,125.238 71.916 C 124.982 71.595,124.666 71.333,124.536 71.333 C 124.393 71.333,124.336 71.234,124.394 71.083 C 124.478 70.865,124.325 70.764,123.978 70.807 C 123.920 70.814,123.882 70.692,123.895 70.535 C 123.908 70.357,123.814 70.267,123.643 70.295 C 123.469 70.323,123.378 70.232,123.393 70.045 C 123.408 69.859,123.309 69.759,123.125 69.773 C 122.965 69.786,122.833 69.721,122.833 69.629 C 122.833 69.431,121.523 68.167,121.318 68.167 C 121.241 68.167,121.225 68.041,121.284 67.888 C 121.365 67.677,121.324 67.635,121.114 67.715 C 120.914 67.792,120.809 67.710,120.736 67.422 C 120.671 67.161,120.552 67.054,120.395 67.115 C 120.262 67.166,120.165 67.142,120.180 67.062 C 120.238 66.743,120.158 66.500,119.994 66.500 C 119.767 66.500,117.667 64.386,117.667 64.157 C 117.667 64.060,117.592 64.027,117.500 64.083 C 117.408 64.140,117.333 64.114,117.333 64.025 C 117.333 63.936,117.146 63.883,116.917 63.908 C 116.622 63.941,116.500 63.874,116.500 63.679 C 116.500 63.444,116.280 63.403,115.000 63.395 C 113.706 63.388,113.500 63.425,113.500 63.666 M96.965 67.678 C 96.716 67.947,96.582 68.167,96.666 68.167 C 96.819 68.167,97.667 67.384,97.667 67.242 C 97.667 67.052,97.379 67.231,96.965 67.678 M95.333 68.720 C 95.333 68.802,95.465 68.822,95.625 68.765 C 95.785 68.708,95.556 69.008,95.116 69.432 C 94.621 69.908,94.343 70.306,94.388 70.476 C 94.452 70.716,94.464 70.713,94.481 70.458 C 94.491 70.298,94.604 70.167,94.731 70.167 C 94.857 70.167,95.002 70.009,95.053 69.817 C 95.111 69.594,95.218 69.512,95.348 69.592 C 95.482 69.675,95.509 69.649,95.426 69.515 C 95.346 69.385,95.427 69.278,95.650 69.219 C 96.109 69.099,96.124 68.511,95.667 68.546 C 95.483 68.560,95.333 68.638,95.333 68.720 M93.367 71.262 C 92.974 71.665,92.775 71.948,92.926 71.890 C 93.276 71.756,93.921 71.113,94.054 70.767 C 94.188 70.418,94.198 70.410,93.367 71.262 M92.067 72.461 C 91.800 72.639,91.461 73.333,91.641 73.333 C 91.726 73.333,91.836 73.176,91.886 72.983 C 91.936 72.791,92.045 72.675,92.128 72.726 C 92.210 72.777,92.278 72.709,92.278 72.576 C 92.278 72.443,92.272 72.334,92.264 72.336 C 92.256 72.337,92.167 72.394,92.067 72.461 M133.790 86.449 C 133.628 86.491,133.539 86.595,133.592 86.680 C 133.645 86.766,133.575 86.879,133.438 86.932 C 133.300 86.984,133.227 87.130,133.275 87.256 C 133.344 87.435,133.430 87.443,133.671 87.292 C 133.840 87.186,133.941 87.040,133.896 86.967 C 133.851 86.893,133.881 86.833,133.962 86.833 C 134.044 86.833,134.111 86.721,134.111 86.583 C 134.111 86.446,134.105 86.342,134.097 86.353 C 134.090 86.363,133.951 86.406,133.790 86.449 M132.896 87.423 C 132.964 87.600,132.907 87.665,132.717 87.632 C 132.537 87.600,132.403 87.731,132.337 88.000 C 132.282 88.229,132.033 88.515,131.785 88.634 C 131.536 88.754,131.333 88.964,131.333 89.102 C 131.333 89.240,131.258 89.306,131.165 89.249 C 131.073 89.192,130.953 89.263,130.898 89.406 C 130.843 89.549,130.693 89.667,130.566 89.667 C 130.438 89.667,130.333 89.814,130.333 89.995 C 130.333 90.209,130.252 90.291,130.098 90.233 C 129.957 90.178,129.820 90.281,129.753 90.490 C 129.692 90.682,129.573 90.795,129.487 90.742 C 129.401 90.689,129.281 90.776,129.220 90.935 C 129.080 91.300,128.553 91.833,128.333 91.833 C 128.242 91.833,128.167 91.946,128.167 92.083 C 128.167 92.221,128.054 92.333,127.917 92.333 C 127.779 92.333,127.667 92.446,127.667 92.583 C 127.667 92.721,127.554 92.833,127.417 92.833 C 127.279 92.833,127.167 92.946,127.167 93.083 C 127.167 93.221,127.088 93.333,126.992 93.333 C 126.789 93.333,126.000 94.148,126.000 94.358 C 126.000 94.436,125.888 94.500,125.750 94.500 C 125.612 94.500,125.500 94.612,125.500 94.750 C 125.500 94.888,125.388 95.000,125.250 95.000 C 125.112 95.000,125.000 95.112,125.000 95.250 C 125.000 95.388,124.888 95.500,124.750 95.500 C 124.612 95.500,124.500 95.612,124.500 95.750 C 124.500 95.888,124.388 96.000,124.250 96.000 C 124.112 96.000,124.000 96.075,124.000 96.167 C 124.000 96.350,123.397 97.000,123.227 97.000 C 123.067 97.000,122.333 97.828,122.333 98.009 C 122.333 98.096,122.221 98.167,122.083 98.167 C 121.946 98.167,121.833 98.279,121.833 98.417 C 121.833 98.554,121.721 98.667,121.583 98.667 C 121.446 98.667,121.333 98.779,121.333 98.917 C 121.333 99.054,121.221 99.167,121.083 99.167 C 120.946 99.167,120.833 99.279,120.833 99.417 C 120.833 99.554,120.721 99.667,120.583 99.667 C 120.446 99.667,120.333 99.779,120.333 99.917 C 120.333 100.054,120.262 100.167,120.175 100.167 C 119.946 100.167,119.167 100.922,119.167 101.144 C 119.167 101.248,118.942 101.333,118.667 101.333 C 118.333 101.333,118.167 101.417,118.167 101.583 C 118.167 101.750,118.000 101.833,117.667 101.833 C 117.333 101.833,117.167 101.917,117.167 102.083 C 117.167 102.251,116.999 102.333,116.661 102.333 C 116.366 102.333,116.116 102.437,116.060 102.583 C 115.990 102.766,115.701 102.833,114.982 102.833 C 114.220 102.833,114.000 102.777,114.000 102.583 C 114.000 102.394,113.796 102.333,113.167 102.333 C 112.537 102.333,112.333 102.272,112.333 102.083 C 112.333 101.946,112.221 101.833,112.083 101.833 C 111.946 101.833,111.833 101.721,111.833 101.583 C 111.833 101.417,111.667 101.333,111.333 101.333 C 110.952 101.333,110.833 101.258,110.833 101.014 C 110.833 100.517,110.654 100.167,110.399 100.167 C 110.271 100.167,110.167 100.054,110.167 99.917 C 110.167 99.750,110.000 99.667,109.667 99.667 C 109.333 99.667,109.167 99.583,109.167 99.417 C 109.167 99.279,109.054 99.167,108.917 99.167 C 108.779 99.167,108.667 99.054,108.667 98.917 C 108.667 98.750,108.500 98.667,108.167 98.667 C 107.833 98.667,107.667 98.750,107.667 98.917 C 107.667 99.054,107.554 99.167,107.417 99.167 C 107.279 99.167,107.167 99.279,107.167 99.417 C 107.167 99.554,107.062 99.667,106.934 99.667 C 106.807 99.667,106.659 99.779,106.606 99.917 C 106.554 100.054,106.388 100.167,106.237 100.167 C 106.063 100.167,105.999 100.257,106.060 100.417 C 106.127 100.589,106.049 100.667,105.810 100.667 C 105.562 100.667,105.493 100.742,105.566 100.932 C 105.634 101.109,105.557 101.227,105.334 101.285 C 105.150 101.333,105.000 101.476,105.000 101.603 C 105.000 101.730,104.888 101.833,104.750 101.833 C 104.612 101.833,104.500 101.946,104.500 102.083 C 104.500 102.221,104.388 102.333,104.250 102.333 C 104.112 102.333,104.000 102.446,104.000 102.583 C 104.000 102.721,103.888 102.833,103.750 102.833 C 103.612 102.833,103.500 102.946,103.500 103.083 C 103.500 103.221,103.359 103.333,103.186 103.333 C 103.007 103.333,102.833 103.484,102.781 103.683 C 102.730 103.876,102.609 103.984,102.511 103.924 C 102.413 103.863,102.333 103.923,102.333 104.056 C 102.333 104.189,102.221 104.341,102.083 104.394 C 101.946 104.446,101.833 104.604,101.833 104.745 C 101.833 104.885,101.721 105.000,101.583 105.000 C 101.446 105.000,101.333 105.112,101.333 105.250 C 101.333 105.388,101.221 105.500,101.083 105.500 C 100.946 105.500,100.833 105.612,100.833 105.750 C 100.833 105.888,100.721 106.000,100.583 106.000 C 100.446 106.000,100.333 106.112,100.333 106.250 C 100.333 106.388,100.229 106.500,100.101 106.500 C 99.973 106.500,99.826 106.612,99.773 106.750 C 99.720 106.888,99.562 107.000,99.422 107.000 C 99.282 107.000,99.167 107.115,99.167 107.255 C 99.167 107.396,99.054 107.554,98.917 107.606 C 98.440 107.789,98.602 108.869,99.183 109.379 C 99.467 109.628,99.767 109.791,99.848 109.741 C 99.930 109.691,99.952 109.766,99.897 109.908 C 99.833 110.076,99.892 110.167,100.066 110.167 C 100.213 110.167,100.333 110.279,100.333 110.417 C 100.333 110.554,100.408 110.667,100.500 110.667 C 100.707 110.667,101.333 111.280,101.333 111.482 C 101.333 111.682,101.823 111.860,102.026 111.734 C 102.116 111.678,102.230 111.791,102.281 111.983 C 102.331 112.176,102.476 112.333,102.603 112.333 C 102.730 112.333,102.833 112.446,102.833 112.583 C 102.833 112.722,102.981 112.833,103.167 112.833 C 103.350 112.833,103.500 112.941,103.500 113.073 C 103.500 113.221,103.706 113.332,104.042 113.364 C 104.366 113.396,104.567 113.500,104.542 113.625 C 104.519 113.740,104.612 113.833,104.750 113.833 C 104.887 113.833,105.000 113.946,105.000 114.083 C 105.000 114.239,105.157 114.333,105.417 114.333 C 105.646 114.333,105.983 114.483,106.167 114.667 C 106.373 114.873,106.722 115.000,107.083 115.000 C 107.491 115.000,107.667 115.075,107.667 115.250 C 107.667 115.415,107.831 115.500,108.149 115.500 C 108.424 115.500,108.672 115.607,108.727 115.750 C 108.800 115.942,109.116 116.000,110.078 116.000 C 111.083 116.000,111.333 116.050,111.333 116.250 C 111.333 116.465,111.880 116.500,115.250 116.500 C 118.620 116.500,119.167 116.465,119.167 116.250 C 119.167 116.055,119.389 116.000,120.172 116.000 C 120.912 116.000,121.202 115.934,121.273 115.750 C 121.328 115.607,121.576 115.500,121.851 115.500 C 122.169 115.500,122.333 115.415,122.333 115.250 C 122.333 114.992,122.486 114.942,123.114 114.992 C 123.315 115.008,123.634 114.866,123.823 114.677 C 124.012 114.488,124.354 114.333,124.583 114.333 C 124.843 114.333,125.000 114.239,125.000 114.083 C 125.000 113.946,125.112 113.833,125.250 113.833 C 125.388 113.833,125.500 113.721,125.500 113.583 C 125.500 113.417,125.667 113.333,126.000 113.333 C 126.333 113.333,126.500 113.250,126.500 113.083 C 126.500 112.946,126.609 112.833,126.742 112.833 C 126.875 112.833,127.043 112.728,127.117 112.599 C 127.190 112.471,127.432 112.339,127.654 112.308 C 127.876 112.276,128.092 112.146,128.134 112.018 C 128.176 111.888,128.134 111.834,128.037 111.894 C 127.930 111.960,127.938 111.842,128.057 111.585 C 128.191 111.296,128.384 111.169,128.690 111.168 C 129.017 111.167,129.157 111.062,129.232 110.761 C 129.288 110.538,129.503 110.305,129.709 110.242 C 130.181 110.100,130.861 109.346,130.721 109.119 C 130.659 109.019,130.698 108.999,130.814 109.071 C 131.051 109.218,132.233 108.086,132.402 107.550 C 132.465 107.349,132.682 107.132,132.884 107.068 C 133.338 106.925,133.993 106.321,133.997 106.042 C 133.999 105.927,134.094 105.852,134.208 105.875 C 134.323 105.898,134.406 105.786,134.394 105.627 C 134.381 105.467,134.428 105.372,134.497 105.415 C 134.639 105.502,135.500 104.811,135.500 104.610 C 135.500 104.539,135.413 104.534,135.308 104.599 C 135.188 104.673,135.160 104.645,135.234 104.526 C 135.299 104.420,135.499 104.333,135.677 104.333 C 135.894 104.333,136.000 104.219,136.000 103.982 C 136.000 103.733,136.075 103.660,136.259 103.730 C 136.401 103.785,136.478 103.766,136.431 103.689 C 136.383 103.612,136.460 103.407,136.601 103.233 C 136.742 103.059,136.811 103.010,136.753 103.125 C 136.694 103.240,136.729 103.333,136.829 103.333 C 136.929 103.333,137.073 103.165,137.149 102.958 C 137.226 102.752,137.317 102.617,137.352 102.659 C 137.461 102.787,138.155 102.116,138.065 101.970 C 138.018 101.895,138.079 101.832,138.198 101.830 C 138.460 101.827,139.167 101.113,139.167 100.852 C 139.167 100.750,139.279 100.667,139.417 100.667 C 139.554 100.667,139.667 100.554,139.667 100.417 C 139.667 100.279,139.749 100.167,139.851 100.167 C 140.334 100.167,142.301 97.905,142.214 97.450 C 142.166 97.201,142.218 96.889,142.328 96.756 C 142.438 96.623,142.480 96.436,142.421 96.341 C 142.362 96.245,142.401 96.167,142.508 96.167 C 142.628 96.167,142.666 96.314,142.607 96.548 C 142.470 97.093,143.105 97.107,143.641 96.571 C 144.042 96.170,144.045 96.152,143.735 95.918 C 143.320 95.604,143.107 95.603,143.227 95.917 C 143.293 96.088,143.217 96.167,142.990 96.167 C 142.806 96.167,142.614 96.058,142.563 95.924 C 142.490 95.734,142.423 95.725,142.253 95.882 C 142.133 95.993,142.069 96.140,142.111 96.208 C 142.152 96.277,142.107 96.333,142.010 96.333 C 141.913 96.333,141.833 96.237,141.833 96.120 C 141.833 96.002,141.383 95.461,140.833 94.917 L 139.833 93.927 139.833 94.464 C 139.833 94.829,139.913 95.000,140.083 95.000 C 140.221 95.000,140.333 95.112,140.333 95.250 C 140.333 95.388,140.446 95.500,140.583 95.500 C 140.721 95.500,140.833 95.630,140.833 95.790 C 140.833 95.966,139.788 95.037,138.163 93.415 C 135.522 90.780,135.498 90.749,136.002 90.667 L 136.513 90.583 135.322 89.417 C 134.667 88.775,134.039 88.040,133.927 87.783 C 133.737 87.348,133.706 87.336,133.486 87.606 C 133.335 87.793,133.325 87.852,133.458 87.772 C 133.573 87.703,133.667 87.722,133.667 87.814 C 133.667 88.219,133.350 88.121,133.192 87.666 C 133.096 87.392,132.968 87.167,132.908 87.167 C 132.847 87.167,132.842 87.282,132.896 87.423 M134.000 88.937 C 134.000 89.159,133.955 89.170,133.750 89.000 C 133.612 88.886,133.500 88.764,133.500 88.730 C 133.500 88.695,133.612 88.667,133.750 88.667 C 133.887 88.667,134.000 88.788,134.000 88.937 M136.667 91.083 C 136.667 91.221,136.779 91.333,136.917 91.333 C 137.054 91.333,137.167 91.446,137.167 91.583 C 137.167 91.721,137.279 91.833,137.417 91.833 C 137.583 91.833,137.667 92.000,137.667 92.333 C 137.667 92.778,137.722 92.833,138.167 92.833 C 138.611 92.833,138.667 92.889,138.667 93.333 C 138.667 93.786,138.718 93.833,139.205 93.833 C 139.741 93.833,139.736 93.827,138.250 92.333 C 136.608 90.684,136.667 90.730,136.667 91.083 M147.861 91.904 C 148.019 92.080,147.459 92.624,147.208 92.537 C 146.931 92.440,146.939 92.608,147.217 92.714 C 147.533 92.835,148.243 92.064,147.963 91.903 C 147.846 91.835,147.800 91.836,147.861 91.904 M147.000 92.982 C 147.000 93.094,146.935 93.146,146.856 93.097 C 146.777 93.049,146.426 93.256,146.076 93.558 C 145.542 94.020,145.486 94.126,145.727 94.218 C 145.937 94.299,146.001 94.251,145.965 94.039 C 145.932 93.843,146.011 93.766,146.208 93.799 C 146.381 93.828,146.500 93.743,146.500 93.591 C 146.500 93.449,146.608 93.333,146.740 93.333 C 147.012 93.333,147.252 93.030,147.100 92.878 C 147.045 92.823,147.000 92.870,147.000 92.982 M145.001 94.496 C 144.813 94.614,144.800 94.700,144.945 94.845 C 145.173 95.073,145.500 94.913,145.500 94.573 C 145.500 94.296,145.353 94.273,145.001 94.496 M144.333 95.083 C 144.333 95.221,144.221 95.333,144.083 95.333 C 143.777 95.333,143.751 95.766,144.050 95.881 C 144.322 95.985,144.973 95.323,144.877 95.042 C 144.776 94.748,144.333 94.782,144.333 95.083 M142.063 97.867 C 142.017 97.940,141.891 97.999,141.782 97.997 C 141.663 97.996,141.683 97.930,141.833 97.833 C 142.015 97.716,142.024 97.671,141.865 97.669 C 141.745 97.668,141.698 97.584,141.761 97.482 C 141.841 97.353,141.915 97.363,142.010 97.516 C 142.084 97.636,142.108 97.794,142.063 97.867 M88.917 98.833 C 89.083 99.017,89.247 99.167,89.282 99.167 C 89.317 99.167,89.265 99.017,89.167 98.833 C 89.069 98.650,88.904 98.500,88.802 98.500 C 88.699 98.500,88.751 98.650,88.917 98.833 " stroke="none" fill="#047cfc" fill-rule="evenodd"></path><path id="path1" d="M114.708 52.282 C 114.869 52.323,115.131 52.323,115.292 52.282 C 115.452 52.240,115.321 52.205,115.000 52.205 C 114.679 52.205,114.548 52.240,114.708 52.282 M138.333 54.121 C 137.761 54.339,129.333 62.975,129.333 63.344 C 129.333 63.709,130.087 64.753,131.079 65.763 C 131.357 66.044,131.821 66.551,132.111 66.888 C 132.401 67.224,132.720 67.500,132.819 67.500 C 132.919 67.500,133.000 67.612,133.000 67.750 C 133.000 67.887,133.112 68.000,133.250 68.000 C 133.387 68.000,133.500 68.070,133.500 68.156 C 133.500 68.375,135.287 70.167,135.506 70.167 C 135.605 70.167,135.637 70.247,135.576 70.345 C 135.516 70.443,135.624 70.564,135.817 70.614 C 136.009 70.664,136.167 70.809,136.167 70.936 C 136.167 71.063,136.279 71.167,136.417 71.167 C 136.554 71.167,136.667 71.244,136.667 71.338 C 136.667 71.432,137.004 71.846,137.417 72.259 C 137.829 72.671,138.167 73.082,138.167 73.171 C 138.167 73.260,138.325 73.333,138.518 73.333 C 138.762 73.333,138.840 73.410,138.773 73.583 C 138.720 73.721,138.750 73.833,138.839 73.833 C 139.190 73.833,139.719 74.580,139.764 75.137 C 139.789 75.460,139.928 75.790,140.072 75.870 C 140.424 76.067,140.461 78.833,140.111 78.833 C 139.989 78.833,139.878 78.927,139.865 79.042 C 139.843 79.226,139.747 79.862,139.688 80.208 C 139.676 80.277,139.576 80.315,139.466 80.292 C 139.355 80.269,139.252 80.344,139.237 80.458 C 139.221 80.573,139.199 80.742,139.188 80.833 C 139.176 80.925,139.076 80.981,138.966 80.958 C 138.856 80.935,138.755 81.029,138.742 81.167 C 138.728 81.304,138.706 81.510,138.692 81.625 C 138.678 81.740,138.563 81.833,138.436 81.833 C 138.309 81.833,138.164 81.991,138.114 82.183 C 138.064 82.376,137.943 82.484,137.845 82.424 C 137.747 82.363,137.667 82.393,137.667 82.490 C 137.667 82.714,136.958 83.431,136.792 83.375 C 136.723 83.352,136.667 83.488,136.667 83.677 C 136.667 83.865,136.594 83.975,136.505 83.920 C 136.417 83.865,136.249 83.973,136.132 84.160 C 136.015 84.347,135.821 84.500,135.700 84.500 C 135.579 84.500,135.530 84.580,135.590 84.678 C 135.651 84.776,135.544 84.897,135.352 84.947 C 135.160 84.997,135.048 85.109,135.102 85.197 C 135.156 85.284,135.043 85.397,134.850 85.447 C 134.658 85.498,134.500 85.645,134.500 85.775 C 134.500 85.904,134.393 86.052,134.262 86.102 C 134.131 86.152,134.052 86.337,134.086 86.513 C 134.120 86.689,134.072 86.833,133.981 86.833 C 133.889 86.833,133.851 86.893,133.896 86.967 C 133.941 87.040,133.840 87.186,133.671 87.292 C 133.423 87.447,133.343 87.432,133.261 87.218 C 133.070 86.721,132.997 87.110,133.182 87.639 C 133.283 87.929,133.439 88.121,133.528 88.066 C 133.617 88.011,133.650 87.864,133.602 87.738 C 133.554 87.613,133.586 87.466,133.674 87.412 C 133.762 87.358,133.833 87.440,133.833 87.594 C 133.833 87.748,134.441 88.497,135.185 89.258 L 136.536 90.643 136.014 90.696 C 135.502 90.749,135.543 90.801,138.163 93.415 C 139.788 95.037,140.833 95.966,140.833 95.790 C 140.833 95.630,140.721 95.500,140.583 95.500 C 140.446 95.500,140.333 95.388,140.333 95.250 C 140.333 95.112,140.221 95.000,140.083 95.000 C 139.913 95.000,139.833 94.829,139.833 94.464 L 139.833 93.927 140.833 94.917 C 141.383 95.461,141.833 96.002,141.833 96.120 C 141.833 96.237,141.913 96.333,142.010 96.333 C 142.107 96.333,142.152 96.277,142.111 96.208 C 142.069 96.140,142.133 95.993,142.253 95.882 C 142.423 95.725,142.490 95.734,142.563 95.924 C 142.614 96.058,142.806 96.167,142.990 96.167 C 143.217 96.167,143.293 96.088,143.227 95.917 C 143.121 95.640,143.420 95.570,143.583 95.833 C 143.640 95.925,143.813 95.994,143.968 95.987 C 144.142 95.979,144.170 95.941,144.042 95.890 C 143.749 95.771,143.781 95.333,144.083 95.333 C 144.221 95.333,144.333 95.221,144.333 95.083 C 144.333 94.781,144.767 94.749,144.901 95.042 C 144.954 95.156,144.955 95.080,144.903 94.873 C 144.824 94.555,144.891 94.480,145.335 94.391 C 145.654 94.328,145.783 94.238,145.663 94.164 C 145.474 94.047,146.548 93.023,146.751 93.126 C 146.862 93.183,148.363 91.722,148.336 91.585 C 148.324 91.526,148.619 91.212,148.991 90.886 C 149.362 90.560,149.667 90.152,149.667 89.980 C 149.667 89.808,149.758 89.667,149.870 89.667 C 150.164 89.667,150.833 88.835,150.833 88.469 C 150.833 88.297,150.946 88.113,151.083 88.060 C 151.221 88.008,151.333 87.866,151.333 87.746 C 151.333 87.626,151.420 87.499,151.526 87.463 C 151.633 87.428,151.747 87.217,151.781 86.995 C 151.815 86.773,151.953 86.530,152.088 86.454 C 152.223 86.379,152.333 86.095,152.333 85.825 C 152.333 85.469,152.414 85.333,152.625 85.331 C 152.874 85.329,152.880 85.305,152.667 85.167 C 152.500 85.059,152.486 85.004,152.625 85.003 C 152.751 85.001,152.833 84.771,152.833 84.417 C 152.833 84.009,152.909 83.833,153.083 83.833 C 153.221 83.833,153.338 83.702,153.343 83.542 C 153.372 82.651,153.512 81.936,153.702 81.708 C 154.084 81.248,154.003 73.377,153.611 72.799 C 153.442 72.551,153.353 72.269,153.413 72.173 C 153.577 71.908,153.343 71.333,153.072 71.333 C 152.900 71.333,152.833 71.123,152.833 70.578 C 152.833 70.061,152.755 69.793,152.583 69.727 C 152.441 69.672,152.333 69.424,152.333 69.149 C 152.333 68.831,152.248 68.667,152.083 68.667 C 151.917 68.667,151.833 68.500,151.833 68.167 C 151.833 67.843,151.749 67.667,151.594 67.667 C 151.446 67.667,151.335 67.461,151.302 67.125 C 151.271 66.801,151.166 66.600,151.042 66.625 C 150.927 66.648,150.833 66.517,150.833 66.333 C 150.833 66.150,150.683 65.850,150.500 65.667 C 150.317 65.483,150.167 65.258,150.167 65.167 C 150.167 65.075,150.054 65.000,149.917 65.000 C 149.779 65.000,149.667 64.887,149.667 64.750 C 149.667 64.612,149.554 64.500,149.417 64.500 C 149.279 64.500,149.167 64.387,149.167 64.250 C 149.167 64.112,149.054 64.000,148.917 64.000 C 148.778 64.000,148.667 63.852,148.667 63.667 C 148.667 63.481,148.556 63.333,148.417 63.333 C 148.279 63.333,148.167 63.221,148.167 63.083 C 148.167 62.946,148.054 62.833,147.917 62.833 C 147.779 62.833,147.667 62.721,147.667 62.583 C 147.667 62.442,147.517 62.333,147.323 62.333 C 147.123 62.333,147.026 62.260,147.090 62.155 C 147.151 62.057,147.043 61.936,146.850 61.886 C 146.658 61.836,146.500 61.691,146.500 61.564 C 146.500 61.437,146.387 61.333,146.250 61.333 C 146.112 61.333,146.000 61.221,146.000 61.083 C 146.000 60.946,145.896 60.833,145.769 60.833 C 145.643 60.833,145.498 60.676,145.447 60.483 C 145.397 60.290,145.276 60.183,145.178 60.243 C 145.080 60.304,145.000 60.272,145.000 60.173 C 145.000 59.944,143.231 58.167,143.004 58.167 C 142.910 58.167,142.833 58.054,142.833 57.917 C 142.833 57.779,142.721 57.667,142.583 57.667 C 142.446 57.667,142.333 57.554,142.333 57.417 C 142.333 57.279,142.221 57.167,142.083 57.167 C 141.946 57.167,141.833 57.080,141.833 56.974 C 141.833 56.747,140.558 55.500,140.326 55.500 C 140.239 55.500,140.167 55.387,140.167 55.250 C 140.167 55.112,140.062 55.000,139.934 55.000 C 139.807 55.000,139.659 54.887,139.606 54.750 C 139.554 54.612,139.404 54.500,139.273 54.500 C 139.142 54.500,138.992 54.387,138.940 54.250 C 138.839 53.987,138.741 53.966,138.333 54.121 M87.585 57.664 C 87.527 57.757,87.534 57.833,87.599 57.833 C 87.665 57.833,87.583 57.983,87.417 58.167 C 87.246 58.356,87.198 58.500,87.308 58.500 C 87.413 58.500,87.500 58.425,87.500 58.333 C 87.500 58.242,87.568 58.167,87.652 58.167 C 87.735 58.167,87.784 58.298,87.760 58.458 C 87.730 58.655,87.596 58.732,87.347 58.696 C 87.145 58.666,86.799 58.760,86.579 58.904 C 86.359 59.049,86.068 59.167,85.932 59.167 C 85.797 59.167,85.632 59.254,85.566 59.362 C 85.486 59.492,85.535 59.522,85.714 59.453 C 85.896 59.384,85.955 59.423,85.897 59.573 C 85.849 59.699,85.672 59.760,85.491 59.713 C 85.292 59.661,85.132 59.731,85.068 59.898 C 85.011 60.046,84.865 60.167,84.744 60.167 C 84.622 60.167,84.497 60.335,84.466 60.542 C 84.434 60.748,84.317 60.898,84.204 60.875 C 84.092 60.852,84.000 60.946,84.000 61.083 C 84.000 61.221,83.887 61.333,83.750 61.333 C 83.612 61.333,83.500 61.446,83.500 61.583 C 83.500 61.726,83.350 61.833,83.149 61.833 C 82.916 61.833,82.828 61.912,82.887 62.067 C 82.941 62.208,82.843 62.336,82.638 62.389 C 82.452 62.438,82.349 62.558,82.410 62.655 C 82.470 62.753,82.431 62.833,82.324 62.833 C 82.074 62.833,80.833 64.066,80.833 64.314 C 80.833 64.416,80.721 64.500,80.583 64.500 C 80.446 64.500,80.333 64.572,80.333 64.659 C 80.333 64.883,79.540 65.651,79.427 65.538 C 79.375 65.486,79.333 65.597,79.333 65.783 C 79.333 65.969,79.183 66.312,79.000 66.545 C 78.817 66.779,78.667 67.056,78.667 67.161 C 78.667 67.267,78.600 67.312,78.519 67.262 C 78.357 67.161,78.173 67.703,78.169 68.292 C 78.168 68.513,78.064 68.667,77.917 68.667 C 77.749 68.667,77.667 68.834,77.667 69.172 C 77.667 69.467,77.563 69.717,77.417 69.773 C 77.278 69.826,77.167 70.074,77.167 70.331 C 77.167 70.585,77.065 70.877,76.940 70.981 C 76.815 71.084,76.667 71.558,76.610 72.034 C 76.554 72.510,76.403 72.958,76.275 73.030 C 75.911 73.233,75.909 81.433,76.273 81.636 C 76.438 81.729,76.559 82.134,76.620 82.806 C 76.684 83.516,76.783 83.833,76.940 83.833 C 77.098 83.833,77.167 84.063,77.167 84.593 C 77.167 85.011,77.234 85.312,77.316 85.261 C 77.499 85.148,77.667 85.552,77.667 86.107 C 77.667 86.334,77.736 86.477,77.822 86.424 C 78.023 86.299,78.159 86.529,78.204 87.068 C 78.223 87.306,78.327 87.500,78.434 87.500 C 78.540 87.500,78.669 87.658,78.719 87.850 C 78.770 88.043,78.891 88.151,78.989 88.090 C 79.091 88.027,79.176 88.126,79.188 88.323 C 79.199 88.512,79.218 88.723,79.229 88.792 C 79.263 88.993,79.985 89.667,80.167 89.667 C 80.258 89.667,80.333 89.779,80.333 89.917 C 80.333 90.054,80.446 90.167,80.583 90.167 C 80.750 90.167,80.833 90.333,80.833 90.667 C 80.833 90.942,80.912 91.167,81.007 91.167 C 81.249 91.167,83.000 92.898,83.000 93.138 C 83.000 93.245,83.112 93.333,83.250 93.333 C 83.387 93.333,83.500 93.450,83.500 93.593 C 83.500 93.736,83.580 93.804,83.678 93.743 C 83.776 93.683,83.897 93.790,83.947 93.983 C 83.998 94.176,84.104 94.333,84.183 94.333 C 84.262 94.333,84.598 94.596,84.928 94.917 C 85.258 95.237,85.610 95.500,85.709 95.500 C 85.808 95.500,85.844 95.545,85.788 95.601 C 85.733 95.656,86.114 96.106,86.635 96.600 C 87.157 97.094,87.808 97.711,88.083 97.971 C 88.358 98.231,88.712 98.490,88.870 98.548 C 89.028 98.605,89.201 98.824,89.256 99.035 C 89.377 99.504,90.931 100.667,91.437 100.667 C 91.660 100.667,92.101 100.359,92.546 99.893 C 92.953 99.467,93.399 99.007,93.538 98.872 C 93.844 98.574,94.362 98.057,94.724 97.688 C 95.903 96.485,96.252 96.139,98.542 93.909 C 99.435 93.039,100.167 92.262,100.167 92.184 C 100.167 92.105,100.279 91.947,100.417 91.833 C 100.857 91.468,100.695 90.950,99.917 90.225 C 99.504 89.840,99.167 89.445,99.167 89.346 C 99.167 89.248,99.054 89.167,98.917 89.167 C 98.779 89.167,98.667 89.054,98.667 88.917 C 98.667 88.779,98.562 88.667,98.435 88.667 C 98.307 88.667,98.157 88.484,98.101 88.261 C 98.045 88.038,97.848 87.808,97.664 87.749 C 97.479 87.691,97.369 87.577,97.419 87.496 C 97.535 87.309,96.879 86.952,96.663 87.085 C 96.573 87.141,96.500 87.032,96.500 86.843 C 96.500 86.649,96.391 86.500,96.250 86.500 C 96.112 86.500,96.000 86.388,96.000 86.250 C 96.000 86.112,95.888 86.000,95.750 86.000 C 95.612 86.000,95.500 85.888,95.500 85.750 C 95.500 85.612,95.397 85.500,95.271 85.500 C 95.145 85.500,94.997 85.275,94.942 85.000 C 94.883 84.707,94.737 84.500,94.587 84.500 C 94.448 84.500,94.333 84.388,94.333 84.250 C 94.333 84.113,94.277 84.008,94.208 84.018 C 93.911 84.061,93.346 83.782,93.435 83.637 C 93.489 83.549,93.376 83.436,93.183 83.386 C 92.991 83.336,92.833 83.191,92.833 83.064 C 92.833 82.937,92.721 82.833,92.583 82.833 C 92.446 82.833,92.333 82.721,92.333 82.583 C 92.333 82.446,92.221 82.333,92.083 82.333 C 91.868 82.333,91.752 82.036,91.811 81.633 C 91.820 81.568,91.604 81.384,91.331 81.222 C 91.057 81.060,90.833 80.829,90.833 80.709 C 90.833 80.588,90.721 80.446,90.583 80.394 C 90.446 80.341,90.333 80.162,90.333 79.996 C 90.333 79.516,90.150 79.167,89.899 79.167 C 89.716 79.167,89.667 78.812,89.667 77.490 C 89.667 76.562,89.732 75.854,89.814 75.905 C 89.986 76.011,90.407 75.087,90.280 74.882 C 90.233 74.806,90.450 74.456,90.763 74.104 C 91.076 73.753,91.283 73.386,91.223 73.290 C 91.160 73.188,91.195 73.165,91.307 73.234 C 91.421 73.304,91.575 73.184,91.688 72.937 C 91.792 72.709,92.089 72.434,92.349 72.327 C 92.609 72.219,92.805 72.081,92.786 72.020 C 92.737 71.870,94.052 70.585,94.208 70.630 C 94.277 70.650,94.333 70.535,94.333 70.373 C 94.333 70.109,94.896 69.604,95.208 69.589 C 95.277 69.586,95.339 69.508,95.345 69.417 C 95.352 69.325,95.479 69.116,95.628 68.951 C 95.878 68.675,95.877 68.660,95.616 68.761 C 95.460 68.820,95.333 68.793,95.333 68.699 C 95.333 68.606,95.521 68.550,95.750 68.575 C 95.979 68.600,96.167 68.552,96.167 68.467 C 96.167 68.383,96.242 68.360,96.333 68.417 C 96.425 68.473,96.500 68.442,96.500 68.347 C 96.500 68.252,96.875 67.803,97.333 67.349 C 98.202 66.489,98.338 66.278,97.917 66.440 C 97.779 66.492,97.667 66.636,97.667 66.758 C 97.667 66.892,97.532 66.955,97.327 66.916 C 97.063 66.865,96.967 66.959,96.890 67.342 C 96.801 67.789,96.500 68.048,96.500 67.679 C 96.500 67.593,96.382 67.406,96.238 67.262 C 96.000 67.024,96.006 67.000,96.302 67.000 C 96.930 67.000,96.864 66.352,96.160 65.607 C 95.687 65.106,95.507 64.997,95.504 65.208 C 95.502 65.369,95.612 65.500,95.750 65.500 C 95.917 65.500,96.000 65.667,96.000 66.000 C 96.000 66.333,95.917 66.500,95.750 66.500 C 95.612 66.500,95.500 66.387,95.500 66.250 C 95.500 66.112,95.388 66.000,95.250 66.000 C 95.112 66.000,95.000 65.915,95.000 65.810 C 95.000 65.706,94.682 65.275,94.293 64.853 L 93.586 64.086 94.055 64.001 L 94.524 63.917 94.012 63.427 L 93.500 62.938 93.500 63.397 L 93.500 63.855 92.512 63.079 C 91.488 62.275,91.161 61.833,91.589 61.833 C 91.723 61.833,91.833 61.946,91.833 62.083 C 91.833 62.250,92.000 62.333,92.333 62.333 C 92.667 62.333,92.833 62.417,92.833 62.583 C 92.833 62.721,92.963 62.833,93.122 62.833 C 93.305 62.833,92.868 62.289,91.913 61.328 L 90.417 59.822 90.333 60.355 C 90.258 60.833,90.227 60.859,90.021 60.610 C 89.895 60.458,89.652 60.333,89.480 60.333 C 89.278 60.333,89.167 60.215,89.167 60.000 C 89.167 59.815,89.056 59.667,88.917 59.667 C 88.779 59.667,88.667 59.532,88.667 59.367 C 88.667 59.202,88.577 58.977,88.467 58.867 C 88.311 58.711,88.367 58.667,88.717 58.667 C 89.006 58.667,89.167 58.756,89.167 58.917 C 89.167 59.054,89.279 59.167,89.417 59.167 C 89.554 59.167,89.667 59.279,89.667 59.417 C 89.667 59.554,89.797 59.667,89.956 59.667 C 90.162 59.667,90.022 59.443,89.475 58.896 C 88.943 58.364,88.566 58.125,88.259 58.125 C 87.955 58.125,87.841 58.054,87.900 57.901 C 88.004 57.630,87.732 57.425,87.585 57.664 M91.333 61.250 C 91.333 61.479,91.309 61.667,91.279 61.667 C 91.249 61.667,91.049 61.479,90.833 61.250 L 90.442 60.833 90.888 60.833 C 91.252 60.833,91.333 60.909,91.333 61.250 M133.500 88.730 C 133.500 88.764,133.612 88.886,133.750 89.000 C 133.955 89.170,134.000 89.159,134.000 88.937 C 134.000 88.788,133.887 88.667,133.750 88.667 C 133.612 88.667,133.500 88.695,133.500 88.730 M138.250 92.333 C 139.736 93.827,139.741 93.833,139.205 93.833 C 138.718 93.833,138.667 93.786,138.667 93.333 C 138.667 92.889,138.611 92.833,138.167 92.833 C 137.722 92.833,137.667 92.778,137.667 92.333 C 137.667 92.000,137.583 91.833,137.417 91.833 C 137.279 91.833,137.167 91.721,137.167 91.583 C 137.167 91.446,137.054 91.333,136.917 91.333 C 136.779 91.333,136.667 91.221,136.667 91.083 C 136.667 90.730,136.608 90.684,138.250 92.333 M142.433 96.400 C 142.482 96.528,142.443 96.682,142.345 96.743 C 142.247 96.803,142.166 97.055,142.164 97.302 C 142.162 97.617,142.119 97.683,142.018 97.524 C 141.918 97.366,141.840 97.354,141.761 97.482 C 141.698 97.584,141.745 97.668,141.865 97.669 C 142.024 97.671,142.015 97.716,141.833 97.833 C 141.682 97.931,141.662 97.996,141.782 97.997 C 141.892 97.999,142.079 97.860,142.199 97.689 C 142.319 97.518,142.492 97.372,142.583 97.365 C 142.675 97.357,142.776 97.226,142.808 97.072 C 142.844 96.898,142.794 96.838,142.676 96.911 C 142.544 96.992,142.519 96.897,142.595 96.597 C 142.661 96.334,142.633 96.167,142.523 96.167 C 142.425 96.167,142.384 96.272,142.433 96.400 " stroke="none" fill="#0490fc" fill-rule="evenodd"></path><path id="path2" d="M189.833 51.083 C 189.833 51.285,189.574 51.333,188.500 51.333 C 187.426 51.333,187.167 51.382,187.167 51.583 C 187.167 51.772,186.963 51.833,186.333 51.833 C 185.704 51.833,185.500 51.894,185.500 52.083 C 185.500 52.269,185.306 52.333,184.750 52.333 C 184.194 52.333,184.000 52.398,184.000 52.583 C 184.000 52.751,183.833 52.833,183.495 52.833 C 183.217 52.833,182.950 52.937,182.901 53.065 C 182.852 53.192,182.592 53.340,182.323 53.394 C 182.038 53.451,181.833 53.598,181.833 53.746 C 181.833 53.886,181.721 54.000,181.583 54.000 C 181.446 54.000,181.333 54.112,181.333 54.250 C 181.333 54.417,181.167 54.500,180.833 54.500 C 180.500 54.500,180.333 54.583,180.333 54.750 C 180.333 54.887,180.218 55.000,180.078 55.000 C 179.938 55.000,179.780 55.112,179.727 55.250 C 179.674 55.387,179.527 55.500,179.399 55.500 C 179.271 55.500,179.167 55.612,179.167 55.750 C 179.167 55.887,179.054 56.000,178.917 56.000 C 178.779 56.000,178.667 56.112,178.667 56.250 C 178.667 56.387,178.554 56.500,178.417 56.500 C 178.279 56.500,178.167 56.615,178.167 56.755 C 178.167 56.896,178.054 57.054,177.917 57.106 C 177.774 57.161,177.667 57.410,177.667 57.684 C 177.667 58.002,177.581 58.167,177.417 58.167 C 177.279 58.167,177.167 58.279,177.167 58.417 C 177.167 58.554,177.054 58.667,176.917 58.667 C 176.779 58.667,176.667 58.814,176.667 58.994 C 176.667 59.173,176.511 59.465,176.322 59.642 C 176.132 59.818,175.991 60.065,176.008 60.190 C 176.096 60.826,175.982 61.333,175.750 61.333 C 175.545 61.333,175.500 61.620,175.500 62.917 C 175.500 64.213,175.455 64.500,175.250 64.500 C 175.050 64.500,175.000 64.750,175.000 65.750 C 175.000 66.750,175.050 67.000,175.250 67.000 C 175.451 67.000,175.500 67.259,175.500 68.333 C 175.500 69.407,175.549 69.667,175.750 69.667 C 175.928 69.667,176.000 69.848,176.000 70.296 C 176.000 70.720,176.109 71.019,176.333 71.211 C 176.517 71.368,176.667 71.685,176.667 71.915 C 176.667 72.176,176.761 72.333,176.917 72.333 C 177.054 72.333,177.167 72.446,177.167 72.583 C 177.167 72.721,177.279 72.833,177.417 72.833 C 177.554 72.833,177.667 72.946,177.667 73.083 C 177.667 73.221,177.779 73.333,177.917 73.333 C 178.083 73.333,178.167 73.500,178.167 73.833 C 178.167 74.167,178.250 74.333,178.417 74.333 C 178.554 74.333,178.667 74.448,178.667 74.587 C 178.667 74.735,178.871 74.883,179.156 74.940 C 179.425 74.993,179.685 75.141,179.734 75.269 C 179.783 75.396,179.938 75.500,180.078 75.500 C 180.218 75.500,180.333 75.612,180.333 75.750 C 180.333 75.887,180.446 76.000,180.583 76.000 C 180.721 76.000,180.833 76.112,180.833 76.250 C 180.833 76.417,181.000 76.500,181.333 76.500 C 181.667 76.500,181.833 76.583,181.833 76.750 C 181.833 76.887,181.946 77.000,182.083 77.000 C 182.221 77.000,182.333 77.112,182.333 77.250 C 182.333 77.423,182.507 77.500,182.897 77.500 C 183.321 77.500,183.483 77.583,183.548 77.833 C 183.607 78.059,183.776 78.167,184.068 78.167 C 184.341 78.167,184.500 78.259,184.500 78.417 C 184.500 78.581,184.665 78.667,184.982 78.667 C 185.257 78.667,185.506 78.774,185.560 78.917 C 185.616 79.063,185.866 79.167,186.161 79.167 C 186.499 79.167,186.667 79.249,186.667 79.417 C 186.667 79.602,186.861 79.667,187.417 79.667 C 187.972 79.667,188.167 79.731,188.167 79.917 C 188.167 80.101,188.359 80.167,188.899 80.167 C 189.396 80.167,189.662 80.247,189.727 80.417 C 189.792 80.587,190.058 80.667,190.559 80.667 C 191.154 80.667,191.311 80.730,191.382 81.000 C 191.450 81.263,191.609 81.333,192.133 81.333 C 192.570 81.333,192.831 81.419,192.894 81.583 C 192.964 81.767,193.255 81.833,193.995 81.833 C 194.777 81.833,195.000 81.889,195.000 82.083 C 195.000 82.272,195.204 82.333,195.833 82.333 C 196.463 82.333,196.667 82.394,196.667 82.583 C 196.667 82.750,196.833 82.833,197.167 82.833 C 197.500 82.833,197.667 82.917,197.667 83.083 C 197.667 83.250,197.833 83.333,198.167 83.333 C 198.500 83.333,198.667 83.417,198.667 83.583 C 198.667 83.758,198.842 83.833,199.245 83.833 C 199.700 83.833,199.802 83.889,199.723 84.093 C 199.656 84.267,199.741 84.384,199.978 84.446 C 200.174 84.497,200.333 84.643,200.333 84.769 C 200.333 84.896,200.446 85.000,200.583 85.000 C 200.721 85.000,200.833 85.112,200.833 85.250 C 200.833 85.388,200.946 85.500,201.083 85.500 C 201.250 85.500,201.333 85.667,201.333 86.000 C 201.333 86.333,201.417 86.500,201.583 86.500 C 201.785 86.500,201.833 86.759,201.833 87.833 C 201.833 88.907,201.785 89.167,201.583 89.167 C 201.417 89.167,201.333 89.333,201.333 89.667 C 201.333 90.000,201.250 90.167,201.083 90.167 C 200.946 90.167,200.833 90.271,200.833 90.399 C 200.833 90.527,200.721 90.674,200.583 90.727 C 200.446 90.780,200.333 90.938,200.333 91.078 C 200.333 91.218,200.229 91.333,200.101 91.333 C 199.973 91.333,199.826 91.446,199.773 91.583 C 199.720 91.721,199.562 91.833,199.422 91.833 C 199.282 91.833,199.167 91.946,199.167 92.083 C 199.167 92.221,199.054 92.333,198.917 92.333 C 198.779 92.333,198.667 92.446,198.667 92.583 C 198.667 92.750,198.500 92.833,198.167 92.833 C 197.833 92.833,197.667 92.917,197.667 93.083 C 197.667 93.278,197.444 93.333,196.661 93.333 C 195.922 93.333,195.631 93.399,195.560 93.583 C 195.483 93.784,195.109 93.833,193.649 93.833 C 192.146 93.833,191.833 93.790,191.833 93.583 C 191.833 93.387,191.602 93.333,190.750 93.333 C 189.898 93.333,189.667 93.280,189.667 93.083 C 189.667 92.917,189.500 92.833,189.167 92.833 C 188.833 92.833,188.667 92.750,188.667 92.583 C 188.667 92.417,188.500 92.333,188.167 92.333 C 187.833 92.333,187.667 92.250,187.667 92.083 C 187.667 91.909,187.491 91.833,187.083 91.833 C 186.676 91.833,186.500 91.758,186.500 91.583 C 186.500 91.446,186.387 91.333,186.250 91.333 C 186.112 91.333,186.000 91.227,186.000 91.097 C 186.000 90.966,185.775 90.810,185.500 90.750 C 185.225 90.690,185.000 90.534,185.000 90.403 C 185.000 90.273,184.887 90.167,184.750 90.167 C 184.612 90.167,184.500 90.054,184.500 89.917 C 184.500 89.779,184.406 89.663,184.292 89.660 C 184.177 89.656,183.899 89.431,183.674 89.160 C 183.450 88.888,183.168 88.667,183.049 88.667 C 182.931 88.667,182.833 88.554,182.833 88.417 C 182.833 88.279,182.721 88.167,182.583 88.167 C 182.446 88.167,182.333 88.060,182.333 87.930 C 182.333 87.800,182.115 87.645,181.847 87.586 C 181.580 87.528,181.324 87.384,181.280 87.267 C 181.133 86.885,179.543 86.936,179.296 87.330 C 179.181 87.515,178.992 87.667,178.877 87.667 C 178.761 87.667,178.667 87.779,178.667 87.917 C 178.667 88.054,178.554 88.167,178.417 88.167 C 178.279 88.167,178.167 88.279,178.167 88.417 C 178.167 88.554,178.054 88.667,177.917 88.667 C 177.779 88.667,177.667 88.779,177.667 88.917 C 177.667 89.054,177.554 89.167,177.417 89.167 C 177.279 89.167,177.167 89.279,177.167 89.417 C 177.167 89.554,177.054 89.667,176.917 89.667 C 176.779 89.667,176.667 89.779,176.667 89.917 C 176.667 90.054,176.583 90.167,176.482 90.167 C 176.226 90.167,175.506 90.871,175.503 91.125 C 175.501 91.240,175.387 91.333,175.250 91.333 C 175.112 91.333,175.000 91.446,175.000 91.583 C 175.000 91.721,174.887 91.833,174.750 91.833 C 174.612 91.833,174.500 91.946,174.500 92.083 C 174.500 92.221,174.387 92.333,174.250 92.333 C 174.049 92.333,174.000 92.593,174.000 93.667 C 174.000 94.741,174.049 95.000,174.250 95.000 C 174.387 95.000,174.500 95.112,174.500 95.250 C 174.500 95.388,174.612 95.500,174.750 95.500 C 174.887 95.500,175.000 95.612,175.000 95.750 C 175.000 95.888,175.112 96.000,175.250 96.000 C 175.387 96.000,175.500 96.112,175.500 96.250 C 175.500 96.388,175.612 96.500,175.750 96.500 C 175.887 96.500,176.000 96.612,176.000 96.750 C 176.000 96.888,176.104 97.000,176.232 97.000 C 176.360 97.000,176.508 97.112,176.560 97.250 C 176.613 97.388,176.771 97.500,176.911 97.500 C 177.056 97.500,177.167 97.645,177.167 97.833 C 177.167 98.019,177.278 98.167,177.417 98.167 C 177.554 98.167,177.667 98.279,177.667 98.417 C 177.667 98.554,177.771 98.667,177.899 98.667 C 178.027 98.667,178.174 98.779,178.227 98.917 C 178.280 99.054,178.513 99.167,178.745 99.167 C 179.009 99.167,179.167 99.260,179.167 99.417 C 179.167 99.554,179.282 99.667,179.422 99.667 C 179.562 99.667,179.720 99.779,179.773 99.917 C 179.828 100.059,180.076 100.167,180.351 100.167 C 180.669 100.167,180.833 100.252,180.833 100.417 C 180.833 100.581,180.998 100.667,181.314 100.667 C 181.654 100.667,181.820 100.764,181.882 101.000 C 181.939 101.221,182.109 101.333,182.383 101.333 C 182.611 101.333,182.841 101.446,182.894 101.583 C 182.950 101.729,183.199 101.833,183.495 101.833 C 183.833 101.833,184.000 101.916,184.000 102.083 C 184.000 102.250,184.167 102.333,184.500 102.333 C 184.833 102.333,185.000 102.417,185.000 102.583 C 185.000 102.772,185.204 102.833,185.833 102.833 C 186.463 102.833,186.667 102.894,186.667 103.083 C 186.667 103.277,186.887 103.333,187.649 103.333 C 188.368 103.333,188.657 103.400,188.727 103.583 C 188.809 103.798,189.551 103.833,193.995 103.833 C 198.481 103.833,199.167 103.800,199.167 103.583 C 199.167 103.389,199.389 103.333,200.172 103.333 C 200.912 103.333,201.202 103.267,201.273 103.083 C 201.338 102.914,201.604 102.833,202.101 102.833 C 202.641 102.833,202.833 102.768,202.833 102.583 C 202.833 102.416,203.001 102.333,203.339 102.333 C 203.634 102.333,203.884 102.229,203.940 102.083 C 203.992 101.946,204.217 101.833,204.440 101.833 C 204.662 101.833,204.885 101.725,204.936 101.594 C 204.986 101.462,205.247 101.306,205.514 101.247 C 205.781 101.188,206.000 101.034,206.000 100.903 C 206.000 100.773,206.112 100.667,206.250 100.667 C 206.387 100.667,206.500 100.554,206.500 100.417 C 206.500 100.249,206.667 100.167,207.005 100.167 C 207.301 100.167,207.550 100.063,207.606 99.917 C 207.659 99.779,207.807 99.667,207.934 99.667 C 208.062 99.667,208.167 99.554,208.167 99.417 C 208.167 99.279,208.279 99.167,208.417 99.167 C 208.554 99.167,208.667 99.054,208.667 98.917 C 208.667 98.779,208.779 98.667,208.917 98.667 C 209.054 98.667,209.167 98.554,209.167 98.417 C 209.167 98.279,209.279 98.167,209.417 98.167 C 209.556 98.167,209.667 98.019,209.667 97.833 C 209.667 97.645,209.778 97.500,209.922 97.500 C 210.062 97.500,210.220 97.388,210.273 97.250 C 210.326 97.112,210.473 97.000,210.601 97.000 C 210.748 97.000,210.833 96.816,210.833 96.500 C 210.833 96.167,210.917 96.000,211.083 96.000 C 211.221 96.000,211.333 95.896,211.333 95.768 C 211.333 95.640,211.446 95.492,211.583 95.440 C 211.729 95.384,211.833 95.134,211.833 94.839 C 211.833 94.501,211.916 94.333,212.083 94.333 C 212.269 94.333,212.333 94.139,212.333 93.583 C 212.333 93.028,212.398 92.833,212.583 92.833 C 212.767 92.833,212.833 92.643,212.833 92.120 C 212.833 91.614,212.930 91.325,213.167 91.122 C 213.739 90.632,213.644 84.500,213.064 84.500 C 212.898 84.500,212.833 84.265,212.833 83.667 C 212.833 83.037,212.772 82.833,212.583 82.833 C 212.398 82.833,212.333 82.639,212.333 82.083 C 212.333 81.528,212.269 81.333,212.083 81.333 C 211.946 81.333,211.833 81.218,211.833 81.078 C 211.833 80.938,211.721 80.780,211.583 80.727 C 211.446 80.674,211.333 80.449,211.333 80.227 C 211.333 80.005,211.221 79.780,211.083 79.727 C 210.946 79.674,210.833 79.527,210.833 79.399 C 210.833 79.271,210.721 79.167,210.583 79.167 C 210.446 79.167,210.333 79.054,210.333 78.917 C 210.333 78.778,210.185 78.667,210.000 78.667 C 209.815 78.667,209.667 78.556,209.667 78.417 C 209.667 78.279,209.554 78.167,209.417 78.167 C 209.279 78.167,209.167 78.054,209.167 77.917 C 209.167 77.779,209.054 77.667,208.917 77.667 C 208.778 77.667,208.667 77.519,208.667 77.333 C 208.667 77.150,208.562 77.000,208.434 77.000 C 208.307 77.000,208.159 76.887,208.106 76.750 C 208.054 76.612,207.821 76.500,207.589 76.500 C 207.325 76.500,207.167 76.406,207.167 76.250 C 207.167 76.111,207.019 76.000,206.833 76.000 C 206.648 76.000,206.500 75.889,206.500 75.750 C 206.500 75.583,206.333 75.500,206.000 75.500 C 205.667 75.500,205.500 75.417,205.500 75.250 C 205.500 75.083,205.333 75.000,205.000 75.000 C 204.667 75.000,204.500 74.917,204.500 74.750 C 204.500 74.586,204.335 74.500,204.019 74.500 C 203.673 74.500,203.514 74.403,203.448 74.154 C 203.394 73.945,203.238 73.821,203.054 73.840 C 202.504 73.897,202.333 73.837,202.333 73.583 C 202.333 73.398,202.139 73.333,201.583 73.333 C 201.028 73.333,200.833 73.269,200.833 73.083 C 200.833 72.909,200.657 72.833,200.250 72.833 C 199.843 72.833,199.667 72.758,199.667 72.583 C 199.667 72.399,199.474 72.333,198.934 72.333 C 198.437 72.333,198.172 72.253,198.106 72.083 C 198.036 71.899,197.745 71.833,197.005 71.833 C 196.223 71.833,196.000 71.778,196.000 71.583 C 196.000 71.398,195.806 71.333,195.250 71.333 C 194.717 71.333,194.500 71.266,194.500 71.099 C 194.500 70.945,194.220 70.826,193.679 70.752 C 193.211 70.687,192.819 70.537,192.768 70.403 C 192.711 70.255,192.434 70.167,192.023 70.167 C 191.595 70.167,191.336 70.080,191.273 69.917 C 191.207 69.745,190.939 69.667,190.422 69.667 C 189.862 69.667,189.667 69.602,189.667 69.417 C 189.667 69.279,189.554 69.167,189.417 69.167 C 189.279 69.167,189.167 69.054,189.167 68.917 C 189.167 68.750,189.000 68.667,188.667 68.667 C 188.333 68.667,188.167 68.583,188.167 68.417 C 188.167 68.279,188.054 68.167,187.917 68.167 C 187.779 68.167,187.667 68.054,187.667 67.917 C 187.667 67.779,187.554 67.667,187.417 67.667 C 187.278 67.667,187.167 67.519,187.167 67.333 C 187.167 67.150,187.017 66.850,186.833 66.667 C 186.560 66.394,186.500 66.111,186.500 65.103 C 186.500 64.012,186.538 63.862,186.833 63.785 C 187.059 63.726,187.167 63.558,187.167 63.266 C 187.167 62.992,187.259 62.833,187.417 62.833 C 187.554 62.833,187.667 62.721,187.667 62.583 C 187.667 62.446,187.779 62.333,187.917 62.333 C 188.054 62.333,188.167 62.221,188.167 62.083 C 188.167 61.917,188.333 61.833,188.667 61.833 C 189.000 61.833,189.167 61.750,189.167 61.583 C 189.167 61.416,189.334 61.333,189.672 61.333 C 189.967 61.333,190.217 61.229,190.273 61.083 C 190.353 60.875,190.833 60.833,193.164 60.833 C 195.445 60.833,195.997 60.879,196.167 61.083 C 196.286 61.227,196.649 61.333,197.020 61.333 C 197.484 61.333,197.667 61.404,197.667 61.583 C 197.667 61.750,197.833 61.833,198.167 61.833 C 198.500 61.833,198.667 61.917,198.667 62.083 C 198.667 62.248,198.831 62.333,199.149 62.333 C 199.424 62.333,199.672 62.441,199.727 62.583 C 199.780 62.721,199.938 62.833,200.078 62.833 C 200.218 62.833,200.333 62.946,200.333 63.083 C 200.333 63.250,200.500 63.333,200.833 63.333 C 201.167 63.333,201.333 63.417,201.333 63.583 C 201.333 63.721,201.446 63.833,201.583 63.833 C 201.721 63.833,201.835 63.927,201.836 64.042 C 201.840 64.296,202.559 65.000,202.815 65.000 C 202.917 65.000,203.000 65.112,203.000 65.250 C 203.000 65.417,203.167 65.500,203.500 65.500 C 203.833 65.500,204.000 65.583,204.000 65.750 C 204.000 65.950,204.250 66.000,205.250 66.000 C 206.250 66.000,206.500 65.950,206.500 65.750 C 206.500 65.611,206.648 65.500,206.833 65.500 C 207.019 65.500,207.167 65.389,207.167 65.250 C 207.167 65.112,207.279 65.000,207.417 65.000 C 207.554 65.000,207.667 64.896,207.667 64.768 C 207.667 64.640,207.779 64.492,207.917 64.440 C 208.054 64.387,208.167 64.229,208.167 64.089 C 208.167 63.948,208.279 63.833,208.417 63.833 C 208.554 63.833,208.667 63.721,208.667 63.583 C 208.667 63.446,208.779 63.333,208.917 63.333 C 209.054 63.333,209.167 63.221,209.167 63.083 C 209.167 62.946,209.279 62.833,209.417 62.833 C 209.554 62.833,209.667 62.721,209.667 62.583 C 209.667 62.446,209.760 62.332,209.875 62.330 C 210.196 62.326,210.833 61.576,210.833 61.203 C 210.833 61.019,210.946 60.826,211.083 60.773 C 211.264 60.704,211.333 60.420,211.333 59.750 C 211.333 59.080,211.264 58.796,211.083 58.727 C 210.946 58.674,210.833 58.527,210.833 58.399 C 210.833 58.271,210.721 58.167,210.583 58.167 C 210.446 58.167,210.333 58.054,210.333 57.917 C 210.333 57.778,210.185 57.667,210.000 57.667 C 209.778 57.667,209.667 57.556,209.667 57.333 C 209.667 57.148,209.556 57.000,209.417 57.000 C 209.279 57.000,209.167 56.887,209.167 56.750 C 209.167 56.612,209.054 56.500,208.917 56.500 C 208.779 56.500,208.667 56.387,208.667 56.250 C 208.667 56.083,208.500 56.000,208.167 56.000 C 207.833 56.000,207.667 55.917,207.667 55.750 C 207.667 55.612,207.554 55.500,207.417 55.500 C 207.279 55.500,207.167 55.387,207.167 55.250 C 207.167 55.111,207.019 55.000,206.833 55.000 C 206.648 55.000,206.500 54.889,206.500 54.750 C 206.500 54.583,206.333 54.500,206.000 54.500 C 205.687 54.500,205.500 54.414,205.500 54.271 C 205.500 54.145,205.275 53.997,205.000 53.942 C 204.697 53.881,204.500 53.738,204.500 53.578 C 204.500 53.432,204.429 53.358,204.342 53.411 C 204.255 53.465,204.102 53.357,204.002 53.171 C 203.883 52.948,203.653 52.833,203.327 52.833 C 202.999 52.833,202.833 52.749,202.833 52.583 C 202.833 52.398,202.639 52.333,202.083 52.333 C 201.528 52.333,201.333 52.269,201.333 52.083 C 201.333 51.909,201.157 51.833,200.750 51.833 C 200.343 51.833,200.167 51.758,200.167 51.583 C 200.167 51.383,199.917 51.333,198.917 51.333 C 197.917 51.333,197.667 51.283,197.667 51.083 C 197.667 50.868,197.120 50.833,193.750 50.833 C 190.380 50.833,189.833 50.868,189.833 51.083 M230.833 68.417 C 230.833 68.618,230.574 68.667,229.500 68.667 C 228.426 68.667,228.167 68.715,228.167 68.917 C 228.167 69.083,228.000 69.167,227.667 69.167 C 227.333 69.167,227.167 69.250,227.167 69.417 C 227.167 69.591,226.991 69.667,226.583 69.667 C 226.176 69.667,226.000 69.742,226.000 69.917 C 226.000 70.083,225.833 70.167,225.500 70.167 C 225.179 70.167,225.000 70.251,225.000 70.403 C 225.000 70.534,224.775 70.690,224.500 70.750 C 224.225 70.810,224.000 70.966,224.000 71.097 C 224.000 71.227,223.887 71.333,223.750 71.333 C 223.612 71.333,223.500 71.446,223.500 71.583 C 223.500 71.758,223.324 71.833,222.917 71.833 C 222.509 71.833,222.333 71.909,222.333 72.083 C 222.333 72.221,222.221 72.333,222.083 72.333 C 221.946 72.333,221.833 72.446,221.833 72.583 C 221.833 72.721,221.721 72.833,221.583 72.833 C 221.446 72.833,221.333 72.946,221.333 73.083 C 221.333 73.221,221.221 73.333,221.083 73.333 C 220.946 73.333,220.833 73.438,220.833 73.566 C 220.833 73.693,220.721 73.841,220.583 73.894 C 220.446 73.946,220.333 74.104,220.333 74.245 C 220.333 74.385,220.262 74.500,220.175 74.500 C 219.866 74.500,219.167 75.294,219.167 75.644 C 219.167 75.849,219.061 76.000,218.917 76.000 C 218.779 76.000,218.667 76.112,218.667 76.250 C 218.667 76.387,218.554 76.500,218.417 76.500 C 218.242 76.500,218.167 76.676,218.167 77.083 C 218.167 77.491,218.091 77.667,217.917 77.667 C 217.750 77.667,217.667 77.833,217.667 78.167 C 217.667 78.500,217.583 78.667,217.417 78.667 C 217.231 78.667,217.167 78.861,217.167 79.417 C 217.167 79.942,217.098 80.167,216.938 80.167 C 216.691 80.167,216.500 80.866,216.500 81.771 C 216.500 82.153,216.422 82.333,216.257 82.333 C 216.050 82.333,216.013 82.928,216.013 86.250 C 216.012 89.577,216.049 90.167,216.256 90.167 C 216.411 90.167,216.501 90.335,216.502 90.625 C 216.505 91.532,216.710 92.333,216.938 92.333 C 217.098 92.333,217.167 92.560,217.167 93.083 C 217.167 93.639,217.231 93.833,217.417 93.833 C 217.581 93.833,217.667 93.998,217.667 94.316 C 217.667 94.590,217.774 94.839,217.917 94.894 C 218.054 94.946,218.167 95.104,218.167 95.245 C 218.167 95.385,218.279 95.500,218.417 95.500 C 218.583 95.500,218.667 95.667,218.667 96.000 C 218.667 96.333,218.750 96.500,218.917 96.500 C 219.054 96.500,219.167 96.612,219.167 96.750 C 219.167 96.888,219.314 97.000,219.495 97.000 C 219.718 97.000,219.792 97.080,219.727 97.250 C 219.660 97.423,219.738 97.500,219.982 97.500 C 220.256 97.500,220.333 97.603,220.333 97.966 C 220.333 98.279,220.495 98.566,220.826 98.841 C 221.097 99.066,221.322 99.344,221.326 99.458 C 221.330 99.577,221.548 99.667,221.833 99.667 C 222.167 99.667,222.333 99.750,222.333 99.917 C 222.333 100.054,222.446 100.167,222.583 100.167 C 222.721 100.167,222.833 100.279,222.833 100.417 C 222.833 100.554,222.975 100.667,223.147 100.667 C 223.321 100.667,223.500 100.816,223.548 101.000 C 223.607 101.225,223.776 101.333,224.068 101.333 C 224.341 101.333,224.500 101.425,224.500 101.583 C 224.500 101.750,224.667 101.833,225.000 101.833 C 225.333 101.833,225.500 101.917,225.500 102.083 C 225.500 102.251,225.667 102.333,226.005 102.333 C 226.301 102.333,226.550 102.437,226.606 102.583 C 226.661 102.726,226.910 102.833,227.184 102.833 C 227.502 102.833,227.667 102.919,227.667 103.083 C 227.667 103.277,227.887 103.333,228.649 103.333 C 229.368 103.333,229.657 103.400,229.727 103.583 C 229.809 103.797,230.468 103.833,234.245 103.833 C 238.064 103.833,238.667 103.799,238.667 103.583 C 238.667 103.389,238.889 103.333,239.672 103.333 C 240.412 103.333,240.702 103.267,240.773 103.083 C 240.828 102.941,241.076 102.833,241.351 102.833 C 241.669 102.833,241.833 102.748,241.833 102.583 C 241.833 102.417,242.000 102.333,242.333 102.333 C 242.667 102.333,242.833 102.250,242.833 102.083 C 242.833 101.916,243.001 101.833,243.339 101.833 C 243.634 101.833,243.884 101.729,243.940 101.583 C 243.992 101.446,244.140 101.333,244.268 101.333 C 244.396 101.333,244.500 101.183,244.500 101.000 C 244.500 100.741,244.611 100.667,245.000 100.667 C 245.333 100.667,245.500 100.583,245.500 100.417 C 245.500 100.279,245.612 100.167,245.750 100.167 C 245.887 100.167,246.000 100.054,246.000 99.917 C 246.000 99.779,246.112 99.667,246.250 99.667 C 246.387 99.667,246.500 99.554,246.500 99.417 C 246.500 99.278,246.648 99.167,246.833 99.167 C 247.019 99.167,247.167 99.056,247.167 98.917 C 247.167 98.779,247.279 98.667,247.417 98.667 C 247.554 98.667,247.667 98.554,247.667 98.417 C 247.667 98.279,247.779 98.167,247.917 98.167 C 248.056 98.167,248.167 98.019,248.167 97.833 C 248.167 97.648,248.278 97.500,248.417 97.500 C 248.554 97.500,248.667 97.388,248.667 97.250 C 248.667 97.112,248.779 97.000,248.917 97.000 C 249.083 97.000,249.167 96.833,249.167 96.500 C 249.167 96.167,249.250 96.000,249.417 96.000 C 249.554 96.000,249.667 95.888,249.667 95.750 C 249.667 95.612,249.771 95.500,249.899 95.500 C 250.154 95.500,250.333 95.150,250.333 94.653 C 250.333 94.477,250.446 94.333,250.583 94.333 C 250.748 94.333,250.833 94.169,250.833 93.851 C 250.833 93.576,250.941 93.328,251.083 93.273 C 251.247 93.210,251.333 92.951,251.333 92.523 C 251.333 92.095,251.420 91.836,251.583 91.773 C 251.767 91.702,251.833 91.412,251.833 90.672 C 251.833 89.889,251.889 89.667,252.083 89.667 C 252.297 89.667,252.333 89.176,252.333 86.250 C 252.333 83.324,252.297 82.833,252.083 82.833 C 251.889 82.833,251.833 82.613,251.833 81.851 C 251.833 81.132,251.766 80.843,251.583 80.773 C 251.418 80.710,251.333 80.448,251.333 80.000 C 251.333 79.552,251.249 79.290,251.083 79.227 C 250.941 79.172,250.833 78.924,250.833 78.649 C 250.833 78.341,250.747 78.167,250.594 78.167 C 250.446 78.167,250.335 77.961,250.302 77.625 C 250.264 77.229,250.172 77.090,249.958 77.106 C 249.733 77.124,249.667 77.000,249.667 76.565 C 249.667 76.174,249.590 76.000,249.417 76.000 C 249.279 76.000,249.167 75.887,249.167 75.750 C 249.167 75.612,249.054 75.500,248.917 75.500 C 248.779 75.500,248.667 75.387,248.667 75.250 C 248.667 75.112,248.554 75.000,248.417 75.000 C 248.250 75.000,248.167 74.833,248.167 74.500 C 248.167 74.167,248.083 74.000,247.917 74.000 C 247.779 74.000,247.665 73.906,247.664 73.792 C 247.660 73.538,246.941 72.833,246.685 72.833 C 246.583 72.833,246.500 72.721,246.500 72.583 C 246.500 72.417,246.333 72.333,246.000 72.333 C 245.667 72.333,245.500 72.250,245.500 72.083 C 245.500 71.946,245.387 71.833,245.250 71.833 C 245.112 71.833,245.000 71.721,245.000 71.583 C 245.000 71.446,244.887 71.333,244.750 71.333 C 244.612 71.333,244.500 71.221,244.500 71.083 C 244.500 70.944,244.352 70.833,244.167 70.833 C 243.983 70.833,243.683 70.683,243.500 70.500 C 243.317 70.317,242.979 70.167,242.750 70.167 C 242.491 70.167,242.333 70.072,242.333 69.917 C 242.333 69.750,242.167 69.667,241.833 69.667 C 241.500 69.667,241.333 69.583,241.333 69.417 C 241.333 69.228,241.130 69.167,240.500 69.167 C 239.870 69.167,239.667 69.106,239.667 68.917 C 239.667 68.722,239.444 68.667,238.667 68.667 C 237.889 68.667,237.667 68.611,237.667 68.417 C 237.667 68.203,237.176 68.167,234.250 68.167 C 231.324 68.167,230.833 68.203,230.833 68.417 M258.667 68.917 C 258.667 69.083,258.500 69.167,258.167 69.167 C 257.833 69.167,257.667 69.250,257.667 69.417 C 257.667 69.554,257.554 69.667,257.417 69.667 C 257.196 69.667,257.167 71.620,257.167 86.250 C 257.167 100.880,257.196 102.833,257.417 102.833 C 257.554 102.833,257.667 102.946,257.667 103.083 C 257.667 103.300,258.306 103.333,262.417 103.333 C 266.366 103.333,267.167 103.294,267.167 103.101 C 267.167 102.973,267.279 102.826,267.417 102.773 C 267.635 102.689,267.667 101.451,267.667 93.023 C 267.667 84.595,267.698 83.357,267.917 83.273 C 268.082 83.210,268.167 82.949,268.167 82.505 C 268.167 82.019,268.236 81.833,268.417 81.833 C 268.554 81.833,268.667 81.721,268.667 81.583 C 268.667 81.446,268.779 81.333,268.917 81.333 C 269.056 81.333,269.167 81.185,269.167 81.000 C 269.167 80.815,269.278 80.667,269.417 80.667 C 269.554 80.667,269.667 80.554,269.667 80.417 C 269.667 80.278,269.815 80.167,270.000 80.167 C 270.185 80.167,270.333 80.056,270.333 79.917 C 270.333 79.750,270.500 79.667,270.833 79.667 C 271.167 79.667,271.333 79.583,271.333 79.417 C 271.333 79.250,271.500 79.167,271.833 79.167 C 272.153 79.167,272.333 79.082,272.333 78.931 C 272.333 78.758,272.620 78.680,273.417 78.639 C 275.293 78.542,276.667 78.666,276.667 78.931 C 276.667 79.082,276.847 79.167,277.167 79.167 C 277.500 79.167,277.667 79.250,277.667 79.417 C 277.667 79.554,277.779 79.667,277.917 79.667 C 278.054 79.667,278.167 79.779,278.167 79.917 C 278.167 80.054,278.279 80.167,278.417 80.167 C 278.554 80.167,278.667 80.279,278.667 80.417 C 278.667 80.554,278.779 80.667,278.917 80.667 C 279.072 80.667,279.167 80.824,279.167 81.082 C 279.167 81.310,279.307 81.585,279.478 81.691 C 279.663 81.807,279.756 82.008,279.709 82.190 C 279.587 82.657,279.810 83.333,280.087 83.333 C 280.302 83.333,280.333 84.613,280.333 93.333 L 280.333 103.333 285.000 103.333 C 289.037 103.333,289.667 103.300,289.667 103.083 C 289.667 102.944,289.815 102.833,290.000 102.833 C 290.330 102.833,290.333 102.722,290.333 90.500 C 290.333 78.278,290.330 78.167,290.000 78.167 C 289.701 78.167,289.667 78.056,289.667 77.083 C 289.667 76.231,289.613 76.000,289.417 76.000 C 289.250 76.000,289.167 75.833,289.167 75.500 C 289.167 75.167,289.083 75.000,288.917 75.000 C 288.750 75.000,288.667 74.833,288.667 74.500 C 288.667 74.167,288.583 74.000,288.417 74.000 C 288.278 74.000,288.167 73.852,288.167 73.667 C 288.167 73.481,288.056 73.333,287.917 73.333 C 287.779 73.333,287.667 73.221,287.667 73.083 C 287.667 72.946,287.554 72.833,287.417 72.833 C 287.279 72.833,287.167 72.721,287.167 72.583 C 287.167 72.444,287.019 72.333,286.833 72.333 C 286.648 72.333,286.500 72.222,286.500 72.083 C 286.500 71.946,286.387 71.833,286.250 71.833 C 286.112 71.833,286.000 71.721,286.000 71.583 C 286.000 71.446,285.887 71.333,285.750 71.333 C 285.612 71.333,285.500 71.230,285.500 71.104 C 285.500 70.978,285.275 70.830,285.000 70.775 C 284.697 70.714,284.500 70.571,284.500 70.411 C 284.500 70.266,284.429 70.191,284.342 70.245 C 284.255 70.299,284.102 70.191,284.002 70.005 C 283.883 69.782,283.653 69.667,283.327 69.667 C 282.999 69.667,282.833 69.583,282.833 69.417 C 282.833 69.222,282.611 69.167,281.833 69.167 C 281.056 69.167,280.833 69.111,280.833 68.917 C 280.833 68.701,280.278 68.667,276.833 68.667 C 273.389 68.667,272.833 68.701,272.833 68.917 C 272.833 69.102,272.639 69.167,272.083 69.167 C 271.528 69.167,271.333 69.231,271.333 69.417 C 271.333 69.583,271.167 69.667,270.833 69.667 C 270.500 69.667,270.333 69.750,270.333 69.917 C 270.333 70.076,270.173 70.167,269.894 70.167 C 269.473 70.167,268.667 70.829,268.667 71.175 C 268.667 71.262,268.442 71.333,268.167 71.333 C 267.833 71.333,267.667 71.417,267.667 71.583 C 267.667 71.721,267.554 71.833,267.417 71.833 C 267.279 71.833,267.167 71.946,267.167 72.083 C 267.167 72.221,267.060 72.333,266.929 72.333 C 266.798 72.333,266.657 72.465,266.615 72.625 C 266.573 72.785,266.530 72.448,266.519 71.875 C 266.504 71.069,266.443 70.833,266.250 70.833 C 266.075 70.833,266.000 70.657,266.000 70.250 C 266.000 69.843,265.925 69.667,265.750 69.667 C 265.612 69.667,265.500 69.554,265.500 69.417 C 265.500 69.250,265.333 69.167,265.000 69.167 C 264.667 69.167,264.500 69.083,264.500 68.917 C 264.500 68.704,264.065 68.667,261.583 68.667 C 259.102 68.667,258.667 68.704,258.667 68.917 M311.833 68.917 C 311.833 69.083,311.667 69.167,311.333 69.167 C 311.000 69.167,310.833 69.250,310.833 69.417 C 310.833 69.584,310.666 69.667,310.328 69.667 C 310.050 69.667,309.783 69.771,309.734 69.898 C 309.685 70.025,309.425 70.173,309.156 70.227 C 308.871 70.284,308.667 70.431,308.667 70.579 C 308.667 70.719,308.554 70.833,308.417 70.833 C 308.279 70.833,308.167 70.946,308.167 71.083 C 308.167 71.221,308.054 71.333,307.917 71.333 C 307.779 71.333,307.667 71.446,307.667 71.583 C 307.667 71.721,307.554 71.833,307.417 71.833 C 307.279 71.833,307.167 71.946,307.167 72.083 C 307.167 72.221,307.060 72.333,306.929 72.333 C 306.798 72.333,306.657 72.465,306.615 72.625 C 306.573 72.785,306.530 72.448,306.519 71.875 C 306.504 71.069,306.443 70.833,306.250 70.833 C 306.075 70.833,306.000 70.657,306.000 70.250 C 306.000 69.843,305.925 69.667,305.750 69.667 C 305.612 69.667,305.500 69.554,305.500 69.417 C 305.500 69.202,304.981 69.167,301.833 69.167 C 298.685 69.167,298.167 69.202,298.167 69.417 C 298.167 69.554,298.054 69.667,297.917 69.667 C 297.742 69.667,297.667 69.843,297.667 70.250 C 297.667 70.657,297.591 70.833,297.417 70.833 C 297.260 70.833,297.167 70.991,297.167 71.255 C 297.167 71.487,297.279 71.720,297.417 71.773 C 297.636 71.857,297.667 73.743,297.667 87.351 C 297.667 101.002,297.696 102.833,297.917 102.833 C 298.054 102.833,298.167 102.946,298.167 103.083 C 298.167 103.578,306.699 103.442,307.241 102.939 L 307.667 102.545 307.667 92.439 C 307.667 83.567,307.697 82.333,307.917 82.333 C 308.081 82.333,308.167 82.169,308.167 81.851 C 308.167 81.576,308.274 81.328,308.417 81.273 C 308.563 81.217,308.667 80.967,308.667 80.672 C 308.667 80.334,308.749 80.167,308.917 80.167 C 309.054 80.167,309.167 80.054,309.167 79.917 C 309.167 79.779,309.279 79.667,309.417 79.667 C 309.554 79.667,309.667 79.554,309.667 79.417 C 309.667 79.278,309.815 79.167,310.000 79.167 C 310.185 79.167,310.333 79.056,310.333 78.917 C 310.333 78.760,310.491 78.667,310.755 78.667 C 310.987 78.667,311.220 78.554,311.273 78.417 C 311.336 78.252,311.597 78.167,312.033 78.167 C 312.558 78.167,312.716 78.096,312.785 77.833 C 312.891 77.430,314.000 77.337,314.000 77.732 C 314.000 78.010,314.358 78.167,314.996 78.167 C 315.259 78.167,315.506 78.276,315.560 78.417 C 315.613 78.554,315.848 78.667,316.083 78.667 C 316.318 78.667,316.554 78.779,316.606 78.917 C 316.661 79.059,316.910 79.167,317.184 79.167 C 317.502 79.167,317.667 79.252,317.667 79.417 C 317.667 79.618,317.926 79.667,319.000 79.667 C 320.074 79.667,320.333 79.618,320.333 79.417 C 320.333 79.279,320.446 79.167,320.583 79.167 C 320.721 79.167,320.833 79.062,320.833 78.934 C 320.833 78.807,320.946 78.659,321.083 78.606 C 321.229 78.550,321.333 78.301,321.333 78.005 C 321.333 77.667,321.416 77.500,321.583 77.500 C 321.750 77.500,321.833 77.333,321.833 77.000 C 321.833 76.667,321.917 76.500,322.083 76.500 C 322.221 76.500,322.333 76.387,322.333 76.250 C 322.333 76.112,322.446 76.000,322.583 76.000 C 322.750 76.000,322.833 75.833,322.833 75.500 C 322.833 75.225,322.918 75.000,323.023 75.000 C 323.127 75.000,323.389 74.809,323.606 74.575 C 324.408 73.710,323.977 71.333,323.018 71.333 C 322.917 71.333,322.833 71.227,322.833 71.097 C 322.833 70.966,322.608 70.810,322.333 70.750 C 322.058 70.690,321.833 70.534,321.833 70.403 C 321.833 70.251,321.654 70.167,321.333 70.167 C 321.000 70.167,320.833 70.083,320.833 69.917 C 320.833 69.742,320.657 69.667,320.250 69.667 C 319.843 69.667,319.667 69.591,319.667 69.417 C 319.667 69.250,319.500 69.167,319.167 69.167 C 318.833 69.167,318.667 69.083,318.667 68.917 C 318.667 68.703,318.176 68.667,315.250 68.667 C 312.324 68.667,311.833 68.703,311.833 68.917 M234.548 77.833 C 234.623 78.121,234.776 78.167,235.651 78.167 C 236.443 78.167,236.667 78.222,236.667 78.417 C 236.667 78.583,236.833 78.667,237.167 78.667 C 237.500 78.667,237.667 78.750,237.667 78.917 C 237.667 79.083,237.833 79.167,238.167 79.167 C 238.500 79.167,238.667 79.250,238.667 79.417 C 238.667 79.554,238.779 79.667,238.917 79.667 C 239.054 79.667,239.167 79.779,239.167 79.917 C 239.167 80.054,239.282 80.167,239.422 80.167 C 239.562 80.167,239.720 80.279,239.773 80.417 C 239.826 80.554,239.973 80.667,240.101 80.667 C 240.229 80.667,240.333 80.817,240.333 81.000 C 240.333 81.185,240.444 81.333,240.583 81.333 C 240.740 81.333,240.833 81.491,240.833 81.755 C 240.833 81.987,240.946 82.220,241.083 82.273 C 241.221 82.326,241.333 82.473,241.333 82.601 C 241.333 82.729,241.446 82.833,241.583 82.833 C 241.769 82.833,241.833 83.028,241.833 83.589 C 241.833 84.106,241.912 84.374,242.083 84.440 C 242.284 84.517,242.333 84.891,242.333 86.351 C 242.333 87.854,242.290 88.167,242.083 88.167 C 241.898 88.167,241.833 88.361,241.833 88.917 C 241.833 89.472,241.769 89.667,241.583 89.667 C 241.409 89.667,241.333 89.842,241.333 90.245 C 241.333 90.690,241.276 90.801,241.083 90.727 C 240.910 90.660,240.833 90.738,240.833 90.982 C 240.833 91.183,240.726 91.333,240.583 91.333 C 240.446 91.333,240.333 91.446,240.333 91.583 C 240.333 91.721,240.256 91.833,240.161 91.833 C 240.066 91.833,239.769 92.058,239.500 92.333 C 239.231 92.608,238.934 92.833,238.839 92.833 C 238.744 92.833,238.667 92.946,238.667 93.083 C 238.667 93.221,238.554 93.333,238.417 93.333 C 238.279 93.333,238.167 93.446,238.167 93.583 C 238.167 93.757,237.992 93.833,237.595 93.833 C 237.273 93.833,236.896 93.961,236.732 94.125 C 236.480 94.377,236.099 94.417,233.958 94.417 C 231.768 94.417,231.457 94.382,231.313 94.125 C 231.224 93.965,230.974 93.833,230.760 93.833 C 230.545 93.833,230.326 93.721,230.273 93.583 C 230.220 93.446,230.062 93.333,229.922 93.333 C 229.782 93.333,229.667 93.221,229.667 93.083 C 229.667 92.917,229.500 92.833,229.167 92.833 C 228.833 92.833,228.667 92.750,228.667 92.583 C 228.667 92.446,228.554 92.333,228.417 92.333 C 228.250 92.333,228.167 92.167,228.167 91.833 C 228.167 91.500,228.083 91.333,227.917 91.333 C 227.779 91.333,227.667 91.218,227.667 91.078 C 227.667 90.938,227.554 90.780,227.417 90.727 C 227.279 90.674,227.167 90.445,227.167 90.217 C 227.167 89.942,227.054 89.773,226.833 89.715 C 226.564 89.645,226.500 89.488,226.500 88.897 C 226.500 88.359,226.434 88.167,226.250 88.167 C 226.043 88.167,226.000 87.851,226.000 86.328 C 226.000 84.848,226.049 84.471,226.250 84.394 C 226.418 84.329,226.500 84.065,226.500 83.585 C 226.500 83.012,226.566 82.855,226.833 82.785 C 227.059 82.726,227.167 82.558,227.167 82.266 C 227.167 81.992,227.259 81.833,227.417 81.833 C 227.554 81.833,227.667 81.729,227.667 81.601 C 227.667 81.473,227.779 81.326,227.917 81.273 C 228.054 81.220,228.167 81.062,228.167 80.922 C 228.167 80.782,228.279 80.667,228.417 80.667 C 228.554 80.667,228.667 80.554,228.667 80.417 C 228.667 80.279,228.779 80.167,228.917 80.167 C 229.054 80.167,229.167 80.054,229.167 79.917 C 229.167 79.779,229.279 79.667,229.417 79.667 C 229.554 79.667,229.667 79.554,229.667 79.417 C 229.667 79.278,229.815 79.167,230.000 79.167 C 230.185 79.167,230.333 79.056,230.333 78.917 C 230.333 78.750,230.500 78.667,230.833 78.667 C 231.167 78.667,231.333 78.583,231.333 78.417 C 231.333 78.216,231.585 78.167,232.599 78.167 C 233.724 78.167,233.874 78.130,233.952 77.833 C 234.000 77.650,234.134 77.500,234.250 77.500 C 234.366 77.500,234.500 77.650,234.548 77.833 " stroke="none" fill="#040c2c" fill-rule="evenodd"></path><path id="path3" d="" stroke="none" fill="#046860" fill-rule="evenodd"></path><path id="path4" d="" stroke="none" fill="#040c64" fill-rule="evenodd"></path></g></svg>