<?xml version="1.0" standalone="no"?>
<!DOCTYPE svg PUBLIC "-//W3C//DTD SVG 20010904//EN"
 "http://www.w3.org/TR/2001/REC-SVG-20010904/DTD/svg10.dtd">
<svg version="1.0" xmlns="http://www.w3.org/2000/svg"
 width="3968.000000pt" height="996.000000pt" viewBox="0 0 3968.000000 996.000000"
 preserveAspectRatio="xMidYMid meet">

<g transform="translate(0.000000,996.000000) scale(0.100000,-0.100000)"
fill="#000000" stroke="none">
<path d="M1490 9949 c-271 -31 -530 -124 -742 -266 -421 -282 -682 -712 -737
-1215 -15 -131 -15 -6834 -1 -6963 89 -797 701 -1403 1499 -1484 140 -15 6776
-15 6922 -1 391 38 738 198 1012 466 296 291 465 653 497 1067 13 164 13 6700
0 6864 -28 366 -163 690 -406 974 -198 232 -502 423 -804 505 -227 62 75 58
-3710 60 -1900 1 -3489 -2 -3530 -7z m6232 -1810 c176 -36 322 -166 391 -347
l22 -57 3 -2720 c2 -2698 2 -2720 -18 -2799 -43 -169 -165 -304 -335 -368
l-60 -23 -2715 -3 c-1976 -2 -2731 0 -2775 8 -193 36 -360 193 -410 385 -13
53 -15 368 -15 2770 0 2369 2 2718 15 2768 48 186 200 337 381 381 50 12 463
14 2761 15 1925 1 2717 -2 2755 -10z"/>
<path d="M3837 6336 c-94 -26 -182 -113 -207 -206 -7 -25 -9 -415 -8 -1157 l3
-1118 23 -46 c27 -55 83 -113 137 -142 l40 -22 1129 -3 c1270 -3 1184 -8 1274
73 30 27 59 66 73 97 l24 53 0 1130 0 1130 -24 49 c-31 63 -83 115 -146 146
l-50 25 -1110 2 c-888 1 -1120 -1 -1158 -11z"/>
<path d="M14670 8234 c-493 -46 -913 -194 -1247 -440 -344 -254 -573 -609
-655 -1017 -19 -96 -23 -143 -23 -327 0 -184 4 -231 23 -328 133 -660 602
-1127 1362 -1355 63 -19 329 -81 590 -137 715 -153 890 -207 1100 -339 258
-162 372 -369 372 -676 0 -348 -170 -618 -492 -780 -393 -197 -1006 -202
-1405 -10 -149 71 -301 196 -399 326 -100 133 -181 332 -212 523 l-17 106
-539 0 -538 0 0 -42 c0 -72 37 -300 69 -425 78 -309 212 -583 392 -808 78 -97
257 -267 356 -338 443 -317 1030 -464 1738 -436 595 24 1112 213 1487 543 251
221 442 538 529 879 74 291 85 641 28 922 -101 500 -405 881 -897 1125 -239
118 -359 154 -965 285 -538 117 -648 144 -802 196 -430 146 -679 366 -740 654
-70 333 110 657 464 835 89 44 247 94 366 116 123 22 440 25 555 5 443 -76
725 -289 851 -643 l32 -88 524 0 524 0 -6 48 c-31 231 -70 377 -144 541 -262
585 -832 958 -1626 1066 -116 16 -553 28 -655 19z"/>
<path d="M19484 6440 c-468 -33 -903 -238 -1222 -575 -438 -462 -664 -1173
-622 -1952 52 -949 469 -1667 1165 -2003 261 -127 511 -181 835 -181 270 1
478 37 694 121 321 125 582 363 735 668 40 79 42 82 76 82 30 0 35 -3 35 -23
0 -13 -16 -196 -35 -408 l-35 -384 0 -887 0 -888 505 0 505 0 0 3175 0 3175
-470 0 -470 0 0 -380 0 -380 -33 0 c-30 0 -36 6 -70 64 -146 250 -384 474
-636 601 -274 137 -614 200 -957 175z m632 -925 c442 -76 787 -384 940 -840
142 -425 118 -949 -62 -1334 -159 -340 -445 -580 -798 -667 -125 -31 -322 -42
-448 -25 -601 80 -1012 555 -1078 1246 -39 421 49 819 248 1120 58 86 185 220
272 286 77 58 229 138 320 169 172 58 421 77 606 45z"/>
<path d="M29447 6439 c-514 -36 -959 -221 -1257 -520 -120 -121 -206 -242
-280 -394 -80 -165 -119 -289 -154 -503 l-6 -32 506 2 506 3 27 80 c69 206
193 344 396 441 133 63 230 85 415 91 245 9 389 -17 559 -99 175 -84 286 -216
331 -394 17 -66 20 -111 20 -311 l0 -233 -33 0 c-41 0 -1251 -77 -1332 -85
-697 -67 -1174 -332 -1395 -773 -140 -279 -176 -656 -95 -992 121 -497 491
-848 1013 -961 124 -27 430 -37 594 -20 596 62 1000 342 1218 844 32 74 35 77
67 77 l33 0 2 -422 3 -423 468 -3 467 -2 -3 1712 -3 1713 -21 92 c-47 198
-124 371 -223 504 -65 87 -209 224 -301 286 -277 187 -643 294 -1104 323 -177
11 -258 11 -418 -1z m1063 -2750 c0 -153 -4 -211 -21 -292 -84 -412 -365 -694
-793 -795 -97 -23 -134 -26 -286 -26 -198 -1 -264 11 -385 70 -265 129 -380
389 -309 702 57 255 285 410 666 453 108 12 986 75 1076 78 l52 1 0 -191z"/>
<path d="M37290 6439 c-395 -29 -782 -158 -1090 -364 -582 -389 -934 -1007
-1001 -1755 -14 -161 -6 -468 16 -618 79 -543 306 -1007 662 -1353 241 -234
501 -392 821 -499 257 -85 482 -120 779 -120 464 0 881 110 1233 324 331 202
604 513 761 865 38 86 99 251 99 267 0 2 -224 4 -499 4 l-498 0 -38 -62 c-175
-288 -434 -456 -790 -514 -135 -21 -373 -22 -490 -1 -401 72 -726 317 -905
682 -86 175 -132 336 -155 542 l-7 63 1729 2 1728 3 14 115 c20 178 20 540 -2
680 -141 906 -796 1553 -1735 1710 -208 35 -421 45 -632 29z m435 -804 c106
-19 244 -64 337 -111 353 -178 566 -483 612 -876 l6 -48 -1216 0 -1216 0 7 47
c12 81 72 248 127 355 219 428 650 673 1147 652 63 -3 151 -11 196 -19z"/>
<path d="M22880 4883 c0 -1599 1 -1610 55 -1878 62 -305 173 -554 340 -762
200 -249 495 -415 860 -485 105 -20 152 -23 370 -23 275 0 343 9 525 67 407
131 733 433 906 843 47 111 50 115 85 115 l29 0 2 -473 3 -472 468 -3 467 -2
0 2275 0 2275 -505 0 -504 0 -4 -1337 c-3 -1337 -3 -1338 -25 -1434 -81 -353
-239 -603 -487 -767 -341 -226 -878 -245 -1187 -42 -212 139 -337 371 -378
700 -6 55 -10 573 -10 1482 l0 1398 -505 0 -505 0 0 -1477z"/>
<path d="M32280 4085 l0 -2275 505 0 505 0 0 1239 c0 782 4 1277 10 1342 44
432 249 762 577 928 209 105 376 130 866 131 l267 0 0 455 0 455 -267 0 c-384
0 -563 -21 -762 -87 -331 -111 -569 -359 -664 -693 l-25 -85 -36 -3 -36 -3 0
435 0 436 -470 0 -470 0 0 -2275z"/>
</g>
</svg>
