<?xml version="1.0" encoding="UTF-8" standalone="no"?>
<!-- Created with Inkscape (http://www.inkscape.org/) -->

<svg
   version="1.1"
   id="svg2"
   xmlSpace="preserve"
   width="650.17334"
   height="705.4267"
   viewBox="0 0 650.17334 705.4267"
   sodipodiDocname="Ubisoft Toronto_LOGO BLACK.eps"
   xmlnsInkscape="http://www.inkscape.org/namespaces/inkscape"
   xmlnsSodipodi="http://sodipodi.sourceforge.net/DTD/sodipodi-0.dtd"
   xmlns="http://www.w3.org/2000/svg"
   xmlnsSvg="http://www.w3.org/2000/svg"><defs
     id="defs6" /><sodipodiNamedview
     id="namedview4"
     pagecolor="#ffffff"
     bordercolor="#666666"
     borderopacity="1.0"
     inkscapePageshadow="2"
     inkscapePageopacity="0.0"
     inkscapePagecheckerboard="0" /><g
     id="g8"
     inkscapeGroupmode="layer"
     inkscapeLabel="ink_ext_XXXXXX"
     transform="matrix(1.3333333,0,0,-1.3333333,0,705.42667)"><g
       id="g10"
       transform="scale(0.1)"><path
         d="m 4053.57,92.3516 c 28.89,17.9684 51.3,42.8084 67.26,74.4804 15.96,31.648 23.95,67.75 23.95,108.297 0,40.523 -7.99,76.633 -23.95,108.301 -15.96,31.66 -38.37,56.48 -67.26,74.48 -28.88,17.969 -61.82,26.981 -98.79,26.981 -37,0 -69.93,-9.012 -98.81,-26.981 -28.88,-18 -51.3,-42.82 -67.25,-74.48 -15.97,-31.668 -23.94,-67.778 -23.94,-108.301 0,-40.547 7.97,-76.649 23.94,-108.297 15.95,-31.672 38.37,-56.512 67.25,-74.4804 28.88,-17.9922 61.81,-26.9805 98.81,-26.9805 36.97,0 69.91,8.9883 98.79,26.9805 z m -233.7,-56.6328 c -39.78,23.8203 -70.81,56.6328 -93.1,98.4332 -22.3,41.789 -33.44,88.778 -33.44,140.977 0,52.172 11.14,99.18 33.44,140.98 22.29,41.801 53.32,74.602 93.1,98.422 39.77,23.801 84.74,35.719 134.91,35.719 50.15,0 95.11,-11.918 134.89,-35.719 39.77,-23.82 70.8,-56.621 93.1,-98.422 22.29,-41.8 33.45,-88.808 33.45,-140.98 0,-52.199 -11.16,-99.188 -33.45,-140.977 -22.3,-41.8004 -53.33,-74.6129 -93.1,-98.4332 C 4049.89,11.8984 4004.93,0 3954.78,0 3904.61,0 3859.64,11.8984 3819.87,35.7188 Z M 3629.5,477.281 H 3472.18 V 9.12891 h -69.92 V 477.281 h -158.08 v 63.848 h 385.32 z m -877.8,63.848 h 95.76 L 3101.3,91.2109 h 4.56 l -4.56,63.0781 v 386.84 h 69.92 V 9.12891 h -95.76 L 2821.62,459.051 h -4.56 l 4.56,-63.082 V 9.12891 H 2751.7 Z M 2510.02,92.3516 c 28.89,17.9684 51.3,42.8084 67.27,74.4804 15.95,31.648 23.94,67.75 23.94,108.297 0,40.523 -7.99,76.633 -23.94,108.301 -15.97,31.66 -38.38,56.48 -67.27,74.48 -28.88,17.969 -61.82,26.981 -98.79,26.981 -37,0 -69.93,-9.012 -98.8,-26.981 -28.89,-18 -51.31,-42.82 -67.27,-74.48 -15.96,-31.668 -23.93,-67.778 -23.93,-108.301 0,-40.547 7.97,-76.649 23.93,-108.297 15.96,-31.672 38.38,-56.512 67.27,-74.4804 28.87,-17.9922 61.8,-26.9805 98.8,-26.9805 36.97,0 69.91,8.9883 98.79,26.9805 z m -233.7,-56.6328 c -39.78,23.8203 -70.81,56.6328 -93.09,98.4332 -22.31,41.789 -33.44,88.778 -33.44,140.977 0,52.172 11.13,99.18 33.44,140.98 22.28,41.801 53.31,74.602 93.09,98.422 39.77,23.801 84.74,35.719 134.91,35.719 50.15,0 95.11,-11.918 134.89,-35.719 39.77,-23.82 70.8,-56.621 93.1,-98.422 22.29,-41.8 33.45,-88.808 33.45,-140.98 0,-52.199 -11.16,-99.188 -33.45,-140.977 -22.3,-41.8004 -53.33,-74.6129 -93.1,-98.4332 C 2506.34,11.8984 2461.38,0 2411.23,0 2361.06,0 2316.09,11.8984 2276.32,35.7188 Z M 1782.71,287.281 h 112.48 c 31.92,0 57.5,7.848 76.76,23.571 19.25,15.699 28.88,39.25 28.88,70.679 0,31.399 -9.63,54.961 -28.88,70.68 -19.26,15.699 -44.84,23.559 -76.76,23.559 H 1782.71 Z M 2000.07,9.12891 1880.75,229.531 h -98.04 V 9.12891 h -69.92 V 541.129 h 183.16 c 34.96,0 65.61,-6.457 91.96,-19.379 26.34,-12.918 46.74,-31.16 61.18,-54.719 14.44,-23.562 21.66,-50.801 21.66,-81.699 0,-36.492 -10.14,-67.773 -30.4,-93.871 -20.27,-26.102 -47.88,-44.199 -82.84,-54.332 L 2081.39,9.12891 Z M 1471.11,92.3516 c 28.88,17.9684 51.3,42.8084 67.26,74.4804 15.96,31.648 23.94,67.75 23.94,108.297 0,40.523 -7.98,76.633 -23.94,108.301 -15.96,31.66 -38.38,56.48 -67.26,74.48 -28.88,17.969 -61.82,26.981 -98.8,26.981 -36.99,0 -69.92,-9.012 -98.8,-26.981 -28.88,-18 -51.3,-42.82 -67.26,-74.48 -15.96,-31.668 -23.94,-67.778 -23.94,-108.301 0,-40.547 7.98,-76.649 23.94,-108.297 15.96,-31.672 38.38,-56.512 67.26,-74.4804 28.88,-17.9922 61.81,-26.9805 98.8,-26.9805 36.98,0 69.92,8.9883 98.8,26.9805 z m -233.7,-56.6328 c -39.78,23.8203 -70.81,56.6328 -93.1,98.4332 -22.3,41.789 -33.44,88.778 -33.44,140.977 0,52.172 11.14,99.18 33.44,140.98 22.29,41.801 53.32,74.602 93.1,98.422 39.77,23.801 84.74,35.719 134.9,35.719 50.16,0 95.12,-11.918 134.9,-35.719 39.77,-23.82 70.8,-56.621 93.1,-98.422 22.29,-41.8 33.44,-88.808 33.44,-140.98 0,-52.199 -11.15,-99.188 -33.44,-140.977 -22.3,-41.8004 -53.33,-74.6129 -93.1,-98.4332 C 1467.43,11.8984 1422.47,0 1372.31,0 c -50.16,0 -95.13,11.8984 -134.9,35.7188 z M 1047.04,477.281 H 889.719 V 9.12891 H 819.797 V 477.281 H 661.715 v 63.848 h 385.325 v -63.848"
         style="fill:#1d1b19;fill-opacity:1;fill-rule:nonzero;stroke:none"
         id="path12" /><path
         d="M 4876.27,1539.39 H 4624.89 V 826.301 h -194.95 v 713.089 h -252.67 v 184.69 h 699 z m -1193.2,0 V 1331.62 H 4064 V 1182.85 H 3683.07 V 826.301 h -194.93 v 897.779 h 614.33 v -184.69 z m -471.92,-264.2 c 0,161.61 -102.6,279.6 -259.07,279.6 -91.07,0 -159.04,-34.63 -200.08,-79.52 l 30.78,-30.79 c -47.45,-39.75 -89.78,-94.9 -89.78,-193.66 0,-135.95 96.18,-255.218 259.08,-255.218 156.47,0 259.07,117.978 259.07,279.588 z m 197.52,0 c 0,-264.21 -189.83,-464.28 -456.59,-464.28 -273.18,0 -456.6,196.23 -456.6,433.5 0,153.91 60.29,265.49 148.78,338.59 l -30.78,30.78 c 67.98,70.55 192.38,125.69 338.6,125.69 266.76,0 456.59,-202.64 456.59,-464.28 z m -1200.8,85.93 c 153.9,-53.87 233.42,-123.13 233.42,-261.64 0,-185.96 -142.36,-288.57 -310.37,-288.57 -155.18,0 -274.47,69.25 -324.49,197.51 l 155.19,115.42 c 28.22,-80.8 101.32,-130.82 174.42,-130.82 64.13,0 110.31,34.64 110.31,92.35 0,53.87 -34.64,87.21 -162.89,133.38 -138.51,50.02 -241.12,119.29 -241.12,268.07 0,143.63 119.28,252.65 292.43,252.65 137.23,0 243.68,-55.14 293.7,-164.16 l -155.19,-107.74 c -29.5,66.69 -75.67,103.89 -146.21,103.89 -59,0 -102.61,-32.07 -102.61,-78.24 0,-52.59 48.74,-84.64 183.41,-132.1 z m -666.07,362.96 h 194.94 V 826.301 H 1541.8 Z M 1140.5,998.152 c 83.37,0 130.82,38.488 130.82,112.878 0,74.38 -47.45,112.86 -130.82,112.86 H 1032.77 V 998.152 Z M 1032.77,1552.23 V 1362.4 h 102.61 c 60.27,0 101.31,34.64 101.31,94.91 0,60.29 -41.04,94.92 -101.31,94.92 z m 433.5,-459.16 c 0,-155.191 -121.84,-266.769 -318.07,-266.769 H 837.82 v 897.779 h 298.84 c 173.13,0 287.29,-83.36 287.29,-216.75 0,-101.32 -47.46,-162.88 -118,-192.38 94.9,-35.92 160.32,-101.32 160.32,-221.88 z m -724.957,631.01 v -538.67 c 0,-214.191 -130.821,-374.5 -370.657,-374.5 C 130.824,810.91 0,971.219 0,1185.41 v 538.67 h 194.949 v -523.27 c 0,-130.83 61.563,-205.208 175.707,-205.208 114.145,0 175.707,74.378 175.707,205.208 v 523.27 h 194.95"
         style="fill:#231f20;fill-opacity:1;fill-rule:nonzero;stroke:none"
         id="path14" /><path
         d="m 3646.43,3074.43 c -227.27,-515.84 -694.91,-785.8 -1194.36,-779.55 -958.09,47.52 -1236.79,1153.94 -596.51,1553.39 l 28.17,-28.17 c -10.93,-14.34 -48.09,-44.47 -107.95,-161.61 -69.77,-142.34 -91.03,-284.22 -82.78,-372.98 49.86,-773.43 1131.89,-930.73 1504.59,-166.16 C 3672,4168.13 2414.54,5233.24 1298.05,4419.2 l -25.78,25.77 c 293.67,460.78 867.48,667 1415.52,529.22 838.07,-209.54 1287.97,-1083.67 958.64,-1899.76 z m -895.78,16.6 c -77.58,-111.66 -206.76,-184.79 -353.04,-184.79 -237.26,0 -429.61,192.34 -429.61,429.6 0,226.78 175.73,412.5 398.44,428.48 v -0.01 c 138.7,5.57 267.94,-69.37 329.48,-190.91 66.34,-131.02 42.06,-292.64 -61.28,-401.62 38.68,-26.92 77.34,-53.83 116.01,-80.75 z m -1498.81,283.74 c -20.7,-170.62 -7.79,-223.91 -7.84,-244.18 l -37.9,-13.79 c -14.33,28.06 -50.73,126.93 -66.77,259.78 -41.01,507.26 304.62,964.39 830.78,1049.48 482.56,70.92 943.95,-228.78 1052.02,-648.27 l -38,-13.84 c -11.29,12.49 -31.45,46.45 -104.39,120.37 -581.96,584.64 -1496.62,316.49 -1627.9,-509.55 z m 2760.08,281.3 c -34.44,1676.4 -2261.07,2301.18 -3118.315,730.26 37.887,-27.41 90.29,-64.49 128.185,-91.9 C 956.105,4156.5 912.328,4016 888.379,3875.96 c -16.656,-91.8 -25.399,-186.37 -25.399,-282.97 0,-869.94 705.22,-1575.16 1575.15,-1575.16 869.94,0 1575.16,705.22 1575.16,1575.16 0,21.14 -0.54,42.15 -1.37,63.08"
         style="fill:#231f20;fill-opacity:1;fill-rule:nonzero;stroke:none"
         id="path16" /></g></g></svg>
