<?xml version="1.0" encoding="UTF-8"?>
<svg version="1.1" viewBox="0 0 1010.7 400" xml:space="preserve" xmlns="http://www.w3.org/2000/svg"><g transform="matrix(1.3333 0 0 -1.3333 0 1706.5)"><g transform="scale(.1)"><path d="m0 9299v-2464.8h1483.8l-603.36 1685h524.39l357.36-1127.6 357.36 1127.6h345.29v779.46l-2464.8 0.39" fill="#46975b"/><path d="m3611.9 7839.7c-25.31 237.25-132.86 351.13-322.66 351.13-158.16 0-294.18-104.39-332.14-351.13zm-1167.3-164.49c0 654.81 499.8 879.4 847.77 879.4 347.96 0 775-173.99 775-939.5v-75.92h-1116.6c25.31-278.37 180.31-385.92 392.25-385.92 199.29 0 385.92 98.06 499.8 202.45l196.12-303.68c-196.12-167.65-439.7-253.06-733.88-253.06-439.7 0-860.42 224.59-860.42 876.23" fill="#46975b"/><path d="m4222.3 6833.8v1686h509.3v-265.72c101.22 132.86 287.85 300.52 582.04 300.52 284.7 0 490.31-142.35 490.31-490.32v-1230.5h-506.13v1069.2c0 151.84-56.94 230.92-199.28 230.92-136.03 0-253.07-69.6-366.94-167.65v-1132.5h-509.3" fill="#46975b"/><path d="m7036.3 7336.8v313.17c-401.74-41.13-572.56-142.35-572.56-297.35 0-107.56 75.92-161.33 186.63-161.33 177.15 0 300.52 60.1 385.93 145.51zm-1069.2-72.76c0 389.09 328.99 604.19 1069.2 664.29v41.13c0 123.37-63.27 202.45-227.76 202.45-215.1 0-398.57-88.57-553.57-208.78l-215.11 291.02c167.66 151.84 420.72 300.52 841.44 300.52 461.84 0 651.63-227.76 651.63-661.13v-648.48c0-202.45 12.66-325.81 47.45-411.23h-506.12c-22.15 69.6-37.96 151.84-37.96 246.75-155-173.99-338.48-272.05-588.38-272.05-259.39 0-480.82 167.65-480.82 455.51" fill="#46975b"/><path d="m0 12799v-2464.8h1483.8l-603.36 1684.9h524.39l357.36-1127.5 357.36 1127.5h345.29v779.5l-2464.8 0.4" fill="#46975b"/><path d="m3611.9 11340c-25.31 237.3-132.86 351.2-322.66 351.2-158.16 0-294.18-104.4-332.14-351.2zm-1167.3-164.5c0 654.8 499.8 879.4 847.77 879.4 347.96 0 775-174 775-939.5v-75.9h-1116.6c25.31-278.4 180.31-385.9 392.25-385.9 199.29 0 385.92 98.1 499.8 202.4l196.12-303.6c-196.12-167.7-439.7-253.1-733.88-253.1-439.7 0-860.42 224.6-860.42 876.2" fill="#686d6e"/><path d="m4222.3 10334v1686h509.3v-265.7c101.22 132.9 287.85 300.5 582.04 300.5 284.7 0 490.31-142.3 490.31-490.3v-1230.5h-506.13v1069.2c0 151.8-56.94 230.9-199.28 230.9-136.03 0-253.07-69.6-366.94-167.6v-1132.5h-509.3" fill="#686d6e"/><path d="m7036.3 10837v313.1c-401.74-41.1-572.56-142.3-572.56-297.3 0-107.6 75.92-161.3 186.63-161.3 177.15 0 300.52 60.1 385.93 145.5zm-1069.2-72.8c0 389.1 328.99 604.2 1069.2 664.3v41.1c0 123.4-63.27 202.5-227.76 202.5-215.1 0-398.57-88.6-553.57-208.8l-215.11 291c167.66 151.9 420.72 300.5 841.44 300.5 461.84 0 651.63-227.7 651.63-661.1v-648.5c0-202.4 12.66-325.8 47.45-411.2h-506.12c-22.15 69.6-37.96 151.8-37.96 246.7-155-173.9-338.48-272-588.38-272-259.39 0-480.82 167.6-480.82 455.5" fill="#686d6e"/><path d="m0 2500v-2464.8h1483.8l-603.36 1684.9h524.39l357.36-1127.5 357.36 1127.5h345.29v779.5l-2464.8 0.4" fill="#100f0d"/><path d="m3611.9 1040.7c-25.31 237.2-132.86 351.1-322.66 351.1-158.16 0-294.18-104.4-332.14-351.1zm-1167.3-164.5c0 654.8 499.8 879.4 847.77 879.4 347.96 0 775-174 775-939.5v-75.903h-1116.6c25.31-278.4 180.31-385.9 392.25-385.9 199.29 0 385.92 98 499.8 202.4l196.12-303.7c-196.12-167.6-439.7-253-733.88-253-439.7 0-860.42 224.6-860.42 876.2" fill="#100f0d"/><path d="m4222.3 34.801v1686h509.3v-265.7c101.22 132.9 287.85 300.5 582.04 300.5 284.7 0 490.31-142.3 490.31-490.3v-1230.5h-506.13v1069.2c0 151.8-56.94 230.9-199.28 230.9-136.03 0-253.07-69.6-366.94-167.7v-1132.4h-509.3" fill="#100f0d"/><path d="m7036.3 537.7v313.2c-401.74-41.097-572.56-142.3-572.56-297.3 0-107.6 75.92-161.4 186.63-161.4 177.15 0 300.52 60.102 385.93 145.5zm-1069.2-72.699c0 389.1 328.99 604.2 1069.2 664.3v41.1c0 123.4-63.27 202.4-227.76 202.4-215.1 0-398.57-88.5-553.57-208.7l-215.11 291c167.66 151.8 420.72 300.5 841.44 300.5 461.84 0 651.63-227.8 651.63-661.1v-648.5c0-202.4 12.66-325.8 47.45-411.2h-506.12c-22.15 69.601-37.96 151.8-37.96 246.7-155-174-338.48-272-588.38-272-259.39 0-480.82 167.6-480.82 455.5" fill="#100f0d"/><path d="m0 5799v-2464.8h1483.8l-603.36 1685h524.39l357.36-1127.6 357.36 1127.6h345.29v779.46l-2464.8 0.39" fill="#fff"/><path d="m3611.9 4339.7c-25.31 237.25-132.86 351.13-322.66 351.13-158.16 0-294.18-104.39-332.14-351.13zm-1167.3-164.49c0 654.81 499.8 879.4 847.77 879.4 347.96 0 775-173.99 775-939.5v-75.92h-1116.6c25.31-278.37 180.31-385.92 392.25-385.92 199.29 0 385.92 98.06 499.8 202.45l196.12-303.68c-196.12-167.65-439.7-253.06-733.88-253.06-439.7 0-860.42 224.59-860.42 876.23" fill="#fff"/><path d="m4222.3 3333.8v1686h509.3v-265.72c101.22 132.86 287.85 300.52 582.04 300.52 284.7 0 490.31-142.35 490.31-490.32v-1230.5h-506.13v1069.2c0 151.84-56.94 230.92-199.28 230.92-136.03 0-253.07-69.6-366.94-167.65v-1132.5h-509.3" fill="#fff"/><path d="m7036.3 3836.8v313.17c-401.74-41.13-572.56-142.35-572.56-297.35 0-107.56 75.92-161.33 186.63-161.33 177.15 0 300.52 60.1 385.93 145.51zm-1069.2-72.76c0 389.09 328.99 604.19 1069.2 664.29v41.13c0 123.37-63.27 202.45-227.76 202.45-215.1 0-398.57-88.57-553.57-208.78l-215.11 291.02c167.66 151.84 420.72 300.52 841.44 300.52 461.84 0 651.63-227.76 651.63-661.13v-648.48c0-202.45 12.66-325.81 47.45-411.23h-506.12c-22.15 69.6-37.96 151.84-37.96 246.75-155-173.99-338.48-272.05-588.38-272.05-259.39 0-480.82 167.65-480.82 455.51" fill="#fff"/></g></g></svg>
