<svg width="151" height="134" viewBox="0 0 151 134" fill="none" xmlns="http://www.w3.org/2000/svg">
<path fill-rule="evenodd" clip-rule="evenodd" d="M136.678 92.8269C134.484 93.39 131.844 94.2804 130.772 94.8189C130.341 95.0354 129.761 95.2679 129.483 95.3356C128.947 95.4661 127.341 96.1464 126.375 96.6526C126.056 96.8195 125.672 96.9825 125.52 97.0148C125.368 97.0472 125.178 97.1748 125.098 97.2984C125.018 97.4221 124.481 97.7016 123.905 97.9196C123.33 98.1376 122.813 98.3869 122.757 98.4738C122.7 98.5604 122.489 98.6508 122.288 98.6745C122.087 98.6983 121.812 98.8875 121.677 99.095C121.542 99.3026 121.374 99.4351 121.304 99.3892C121.155 99.2929 119.92 100.069 119.699 100.398C119.617 100.52 119.295 100.708 118.982 100.815C118.67 100.923 118.342 101.116 118.254 101.245C118.079 101.5 117.104 102.278 116.771 102.427C116.657 102.478 116.33 102.774 116.045 103.084C115.76 103.393 115.07 104.062 114.514 104.569C113.957 105.077 112.969 106.21 112.318 107.087C111.667 107.965 111.09 108.707 111.035 108.736C110.981 108.765 110.55 109.604 110.078 110.6C109.607 111.597 109.029 112.795 108.794 113.263C108.559 113.731 108.388 114.223 108.413 114.358C108.439 114.492 108.334 114.795 108.181 115.031C108.028 115.266 107.833 115.957 107.748 116.565C107.662 117.173 107.499 117.815 107.386 117.992C107.272 118.168 107.187 118.671 107.196 119.108C107.204 119.546 107.15 120.118 107.076 120.38C106.867 121.116 107.416 124.174 108.106 126.123C108.986 128.607 109.483 131.158 109.16 131.529C108.774 131.971 108.237 131.603 108.02 130.749C107.827 129.986 106.313 126.876 106.052 126.707C105.973 126.656 105.89 126.455 105.867 126.26C105.844 126.065 105.544 125.656 105.199 125.351C104.775 124.977 104.571 124.632 104.57 124.288C104.568 123.802 103.955 122.86 102.901 121.721C102.633 121.432 101.936 120.476 101.353 119.597C100.235 117.913 99.5679 117.101 98.7242 116.398C98.4424 116.163 98.0983 115.833 97.9593 115.665C96.6742 114.109 88.7825 108.93 87.8353 109.021C87.6408 109.04 86.6614 108.649 85.5063 108.092C85.4118 108.047 85.1071 107.969 84.8291 107.919C84.5511 107.87 83.8296 107.73 83.2257 107.61C82.6217 107.489 81.2895 107.352 80.2652 107.306C77.7355 107.192 77.7023 107.188 77.3472 106.957C76.7256 106.554 77.7028 105.062 79.1326 104.23C79.5086 104.012 80.2513 103.396 80.7831 102.861C81.6901 101.949 81.7852 101.79 82.317 100.299C82.6289 99.4245 82.9126 98.5247 82.9476 98.2993C82.9827 98.074 83.1887 97.1977 83.4055 96.3521C83.6224 95.5065 83.7642 94.6475 83.7207 94.4431C83.677 94.2389 83.7302 93.8485 83.8386 93.5758C83.9468 93.303 83.926 92.9081 83.792 92.6982C83.6582 92.4883 83.5436 91.8695 83.5375 91.3234C83.5254 90.2508 83.0685 88.159 82.4702 86.4382C82.2648 85.8468 82.1449 85.2882 82.2042 85.197C82.2635 85.1055 82.1011 84.6518 81.8435 84.1885C81.5858 83.7253 81.4149 83.2848 81.4637 83.2096C81.5125 83.1344 81.4065 82.9783 81.2282 82.8627C80.9016 82.6507 78.9661 79.3405 78.7728 78.6633C78.7156 78.4629 78.5143 78.1474 78.3255 77.9622C78.1367 77.777 77.7874 77.3948 77.5497 77.1129C77.3118 76.8309 77.0306 76.5982 76.9249 76.596C76.8191 76.5936 76.7622 76.4523 76.7984 76.2818C76.8344 76.1115 76.7127 75.8701 76.5275 75.7457C76.3425 75.6211 76.0787 75.3014 75.9414 75.035C75.8041 74.7687 75.5285 74.4413 75.329 74.3073C75.1293 74.1735 75.0555 74.0217 75.1649 73.9699C75.2761 73.9174 75.2361 73.849 75.0738 73.8145C74.9144 73.7806 74.6397 73.4998 74.4634 73.1903C74.287 72.881 73.8481 72.4366 73.4882 72.2031C73.1282 71.9695 72.4283 71.2683 71.9329 70.6449C71.0866 69.5799 69.8283 68.3529 68.4657 67.2643C68.1388 67.0034 67.7515 66.6618 67.6049 66.5054C66.5745 65.4064 65.9852 64.8516 65.6044 64.6216C64.9057 64.1999 63.1045 62.7518 62.9977 62.526C62.9442 62.4128 62.4465 61.9952 61.8918 61.5977C61.337 61.2003 60.6247 60.6476 60.3089 60.3696C59.9931 60.0916 58.8833 59.221 57.8427 58.435C54.3783 55.818 53.0972 54.7158 53.0025 54.2712C52.9614 54.0786 52.5554 53.5781 52.1002 53.159C50.0609 51.2815 49.6664 50.8963 48.7367 49.8748C48.1935 49.2779 47.3022 48.3835 46.7559 47.8872C43.38 44.8205 40.6874 42.062 38.9826 39.9237C37.6621 38.2676 37.3434 37.9722 35.3028 36.5135C32.4283 34.459 31.2751 33.574 30.4091 32.7584C30.0242 32.3957 29.345 31.8 28.9 31.4343C27.1133 29.9663 23.425 26.085 23.2853 25.526C23.2135 25.2383 23.2901 25.2728 23.7215 25.7228C24.419 26.4504 29.0276 30.6119 30.6746 32.0015C33.813 34.6489 40.157 38.9394 43.9205 40.9594C45.5653 41.8421 46.9178 42.5617 47.9443 43.1005C49.0937 43.7034 53.0508 45.5234 54.3714 46.0562C54.9121 46.2744 56.1988 46.794 57.2307 47.2109C60.3666 48.4776 61.2293 48.7793 65.5039 50.1022C68.351 50.9835 69.545 51.3057 70.6191 51.4825C70.9722 51.5406 71.3406 51.6398 71.4378 51.7028C71.5349 51.7658 71.7821 51.8305 71.987 51.8467C72.192 51.8626 73.3005 52.068 74.4505 52.303C75.6005 52.538 77.1272 52.8122 77.843 52.9123C78.5589 53.0123 79.1984 53.129 79.264 53.1715C79.4606 53.2991 85.8734 53.8504 87.131 53.8479C87.7732 53.8466 88.343 53.8743 88.3975 53.9096C88.4517 53.9448 88.6318 53.9537 88.7975 53.9292C88.9632 53.9046 89.7601 53.8888 90.5682 53.8939C96.0306 53.9286 104.198 52.574 108.973 50.8415C111.745 49.8357 111.964 49.74 113.118 49.0289C113.898 48.5482 114.321 48.3998 114.528 48.5344C114.969 48.8201 115.241 49.8056 115.04 50.3849C114.943 50.6649 114.76 51.6479 114.635 52.5694C114.509 53.491 114.32 54.5863 114.215 55.0034C114.109 55.4206 114.038 55.9235 114.055 56.121C114.073 56.3185 114.034 56.6647 113.969 56.8905C113.904 57.1163 113.899 57.4552 113.958 57.6439C114.017 57.8325 113.957 58.1531 113.825 58.3564C113.693 58.5596 113.646 58.8463 113.721 58.9938C113.795 59.1412 113.814 59.6476 113.764 60.1192C113.713 60.5908 113.723 61.1426 113.787 61.3457C113.85 61.5487 113.84 61.8108 113.764 61.928C113.687 62.0453 113.719 62.3102 113.832 62.5169C113.946 62.7237 113.988 62.9719 113.926 63.0687C113.729 63.3722 114.735 68.5153 115.029 68.7058C115.119 68.7645 115.231 68.9638 115.277 69.149C115.366 69.5042 115.979 71.0066 116.567 72.3103C116.76 72.7382 117.011 73.149 117.125 73.223C117.239 73.2969 117.489 73.7644 117.681 74.2619C117.873 74.7594 118.142 75.2677 118.279 75.3912C118.416 75.5148 118.692 75.896 118.892 76.2382C119.092 76.5807 119.329 76.9085 119.419 76.9669C119.509 77.0253 119.785 77.3977 120.032 77.7947C120.407 78.3981 121.373 79.5842 122.237 80.5027C122.347 80.6198 122.673 80.9764 122.963 81.2954C123.915 82.3452 124.011 82.445 124.712 83.1189C125.094 83.4862 125.986 84.2231 126.694 84.7564C127.402 85.2897 128.022 85.8208 128.071 85.9367C128.12 86.0525 128.918 86.6216 129.844 87.2013C132.849 89.0815 134.754 89.8857 136.327 89.9381C137.086 89.9633 137.921 90.4215 138.231 90.9829C138.583 91.6206 137.812 92.5356 136.678 92.8269Z" fill="#43AFDE"/>
<path fill-rule="evenodd" clip-rule="evenodd" d="M136.678 92.8269C134.484 93.39 131.844 94.2804 130.772 94.8189C130.341 95.0354 129.761 95.2679 129.483 95.3356C128.947 95.4661 127.341 96.1464 126.375 96.6526C126.056 96.8195 125.672 96.9825 125.52 97.0148C125.368 97.0472 125.178 97.1748 125.098 97.2984C125.018 97.4221 124.481 97.7016 123.905 97.9196C123.33 98.1376 122.813 98.3869 122.757 98.4738C122.7 98.5604 122.489 98.6508 122.288 98.6745C122.087 98.6983 121.812 98.8875 121.677 99.095C121.542 99.3026 121.374 99.4351 121.304 99.3892C121.155 99.2929 119.92 100.069 119.699 100.398C119.617 100.52 119.295 100.708 118.982 100.815C118.67 100.923 118.342 101.116 118.254 101.245C118.079 101.5 117.104 102.278 116.771 102.427C116.657 102.478 116.33 102.774 116.045 103.084C115.76 103.393 115.07 104.062 114.514 104.569C113.957 105.077 112.969 106.21 112.318 107.087C111.667 107.965 111.09 108.707 111.035 108.736C110.981 108.765 110.55 109.604 110.078 110.6C109.607 111.597 109.029 112.795 108.794 113.263C108.559 113.731 108.388 114.223 108.413 114.358C108.439 114.492 108.334 114.795 108.181 115.031C108.028 115.266 107.833 115.957 107.748 116.565C107.662 117.173 107.499 117.815 107.386 117.992C107.272 118.168 107.188 118.684 107.197 119.137C107.207 119.59 107.138 120.187 107.043 120.463C106.947 120.745 107.02 121.348 107.211 121.844C107.398 122.327 107.646 123.469 107.762 124.38C107.879 125.291 108.147 126.454 108.36 126.964C108.981 128.456 109.459 131.186 109.16 131.529C108.774 131.971 108.237 131.603 108.02 130.749C107.827 129.986 106.313 126.876 106.052 126.707C105.973 126.656 105.89 126.455 105.867 126.26C105.844 126.065 105.544 125.656 105.199 125.351C104.775 124.977 104.571 124.632 104.57 124.288C104.568 123.802 103.955 122.86 102.901 121.721C102.633 121.432 101.936 120.476 101.353 119.597C100.235 117.913 99.5679 117.101 98.7242 116.398C98.4424 116.163 98.0983 115.833 97.9593 115.665C96.6742 114.109 88.7825 108.93 87.8353 109.021C87.6408 109.04 86.6614 108.649 85.5063 108.092C85.4118 108.047 85.1071 107.969 84.8291 107.919C84.5511 107.87 83.8296 107.73 83.2257 107.61C82.6217 107.489 81.2895 107.352 80.2652 107.306C77.7355 107.192 77.7023 107.188 77.3472 106.957C76.7256 106.554 77.7028 105.062 79.1326 104.23C79.5086 104.012 80.2513 103.396 80.7831 102.861C81.6901 101.949 81.7852 101.79 82.317 100.299C82.6289 99.4245 82.9126 98.5247 82.9476 98.2993C82.9827 98.074 83.1887 97.1977 83.4055 96.3521C83.6224 95.5065 83.7642 94.6475 83.7207 94.4431C83.677 94.2389 83.7302 93.8485 83.8386 93.5758C83.9468 93.303 83.926 92.9081 83.792 92.6982C83.6582 92.4883 83.5436 91.8695 83.5375 91.3234C83.5254 90.2508 83.0685 88.159 82.4702 86.4382C82.2648 85.8468 82.1449 85.2882 82.2042 85.197C82.2635 85.1055 82.1011 84.6518 81.8435 84.1885C81.5858 83.7253 81.4149 83.2848 81.4637 83.2096C81.5125 83.1344 81.4065 82.9783 81.2282 82.8627C80.9016 82.6507 78.9661 79.3405 78.7728 78.6633C78.7156 78.4629 78.5143 78.1474 78.3255 77.9622C78.1367 77.777 77.7874 77.3948 77.5497 77.1129C77.3118 76.8309 77.0306 76.5982 76.9249 76.596C76.8191 76.5936 76.7622 76.4523 76.7984 76.2818C76.8344 76.1115 76.7127 75.8701 76.5275 75.7457C76.3425 75.6211 76.0787 75.3014 75.9414 75.035C75.8041 74.7687 75.5285 74.4413 75.329 74.3073C75.1293 74.1735 75.0555 74.0217 75.1649 73.9699C75.2761 73.9174 75.2361 73.849 75.0738 73.8145C74.9144 73.7806 74.6397 73.4998 74.4634 73.1903C74.287 72.881 73.8481 72.4366 73.4882 72.2031C73.1282 71.9695 72.4283 71.2683 71.9329 70.6449C71.0866 69.5799 69.8283 68.3529 68.4657 67.2643C68.1388 67.0034 67.7515 66.6618 67.6049 66.5054C66.5745 65.4064 65.9852 64.8516 65.6044 64.6216C64.9057 64.1999 63.1045 62.7518 62.9977 62.526C62.9442 62.4128 62.4465 61.9952 61.8918 61.5977C61.337 61.2003 60.6247 60.6476 60.3089 60.3696C59.9931 60.0916 58.8833 59.221 57.8427 58.435C54.3783 55.818 53.0972 54.7158 53.0025 54.2712C52.9614 54.0786 52.5554 53.5781 52.1002 53.159C50.0609 51.2815 49.6664 50.8963 48.7367 49.8748C48.1935 49.2779 47.3022 48.3835 46.7559 47.8872C43.38 44.8205 40.6874 42.062 38.9826 39.9237C37.6621 38.2676 37.3434 37.9722 35.3028 36.5135C32.4283 34.459 31.2751 33.574 30.4091 32.7584C30.0242 32.3957 29.345 31.8 28.9 31.4343C27.1133 29.9663 23.425 26.085 23.2853 25.526C23.2135 25.2383 23.2901 25.2728 23.7215 25.7228C24.419 26.4504 29.0276 30.6119 30.6746 32.0015C33.813 34.6489 40.157 38.9394 43.9205 40.9594C45.5653 41.8421 46.9178 42.5617 47.9443 43.1005C49.0937 43.7034 53.0508 45.5234 54.3714 46.0562C54.9121 46.2744 56.1988 46.794 57.2307 47.2109C60.3666 48.4776 61.2293 48.7793 65.5039 50.1022C68.351 50.9835 69.545 51.3057 70.6191 51.4825C70.9722 51.5406 71.3406 51.6398 71.4378 51.7028C71.5349 51.7658 71.7821 51.8305 71.987 51.8467C72.192 51.8626 73.3005 52.068 74.4505 52.303C75.6005 52.538 77.1272 52.8122 77.843 52.9123C78.5589 53.0123 79.1984 53.129 79.264 53.1715C79.4606 53.2991 85.8734 53.8504 87.131 53.8479C87.7732 53.8466 88.343 53.8743 88.3975 53.9096C88.4517 53.9448 88.6318 53.9537 88.7975 53.9292C88.9632 53.9046 89.7601 53.8888 90.5682 53.8939C96.0306 53.9286 104.198 52.574 108.973 50.8415C111.745 49.8357 111.964 49.74 113.118 49.0289C113.898 48.5482 114.321 48.3998 114.528 48.5344C114.969 48.8201 115.241 49.8056 115.04 50.3849C114.943 50.6649 114.76 51.6479 114.635 52.5694C114.509 53.491 114.32 54.5863 114.215 55.0034C114.109 55.4206 114.038 55.9235 114.055 56.121C114.073 56.3185 114.034 56.6647 113.969 56.8905C113.904 57.1163 113.899 57.4552 113.958 57.6439C114.017 57.8325 113.957 58.1531 113.825 58.3564C113.693 58.5596 113.646 58.8463 113.721 58.9938C113.795 59.1412 113.814 59.6476 113.764 60.1192C113.713 60.5908 113.723 61.1426 113.787 61.3457C113.85 61.5487 113.84 61.8108 113.764 61.928C113.687 62.0453 113.719 62.3102 113.832 62.5169C113.946 62.7237 113.988 62.9719 113.926 63.0687C113.729 63.3722 114.735 68.5153 115.029 68.7058C115.119 68.7645 115.231 68.9638 115.277 69.149C115.366 69.5042 115.979 71.0066 116.567 72.3103C116.76 72.7382 117.011 73.149 117.125 73.223C117.239 73.2969 117.489 73.7644 117.681 74.2619C117.873 74.7594 118.142 75.2677 118.279 75.3912C118.416 75.5148 118.692 75.896 118.892 76.2382C119.092 76.5807 119.329 76.9085 119.419 76.9669C119.509 77.0253 119.785 77.3977 120.032 77.7947C120.407 78.3981 121.373 79.5842 122.237 80.5027C122.347 80.6198 122.673 80.9764 122.963 81.2954C123.915 82.3452 124.011 82.445 124.712 83.1189C125.094 83.4862 125.986 84.2231 126.694 84.7564C127.402 85.2897 128.022 85.8208 128.071 85.9367C128.12 86.0525 128.918 86.6216 129.844 87.2013C132.849 89.0815 134.754 89.8857 136.327 89.9381C137.086 89.9633 137.921 90.4215 138.231 90.9829C138.583 91.6206 137.812 92.5356 136.678 92.8269ZM129.561 90.1575C127.974 89.1351 125.932 87.6379 124.48 86.4315C124.278 86.264 123.714 85.8035 123.227 85.4079C122.739 85.0122 122.186 84.4568 121.998 84.1734C121.809 83.89 121.24 83.3211 120.733 82.9091C119.854 82.1953 119.109 81.3019 119.013 80.8463C118.989 80.7304 118.729 80.4676 118.435 80.2622C118.142 80.0569 117.848 79.6853 117.781 79.4362C117.715 79.1874 117.519 78.8912 117.344 78.7782C117.171 78.6653 116.725 78.0717 116.354 77.459C115.983 76.8463 115.613 76.3015 115.531 76.2483C115.449 76.1951 115.23 75.7918 115.044 75.3521C114.859 74.9124 114.534 74.3838 114.322 74.1774C114.111 73.9709 113.953 73.6224 113.971 73.4027C113.99 73.1831 113.892 72.93 113.754 72.8405C113.474 72.6585 112.728 70.8278 112.478 69.706C112.388 69.3038 112.223 68.9151 112.11 68.8422C111.915 68.7152 111.138 64.6317 111.115 63.6089C111.109 63.3372 111.047 62.9969 110.978 62.8528C110.909 62.7088 110.913 62.4981 110.986 62.3846C111.06 62.2711 111.102 61.7707 111.08 61.2724C111.002 59.5391 111.492 56.4948 112.499 52.4521L113.045 50.2596L111.942 50.7379C107.729 52.5644 99.1653 54.5005 94.5944 54.6597C94.0501 54.6787 93.2609 54.7306 92.8409 54.7752C91.9391 54.8706 88.8117 54.8459 87.7579 54.7349C87.3515 54.6921 86.9482 54.688 86.8616 54.7258C86.3086 54.9675 77.6123 53.9466 74.7065 53.299C74.0021 53.142 73.1495 52.97 72.8118 52.917C72.474 52.864 71.8508 52.7297 71.4266 52.6187C71.0024 52.5077 70.552 52.4198 70.4258 52.4232C70.2996 52.4265 69.8999 52.3386 69.5376 52.2279C69.1753 52.1171 67.7299 51.7031 66.3256 51.308C62.3503 50.1894 55.5265 47.6863 52.3114 46.1675C52.0564 46.047 51.3356 45.7209 50.7096 45.443C48.7419 44.569 44.7601 42.4811 41.6224 40.6778L39.7332 39.592L41.8145 41.702C43.9362 43.853 44.8812 44.5538 43.2606 42.7742C42.1782 41.586 41.8793 41.1095 42.4518 41.4851C42.6693 41.6278 43.0927 41.9921 43.3926 42.2946C44.8255 43.7396 46.748 45.6372 47.3797 46.2303C47.7651 46.5923 48.1638 46.9946 48.2656 47.1244C48.3675 47.2542 48.8118 47.655 49.2532 48.0151C50.2515 48.8295 52.7369 51.0714 52.8097 51.223C52.9337 51.4817 55.9935 53.6864 58.8569 55.5803C60.9815 56.9856 61.9629 57.7182 62.0363 57.953C62.1125 58.1975 62.3228 58.3479 62.7853 58.4892C63.6279 58.7463 65.2384 59.7965 65.2321 60.0847C65.2295 60.2091 65.3183 60.3127 65.4295 60.3151C65.5408 60.3177 65.7302 60.4979 65.8504 60.7159C65.9706 60.9339 66.6346 61.5171 67.3259 62.0121C68.0173 62.507 68.7365 63.0659 68.9245 63.2539C69.1124 63.4422 69.6158 63.8395 70.043 64.137C70.4703 64.4347 70.9925 64.8817 71.2032 65.1305C71.6295 65.6337 71.8264 65.8347 72.8206 66.7817C73.1979 67.1411 73.6161 67.4584 73.7499 67.4868C73.8837 67.5152 73.9909 67.6469 73.988 67.7795C73.9851 67.9123 74.0639 68.0224 74.1631 68.0246C74.2625 68.0268 74.6753 68.4354 75.0807 68.9327C75.4864 69.4299 76.0369 70.0469 76.3044 70.3039C77.6417 71.5889 78.5323 72.634 78.5197 72.9032C78.5117 73.0742 78.7667 73.3722 79.1132 73.597C79.4597 73.8218 79.7393 74.1486 79.764 74.3575C79.7877 74.559 79.9078 74.789 80.0308 74.8689C80.355 75.0792 81.7905 76.911 81.8563 77.1986C81.887 77.3327 82.0218 77.516 82.156 77.6057C82.29 77.6954 82.4877 78.0244 82.5952 78.3367C82.7026 78.6491 82.9057 78.9816 83.0467 79.0758C83.1875 79.1698 83.3221 79.4109 83.3456 79.6114C83.3692 79.8118 83.6242 80.238 83.9123 80.5584C84.2005 80.8789 84.4952 81.4183 84.5674 81.7569C84.6395 82.0955 84.8174 82.5173 84.9628 82.6941C85.1081 82.8709 85.4386 83.8135 85.6973 84.7886C85.956 85.7638 86.2883 86.7297 86.4358 86.9348C86.5834 87.1401 86.6739 87.5189 86.6371 87.7767C86.6003 88.0343 86.7008 88.5837 86.8605 88.9974C87.02 89.411 87.1419 90.099 87.1312 90.5262C87.1206 90.9535 87.177 91.5496 87.2567 91.8512C87.3964 92.3808 87.3847 92.7243 87.1498 94.9556C87.0898 95.5262 87.0652 96.1289 87.0952 96.2951C87.1254 96.4613 87.0103 96.9124 86.8398 97.2975C86.6692 97.6825 86.5674 98.1742 86.6132 98.39C86.6593 98.6058 86.6037 98.9262 86.4897 99.1019C86.3758 99.2775 86.3278 99.5172 86.3832 99.6341C86.4387 99.7513 86.3685 99.991 86.2275 100.167C86.0866 100.342 85.8451 100.811 85.6911 101.207C85.3182 102.166 85.1636 102.473 84.6009 103.375C84.1638 104.075 84.157 104.158 84.517 104.392C84.7326 104.532 85.2308 104.667 85.6241 104.692C86.2748 104.733 88.5279 105.637 89.518 106.254C89.7389 106.391 90.0245 106.499 90.1525 106.492C90.9712 106.452 98.9672 111.961 104.128 116.121L104.967 116.797L105.179 116.181C105.295 115.842 105.556 115.004 105.757 114.317C106.65 111.277 109.148 106.614 111.04 104.458C112.389 102.92 113.299 101.986 113.914 101.509C114.276 101.228 114.669 100.851 114.787 100.671C115.06 100.258 116.436 99.1524 116.855 99.0099C117.029 98.9509 117.226 98.8246 117.292 98.7293C117.531 98.3852 119.453 97.061 119.587 97.148C119.663 97.197 119.799 97.1224 119.89 96.9823C119.981 96.8421 120.456 96.5922 120.946 96.4268C121.436 96.2615 121.78 96.09 121.712 96.0456C121.644 96.0012 121.729 95.9348 121.902 95.898C122.074 95.8612 122.292 95.713 122.386 95.5685C122.48 95.4241 122.844 95.2332 123.196 95.1442C123.547 95.0552 124.001 94.8276 124.205 94.6383C124.408 94.449 124.645 94.3396 124.73 94.3951C124.816 94.4507 124.97 94.3662 125.073 94.2073C125.176 94.0486 125.54 93.879 125.881 93.8309C126.223 93.7827 126.569 93.6393 126.652 93.512C126.735 93.3849 126.933 93.2844 127.092 93.2887C127.252 93.293 127.621 93.129 127.913 92.9241C128.205 92.7195 128.66 92.5169 128.925 92.4741C129.189 92.4315 129.468 92.3005 129.544 92.1831C129.62 92.0656 129.747 92.0114 129.826 92.0625C129.963 92.1517 131.229 91.6534 131.365 91.4567C131.401 91.4041 130.589 90.8194 129.561 90.1575Z" fill="#FD73C5"/>
</svg>
