<svg width="160" height="127" viewBox="0 0 160 127" fill="none" xmlns="http://www.w3.org/2000/svg">
<path fill-rule="evenodd" clip-rule="evenodd" d="M148.04 35.4759C147.838 35.3921 147.646 34.8721 147.613 34.3205C147.562 33.4858 147.431 33.3196 146.831 33.3308C146.373 33.3394 146.075 33.128 146.014 32.7495C145.954 32.3742 145.77 32.2409 145.515 32.3886C145.294 32.5172 144.873 32.45 144.581 32.2387C143.706 31.6067 138.994 31.9297 136.965 32.7608C135.688 33.2838 135.153 33.3845 134.841 33.161C134.527 32.9366 134.497 32.9903 134.72 33.3767C134.893 33.6749 134.871 33.9149 134.671 33.9472C134.48 33.978 134.254 33.5717 134.169 33.0448C134.078 32.4756 133.899 32.1872 133.728 32.3345C133.571 32.4711 133.544 32.7008 133.669 32.8452C133.794 32.9896 133.751 33.1311 133.574 33.1597C133.397 33.1883 133.38 33.4317 133.536 33.7007C133.733 34.0392 133.691 34.136 133.399 34.0146C133.168 33.9185 133.006 33.6691 133.04 33.4609C133.12 32.9687 131.827 32.2572 130.67 32.1573C129.229 32.0328 125.131 32.7077 125.062 33.0811C125.025 33.2792 124.573 33.2551 123.957 33.0223C123.383 32.8056 122.405 32.7099 121.783 32.8101C120.697 32.9853 120.413 32.9461 118.716 32.3879C118.262 32.2386 117.972 32.2609 118.001 32.4426C118.029 32.6111 117.831 32.7028 117.562 32.6464C117.294 32.5901 117.071 32.4495 117.068 32.3343C117.041 31.3757 116.776 31.1448 116.019 31.4202C115.333 31.6696 115.222 31.6171 115.275 31.0682C115.363 30.1492 114.65 29.6208 113.557 29.7968C112.796 29.9196 112.615 29.8265 112.608 29.307C112.601 28.8215 112.544 28.7821 112.377 29.1444C112.112 29.7151 111.31 29.4796 111.53 28.8961C111.614 28.6737 111.587 28.6101 111.472 28.7541C111.213 29.0761 109.329 28.4935 109.261 28.0702C109.234 27.9023 109.041 27.8289 108.833 27.9065C108.624 27.9845 108.461 27.8663 108.469 27.6438C108.477 27.4216 108.307 27.2681 108.091 27.3029C107.874 27.3378 107.424 26.9457 107.089 26.4313C106.755 25.9169 106.452 25.6765 106.416 25.897C106.38 26.1176 106.226 26.3179 106.073 26.3425C105.921 26.3671 105.843 26.164 105.9 25.8909C105.963 25.5924 105.758 25.3444 105.388 25.2682C104.347 25.0548 103.868 24.5868 104.209 24.1153C104.432 23.8069 104.372 23.7239 103.975 23.7879C103.682 23.8352 103.421 23.7425 103.395 23.5824C103.369 23.422 103.024 23.2968 102.627 23.3044C102.023 23.3156 101.896 23.151 101.845 22.2918C101.81 21.7153 101.479 20.9004 101.09 20.4319C100.363 19.5572 98.9648 18.9905 98.5081 19.3855C98.3609 19.5128 98.2531 19.4961 98.2683 19.3477C98.3161 18.8922 97.6067 17.7431 97.3075 17.7913C97.1521 17.8163 97.0614 17.6503 97.1056 17.4221C97.2103 16.8813 96.7933 16.4538 95.8509 16.1364C95.4325 15.9956 94.9467 15.5458 94.7709 15.1373C94.5954 14.7288 94.3191 14.4159 94.1568 14.4421C93.9942 14.4683 93.5757 14.0295 93.2266 13.467C92.8773 12.9046 92.4525 12.4668 92.2827 12.4942C92.1126 12.5216 91.9206 12.216 91.856 11.8154C91.7078 10.8959 90.2442 9.88757 89.0697 9.89558C87.7354 9.90493 86.9042 9.88687 86.7171 9.8444C86.6253 9.82351 86.4373 9.84545 86.2993 9.89276C86.1611 9.94043 86.1097 9.83107 86.185 9.65019C86.2603 9.46899 86.1642 9.25563 85.9716 9.17547C85.779 9.09561 85.657 9.24994 85.7003 9.51842C85.7435 9.7869 85.6296 10.0309 85.4472 10.0603C85.2649 10.0897 85.1755 9.96942 85.2486 9.79307C85.3221 9.61666 85.2243 9.40711 85.0317 9.32694C84.8392 9.24709 84.7172 9.40142 84.7604 9.6699C84.8538 10.2495 84.2032 10.4186 83.5881 9.97425C83.2487 9.72906 83.165 9.74254 83.2122 10.0348C83.2455 10.2416 83.1642 10.4112 83.0318 10.4117C82.8994 10.4118 82.5824 10.4651 82.3277 10.53C81.9161 10.6346 81.9223 10.6728 82.3834 10.8755C82.7293 11.0274 82.7719 11.126 82.5115 11.1715C82.0396 11.2533 81.2219 12.3876 81.177 13.0223C81.159 13.2739 81.0443 13.5695 80.9219 13.6796C80.629 13.9421 81.2511 15.8793 81.6098 15.8215C81.7627 15.7969 81.9218 15.9882 81.9634 16.2466C82.0051 16.5051 81.87 16.7438 81.6632 16.7772C81.3709 16.8243 81.3844 16.9079 81.7238 17.1531C81.9639 17.3265 82.2091 17.7711 82.2687 18.1407C82.3806 18.835 83.4143 20.4683 84.1982 21.1899C84.7922 21.7366 85.8723 24.0725 85.7106 24.4615C85.6402 24.631 86.0875 25.1345 86.7044 25.5802C87.3214 26.0259 87.6694 26.4159 87.4779 26.4468C87.2295 26.4868 87.269 26.6859 87.6147 27.1396C87.8816 27.4897 88.1642 28.2759 88.2427 28.8865C88.3215 29.4971 88.7403 30.5157 89.1735 31.1494C89.607 31.7834 89.9147 32.4143 89.8578 32.5514C89.8008 32.6882 89.8428 33.7386 89.9508 34.8853C90.0587 36.0318 90.0782 37.1359 89.9939 37.3388C89.9096 37.5414 89.9007 38.2439 89.9739 38.8997C90.0475 39.5554 89.9026 40.5392 89.6522 41.0857C89.4019 41.6326 89.2124 42.1977 89.2311 42.3416C89.2847 42.7559 88.2484 43.6792 87.6153 43.7813C87.2982 43.8324 86.9918 44.0987 86.9345 44.3731C86.8768 44.6476 86.7054 44.8922 86.5535 44.9167C86.1299 44.985 85.1839 46.1994 85.2475 46.5935C85.3187 47.0352 84.0539 47.8909 83.1034 48.0441C82.7065 48.1081 81.7726 48.6218 81.0282 49.186C80.2841 49.7501 79.5353 50.1536 79.3644 50.0825C78.8363 49.8632 76.6818 50.9938 76.3535 51.6629C76.1381 52.1013 75.6775 52.3427 74.8606 52.4451C74.0553 52.5463 73.701 52.7287 73.7477 53.0185C73.8002 53.3446 73.6798 53.3454 73.232 53.0219C72.7959 52.7068 72.5563 52.7043 72.2871 53.0125C72.0888 53.2396 71.1896 53.6237 70.2892 53.8662C69.3888 54.1087 68.5095 54.4645 68.3351 54.6568C68.1362 54.8763 67.922 54.8954 67.7596 54.7078C67.5846 54.5052 67.3272 54.5775 66.9616 54.9332C66.6372 55.248 65.9026 55.4882 65.1205 55.5356C64.2571 55.5873 63.9061 55.7146 64.0775 55.9126C64.2197 56.0771 64.1868 56.2357 64.0045 56.2651C63.8221 56.2945 63.6491 56.1719 63.6203 55.993C63.5587 55.6108 58.7535 56.4126 57.7838 56.9672C57.4362 57.1659 57.0534 57.2575 56.9329 57.1705C56.8125 57.0835 56.1828 57.0831 55.5336 57.1694C54.8845 57.2561 54.159 57.2435 53.9218 57.1422C53.6843 57.0406 53.5077 57.0717 53.529 57.2113C53.5502 57.3509 52.8692 57.6127 52.0156 57.7927C51.093 57.9877 50.4421 57.9875 50.4106 57.7923C50.3812 57.6094 50.0892 57.7245 49.7513 58.0529C49.3161 58.4756 49.0174 58.5665 48.6924 58.3749C48.4437 58.2279 47.4675 58.2895 46.5229 58.5115C45.5787 58.7334 44.7861 58.7911 44.7616 58.6392C44.7372 58.4875 44.4039 58.4403 44.0215 58.5341C43.639 58.6279 43.2512 58.691 43.1601 58.6739C42.7203 58.5915 40.865 58.6671 39.0088 58.8425C33.8611 59.3299 26.598 59.0426 23.6435 58.2347C23.2736 58.1336 22.538 58.0564 22.0087 58.0633C21.4795 58.0699 20.1634 57.9811 19.0841 57.8655C15.5001 57.4817 11.9299 57.281 11.0562 57.4141C10.5816 57.4864 10.176 57.4373 10.1547 57.3051C10.1194 57.0861 9.58583 57.1734 7.33916 57.766C6.4432 58.0023 5.82006 59.6861 6.13607 61.0166C6.24679 61.4822 6.37734 62.039 6.42638 62.2535C6.61636 63.0872 12.2333 64.2046 15.1728 63.9941C15.8296 63.947 16.5602 63.9929 16.7963 64.0959C17.2987 64.3152 20.8327 64.6745 24.0643 64.8344C25.3118 64.8962 26.6355 65.0329 27.006 65.1381C27.3766 65.2432 28.1989 65.3058 28.8335 65.2768C29.4681 65.2478 30.2756 65.3221 30.6279 65.4418C31.3637 65.6918 33.964 66.0326 34.7484 65.9817C35.0394 65.9627 36.6963 66.371 38.4302 66.8887C40.1638 67.4064 42.1755 67.9207 42.9005 68.0317C43.6256 68.1428 44.4143 68.4261 44.6535 68.6617C45.0687 69.0702 47.6892 70.0312 49.6451 70.4919C50.1505 70.6107 50.5844 70.8355 50.6094 70.9909C50.6345 71.1462 50.8388 71.2438 51.0635 71.2076C51.4237 71.1495 52.5266 71.595 55.7511 73.1002C56.2407 73.3286 56.8688 73.5819 57.147 73.6627C57.8642 73.8708 58.4741 74.2225 59.57 75.0596C60.0957 75.4612 60.6907 75.7629 60.8924 75.7304C61.0939 75.6979 61.3853 75.8885 61.5396 76.1542C61.6937 76.4199 61.8841 76.5486 61.9621 76.4403C62.154 76.1747 64.9331 78.0979 65.0053 78.5459C65.0367 78.7411 65.4521 79.0746 65.9283 79.2874C66.4046 79.5003 66.8279 79.883 66.869 80.1383C66.9101 80.3933 67.2575 80.9355 67.6414 81.3429C68.8831 82.6615 69.2343 83.4763 69.1714 84.8929C69.1197 86.0638 68.9589 86.3305 67.9346 86.9449C67.1468 87.4177 66.7002 87.9513 66.584 88.5585C66.4687 89.1631 65.9574 89.7761 65.0509 90.3976C63.5603 91.4192 60.0581 93.0087 59.6609 92.8439C59.0725 92.5993 55.3314 93.0612 54.835 93.4394C54.4177 93.7574 54.3505 94.2021 54.5412 95.3857C54.7574 96.7269 54.9181 96.9838 55.8191 97.4291C57.3889 98.2049 59.6462 98.3881 63.1469 98.0238C64.8941 97.8422 66.8317 97.7051 67.4527 97.7191C68.0737 97.7331 69.8544 97.5641 71.4098 97.3433C72.9653 97.1225 75.3105 96.866 76.6214 96.7736C77.9324 96.6812 79.8605 96.5289 80.906 96.435C81.9516 96.3414 83.9453 96.2453 85.3365 96.222C86.728 96.1983 88.1851 96.0419 88.5751 95.8746C88.9917 95.6956 89.3067 95.7094 89.3386 95.9077C89.3686 96.0935 89.4886 96.1641 89.605 96.065C89.765 95.9287 92.8712 95.8986 94.499 96.0174C95.6162 96.099 96.2634 96.0802 98.018 95.9144C99.1499 95.8078 100.736 95.78 101.544 95.853C102.351 95.926 103.462 95.9723 104.012 95.9559C104.562 95.9395 105.443 96.0181 105.969 96.1304C106.863 96.3218 107.284 96.353 109.343 96.3786C110.766 96.3964 114.494 97.1284 115.154 97.5196C115.506 97.7281 115.873 97.856 115.97 97.804C116.277 97.6392 117.748 97.8306 118.464 98.1285C118.843 98.2863 119.522 98.4635 119.973 98.5225C120.425 98.5812 121.922 99.2229 123.299 99.9484C124.677 100.674 125.925 101.248 126.073 101.224C126.22 101.2 126.751 101.472 127.252 101.828C127.754 102.183 128.735 102.813 129.434 103.227C130.161 103.659 130.968 104.491 131.324 105.178C131.666 105.836 132.217 106.551 132.548 106.766C133.327 107.271 136.567 106.92 137.029 106.28C137.448 105.701 137.312 102.788 136.809 101.583C136.082 99.8405 135.7 98.5235 135.14 95.8318C134.83 94.3386 134.464 92.9872 134.327 92.829C134.19 92.6704 134.214 92.5191 134.38 92.4923C134.547 92.4655 134.797 91.7704 134.937 90.9475C135.078 90.1248 135.422 89.0372 135.703 88.5307C135.984 88.0245 136.195 87.4895 136.171 87.3419C136.103 86.9193 137.702 84.9248 139.396 83.3212C141.32 81.4988 143.869 80.6165 149.19 79.9311C151.22 79.6695 152.795 79.3556 152.689 79.2338C152.584 79.1116 152.768 78.8748 153.1 78.7076C153.432 78.5403 153.611 78.2965 153.498 78.1656C153.385 78.035 153.45 77.8454 153.644 77.7441C153.874 77.6241 153.871 77.3649 153.634 76.9951C153.436 76.6841 153.223 76.0847 153.16 75.6628C152.934 74.1384 151.552 72.9444 149.147 72.197C148.327 71.9416 146.817 71.1538 144.907 69.9838C143.936 69.3891 142.998 68.9254 142.823 68.9537C142.647 68.9819 142.232 68.5789 141.9 68.0577C141.568 67.5366 140.72 66.7129 140.015 66.2274C139.035 65.5528 138.692 65.0914 138.56 64.2734C138.442 63.5434 138.283 63.2919 138.061 63.4839C137.853 63.664 137.799 63.614 137.911 63.3453C138.009 63.1096 137.855 62.7946 137.562 62.6284C136.818 62.2074 136.215 60.3633 135.694 56.9245C135.167 53.4407 135.067 50.4046 135.445 49.352C135.593 48.9419 135.641 48.1611 135.554 47.6163C135.407 46.7062 136.123 44.6362 136.711 44.2717C136.848 44.1871 137.035 43.7525 137.127 43.3063C137.22 42.8598 137.476 42.4894 137.697 42.4826C138.666 42.4535 140.145 42.0435 139.979 41.8504C139.878 41.7338 140.52 41.5094 141.406 41.3516C142.291 41.1935 144.044 40.804 145.3 40.4854C147.19 40.007 147.652 39.7702 147.97 39.1188C148.182 38.6851 148.342 38.2365 148.324 38.1213C148.307 38.0065 148.382 37.7894 148.49 37.6395C148.787 37.2284 148.458 35.6498 148.04 35.4759Z" fill="#037FF3"/>
<path fill-rule="evenodd" clip-rule="evenodd" d="M148.04 35.4759C147.839 35.3921 147.646 34.8721 147.613 34.3205C147.563 33.4858 147.432 33.3196 146.832 33.3308C146.373 33.3394 146.076 33.128 146.015 32.7495C145.954 32.3742 145.77 32.2409 145.516 32.3886C145.294 32.5172 144.874 32.45 144.582 32.2387C143.707 31.6067 138.994 31.9297 136.965 32.7608C135.688 33.2838 135.153 33.3845 134.841 33.161C134.528 32.9366 134.498 32.9903 134.721 33.3767C134.893 33.6749 134.872 33.9149 134.671 33.9472C134.48 33.978 134.255 33.5717 134.17 33.0448C134.078 32.4756 133.899 32.1872 133.729 32.3345C133.571 32.4711 133.544 32.7008 133.669 32.8452C133.794 32.9896 133.752 33.1311 133.574 33.1597C133.397 33.1883 133.38 33.4317 133.537 33.7007C133.733 34.0392 133.691 34.136 133.4 34.0146C133.168 33.9185 133.006 33.6691 133.04 33.4609C133.121 32.9687 131.827 32.2572 130.67 32.1573C129.229 32.0328 125.132 32.7077 125.063 33.0811C125.026 33.2792 124.573 33.2551 123.957 33.0223C123.384 32.8056 122.406 32.7099 121.784 32.8101C120.697 32.9853 120.414 32.9461 118.716 32.3879C118.262 32.2386 117.973 32.2609 118.002 32.4426C118.029 32.6111 117.831 32.7028 117.563 32.6464C117.294 32.5901 117.072 32.4495 117.068 32.3343C117.041 31.3757 116.777 31.1448 116.019 31.4202C115.334 31.6696 115.223 31.6171 115.276 31.0682C115.364 30.1492 114.65 29.6208 113.558 29.7968C112.796 29.9196 112.616 29.8265 112.608 29.307C112.601 28.8215 112.545 28.7821 112.377 29.1444C112.113 29.7151 111.31 29.4796 111.53 28.8961C111.614 28.6737 111.588 28.6101 111.472 28.7541C111.213 29.0761 109.33 28.4935 109.262 28.0702C109.235 27.9023 109.042 27.8289 108.834 27.9065C108.625 27.9845 108.461 27.8663 108.47 27.6438C108.478 27.4216 108.308 27.2681 108.091 27.3029C107.875 27.3378 107.424 26.9457 107.09 26.4313C106.756 25.9169 106.453 25.6765 106.417 25.897C106.38 26.1176 106.226 26.3179 106.074 26.3425C105.921 26.3671 105.843 26.164 105.9 25.8909C105.963 25.5924 105.759 25.3444 105.388 25.2682C104.347 25.0548 103.869 24.5868 104.209 24.1153C104.432 23.8069 104.373 23.7239 103.975 23.7879C103.682 23.8352 103.421 23.7425 103.396 23.5824C103.37 23.422 103.024 23.2968 102.628 23.3044C102.024 23.3156 101.896 23.151 101.845 22.2918C101.81 21.7153 101.48 20.9004 101.09 20.4319C100.363 19.5572 98.9653 18.9905 98.5086 19.3855C98.3614 19.5128 98.2535 19.4961 98.2688 19.3477C98.3166 18.8922 97.6072 17.7431 97.308 17.7913C97.1526 17.8163 97.0619 17.6503 97.1061 17.4221C97.2108 16.8813 96.7938 16.4538 95.8514 16.1364C95.433 15.9956 94.9471 15.5458 94.7714 15.1373C94.5959 14.7288 94.3195 14.4159 94.1573 14.4421C93.9947 14.4683 93.5762 14.0295 93.2271 13.467C92.8777 12.9046 92.453 12.4668 92.2832 12.4942C92.1131 12.5216 91.9211 12.216 91.8565 11.8154C91.7083 10.8959 90.2447 9.88757 89.0702 9.89558C87.7359 9.90493 86.9047 9.88687 86.7176 9.8444C86.6258 9.82351 86.4378 9.84545 86.2998 9.89276C86.1616 9.94043 86.1102 9.83107 86.1855 9.65019C86.2608 9.46899 86.1646 9.25563 85.972 9.17547C85.7795 9.09561 85.6575 9.24994 85.7008 9.51842C85.744 9.7869 85.6301 10.0309 85.4477 10.0603C85.2654 10.0897 85.1759 9.96942 85.2491 9.79307C85.3225 9.61666 85.2248 9.40711 85.0322 9.32694C84.8397 9.24709 84.7177 9.40142 84.7609 9.6699C84.8543 10.2495 84.2037 10.4186 83.5886 9.97425C83.2492 9.72906 83.1655 9.74254 83.2126 10.0348C83.246 10.2416 83.1647 10.4112 83.0323 10.4117C82.8999 10.4118 82.5829 10.4651 82.3282 10.53C81.9166 10.6346 81.9228 10.6728 82.3839 10.8755C82.7298 11.0274 82.7724 11.126 82.5119 11.1715C82.0401 11.2533 81.2224 12.3876 81.1774 13.0223C81.1595 13.2739 81.0448 13.5695 80.9224 13.6796C80.6295 13.9421 81.2516 15.8793 81.6103 15.8215C81.7632 15.7969 81.9222 15.9882 81.9639 16.2466C82.0056 16.5051 81.8705 16.7438 81.6637 16.7772C81.3714 16.8243 81.3849 16.9079 81.7243 17.1531C81.9644 17.3265 82.2096 17.7711 82.2692 18.1407C82.3811 18.835 83.4148 20.4683 84.1986 21.1899C84.7927 21.7366 85.8727 24.0725 85.7111 24.4615C85.6407 24.631 86.0879 25.1345 86.7049 25.5802C87.3219 26.0259 87.6698 26.4159 87.4784 26.4468C87.23 26.4868 87.2695 26.6859 87.6152 27.1396C87.8821 27.4897 88.1647 28.2759 88.2432 28.8865C88.322 29.4971 88.7407 30.5157 89.1739 31.1494C89.6075 31.7834 89.9152 32.4143 89.8583 32.5514C89.8012 32.6882 89.8433 33.7386 89.9513 34.8853C90.0592 36.0318 90.0787 37.1359 89.9944 37.3388C89.9101 37.5414 89.9012 38.2439 89.9744 38.8997C90.0479 39.5554 89.9031 40.5392 89.6527 41.0857C89.4024 41.6326 89.2129 42.1977 89.2316 42.3416C89.2852 42.7559 88.2489 43.6792 87.6158 43.7813C87.2987 43.8324 86.9923 44.0987 86.935 44.3731C86.8773 44.6476 86.7059 44.8922 86.5539 44.9167C86.1304 44.985 85.1844 46.1994 85.2479 46.5935C85.3191 47.0352 84.0544 47.8909 83.1039 48.0441C82.707 48.1081 81.7731 48.6218 81.0287 49.186C80.2846 49.7501 79.5358 50.1536 79.3649 50.0825C78.8368 49.8632 76.6823 50.9938 76.354 51.6629C76.1386 52.1013 75.678 52.3427 74.8611 52.4451C74.0558 52.5463 73.7014 52.7287 73.7481 53.0185C73.8007 53.3446 73.6803 53.3454 73.2325 53.0219C72.7963 52.7068 72.5568 52.7043 72.2876 53.0125C72.0893 53.2396 71.1901 53.6237 70.2897 53.8662C69.3893 54.1087 68.51 54.4645 68.3356 54.6568C68.1367 54.8763 67.9225 54.8954 67.7601 54.7078C67.5851 54.5052 67.3277 54.5775 66.9621 54.9332C66.6377 55.248 65.9031 55.4882 65.121 55.5356C64.2576 55.5873 63.9066 55.7146 64.078 55.9126C64.2202 56.0771 64.1873 56.2357 64.005 56.2651C63.8226 56.2945 63.6496 56.1719 63.6207 55.993C63.5591 55.6108 58.754 56.4126 57.7843 56.9672C57.4367 57.1659 57.0538 57.2575 56.9334 57.1705C56.813 57.0835 56.1833 57.0831 55.5341 57.1694C54.885 57.2561 54.1595 57.2435 53.9223 57.1422C53.6848 57.0406 53.5082 57.0717 53.5294 57.2113C53.5507 57.3509 52.8697 57.6127 52.0161 57.7927C51.0935 57.9877 50.4426 57.9875 50.4111 57.7923C50.3816 57.6094 50.0897 57.7245 49.7518 58.0529C49.3166 58.4756 49.0179 58.5665 48.6929 58.3749C48.4442 58.2279 47.468 58.2895 46.5234 58.5115C45.5792 58.7334 44.7866 58.7911 44.7621 58.6392C44.7376 58.4875 44.4044 58.4403 44.022 58.5341C43.6395 58.6279 43.2517 58.691 43.1606 58.6739C42.7208 58.5915 40.8655 58.6671 39.0093 58.8425C33.8616 59.3299 26.5985 59.0426 23.6439 58.2347C23.2741 58.1336 22.5385 58.0564 22.0092 58.0633C21.4799 58.0699 20.1639 57.9811 19.0846 57.8655C15.5006 57.4817 11.9304 57.281 11.0567 57.4141C10.582 57.4864 10.1765 57.4373 10.1552 57.3051C10.1199 57.0861 9.58632 57.1734 7.33964 57.766C6.44369 58.0023 5.82054 59.6861 6.13656 61.0166C6.24727 61.4822 6.37783 62.039 6.42687 62.2535C6.61684 63.0872 12.2338 64.2046 15.1733 63.9941C15.8301 63.947 16.5607 63.9929 16.7968 64.0959C17.2992 64.3152 20.8332 64.6745 24.0648 64.8344C25.3122 64.8962 26.636 65.0329 27.0065 65.1381C27.377 65.2432 28.1993 65.3058 28.834 65.2768C29.4686 65.2478 30.2761 65.3221 30.6284 65.4418C31.3642 65.6918 33.9645 66.0326 34.7489 65.9817C35.0399 65.9627 36.6968 66.371 38.4307 66.8887C40.1643 67.4064 42.176 67.9207 42.901 68.0317C43.626 68.1428 44.4148 68.4261 44.654 68.6617C45.0692 69.0702 47.6897 70.0312 49.6456 70.4919C50.151 70.6107 50.5848 70.8355 50.6099 70.9909C50.6349 71.1462 50.8393 71.2438 51.0639 71.2076C51.4242 71.1495 52.5271 71.595 55.7515 73.1002C56.2412 73.3286 56.8693 73.5819 57.1475 73.6627C57.8647 73.8708 58.4745 74.2225 59.5705 75.0596C60.0961 75.4612 60.6912 75.7629 60.8929 75.7304C61.0944 75.6979 61.3858 75.8885 61.5401 76.1542C61.6941 76.4199 61.8846 76.5486 61.9626 76.4403C62.1544 76.1747 64.9335 78.0979 65.0058 78.5459C65.0372 78.7411 65.4526 79.0746 65.9288 79.2874C66.4051 79.5003 66.8284 79.883 66.8695 80.1383C66.9106 80.3933 67.258 80.9355 67.6419 81.3429C68.8836 82.6615 69.2348 83.4763 69.1719 84.8929C69.1202 86.0638 68.9594 86.3305 67.9351 86.9449C67.1473 87.4177 66.7007 87.9513 66.5845 88.5585C66.4692 89.1631 65.9579 89.7761 65.0514 90.3976C63.5607 91.4192 60.0586 93.0087 59.6614 92.8439C59.073 92.5993 55.3319 93.0612 54.8355 93.4394C54.4181 93.7574 54.351 94.2021 54.5417 95.3857C54.7579 96.7269 54.9186 96.9838 55.8196 97.4291C57.3894 98.2049 59.6467 98.3881 63.1474 98.0238C64.8946 97.8422 66.8322 97.7051 67.4532 97.7191C68.0741 97.7331 69.8549 97.5641 71.4103 97.3433C72.9657 97.1225 75.3109 96.866 76.6219 96.7736C77.9329 96.6812 79.861 96.5289 80.9065 96.435C81.9521 96.3414 83.9458 96.2453 85.337 96.222C86.7285 96.1983 88.1856 96.0419 88.5755 95.8746C88.9922 95.6956 89.3072 95.7094 89.3391 95.9077C89.3691 96.0935 89.4891 96.1641 89.6055 96.065C89.7655 95.9287 92.8716 95.8986 94.4995 96.0174C95.6167 96.099 96.2639 96.0802 98.0185 95.9144C99.1504 95.8078 100.737 95.78 101.544 95.853C102.352 95.926 103.462 95.9723 104.013 95.9559C104.563 95.9395 105.443 96.0181 105.969 96.1304C106.863 96.3218 107.284 96.353 109.343 96.3786C110.766 96.3964 114.495 97.1284 115.154 97.5196C115.506 97.7281 115.873 97.856 115.97 97.804C116.277 97.6392 117.748 97.8306 118.464 98.1285C118.843 98.2863 119.522 98.4635 119.974 98.5225C120.425 98.5812 121.922 99.2229 123.3 99.9484C124.677 100.674 125.926 101.248 126.073 101.224C126.221 101.2 126.752 101.472 127.253 101.828C127.754 102.183 128.736 102.813 129.434 103.227C130.162 103.659 130.969 104.491 131.325 105.178C131.667 105.836 132.217 106.551 132.549 106.766C133.327 107.271 136.567 106.92 137.03 106.28C137.449 105.701 137.312 102.788 136.809 101.583C136.082 99.8405 135.7 98.5235 135.141 95.8318C134.831 94.3386 134.465 92.9872 134.328 92.829C134.191 92.6704 134.215 92.5191 134.381 92.4923C134.547 92.4655 134.798 91.7704 134.938 90.9475C135.078 90.1248 135.423 89.0372 135.703 88.5307C135.985 88.0245 136.195 87.4895 136.171 87.3419C136.103 86.9193 137.703 84.9248 139.396 83.3212C141.321 81.4988 143.869 80.6165 149.191 79.9311C151.221 79.6695 152.795 79.3556 152.69 79.2338C152.584 79.1116 152.769 78.8748 153.101 78.7076C153.432 78.5403 153.611 78.2965 153.498 78.1656C153.385 78.035 153.451 77.8454 153.644 77.7441C153.874 77.6241 153.871 77.3649 153.635 76.9951C153.436 76.6841 153.223 76.0847 153.16 75.6628C152.935 74.1384 151.552 72.9444 149.148 72.197C148.327 71.9416 146.818 71.1538 144.908 69.9838C143.936 69.3891 142.998 68.9254 142.823 68.9537C142.648 68.9819 142.233 68.5789 141.901 68.0577C141.569 67.5366 140.72 66.7129 140.015 66.2274C139.036 65.5528 138.692 65.0914 138.56 64.2734C138.443 63.5434 138.284 63.2919 138.062 63.4839C137.854 63.664 137.799 63.614 137.911 63.3453C138.009 63.1096 137.856 62.7946 137.563 62.6284C136.819 62.2074 136.215 60.3633 135.694 56.9245C135.167 53.4407 135.068 50.4046 135.446 49.352C135.593 48.9419 135.642 48.1611 135.554 47.6163C135.407 46.7062 136.124 44.6362 136.712 44.2717C136.848 44.1871 137.036 43.7525 137.128 43.3063C137.22 42.8598 137.476 42.4894 137.698 42.4826C138.666 42.4535 140.145 42.0435 139.979 41.8504C139.879 41.7338 140.521 41.5094 141.406 41.3516C142.292 41.1935 144.044 40.804 145.301 40.4854C147.19 40.007 147.653 39.7702 147.971 39.1188C148.183 38.6851 148.342 38.2365 148.325 38.1213C148.308 38.0065 148.382 37.7894 148.49 37.6395C148.787 37.2284 148.459 35.6498 148.04 35.4759ZM137.995 75.366C137.467 75.4761 135.926 76.5831 135.715 77.0034C135.617 77.1995 135.517 77.2498 135.492 77.1149C135.468 76.9799 135.159 77.0969 134.806 77.3746C134.453 77.6526 134.048 77.9037 133.906 77.9331C133.764 77.962 133.507 78.2619 133.335 78.5988C133.163 78.9357 132.846 79.24 132.632 79.2746C132.417 79.3092 132.348 79.521 132.478 79.7452C132.643 80.0297 132.527 80.1348 132.096 80.0932C131.657 80.0511 131.406 80.2899 131.235 80.911C131.103 81.3936 130.876 81.8075 130.732 81.8308C130.587 81.8541 130.503 82.0846 130.544 82.3431C130.586 82.6015 130.472 82.8368 130.292 82.8659C129.849 82.9374 128.71 84.7807 128.783 85.3096C128.815 85.5423 128.64 86.149 128.394 86.6579C127.85 87.7834 127.68 89.2517 127.961 90.3937C128.09 90.9163 128 91.3441 127.728 91.5016C127.398 91.6938 127.372 92.1893 127.628 93.4627C127.964 95.14 127.957 95.1657 127.146 95.1022C126.693 95.0668 126.069 94.8103 125.759 94.5324C125.449 94.2542 124.667 93.886 124.02 93.7135C123.374 93.5412 122.611 93.2962 122.325 93.1686C121.162 92.6496 116.743 91.7108 115.604 91.7409C114.935 91.7586 114.369 91.669 114.349 91.5418C114.311 91.3037 111.741 90.9234 111.258 91.0845C111.109 91.1342 110.866 91.0351 110.718 90.8642C110.57 90.6933 109.744 90.604 108.882 90.6657C108.02 90.7275 107.276 90.7593 107.228 90.7365C107.18 90.7141 107.032 90.6926 106.899 90.6893C106.766 90.686 106.489 90.6102 106.283 90.5213C106.077 90.4323 105.413 90.3544 104.808 90.3481C104.203 90.3418 103.195 90.2893 102.567 90.2318C101.2 90.1065 99.6243 90.1432 96.6549 90.3695C95.4394 90.4622 94.2713 90.4358 94.0593 90.3109C93.8476 90.1859 93.3983 90.1243 93.0607 90.1738C92.445 90.2644 89.6229 90.3159 86.0249 90.3018C84.1808 90.2946 80.1991 90.6577 76.8388 91.1392C74.3211 91.5 73.5062 91.4018 73.3971 90.7248C73.3437 90.3937 73.4332 90.1016 73.5961 90.0753C73.8969 90.0268 74.2782 89.1043 74.8762 86.9794C75.6416 84.26 74.2234 78.8988 72.3471 77.4199C71.8817 77.0529 71.214 76.2927 70.864 75.7304C70.2855 74.8015 65.3858 71.1621 63.3047 70.1154C62.8363 69.8797 61.7447 69.3312 60.8791 68.8963C60.0135 68.4615 58.8901 67.9962 58.3822 67.8627C57.8744 67.7289 57.4359 67.4752 57.4075 67.2991C57.3792 67.1234 57.1789 67.0033 56.9628 67.0324C56.5614 67.0868 54.6246 65.9863 54.5744 65.6752C54.5283 65.3889 56.3737 65.1885 56.604 65.4545C56.7221 65.591 57.1039 65.7301 57.4525 65.7635C57.9246 65.8089 58.0186 65.7083 57.8212 65.3689C57.6237 65.0288 57.6813 64.9675 58.0475 65.1277C58.3176 65.2458 60.0235 65.1329 61.8384 64.877C63.6533 64.6208 65.7549 64.4061 66.5085 64.3994C67.4002 64.392 68.0179 64.2285 68.2773 63.9314C68.5989 63.5636 68.732 63.5718 68.9656 63.9738C69.1555 64.3006 69.3101 64.3403 69.4146 64.0892C69.5039 63.8739 70.6204 63.5062 71.965 63.2493C73.2999 62.9946 74.3366 62.654 74.3121 62.4786C74.2878 62.3057 74.4197 62.3362 74.6056 62.546C74.8413 62.8121 74.9914 62.812 75.1019 62.5464C75.1889 62.3366 75.4717 62.131 75.7302 62.0893C76.0228 62.0422 76.1353 62.1757 76.0279 62.4431C75.8971 62.7699 75.9505 62.7722 76.2517 62.4533C76.758 61.9172 79.19 60.8888 80.4202 60.6906C81.1799 60.5681 81.3165 60.4343 81.1075 60.0173C80.8592 59.5215 80.8724 59.5194 81.387 59.9723C82.0492 60.5553 82.6086 60.4899 83.1927 59.7606C83.6085 59.2417 85.8374 58.3033 87.7874 57.8263C88.258 57.7113 89.009 57.156 89.4562 56.5921C89.9038 56.0286 90.402 55.5461 90.5636 55.5201C90.7253 55.494 90.8322 55.3155 90.8011 55.1228C90.7699 54.9295 91.0314 54.8006 91.3856 54.8348C91.7383 54.8689 92.1528 54.6828 92.3067 54.4215C92.461 54.1603 92.7885 53.9886 93.0347 54.0403C93.557 54.1499 94.9537 52.9682 94.8755 52.4833C94.7802 51.8915 95.6576 50.8421 96.3396 50.7321C97.0542 50.617 97.6651 49.8008 98.1728 48.2822C98.3476 47.7597 98.7199 46.9945 99.0006 46.5822C99.281 46.1699 99.5584 45.5103 99.6168 45.1168C99.6752 44.7233 99.8898 44.3734 100.093 44.3397C100.67 44.2435 101.268 42.289 101.079 41.1183C100.895 39.9773 101.216 38.3751 101.642 38.3064C101.787 38.2831 101.87 38.0476 101.827 37.7832C101.762 37.3775 101.87 37.3456 102.518 37.5793C102.94 37.7318 103.396 37.8044 103.532 37.7408C103.667 37.6769 103.717 37.7731 103.641 37.954C103.415 38.4993 104.204 38.6218 104.651 38.1108C104.99 37.7235 105.13 37.708 105.405 38.0267C105.592 38.2419 105.683 38.5657 105.608 38.7462C105.533 38.9267 105.619 38.9466 105.8 38.7906C105.983 38.6318 106.245 38.7095 106.394 38.9667C106.541 39.2191 106.928 39.383 107.254 39.3304C107.941 39.2198 108.065 39.5346 107.603 40.2134C107.334 40.6091 107.401 40.6001 107.996 40.1619C108.611 39.7089 108.672 39.7052 108.42 40.136C108.181 40.5455 108.373 40.7138 109.449 41.0388C110.252 41.2809 110.809 41.6573 110.863 41.9957C110.913 42.3024 111.108 42.6177 111.298 42.6964C111.487 42.7752 111.618 42.6901 111.589 42.5078C111.491 41.9047 112.741 41.9685 113.393 42.5999C113.824 43.0185 113.944 43.0514 113.759 42.7016C113.584 42.3701 113.644 42.1575 113.927 42.1119C114.204 42.0672 114.362 42.2878 114.349 42.7035C114.333 43.2319 114.444 43.3085 114.896 43.0804C115.208 42.9231 116.095 42.8586 116.867 42.9373C120.322 43.2891 122.928 43.7048 123.654 44.0196C124.423 44.3522 126.101 44.3801 128.144 44.0935C129.108 43.9584 129.926 44.5584 129.446 45.049C128.978 45.5283 128.331 48.3854 128.383 49.746C128.413 50.5366 128.393 51.9139 128.339 52.8066C128.284 53.6994 128.455 55.9859 128.719 57.888C129.097 60.6112 129.382 61.6844 130.061 62.9378C130.535 63.8131 130.881 64.7336 130.828 64.9838C130.776 65.2336 130.878 65.4149 131.055 65.3864C131.232 65.3578 131.312 65.4895 131.233 65.6789C131.155 65.8684 131.229 66.1821 131.398 66.3756C131.567 66.5695 131.774 66.9392 131.858 67.1976C132.158 68.118 134.176 70.9902 134.488 70.9399C134.662 70.9118 134.84 71.1065 134.883 71.3728C134.926 71.6391 135.343 72.1328 135.809 72.4695C137.17 73.4525 138.645 74.8967 138.498 75.1011C138.423 75.2047 138.197 75.3238 137.995 75.366ZM72.7038 91.5048C72.3338 91.5644 72.239 90.9719 72.5864 90.7703C72.8694 90.6058 72.9769 90.6843 72.9095 91.0059C72.8539 91.2711 72.7615 91.4955 72.7038 91.5048Z" fill="#EA9D09"/>
</svg>
