<svg width="40" height="41" viewBox="0 0 40 41" fill="none" xmlns="http://www.w3.org/2000/svg">
<path fill-rule="evenodd" clip-rule="evenodd" d="M26.4161 2.72122C24.6893 3.47621 22.5091 4.83796 20.5633 6.37682C18.5373 7.97911 18.3495 8.07045 17.8689 7.68841C17.5847 7.46263 16.953 7.1563 16.4651 7.00754C15.9772 6.85878 15.1904 6.50454 14.7167 6.22064C13.8003 5.67137 11.3311 4.95262 9.99191 4.84564C9.54755 4.80993 8.83854 4.91748 8.41598 5.08468C7.99345 5.25162 7.55093 5.31273 7.43268 5.22078C7.31444 5.12883 7.12854 5.2917 7.01918 5.58269C6.90981 5.87368 6.7377 6.0475 6.63638 5.96865C6.33896 5.73726 5.51272 8.10477 5.39651 9.52211C5.33771 10.2399 5.3227 11.3046 5.36306 11.888C5.40368 12.4715 5.43395 13.5112 5.43068 14.1985C5.42738 14.8861 5.51897 15.4028 5.63394 15.347C5.74916 15.2912 5.75787 15.529 5.65338 15.8756C5.53517 16.268 5.58284 16.5184 5.78 16.5392C5.95413 16.5575 6.01546 16.733 5.91581 16.9291C5.81641 17.1253 5.8869 17.4424 6.07239 17.6335C6.25813 17.825 6.32562 18.0909 6.22287 18.2246C6.11985 18.3583 6.16282 18.5666 6.31805 18.6875C6.75956 19.0312 6.11995 20.0578 4.34057 21.8619C2.53753 23.6896 1.15318 25.7272 1.05033 26.7044C0.887083 28.2555 2.44855 29.7323 4.74862 30.2015C5.44676 30.344 7.55063 30.438 9.42398 30.4106C13.8901 30.3454 14.4775 30.5315 15.5519 32.3532C17.9017 36.3368 21.0772 39.055 23.4915 39.1493L24.6869 39.1958L25.3292 37.8154C25.9854 36.4046 26.1017 35.9338 26.8482 31.6568C27.1901 29.6985 27.3966 29.0934 27.8678 28.6706C28.1928 28.3792 28.5903 28.1543 28.7509 28.1712C29.419 28.2415 32.1189 27.0224 33.6195 25.9727C36.5462 23.9258 38.1318 21.4147 37.8344 19.2972C37.7344 18.5864 35.6598 17.0511 34.6564 16.9455C34.3615 16.9145 33.7433 16.5767 33.2825 16.1949C32.595 15.6252 30.8813 14.7601 29.1262 14.0965C28.8889 14.0067 28.9315 12.9037 29.2982 9.61055C29.6856 6.13664 29.721 5.03726 29.4723 4.23313C29.0058 2.72498 27.7866 2.12173 26.4161 2.72122Z" fill="#16E912"/>
<path fill-rule="evenodd" clip-rule="evenodd" d="M20.3475 7.82341C20.1938 7.97435 19.9989 8.04407 19.9147 7.97841C19.8302 7.91293 19.2833 8.20032 18.6991 8.61748C18.1149 9.03464 17.5309 9.36488 17.4015 9.35126C17.2718 9.33761 17.1557 9.4237 17.1432 9.54253C17.1307 9.66137 17.2067 9.76768 17.3122 9.77878C17.4176 9.78987 17.5456 9.95583 17.5966 10.1478C17.6473 10.3397 17.6092 10.4344 17.5116 10.3586C17.3184 10.2081 16.908 10.8039 16.9585 11.1615C16.9756 11.2835 16.9704 11.8236 16.9466 12.3618C16.9229 12.9 16.9365 13.5404 16.9771 13.785C17.0176 14.0296 17.0396 14.4063 17.026 14.6223C17.0126 14.8382 17.0936 14.9702 17.2061 14.9156C17.3189 14.8609 17.451 14.9674 17.5001 15.1521C17.5491 15.3369 17.5112 15.4797 17.4157 15.4696C17.3204 15.4596 17.1065 15.6829 16.9408 15.9658C16.7749 16.2487 16.4924 16.4648 16.3127 16.4458C16.1332 16.4269 15.9708 16.5573 15.952 16.7356C15.9075 17.1586 15.7144 17.1245 15.2597 16.6138C15.0563 16.3853 14.595 16.0663 14.2346 15.9051C13.8667 15.7406 13.564 15.4313 13.5447 15.2003C13.5236 14.9469 13.594 14.8535 13.7278 14.9579C13.9532 15.133 13.8773 14.5382 13.617 14.0868C13.5432 13.9588 13.5598 13.2478 13.6541 12.5066C13.7484 11.7657 13.7625 11.1527 13.6857 11.1446C13.6088 11.1367 13.4134 10.6731 13.2514 10.1147C13.0894 9.55609 12.7936 9.02688 12.5939 8.93836C12.3942 8.85005 12.24 8.66233 12.2514 8.52152C12.2625 8.38048 12.1613 8.41657 12.0264 8.60139C11.8754 8.80833 11.6211 8.87705 11.3654 8.78001C11.1366 8.69345 11.0037 8.5523 11.0698 8.46642C11.2667 8.21036 10.7364 7.82467 10.2633 7.87952C10.0215 7.9076 9.60689 7.90154 9.34208 7.86624C9.05224 7.82743 8.84696 7.92991 8.82658 8.1235C8.80796 8.30046 8.65124 8.43034 8.4782 8.41213C8.06448 8.36858 7.66061 8.99239 7.3107 10.2154C7.15424 10.7615 6.8123 11.756 6.55061 12.4253C5.82673 14.2768 5.75532 15.5825 6.33493 16.362C6.59812 16.7158 6.73764 17.1043 6.64484 17.225C6.55204 17.3456 6.56897 17.4011 6.68238 17.3486C6.79601 17.2961 7.10943 17.3645 7.37883 17.5006C7.83413 17.7307 7.85032 17.8246 7.60894 18.829C7.40699 19.6691 7.41311 19.8788 7.63637 19.7706C7.79446 19.6937 7.65367 19.99 7.32338 20.4284C6.23808 21.8694 5.29961 23.3796 5.08319 24.0334C4.76684 24.9891 4.67634 26.2285 4.91513 26.3377C5.03051 26.3903 5.33832 26.6792 5.59914 26.9792C5.99316 27.4327 6.2699 27.5339 7.23725 27.5787C10.3324 27.7221 11.3307 27.6447 11.3713 27.2582C11.3838 27.1402 11.4802 27.111 11.5857 27.1931C11.6913 27.2752 12.1093 27.2469 12.5149 27.1304C12.9205 27.0138 13.3714 26.9476 13.5168 26.9833C13.6624 27.0187 13.8767 27.0701 13.9932 27.0974C14.1097 27.1247 14.1821 27.2182 14.1538 27.3055C14.0517 27.6218 14.3704 28.3784 14.8589 28.9801C15.5448 29.8248 16.0142 30.5822 15.9907 30.8058C15.9506 31.1865 17.4383 32.9147 18.1372 33.2991C19.5071 34.0528 22.143 34.0657 21.9445 33.3177C21.8968 33.138 21.9563 32.9432 22.0766 32.8849C22.3511 32.7517 22.5233 31.2399 22.2983 30.9371C22.2063 30.8134 22.0515 30.3103 21.9543 29.8195C21.857 29.3286 21.6737 28.7687 21.5471 28.5751C21.3157 28.2222 21.0096 26.432 21.0747 25.8139C21.0993 25.5803 21.3126 25.513 21.8045 25.5831C22.1866 25.6377 22.7243 25.6355 22.9989 25.5781C23.3831 25.4982 23.4894 25.5588 23.4597 25.8403C23.4274 26.1475 23.5642 26.1989 24.3058 26.1583C25.2624 26.1058 26.9305 25.3789 27.1677 24.9111C27.2513 24.746 27.4547 24.694 27.6417 24.7899C27.8924 24.9183 27.9442 24.8619 27.8613 24.5497C27.7691 24.2023 27.7978 24.1881 28.0557 24.454C28.3075 24.7136 28.3433 24.7097 28.2694 24.4304C28.2147 24.2243 28.406 23.9777 28.7658 23.7914C29.3683 23.4791 29.652 22.5916 29.2495 22.2784C29.133 22.1877 29.0885 21.956 29.1505 21.7635C29.3033 21.2896 28.4342 20.3689 27.9104 20.4494C27.6811 20.4847 27.4841 20.6038 27.4725 20.7137C27.4609 20.8239 27.3328 20.8819 27.1876 20.8424C26.7014 20.7101 25.0446 21.2528 24.6064 21.6879C24.3412 21.9512 24.2877 21.9456 24.1265 21.6374C24.0049 21.4046 23.9349 21.3793 23.9134 21.5604C23.8961 21.7088 23.7485 21.8161 23.5855 21.7989C23.4228 21.7818 22.8807 22.1743 22.381 22.6712C21.8813 23.168 21.4107 23.4872 21.3353 23.3803C21.2129 23.2071 20.9337 21.7326 20.8573 20.8564C20.8415 20.6745 20.7782 20.3664 20.7164 20.1716C20.5475 19.6376 20.6084 18.669 20.8095 18.693C21.3092 18.7526 21.8585 17.8546 21.8941 16.9201C21.9158 16.3467 22.0233 15.9546 22.1549 15.9684C22.2936 15.983 22.2927 15.8621 22.1522 15.65C22.0278 15.462 21.9941 15.2194 22.0774 15.1111C22.1608 15.0028 22.1371 14.8428 22.0249 14.7554C21.6612 14.4722 21.947 13.2767 22.5873 12.4023C23.3131 11.4113 23.8074 10.0768 23.7416 9.28494C23.6599 8.3018 21.0186 7.16438 20.3475 7.82341ZM18.6967 7.99223C18.5854 8.1367 18.6176 8.17679 18.7812 8.09722C18.9264 8.02687 19.0499 7.92649 19.0554 7.87398C19.0744 7.69378 18.8758 7.75919 18.6967 7.99223ZM11.5662 7.6787C11.4549 7.82317 11.4871 7.86325 11.6507 7.78369C11.7959 7.71334 11.9194 7.61296 11.9249 7.56045C11.9439 7.38025 11.7453 7.44566 11.5662 7.6787ZM11.042 7.69889C11.0358 7.75831 11.079 7.81201 11.138 7.81822C11.197 7.82443 11.2505 7.7809 11.2567 7.72148C11.263 7.66207 11.2198 7.60837 11.1607 7.60215C11.1017 7.59594 11.0483 7.63947 11.042 7.69889ZM28.3463 20.6615C28.34 20.7209 28.2866 20.7645 28.2276 20.7583C28.1685 20.752 28.1253 20.6983 28.1316 20.6389C28.1378 20.5795 28.1913 20.536 28.2503 20.5422C28.3093 20.5484 28.3525 20.6021 28.3463 20.6615ZM21.4783 25.0725C21.5388 25.199 21.54 25.2975 21.4809 25.2912C21.4219 25.285 21.3241 25.1764 21.2636 25.0499C21.2031 24.9234 21.202 24.825 21.261 24.8312C21.3201 24.8374 21.4178 24.946 21.4783 25.0725Z" fill="#FFE04A"/>
</svg>
