<svg width="438" height="128" viewBox="0 0 438 128" fill="none" xmlns="http://www.w3.org/2000/svg">
<g clip-path="url(#clip0_491_93)">
<path d="M388.831 71.6617C392.487 57.2332 401.917 52.0389 409.518 52.0389C417.89 52.0389 426.069 56.9446 427.127 71.6617H388.831ZM413.079 127.164C424.144 127.164 431.746 123.316 437.423 118.891L435.691 116.39C430.398 120.334 423.952 123.124 415.677 123.124C400.666 123.124 387.388 113.985 387.388 86.956C387.388 81.7617 387.772 77.1446 388.157 75.317H438C434.825 55.7904 422.605 48.6723 409.518 48.6723C394.315 48.6723 374.686 62.1389 374.686 87.4369C374.686 114.37 394.123 127.164 413.079 127.164ZM325.036 125.913H351.112V123.22C343.895 121.488 343.703 119.18 343.703 99.6531V72.3351L351.882 63.3894C354.576 60.3113 355.827 59.3494 358.232 59.3494C361.6 59.3494 364.006 62.4275 368.047 62.4275C371.8 62.4275 373.917 59.3494 373.917 55.0208C373.917 51.6542 371.511 49.3456 367.277 49.3456C361.696 49.3456 358.425 52.4237 351.882 59.5418L343.703 68.3913V48.6723L324.844 58.7722V61.5618C331.579 62.1389 331.579 62.6199 331.579 83.5893V99.6531C331.579 119.18 331.387 121.488 325.036 123.22V125.913ZM269.42 71.6617C273.076 57.2332 282.506 52.0389 290.108 52.0389C298.479 52.0389 306.658 56.9446 307.716 71.6617H269.42ZM293.668 127.164C304.733 127.164 312.335 123.316 318.012 118.891L316.28 116.39C310.988 120.334 304.541 123.124 296.266 123.124C281.255 123.124 267.977 113.985 267.977 86.956C267.977 81.7617 268.362 77.1446 268.746 75.317H318.589C315.414 55.7904 303.194 48.6723 290.108 48.6723C274.905 48.6723 255.275 62.1389 255.275 87.4369C255.275 114.37 274.712 127.164 293.668 127.164ZM156.552 70.1227C161.075 70.1227 164.539 66.6598 164.539 62.1389C164.539 57.7142 161.075 54.2513 156.552 54.2513C152.126 54.2513 148.758 57.7142 148.758 62.1389C148.758 66.6598 152.126 70.1227 156.552 70.1227ZM156.552 127.452C161.075 127.452 164.539 124.182 164.539 119.661C164.539 115.14 161.075 111.773 156.552 111.773C152.126 111.773 148.758 115.14 148.758 119.661C148.758 124.182 152.126 127.452 156.552 127.452ZM103.053 124.085C90.833 124.085 80.0562 114.466 80.0562 88.3988C80.0562 62.4275 90.833 51.9427 103.053 51.9427C115.466 51.9427 126.339 62.4275 126.339 88.3988C126.339 114.466 115.466 124.085 103.053 124.085ZM103.053 127.26C119.218 127.26 139.232 113.505 139.232 88.3988C139.232 63.2932 119.218 48.6723 103.053 48.6723C87.0804 48.6723 67.0663 63.2932 67.0663 88.3988C67.0663 113.505 87.0804 127.26 103.053 127.26ZM37.4301 126.971C48.7843 126.971 56.9631 122.643 61.9666 116.294L60.3308 114.274C55.616 119.468 48.7843 122.931 40.0281 122.931C23.7667 122.931 12.605 112.735 12.605 86.7636C12.605 61.658 24.5365 52.2313 37.9112 52.2313C43.877 52.2313 47.8221 54.4437 48.7843 58.2913C49.3616 60.7922 50.3238 65.5056 55.2311 65.5056C59.1762 65.5056 61.5817 62.9084 61.5817 58.8684C61.5817 52.0389 49.7465 48.8646 37.7188 48.8646C20.2065 48.8646 0 63.7741 0 87.6293C0 112.254 17.801 126.971 37.4301 126.971V126.971ZM175.027 125.913H200.718V123.22C193.79 121.488 193.598 119.18 193.598 99.6531V70.2189L198.986 65.3132C208.608 56.4637 214.381 53.7704 219.577 53.7704C226.12 53.7704 230.065 57.618 230.065 67.9103V99.6531C230.065 119.18 229.777 121.488 222.849 123.22V125.913H248.636V123.22C242.189 121.488 242.189 119.18 242.189 99.6531V68.5837C242.189 54.6361 235.069 49.057 223.138 49.057C215.536 49.057 208.127 52.9046 198.986 61.4656L193.598 66.3713V0L174.931 9.61903V12.2162C181.474 12.5047 181.474 12.9857 181.474 31.9352V99.6531C181.474 119.18 181.281 121.488 175.027 123.22V125.913Z" fill="#101010"/>
</g>
<defs>
<clipPath id="clip0_491_93">
<rect width="438" height="127.452" fill="white"/>
</clipPath>
</defs>
</svg>
