<svg width="722" height="160" viewBox="0 0 722 160" fill="none" xmlns="http://www.w3.org/2000/svg">
<path fill-rule="evenodd" clip-rule="evenodd" d="M53.2197 79.0241L80.0767 36.8181L106.935 79.0241L80.0767 94.3701L53.2197 79.0241Z" fill="#1F294F"/>
<path fill-rule="evenodd" clip-rule="evenodd" d="M53.2197 86.2319L80.0767 101.58L106.935 86.2319L80.0767 122.682L53.2197 86.2319Z" fill="#1F294F"/>
<path fill-rule="evenodd" clip-rule="evenodd" d="M92.2909 19.697C88.1198 21.6433 84.0584 23.8166 80.1249 26.207C76.1669 23.7899 72.0709 21.6061 67.8579 19.667C71.7905 17.0088 75.8543 14.55 80.0339 12.3C84.2383 14.5634 88.3289 17.032 92.2909 19.697V19.697Z" fill="#5F9A34"/>
<path fill-rule="evenodd" clip-rule="evenodd" d="M149.64 10.1871C134.896 -4.55489 108.03 -2.79389 80.0327 12.3001C84.2371 14.5634 88.3277 17.0321 92.2897 19.6971C103.128 14.6851 113.452 11.9981 122.197 11.9981C130.016 11.9981 136.577 14.1421 141.125 18.6901C150.775 28.3401 149.628 47.0171 140.129 67.5361C142.79 71.4996 145.259 75.5898 147.525 79.7921C162.62 51.7971 164.381 24.9291 149.638 10.1871H149.64Z" fill="#FFC750"/>
<path fill-rule="evenodd" clip-rule="evenodd" d="M92.291 19.697C88.1199 21.6433 84.0584 23.8166 80.125 26.207C101.866 39.6565 120.172 57.9902 133.589 79.752C135.987 75.8006 138.17 71.7227 140.129 67.536C133.774 58.1282 126.526 49.3562 118.485 41.342C110.478 33.2928 101.704 26.0435 92.29 19.697H92.291Z" fill="#FFC750"/>
<path fill-rule="evenodd" clip-rule="evenodd" d="M147.526 79.7921C145.266 83.9802 142.801 88.0545 140.14 92.0001C138.182 87.8011 135.995 83.7127 133.59 79.7531C135.988 75.8017 138.171 71.7238 140.13 67.5371C142.792 71.5006 145.26 75.5907 147.526 79.7931V79.7921Z" fill="#FF512F"/>
<path fill-rule="evenodd" clip-rule="evenodd" d="M140.14 91.998C138.182 87.7993 135.996 83.7112 133.59 79.752C126.941 90.626 119.012 100.663 109.972 109.649C101.004 118.694 90.9835 126.63 80.125 133.287C84.0541 135.685 88.116 137.858 92.291 139.797C101.705 133.45 110.478 126.201 118.485 118.152C126.53 110.153 133.782 101.394 140.14 91.998V91.998Z" fill="#FF6895"/>
<path fill-rule="evenodd" clip-rule="evenodd" d="M156.15 99.978C153.917 92.9928 151.03 86.2341 147.526 79.792C145.265 83.9794 142.801 88.053 140.14 91.998C149.63 112.507 150.777 131.163 141.126 140.803C131.476 150.453 112.809 149.297 92.2907 139.797C91.4457 140.371 90.6007 140.924 89.7547 141.467C86.5925 143.505 83.3499 145.415 80.0347 147.193C94.9377 155.233 109.519 159.49 122.128 159.49C133.197 159.49 142.747 156.21 149.64 149.317C160.427 138.529 162.731 121.01 156.15 99.978V99.978Z" fill="#FF6895"/>
<path fill-rule="evenodd" clip-rule="evenodd" d="M92.2909 139.797C91.4459 140.371 90.6009 140.924 89.7549 141.467C86.5927 143.505 83.3501 145.415 80.0349 147.193C75.8571 144.94 71.7932 142.481 67.8579 139.827C72.0709 137.888 76.1668 135.704 80.1249 133.287C84.0549 135.685 88.1159 137.858 92.2909 139.797Z" fill="#552990"/>
<path fill-rule="evenodd" clip-rule="evenodd" d="M56.2458 144.336C39.7018 149.518 26.4798 148.26 19.0228 140.803C11.5658 133.347 10.3088 120.124 15.4908 103.581C16.7423 99.6218 18.2447 95.7463 19.9888 91.978C17.3383 88.0407 14.88 83.9773 12.6228 79.802C9.12254 86.2409 6.23872 92.9963 4.00984 99.978C-2.58016 121.01 -0.266157 138.529 10.5098 149.317C17.2728 156.069 26.6718 159.5 37.9218 159.5C45.3717 159.387 52.7614 158.146 59.8388 155.817C66.8273 153.584 73.5893 150.697 80.0348 147.193C75.8574 144.94 71.7938 142.481 67.8588 139.827C64.0888 141.577 60.2101 143.083 56.2468 144.336H56.2458Z" fill="#5666F6"/>
<path fill-rule="evenodd" clip-rule="evenodd" d="M67.8577 139.827C72.0707 137.888 76.1667 135.704 80.1247 133.287C69.2302 126.638 59.1756 118.701 50.1777 109.649C41.1255 100.651 33.1891 90.5964 26.5397 79.7019C24.1232 83.6651 21.9363 87.7639 19.9897 91.9779C26.3578 101.381 33.6199 110.146 41.6747 118.152C49.6761 126.212 58.4454 133.471 67.8577 139.827V139.827Z" fill="#5666F6"/>
<path fill-rule="evenodd" clip-rule="evenodd" d="M26.54 79.7021C24.1235 83.6654 21.9366 87.7641 19.99 91.9781C17.3391 88.0409 14.8806 83.9774 12.623 79.8021C14.8875 75.5934 17.3596 71.4997 20.03 67.5361C21.9685 71.7112 24.142 75.773 26.54 79.7021V79.7021Z" fill="#204FA0"/>
<path fill-rule="evenodd" clip-rule="evenodd" d="M19.0229 18.69C26.4799 11.234 39.7029 9.97601 56.2459 15.168C60.2075 16.4212 64.0859 17.9235 67.8579 19.666C71.7906 17.0081 75.8544 14.5497 80.0339 12.3C73.5904 8.79183 66.828 5.90417 59.8379 3.67601C38.8169 -2.90399 21.2979 -0.599986 10.5099 10.187C3.61694 17.08 0.335938 26.63 0.335938 37.7C0.335938 50.309 4.59294 64.9 12.6229 79.803C14.8874 75.5943 17.3595 71.5006 20.0299 67.537C10.5299 47.017 9.37294 28.34 19.0229 18.69Z" fill="#5FC5A6"/>
<path fill-rule="evenodd" clip-rule="evenodd" d="M67.8578 19.666C49.0375 32.462 32.8092 48.7045 20.0298 67.536C21.9683 71.7111 24.1417 75.7729 26.5398 79.702C39.9918 57.9408 58.3409 39.6225 80.1248 26.207C76.1667 23.7898 72.0707 21.6061 67.8578 19.667V19.666Z" fill="#5FC5A6"/>
<path d="M703.678 112.305V118.971C702.516 119.654 701.191 120.008 699.843 119.996C694.353 120.132 689.488 116.473 688.08 111.151C679.88 120.137 666.636 122.378 655.95 116.589C645.262 110.799 639.873 98.463 642.875 86.661C645.877 74.859 656.5 66.617 668.647 66.667C672.111 66.6588 675.543 67.334 678.746 68.6539C681.949 69.9738 684.86 71.9125 687.313 74.359V67.692H695.24V105.638C695.24 110.382 697.67 112.305 700.482 112.305H703.678ZM687.313 93.332C687.313 82.995 678.956 74.615 668.647 74.615C658.337 74.615 649.981 82.995 649.981 93.332C649.981 103.669 658.338 112.048 668.647 112.048C678.951 112.036 687.301 103.664 687.313 93.332V93.332ZM713.672 41.667H722V120H713.672V41.667V41.667ZM630.392 92.987C630.397 103.879 623.945 113.708 614.03 117.91C604.115 122.111 592.68 119.862 585.036 112.207V118.96H577.092V40H585.036V73.766C592.681 66.111 604.116 63.861 614.03 68.063C623.945 72.265 630.397 82.093 630.392 92.987V92.987ZM622.448 92.987C622.448 82.515 614.073 74.026 603.742 74.026C593.412 74.026 585.036 82.515 585.036 92.986C585.036 103.458 593.411 111.947 603.742 111.947C606.207 111.952 608.648 111.465 610.923 110.515C613.197 109.565 615.259 108.17 616.987 106.412C620.507 102.832 622.469 98.0071 622.448 92.987V92.987ZM508.803 93.333C508.803 78.606 520.733 66.667 535.453 66.667C550.17 66.667 562.102 78.606 562.102 93.333C562.102 108.061 550.171 120 535.452 120C531.951 120.003 528.484 119.315 525.25 117.975C522.015 116.636 519.076 114.672 516.602 112.196C514.126 109.718 512.163 106.777 510.825 103.541C509.486 100.304 508.799 96.8354 508.802 93.333H508.803ZM554.158 93.333C554.158 82.996 545.783 74.616 535.452 74.616C525.122 74.616 516.746 82.996 516.746 93.334C516.746 103.671 525.121 112.051 535.452 112.051C545.778 112.039 554.146 103.666 554.158 93.333ZM468.828 77.406V79.728C468.962 99.838 454.463 116.922 434.963 119.632C415.463 122.342 397.026 109.834 391.901 90.417C386.776 71.001 396.557 50.715 414.745 43.037C432.933 35.357 453.873 42.674 463.653 60.125L456.712 64.123C449.322 50.783 433.616 44.805 419.487 49.954C405.359 55.104 396.899 69.89 399.439 84.997C401.979 100.105 414.781 111.159 429.782 111.195C444.782 111.231 457.636 100.24 460.246 85.145H429.83V77.406H468.826H468.828ZM485.484 41.666H493.812V120H485.484V41.667V41.666ZM377.22 41.666V120H360.435V88.406H329.173V120H312.261V41.667H329.173V73.13H360.435V41.667H377.22V41.666ZM305.599 56.942H286.475V120H269.885V56.942H250.634V41.667H305.599V56.942V56.942ZM216.053 56.812V73.262H241.373V88.406H216.053V104.856H245.637V120H199V41.667H245.637V56.81H216.053V56.812Z" fill="#1F294F"/>
</svg>
