<svg width="109" height="127" viewBox="0 0 109 127" fill="none" xmlns="http://www.w3.org/2000/svg">
<path fill-rule="evenodd" clip-rule="evenodd" d="M26.479 99.0847L32.4568 94.1667C31.4565 91.7374 30.8589 89.3298 30.7358 86.6683L21.8457 80.0414C21.0005 79.3671 20.4465 78.3592 20.626 77.6702L20.8774 76.7056L21.1288 75.741C21.5277 74.994 22.2215 74.682 23.2103 74.8051L33.3933 76.4713C34.6656 74.7234 36.3046 73.1349 38.2387 71.9814L35.7803 63.3953C35.3737 62.6049 35.7726 61.8579 36.6498 61.6257C37.1204 61.4141 37.6587 61.3026 38.1617 61.1984C38.4004 61.149 38.6312 61.1012 38.8429 61.0451C39.5008 60.8709 40.6371 61.2116 41.4823 61.8859L49.7901 69.1801C52.4616 69.1143 55.428 69.4837 58.3226 70.1286L63.4911 64.3985C64.0375 63.869 65.0981 63.7165 66.0151 64.1152L67.2988 64.6734L68.5826 65.2316C69.4637 65.7681 70.2729 66.5802 70.4242 67.5665L71.8579 76.1673C74.4652 77.9146 77.0006 79.9375 79.0975 82.0765L88.9098 82.8145C89.7512 82.72 90.8156 83.3363 91.4056 84.2064C91.83 84.7031 92.1536 85.2265 92.4559 85.7155C92.5993 85.9475 92.738 86.1718 92.8804 86.3818C93.3228 87.0344 93.2908 87.941 92.7444 88.4705L86.7666 93.3885C87.7669 95.8177 88.3286 98.3631 88.5235 100.749L97.4136 107.376C98.2588 108.05 98.8128 109.058 98.6332 109.747L98.3819 110.712L98.1305 111.676C97.7316 112.423 97.0378 112.735 96.049 112.612L85.866 110.946C84.5937 112.694 82.9547 114.283 81.0206 115.436L83.479 124.022C83.8856 124.812 83.4867 125.559 82.6095 125.792C82.1389 126.003 81.6006 126.115 81.0976 126.219C80.8589 126.268 80.6281 126.316 80.4164 126.372C79.7585 126.546 78.6222 126.206 77.777 125.531L69.6166 118.455C66.9452 118.521 63.9788 118.151 61.0842 117.506L55.7682 123.019C55.2218 123.548 54.1612 123.701 53.2442 123.302L51.9604 122.744L50.6767 122.186C49.6122 121.57 48.9864 120.837 48.7991 119.989L47.3655 111.388C44.7582 109.641 42.2227 107.618 40.1259 105.479L30.3135 104.741C29.4722 104.835 28.4077 104.219 27.8178 103.349C27.3934 102.852 27.0698 102.329 26.7675 101.84C26.624 101.608 26.4854 101.383 26.343 101.173C25.9005 100.521 25.9326 99.6142 26.479 99.0847ZM63.3614 104.558C69.8746 104.558 73.2761 99.6236 70.959 93.5366C68.6419 87.4495 61.4835 82.515 54.9704 82.515C48.4572 82.515 45.0556 87.4495 47.3728 93.5366C49.6899 99.6236 56.8482 104.558 63.3614 104.558Z" fill="#43AFDE"/>
<path fill-rule="evenodd" clip-rule="evenodd" d="M11.85 29.156L16.4264 25.391C15.6606 23.5313 15.2031 21.6881 15.1089 19.6506L8.30298 14.5773C7.65597 14.0611 7.23183 13.2895 7.36929 12.762L7.56174 12.0236L7.75419 11.2851C8.05955 10.7132 8.59073 10.4744 9.34771 10.5686L17.1434 11.8442C18.1174 10.506 19.3722 9.28994 20.8528 8.40692L18.9707 1.83377C18.6595 1.22866 18.9649 0.656761 19.6364 0.478982C19.9967 0.317017 20.4088 0.231646 20.7939 0.151884C20.9766 0.114033 21.1533 0.0774452 21.3154 0.0345345C21.819 -0.0988001 22.6889 0.161985 23.3359 0.678201L29.6961 6.26233C31.7412 6.212 34.0122 6.49475 36.2282 6.98848L40.185 2.60176C40.6033 2.1964 41.4152 2.07967 42.1172 2.3849L43.1 2.81223L44.0828 3.23955C44.7573 3.65028 45.3769 4.27198 45.4927 5.02702L46.5903 11.6114C48.5863 12.9491 50.5273 14.4977 52.1326 16.1353L59.6445 16.7002C60.2886 16.628 61.1035 17.0997 61.5551 17.7659C61.88 18.1461 62.1278 18.5468 62.3592 18.9211C62.469 19.0988 62.5752 19.2705 62.6842 19.4313C63.0229 19.9309 62.9984 20.6249 62.5801 21.0302L58.0037 24.7952C58.7695 26.655 59.1995 28.6037 59.3487 30.4302L66.1547 35.5035C66.8017 36.0197 67.2258 36.7913 67.0883 37.3188L66.8959 38.0572L66.7034 38.7957C66.3981 39.3676 65.8669 39.6064 65.1099 39.5122L57.3143 38.2366C56.3403 39.5748 55.0855 40.7909 53.6049 41.6739L55.4869 48.247C55.7981 48.8521 55.4928 49.424 54.8212 49.6018C54.461 49.7638 54.0488 49.8491 53.6637 49.9289C53.481 49.9668 53.3044 50.0033 53.1423 50.0463C52.6386 50.1796 51.7687 49.9188 51.1217 49.4026L44.8744 43.985C42.8293 44.0353 40.5583 43.7526 38.3424 43.2588L34.2726 47.479C33.8544 47.8844 33.0424 48.0011 32.3404 47.6959L31.3576 47.2686L30.3748 46.8412C29.5599 46.3695 29.0808 45.8088 28.9374 45.1593L27.8399 38.5749C25.8438 37.2372 23.9028 35.6886 22.2976 34.051L14.7856 33.486C14.1415 33.5583 13.3266 33.0866 12.875 32.4204C12.5501 32.0402 12.3024 31.6395 12.0709 31.2652C11.9611 31.0875 11.8549 30.9158 11.7459 30.755C11.4072 30.2554 11.4318 29.5614 11.85 29.156ZM40.0857 33.3463C45.0719 33.3463 47.676 29.5686 45.9021 24.9086C44.1282 20.2486 38.6481 16.4709 33.6619 16.4709C28.6757 16.4709 26.0716 20.2486 27.8455 24.9086C29.6194 29.5686 35.0995 33.3463 40.0857 33.3463Z" fill="#FD73C5"/>
</svg>
