<svg width="287" height="300" viewBox="0 0 287 300" fill="none" xmlns="http://www.w3.org/2000/svg">
<path fill-rule="evenodd" clip-rule="evenodd" d="M102.179 295.88C102.6 296.219 103.132 296.208 104.588 295.83C105.708 295.538 106.567 295.154 106.731 294.871C106.907 294.567 107.099 294.487 107.27 294.649C107.444 294.813 107.725 294.719 108.09 294.372C108.396 294.082 108.838 293.762 109.073 293.661C109.308 293.559 109.752 293.344 110.058 293.182C110.365 293.021 111.124 292.649 111.745 292.357C112.367 292.066 112.988 291.669 113.125 291.476C113.263 291.284 114.645 290.566 116.196 289.881C117.748 289.197 119.569 288.292 120.243 287.87C120.918 287.449 121.934 286.969 122.502 286.805C123.813 286.426 125.019 285.899 126.063 285.25C126.515 284.969 127.201 284.769 127.588 284.806C127.975 284.842 128.719 284.688 129.242 284.463C131.421 283.525 141.998 280.237 147.244 278.867C153.063 277.348 162.108 275.303 162.778 275.355C163.167 275.385 163.864 275.217 164.326 274.982C164.788 274.747 165.44 274.61 165.775 274.676C166.11 274.743 167.484 274.534 168.83 274.213C170.175 273.891 171.444 273.679 171.65 273.742C171.856 273.805 172.903 273.708 173.976 273.526C175.049 273.344 176.544 273.091 177.297 272.965C179.776 272.548 183.278 272.196 183.952 272.296C184.316 272.35 185.168 272.324 185.844 272.237C186.52 272.151 187.494 272.048 188.008 272.01C188.522 271.971 189.251 271.888 189.627 271.825C190.004 271.762 190.339 271.81 190.371 271.932C190.404 272.055 190.698 272.083 191.024 271.996C191.35 271.909 191.657 271.986 191.705 272.167C191.758 272.366 192.055 272.35 192.456 272.128C192.821 271.926 193.645 271.832 194.286 271.919C194.928 272.006 196.055 271.955 196.79 271.805C197.712 271.617 198.114 271.659 198.085 271.941C198.062 272.166 198.191 272.31 198.372 272.262C198.552 272.214 198.661 272.027 198.612 271.846C198.559 271.646 198.751 271.55 199.104 271.602C199.422 271.649 200.178 271.544 200.785 271.369C201.391 271.194 201.997 271.155 202.131 271.281C202.265 271.408 202.602 271.452 202.88 271.378C203.157 271.303 203.606 271.45 203.876 271.703C204.698 272.471 209.835 271.779 209.93 270.888C209.958 270.624 210.209 270.389 210.488 270.366C210.768 270.344 211.051 270.096 211.118 269.816C211.303 269.042 211.369 268.029 211.25 267.794C211.192 267.679 211.31 267.536 211.512 267.476C211.754 267.405 211.684 267.287 211.31 267.133C210.439 266.775 210.427 266.739 210.76 265.496C210.991 264.636 210.967 264.326 210.666 264.302C210.109 264.259 210.057 263.888 210.5 263.123C210.706 262.768 210.802 262.125 210.713 261.693C210.466 260.488 210.476 260.4 210.847 260.512C211.037 260.569 211.14 260.419 211.076 260.178C211.012 259.937 211.11 259.636 211.295 259.509C211.479 259.382 211.492 259.192 211.324 259.086C211.155 258.981 210.949 259.12 210.867 259.394C210.784 259.668 210.612 259.832 210.483 259.758C210.265 259.631 211.543 257.056 211.77 257.166C211.828 257.195 212.091 257.16 212.355 257.09C212.686 257.002 212.74 256.794 212.527 256.42C212.358 256.122 212.365 255.673 212.542 255.423C212.789 255.076 212.888 255.056 212.964 255.338C213.042 255.631 213.136 255.604 213.414 255.212C213.608 254.94 213.642 254.52 213.49 254.279C213.167 253.766 213.406 252.751 213.797 252.977C214.214 253.218 214.701 252.33 214.54 251.621C214.46 251.27 214.507 251.132 214.644 251.314C214.781 251.496 215.066 251.599 215.279 251.542C215.801 251.403 216.322 249.746 215.952 249.397C215.772 249.227 215.812 249.165 216.056 249.239C216.316 249.317 216.387 249.105 216.259 248.626C216.097 248.016 216.195 247.873 216.843 247.774C217.488 247.675 217.612 247.498 217.564 246.741C217.528 246.172 217.665 245.845 217.926 245.872C218.156 245.897 218.368 245.699 218.396 245.433C218.425 245.167 218.833 244.644 219.304 244.27L220.161 243.59L219.342 243.796C218.891 243.91 218.483 243.853 218.434 243.671C218.384 243.482 218.629 243.338 219.006 243.336C219.469 243.334 219.589 243.228 219.409 242.979C219.268 242.784 219.278 242.327 219.432 241.963C219.703 241.321 219.71 241.319 219.665 241.907C219.625 242.425 219.713 242.452 220.271 242.099C221.054 241.603 222.05 240.341 221.897 240.038C221.837 239.919 222.142 239.49 222.576 239.084C223.649 238.078 224.098 237.407 223.852 237.175C223.739 237.068 223.817 236.858 224.024 236.708C224.254 236.541 224.276 236.213 224.079 235.866C223.793 235.362 223.862 235.29 224.692 235.238C225.467 235.189 225.598 235.085 225.456 234.636C225.362 234.338 225.273 233.618 225.259 233.036C225.241 232.267 225.347 232.044 225.647 232.217C226.34 232.619 226.546 232.373 226.297 231.44C226.167 230.95 226.186 230.516 226.339 230.475C226.798 230.353 227.125 230.834 226.766 231.104C226.505 231.299 226.514 231.337 226.808 231.278C227.014 231.237 227.272 230.913 227.381 230.558C227.5 230.17 227.812 229.911 228.164 229.909C228.567 229.907 228.706 229.746 228.612 229.39C228.514 229.026 228.605 228.928 228.92 229.056C229.535 229.307 230.872 228.87 230.685 228.479C230.602 228.304 230.696 228.122 230.896 228.076C231.857 227.853 232.283 227.589 232.044 227.364C231.9 227.228 231.931 227.077 232.114 227.028C232.3 226.978 232.304 226.803 232.124 226.628C231.895 226.407 231.975 226.394 232.398 226.583C232.92 226.816 232.959 226.777 232.709 226.262C232.553 225.938 232.551 225.64 232.704 225.599C232.858 225.558 233.034 225.712 233.095 225.942C233.168 226.213 233.4 226.249 233.759 226.046C234.062 225.873 234.276 225.6 234.233 225.438C234.189 225.277 233.942 225.288 233.683 225.463C233.35 225.689 233.366 225.56 233.74 225.022C234.03 224.603 234.475 224.282 234.727 224.309C234.981 224.336 235.441 223.92 235.751 223.385C236.061 222.849 236.509 222.359 236.746 222.296C236.988 222.232 237.105 221.905 237.011 221.556C236.897 221.127 236.996 220.947 237.326 220.982C237.591 221.01 237.95 220.786 238.124 220.485C238.299 220.183 238.664 219.878 238.936 219.805C239.207 219.733 239.428 219.388 239.427 219.038C239.424 218.374 239.885 218.029 240.034 218.585C240.081 218.762 240.271 218.806 240.457 218.684C240.643 218.562 240.76 218.33 240.717 218.168C240.623 217.814 241.371 216.456 241.47 216.802C241.558 217.108 241.899 216.087 241.818 215.76C241.785 215.627 241.63 215.655 241.472 215.821C241.304 216 241.232 215.973 241.297 215.758C241.358 215.556 241.679 215.39 242.011 215.388C242.454 215.386 242.564 215.242 242.424 214.851C242.319 214.557 242.409 214.306 242.623 214.292C242.838 214.278 242.98 214.138 242.938 213.98C242.895 213.822 243.08 213.716 243.349 213.744C243.627 213.774 243.861 213.571 243.893 213.272C243.923 212.983 244.131 212.698 244.354 212.639C244.578 212.579 245.119 212.156 245.557 211.699C245.995 211.241 246.47 210.902 246.614 210.945C246.757 210.988 247.006 210.664 247.168 210.225C247.414 209.557 247.526 209.485 247.852 209.79C248.182 210.099 248.322 210.025 248.768 209.308C249.057 208.842 249.452 208.418 249.646 208.367C249.839 208.315 249.952 208.102 249.897 207.894C249.781 207.46 250.577 206.182 250.86 206.346C251.342 206.626 254.946 202.988 254.785 202.385C254.729 202.176 254.866 201.873 255.089 201.712C255.706 201.265 254.673 200.416 253.248 200.199C252.209 200.04 252.144 199.981 252.62 199.63C253.075 199.294 252.922 199.204 251.55 198.994C249.953 198.751 247.675 199.101 248.12 199.522C248.249 199.644 248.056 199.828 247.692 199.932C246.564 200.252 245.314 200.783 245.053 201.054C244.916 201.196 244.161 201.583 243.375 201.914C242.589 202.245 240.744 203.102 239.274 203.819C237.805 204.536 236.154 205.32 235.607 205.561C235.059 205.802 233.981 206.318 233.211 206.707C231.182 207.733 230.523 208.046 229.403 208.52C228.321 208.977 227.614 209.294 225.002 210.491C224.067 210.919 222.408 211.67 221.314 212.158C220.221 212.647 218.674 213.407 217.877 213.846C217.079 214.285 215.929 214.695 215.321 214.756C214.712 214.816 213.96 215.089 213.648 215.361C213.337 215.634 212.166 216.173 211.045 216.56C205.816 218.366 204.599 218.816 203.956 219.179C203.092 219.667 202.209 219.995 198.894 221.055C197.444 221.519 196.062 222.048 195.823 222.23C195.583 222.413 195.28 222.461 195.149 222.337C195.016 222.212 194.242 222.392 193.393 222.747C191.711 223.449 180.592 226.279 178.865 226.444C178.262 226.502 176.76 226.769 175.527 227.039C174.294 227.309 172.713 227.528 172.013 227.526C171.313 227.524 170.122 227.618 169.366 227.734C168.611 227.85 167.636 227.949 167.2 227.954C166.764 227.959 165.639 228.029 164.699 228.11C163.759 228.191 162.65 228.19 162.235 228.107C161.82 228.025 161.425 228.054 161.357 228.172C161.198 228.446 158.134 228.213 157.565 227.884C157.328 227.746 156.953 227.683 156.732 227.742C156.511 227.801 155.63 227.742 154.774 227.611C153.919 227.48 152.921 227.331 152.558 227.28C150.863 227.044 149.432 226.72 147.991 226.245C147.128 225.961 146.016 225.678 145.519 225.618C145.022 225.557 144.572 225.343 144.518 225.143C144.465 224.942 144.036 224.571 143.565 224.318C142.902 223.961 142.65 223.958 142.449 224.306C142.284 224.591 142.159 224.639 142.106 224.439C141.955 223.872 139.762 225.372 139.476 226.239C139.276 226.843 139.495 228.252 140.354 231.887C140.984 234.551 141.601 237.347 141.727 238.101C141.852 238.854 142.097 239.962 142.272 240.563C142.604 241.706 142.633 246.474 142.311 246.857C142.209 246.978 141.954 248.119 141.746 249.392C141.537 250.664 141.159 252.216 140.907 252.84C140.653 253.464 140.483 254.112 140.528 254.281C140.574 254.45 140.125 255.459 139.531 256.522C138.937 257.586 138.457 258.78 138.463 259.175C138.468 259.57 137.86 260.63 137.11 261.53C136.36 262.43 135.379 263.74 134.93 264.442C133.582 266.549 132.341 268.153 131.317 269.112C130.784 269.611 130.167 270.327 129.947 270.703C129.191 271.991 128.825 272.406 128.525 272.315C128.36 272.265 127.826 272.684 127.339 273.247C126.852 273.809 126.113 274.455 125.697 274.681C125.282 274.908 124.005 275.874 122.861 276.828C121.717 277.783 120.474 278.753 120.099 278.985C119.724 279.218 119.258 279.617 119.064 279.873C118.87 280.13 118.322 280.487 117.845 280.666C116.808 281.057 115.263 282.306 115.361 282.675C115.4 282.819 115.091 283.029 114.675 283.14C114.259 283.251 113.571 283.657 113.146 284.043C112.722 284.429 112.201 284.731 111.99 284.713C111.778 284.696 111.276 284.975 110.875 285.333C110.473 285.692 109.552 286.262 108.829 286.601C108.105 286.94 107.204 287.397 106.826 287.618C106.448 287.839 105.63 288.258 105.008 288.55C104.387 288.841 103.649 289.292 103.368 289.55C103.087 289.808 102.697 290.006 102.5 289.988C102.303 289.971 102.027 290.207 101.886 290.513C101.745 290.819 101.454 291.115 101.24 291.172C101.026 291.229 100.846 291.528 100.839 291.836C100.813 292.932 101.648 295.452 102.179 295.88ZM209.672 265.116C210.151 264.988 210.618 265.314 210.427 265.643C210.258 265.936 209.403 265.823 209.315 265.495C209.276 265.349 209.437 265.179 209.672 265.116ZM228.274 231.231C228.338 231.213 228.414 230.979 228.443 230.709C228.471 230.439 228.365 230.253 228.207 230.295C228.049 230.337 227.973 230.572 228.038 230.816C228.104 231.061 228.21 231.248 228.274 231.231ZM246.377 210.192C246.541 210.148 246.712 210.254 246.758 210.427C246.804 210.6 246.686 210.694 246.496 210.637C246.306 210.58 246.135 210.474 246.115 210.402C246.096 210.33 246.214 210.235 246.377 210.192ZM253.657 199.35C253.821 199.307 253.901 199.071 253.836 198.826C253.77 198.581 253.583 198.417 253.42 198.46C253.257 198.504 253.177 198.74 253.242 198.984C253.307 199.229 253.494 199.394 253.657 199.35Z" fill="#037FF3"/>
<path fill-rule="evenodd" clip-rule="evenodd" d="M60.1215 221.958C60.1384 221.599 59.4997 220.949 58.7025 220.512C57.4963 219.852 57.3411 219.54 57.7785 218.656C58.113 217.98 58.007 217.389 57.4868 217.033C56.971 216.68 56.9019 216.312 57.2998 216.038C57.6466 215.798 57.8416 215.126 57.7322 214.543C57.4057 212.798 61.1911 206.015 63.8505 203.58C65.524 202.047 66.049 201.322 65.9354 200.701C65.8214 200.078 65.9222 200.071 66.3406 200.674C66.6634 201.139 67.0351 201.276 67.2241 201C67.4037 200.738 66.9576 200.117 66.2334 199.621C65.451 199.086 65.1475 198.617 65.4862 198.467C65.8 198.328 66.1605 198.449 66.2875 198.737C66.4147 199.024 66.655 199.06 66.8219 198.816C66.9885 198.573 67.3625 198.718 67.653 199.139C68.0188 199.669 68.1921 199.675 68.2162 199.156C68.2357 198.744 67.9781 198.328 67.6445 198.233C66.8559 198.007 66.705 195.584 67.3677 193.793C68.1932 191.562 72.0709 185.941 72.6747 186.1C72.9953 186.184 73.2768 185.494 73.3624 184.415C73.4423 183.41 73.986 181.888 74.5712 181.033C75.5937 179.54 75.7345 179.09 76.0945 176.174C76.1907 175.394 76.4272 174.979 76.6769 175.15C76.9086 175.308 77.1836 175.079 77.288 174.64C77.3927 174.2 77.3397 173.771 77.1706 173.685C75.7635 172.973 75.6058 172.417 76.5465 171.484C77.3985 170.639 77.3983 170.437 76.5447 170.13C75.1157 169.617 74.8303 168.185 75.8584 166.684C76.5751 165.637 76.563 165.303 75.7956 164.928C75.0785 164.577 75.0592 164.465 75.7158 164.47C76.7503 164.477 76.9627 163.118 75.9405 163.036C75.5509 163.005 75.4748 162.921 75.7701 162.85C76.4307 162.691 76.8848 159.481 76.3031 159.082C76.0723 158.924 76.0984 158.586 76.3599 158.331C76.6222 158.075 76.5611 157.749 76.2242 157.605C75.888 157.462 75.7788 157.101 75.9825 156.804C76.1862 156.506 75.9189 155.561 75.3885 154.703C74.8578 153.845 74.7126 153.225 75.066 153.326C75.4193 153.427 75.8254 153.338 75.969 153.129C76.1126 152.919 75.8652 152.661 75.4189 152.554C74.9309 152.438 74.7053 151.961 74.8519 151.356C75.2646 149.657 74.904 148.618 73.9639 148.793C73.3487 148.909 73.2669 148.762 73.641 148.216C73.9167 147.813 73.9618 147.36 73.7418 147.21C73.5213 147.059 73.5776 146.456 73.8669 145.872C74.307 144.982 74.1515 144.677 72.9095 143.998C72.0763 143.542 71.0962 142.479 70.6725 141.571C69.8812 139.876 70.0187 137.399 70.9266 136.997C71.2191 136.867 71.2699 136.695 71.0384 136.614C70.3275 136.365 69.1157 134.504 69.3973 134.093C69.5435 133.879 69.3602 133.628 68.9897 133.534C68.1118 133.31 67.7684 132.39 67.9573 130.766C68.0412 130.044 67.713 129.006 67.2286 128.458C66.744 127.911 66.4725 127.28 66.6252 127.057C66.7782 126.834 66.419 125.904 65.8272 124.99C65.2357 124.076 64.8824 123.137 65.0422 122.904C65.2023 122.67 64.8824 122.17 64.3317 121.793C63.0679 120.927 62.5946 118.043 63.4302 116.302C64.3799 114.324 64.936 113.075 65.0041 112.766C65.0374 112.615 65.2019 112.351 65.369 112.179C65.5369 112.007 65.4103 111.854 65.0884 111.839C64.7661 111.824 64.5161 111.531 64.532 111.188C64.5482 110.846 64.8634 110.773 65.2324 111.025C65.6014 111.278 66.0443 111.28 66.2158 111.029C66.3874 110.779 66.2713 110.561 65.9577 110.546C65.6437 110.532 65.4006 110.239 65.4164 109.897C65.4327 109.554 65.7478 109.481 66.1168 109.734C66.9134 110.279 67.6213 109.43 67.3918 108.203C67.2651 107.527 67.3438 107.412 67.7455 107.687C68.0297 107.881 68.3391 107.879 68.4325 107.683C68.5256 107.486 68.8272 107.052 69.1023 106.718C69.5466 106.179 69.5991 106.215 69.5773 107.044C69.5606 107.665 69.6774 107.797 69.9277 107.442C70.3803 106.797 72.6411 106.376 73.6166 106.755C74.0035 106.904 74.5236 106.941 74.7731 106.836C75.3691 106.585 77.8143 108.869 77.4768 109.362C77.3329 109.572 77.5059 109.943 77.8611 110.186C78.2164 110.429 78.6662 110.396 78.8608 110.111C79.1358 109.71 79.2508 109.788 79.3775 110.465C79.4671 110.944 79.9563 111.62 80.4644 111.968C81.4186 112.622 83.1231 115.305 83.6466 116.977C84.0433 118.244 86.7604 121.489 87.4523 121.521C87.7538 121.535 88.1891 122.554 88.4194 123.784C88.6496 125.014 88.9857 125.805 89.1659 125.542C89.3996 125.201 89.668 125.399 90.1005 126.232C90.434 126.874 91.4053 127.846 92.2585 128.391C93.1114 128.936 94.3328 130.274 94.9717 131.362C95.6107 132.452 96.3332 133.352 96.5771 133.364C96.8206 133.375 98.3535 134.174 99.9835 135.139C101.613 136.103 103.242 136.907 103.603 136.924C103.963 136.94 105.014 137.42 105.938 137.989C106.862 138.558 108.427 139.032 109.416 139.043C110.405 139.055 111.378 139.169 111.579 139.298C112.158 139.668 114.258 138.774 114.854 137.904C115.152 137.468 115.763 137.199 116.212 137.306C116.66 137.413 117.144 137.33 117.287 137.121C117.686 136.539 120.156 135.983 120.698 136.354C121.305 136.77 123.464 135.489 124.359 134.182C124.733 133.637 126.152 132.608 127.513 131.896C128.874 131.185 129.999 130.355 130.013 130.05C130.058 129.111 133.25 126.699 134.476 126.68C135.279 126.667 135.961 126.151 136.686 125.008C137.402 123.881 137.922 123.482 138.32 123.755C138.768 124.062 138.854 123.883 138.686 122.99C138.524 122.121 138.688 121.762 139.335 121.578C139.812 121.442 141.014 120.374 142.006 119.205C142.998 118.036 144.144 116.978 144.553 116.853C145.019 116.711 145.197 116.406 145.032 116.033C144.854 115.63 145.142 115.298 145.927 115.004C146.623 114.742 147.496 113.818 148.114 112.688C148.797 111.44 149.232 111.007 149.407 111.401C149.552 111.728 149.811 111.79 149.982 111.539C150.154 111.289 150.093 110.945 149.847 110.777C149.322 110.417 153.885 103.832 155.389 102.779C155.929 102.401 156.334 101.896 156.289 101.656C156.244 101.416 156.685 100.479 157.268 99.5735C157.853 98.6688 158.343 97.5807 158.358 97.1569C158.374 96.7325 158.544 96.4916 158.737 96.621C158.929 96.7505 159.796 95.9212 160.663 94.7777C161.6 93.5422 162.056 92.5739 161.788 92.3902C161.536 92.218 161.913 91.8646 162.638 91.5922C163.572 91.2413 163.917 90.8607 163.86 90.243C163.815 89.77 164.592 88.3611 165.584 87.1118C166.577 85.8629 167.218 84.7244 167.009 84.5814C166.801 84.4387 166.965 83.9099 167.372 83.4068C167.78 82.9037 168.146 82.3712 168.184 82.2236C168.37 81.5116 169.784 78.805 171.347 76.167C175.682 68.8518 180.348 57.8467 181.219 52.8854C181.328 52.2643 181.729 51.116 182.11 50.3336C182.491 49.5509 183.282 47.5311 183.867 45.8445C185.81 40.2444 188.016 34.793 188.826 33.5868C189.267 32.9315 189.478 32.2939 189.296 32.1695C188.995 31.9634 189.5 31.2309 191.957 28.3047C192.937 27.1377 195.878 27.3917 197.636 28.7949C198.25 29.2861 198.987 29.8709 199.272 30.0943C200.379 30.9615 198.101 40.1002 195.727 44.3249C195.196 45.2689 194.752 46.3877 194.739 46.8113C194.713 47.7123 192.769 53.221 190.741 58.14C189.958 60.0389 189.233 62.1038 189.129 62.7287C189.026 63.3536 188.542 64.6206 188.054 65.5443C187.566 66.4679 187.11 67.7211 187.041 68.329C186.897 69.599 185.58 73.7057 184.954 74.8368C184.722 75.2564 184.167 78.0072 183.721 80.9494C183.275 83.8912 182.629 87.2443 182.286 88.4006C181.942 89.5569 181.811 90.9288 181.993 91.4499C182.31 92.3539 181.901 96.9259 181.215 100.158C181.037 100.993 181.067 101.796 181.281 101.943C181.494 102.089 181.496 102.461 181.285 102.77C180.946 103.265 180.835 105.218 180.812 111.07C180.809 111.958 180.745 113.07 180.67 113.541C180.476 114.754 180.572 115.907 181.048 118.125C181.277 119.188 181.309 120.285 181.119 120.562C180.929 120.839 181.008 121.406 181.295 121.822C181.582 122.238 181.64 122.611 181.424 122.651C180.895 122.75 181.806 128.233 182.422 128.654C182.69 128.838 182.895 129.69 182.878 130.548C182.86 131.405 183.133 132.303 183.484 132.544C183.834 132.784 184.397 133.681 184.734 134.537C185.824 137.309 186.79 138.403 188.941 139.303C190.719 140.047 191.229 139.995 192.861 138.902C194.117 138.062 195.224 137.772 196.208 138.025C197.188 138.277 198.459 137.947 200.019 137.034C202.584 135.534 207.405 131.439 207.438 130.733C207.487 129.686 210.798 124.445 211.708 123.972C212.474 123.574 213.183 123.786 214.81 124.9C216.653 126.162 216.922 126.582 216.953 128.234C217.006 131.113 215.695 134.599 212.698 139.551C211.203 142.022 209.64 144.808 209.225 145.742C208.81 146.675 207.31 149.206 205.891 151.364C204.471 153.523 202.445 156.832 201.388 158.717C200.331 160.602 198.753 163.363 197.88 164.853C197.007 166.342 195.466 169.24 194.455 171.293C193.444 173.346 192.19 175.404 191.667 175.867C191.109 176.361 190.908 176.839 191.181 177.026C191.436 177.201 191.457 177.429 191.228 177.533C190.913 177.675 188.69 182.274 187.725 184.779C187.063 186.498 186.581 187.447 185.104 189.941C184.151 191.55 182.997 193.89 182.54 195.142C182.082 196.394 181.372 198.079 180.962 198.886C180.551 199.693 180.051 201.058 179.849 201.919C179.507 203.383 179.258 204.031 177.852 207.111C176.88 209.241 175.354 215.3 175.473 216.555C175.537 217.225 175.47 217.861 175.324 217.969C174.864 218.309 174.117 220.632 174.058 221.906C174.027 222.58 173.814 223.715 173.585 224.428C173.356 225.14 173.26 227.817 173.373 230.375C173.486 232.933 173.464 235.192 173.325 235.395C173.186 235.598 173.218 236.578 173.396 237.573C173.574 238.568 173.822 240.47 173.948 241.799C174.079 243.184 174.752 244.968 175.523 245.979C176.263 246.949 176.94 248.27 177.028 248.914C177.233 250.426 174.438 255 173.162 255.238C172.006 255.455 167.77 253.209 166.33 251.616C164.248 249.312 162.557 247.821 158.945 245.101C156.942 243.593 155.188 242.1 155.049 241.786C154.909 241.47 154.667 241.4 154.511 241.628C154.354 241.857 153.145 241.742 151.823 241.373C150.501 241.005 148.641 240.754 147.691 240.817C146.74 240.88 145.797 240.818 145.594 240.679C145.013 240.282 140.925 241.262 137.352 242.657C133.292 244.241 130.192 247.413 125.44 254.848C123.627 257.684 122.056 259.806 121.949 259.563C121.841 259.32 121.359 259.429 120.878 259.805C120.396 260.181 119.908 260.277 119.793 260.016C119.678 259.757 119.35 259.721 119.064 259.938C118.724 260.196 118.34 260.01 117.956 259.399C117.633 258.885 116.891 258.148 116.307 257.759C114.198 256.354 113.391 253.46 113.966 249.36C114.162 247.959 114.048 245.162 113.648 241.5C113.444 239.638 113.413 237.918 113.577 237.677C113.742 237.436 113.434 236.536 112.892 235.677C112.349 234.817 111.719 232.977 111.492 231.588C111.175 229.658 110.73 228.824 109.605 228.054C108.602 227.367 108.339 226.954 108.781 226.759C109.194 226.576 109.158 226.459 108.68 226.437C108.261 226.418 107.9 225.969 107.858 225.417C107.754 224.014 105.434 221.823 100.684 218.637C95.8721 215.409 91.4257 213.132 89.5947 212.956C88.8814 212.888 87.6857 212.413 86.937 211.9C85.6861 211.043 82.1046 210.657 81.1501 211.276C80.9285 211.42 80.1507 211.394 79.4225 211.218C78.6935 211.042 77.9628 211.163 77.7976 211.488C77.0749 212.908 75.4278 214.82 75.2571 214.438C75.1542 214.207 74.3699 215.005 73.5141 216.211C72.6582 217.417 70.8496 219.751 69.4943 221.397C67.4576 223.872 66.7811 224.393 65.589 224.41C64.7952 224.421 64.0163 224.343 63.8571 224.236C63.6983 224.13 63.323 224.089 63.0242 224.145C62.2045 224.298 60.0867 222.703 60.1215 221.958Z" fill="#FD73C5"/>
<mask id="mask0_1537_5158" style="mask-type:alpha" maskUnits="userSpaceOnUse" x="11" y="-8" width="276" height="295">
<path fill-rule="evenodd" clip-rule="evenodd" d="M60.1215 221.958C60.1384 221.599 59.4997 220.949 58.7025 220.512C57.4963 219.852 57.3411 219.54 57.7785 218.656C58.113 217.98 58.007 217.389 57.4868 217.033C56.971 216.68 56.9019 216.312 57.2998 216.038C57.6466 215.798 57.8416 215.126 57.7322 214.543C57.4057 212.798 61.1911 206.015 63.8505 203.58C65.524 202.047 66.049 201.322 65.9354 200.701C65.8214 200.078 65.9222 200.071 66.3406 200.674C66.6634 201.139 67.0351 201.276 67.2241 201C67.4037 200.738 66.9576 200.117 66.2334 199.621C65.451 199.086 65.1475 198.617 65.4862 198.467C65.8 198.328 66.1605 198.449 66.2875 198.737C66.4147 199.024 66.655 199.06 66.8219 198.816C66.9885 198.573 67.3625 198.718 67.653 199.139C68.0188 199.669 68.1921 199.675 68.2162 199.156C68.2357 198.744 67.9781 198.328 67.6445 198.233C66.8559 198.007 66.705 195.584 67.3677 193.793C68.1932 191.562 72.0709 185.941 72.6747 186.1C72.9953 186.184 73.2768 185.494 73.3624 184.415C73.4423 183.41 73.986 181.888 74.5712 181.033C75.5937 179.54 75.7345 179.09 76.0945 176.174C76.1907 175.394 76.4272 174.979 76.6769 175.15C76.9086 175.308 77.1836 175.079 77.288 174.64C77.3927 174.2 77.3397 173.771 77.1706 173.685C75.7635 172.973 75.6058 172.417 76.5465 171.484C77.3985 170.639 77.3983 170.437 76.5447 170.13C75.1157 169.617 74.8303 168.185 75.8584 166.684C76.5751 165.637 76.563 165.303 75.7956 164.928C75.0785 164.577 75.0592 164.465 75.7158 164.47C76.7503 164.477 76.9627 163.118 75.9405 163.036C75.5509 163.005 75.4748 162.921 75.7701 162.85C76.4307 162.691 76.8848 159.481 76.3031 159.082C76.0723 158.924 76.0984 158.586 76.3599 158.331C76.6222 158.075 76.5611 157.749 76.2242 157.605C75.888 157.462 75.7788 157.101 75.9825 156.804C76.1862 156.506 75.9189 155.561 75.3885 154.703C74.8578 153.845 74.7126 153.225 75.066 153.326C75.4193 153.427 75.8254 153.338 75.969 153.129C76.1126 152.919 75.8652 152.661 75.4189 152.554C74.9309 152.438 74.7053 151.961 74.8519 151.356C75.2646 149.657 74.904 148.618 73.9639 148.793C73.3487 148.909 73.2669 148.762 73.641 148.216C73.9167 147.813 73.9618 147.36 73.7418 147.21C73.5213 147.059 73.5776 146.456 73.8669 145.872C74.307 144.982 74.1515 144.677 72.9095 143.998C72.0763 143.542 71.0962 142.479 70.6725 141.571C69.8812 139.876 70.0187 137.399 70.9266 136.997C71.2191 136.867 71.2699 136.695 71.0384 136.614C70.3275 136.365 69.1157 134.504 69.3973 134.093C69.5435 133.879 69.3602 133.628 68.9897 133.534C68.1118 133.31 67.7684 132.39 67.9573 130.766C68.0412 130.044 67.713 129.006 67.2286 128.458C66.744 127.911 66.4725 127.28 66.6252 127.057C66.7782 126.834 66.419 125.904 65.8272 124.99C65.2357 124.076 64.8824 123.137 65.0422 122.904C65.2023 122.67 64.8824 122.17 64.3317 121.793C63.0679 120.927 62.5946 118.043 63.4302 116.302C64.3799 114.324 64.936 113.075 65.0041 112.766C65.0374 112.615 65.2019 112.351 65.369 112.179C65.5369 112.007 65.4103 111.854 65.0884 111.839C64.7661 111.824 64.5161 111.531 64.532 111.188C64.5482 110.846 64.8634 110.773 65.2324 111.025C65.6014 111.278 66.0443 111.28 66.2158 111.029C66.3874 110.779 66.2713 110.561 65.9577 110.546C65.6437 110.532 65.4006 110.239 65.4164 109.897C65.4327 109.554 65.7478 109.481 66.1168 109.734C66.9134 110.279 67.6213 109.43 67.3918 108.203C67.2651 107.527 67.3438 107.412 67.7455 107.687C68.0297 107.881 68.3391 107.879 68.4325 107.683C68.5256 107.486 68.8272 107.052 69.1023 106.718C69.5466 106.179 69.5991 106.215 69.5773 107.044C69.5606 107.665 69.6774 107.797 69.9277 107.442C70.3803 106.797 72.6411 106.376 73.6166 106.755C74.0035 106.904 74.5236 106.941 74.7731 106.836C75.3691 106.585 77.8143 108.869 77.4768 109.362C77.3329 109.572 77.5059 109.943 77.8611 110.186C78.2164 110.429 78.6662 110.396 78.8608 110.111C79.1358 109.71 79.2508 109.788 79.3775 110.465C79.4671 110.944 79.9563 111.62 80.4644 111.968C81.4186 112.622 83.1231 115.305 83.6466 116.977C84.0433 118.244 86.7604 121.489 87.4523 121.521C87.7538 121.535 88.1891 122.554 88.4194 123.784C88.6496 125.014 88.9857 125.805 89.1659 125.542C89.3996 125.201 89.668 125.399 90.1005 126.232C90.434 126.874 91.4053 127.846 92.2585 128.391C93.1114 128.936 94.3328 130.274 94.9717 131.362C95.6107 132.452 96.3332 133.352 96.5771 133.364C96.8206 133.375 98.3535 134.174 99.9835 135.139C101.613 136.103 103.242 136.907 103.603 136.924C103.963 136.94 105.014 137.42 105.938 137.989C106.862 138.558 108.427 139.032 109.416 139.043C110.405 139.055 111.378 139.169 111.579 139.298C112.158 139.668 114.258 138.774 114.854 137.904C115.152 137.468 115.763 137.199 116.212 137.306C116.66 137.413 117.144 137.33 117.287 137.121C117.686 136.539 120.156 135.983 120.698 136.354C121.305 136.77 123.464 135.489 124.359 134.182C124.733 133.637 126.152 132.608 127.513 131.896C128.874 131.185 129.999 130.355 130.013 130.05C130.058 129.111 133.25 126.699 134.476 126.68C135.279 126.667 135.961 126.151 136.686 125.008C137.402 123.881 137.922 123.482 138.32 123.755C138.768 124.062 138.854 123.883 138.686 122.99C138.524 122.121 138.688 121.762 139.335 121.578C139.812 121.442 141.014 120.374 142.006 119.205C142.998 118.036 144.144 116.978 144.553 116.853C145.019 116.711 145.197 116.406 145.032 116.033C144.854 115.63 145.142 115.298 145.927 115.004C146.623 114.742 147.496 113.818 148.114 112.688C148.797 111.44 149.232 111.007 149.407 111.401C149.552 111.728 149.811 111.79 149.982 111.539C150.154 111.289 150.093 110.945 149.847 110.777C149.322 110.417 153.885 103.832 155.389 102.779C155.929 102.401 156.334 101.896 156.289 101.656C156.244 101.416 156.685 100.479 157.268 99.5735C157.853 98.6688 158.343 97.5807 158.358 97.1569C158.374 96.7325 158.544 96.4916 158.737 96.621C158.929 96.7505 159.796 95.9212 160.663 94.7777C161.6 93.5422 162.056 92.5739 161.788 92.3902C161.536 92.218 161.913 91.8646 162.638 91.5922C163.572 91.2413 163.917 90.8607 163.86 90.243C163.815 89.77 164.592 88.3611 165.584 87.1118C166.577 85.8629 167.218 84.7244 167.009 84.5814C166.801 84.4387 166.965 83.9099 167.372 83.4068C167.78 82.9037 168.146 82.3712 168.184 82.2236C168.37 81.5116 169.784 78.805 171.347 76.167C175.682 68.8518 180.348 57.8467 181.219 52.8854C181.328 52.2643 181.729 51.116 182.11 50.3336C182.491 49.5509 183.282 47.5311 183.867 45.8445C185.81 40.2444 188.016 34.793 188.826 33.5868C189.267 32.9315 189.478 32.2939 189.296 32.1695C188.995 31.9634 189.5 31.2309 191.957 28.3047C192.937 27.1377 195.878 27.3917 197.636 28.7949C198.25 29.2861 198.987 29.8709 199.272 30.0943C200.379 30.9615 198.101 40.1002 195.727 44.3249C195.196 45.2689 194.752 46.3877 194.739 46.8113C194.713 47.7123 192.769 53.221 190.741 58.14C189.958 60.0389 189.233 62.1038 189.129 62.7287C189.026 63.3536 188.542 64.6206 188.054 65.5443C187.566 66.4679 187.11 67.7211 187.041 68.329C186.897 69.599 185.58 73.7057 184.954 74.8368C184.722 75.2564 184.167 78.0072 183.721 80.9494C183.275 83.8912 182.629 87.2443 182.286 88.4006C181.942 89.5569 181.811 90.9288 181.993 91.4499C182.31 92.3539 181.901 96.9259 181.215 100.158C181.037 100.993 181.067 101.796 181.281 101.943C181.494 102.089 181.496 102.461 181.285 102.77C180.946 103.265 180.835 105.218 180.812 111.07C180.809 111.958 180.745 113.07 180.67 113.541C180.476 114.754 180.572 115.907 181.048 118.125C181.277 119.188 181.309 120.285 181.119 120.562C180.929 120.839 181.008 121.406 181.295 121.822C181.582 122.238 181.64 122.611 181.424 122.651C180.895 122.75 181.806 128.233 182.422 128.654C182.69 128.838 182.895 129.69 182.878 130.548C182.86 131.405 183.133 132.303 183.484 132.544C183.834 132.784 184.397 133.681 184.734 134.537C185.824 137.309 186.79 138.403 188.941 139.303C190.719 140.047 191.229 139.995 192.861 138.902C194.117 138.062 195.224 137.772 196.208 138.025C197.188 138.277 198.459 137.947 200.019 137.034C202.584 135.534 207.405 131.439 207.438 130.733C207.487 129.686 210.798 124.445 211.708 123.972C212.474 123.574 213.183 123.786 214.81 124.9C216.653 126.162 216.922 126.582 216.953 128.234C217.006 131.113 215.695 134.599 212.698 139.551C211.203 142.022 209.64 144.808 209.225 145.742C208.81 146.675 207.31 149.206 205.891 151.364C204.471 153.523 202.445 156.832 201.388 158.717C200.331 160.602 198.753 163.363 197.88 164.853C197.007 166.342 195.466 169.24 194.455 171.293C193.444 173.346 192.19 175.404 191.667 175.867C191.109 176.361 190.908 176.839 191.181 177.026C191.436 177.201 191.457 177.429 191.228 177.533C190.913 177.675 188.69 182.274 187.725 184.779C187.063 186.498 186.581 187.447 185.104 189.941C184.151 191.55 182.997 193.89 182.54 195.142C182.082 196.394 181.372 198.079 180.962 198.886C180.551 199.693 180.051 201.058 179.849 201.919C179.507 203.383 179.258 204.031 177.852 207.111C176.88 209.241 175.354 215.3 175.473 216.555C175.537 217.225 175.47 217.861 175.324 217.969C174.864 218.309 174.117 220.632 174.058 221.906C174.027 222.58 173.814 223.715 173.585 224.428C173.356 225.14 173.26 227.817 173.373 230.375C173.486 232.933 173.464 235.192 173.325 235.395C173.186 235.598 173.218 236.578 173.396 237.573C173.574 238.568 173.822 240.47 173.948 241.799C174.079 243.184 174.752 244.968 175.523 245.979C176.263 246.949 176.94 248.27 177.028 248.914C177.233 250.426 174.438 255 173.162 255.238C172.006 255.455 167.77 253.209 166.33 251.616C164.248 249.312 162.557 247.821 158.945 245.101C156.942 243.593 155.188 242.1 155.049 241.786C154.909 241.47 154.667 241.4 154.511 241.628C154.354 241.857 153.145 241.742 151.823 241.373C150.501 241.005 148.641 240.754 147.691 240.817C146.74 240.88 145.797 240.818 145.594 240.679C145.013 240.282 140.925 241.262 137.352 242.657C133.292 244.241 130.192 247.413 125.44 254.848C123.627 257.684 122.056 259.806 121.949 259.563C121.841 259.32 121.359 259.429 120.878 259.805C120.396 260.181 119.908 260.277 119.793 260.016C119.678 259.757 119.35 259.721 119.064 259.938C118.724 260.196 118.34 260.01 117.956 259.399C117.633 258.885 116.891 258.148 116.307 257.759C114.198 256.354 113.391 253.46 113.966 249.36C114.162 247.959 114.048 245.162 113.648 241.5C113.444 239.638 113.413 237.918 113.577 237.677C113.742 237.436 113.434 236.536 112.892 235.677C112.349 234.817 111.719 232.977 111.492 231.588C111.175 229.658 110.73 228.824 109.605 228.054C108.602 227.367 108.339 226.954 108.781 226.759C109.194 226.576 109.158 226.459 108.68 226.437C108.261 226.418 107.9 225.969 107.858 225.417C107.754 224.014 105.434 221.823 100.684 218.637C95.8721 215.409 91.4257 213.132 89.5947 212.956C88.8814 212.888 87.6857 212.413 86.937 211.9C85.6861 211.043 82.1046 210.657 81.1501 211.276C80.9285 211.42 80.1507 211.394 79.4225 211.218C78.6935 211.042 77.9628 211.163 77.7976 211.488C77.0749 212.908 75.4278 214.82 75.2571 214.438C75.1542 214.207 74.3699 215.005 73.5141 216.211C72.6582 217.417 70.8496 219.751 69.4943 221.397C67.4576 223.872 66.7811 224.393 65.589 224.41C64.7952 224.421 64.0163 224.343 63.8571 224.236C63.6983 224.13 63.323 224.089 63.0242 224.145C62.2045 224.298 60.0867 222.703 60.1215 221.958Z" fill="#FD73C5"/>
</mask>
<g mask="url(#mask0_1537_5158)">
<path fill-rule="evenodd" clip-rule="evenodd" d="M67.5808 155.085C68.0222 155.561 67.5778 157.787 66.916 158.415C65.8833 159.395 65.3445 160.723 65.8737 160.983C66.1563 161.122 66.1976 161.457 65.9797 161.842C65.4079 162.85 65.3994 164.001 65.9611 164.359C66.2465 164.541 66.4215 164.903 66.3496 165.163C66.2589 165.49 66.1779 165.475 66.0861 165.115C66.0132 164.828 65.9818 165.169 66.0163 165.872C66.0588 166.731 65.9336 167.11 65.6353 167.028C65.0234 166.859 64.8308 167.102 64.755 168.137C64.7189 168.626 64.611 169.163 64.515 169.332C64.4187 169.5 64.1738 169.974 63.9706 170.384C63.7674 170.794 63.549 171.178 63.4856 171.237C63.2346 171.47 63.2622 174.659 63.5179 174.974C63.6679 175.158 63.7037 176.067 63.598 176.994L63.4056 178.679L62.3388 178.09C61.454 177.601 61.1763 177.611 60.7108 178.148C60.3783 178.532 59.9582 178.702 59.6796 178.565C59.4208 178.438 59.2381 178.501 59.2734 178.705C59.3087 178.909 58.9942 179.596 58.5743 180.231C58.1547 180.866 57.9542 181.487 58.1289 181.611C58.3048 181.735 58.2243 181.924 57.949 182.035C57.6755 182.144 57.5654 182.357 57.7046 182.507C57.8438 182.657 57.7912 182.934 57.5878 183.123C57.3844 183.311 57.1152 183.355 56.9895 183.219C56.8638 183.083 56.539 183.178 56.2678 183.43C55.9939 183.684 55.9272 184.051 56.1176 184.257C56.3062 184.46 56.294 184.781 56.0906 184.969C55.8872 185.158 55.6118 185.194 55.4788 185.051C55.3458 184.908 55.1888 184.964 55.1298 185.177C55.0711 185.39 55.1822 185.608 55.3774 185.662C55.5723 185.716 55.5207 185.956 55.2625 186.195C54.8033 186.621 54.6324 188.094 54.9967 188.487C55.2968 188.811 54.9995 190.601 54.6187 190.764C54.1701 190.956 52.6703 189.138 52.6271 188.35C52.5969 187.802 52.3545 187.782 51.9522 188.293C51.7105 188.6 51.426 188.167 51.4501 187.529C51.463 187.188 51.3694 187.054 51.217 187.195C51.0767 187.325 50.8078 187.265 50.6192 187.062C50.4307 186.859 50.3819 186.594 50.5106 186.475C50.6395 186.355 50.4812 186.09 50.1592 185.884C49.8371 185.679 49.6164 185.356 49.6688 185.166C49.8515 184.505 49.3008 184.328 48.9552 184.937C48.5262 185.693 48.0694 185.292 48.3375 184.394C48.4905 183.882 48.3949 183.926 47.8974 184.596C47.3389 185.347 47.17 185.392 46.5069 184.96C46.012 184.637 45.5842 184.624 45.264 184.921C44.8343 185.319 44.4424 185.228 44.0186 184.633C43.9486 184.534 43.7261 184.713 43.5242 185.03C43.108 185.683 43.3147 186.078 43.9484 185.841C44.1827 185.754 43.9453 186.043 43.4215 186.483C42.7284 187.065 42.3176 187.187 41.9153 186.931C41.444 186.632 41.234 186.742 40.5006 187.678C39.4541 189.014 39.1445 190.035 39.554 190.799C39.7231 191.115 39.6845 191.651 39.4685 191.99C39.1091 192.553 39.2933 193.395 40.6614 197.44C40.8238 197.92 40.8988 198.533 40.8282 198.803C40.7577 199.073 40.8607 199.339 41.0573 199.393C41.2541 199.448 41.2845 199.613 41.125 199.761C40.9598 199.914 41.079 200.185 41.4023 200.391C41.7301 200.6 41.8765 200.942 41.7487 201.201C41.6273 201.448 41.8056 201.95 42.1448 202.315C42.4839 202.681 42.6208 202.975 42.4488 202.969C41.9542 202.95 41.9387 204.071 42.4262 204.597C42.6699 204.86 42.9163 204.903 42.9742 204.694C43.0321 204.484 43.2338 204.479 43.4224 204.682C43.6109 204.886 43.7103 205.25 43.6434 205.492C43.5684 205.765 43.4886 205.762 43.4344 205.484C43.3859 205.238 43.2406 205.134 43.1115 205.254C42.7939 205.548 43.2051 206.508 43.7082 206.647C43.938 206.71 43.9312 206.794 43.6928 206.841C43.4612 206.887 43.3068 207.101 43.3493 207.318C43.392 207.535 43.5443 207.603 43.6878 207.47C44.1212 207.068 44.3978 207.648 44.0582 208.247C43.8561 208.603 44.0426 209.383 44.5722 210.396C45.0294 211.27 45.4882 212.686 45.5919 213.542C45.6958 214.398 45.9819 215.647 46.2282 216.317C46.4742 216.988 46.5591 217.644 46.4166 217.777C46.2741 217.909 46.3368 218.212 46.556 218.45C46.7749 218.688 47.0694 219.292 47.2098 219.792C47.3503 220.292 47.8938 221.232 48.4178 221.88C48.9416 222.529 49.3937 223.178 49.4223 223.324C49.451 223.47 49.6375 223.557 49.8372 223.517C50.0459 223.476 50.3432 223.943 50.5377 224.619C50.7239 225.263 51.0007 225.976 51.153 226.202C51.3052 226.428 51.5318 226.94 51.6564 227.34C52.2318 229.187 52.8882 230.204 53.673 230.463C54.5771 230.762 55.2699 231.647 55.1083 232.296C55.028 232.619 55.1548 232.715 55.5621 232.643C56.0301 232.56 56.1336 232.661 56.1649 233.23C56.1967 233.81 56.2675 233.858 56.6148 233.536C56.9247 233.248 57.0641 233.306 57.1758 233.768C57.3642 234.547 58.3143 235.169 58.7285 234.785C58.9095 234.617 59.2711 234.769 59.579 235.142C60.1766 235.866 60.1119 236.053 59.2739 236.022C58.8306 236.005 58.7901 236.093 59.0923 236.419C59.3284 236.674 59.6741 236.659 59.9739 236.381C60.2562 236.119 60.6194 236.088 60.8233 236.308C61.0192 236.52 61.0052 236.727 60.7919 236.769C60.5786 236.811 60.5131 236.963 60.6461 237.106C60.7792 237.25 61.011 237.253 61.1611 237.114C61.3112 236.975 61.5194 237.075 61.6238 237.335C61.7283 237.596 62.0212 237.726 62.2746 237.624C62.528 237.523 62.9247 237.677 63.1559 237.967C63.4745 238.367 63.4399 238.503 63.0134 238.527C62.3824 238.561 62.7369 239.112 63.6926 239.582C64.1128 239.788 64.209 239.735 64.1314 239.34C64.0566 238.959 64.1816 238.919 64.6369 239.177C65.7829 239.826 66.3002 239.894 67.0181 239.487C67.5283 239.198 67.6982 239.222 67.602 239.57C67.4998 239.94 67.6123 240.08 68.0587 240.138C68.3844 240.181 68.6867 240.398 68.7303 240.621C68.774 240.843 68.9568 240.893 69.1361 240.73C69.4009 240.491 69.4378 240.528 69.3314 240.931C69.1775 241.515 70.7422 242.443 71.187 242.031C71.3339 241.895 71.4853 241.942 71.5236 242.136C71.622 242.637 72.5979 243.06 72.7112 242.651C72.763 242.464 73.1074 242.636 73.4767 243.034C74.3064 243.929 75.2991 243.911 75.8989 242.99C76.1795 242.559 76.585 242.324 76.9621 242.373C77.4438 242.436 77.5006 242.564 77.2336 242.981C77.0091 243.331 77.1274 243.312 77.586 242.922C78.4947 242.149 78.9084 242.307 79.2607 243.559C79.4207 244.127 79.6735 244.839 79.8231 245.141C79.9734 245.445 79.8512 245.934 79.5506 246.232C79.2513 246.53 79.1955 246.701 79.4268 246.613C79.7388 246.494 79.8397 246.652 79.8183 247.225C79.7991 247.732 79.9149 247.94 80.155 247.831C80.6904 247.588 81.0018 248.06 80.5701 248.46C80.0179 248.972 80.6052 249.393 81.3303 249.005C81.7239 248.794 82.0329 248.849 82.1545 249.152C82.2612 249.419 82.3886 249.68 82.437 249.732C82.4857 249.785 82.2999 249.918 82.0242 250.029C81.6822 250.165 81.667 250.385 81.9765 250.719C82.2258 250.988 82.3918 251.498 82.3453 251.853C82.2988 252.208 82.382 252.531 82.5299 252.572C82.6779 252.613 83.1286 252.894 83.5315 253.196C84.0872 253.614 84.1647 253.84 83.8522 254.134C83.4972 254.47 83.5219 254.509 84.032 254.419C84.3572 254.362 84.5445 254.392 84.4482 254.485C84.3516 254.578 84.6436 254.838 85.0969 255.063C85.6419 255.333 85.7901 255.497 85.5344 255.547C85.3218 255.589 85.2497 255.733 85.3745 255.867C85.4991 256.002 85.8885 255.976 86.2402 255.811C86.8205 255.537 86.8768 255.578 86.8512 256.254C86.8327 256.744 86.9834 257.005 87.2917 257.017C87.5493 257.026 87.8432 257.242 87.9447 257.495C88.0462 257.748 88.2306 257.862 88.3546 257.747C88.4786 257.632 88.4178 257.121 88.2194 256.611L87.8585 255.685L88.5135 256.339C88.8736 256.699 89.2791 256.89 89.4147 256.764C89.5503 256.638 89.8281 256.715 90.0319 256.935C90.3384 257.266 90.418 257.221 90.4895 256.675C90.6072 255.779 91.1518 255.857 91.2128 256.778C91.2397 257.186 91.316 257.334 91.3821 257.106C91.4486 256.879 91.8925 256.827 92.369 256.992C93.1453 257.259 93.2379 257.215 93.2622 256.565C93.2871 255.915 93.3503 255.86 93.8722 256.029C94.1925 256.133 94.5808 256.1 94.7346 255.958C94.8887 255.815 95.4685 255.701 96.0233 255.705C96.8907 255.711 97.0028 255.639 96.8237 255.192C96.7037 254.892 96.4846 254.794 96.3063 254.959C96.1362 255.117 95.7915 255.024 95.5401 254.753C95.2537 254.444 95.2471 254.107 95.523 253.852C95.8499 253.549 96.1437 253.638 96.6643 254.2C97.228 254.807 97.4252 254.851 97.6701 254.419C98.0688 253.717 100.63 253.517 100.467 254.202C100.384 254.545 100.58 254.634 101.171 254.521C101.919 254.377 101.936 254.329 101.358 253.961C100.838 253.63 100.836 253.553 101.347 253.525C101.829 253.499 101.901 253.42 101.671 253.171C101.485 252.971 101.773 252.854 102.438 252.859C103.254 252.864 103.507 252.735 103.524 252.307C103.555 251.49 104.08 251.644 104.314 252.538C104.486 253.196 104.586 253.243 104.997 252.862C105.262 252.616 105.406 252.225 105.317 251.992C105.228 251.759 105.46 251.879 105.831 252.259C106.425 252.865 106.518 252.864 106.599 252.252C106.677 251.66 106.807 251.578 107.468 251.707C107.897 251.79 108.347 251.984 108.469 252.137C108.592 252.291 108.506 252.329 108.28 252.222C107.835 252.013 107.537 252.576 107.89 252.957C108.441 253.551 108.822 252.35 108.426 251.269C108.181 250.603 108.138 250.027 108.33 249.99C108.522 249.952 108.645 249.742 108.602 249.524C108.55 249.263 108.742 249.123 109.156 249.116C110.724 249.091 111.109 249.011 111.806 248.566C112.214 248.305 112.447 247.982 112.322 247.847C112.197 247.713 112.262 247.57 112.467 247.529C112.671 247.489 112.883 246.48 112.936 245.287C113.026 243.296 113.273 242.445 113.644 242.846C113.725 242.933 113.733 243.331 113.663 243.731C113.592 244.133 113.67 244.34 113.836 244.194C114.001 244.049 114.102 243.752 114.059 243.536C114.017 243.319 114.176 243.103 114.413 243.057C115.047 242.932 116.344 241.799 115.971 241.696C115.796 241.648 115.77 241.499 115.913 241.366C116.057 241.233 116.277 241.235 116.403 241.371C116.528 241.506 116.702 241.527 116.789 241.417C117.191 240.906 117.403 240.972 117.584 241.663C117.692 242.075 117.658 242.436 117.509 242.465C117.36 242.494 117.462 242.791 117.736 243.125C118.08 243.544 118.302 243.593 118.454 243.282C118.576 243.035 118.583 242.734 118.471 242.613C118.359 242.492 118.463 242.215 118.702 241.996C119.074 241.658 119.116 241.685 118.989 242.182C118.871 242.644 118.97 242.647 119.464 242.2C119.808 241.889 120.044 241.827 119.99 242.063C119.937 242.297 120.196 242.828 120.566 243.241C121.673 244.479 121.752 244.641 121.357 244.861C121.15 244.976 121.106 245.041 121.26 245.003C121.833 244.864 122.413 245.884 121.989 246.284C121.623 246.629 121.647 246.673 122.156 246.588C122.574 246.517 122.72 246.619 122.645 246.929C122.512 247.485 123.857 248.213 124.285 247.816C124.757 247.379 124.353 249.097 123.876 249.556C123.431 249.984 124.161 251.14 124.613 250.721C124.749 250.595 124.733 250.352 124.577 250.181C124.39 249.973 124.49 249.918 124.877 250.017C125.37 250.143 125.396 250.096 125.048 249.714C124.74 249.376 124.797 249.187 125.274 248.962C125.64 248.789 125.808 248.549 125.668 248.398C125.534 248.253 125.549 248.02 125.701 247.878C125.892 247.701 125.989 247.824 126.014 248.276C126.034 248.636 126.123 248.863 126.212 248.78C126.301 248.698 126.455 248.94 126.555 249.319C126.688 249.827 126.523 250.141 125.927 250.514C125.175 250.986 125.173 251.028 125.906 251.127C126.506 251.208 126.643 251.326 126.481 251.623C126.364 251.837 126.494 252.252 126.768 252.543C127.175 252.976 127.248 252.965 127.163 252.483C127.094 252.089 127.156 251.993 127.349 252.196C127.508 252.364 127.805 252.346 128.008 252.158C128.211 251.969 128.224 251.649 128.035 251.445C127.846 251.242 127.816 250.961 127.967 250.821C128.134 250.665 128.308 250.954 128.41 251.56C128.503 252.107 128.652 252.461 128.741 252.345C129.137 251.836 129.347 251.879 129.348 252.472C129.349 252.823 129.219 253.137 129.061 253.17C128.902 253.202 128.984 253.458 129.243 253.737C129.501 254.016 129.756 254.205 129.808 254.156C130.091 253.894 130.53 252.214 130.318 252.205C130.18 252.201 130.176 251.973 130.31 251.7C130.507 251.299 130.727 251.406 131.453 252.253C132.369 253.323 133.727 253.588 133.96 252.742C134.02 252.527 134.104 252.552 134.153 252.801C134.204 253.059 134.703 253.149 135.355 253.018C135.969 252.894 136.553 252.975 136.653 253.197C136.753 253.42 137.01 253.439 137.225 253.24C137.439 253.041 137.439 252.681 137.223 252.44C136.85 252.023 136.863 252.012 137.485 252.201C137.844 252.31 138.189 252.61 138.25 252.867C138.338 253.237 138.37 253.208 138.407 252.723C138.444 252.237 138.611 252.112 139.237 252.105C139.843 252.097 140.079 251.929 140.273 251.368C140.579 250.478 140.808 250.238 140.901 250.71C140.939 250.905 141.185 250.635 141.447 250.109C141.836 249.33 141.8 249.072 141.258 248.718C140.852 248.454 140.703 248.182 140.876 248.021C141.032 247.876 141.271 247.913 141.406 248.103C142.067 249.033 142.541 249.229 143.029 248.775C143.402 248.43 143.609 248.444 143.761 248.823C143.877 249.114 144.06 249.446 144.167 249.561C144.274 249.676 144.222 250.017 144.051 250.319C143.713 250.914 144.407 252.083 144.852 251.67C145.002 251.531 144.995 251.413 144.836 251.407C144.678 251.401 144.546 251.129 144.544 250.803C144.541 250.319 144.685 250.208 145.329 250.196C146.053 250.182 146.077 250.138 145.625 249.65C144.988 248.963 145.389 248.602 146.402 248.951C146.993 249.155 147.146 249.315 147.001 249.58C146.894 249.775 146.952 250.092 147.13 250.284C147.308 250.476 147.287 250.788 147.084 250.976C146.88 251.165 146.611 251.208 146.485 251.073C146.021 250.572 145.787 251.299 146.18 252.017C146.773 253.097 147.248 253.112 147.877 252.073C148.298 251.378 148.49 251.257 148.745 251.532C148.924 251.725 149.231 251.736 149.426 251.556C149.624 251.372 149.959 251.451 150.186 251.736C150.607 252.265 150.295 252.69 149.585 252.554C149.36 252.511 149.451 252.776 149.787 253.143C150.438 253.853 150.441 254.522 149.793 254.649C149.551 254.696 149.364 254.302 149.309 253.633C149.261 253.032 149.125 252.436 149.007 252.309C148.706 251.984 147.98 253.346 148.121 253.975C148.213 254.39 148.07 254.542 147.428 254.711C146.691 254.906 146.684 254.934 147.351 255.023C147.988 255.109 148.065 255.224 147.943 255.91C147.822 256.597 147.857 256.65 148.222 256.325C148.452 256.12 148.561 255.767 148.465 255.541C148.368 255.316 148.45 255.132 148.647 255.132C148.844 255.133 149.021 255.432 149.041 255.798C149.066 256.252 149.165 256.381 149.355 256.206C149.507 256.065 149.538 255.848 149.423 255.725C149.308 255.601 149.4 255.373 149.627 255.217C150.157 254.853 150.795 254.871 150.398 255.239C150.231 255.393 150.267 255.567 150.476 255.625C150.686 255.683 150.733 255.845 150.582 255.985C150.43 256.126 150.477 256.288 150.687 256.346C150.896 256.404 150.954 256.557 150.814 256.687C150.675 256.816 150.781 257.029 151.049 257.161C151.386 257.327 151.384 257.463 151.042 257.6C150.765 257.711 150.639 258.027 150.756 258.319C150.87 258.605 151.044 258.766 151.141 258.675C151.239 258.585 151.576 258.789 151.89 259.127C152.204 259.466 152.378 259.821 152.277 259.915C152.175 260.009 152.201 260.204 152.334 260.348C152.467 260.491 152.628 260.418 152.693 260.185C152.757 259.952 153.031 259.823 153.301 259.898C153.693 260.006 153.798 259.887 153.82 259.308C153.838 258.845 153.683 258.577 153.392 258.566C153.101 258.555 152.965 258.218 153.016 257.635C153.1 256.689 153.312 256.723 154.14 257.815C154.628 258.458 156.02 258.054 156.127 257.238C156.222 256.513 155.836 255.955 155.665 256.571C155.593 256.832 155.425 256.783 155.218 256.44C155.008 256.093 155.088 255.739 155.437 255.476C156.016 255.04 155.626 254.404 154.607 254.123C154.317 254.042 153.809 253.743 153.48 253.457C153.036 253.074 153.003 252.824 153.351 252.501C153.61 252.261 153.668 251.898 153.48 251.694C153.291 251.491 153.272 251.192 153.438 251.031C153.604 250.87 153.437 250.806 153.067 250.888C152.697 250.971 152.363 250.875 152.323 250.675C152.284 250.475 152.134 250.42 151.991 250.553C151.847 250.686 151.575 250.629 151.387 250.426C151.198 250.222 150.933 250.159 150.797 250.284C150.662 250.41 150.345 250.291 150.094 250.02C149.842 249.749 149.747 249.424 149.883 249.298C150.019 249.172 149.984 248.912 149.806 248.72C149.628 248.528 149.568 248.185 149.672 247.958C149.777 247.731 149.559 247.942 149.189 248.426C148.653 249.125 148.437 249.222 148.136 248.898C147.928 248.673 147.532 248.58 147.256 248.69C146.646 248.935 146.226 248.562 146.659 248.161C146.831 248.001 147.444 248 148.021 248.159C148.598 248.318 148.958 248.293 148.822 248.105C148.685 247.916 148.484 247.638 148.376 247.487C148.133 247.149 148.235 247.015 148.955 246.727C149.285 246.595 149.66 246.732 149.864 247.06C150.055 247.367 150.316 247.521 150.444 247.403C150.572 247.284 150.566 247.068 150.432 246.923C150.297 246.778 150.507 246.671 150.899 246.686C151.291 246.701 151.825 246.943 152.086 247.224C152.406 247.57 152.718 247.587 153.052 247.277C153.381 246.972 153.393 246.655 153.088 246.327C152.837 246.056 152.746 245.727 152.886 245.597C153.058 245.437 152.904 245.279 152.413 245.109C151.441 244.775 151.397 244.302 152.288 243.745C152.718 243.477 152.915 243.173 152.765 243.012C152.625 242.86 152.37 242.863 152.199 243.019C151.98 243.217 151.918 243.171 151.994 242.865C152.053 242.625 151.947 242.107 151.76 241.713C151.572 241.32 151.522 240.902 151.648 240.785C151.775 240.668 151.467 240.128 150.964 239.586C150.461 239.043 149.934 238.707 149.793 238.838C149.651 238.969 149.744 239.236 149.999 239.432C150.266 239.636 150.315 239.995 150.114 240.276C149.922 240.545 149.655 240.646 149.52 240.5C149.21 240.166 149.264 238.411 149.593 238.106C149.728 237.981 149.701 237.729 149.532 237.546C149.363 237.364 149.261 236.793 149.307 236.278C149.359 235.68 149.161 235.173 148.759 234.877C148.272 234.519 148.255 234.406 148.684 234.383C149.071 234.362 149.216 234.229 149.16 233.946C149.116 233.722 148.962 233.648 148.819 233.781C148.675 233.914 148.444 233.9 148.305 233.75C148.166 233.6 148.27 233.39 148.536 233.283C148.862 233.153 148.865 233.013 148.546 232.856C147.798 232.488 147.261 230.641 147.767 230.172C148.013 229.943 148.379 229.801 148.58 229.857C149.136 230.011 149.454 229.081 148.932 228.824C148.654 228.688 148.63 228.455 148.87 228.232C149.102 228.017 149.077 227.66 148.809 227.372C148.558 227.101 148.241 226.982 148.106 227.107C147.97 227.233 147.756 227.225 147.631 227.089C147.505 226.954 147.624 226.637 147.895 226.386C148.166 226.134 148.491 226.039 148.617 226.175C148.742 226.311 148.978 226.298 149.141 226.147C149.371 225.934 149.31 225.868 148.867 225.851C148.129 225.824 147.559 225.198 147.588 224.447C147.6 224.12 147.487 223.72 147.336 223.557C147.185 223.395 147.339 223.004 147.678 222.69C148.538 221.893 148.367 221.337 147.272 221.373C146.762 221.39 146.467 221.292 146.615 221.154C146.764 221.016 147.068 220.955 147.292 221.016C147.516 221.078 147.799 220.926 147.921 220.677C148.043 220.428 148.249 220.339 148.378 220.478C148.507 220.618 148.663 220.552 148.723 220.331C148.791 220.087 148.449 219.945 147.843 219.965C147.144 219.988 146.858 219.849 146.871 219.493C146.885 219.137 147.197 219.012 147.931 219.065C148.795 219.128 148.907 219.071 148.587 218.725C148.374 218.496 148.088 218.413 147.95 218.541C147.59 218.876 146.403 217.269 146.494 216.571C146.552 216.129 146.692 216.015 147.055 216.116C147.403 216.212 147.443 216.07 147.197 215.611C147.007 215.256 146.737 215.081 146.591 215.217C146.445 215.352 146.331 215.325 146.337 215.157C146.344 214.989 146.68 214.833 147.084 214.809C147.754 214.769 147.744 214.71 146.975 214.152C145.921 213.386 145.614 212.317 146.512 212.539C146.904 212.636 147.004 212.581 146.816 212.372C146.661 212.201 146.7 211.906 146.904 211.718C147.107 211.529 147.437 211.551 147.635 211.765C147.834 211.98 148.088 211.99 148.2 211.787C148.504 211.232 148.166 210.731 147.457 210.685C146.806 210.643 145.779 210.01 146.012 209.794C146.084 209.727 146.539 209.657 147.023 209.638C147.675 209.612 147.871 209.726 147.779 210.076C147.681 210.448 147.721 210.489 147.966 210.268C148.138 210.112 148.436 210.156 148.629 210.364C148.909 210.666 149.03 210.597 149.228 210.022C149.364 209.625 149.552 209.382 149.644 209.482C149.737 209.582 149.821 209.423 149.833 209.13C149.857 208.488 147.64 208.285 147.008 208.871C146.791 209.072 146.578 209.06 146.535 208.843C146.493 208.626 146.647 208.412 146.879 208.366C147.125 208.318 147.123 208.235 146.874 208.166C146.64 208.101 146.465 207.598 146.486 207.049C146.516 206.246 146.648 206.043 147.159 206.015C147.678 205.986 147.697 205.932 147.263 205.719C146.87 205.526 146.874 205.328 147.279 204.952C147.69 204.571 147.88 204.585 148.051 205.012C148.25 205.508 148.288 205.463 148.36 204.654C148.404 204.145 148.154 203.185 147.804 202.52C147.354 201.666 147.309 201.254 147.65 201.118C148.301 200.857 146.448 200.381 145.577 200.585C145.016 200.717 144.97 200.667 144.992 199.948C145.011 199.348 145.127 199.198 145.493 199.3C145.801 199.385 145.811 199.462 145.522 199.519C145.262 199.57 145.213 199.757 145.406 199.965C145.967 200.571 146.7 199.998 146.535 199.082C146.358 198.102 145.945 197.02 145.799 197.155C145.745 197.205 145.687 197.616 145.67 198.069C145.647 198.69 145.585 198.775 145.421 198.415C145.301 198.152 145.345 197.556 145.519 197.09C145.693 196.624 145.798 195.92 145.752 195.526C145.706 195.131 145.791 194.941 145.941 195.103C146.09 195.264 146.324 195.294 146.459 195.168C146.595 195.042 146.56 194.782 146.382 194.59C146.204 194.398 146.145 194.056 146.251 193.831C146.367 193.586 146.263 193.574 145.995 193.801C145.428 194.281 145.241 194.081 145.228 192.981C145.222 192.502 145.048 191.925 144.841 191.698C144.635 191.472 144.621 191.189 144.811 191.071C145.001 190.953 145.031 190.589 144.877 190.262C144.478 189.415 144.475 187.84 144.872 187.464C145.143 187.206 145.096 187.165 144.632 187.251C144.161 187.339 144.126 187.21 144.44 186.549C144.651 186.104 144.722 185.821 144.596 185.922C144.471 186.022 144.291 185.644 144.196 185.081C144.101 184.518 143.816 183.957 143.564 183.833C143.312 183.709 143.219 183.502 143.359 183.373C143.498 183.243 143.475 183.1 143.308 183.054C143.141 183.007 142.957 182.714 142.899 182.401C142.813 181.936 142.87 181.915 143.216 182.282C143.456 182.537 143.727 182.558 143.842 182.332C143.954 182.112 143.907 181.836 143.737 181.718C143.566 181.6 143.538 181.18 143.674 180.786C143.871 180.214 143.993 180.145 144.272 180.447C144.731 180.942 145.123 180.565 144.851 179.888C144.548 179.13 144.497 179.11 144.014 179.55C143.642 179.888 143.6 179.861 143.727 179.364C143.854 178.864 143.815 178.837 143.448 179.171C143.164 179.43 142.951 179.386 142.812 179.04C142.697 178.753 142.819 178.432 143.082 178.327C143.401 178.199 143.405 178.014 143.092 177.771C142.834 177.571 142.576 177.161 142.519 176.86C142.445 176.472 142.377 176.45 142.284 176.784C142.192 177.119 142.021 177.064 141.697 176.598C141.346 176.092 141.394 175.791 141.907 175.299C142.274 174.947 142.656 174.748 142.756 174.856C142.857 174.964 143.117 174.887 143.335 174.685C143.599 174.44 143.556 174.232 143.207 174.06C142.804 173.862 142.826 173.726 143.302 173.471C143.766 173.223 143.822 172.96 143.524 172.417C143.243 171.905 143.296 171.568 143.708 171.258C144.167 170.912 144.165 170.714 143.699 170.309C143.359 170.013 143.274 169.765 143.497 169.721C143.71 169.678 144.04 169.812 144.231 170.018C144.794 170.625 145.337 169.498 144.832 168.769C144.297 167.999 143.483 167.878 143.3 168.542C143.116 169.206 141.353 170.87 141.11 170.608C140.999 170.487 140.577 170.421 140.172 170.461C139.513 170.526 139.519 170.456 140.231 169.783C140.668 169.37 140.933 168.934 140.821 168.812C140.62 168.595 138.913 170.318 138.479 171.177C138.295 171.541 138.247 171.501 138.217 170.958C138.188 170.428 138.05 170.277 137.531 170.209C136.976 170.136 136.998 170.015 137.681 169.382C138.405 168.711 138.487 168.71 138.537 169.379C138.572 169.847 138.667 169.676 138.796 168.909C139.088 167.172 139.72 166.769 140.445 167.856C140.524 167.974 140.677 167.747 140.784 167.352C140.971 166.664 140.93 166.633 139.833 166.634C139.202 166.634 138.63 166.824 138.563 167.057C138.494 167.291 138.419 167.174 138.394 166.795C138.355 166.217 138.284 166.179 137.941 166.553C137.406 167.137 136.136 165.924 136.39 165.071C136.546 164.543 136.497 164.483 135.969 164.567C135.639 164.62 135.187 164.828 134.965 165.031C134.742 165.234 134.234 165.353 133.835 165.296C133.342 165.225 133.264 165.16 133.59 165.092C133.892 165.028 133.937 164.849 133.713 164.607C133.517 164.395 133.468 164.12 133.603 163.994C133.739 163.868 133.96 163.884 134.095 164.029C134.328 164.282 135.588 164.446 135.797 164.252C135.852 164.201 135.742 163.993 135.554 163.79C135.365 163.587 135.063 163.557 134.882 163.725C134.474 164.104 134.181 163.816 134.209 163.065C134.226 162.622 134.134 162.585 133.794 162.9C133.414 163.253 133.361 163.216 133.383 162.62C133.399 162.199 133.689 161.785 134.137 161.543C134.791 161.19 134.791 161.14 134.132 161.05C133.731 160.995 133.407 160.801 133.414 160.619C133.421 160.437 133.691 160.346 134.015 160.416C134.443 160.509 134.304 160.287 133.51 159.604C132.614 158.835 132.458 158.538 132.654 157.969C132.786 157.587 133.063 157.241 133.269 157.201C133.48 157.159 133.425 157.019 133.143 156.88C132.587 156.607 132.071 156.902 132.43 157.289C132.777 157.664 132.28 157.974 131.75 157.713C131.458 157.57 131.442 157.418 131.706 157.313C132.279 157.083 131.689 155.366 130.956 155.129C130.47 154.972 130.406 155.083 130.517 155.892C130.645 156.823 130.634 156.836 129.835 156.694C128.689 156.49 128.276 155.976 128.99 155.639C129.377 155.457 129.461 155.24 129.239 155.001C129.055 154.802 128.864 154.781 128.815 154.956C128.767 155.131 128.606 155.142 128.458 154.982C128.256 154.765 128.166 154.856 128.102 155.341C128.033 155.873 127.95 155.918 127.646 155.59C127.442 155.37 127.376 155.097 127.499 154.983C127.622 154.869 127.459 154.608 127.137 154.403C126.619 154.072 126.656 153.965 127.462 153.471C128.654 152.74 128.277 152.373 126.84 152.866C125.196 153.431 124.716 153.364 124.375 152.522C124.151 151.966 123.957 151.859 123.559 152.071C123.184 152.271 123.186 152.196 123.565 151.807C123.856 151.508 124 151.163 123.886 151.04C123.772 150.917 123.511 151.081 123.306 151.403C123.019 151.853 122.82 151.868 122.448 151.467C122.182 151.18 121.854 151.048 121.718 151.174C121.331 151.533 120.808 150.77 121.073 150.231C121.204 149.964 121.518 149.663 121.771 149.562C122.481 149.277 121.484 147.673 120.658 147.769C119.861 147.862 119.604 147.633 120.047 147.222C120.229 147.053 120.789 146.951 121.292 146.996C121.99 147.057 122.185 146.958 122.114 146.577C121.976 145.822 121.728 145.664 121.303 146.058C121.072 146.272 120.883 146.233 120.829 145.96C120.769 145.655 120.654 145.683 120.476 146.045C120.331 146.34 120.13 146.51 120.03 146.421C119.931 146.332 119.526 145.992 119.131 145.664C118.736 145.337 118.53 144.961 118.673 144.828C118.834 144.679 118.687 144.555 118.283 144.502C117.746 144.432 117.71 144.34 118.077 143.969C118.321 143.723 118.345 143.588 118.131 143.668C117.917 143.748 117.598 143.545 117.422 143.216C117.246 142.886 116.978 142.732 116.826 142.873C116.675 143.013 116.338 142.899 116.079 142.619C115.72 142.232 115.751 142.04 116.206 141.826C116.584 141.648 116.731 141.355 116.604 141.036C116.492 140.757 116.304 140.667 116.186 140.836C115.783 141.415 115.131 140.719 115.514 140.118C115.729 139.779 115.711 139.431 115.47 139.313C115.233 139.196 115.205 138.825 115.407 138.469C115.605 138.119 115.672 137.73 115.555 137.603C115.437 137.477 115.503 137.275 115.701 137.154C116.343 136.764 115.28 135.684 114.417 135.85C113.975 135.935 113.405 135.783 113.15 135.512C112.809 135.149 112.713 135.157 112.784 135.542C112.862 135.966 112.788 136.019 112.389 135.823C112.119 135.69 111.981 135.405 112.082 135.189C112.218 134.897 112.181 134.865 111.939 135.063C111.48 135.437 110.863 134.675 111.151 134.089C111.461 133.458 111.086 133.075 110.251 133.173C109.64 133.244 109.587 133.184 109.614 132.451C109.631 132.012 109.529 131.759 109.388 131.89C109.247 132.021 109.037 131.958 108.921 131.75C108.805 131.542 108.741 131.498 108.779 131.653C108.816 131.807 108.622 132.142 108.348 132.396C108.017 132.703 107.784 132.698 107.658 132.381C107.388 131.707 106.37 131.806 106.343 132.508C106.328 132.916 106.188 132.986 105.784 132.787C105.231 132.515 104.4 132.989 104.757 133.373C104.866 133.491 104.564 133.889 104.087 134.257C103.609 134.626 103.409 134.856 103.643 134.768C104.313 134.514 104.512 134.985 103.93 135.449C103.64 135.68 103.322 135.781 103.223 135.674C103.124 135.568 102.876 135.635 102.673 135.823C102.47 136.012 102.157 136.009 101.979 135.817C101.801 135.624 101.425 135.354 101.144 135.216C100.811 135.052 100.768 134.839 101.021 134.604C101.277 134.367 101.232 134.157 100.889 133.989C100.412 133.754 100.381 133.783 100.516 134.338C100.63 134.811 100.503 134.985 99.9319 135.134C99.2786 135.305 99.2765 135.374 99.9117 135.788C100.303 136.042 100.57 136.435 100.508 136.662C100.445 136.888 100.297 136.969 100.178 136.841C100.059 136.712 99.5835 136.867 99.1214 137.185C98.548 137.578 98.3775 137.866 98.5843 138.089C98.7512 138.269 99.0171 138.296 99.1754 138.149C99.5617 137.791 99.5197 138.442 99.1245 138.933C98.9523 139.147 98.7175 139.221 98.603 139.098C98.2835 138.753 97.9396 139.215 97.909 140.03C97.884 140.69 97.7855 140.779 96.9126 140.927C96.1467 141.056 95.9844 141.178 96.1373 141.512C96.2435 141.743 96.0835 141.565 95.7817 141.115L95.2331 140.298L94.2152 141.48C93.3471 142.488 93.1378 142.598 92.7948 142.228C92.5735 141.989 92.1167 141.942 91.7797 142.122C91.3815 142.335 91.2797 142.572 91.4886 142.797C91.6653 142.988 91.6991 143.247 91.5635 143.372C91.4279 143.498 91.1745 143.447 91.0004 143.259C90.8262 143.072 90.2443 142.992 89.707 143.083C88.5927 143.272 88.264 143.472 88.8182 143.625C89.0404 143.686 88.885 144.022 88.4449 144.43C88.0152 144.828 87.8064 145.268 87.9593 145.453C88.1069 145.632 87.9266 145.644 87.5585 145.481C86.9165 145.196 86.9095 145.207 87.3793 145.747C87.7194 146.138 87.7171 146.371 87.3705 146.51C87.0859 146.624 86.9643 146.94 87.0866 147.246C87.3416 147.882 86.9845 148.323 86.5736 147.88C86.4152 147.709 85.9352 147.636 85.507 147.718C84.8528 147.844 84.7856 147.929 85.0869 148.254C85.2839 148.467 85.2677 148.675 85.051 148.718C84.8341 148.76 84.6138 148.591 84.5616 148.342C84.4999 148.049 84.4316 148.13 84.3683 148.572C84.2924 149.102 84.1851 149.208 83.8907 149.047C83.6544 148.917 83.3967 149.072 83.2075 149.457C82.9593 149.961 83.0043 150.055 83.4539 149.966C83.8997 149.879 83.9758 150.057 83.8542 150.906C83.7717 151.483 83.6039 151.951 83.4813 151.947C83.3585 151.943 83.3117 151.744 83.3776 151.506C83.4655 151.188 83.3135 151.038 82.8001 150.938C82.17 150.816 82.0848 150.887 81.9154 151.673C81.8124 152.151 81.8764 152.703 82.0579 152.899C82.462 153.334 81.8404 153.983 81.2983 153.691C80.9922 153.527 80.7958 153.7 80.3949 154.489C80.1132 155.044 79.7887 155.396 79.6739 155.272C79.5592 155.148 79.2644 155.219 79.0183 155.43C78.6625 155.735 78.6339 155.654 78.8782 155.032C79.1897 154.237 78.5662 153.13 78.0675 153.592C77.9173 153.731 78.0127 153.952 78.2794 154.083C78.5746 154.229 78.6225 154.453 78.4021 154.657C78.0644 154.97 77.6352 154.789 77.2447 154.168C77.1539 154.023 76.8733 153.945 76.6214 153.994C76.3695 154.044 76.1235 153.882 76.075 153.635C76.0086 153.296 76.1468 153.176 76.6327 153.149C77.1462 153.121 77.0232 153.012 76.0347 152.619C75.2596 152.311 74.7095 152.29 74.5754 152.563C74.4569 152.804 74.2494 152.882 74.1141 152.736C73.979 152.591 73.7575 152.696 73.6225 152.972C73.4818 153.257 73.0331 153.422 72.5743 153.356C72.0576 153.281 71.8229 153.379 71.9142 153.632C72.1413 154.262 70.9069 154.716 70.4143 154.185C70.0724 153.816 69.8871 153.847 69.6205 154.318C69.349 154.796 69.1685 154.819 68.7999 154.421C68.4799 154.076 68.1684 154.059 67.8343 154.369C67.5632 154.62 67.4491 154.943 67.5808 155.085ZM66.7882 157.14C66.698 157.468 66.7903 157.618 67.0508 157.567C67.2723 157.523 67.4162 157.299 67.3709 157.068C67.2576 156.492 66.9574 156.529 66.7882 157.14ZM64.6397 166.499C64.6816 166.713 64.9445 166.675 65.2235 166.417C65.5026 166.158 65.6283 165.835 65.5026 165.699C65.3769 165.564 65.1143 165.601 64.9188 165.782C64.7233 165.964 64.5978 166.286 64.6397 166.499ZM79.1968 153.729C79.4749 154.006 79.5875 154.01 79.484 153.74C79.3902 153.496 79.1841 153.292 79.0264 153.286C78.8686 153.28 78.9453 153.479 79.1968 153.729ZM89.3367 146.684C89.6422 146.834 89.7403 146.951 89.5545 146.944C89.3688 146.937 89.1819 147.198 89.1391 147.523C89.0964 147.849 88.9007 148.103 88.7045 148.089C88.5081 148.074 88.4404 147.883 88.5545 147.665C88.6684 147.446 88.605 147.224 88.4133 147.171C88.2217 147.118 88.2259 146.925 88.4229 146.742C88.6199 146.56 89.031 146.533 89.3367 146.684ZM101.97 134.817C102.018 134.869 102.333 134.764 102.67 134.584C103.007 134.403 103.189 134.155 103.075 134.032C102.961 133.909 102.646 134.014 102.375 134.266C102.104 134.517 101.922 134.766 101.97 134.817ZM103.836 133.369C103.962 133.505 104.176 133.513 104.311 133.387C104.447 133.262 104.455 133.048 104.329 132.912C104.204 132.777 103.99 132.769 103.854 132.894C103.719 133.02 103.711 133.234 103.836 133.369ZM92.6084 144.726C93.2408 144.901 93.0663 145.168 92.3564 145.112C92.0056 145.085 91.8273 144.961 91.9605 144.838C92.0934 144.715 92.385 144.664 92.6084 144.726ZM88.793 149.417C89.0654 149.648 89.0963 149.756 88.8614 149.657C88.6266 149.558 88.3911 149.633 88.3381 149.825C88.2852 150.017 88.0728 149.991 87.8664 149.769C87.3501 149.212 88.1789 148.897 88.793 149.417ZM94.2212 144.385C94.204 144.837 93.3802 144.894 93.2929 144.448C93.2408 144.183 93.3825 144.06 93.7237 144.073C94.0035 144.083 94.2273 144.224 94.2212 144.385ZM95.2368 143.629C95.4524 143.689 95.3919 143.822 95.0946 143.941C94.5156 144.173 94.2736 144.069 94.6281 143.74C94.7558 143.622 95.0296 143.572 95.2368 143.629ZM109.203 132.235C109.25 132.286 109.25 132.62 109.204 132.978C109.134 133.51 109.051 133.555 108.747 133.227C108.544 133.008 108.543 132.673 108.747 132.485C108.95 132.296 109.155 132.184 109.203 132.235ZM64.4896 174.661C64.6782 174.865 64.74 175.117 64.6268 175.222C64.3808 175.45 64.0359 175.127 64.0527 174.684C64.0693 174.244 64.1013 174.242 64.4896 174.661ZM108.881 134.855C108.936 134.915 108.934 135.135 108.876 135.344C108.818 135.554 108.662 135.608 108.529 135.464C108.396 135.321 108.398 135.1 108.533 134.975C108.669 134.849 108.825 134.795 108.881 134.855ZM114.884 136.88C115.01 137.016 115.009 137.223 114.881 137.342C114.753 137.46 114.477 137.509 114.268 137.451C114.058 137.394 114.06 137.186 114.271 136.99C114.483 136.794 114.759 136.744 114.884 136.88ZM117.544 145.188C117.732 145.391 117.776 145.66 117.64 145.786C117.504 145.912 117.239 145.848 117.051 145.645C116.862 145.442 116.819 145.172 116.954 145.047C117.09 144.921 117.355 144.984 117.544 145.188ZM118.266 146.787C118.579 146.941 118.574 147.081 118.25 147.211C117.721 147.423 117.223 147.089 117.578 146.761C117.699 146.649 118.008 146.66 118.266 146.787ZM120.717 148.61C120.92 148.829 120.028 149.868 119.713 149.781C119.523 149.729 119.651 149.422 119.998 149.101C120.345 148.779 120.669 148.559 120.717 148.61ZM123.672 149.821C123.798 149.956 124.012 149.964 124.147 149.839C124.283 149.713 124.291 149.499 124.165 149.363C124.04 149.228 123.826 149.22 123.69 149.345C123.555 149.471 123.547 149.685 123.672 149.821ZM124.734 150.842C125.172 151.315 125.351 151.309 125.668 150.812C125.884 150.474 125.883 150.277 125.665 150.376C125.448 150.474 125.125 150.398 124.946 150.206C124.768 150.014 124.525 149.947 124.407 150.057C124.288 150.166 124.435 150.52 124.734 150.842ZM126.771 152.065C127.299 152.354 128.139 151.672 127.76 151.263C127.582 151.071 127.206 151.129 126.924 151.391C126.641 151.653 126.573 151.956 126.771 152.065ZM129.628 156.245C129.762 156.389 129.918 156.335 129.976 156.125C130.034 155.916 130.036 155.695 129.98 155.636C129.925 155.576 129.769 155.63 129.633 155.755C129.497 155.881 129.495 156.102 129.628 156.245ZM130.222 158.189C130.332 158.465 130.379 158.731 130.326 158.781C130.272 158.83 130.075 158.704 129.886 158.501C129.697 158.297 129.651 158.031 129.782 157.909C129.913 157.788 130.111 157.914 130.222 158.189ZM132.974 158.618C133.016 158.831 133.168 158.896 133.311 158.763C133.455 158.63 133.47 158.41 133.344 158.275C133.218 158.139 133.067 158.073 133.007 158.129C132.947 158.184 132.932 158.404 132.974 158.618ZM136.776 163.345C136.906 164.026 136.986 164.066 137.42 163.664C137.692 163.412 137.769 163.048 137.591 162.856C137.413 162.664 137.355 162.322 137.46 162.097C137.567 161.871 137.422 161.885 137.14 162.127C136.857 162.369 136.694 162.917 136.776 163.345ZM137.178 164.921C137.678 165.954 138.379 166.173 138.195 165.238C138.153 165.025 137.995 164.965 137.843 165.106C137.692 165.246 137.533 165.187 137.491 164.974C137.45 164.76 137.353 164.643 137.277 164.714C137.202 164.784 137.157 164.877 137.178 164.921ZM141.873 165.496C141.998 165.632 142.268 165.588 142.471 165.4C142.674 165.211 142.738 164.946 142.612 164.81C142.486 164.675 142.217 164.718 142.014 164.907C141.81 165.095 141.747 165.361 141.873 165.496ZM139.229 172.055C139.546 171.996 139.799 172.093 139.792 172.27C139.776 172.704 138.808 173.069 138.513 172.751C138.223 172.438 138.472 172.195 139.229 172.055ZM145.633 167.08C145.766 167.223 145.922 167.169 145.98 166.96C146.038 166.75 146.04 166.53 145.985 166.47C145.929 166.41 145.773 166.464 145.637 166.59C145.502 166.716 145.5 166.936 145.633 167.08ZM69.0416 239.466C69.7048 239.649 69.4872 240.02 68.7711 239.926C68.3595 239.873 68.2095 239.748 68.3732 239.597C68.5172 239.463 68.8182 239.404 69.0416 239.466ZM67.7296 242.027C67.9391 242.085 68.2215 242.03 68.3571 241.904C68.4927 241.778 68.4322 241.628 68.2227 241.57C68.0131 241.512 67.7308 241.568 67.5952 241.693C67.4596 241.819 67.5201 241.969 67.7296 242.027ZM145.512 169.916C145.422 170.265 145.482 170.39 145.661 170.229C145.824 170.081 145.923 169.786 145.881 169.573C145.787 169.091 145.701 169.171 145.512 169.916ZM144.7 172.502C144.826 172.637 145.046 172.639 145.19 172.506C145.333 172.373 145.279 172.217 145.07 172.159C144.86 172.101 144.64 172.099 144.58 172.155C144.52 172.21 144.574 172.366 144.7 172.502ZM147.094 172.117C147.219 172.252 147.433 172.26 147.569 172.135C147.704 172.009 147.712 171.795 147.587 171.659C147.461 171.524 147.247 171.516 147.112 171.642C146.976 171.767 146.968 171.981 147.094 172.117ZM144.59 178.564C144.632 178.777 144.784 178.843 144.927 178.71C145.07 178.577 145.085 178.357 144.96 178.221C144.834 178.085 144.682 178.02 144.622 178.075C144.562 178.131 144.548 178.351 144.59 178.564ZM76.3102 243.834C76.6282 243.991 76.8929 244 76.8985 243.853C76.9042 243.707 76.6441 243.579 76.3203 243.567C75.8527 243.552 75.8509 243.606 76.3102 243.834ZM145.406 181.67C146.018 182.329 146.498 182.142 146.752 181.143C146.851 180.756 146.796 180.656 146.589 180.844C146.417 180.999 146.182 180.968 146.066 180.775C145.951 180.582 145.623 180.562 145.337 180.73C144.948 180.959 144.965 181.194 145.406 181.67ZM81.3842 242.663C81.5099 242.798 81.5018 243.012 81.3662 243.138C81.2306 243.263 81.0168 243.255 80.8911 243.12C80.7654 242.984 80.7735 242.77 80.9091 242.645C81.0447 242.519 81.2585 242.527 81.3842 242.663ZM144.858 184.045C145.047 184.249 145.245 184.375 145.298 184.325C145.351 184.276 145.304 184.01 145.194 183.734C145.083 183.459 144.885 183.333 144.754 183.454C144.623 183.576 144.67 183.842 144.858 184.045ZM145.613 192.771C145.746 192.914 145.902 192.861 145.96 192.651C146.018 192.442 146.02 192.221 145.964 192.161C145.909 192.102 145.753 192.156 145.617 192.281C145.481 192.407 145.48 192.627 145.613 192.771ZM86.2486 254.193C86.4281 254.528 86.4118 254.834 86.2124 254.873C85.9984 254.915 85.836 254.692 85.816 254.329C85.7703 253.5 85.8617 253.471 86.2486 254.193ZM147.158 201.855C147.284 201.991 147.276 202.205 147.14 202.33C147.004 202.456 146.791 202.448 146.665 202.312C146.539 202.177 146.547 201.963 146.683 201.837C146.818 201.711 147.032 201.72 147.158 201.855ZM92.7763 255.94C92.902 256.075 92.8318 256.347 92.6206 256.542C92.4093 256.738 92.2019 256.724 92.16 256.511C92.1181 256.298 92.1881 256.027 92.3158 255.908C92.4435 255.79 92.6506 255.804 92.7763 255.94ZM147.928 206.642C148.054 206.778 148.268 206.786 148.404 206.66C148.539 206.534 148.547 206.321 148.421 206.185C148.296 206.049 148.082 206.041 147.946 206.167C147.811 206.293 147.803 206.506 147.928 206.642ZM99.9368 251.796C99.9923 251.855 99.9902 252.076 99.9323 252.285C99.8744 252.495 99.718 252.548 99.585 252.405C99.4519 252.261 99.4539 252.041 99.5895 251.915C99.7251 251.79 99.8813 251.736 99.9368 251.796ZM111.434 243.429C111.49 243.488 111.487 243.709 111.43 243.918C111.372 244.128 111.215 244.182 111.082 244.038C110.949 243.895 110.951 243.674 111.087 243.548C111.222 243.423 111.379 243.369 111.434 243.429ZM114.009 241.756C114.135 241.891 114.189 242.048 114.129 242.103C114.069 242.159 113.849 242.157 113.639 242.099C113.43 242.041 113.376 241.884 113.52 241.751C113.663 241.618 113.884 241.62 114.009 241.756ZM103.144 252.288C103.269 252.423 103.323 252.579 103.264 252.635C103.204 252.691 102.983 252.688 102.774 252.631C102.564 252.573 102.511 252.416 102.654 252.283C102.798 252.15 103.018 252.152 103.144 252.288ZM111.936 246.936C112.048 247.057 111.918 247.362 111.647 247.614C111.166 248.059 110.762 247.948 110.784 247.376C110.798 246.995 111.679 246.659 111.936 246.936ZM119.294 240.534C119.394 240.641 119.199 240.876 118.862 241.057C118.525 241.237 118.168 241.297 118.069 241.19C117.97 241.083 118.165 240.848 118.501 240.667C118.838 240.487 119.195 240.427 119.294 240.534ZM108.899 251.078C109.15 251.349 109.453 251.481 109.572 251.37C109.896 251.071 109.771 250.001 109.412 249.987C108.761 249.963 108.459 250.604 108.899 251.078ZM146.264 219.187C146.39 219.323 146.382 219.537 146.246 219.662C146.111 219.788 145.897 219.78 145.771 219.644C145.646 219.509 145.654 219.295 145.789 219.169C145.925 219.044 146.139 219.052 146.264 219.187ZM120.447 244.497C120.489 244.711 120.641 244.776 120.785 244.643C120.928 244.51 120.943 244.29 120.817 244.154C120.692 244.019 120.54 243.953 120.48 244.009C120.42 244.064 120.406 244.284 120.447 244.497ZM127.746 249.65C127.872 249.786 127.926 249.942 127.866 249.997C127.806 250.053 127.586 250.051 127.376 249.993C127.167 249.935 127.113 249.779 127.256 249.646C127.4 249.513 127.62 249.515 127.746 249.65ZM147.92 231.357C148.032 231.478 148.342 231.49 148.608 231.383C148.932 231.253 148.937 231.112 148.624 230.958C148.113 230.707 147.591 231.002 147.92 231.357ZM129.61 250.672C129.736 250.808 129.79 250.964 129.73 251.02C129.67 251.075 129.45 251.073 129.241 251.015C129.031 250.957 128.977 250.801 129.121 250.668C129.264 250.535 129.485 250.537 129.61 250.672ZM131.121 253.283C131.276 253.455 131.237 253.749 131.033 253.938C130.585 254.353 130.908 254.787 131.491 254.553C132.106 254.306 132.025 253.285 131.377 253.114C130.993 253.012 130.92 253.061 131.121 253.283ZM151.018 240.633C151.067 240.686 151.001 240.948 150.87 241.214C150.739 241.481 150.532 241.592 150.41 241.46C150.288 241.329 150.355 241.067 150.558 240.879C150.762 240.69 150.969 240.579 151.018 240.633ZM151.331 242.454C151.791 242.374 151.769 242.495 151.234 242.996C150.836 243.369 150.512 243.478 150.468 243.254C150.374 242.773 150.574 242.587 151.331 242.454ZM150.552 244.185C151.394 244.217 151.453 244.423 150.819 245.116C150.2 245.793 150.165 245.789 149.852 245.009C149.599 244.376 149.786 244.156 150.552 244.185ZM151.639 248.639C151.821 249.59 152.35 249.764 153.053 249.103C153.661 248.531 154.139 247.206 153.541 247.747C153.352 247.919 152.813 248.018 152.344 247.966C151.503 247.874 151.494 247.883 151.639 248.639ZM147.252 253.838C147.53 254.115 147.643 254.119 147.539 253.849C147.445 253.605 147.239 253.401 147.082 253.395C146.924 253.389 147 253.588 147.252 253.838ZM153.97 251.476C154.183 251.535 154.401 251.424 154.455 251.229C154.601 250.7 154.4 250.611 153.967 251.013C153.756 251.209 153.757 251.417 153.97 251.476ZM154.19 252.46C154.422 252.711 154.373 252.93 154.056 253.057C153.78 253.168 153.654 253.366 153.776 253.497C154.123 253.871 155.199 252.697 154.989 252.173C154.792 251.681 154.375 251.552 154.028 251.874C153.915 251.978 153.988 252.242 154.19 252.46ZM149.105 258.027C149.41 258.787 149.906 258.494 149.744 257.649C149.627 257.039 149.534 256.957 149.254 257.216C149.064 257.392 148.997 257.757 149.105 258.027ZM153.439 255.446C153.556 255.74 153.899 255.936 154.199 255.88C154.614 255.803 154.619 255.897 154.22 256.272C153.61 256.846 152.796 256.568 152.825 255.795C152.854 255.019 153.191 254.827 153.439 255.446ZM152.56 257.131C152.987 257.591 152.821 258.057 152.188 258.182C151.756 258.266 151.668 258.168 151.668 257.596C151.667 256.829 152.08 256.613 152.56 257.131ZM155.589 265.096C155.631 265.309 155.783 265.374 155.927 265.241C156.07 265.108 156.085 264.888 155.959 264.753C155.834 264.617 155.682 264.552 155.622 264.607C155.562 264.663 155.548 264.882 155.589 265.096Z" fill="#16E912"/>
</g>
<path fill-rule="evenodd" clip-rule="evenodd" d="M60.1215 221.958C60.1384 221.599 59.4997 220.949 58.7025 220.512C57.4963 219.852 57.3411 219.54 57.7785 218.656C58.113 217.98 58.007 217.389 57.4868 217.033C56.971 216.68 56.9019 216.312 57.2998 216.038C57.6466 215.798 57.8416 215.126 57.7322 214.543C57.4057 212.798 61.1911 206.015 63.8505 203.58C65.524 202.047 66.049 201.322 65.9354 200.701C65.8214 200.078 65.9222 200.071 66.3406 200.674C66.6634 201.139 67.0351 201.276 67.2241 201C67.4037 200.738 66.9576 200.117 66.2334 199.621C65.451 199.086 65.1475 198.617 65.4862 198.467C65.8 198.328 66.1605 198.449 66.2875 198.737C66.4147 199.024 66.655 199.06 66.8219 198.816C66.9885 198.573 67.3625 198.718 67.653 199.139C68.0188 199.669 68.1921 199.675 68.2162 199.156C68.2357 198.744 67.9781 198.328 67.6445 198.233C66.8559 198.007 66.705 195.584 67.3677 193.793C68.1932 191.562 72.0709 185.941 72.6747 186.1C72.9953 186.184 73.2768 185.494 73.3624 184.415C73.4423 183.41 73.986 181.888 74.5712 181.033C75.5937 179.54 75.7345 179.09 76.0945 176.174C76.1907 175.394 76.4272 174.979 76.6769 175.15C76.9086 175.308 77.1836 175.079 77.288 174.64C77.3927 174.2 77.3397 173.771 77.1706 173.685C75.7635 172.973 75.6058 172.417 76.5465 171.484C77.3985 170.639 77.3983 170.437 76.5447 170.13C75.1157 169.617 74.8303 168.185 75.8584 166.684C76.5751 165.637 76.563 165.303 75.7956 164.928C75.0785 164.577 75.0592 164.465 75.7158 164.47C76.7503 164.477 76.9627 163.118 75.9405 163.036C75.5509 163.005 75.4748 162.921 75.7701 162.85C76.4307 162.691 76.8848 159.481 76.3031 159.082C76.0723 158.924 76.0984 158.586 76.3599 158.331C76.6222 158.075 76.5611 157.749 76.2242 157.605C75.888 157.462 75.7788 157.101 75.9825 156.804C76.1862 156.506 75.9189 155.561 75.3885 154.703C74.8578 153.845 74.7126 153.225 75.066 153.326C75.4193 153.427 75.8254 153.338 75.969 153.129C76.1126 152.919 75.8652 152.661 75.4189 152.554C74.9309 152.438 74.7053 151.961 74.8519 151.356C75.2646 149.657 74.904 148.618 73.9639 148.793C73.3487 148.909 73.2669 148.762 73.641 148.216C73.9167 147.813 73.9618 147.36 73.7418 147.21C73.5213 147.059 73.5776 146.456 73.8669 145.872C74.307 144.982 74.1515 144.677 72.9095 143.998C72.0763 143.542 71.0962 142.479 70.6725 141.571C69.8812 139.876 70.0187 137.399 70.9266 136.997C71.2191 136.867 71.2699 136.695 71.0384 136.614C70.3275 136.365 69.1157 134.504 69.3973 134.093C69.5435 133.879 69.3602 133.628 68.9897 133.534C68.1118 133.31 67.7684 132.39 67.9573 130.766C68.0412 130.044 67.713 129.006 67.2286 128.458C66.744 127.911 66.4725 127.28 66.6252 127.057C66.7782 126.834 66.419 125.904 65.8272 124.99C65.2357 124.076 64.8824 123.137 65.0422 122.904C65.2023 122.67 64.8824 122.17 64.3317 121.793C63.0679 120.927 62.5946 118.043 63.4302 116.302C64.3799 114.324 64.936 113.075 65.0041 112.766C65.0374 112.615 65.2019 112.351 65.369 112.179C65.5369 112.007 65.4103 111.854 65.0884 111.839C64.7661 111.824 64.5161 111.531 64.532 111.188C64.5482 110.846 64.8634 110.773 65.2324 111.025C65.6014 111.278 66.0443 111.28 66.2158 111.029C66.3874 110.779 66.2713 110.561 65.9577 110.546C65.6437 110.532 65.4006 110.239 65.4164 109.897C65.4327 109.554 65.7478 109.481 66.1168 109.734C66.9134 110.279 67.6213 109.43 67.3918 108.203C67.2651 107.527 67.3438 107.412 67.7455 107.687C68.0297 107.881 68.3391 107.879 68.4325 107.683C68.5256 107.486 68.8272 107.052 69.1023 106.718C69.5466 106.179 69.5991 106.215 69.5773 107.044C69.5606 107.665 69.6774 107.797 69.9277 107.442C70.3803 106.797 72.6411 106.376 73.6166 106.755C74.0035 106.904 74.5236 106.941 74.7731 106.836C75.3691 106.585 77.8143 108.869 77.4768 109.362C77.3329 109.572 77.5059 109.943 77.8611 110.186C78.2164 110.429 78.6662 110.396 78.8608 110.111C79.1358 109.71 79.2508 109.788 79.3775 110.465C79.4671 110.944 79.9563 111.62 80.4644 111.968C81.4186 112.622 83.1231 115.305 83.6466 116.977C84.0433 118.244 86.7604 121.489 87.4523 121.521C87.7538 121.535 88.1891 122.554 88.4194 123.784C88.6496 125.014 88.9857 125.805 89.1659 125.542C89.3996 125.201 89.668 125.399 90.1005 126.232C90.434 126.874 91.4053 127.846 92.2585 128.391C93.1114 128.936 94.3328 130.274 94.9717 131.362C95.6107 132.452 96.3332 133.352 96.5771 133.364C96.8206 133.375 98.3535 134.174 99.9835 135.139C101.613 136.103 103.242 136.907 103.603 136.924C103.963 136.94 105.014 137.42 105.938 137.989C106.862 138.558 108.427 139.032 109.416 139.043C110.405 139.055 111.378 139.169 111.579 139.298C112.158 139.668 114.258 138.774 114.854 137.904C115.152 137.468 115.763 137.199 116.212 137.306C116.66 137.413 117.144 137.33 117.287 137.121C117.686 136.539 120.156 135.983 120.698 136.354C121.305 136.77 123.464 135.489 124.359 134.182C124.733 133.637 126.152 132.608 127.513 131.896C128.874 131.185 129.999 130.355 130.013 130.05C130.058 129.111 133.25 126.699 134.476 126.68C135.279 126.667 135.961 126.151 136.686 125.008C137.402 123.881 137.922 123.482 138.32 123.755C138.768 124.062 138.854 123.883 138.686 122.99C138.524 122.121 138.688 121.762 139.335 121.578C139.812 121.442 141.014 120.374 142.006 119.205C142.998 118.036 144.144 116.978 144.553 116.853C145.019 116.711 145.197 116.406 145.032 116.033C144.854 115.63 145.142 115.298 145.927 115.004C146.623 114.742 147.496 113.818 148.114 112.688C148.797 111.44 149.232 111.007 149.407 111.401C149.552 111.728 149.811 111.79 149.982 111.539C150.154 111.289 150.093 110.945 149.847 110.777C149.322 110.417 153.885 103.832 155.389 102.779C155.929 102.401 156.334 101.896 156.289 101.656C156.244 101.416 156.685 100.479 157.268 99.5735C157.853 98.6688 158.343 97.5807 158.358 97.1569C158.374 96.7325 158.544 96.4916 158.737 96.621C158.929 96.7505 159.796 95.9212 160.663 94.7777C161.6 93.5422 162.056 92.5739 161.788 92.3902C161.536 92.218 161.913 91.8646 162.638 91.5922C163.572 91.2413 163.917 90.8607 163.86 90.243C163.815 89.77 164.592 88.3611 165.584 87.1118C166.577 85.8629 167.218 84.7244 167.009 84.5814C166.801 84.4387 166.965 83.9099 167.372 83.4068C167.78 82.9037 168.146 82.3712 168.184 82.2236C168.37 81.5116 169.784 78.805 171.347 76.167C175.682 68.8518 180.348 57.8467 181.219 52.8854C181.328 52.2643 181.729 51.116 182.11 50.3336C182.491 49.5509 183.282 47.5311 183.867 45.8445C185.81 40.2444 188.016 34.793 188.826 33.5868C189.267 32.9315 189.478 32.2939 189.296 32.1695C188.995 31.9634 189.5 31.2309 191.957 28.3047C192.937 27.1377 195.878 27.3917 197.636 28.7949C198.25 29.2861 198.987 29.8709 199.272 30.0943C200.379 30.9615 198.101 40.1002 195.727 44.3249C195.196 45.2689 194.752 46.3877 194.739 46.8113C194.713 47.7123 192.769 53.221 190.741 58.14C189.958 60.0389 189.233 62.1038 189.129 62.7287C189.026 63.3536 188.542 64.6206 188.054 65.5443C187.566 66.4679 187.11 67.7211 187.041 68.329C186.897 69.599 185.58 73.7057 184.954 74.8368C184.722 75.2564 184.167 78.0072 183.721 80.9494C183.275 83.8912 182.629 87.2443 182.286 88.4006C181.942 89.5569 181.811 90.9288 181.993 91.4499C182.31 92.3539 181.901 96.9259 181.215 100.158C181.037 100.993 181.067 101.796 181.281 101.943C181.494 102.089 181.496 102.461 181.285 102.77C180.946 103.265 180.835 105.218 180.812 111.07C180.809 111.958 180.745 113.07 180.67 113.541C180.476 114.754 180.572 115.907 181.048 118.125C181.277 119.188 181.309 120.285 181.119 120.562C180.929 120.839 181.008 121.406 181.295 121.822C181.582 122.238 181.64 122.611 181.424 122.651C180.895 122.75 181.806 128.233 182.422 128.654C182.69 128.838 182.895 129.69 182.878 130.548C182.86 131.405 183.133 132.303 183.484 132.544C183.834 132.784 184.397 133.681 184.734 134.537C185.824 137.309 186.79 138.403 188.941 139.303C190.719 140.047 191.229 139.995 192.861 138.902C194.117 138.062 195.224 137.772 196.208 138.025C197.188 138.277 198.459 137.947 200.019 137.034C202.584 135.534 207.405 131.439 207.438 130.733C207.487 129.686 210.798 124.445 211.708 123.972C212.474 123.574 213.183 123.786 214.81 124.9C216.653 126.162 216.922 126.582 216.953 128.234C217.006 131.113 215.695 134.599 212.698 139.551C211.203 142.022 209.64 144.808 209.225 145.742C208.81 146.675 207.31 149.206 205.891 151.364C204.471 153.523 202.445 156.832 201.388 158.717C200.331 160.602 198.753 163.363 197.88 164.853C197.007 166.342 195.466 169.24 194.455 171.293C193.444 173.346 192.19 175.404 191.667 175.867C191.109 176.361 190.908 176.839 191.181 177.026C191.436 177.201 191.457 177.429 191.228 177.533C190.913 177.675 188.69 182.274 187.725 184.779C187.063 186.498 186.581 187.447 185.104 189.941C184.151 191.55 182.997 193.89 182.54 195.142C182.082 196.394 181.372 198.079 180.962 198.886C180.551 199.693 180.051 201.058 179.849 201.919C179.507 203.383 179.258 204.031 177.852 207.111C176.88 209.241 175.354 215.3 175.473 216.555C175.537 217.225 175.47 217.861 175.324 217.969C174.864 218.309 174.117 220.632 174.058 221.906C174.027 222.58 173.814 223.715 173.585 224.428C173.356 225.14 173.26 227.817 173.373 230.375C173.486 232.933 173.464 235.192 173.325 235.395C173.186 235.598 173.218 236.578 173.396 237.573C173.574 238.568 173.822 240.47 173.948 241.799C174.079 243.184 174.752 244.968 175.523 245.979C176.263 246.949 176.94 248.27 177.028 248.914C177.233 250.426 174.438 255 173.162 255.238C172.006 255.455 167.77 253.209 166.33 251.616C164.248 249.312 162.557 247.821 158.945 245.101C156.942 243.593 155.188 242.1 155.049 241.786C154.909 241.47 154.667 241.4 154.511 241.628C154.354 241.857 153.145 241.742 151.823 241.373C150.501 241.005 148.641 240.754 147.691 240.817C146.74 240.88 145.797 240.818 145.594 240.679C145.013 240.282 140.925 241.262 137.352 242.657C133.292 244.241 130.192 247.413 125.44 254.848C123.627 257.684 122.056 259.806 121.949 259.563C121.841 259.32 121.359 259.429 120.878 259.805C120.396 260.181 119.908 260.277 119.793 260.016C119.678 259.757 119.35 259.721 119.064 259.938C118.724 260.196 118.34 260.01 117.956 259.399C117.633 258.885 116.891 258.148 116.307 257.759C114.198 256.354 113.391 253.46 113.966 249.36C114.162 247.959 114.048 245.162 113.648 241.5C113.444 239.638 113.413 237.918 113.577 237.677C113.742 237.436 113.434 236.536 112.892 235.677C112.349 234.817 111.719 232.977 111.492 231.588C111.175 229.658 110.73 228.824 109.605 228.054C108.602 227.367 108.339 226.954 108.781 226.759C109.194 226.576 109.158 226.459 108.68 226.437C108.261 226.418 107.9 225.969 107.858 225.417C107.754 224.014 105.434 221.823 100.684 218.637C95.8721 215.409 91.4257 213.132 89.5947 212.956C88.8814 212.888 87.6857 212.413 86.937 211.9C85.6861 211.043 82.1046 210.657 81.1501 211.276C80.9285 211.42 80.1507 211.394 79.4225 211.218C78.6935 211.042 77.9628 211.163 77.7976 211.488C77.0749 212.908 75.4278 214.82 75.2571 214.438C75.1542 214.207 74.3699 215.005 73.5141 216.211C72.6582 217.417 70.8496 219.751 69.4943 221.397C67.4576 223.872 66.7811 224.393 65.589 224.41C64.7952 224.421 64.0163 224.343 63.8571 224.236C63.6983 224.13 63.323 224.089 63.0242 224.145C62.2045 224.298 60.0867 222.703 60.1215 221.958ZM126.502 234.993C127.036 234.285 129.764 232.768 130.536 232.75C130.897 232.741 131.042 232.628 130.858 232.496C130.675 232.366 131.065 231.988 131.726 231.658C132.387 231.328 133.045 230.901 133.188 230.71C133.331 230.52 133.957 230.348 134.579 230.328C135.2 230.309 135.875 230.051 136.077 229.756C136.279 229.461 136.643 229.506 136.885 229.857C137.192 230.303 137.43 230.205 137.671 229.533C137.916 228.851 138.447 228.645 139.49 228.827C140.301 228.969 141.076 228.922 141.212 228.723C141.348 228.524 141.75 228.56 142.105 228.804C142.46 229.047 142.89 229.043 143.06 228.795C143.477 228.185 147.017 227.785 147.753 228.264C148.077 228.474 149.102 228.64 150.031 228.631C152.087 228.612 154.39 229.389 155.892 230.608C156.579 231.165 157.278 231.332 157.703 231.038C158.221 230.681 158.976 230.991 160.691 232.264C162.95 233.941 162.993 233.947 163.467 232.697C163.732 231.999 163.788 230.891 163.592 230.235C163.396 229.579 163.397 228.156 163.594 227.074C163.791 225.991 163.962 224.685 163.972 224.17C164.016 222.076 165.719 214.844 166.562 213.172C167.058 212.188 167.321 211.285 167.146 211.165C166.819 210.941 168.056 206.852 168.634 206.246C168.813 206.059 168.836 205.628 168.685 205.289C168.535 204.949 168.981 203.657 169.677 202.419C170.374 201.18 170.943 200.096 170.943 200.009C170.943 199.921 171.015 199.686 171.103 199.486C171.192 199.286 171.274 198.82 171.286 198.451C171.298 198.082 171.647 197.041 172.062 196.137C172.477 195.232 173.106 193.695 173.461 192.721C174.233 190.6 175.393 188.282 177.812 184.024C178.803 182.281 179.583 180.525 179.546 180.122C179.508 179.719 179.732 179.008 180.042 178.54C180.609 177.688 182.664 173.526 185.167 168.165C186.45 165.416 189.782 159.748 192.855 155.088C195.158 151.596 195.583 150.315 194.653 149.678C194.198 149.366 193.7 149.294 193.547 149.518C193.264 149.932 191.624 149.852 188.044 149.251C183.462 148.482 176.482 142.613 175.598 138.785C175.379 137.835 174.717 136.309 174.126 135.394C173.15 133.882 171.172 124.041 171.075 120.211C171.053 119.35 171.003 117.341 170.963 115.749C170.923 114.156 171.019 112.159 171.177 111.31C171.334 110.46 171.264 109.63 171.022 109.465C170.78 109.299 170.742 108.917 170.937 108.616C171.3 108.057 171.021 104.404 170.593 104.112C170.2 103.842 168.608 106.447 168.842 106.976C168.962 107.247 168.901 107.912 168.706 108.455C168.443 109.189 168.227 109.258 167.861 108.726C167.493 108.194 167.362 108.236 167.343 108.894C167.33 109.378 165.965 111.836 164.312 114.357C162.658 116.876 160.864 119.852 160.326 120.968C159.689 122.289 159.013 123.094 158.389 123.271C157.617 123.491 157.535 123.695 157.97 124.325C158.323 124.836 158.273 125.094 157.826 125.073C157.443 125.055 156.113 126.458 154.788 128.278C153.473 130.085 152.24 131.388 151.996 131.229C151.756 131.071 151.709 131.289 151.89 131.712C152.121 132.25 152.015 132.473 151.543 132.451C151.17 132.433 150.665 132.71 150.422 133.065C150.147 133.467 150.267 133.728 150.74 133.756C151.317 133.79 151.283 133.871 150.598 134.096C149.445 134.473 146.21 137.369 145.052 139.06C144.337 140.104 144.042 140.213 143.569 139.61C143.005 138.893 142.993 138.911 143.306 139.994C143.709 141.388 143.219 142.174 141.725 142.532C140.661 142.786 137.702 145.444 135.625 148.01C135.124 148.629 133.771 149.357 132.619 149.626C131.466 149.897 130.399 150.3 130.247 150.522C130.095 150.744 129.755 150.778 129.49 150.596C129.224 150.414 128.849 150.713 128.651 151.264C128.455 151.812 127.887 152.298 127.391 152.344C126.894 152.39 126.409 152.757 126.313 153.159C126.11 154.013 123.373 155.262 122.706 154.806C121.893 154.249 119.716 154.818 119.075 155.755C118.402 156.737 116.76 157.074 114.145 156.764C113.245 156.657 111.846 156.674 111.035 156.803C110.226 156.931 109.05 156.881 108.424 156.692C107.797 156.503 107.126 156.576 106.933 156.855C106.386 157.646 103.059 157.164 101.45 156.063C99.882 154.989 97.2739 154.342 96.873 154.928C96.737 155.126 96.3281 155.085 95.9647 154.836C95.4071 154.455 95.2839 154.593 95.1773 155.72C95.108 156.455 94.8959 157.185 94.7063 157.342C94.5161 157.499 94.6246 157.64 94.9465 157.654C95.9164 157.7 95.5452 158.96 94.4718 159.266C93.6582 159.498 93.5367 159.696 93.8175 160.33C94.0069 160.758 94.4246 161.12 94.7454 161.136C95.0666 161.151 95.0357 161.293 94.6773 161.451C94.3125 161.613 94.2447 162.056 94.5224 162.459C94.7949 162.854 94.7672 163.545 94.4603 163.993C93.8141 164.937 94.1952 165.343 95.5289 165.132C96.3063 165.009 96.2455 165.103 95.1763 165.681C94.0716 166.277 94.0232 166.365 94.8408 166.293C95.6177 166.224 95.7334 166.628 95.4617 168.457C95.2586 169.821 95.4283 170.913 95.8934 171.231C96.3149 171.52 96.6468 172.032 96.6311 172.369C96.6153 172.706 96.397 172.841 96.1464 172.669C95.3175 172.102 94.5359 174.005 95.0182 175.417C95.3379 176.353 95.3033 176.554 94.9127 176.033C94.5423 175.54 94.1837 175.481 93.9175 175.87C93.6565 176.251 93.8742 176.64 94.5015 176.913C95.2988 177.259 95.3345 177.479 94.6784 177.991C94.2255 178.345 93.5077 179.618 93.0834 180.822C91.1838 186.207 89.9742 190.375 89.9329 191.677C89.8889 193.053 88.7534 195.569 86.894 198.407C86.0172 199.746 86.336 201.383 87.4021 201.014C88.4436 200.653 93.1469 201.695 95.1343 202.727C96.289 203.326 98.3518 204.263 99.718 204.807C101.084 205.352 104.365 207.211 107.009 208.938C110.795 211.409 112.191 212.586 113.579 214.475C114.549 215.794 115.676 216.953 116.085 217.051C116.493 217.148 116.692 217.427 116.525 217.67C116.358 217.914 116.498 218.126 116.835 218.141C117.172 218.157 117.586 218.487 117.756 218.874C117.926 219.262 118.33 219.829 118.655 220.136C119.814 221.227 122.671 226.243 122.378 226.672C122.214 226.912 122.378 227.313 122.744 227.564C123.11 227.814 123.552 228.78 123.726 229.709C124.234 232.423 125.347 235.631 125.755 235.555C125.961 235.517 126.297 235.263 126.502 234.993ZM196.299 149.194C196.647 148.685 195.832 148.128 195.289 148.504C194.846 148.809 194.887 149.024 195.413 149.15C195.846 149.253 196.245 149.273 196.299 149.194Z" fill="#037FF3"/>
<path fill-rule="evenodd" clip-rule="evenodd" d="M35.1055 32.3723C33.8904 32.8589 32.2682 35.5813 31.7783 37.9557C31.4118 39.7332 31.4658 40.1934 32.2478 41.9549C33.2804 44.2811 34.6301 45.2244 36.9271 45.2244C40.8009 45.2244 43.9315 40.246 42.7454 35.9717C42.5265 35.1823 41.7168 33.9639 40.9422 33.2579C39.7687 32.1884 39.2421 31.9807 37.7533 32.0013C36.7724 32.015 35.5808 32.1821 35.1055 32.3723ZM12.9417 57.4749C8.28635 58.8059 5.56019 60.7673 2.89476 64.7041C0.28415 68.5599 -0.372125 71.2001 0.182341 75.6158C0.88717 81.2277 3.04396 84.2443 6.77329 84.8342C10.8445 85.4783 13.2479 84.3822 19.302 79.1218C22.3234 76.4964 23.3423 74.4165 24.0322 69.4643C24.4453 66.498 24.4438 65.4437 24.0248 63.6198C23.2984 60.4602 22.2271 58.6921 20.5578 57.896C18.67 56.9964 15.2739 56.8086 12.9417 57.4749Z" fill="#FD73C5"/>
</svg>
