<svg width="300" height="256" viewBox="0 0 300 256" fill="none" xmlns="http://www.w3.org/2000/svg">
<path fill-rule="evenodd" clip-rule="evenodd" d="M276.541 145.998C274.175 148.496 271.727 151.768 271.727 152.43C271.727 152.679 271.525 152.882 271.278 152.882C271.031 152.882 270.829 153.108 270.829 153.384C270.829 153.66 270.223 154.576 269.483 155.419C268.742 156.263 268.136 157.162 268.136 157.417C268.136 157.673 267.539 158.75 266.809 159.811C265.634 161.519 265.235 161.771 263.331 162.01C255.167 163.033 251.726 164.139 249.175 166.558C247.74 167.919 247.669 168.699 248.692 171.871C249.286 173.716 250.171 174.921 252.955 177.676C254.887 179.588 256.468 181.343 256.468 181.577C256.468 182.155 254.704 185.211 253.733 186.317C252.899 187.266 251.601 190.436 251.217 192.461C250.907 194.099 252.751 195.966 254.678 195.966C256.398 195.966 259.984 195.172 261.154 194.532C262.253 193.931 267.486 192.824 269.229 192.824C269.953 192.824 271.428 192.397 272.506 191.875C273.584 191.354 274.518 191 274.583 191.09C278.536 196.638 280.576 198.667 282.177 198.644C285.143 198.601 286.259 195.163 286.501 185.312C286.532 184.05 286.994 183.499 290.015 181.123C294.948 177.241 300 172.241 300 171.239C300 170.075 297.188 167.053 295.248 166.133C294.374 165.718 292.208 165.136 290.435 164.84L287.21 164.301L286.868 162.07C286.68 160.842 286.547 159.334 286.571 158.717C286.636 157.082 286.631 156.97 286.343 153.78C285.912 148.991 285.593 146.99 285.082 145.868C284.557 144.715 284.591 144.737 282.946 144.506C282.329 144.419 281.098 144.23 280.211 144.086C278.726 143.846 278.434 143.998 276.541 145.998Z" fill="#16E912"/>
<path fill-rule="evenodd" clip-rule="evenodd" d="M276.364 153.37C275.793 153.852 275.171 154.247 274.982 154.247C274.61 154.247 270.706 158.582 270.706 158.995C270.706 159.133 270.241 159.777 269.673 160.427C269.105 161.077 268.448 162.283 268.214 163.106C267.597 165.278 266.932 165.939 265.644 165.665C263.866 165.286 262.229 165.461 260.729 166.19C259.941 166.573 258.875 166.887 258.36 166.887C256.839 166.887 254.519 169.385 254.748 170.776C255.007 172.351 257.305 174.345 259.593 174.979C260.263 175.165 261.268 175.717 261.825 176.206C263.254 177.46 264.705 177.135 266.686 175.117C267.529 174.259 268.384 173.557 268.588 173.557C268.791 173.557 268.958 173.241 268.958 172.855C268.958 172.469 269.082 172.153 269.235 172.153C269.59 172.153 271.405 168.198 271.405 167.422C271.405 167.039 272.133 166.519 273.499 165.927C275.997 164.845 276.539 163.927 277.701 158.812C278.117 156.977 278.622 155.042 278.821 154.51C279.088 153.799 279.068 153.406 278.748 153.018C278.134 152.276 277.559 152.361 276.364 153.37ZM282.245 169.658C281.38 169.968 280.338 170.414 279.931 170.649C279.523 170.883 279.082 170.967 278.951 170.835C278.819 170.703 278.805 170.839 278.919 171.138C279.053 171.488 278.842 171.82 278.326 172.069C277.885 172.282 277.733 172.467 277.987 172.48C278.335 172.498 278.313 172.641 277.896 173.059C277.592 173.364 277.444 173.777 277.566 173.976C277.689 174.175 277.58 174.468 277.323 174.627C276.95 174.859 276.941 175.095 277.279 175.817C277.51 176.312 277.893 177.13 278.129 177.634C278.71 178.874 279.615 179.151 282.592 178.999C285.426 178.855 288.478 177.574 289.417 176.135C289.712 175.683 290.156 175.313 290.403 175.313C290.65 175.313 291.034 174.879 291.256 174.347C291.633 173.446 291.648 173.441 291.484 174.26L291.308 175.137L291.834 174.26C292.124 173.777 292.366 173.507 292.373 173.659C292.38 173.812 292.605 173.733 292.873 173.483C293.38 173.014 293.266 172.351 292.735 172.68C292.053 173.103 292.083 172.16 292.767 171.679C293.497 171.165 293.499 171.141 292.86 170.25C292.409 169.621 291.986 169.396 291.476 169.514C291.072 169.607 290.642 169.583 290.521 169.462C290.014 168.953 283.802 169.101 282.245 169.658ZM274.346 178.845C273.288 179.246 272.124 180.826 272.036 181.979C271.992 182.561 271.864 183.037 271.751 183.037C271.638 183.037 271.608 183.572 271.684 184.227C271.831 185.49 273.696 188.091 274.221 187.765C274.392 187.659 274.632 187.974 274.755 188.464C274.878 188.955 275.197 189.357 275.464 189.357C275.732 189.357 275.951 189.515 275.951 189.708C275.951 189.901 276.234 190.059 276.581 190.059C276.927 190.059 277.383 190.233 277.594 190.445C278.126 190.978 279.367 190.518 279.628 189.69C279.747 189.313 279.964 189.006 280.111 189.006C280.257 189.006 280.41 188.097 280.45 186.987C280.491 185.877 280.607 184.692 280.708 184.354C280.811 184.015 280.726 183.739 280.52 183.739C280.315 183.739 280.147 183.572 280.147 183.367C280.147 183.163 280.291 183.085 280.467 183.194C280.65 183.307 280.687 183.028 280.555 182.543C280.273 181.517 277.18 178.991 275.919 178.759C275.421 178.667 274.713 178.706 274.346 178.845ZM261.458 180.349C260.967 180.995 260.566 181.684 260.566 181.881C260.566 182.077 260.094 182.835 259.517 183.564C258.466 184.891 258.11 186.548 258.876 186.548C259.1 186.548 259.188 186.644 259.072 186.761C258.955 186.878 259.154 187.291 259.514 187.679C260.167 188.383 260.17 188.382 261.553 187.384C262.315 186.834 263.363 185.71 263.882 184.886C264.401 184.062 264.935 183.388 265.068 183.388C265.201 183.388 265.581 182.927 265.913 182.364C266.359 181.605 266.431 181.118 266.19 180.481C265.814 179.488 265.175 179.175 263.527 179.175C262.603 179.175 262.158 179.427 261.458 180.349Z" fill="#FFE04A"/>
<path fill-rule="evenodd" clip-rule="evenodd" d="M271.697 10.4141C270.981 10.6544 270.109 11.2064 269.761 11.6406C269.413 12.0749 268.221 13.0965 267.114 13.9108C265.916 14.7912 265.187 15.5395 265.315 15.7573C265.432 15.9584 265.34 16.1995 265.11 16.2929C264.879 16.3862 264.642 16.7655 264.581 17.1356C264.521 17.5059 264.363 17.8806 264.229 17.9681C264.095 18.0559 264.158 18.3385 264.369 18.5966C264.652 18.9444 264.544 19.333 263.947 20.0985C263.251 20.9931 263.128 21.67 263.029 25.1571C262.966 27.3712 263.009 29.2448 263.125 29.3205C263.24 29.3961 263.349 29.979 263.368 30.6157C263.39 31.4098 263.614 31.8753 264.08 32.0987C264.454 32.2776 264.732 32.5222 264.699 32.6424C264.548 33.1906 264.767 33.5078 265.182 33.3398C265.493 33.2139 265.55 33.2996 265.365 33.6166C265.02 34.205 265.799 35.7761 266.398 35.7007C266.655 35.6683 266.816 35.8833 266.767 36.1937C266.668 36.8204 268.038 37.1396 269.975 36.9416C270.594 36.8783 272.143 36.749 273.417 36.6544C275.723 36.4831 277.085 35.9992 277.085 35.351C277.085 35.1638 277.259 35.0108 277.471 35.0108C277.683 35.0108 277.857 34.7985 277.857 34.539C277.857 34.2794 278.248 33.7418 278.726 33.3444C279.966 32.313 280.663 30.9099 280.06 30.659C279.788 30.5454 279.764 30.4632 280.003 30.4609C280.227 30.4589 280.715 29.9732 281.087 29.3819C281.459 28.7907 281.927 28.1092 282.127 27.8676C282.327 27.626 282.49 26.6935 282.49 25.7954C282.49 24.8973 282.666 24.0908 282.882 24.0035C283.098 23.916 283.163 23.726 283.026 23.5808C282.889 23.4358 282.959 23.2433 283.182 23.153C283.769 22.9155 284.774 19.5126 284.36 19.167C284.161 19.0011 284.162 18.6305 284.363 18.2816C284.552 17.9514 284.564 17.4285 284.388 17.1196C284.164 16.7278 284.246 16.4406 284.657 16.171C284.982 15.9582 285.096 15.7841 284.911 15.7841C284.726 15.7841 284.365 15.1178 284.108 14.3034C283.842 13.46 283.31 12.6264 282.873 12.3669C282.45 12.1162 282.104 11.7544 282.104 11.5629C282.104 11.3714 281.854 11.1518 281.549 11.0751C281.23 10.9947 281.094 10.7657 281.229 10.5355C281.377 10.2823 281.307 10.1988 281.038 10.3076C280.804 10.4022 280.484 10.3433 280.327 10.1763C280.127 9.9643 279.952 10.0205 279.748 10.3617C279.55 10.6926 279.447 10.7278 279.428 10.4705C279.386 9.87525 273.434 9.83199 271.697 10.4141Z" fill="#FD73C5"/>
<path fill-rule="evenodd" clip-rule="evenodd" d="M0.454568 186.711C0.157435 186.478 0.144994 186.189 0.412524 185.732C0.718224 185.211 1.09176 185.098 2.32797 185.155C3.1726 185.194 4.96672 185.228 6.31511 185.232C7.66351 185.236 8.91231 185.302 9.08984 185.38C9.26764 185.458 10.4052 185.391 11.6174 185.232C12.8299 185.073 14.0388 185.038 14.3039 185.153C14.5688 185.269 15.1502 185.291 15.5955 185.201C16.0411 185.111 17.2159 185.006 18.2062 184.968C19.1967 184.929 20.2487 184.776 20.5443 184.627C20.8398 184.479 21.3359 184.469 21.6471 184.605C21.9579 184.741 22.7722 184.692 23.4566 184.498C24.141 184.303 25.1348 184.23 25.665 184.336C26.1951 184.441 27.0081 184.347 27.4719 184.127C27.9358 183.907 28.8869 183.717 29.5858 183.704C30.2847 183.691 31.4634 183.474 32.2053 183.221C32.9471 182.968 34.4227 182.657 35.4844 182.529C36.5462 182.4 37.8546 182.126 38.3922 181.92C40.3753 181.159 41.6216 180.806 41.9006 180.928C42.0584 180.997 42.2391 180.935 42.3023 180.791C42.3656 180.646 42.5483 180.585 42.7085 180.655C42.8687 180.725 43.895 180.398 44.9893 179.929C46.0834 179.46 47.17 179.159 47.4035 179.261C47.6371 179.364 48.3522 179.147 48.9926 178.781C50.7495 177.777 55.1207 176.056 55.4976 176.221C55.6799 176.301 55.9083 176.185 56.0051 175.963C56.1021 175.742 56.3886 175.57 56.642 175.582C56.8954 175.593 57.1705 175.448 57.2534 175.258C57.3362 175.069 57.5206 174.918 57.6635 174.923C57.8061 174.928 58.5636 174.578 59.3466 174.145C60.1299 173.712 61.3306 173.113 62.0152 172.813C62.6996 172.514 63.3257 172.119 63.4066 171.934C63.4873 171.749 63.6602 171.644 63.7904 171.701C64.0516 171.816 65.9578 170.549 66.3093 170.028C66.4307 169.848 66.8508 169.636 67.2424 169.557C67.6342 169.478 68.007 169.294 68.0708 169.148C68.1347 169.002 68.6525 168.624 69.2215 168.308C69.7905 167.992 70.2917 167.652 70.3352 167.552C70.3788 167.452 70.9273 167.177 71.5537 166.939C72.1802 166.702 72.6286 166.48 72.5497 166.446C72.4711 166.411 73.1234 165.921 73.9994 165.356C74.8757 164.792 75.6774 164.367 75.7813 164.412C75.8852 164.458 76.5709 163.822 77.3056 163.001C78.0402 162.179 79.1778 161.235 79.834 160.902C80.49 160.569 81.1178 160.089 81.229 159.834C81.3403 159.58 82.7471 158.288 84.3555 156.965C85.9634 155.641 88.155 153.538 89.2249 152.292C90.2951 151.046 91.4573 149.898 91.8076 149.74C92.1576 149.583 92.372 149.422 92.2836 149.383C92.1955 149.345 92.4989 148.911 92.958 148.419C93.4172 147.928 93.8023 147.321 93.8138 147.07C93.8268 146.785 93.9918 146.684 94.2572 146.8C94.5526 146.929 94.785 146.744 95.0286 146.187C95.2204 145.749 95.7643 145.035 96.2375 144.601C96.7105 144.167 97.288 143.473 97.5209 143.058C98.2254 141.801 99.622 140.06 99.8466 140.158C100.169 140.299 100.918 139.072 100.701 138.758C100.591 138.598 100.735 138.46 101.044 138.43C101.628 138.372 102.19 137.423 101.753 137.232C101.565 137.15 101.635 136.992 101.976 136.723C102.408 136.382 103.116 135.371 103.618 134.376C103.705 134.204 103.917 134.202 104.088 134.372C104.316 134.597 104.427 134.515 104.497 134.07C104.55 133.735 104.491 133.417 104.367 133.362C104.112 133.251 105.09 131.726 105.466 131.65C105.6 131.622 105.937 131.043 106.214 130.361C106.491 129.68 106.783 129.216 106.862 129.332C107.043 129.593 107.248 129.163 107.11 128.812C106.964 128.438 107.348 127.46 107.598 127.569C107.714 127.62 107.819 127.448 107.831 127.188C107.844 126.901 107.968 126.801 108.147 126.935C108.309 127.056 108.561 127.03 108.706 126.879C108.851 126.727 108.842 126.547 108.685 126.478C108.277 126.3 108.551 125.827 109.214 125.568C109.526 125.446 109.851 125.185 109.937 124.989C110.023 124.793 109.993 124.377 109.871 124.065C109.749 123.753 109.679 123.43 109.715 123.347C109.751 123.265 109.958 123.275 110.175 123.37C110.617 123.563 111.005 122.936 110.709 122.507C110.603 122.354 110.595 122.052 110.69 121.835C110.786 121.615 110.955 121.575 111.073 121.745C111.226 121.967 111.27 121.869 111.231 121.384C111.16 120.482 111.271 120.301 111.661 120.687C111.842 120.865 112.04 120.896 112.101 120.756C112.162 120.616 112.108 120.455 111.98 120.4C111.617 120.24 112.016 118.923 112.49 118.719C112.801 118.586 112.84 118.465 112.637 118.271C112.485 118.125 112.457 117.938 112.576 117.856C112.694 117.774 113.133 117.097 113.55 116.351C113.968 115.605 114.535 114.685 114.811 114.306C115.166 113.82 115.201 113.634 114.931 113.672C114.413 113.746 114.736 113.066 115.344 112.801C115.628 112.678 115.674 112.606 115.456 112.627C115.248 112.648 115.125 112.407 115.176 112.081C115.246 111.633 115.4 111.554 115.838 111.74L116.407 111.982L116.026 111.274C115.65 110.576 115.897 109.808 116.764 108.977C116.965 108.784 117.139 108.128 117.149 107.52C117.162 106.693 117.484 105.781 118.428 103.892C119.606 101.535 119.668 101.311 119.372 100.482C119.061 99.6127 119.069 99.5908 119.729 99.4272C120.13 99.3275 120.305 99.1633 120.161 99.0215C120.027 98.8904 119.773 98.5039 119.596 98.1629C119.292 97.5759 119.31 97.5679 119.931 98.013C120.623 98.5098 121.082 98.182 120.5 97.6073C120.319 97.429 120.273 97.0508 120.397 96.7667C120.521 96.4824 120.547 96.0204 120.455 95.7395C119.887 94.019 119.888 93.7801 120.463 94.0316C120.664 94.1197 120.974 94.0451 121.151 93.8661C121.336 93.6778 121.326 93.5078 121.125 93.4634C120.89 93.4111 120.968 92.9479 121.37 92.0196C121.695 91.2677 121.912 90.5287 121.853 90.3771C121.793 90.2255 121.892 89.7662 122.071 89.3562C122.26 88.9224 122.255 88.5821 122.058 88.5413C121.872 88.5031 121.763 88.0679 121.818 87.5746C121.871 87.0811 121.899 86.4126 121.878 86.0891C121.858 85.7655 122.038 84.8572 122.278 84.0707C122.562 83.1385 122.598 82.447 122.38 82.085C122.197 81.7798 122.162 81.2666 122.302 80.9452C122.443 80.6238 122.4 80.0938 122.207 79.768C121.868 79.1945 122.137 78.5905 122.498 79.1132C122.907 79.7043 122.796 78.9333 122.318 77.8628C121.947 77.0296 121.934 76.8648 122.273 77.2682C122.645 77.7118 122.86 77.7793 123.323 77.5978C123.643 77.4725 123.884 77.2186 123.857 77.0335C123.831 76.8481 123.931 76.7499 124.08 76.815C124.642 77.061 124.361 76.0274 123.698 75.4125C123.178 74.9304 123.113 74.7282 123.438 74.6009C123.763 74.4737 123.928 74.5465 124.103 74.893C124.23 75.1468 124.456 75.3069 124.604 75.2488C124.752 75.1907 124.902 75.3489 124.938 75.6001C125.043 76.3402 125.922 76.205 126.044 75.4297C126.102 75.0613 126.038 74.8836 125.902 75.035C125.488 75.4943 125.195 75.1538 125.582 74.6633C125.78 74.4114 126.066 74.2896 126.216 74.3922C126.586 74.6453 127.041 73.112 126.787 72.4641C126.678 72.1866 126.474 71.9088 126.332 71.847C126.191 71.7851 126.243 71.5218 126.448 71.2622C126.714 70.925 126.942 70.8967 127.246 71.1631C127.779 71.6298 128.443 71.036 128.321 70.2022C128.218 69.5044 128.6 69.2625 128.891 69.8409C129.13 70.3171 130.171 69.7271 131.346 68.4486C131.942 67.8008 132.335 67.6532 133.248 67.735C133.881 67.7919 134.798 67.6643 135.287 67.4514C136.226 67.0421 136.725 67.0393 136.152 67.4465C135.92 67.6112 136.004 67.6355 136.413 67.5227C136.935 67.3786 136.99 67.4166 136.82 67.8048C136.712 68.0515 136.794 68.2673 137.002 68.2839C137.211 68.3007 137.513 67.9982 137.675 67.6121C137.837 67.226 138.063 66.9508 138.178 67.0008C138.292 67.0507 138.313 67.2575 138.224 67.4603C138.135 67.6631 138.379 68.1219 138.765 68.48C139.73 69.3752 140.145 69.5153 140.362 69.019C140.484 68.7415 140.666 68.7138 140.893 68.9379C141.084 69.1258 141.348 69.327 141.481 69.385C141.614 69.4431 141.654 69.6482 141.569 69.841C141.356 70.3288 142.726 71.4357 143.73 71.5873C144.764 71.7429 145.184 72.1378 145.106 72.8788C145.039 73.5174 145.368 73.7838 145.729 73.3837C145.87 73.2277 146.104 73.5137 146.308 74.0903C146.609 74.9436 146.798 75.1014 147.888 75.4106C149.013 75.7302 149.077 75.7149 148.588 75.2416C148.068 74.7376 148.073 74.7162 148.718 74.5697C149.163 74.4689 149.451 74.5489 149.582 74.8096C149.691 75.0248 149.891 75.1572 150.028 75.1036C150.164 75.0501 150.216 75.1443 150.142 75.3129C150.068 75.4818 149.857 75.5629 149.672 75.4927C149.487 75.4229 149.568 75.6015 149.852 75.8897C150.159 76.2017 150.53 76.3702 150.767 76.3059C150.986 76.2467 151.578 76.2826 152.083 76.386C152.681 76.5079 153.008 76.4313 153.02 76.166C153.04 75.7449 154.894 75.4799 155.05 75.8761C155.096 75.9944 154.742 76.26 154.262 76.4661L153.391 76.8407L154.328 76.8458C154.844 76.8486 155.56 76.8008 155.92 76.7397C156.38 76.6615 156.636 76.7527 156.785 77.0487C156.94 77.3567 157.232 77.3567 157.881 77.0488C158.367 76.8179 158.953 76.7068 159.182 76.8013C159.411 76.8962 159.897 76.9018 160.263 76.8139C160.628 76.7262 160.995 76.7524 161.077 76.8722C161.16 76.9918 161.481 76.9351 161.791 76.7464C162.101 76.5575 162.776 76.4865 163.291 76.5889C163.807 76.6912 164.274 76.6694 164.331 76.5406C164.387 76.4114 165.04 76.29 165.78 76.2708C166.521 76.2513 166.981 76.1665 166.803 76.0821C166.624 75.9976 166.533 75.8024 166.601 75.648C166.674 75.4812 166.919 75.5388 167.205 75.789C167.512 76.0585 167.669 76.0855 167.637 75.8639C167.61 75.6732 167.74 75.4956 167.927 75.4689C168.114 75.4424 168.212 75.546 168.145 75.6991C168.078 75.8521 168.378 76.1329 168.812 76.3226C169.281 76.5277 169.661 76.5301 169.75 76.3283C169.831 76.1419 170.632 75.9031 171.529 75.7982C172.427 75.6934 173.194 75.4705 173.234 75.3029C173.275 75.1354 173.51 75.1319 173.758 75.2946C174.043 75.4819 174.188 75.4522 174.154 75.2133C174.125 75.0055 174.403 74.6996 174.773 74.533C175.369 74.2643 175.488 74.2991 175.817 74.8383C176.146 75.3791 176.305 75.4226 177.25 75.2316C177.834 75.1133 178.536 74.8979 178.809 74.7527C179.25 74.5187 179.285 74.5416 179.114 74.9525C178.907 75.4501 179.498 75.8733 179.956 75.5559C180.109 75.4503 180.108 75.3091 179.955 75.2422C179.802 75.1752 179.729 75.002 179.792 74.8574C179.855 74.7127 180.025 74.646 180.17 74.7092C180.314 74.7724 181.118 74.5676 181.955 74.2542C182.792 73.9406 183.606 73.8111 183.764 73.9664C183.921 74.1217 184.201 74.0954 184.386 73.9078C184.571 73.7204 184.875 73.6338 185.062 73.7154C185.249 73.7971 185.663 73.6845 185.983 73.4654C186.31 73.2422 186.702 73.2023 186.877 73.3745C187.054 73.5496 187.412 73.5061 187.707 73.2735C188.135 72.937 188.27 72.9535 188.478 73.3673C188.682 73.7729 188.808 73.8168 189.135 73.5963C189.357 73.446 189.582 73.2281 189.636 73.1121C189.689 72.996 189.825 73.0344 189.938 73.1974C190.05 73.3601 190.308 73.2836 190.511 73.0271C190.771 72.6971 191.056 72.6625 191.485 72.909C191.821 73.102 192.129 73.118 192.175 72.9449C192.311 72.4345 193.039 71.8771 193.377 72.0249C194.104 72.343 195.429 72.0785 195.959 71.5093C196.273 71.1724 196.7 70.9717 196.909 71.0631C197.119 71.1545 197.435 71.0815 197.614 70.901C197.793 70.7193 198.265 70.7137 198.671 70.8886C199.182 71.1088 199.326 71.0887 199.146 70.8222C198.955 70.5387 198.989 70.4258 199.28 70.3843C199.496 70.3535 199.706 70.4166 199.749 70.5243C199.867 70.8275 201.18 70.3636 201.955 69.7445C202.338 69.438 202.83 69.2655 203.048 69.3608C203.265 69.456 203.589 69.3862 203.767 69.2056C203.946 69.025 204.27 68.9552 204.488 69.0506C205.143 69.3369 207.398 68.9992 207.785 68.5568C207.984 68.3299 208.264 68.1775 208.406 68.2184C208.549 68.2592 208.787 68.3281 208.935 68.3713C209.233 68.4581 210.169 68.1779 211.159 67.7045C212.106 67.2522 213.378 66.985 213.77 67.1563C213.957 67.2384 214.159 67.195 214.218 67.06C214.277 66.9251 214.591 66.843 214.917 66.8772C215.242 66.9114 216.066 66.7332 216.747 66.4812C217.972 66.0279 218.676 65.9426 220.465 66.0298C220.971 66.0544 222.092 65.8339 222.955 65.5402C223.819 65.2462 224.793 65.0339 225.12 65.0683C225.447 65.1025 225.762 65.0204 225.821 64.8855C225.88 64.7506 226.041 64.6895 226.18 64.75C226.318 64.8104 226.996 64.7546 227.687 64.626C229.116 64.3601 229.676 64.526 230.16 65.357C230.47 65.8883 230.426 66.023 229.65 66.9354C227.616 69.3277 226.311 70.5723 225.442 70.9462C225.177 71.0605 224.885 71.3256 224.793 71.5349C224.603 71.9697 222.616 73.3744 222.084 73.45C221.89 73.4776 221.749 73.6292 221.772 73.7865C221.845 74.3023 219.477 76.5242 219.174 76.2248C219.019 76.0718 218.66 76.0632 218.377 76.2056C218.011 76.3898 217.95 76.5032 218.166 76.5979C218.389 76.6953 218.334 76.8388 217.959 77.1339C217.678 77.3555 217.537 77.5851 217.647 77.6438C217.756 77.7026 217.533 77.7414 217.15 77.7299C216.68 77.7158 216.358 77.9296 216.156 78.3906C215.986 78.7812 215.776 78.9527 215.665 78.7927C215.559 78.6388 215.321 78.6665 215.135 78.8541C214.95 79.0416 214.697 79.0598 214.572 78.8948C214.437 78.717 214.416 78.7995 214.52 79.0961C214.662 79.5043 214.536 79.647 213.839 79.8628C212.846 80.1703 211.376 81.2913 211.512 81.6377C211.563 81.768 211.407 81.7884 211.166 81.683C210.925 81.5776 210.676 81.6097 210.613 81.7543C210.549 81.899 210.279 81.9219 210.012 81.8052C209.369 81.5237 208.147 82.0942 208.12 82.6891C208.105 83.007 207.942 83.093 207.621 82.9527C207.359 82.8379 206.826 82.8871 206.438 83.062C205.784 83.3561 205.765 83.3944 206.183 83.577C206.436 83.6875 206.503 83.8641 206.337 83.9791C206.174 84.092 205.903 84.0482 205.734 83.8822C205.542 83.6921 205.351 83.756 205.221 84.054C204.939 84.6982 204.559 84.8071 204.311 84.3144C204.166 84.0261 204.009 84.0042 203.776 84.2397C203.595 84.4236 203.562 84.624 203.702 84.6852C203.842 84.7465 203.905 84.915 203.841 85.0596C203.778 85.2043 203.518 85.2352 203.263 85.1287C203.008 85.0221 202.328 85.2058 201.753 85.5371C201.177 85.8682 200.654 86.0964 200.591 86.0438C200.391 85.8767 198.467 86.7373 198.553 86.9559C198.598 87.0712 198.326 87.3045 197.949 87.4744C197.572 87.6443 197.284 87.9339 197.311 88.1183C197.337 88.3024 196.948 88.7406 196.447 89.0919C195.946 89.443 195.425 89.9819 195.29 90.2897C195.155 90.5972 194.824 90.9119 194.555 90.9895C194.286 91.0669 193.444 91.8435 192.682 92.7152C191.921 93.587 191.2 94.2572 191.08 94.2048C190.959 94.1522 190.731 94.4751 190.571 94.9222C190.411 95.3693 190.208 95.7035 190.12 95.665C190.032 95.6264 189.47 96.1207 188.87 96.7634C188.271 97.4063 187.595 98.0328 187.367 98.1557C187.085 98.3084 187.006 98.5151 187.119 98.8043C187.242 99.118 187.137 99.2615 186.717 99.3551C186.405 99.4247 186.048 99.633 185.924 99.8183C185.801 100.003 185.151 100.742 184.481 101.46C183.811 102.178 183.279 102.881 183.299 103.023C183.319 103.164 183.096 103.349 182.802 103.434C182.508 103.518 182.183 103.783 182.078 104.023C181.973 104.262 181.582 104.644 181.209 104.872C180.835 105.1 180.521 105.477 180.51 105.71C180.491 106.123 179.598 107.27 178.734 107.992C178.499 108.188 178.257 108.462 178.197 108.599C178.137 108.736 177.805 109.121 177.459 109.455C177.113 109.789 176.809 110.175 176.783 110.313C176.757 110.451 176.412 110.775 176.017 111.033C175.573 111.323 175.231 111.805 175.125 112.293C175.03 112.728 174.833 113.13 174.687 113.187C174.542 113.244 174.378 113.366 174.324 113.457C174.27 113.548 174.016 113.883 173.758 114.202C173.501 114.52 173.051 115.169 172.759 115.645C172.467 116.12 172.032 116.776 171.793 117.102C171.553 117.428 171.158 118.047 170.914 118.478C170.67 118.909 170.294 119.463 170.078 119.709C169.863 119.955 169.302 120.891 168.832 121.79C168.362 122.688 167.779 123.688 167.536 124.013C167.293 124.337 166.797 125.178 166.434 125.881C166.071 126.584 165.573 127.423 165.326 127.746C165.079 128.069 164.535 128.959 164.117 129.724C162.58 132.536 161.706 133.892 161.34 134.036C160.943 134.191 160.527 135.297 160.747 135.614C160.87 135.791 160.777 136.019 160.49 136.246C160.009 136.624 159.79 137.172 159.879 137.775C159.91 137.979 159.811 138.195 159.661 138.254C159.51 138.314 159.212 138.731 158.998 139.183C158.784 139.635 158.179 140.733 157.655 141.624C157.13 142.514 156.099 144.531 155.364 146.105C154.629 147.679 153.977 149.015 153.915 149.074C153.854 149.134 153.709 149.458 153.592 149.796C153.473 150.142 153.168 150.4 152.891 150.387C152.585 150.373 152.268 150.675 152.045 151.191C151.849 151.645 151.468 152.414 151.199 152.899C150.907 153.426 150.787 154.037 150.901 154.414C151.065 154.954 151.038 155.022 150.715 154.881C150.423 154.753 150.18 155.098 149.642 156.404C149.259 157.332 148.968 158.248 148.995 158.438C149.022 158.629 148.726 159.042 148.336 159.357C147.947 159.672 147.697 160.036 147.781 160.165C147.974 160.463 147.591 161.348 147.321 161.229C147.21 161.181 146.974 161.501 146.797 161.94C146.619 162.38 146.575 162.783 146.697 162.837C147.038 162.986 146.735 163.474 146.161 163.698C145.818 163.833 145.461 164.402 145.08 165.425C144.615 166.673 144.453 166.893 144.192 166.636C144.016 166.463 143.861 166.347 143.847 166.38C143.833 166.413 143.764 166.87 143.693 167.395C143.615 167.982 143.446 168.368 143.256 168.395C143.086 168.42 142.85 168.661 142.732 168.931C142.613 169.201 142.097 169.531 141.585 169.664C141.073 169.797 140.757 169.956 140.883 170.017C141.009 170.077 140.806 170.2 140.433 170.29C139.852 170.429 139.817 170.48 140.19 170.643C140.47 170.766 140.51 170.952 140.303 171.163C140.124 171.343 139.822 171.422 139.63 171.339C139.438 171.255 139.121 171.363 138.924 171.578C138.172 172.404 136.888 172.392 134.708 171.54C133.556 171.089 132.317 170.744 131.953 170.773C131.59 170.802 130.98 170.69 130.6 170.523C130.219 170.357 129.663 170.238 129.363 170.26C129.063 170.282 128.315 170.159 127.701 169.987C127.087 169.815 125.983 169.631 125.246 169.578C124.51 169.526 123.876 169.403 123.838 169.306C123.799 169.208 123.351 169.155 122.841 169.188C122.332 169.221 121.951 169.155 121.996 169.041C122.04 168.926 121.834 168.969 121.537 169.134C121.24 169.3 120.369 169.447 119.602 169.462C118.835 169.477 117.394 169.574 116.401 169.678C115.408 169.782 113.81 169.786 112.852 169.687C111.893 169.588 110.7 169.613 110.2 169.743C109.701 169.873 109.143 169.914 108.961 169.834C108.779 169.755 108.478 169.844 108.293 170.032C108.107 170.22 107.868 170.248 107.762 170.094C107.656 169.941 107.508 169.954 107.433 170.124C107.351 170.312 107.062 170.271 106.696 170.02C106.364 169.793 106.054 169.696 106.006 169.805C105.959 169.914 105.591 169.948 105.19 169.881C104.789 169.813 104.411 169.87 104.352 170.007C104.182 170.395 101.967 171.213 101.787 170.953C101.699 170.826 101.276 170.846 100.846 170.997C100.417 171.148 99.9423 171.217 99.7916 171.151C99.6409 171.085 99.4658 171.15 99.4025 171.294C99.3393 171.439 99.0508 171.454 98.7615 171.327C98.4722 171.201 98.1915 171.198 98.1379 171.32C98.0842 171.443 97.4388 171.548 96.7039 171.555C95.9689 171.561 94.9481 171.771 94.4358 172.021C93.9237 172.27 93.3458 172.406 93.1522 172.321C92.9584 172.236 92.5768 172.245 92.3044 172.342C92.032 172.438 91.2684 172.549 90.6075 172.589C89.9465 172.629 89.3621 172.761 89.3089 172.883C89.2555 173.005 89.0334 173.026 88.8148 172.931C88.5965 172.835 88.1195 172.902 87.7548 173.078C87.3901 173.254 87.021 173.296 86.9342 173.171C86.8475 173.045 86.7233 173.064 86.6583 173.213C86.5934 173.361 85.6385 173.691 84.5361 173.946C83.4337 174.201 82.4202 174.475 82.2832 174.554C82.1466 174.634 81.9429 174.616 81.8305 174.515C81.7185 174.413 81.5551 174.399 81.4676 174.482C80.9879 174.939 77.8196 175.995 76.7335 176.06C76.0383 176.102 75.2334 176.254 74.9451 176.399C74.6568 176.544 74.2839 176.603 74.1169 176.53C73.9496 176.457 73.5402 176.525 73.2071 176.68C72.874 176.836 71.2195 177.417 69.5305 177.971C67.8418 178.525 65.3576 179.391 64.0101 179.896C62.6627 180.401 61.1268 180.838 60.597 180.867C59.6276 180.921 58.3336 181.411 57.1381 182.178C56.7802 182.407 56.0589 182.492 55.5199 182.368C54.985 182.244 54.3977 182.249 54.2146 182.377C53.892 182.604 52.922 182.685 52.3493 182.533C51.7026 182.361 50.7776 182.473 49.8775 182.833C49.3495 183.044 47.9248 183.472 46.711 183.784C45.4976 184.097 44.4686 184.435 44.4247 184.535C44.3806 184.636 43.6577 184.757 42.8185 184.805C41.9792 184.853 40.9586 185.065 40.5511 185.276C40.1434 185.487 39.7305 185.545 39.6333 185.404C39.5362 185.264 39.4083 185.26 39.3489 185.396C39.2897 185.531 38.8217 185.634 38.3092 185.624C37.7966 185.614 37.3343 185.704 37.2817 185.824C37.065 186.32 26.0718 187.792 25.2551 187.435C25.1449 187.387 24.3734 187.473 23.5406 187.626C22.7078 187.778 21.845 187.824 21.623 187.727C21.4013 187.63 20.9964 187.635 20.7235 187.739C20.2098 187.933 18.2734 187.959 18.1933 187.773C18.1682 187.715 17.5087 187.764 16.728 187.883C15.9471 188.002 15.1206 188.017 14.8912 187.917C14.3917 187.698 13.3106 187.748 12.4133 188.031C12.0546 188.145 11.4842 188.159 11.1459 188.064C10.8074 187.969 10.1776 187.892 9.74621 187.894C3.57418 187.914 1.68009 187.673 0.454568 186.711ZM149.177 222.978C149.208 222.906 149.293 222.872 149.366 222.904C149.438 222.936 149.471 223.021 149.44 223.093C149.408 223.165 149.323 223.199 149.251 223.167C149.178 223.135 149.145 223.05 149.177 222.978ZM150.243 220.896C150.775 219.946 152.672 216.789 154.457 213.882C156.242 210.974 157.751 208.321 157.81 207.985C157.869 207.65 158.154 206.633 158.443 205.725C158.732 204.818 159.149 203.35 159.369 202.465C159.589 201.579 159.951 200.468 160.174 199.997C160.831 198.608 163.437 191.354 163.997 189.356C164.127 188.895 164.454 187.728 164.725 186.763C164.996 185.798 165.38 184.802 165.579 184.55C165.778 184.298 165.868 183.844 165.781 183.54C165.694 183.237 165.852 182.426 166.134 181.738C166.416 181.051 166.622 180.331 166.593 180.139C166.563 179.947 166.78 179.055 167.074 178.157C167.665 176.352 167.985 175.199 168.427 173.278C168.836 171.496 170.188 168.709 170.911 168.155C171.418 167.767 171.492 167.558 171.372 166.849C171.293 166.385 171.341 165.887 171.478 165.742C171.615 165.597 171.71 165.214 171.69 164.891C171.669 164.569 172.588 162.047 173.732 159.288C175.592 154.802 175.872 154.263 176.372 154.198C176.891 154.131 176.907 154.089 176.576 153.626C176.307 153.248 176.339 152.977 176.711 152.51C176.981 152.171 177.45 151.391 177.752 150.777C178.055 150.163 178.472 149.637 178.678 149.608C179.086 149.55 179.893 147.666 179.793 147.008C179.758 146.785 179.937 146.44 180.189 146.242C181.114 145.515 182.062 144.308 182.485 143.317C182.594 143.063 182.796 142.904 182.934 142.965C183.219 143.089 183.519 141.861 183.475 140.753C183.452 140.189 183.583 139.921 184.036 139.612C184.539 139.267 184.584 139.134 184.336 138.709C184.072 138.256 184.125 138.168 184.919 137.743C185.696 137.327 185.784 137.186 185.726 136.455C185.67 135.748 185.736 135.618 186.203 135.511C186.951 135.341 187.946 134.047 187.35 134.02C187.006 134.004 187.056 133.71 187.593 132.59C187.965 131.814 188.46 131.105 188.694 131.013C188.991 130.897 189.103 130.661 189.068 130.225C189.041 129.883 189.244 129.253 189.519 128.826C190.977 126.559 191.228 126.278 191.524 126.57C191.691 126.734 191.884 126.738 191.954 126.577C192.024 126.417 191.963 126.234 191.818 126.171C191.674 126.108 191.61 125.931 191.677 125.778C191.744 125.625 191.87 125.602 191.956 125.727C192.043 125.852 192.588 125.453 193.168 124.841C193.946 124.017 194.34 123.334 194.679 122.22C195.049 121.003 195.229 120.717 195.613 120.735C195.978 120.752 196.191 120.451 196.533 119.437C196.815 118.599 197.103 118.128 197.321 118.147C197.559 118.167 197.609 117.987 197.486 117.554C197.353 117.088 197.408 116.918 197.703 116.876C197.921 116.845 198.373 116.313 198.71 115.695C199.479 114.279 200.278 113.265 200.536 113.378C200.645 113.425 200.807 113.143 200.896 112.75C200.985 112.357 201.24 111.94 201.461 111.823C201.683 111.705 201.922 111.387 201.991 111.116C202.061 110.845 202.283 110.695 202.484 110.784C202.743 110.897 202.93 110.68 203.121 110.044C203.525 108.701 204.225 107.8 204.586 108.156C204.804 108.371 204.988 108.232 205.238 107.661C205.677 106.656 206.216 106.101 206.438 106.423C206.533 106.56 206.665 106.546 206.732 106.393C206.799 106.24 206.723 106.058 206.563 105.987C206.384 105.909 206.427 105.717 206.676 105.489C206.898 105.284 207.31 104.654 207.592 104.088C207.874 103.522 208.498 102.685 208.98 102.228C209.462 101.772 209.901 101.294 209.957 101.167C210.013 101.04 210.147 100.976 210.257 101.023C210.465 101.114 211.169 100.499 212.458 99.0985C213.053 98.4528 213.271 98.3656 213.442 98.7058C213.563 98.946 213.691 99.1026 213.725 99.0535C213.76 99.0047 214.076 98.4559 214.428 97.8343C215.648 95.6779 217.365 94.1635 217.829 94.8344C217.941 94.9969 218.002 94.9531 217.97 94.7322C217.94 94.5201 218.046 94.4035 218.206 94.4733C218.396 94.5565 218.576 94.2528 218.728 93.5955C218.917 92.7778 219.105 92.5452 219.74 92.3472C220.169 92.2134 220.547 91.995 220.579 91.862C220.748 91.1546 221.137 90.7979 221.65 90.8788C222.048 90.9415 222.267 90.7844 222.36 90.3695C222.435 90.0399 222.589 89.8108 222.704 89.8608C222.818 89.9107 223.354 89.5458 223.894 89.0495C224.433 88.5533 225.018 88.1181 225.193 88.0826C225.367 88.0471 225.52 87.8069 225.532 87.5488C225.543 87.2908 225.768 87.0175 226.031 86.9419C226.294 86.8663 226.801 86.5232 227.158 86.1797C227.515 85.836 227.921 85.6674 228.061 85.8048C228.441 86.1802 225.07 93.4819 223.524 95.6297C221.626 98.2665 221.456 98.5595 219.578 102.423C218.614 104.407 217.631 106.127 217.395 106.246C217.158 106.365 217.067 106.508 217.194 106.563C217.462 106.68 216.748 108.301 216.288 108.619C216.115 108.739 215.997 109.133 216.026 109.497C216.06 109.926 215.923 110.275 215.634 110.493C215.194 110.827 214.189 113.428 214.155 114.32C214.145 114.574 213.435 116.449 212.577 118.486C211.718 120.523 210.776 123.142 210.483 124.307C210.19 125.471 209.693 127.099 209.377 127.925C208.803 129.428 208.667 130.142 208.419 132.96C208.345 133.789 208.156 134.836 207.998 135.285C207.84 135.734 207.737 136.287 207.769 136.513C207.801 136.739 207.646 137.516 207.425 138.24C207.205 138.963 207.027 139.98 207.03 140.498C207.035 141.134 206.645 142.266 205.837 143.968C204.754 146.249 204.516 146.572 203.395 147.287C202.712 147.722 202.141 148.178 202.125 148.301C202.109 148.423 201.978 148.472 201.833 148.408C201.689 148.345 201.492 148.471 201.397 148.689C201.151 149.252 199.467 150.53 199.353 150.24C199.301 150.107 199.146 150.254 199.009 150.568C198.872 150.881 198.595 151.065 198.394 150.977C197.952 150.784 197.387 151.302 197.359 151.927C197.347 152.176 197.054 152.491 196.707 152.627C196.302 152.785 196.034 153.12 195.96 153.562C195.893 153.961 195.728 154.198 195.565 154.127C195.412 154.06 195.248 154.164 195.202 154.36C195.156 154.555 194.7 155.096 194.189 155.562C192.72 156.9 190.726 159.272 190.24 160.257C189.995 160.753 189.644 161.305 189.46 161.483C188.445 162.465 186.928 164.584 186.437 165.708C186.127 166.416 185.669 167.075 185.42 167.173C185.17 167.271 185.053 167.389 185.16 167.435C185.266 167.482 185.13 167.696 184.857 167.91C184.511 168.183 184.423 168.391 184.566 168.598C184.68 168.762 184.606 169.055 184.403 169.251C183.58 170.042 182.509 171.482 181.477 173.188C181.312 173.46 181.026 173.828 180.84 174.006C180.314 174.51 179.494 175.86 178.358 178.09C176.449 181.84 175.622 183.349 175.227 183.799C174.904 184.168 174.151 185.394 173.496 186.616C173.421 186.756 173.065 187.587 172.704 188.463C171.73 190.832 170.266 193.671 169.881 193.937C169.694 194.066 169.575 194.257 169.616 194.361C169.782 194.785 168.345 196.147 167.297 196.558C166.385 196.915 166.067 197.23 165.59 198.252C165.267 198.943 164.742 200.028 164.424 200.664C164.105 201.3 163.299 202.961 162.633 204.355C161.132 207.494 159.732 209.532 158.959 209.704C158.631 209.777 158.216 210.186 158.023 210.627C157.563 211.681 154.124 216.904 152.935 218.355C152.415 218.99 151.522 220.189 150.949 221.021C149.497 223.131 149.035 223.05 150.243 220.896ZM170.5 167.761C170.532 167.689 170.617 167.656 170.689 167.687C170.761 167.719 170.795 167.804 170.763 167.876C170.732 167.949 170.646 167.982 170.574 167.95C170.502 167.919 170.469 167.834 170.5 167.761ZM170.837 167.23C170.976 167.176 171.133 167.245 171.188 167.383C171.242 167.522 171.128 167.566 170.936 167.482C170.743 167.398 170.698 167.284 170.837 167.23ZM149.927 156.416C149.901 156.232 150.005 156.137 150.158 156.204C150.311 156.271 150.385 156.444 150.321 156.589C150.258 156.733 150.154 156.829 150.09 156.801C150.026 156.773 149.953 156.6 149.927 156.416ZM103.956 133.652C103.987 133.58 104.072 133.547 104.145 133.578C104.217 133.61 104.25 133.695 104.219 133.767C104.187 133.84 104.102 133.873 104.03 133.841C103.957 133.81 103.924 133.725 103.956 133.652ZM107.423 128.589C107.454 128.517 107.421 128.432 107.349 128.4C107.277 128.368 107.191 128.402 107.16 128.474C107.128 128.546 107.162 128.631 107.234 128.663C107.306 128.695 107.391 128.661 107.423 128.589ZM179.47 147.246C179.502 147.174 179.587 147.14 179.659 147.172C179.732 147.204 179.765 147.289 179.733 147.361C179.702 147.433 179.617 147.467 179.544 147.435C179.472 147.404 179.439 147.318 179.47 147.246ZM181.097 146.391C181.129 146.319 181.096 146.234 181.023 146.202C180.951 146.17 180.866 146.204 180.834 146.276C180.803 146.348 180.836 146.433 180.908 146.465C180.981 146.497 181.066 146.463 181.097 146.391ZM182.59 144.172C182.536 144.033 182.422 144.078 182.338 144.27C182.254 144.463 182.298 144.577 182.437 144.523C182.575 144.468 182.644 144.31 182.59 144.172ZM161.428 134.292C161.567 134.238 161.724 134.307 161.779 134.445C161.833 134.584 161.719 134.628 161.527 134.544C161.334 134.46 161.289 134.346 161.428 134.292ZM116.418 107.301C116.502 107.108 116.615 107.064 116.67 107.202C116.724 107.341 116.655 107.499 116.516 107.553C116.378 107.607 116.333 107.494 116.418 107.301ZM119.374 96.4794C119.512 96.4254 119.67 96.4944 119.725 96.6328C119.779 96.7714 119.665 96.8158 119.473 96.7316C119.28 96.6473 119.235 96.5339 119.374 96.4794ZM120.77 89.4661C120.854 89.2733 120.967 89.2289 121.022 89.3674C121.076 89.506 121.007 89.6638 120.868 89.7182C120.73 89.7723 120.685 89.6589 120.77 89.4661ZM195.491 121.354C195.523 121.282 195.489 121.197 195.417 121.165C195.345 121.134 195.26 121.167 195.228 121.239C195.196 121.312 195.23 121.397 195.302 121.428C195.374 121.46 195.459 121.427 195.491 121.354ZM120.901 86.8364C120.84 86.6795 120.896 86.3107 121.025 86.0164C121.194 85.6295 121.303 85.5958 121.42 85.8952C121.509 86.1224 121.454 86.4916 121.297 86.715C121.14 86.9387 120.962 86.9934 120.901 86.8364ZM198.43 117.261C198.375 117.122 198.262 117.167 198.178 117.36C198.093 117.552 198.138 117.666 198.276 117.612C198.415 117.557 198.484 117.399 198.43 117.261ZM121.492 83.5157C121.576 83.323 121.689 83.2786 121.744 83.417C121.798 83.5556 121.729 83.7134 121.59 83.7679C121.452 83.8219 121.407 83.7085 121.492 83.5157ZM121.811 78.4859C121.843 78.4136 121.928 78.3803 122 78.4119C122.072 78.4436 122.106 78.5286 122.074 78.6009C122.042 78.6733 121.957 78.7066 121.885 78.675C121.813 78.6433 121.779 78.5583 121.811 78.4859ZM123.356 78.5349C123.388 78.4626 123.354 78.3775 123.282 78.3459C123.21 78.3143 123.125 78.3476 123.093 78.4199C123.061 78.4923 123.095 78.5773 123.167 78.6089C123.239 78.6406 123.324 78.6073 123.356 78.5349ZM123.586 78.0089C123.618 77.9366 123.584 77.8515 123.512 77.8199C123.44 77.7883 123.355 77.8216 123.323 77.8939C123.291 77.9662 123.325 78.0513 123.397 78.0829C123.469 78.1145 123.554 78.0812 123.586 78.0089ZM123.151 75.7855C123.124 75.5963 123.248 75.5983 123.443 75.7903C123.822 76.1644 123.823 76.3895 123.445 76.2241C123.309 76.1645 123.176 75.9672 123.151 75.7855ZM125.18 76.5128C125.212 76.4405 125.178 76.3554 125.106 76.3238C125.034 76.2921 124.949 76.3254 124.917 76.3978C124.885 76.4701 124.919 76.5552 124.991 76.5868C125.063 76.6184 125.149 76.5851 125.18 76.5128ZM124.933 74.2116C124.965 74.1393 125.05 74.106 125.122 74.1376C125.194 74.1693 125.228 74.2543 125.196 74.3267C125.164 74.399 125.079 74.4323 125.007 74.4007C124.935 74.369 124.901 74.284 124.933 74.2116ZM127.638 74.4731C127.666 74.4092 127.589 74.2129 127.467 74.0368C127.33 73.8381 127.267 73.8629 127.301 74.1019C127.356 74.4871 127.543 74.6925 127.638 74.4731ZM124.563 72.4309C124.701 72.3769 124.859 72.4459 124.914 72.5843C124.968 72.723 124.854 72.7674 124.662 72.6831C124.469 72.5988 124.424 72.4854 124.563 72.4309ZM128.113 72.3125C128.087 72.1287 127.947 71.9267 127.803 71.8634C127.658 71.8001 127.561 71.8987 127.587 72.0825C127.613 72.2662 127.753 72.4683 127.898 72.5316C128.042 72.5948 128.139 72.4963 128.113 72.3125ZM130.225 72.1394C130.257 72.0671 130.224 71.9821 130.151 71.9504C130.079 71.9188 129.994 71.9521 129.962 72.0244C129.931 72.0968 129.964 72.1818 130.036 72.2135C130.109 72.2451 130.194 72.2118 130.225 72.1394ZM126.14 68.9433C126.293 68.8378 126.477 68.7773 126.549 68.8089C126.621 68.8405 126.556 68.9528 126.403 69.0583C126.25 69.1639 126.066 69.2244 125.994 69.1928C125.922 69.1611 125.987 69.0489 126.14 68.9433ZM131.252 70.6301C131.232 70.3202 131.334 69.9415 131.478 69.7891C131.908 69.334 131.494 69.3524 130.907 69.8144C130.483 70.1486 130.42 70.3268 130.621 70.6242C131.033 71.2353 131.29 71.2377 131.252 70.6301ZM129.616 67.8002C129.648 67.7279 129.733 67.6946 129.805 67.7262C129.878 67.7578 129.911 67.8429 129.879 67.9152C129.848 67.9875 129.763 68.0208 129.69 67.9892C129.618 67.9576 129.585 67.8725 129.616 67.8002ZM143.959 72.9748C144.022 72.8301 143.889 72.631 143.664 72.5325C143.438 72.4339 143.275 72.5035 143.301 72.6873C143.327 72.871 143.46 73.07 143.596 73.1296C143.732 73.1892 143.895 73.1195 143.959 72.9748ZM133.956 67.1911C133.987 67.1188 134.072 67.0855 134.145 67.1171C134.217 67.1487 134.25 67.2338 134.219 67.3061C134.187 67.3784 134.102 67.4117 134.03 67.3801C133.957 67.3485 133.924 67.2634 133.956 67.1911ZM133.281 66.5831C133.313 66.5107 133.398 66.4774 133.47 66.5091C133.543 66.5407 133.576 66.6257 133.544 66.6981C133.513 66.7704 133.428 66.8037 133.355 66.7721C133.283 66.7405 133.25 66.6554 133.281 66.5831ZM141.219 69.6879C141.164 69.5495 141.051 69.5939 140.966 69.7866C140.882 69.9794 140.927 70.0928 141.065 70.0388C141.204 69.9843 141.273 69.8265 141.219 69.6879ZM146.028 71.8247C146.127 71.5993 146.294 71.5395 146.399 71.6922C146.505 71.8449 146.543 72.081 146.483 72.2172C146.423 72.3535 146.256 72.413 146.112 72.3497C145.967 72.2865 145.93 72.0501 146.028 71.8247ZM155.547 75.8488C155.632 75.656 155.745 75.6116 155.8 75.7501C155.854 75.8887 155.785 76.0465 155.646 76.1009C155.508 76.155 155.463 76.0416 155.547 75.8488ZM134.025 66.3152C134.05 66.2584 134.278 66.2213 134.531 66.2328C134.784 66.2446 134.942 66.3688 134.88 66.5087C134.819 66.6489 134.592 66.6859 134.375 66.5911C134.158 66.4962 134 66.372 134.025 66.3152ZM143.709 70.2024C143.792 70.0131 143.991 69.9876 144.151 70.146C144.312 70.3044 144.428 70.4678 144.41 70.5091C144.392 70.5504 144.193 70.5758 143.968 70.5657C143.742 70.5552 143.626 70.3918 143.709 70.2024ZM139.109 67.8254C139.247 67.7714 139.405 67.8404 139.459 67.9789C139.514 68.1175 139.4 68.1619 139.207 68.0776C139.015 67.9933 138.97 67.8799 139.109 67.8254ZM139.906 67.9131C140.011 67.6719 140.206 67.5729 140.339 67.6927C140.472 67.8124 140.532 68.0228 140.471 68.1603C140.411 68.2979 140.216 68.3969 140.038 68.3807C139.86 68.3646 139.8 68.1542 139.906 67.9131ZM141.683 68.8651C141.742 68.7289 141.941 68.5962 142.125 68.5701C142.309 68.5439 142.378 68.7072 142.28 68.9326C142.181 69.158 141.982 69.2909 141.837 69.2276C141.693 69.1644 141.623 69.0013 141.683 68.8651ZM135.435 65.958C135.466 65.8857 135.551 65.8524 135.624 65.884C135.696 65.9156 135.729 66.0007 135.698 66.073C135.666 66.1453 135.581 66.1786 135.509 66.147C135.436 66.1154 135.403 66.0303 135.435 65.958ZM137.185 66.2535C136.943 65.8883 136.969 65.8546 137.364 66.0232C137.618 66.1317 137.774 66.3388 137.711 66.4835C137.571 66.8044 137.541 66.7914 137.185 66.2535ZM159.92 75.8807C159.983 75.7361 160.16 75.6726 160.313 75.7395C160.466 75.8064 160.467 75.9477 160.314 76.0532C160.162 76.1588 159.985 76.2224 159.921 76.1945C159.857 76.1665 159.856 76.0254 159.92 75.8807ZM161.292 76.3242C161.324 76.2519 161.409 76.2186 161.481 76.2502C161.554 76.2818 161.587 76.3669 161.555 76.4392C161.524 76.5116 161.439 76.5449 161.366 76.5132C161.294 76.4816 161.261 76.3966 161.292 76.3242ZM216.065 96.5136C216.096 96.4413 216.063 96.3562 215.991 96.3246C215.918 96.293 215.833 96.3263 215.802 96.3986C215.77 96.4709 215.803 96.556 215.876 96.5876C215.948 96.6192 216.033 96.5859 216.065 96.5136ZM175.179 75.1377C175.124 74.9993 174.966 74.9303 174.828 74.9843C174.689 75.0388 174.734 75.1522 174.927 75.2365C175.119 75.3208 175.233 75.2764 175.179 75.1377ZM224.102 95.3284C224.134 95.2561 224.219 95.2228 224.291 95.2544C224.364 95.286 224.397 95.3711 224.365 95.4434C224.334 95.5157 224.249 95.5491 224.176 95.5174C224.104 95.4858 224.071 95.4007 224.102 95.3284ZM225.548 93.4543C225.58 93.382 225.665 93.3487 225.737 93.3803C225.81 93.4119 225.843 93.497 225.811 93.5693C225.78 93.6416 225.695 93.6749 225.622 93.6433C225.55 93.6117 225.517 93.5266 225.548 93.4543ZM182.988 73.2787C183.02 73.2064 183.105 73.1731 183.177 73.2047C183.25 73.2363 183.283 73.3214 183.251 73.3937C183.22 73.4661 183.135 73.4994 183.062 73.4677C182.99 73.4361 182.957 73.3511 182.988 73.2787ZM184.008 73.0977C184.039 73.0254 184.124 72.9921 184.197 73.0237C184.269 73.0553 184.302 73.1404 184.271 73.2127C184.239 73.285 184.154 73.3183 184.082 73.2867C184.009 73.2551 183.976 73.17 184.008 73.0977ZM187.443 72.4066C187.474 72.3343 187.559 72.301 187.632 72.3326C187.704 72.3642 187.737 72.4493 187.706 72.5216C187.674 72.5939 187.589 72.6272 187.517 72.5956C187.444 72.564 187.411 72.4789 187.443 72.4066ZM191.092 73.3756C191.124 73.3033 191.09 73.2182 191.018 73.1866C190.946 73.155 190.861 73.1883 190.829 73.2606C190.797 73.3329 190.831 73.418 190.903 73.4496C190.975 73.4812 191.06 73.4479 191.092 73.3756ZM193.36 72.4875C193.392 72.4152 193.358 72.3301 193.286 72.2985C193.214 72.2669 193.129 72.3002 193.097 72.3725C193.065 72.4449 193.099 72.5299 193.171 72.5615C193.243 72.5932 193.328 72.5599 193.36 72.4875ZM197.222 70.1033C197.254 70.031 197.339 69.9977 197.411 70.0293C197.484 70.0609 197.517 70.146 197.485 70.2183C197.454 70.2907 197.369 70.324 197.296 70.2923C197.224 70.2607 197.191 70.1757 197.222 70.1033ZM199.852 71.2534C199.884 71.181 199.851 71.096 199.778 71.0643C199.706 71.0327 199.621 71.066 199.589 71.1384C199.558 71.2107 199.591 71.2957 199.663 71.3274C199.736 71.359 199.821 71.3257 199.852 71.2534ZM203.567 68.4911C203.598 68.4188 203.683 68.3855 203.756 68.4171C203.828 68.4488 203.861 68.5338 203.83 68.6061C203.798 68.6785 203.713 68.7118 203.641 68.6802C203.568 68.6485 203.535 68.5635 203.567 68.4911Z" fill="#FFE04A"/>
<path fill-rule="evenodd" clip-rule="evenodd" d="M217.767 30.6298C215.313 31.7584 213.828 33.0371 213.51 34.2933C213.358 34.894 212.277 36.3504 211.108 37.5301C209.939 38.7093 209.018 39.8855 209.061 40.1436C209.189 40.9075 208.07 43.036 206.525 44.9702C205.732 45.9641 205.317 46.7769 205.605 46.7769C205.949 46.7769 205.886 47.0421 205.419 47.5544C205.03 47.982 204.711 48.4901 204.711 48.6831C204.711 48.8765 204.238 49.6501 203.661 50.4022C203.083 51.1542 202.378 52.7024 202.095 53.8429C201.811 54.9835 201.227 56.3694 200.796 56.9233C200.366 57.4768 200.119 58.0983 200.248 58.3049C200.783 59.1653 199.226 58.5948 198.37 57.617C197.858 57.0325 197.17 56.5543 196.841 56.5543C196.511 56.5543 196.136 56.2805 196.006 55.9463C195.877 55.6118 194.364 54.6379 192.643 53.7818C190.923 52.9256 189.361 51.9559 189.172 51.6264C188.984 51.2974 188.429 51.0279 187.939 51.0279C187.448 51.0279 186.447 50.6666 185.713 50.2249C184.837 49.6986 183.119 49.322 180.721 49.1315C176.669 48.8093 175.014 49.245 174.531 50.7609C174.119 52.0554 173.854 57.0737 174.158 57.8296C174.3 58.1803 174.46 59.0411 174.516 59.7425C174.571 60.444 174.936 62.1333 175.327 63.4971C175.718 64.8604 175.949 66.1187 175.841 66.2934C175.556 66.7508 177.601 73.9176 178.332 75.0263C178.672 75.5407 179.07 77.0829 179.217 78.4535C179.364 79.824 179.684 81.1843 179.927 81.4759C180.687 82.384 179.616 83.7609 178.15 83.7609C177.449 83.7609 176.541 83.9428 176.132 84.1656C175.106 84.7237 172.71 85.7079 170.768 86.3685C169.875 86.6724 168.775 87.262 168.325 87.6791C167.874 88.0961 167.033 88.437 166.455 88.437C165.819 88.437 164.988 88.9293 164.347 89.686C163.608 90.5578 162.531 91.1317 160.782 91.5853C159.403 91.9428 158.059 92.5286 157.795 92.887C157.532 93.2449 157.112 93.5382 156.864 93.5382C156.616 93.5382 155.963 93.9191 155.413 94.3846C154.863 94.8501 153.652 95.8168 152.721 96.5322C148.968 99.4187 149.128 104.786 153.011 106.245C154.391 106.764 160.399 107.47 166.292 107.806C169.059 107.965 171.322 108.247 171.322 108.435C171.322 108.732 169.419 111.223 168.738 111.818C168.604 111.935 168.049 112.757 167.505 113.646C166.961 114.535 166.075 115.549 165.535 115.9C164.996 116.252 164.435 117.012 164.289 117.589C164.067 118.468 162.395 121.008 160.615 123.171C160.382 123.454 160.192 123.797 160.192 123.933C160.192 124.07 159.996 124.413 159.756 124.695C157.253 127.639 157.193 127.76 157.394 129.432C157.533 130.587 157.965 131.412 158.787 132.094C159.868 132.991 160.255 133.058 162.975 132.819C164.623 132.675 166.26 132.305 166.613 131.998C166.966 131.69 167.833 131.298 168.54 131.127C169.246 130.956 171.269 130.081 173.034 129.182C174.8 128.284 176.566 127.548 176.959 127.547C177.352 127.547 178.219 127.277 178.885 126.948C180.959 125.925 182.15 125.528 184.806 124.978C186.219 124.685 187.801 124.187 188.323 123.871C189.61 123.09 189.839 123.147 189.316 124.118C189.072 124.57 188.859 125.766 188.841 126.774C188.824 127.784 188.448 129.183 188.007 129.885C184.783 135.003 183.562 137.617 183.542 139.445C183.522 141.304 183.564 141.367 184.92 141.496C186.34 141.632 190.313 139.737 191.443 138.384C191.735 138.035 192.146 137.749 192.358 137.749C192.569 137.749 193.653 137.063 194.767 136.225C195.881 135.388 199.007 133.078 201.715 131.092C204.422 129.107 207.112 127.115 207.693 126.664C208.274 126.214 208.996 125.846 209.299 125.846C209.601 125.846 209.848 125.678 209.848 125.472C209.848 125.267 210.418 124.865 211.115 124.578C212.223 124.122 212.575 124.174 213.898 124.986C214.731 125.497 215.413 126.055 215.413 126.225C215.413 126.395 216.37 127.575 217.541 128.847C221.126 132.744 221.373 133.048 222.277 134.68C224.55 138.786 227.707 142 229.467 142C231.372 142 232.819 140.618 233.13 138.501C233.276 137.503 233.497 132.286 233.62 126.909C233.892 115.052 234.128 110.094 234.438 109.787C234.566 109.66 235.009 109.838 235.422 110.184C236.751 111.294 245.053 115.081 248.675 116.23C252.665 117.496 255.697 117.675 256.517 116.694C257.158 115.927 256.821 110.618 255.937 107.567C255.131 104.784 253.298 100.968 251.679 98.702C250.903 97.6154 249.941 96.0094 249.542 95.1324C249.142 94.2558 248.62 93.5382 248.38 93.5382C248.141 93.5382 247.946 93.2781 247.946 92.9601C247.946 92.6417 247.503 91.7333 246.962 90.9409C245.194 88.352 245.216 88.2011 247.731 85.5646C249.013 84.2217 250.067 82.8971 250.073 82.6203C250.08 82.344 250.468 81.9971 250.935 81.85C251.402 81.7029 252.51 80.6895 253.396 79.5987C254.283 78.5074 255.731 76.901 256.614 76.0287C257.497 75.1559 258.222 74.2913 258.226 74.1068C258.229 73.9219 259.005 72.9101 259.948 71.858C265.318 65.873 263.513 62.3633 255.233 62.6872C252.557 62.7918 243.906 63.7393 241.311 64.2116C240.133 64.4263 237.918 64.7026 236.388 64.8263C233.684 65.0448 233.589 65.0185 233.032 63.8848C232.716 63.2433 232.37 61.5705 232.264 60.1676C232.063 57.5354 230.989 53.0999 229.742 49.7526C229.35 48.7005 228.984 46.915 228.93 45.7851C228.876 44.6552 228.604 43.5908 228.326 43.4199C228.022 43.2332 227.739 41.5299 227.615 39.1489C227.503 36.9706 227.204 34.9403 226.95 34.6376C226.697 34.3345 226.545 33.8333 226.613 33.5239C226.681 33.2144 226.362 32.3391 225.905 31.5794C225.137 30.3037 224.903 30.1979 222.846 30.1979C221.622 30.1979 220.363 30.118 220.049 30.0198C219.736 29.922 218.709 30.1966 217.767 30.6298Z" fill="#FD73C5"/>
</svg>
