<svg width="16392" height="4350" viewBox="0 0 16392 4350" fill="none" xmlns="http://www.w3.org/2000/svg">
<g clip-path="url(#clip0_815_39)">
<path d="M5228.35 3102.69H4599.85V1247.96H5241.03C5425.17 1247.96 5583.36 1285.09 5715.58 1359.35C5848.41 1433.01 5950.44 1538.97 6021.68 1677.23C6092.92 1815.49 6128.55 1980.92 6128.55 2173.51C6128.55 2366.71 6092.62 2532.75 6020.78 2671.61C5949.53 2810.47 5846.59 2917.03 5711.96 2991.3C5577.92 3065.56 5416.72 3102.69 5228.35 3102.69ZM4935.83 2811.98H5212.05C5341.25 2811.98 5449.02 2788.43 5535.36 2741.34C5621.7 2693.65 5686.6 2622.7 5730.07 2528.52C5773.54 2433.73 5795.28 2315.39 5795.28 2173.51C5795.28 2031.63 5773.54 1913.9 5730.07 1820.32C5686.6 1726.13 5622.3 1655.8 5537.17 1609.31C5452.65 1562.21 5347.59 1538.67 5222.01 1538.67H4935.83V2811.98ZM6433.29 3102.69V1711.64H6751.17V1943.48H6765.66C6791.01 1863.18 6834.48 1801.3 6896.07 1757.83C6958.25 1713.76 7029.19 1691.72 7108.89 1691.72C7127 1691.72 7147.23 1692.62 7169.57 1694.44C7192.51 1695.64 7211.53 1697.76 7226.62 1700.77V2002.35C7212.73 1997.52 7190.7 1993.29 7160.51 1989.67C7130.93 1985.44 7102.25 1983.33 7074.47 1983.33C7014.7 1983.33 6960.97 1996.31 6913.27 2022.27C6866.18 2047.63 6829.05 2082.95 6801.88 2128.23C6774.71 2173.51 6761.13 2225.74 6761.13 2284.91V3102.69H6433.29ZM7993.91 3129.86C7858.07 3129.86 7740.34 3099.97 7640.72 3040.2C7541.1 2980.43 7463.82 2896.81 7408.88 2789.34C7354.54 2681.87 7327.37 2556.29 7327.37 2412.6C7327.37 2268.91 7354.54 2143.02 7408.88 2034.95C7463.82 1926.88 7541.1 1842.96 7640.72 1783.19C7740.34 1723.42 7858.07 1693.53 7993.91 1693.53C8129.76 1693.53 8247.49 1723.42 8347.11 1783.19C8446.73 1842.96 8523.71 1926.88 8578.04 2034.95C8632.99 2143.02 8660.46 2268.91 8660.46 2412.6C8660.46 2556.29 8632.99 2681.87 8578.04 2789.34C8523.71 2896.81 8446.73 2980.43 8347.11 3040.2C8247.49 3099.97 8129.76 3129.86 7993.91 3129.86ZM7995.73 2867.22C8069.38 2867.22 8130.97 2847 8180.47 2806.55C8229.98 2765.49 8266.81 2710.55 8290.96 2641.72C8315.71 2572.89 8328.09 2496.22 8328.09 2411.69C8328.09 2326.56 8315.71 2249.59 8290.96 2180.76C8266.81 2111.33 8229.98 2056.08 8180.47 2015.03C8130.97 1973.97 8069.38 1953.45 7995.73 1953.45C7920.26 1953.45 7857.47 1973.97 7807.35 2015.03C7757.85 2056.08 7720.72 2111.33 7695.96 2180.76C7671.81 2249.59 7659.74 2326.56 7659.74 2411.69C7659.74 2496.22 7671.81 2572.89 7695.96 2641.72C7720.72 2710.55 7757.85 2765.49 7807.35 2806.55C7857.47 2847 7920.26 2867.22 7995.73 2867.22ZM8938.71 3624.33V1711.64H9261.11V1941.67H9280.13C9297.04 1907.86 9320.89 1871.94 9351.68 1833.9C9382.47 1795.26 9424.13 1762.36 9476.65 1735.19C9529.18 1707.42 9596.2 1693.53 9677.7 1693.53C9785.17 1693.53 9882.07 1721 9968.41 1775.94C10055.4 1830.28 10124.2 1910.88 10174.9 2017.74C10226.2 2124.01 10251.9 2254.42 10251.9 2408.98C10251.9 2561.73 10226.8 2691.53 10176.7 2798.4C10126.6 2905.26 10058.4 2986.77 9972.03 3042.92C9885.7 3099.06 9787.89 3127.14 9678.61 3127.14C9598.91 3127.14 9532.8 3113.86 9480.28 3087.29C9427.75 3060.73 9385.49 3028.73 9353.49 2991.3C9322.09 2953.26 9297.64 2917.34 9280.13 2883.53H9266.55V3624.33H8938.71ZM9260.21 2407.16C9260.21 2497.12 9272.89 2575.91 9298.25 2643.53C9324.21 2711.15 9361.34 2763.98 9409.64 2802.02C9458.54 2839.45 9517.71 2858.17 9587.14 2858.17C9659.59 2858.17 9720.27 2838.85 9769.17 2800.21C9818.08 2760.96 9854.91 2707.53 9879.66 2639.91C9905.02 2571.69 9917.7 2494.11 9917.7 2407.16C9917.7 2320.83 9905.32 2244.15 9880.56 2177.14C9855.81 2110.12 9818.98 2057.59 9770.08 2019.56C9721.17 1981.52 9660.19 1962.5 9587.14 1962.5C9517.11 1962.5 9457.64 1980.92 9408.73 2017.74C9359.83 2054.57 9322.7 2106.19 9297.34 2172.61C9272.59 2239.02 9260.21 2317.21 9260.21 2407.16ZM10547.1 3102.69V1247.96H10874.9V1941.67H10888.5C10905.4 1907.86 10929.3 1871.94 10960.1 1833.9C10990.9 1795.26 11032.5 1762.36 11085 1735.19C11137.6 1707.42 11204.6 1693.53 11286.1 1693.53C11393.6 1693.53 11490.5 1721 11576.8 1775.94C11663.7 1830.28 11732.6 1910.88 11783.3 2017.74C11834.6 2124.01 11860.3 2254.42 11860.3 2408.98C11860.3 2561.73 11835.2 2691.53 11785.1 2798.4C11735 2905.26 11666.8 2986.77 11580.4 3042.92C11494.1 3099.06 11396.3 3127.14 11287 3127.14C11207.3 3127.14 11141.2 3113.86 11088.7 3087.29C11036.1 3060.73 10993.9 3028.73 10961.9 2991.3C10930.5 2953.26 10906 2917.34 10888.5 2883.53H10869.5V3102.69H10547.1ZM10868.6 2407.16C10868.6 2497.12 10881.3 2575.91 10906.6 2643.53C10932.6 2711.15 10969.7 2763.98 11018 2802.02C11066.9 2839.45 11126.1 2858.17 11195.5 2858.17C11268 2858.17 11328.7 2838.85 11377.6 2800.21C11426.5 2760.96 11463.3 2707.53 11488.1 2639.91C11513.4 2571.69 11526.1 2494.11 11526.1 2407.16C11526.1 2320.83 11513.7 2244.15 11489 2177.14C11464.2 2110.12 11427.4 2057.59 11378.5 2019.56C11329.6 1981.52 11268.6 1962.5 11195.5 1962.5C11125.5 1962.5 11066 1980.92 11017.1 2017.74C10968.2 2054.57 10931.1 2106.19 10905.7 2172.61C10881 2239.02 10868.6 2317.21 10868.6 2407.16ZM12539.3 3130.76C12451.1 3130.76 12371.7 3115.06 12301.1 3083.67C12231 3051.67 12175.5 3004.58 12134.4 2942.39C12094 2880.2 12073.8 2803.53 12073.8 2712.36C12073.8 2633.87 12088.3 2568.97 12117.2 2517.65C12146.2 2466.33 12185.8 2425.28 12235.9 2394.49C12286 2363.69 12342.4 2340.45 12405.2 2324.75C12468.6 2308.45 12534.1 2296.68 12601.8 2289.43C12683.3 2280.98 12749.4 2273.43 12800.1 2266.79C12850.8 2259.55 12887.6 2248.68 12910.6 2234.19C12934.1 2219.1 12945.9 2195.85 12945.9 2164.46V2159.02C12945.9 2090.8 12925.7 2037.97 12885.2 2000.54C12844.8 1963.11 12786.5 1944.39 12710.4 1944.39C12630.1 1944.39 12566.4 1961.9 12519.3 1996.92C12472.8 2031.93 12441.5 2073.29 12425.2 2120.99L12119.1 2077.52C12143.2 1992.99 12183 1922.35 12238.6 1865.6C12294.1 1808.24 12362.1 1765.38 12442.4 1737C12522.7 1708.02 12611.4 1693.53 12708.6 1693.53C12775.6 1693.53 12842.3 1701.38 12908.8 1717.08C12975.2 1732.77 13035.8 1758.74 13090.8 1794.96C13145.7 1830.58 13189.8 1879.18 13223 1940.77C13256.8 2002.35 13273.7 2079.33 13273.7 2171.7V3102.69H12958.6V2911.6H12947.7C12927.8 2950.24 12899.7 2986.47 12863.5 3020.28C12827.9 3053.48 12782.9 3080.35 12728.5 3100.88C12674.8 3120.8 12611.7 3130.76 12539.3 3130.76ZM12624.4 2889.86C12690.2 2889.86 12747.3 2876.88 12795.6 2850.92C12843.9 2824.36 12881 2789.34 12906.9 2745.87C12933.5 2702.4 12946.8 2655.01 12946.8 2603.69V2439.77C12936.5 2448.22 12919 2456.07 12894.3 2463.31C12870.1 2470.56 12842.9 2476.9 12812.8 2482.33C12782.6 2487.77 12752.7 2492.6 12723.1 2496.82C12693.5 2501.05 12667.9 2504.67 12646.1 2507.69C12597.2 2514.33 12553.5 2525.2 12514.8 2540.29C12476.2 2555.39 12445.7 2576.52 12423.3 2603.69C12401 2630.25 12389.8 2664.67 12389.8 2706.93C12389.8 2767.3 12411.9 2812.89 12455.9 2843.68C12500 2874.47 12556.2 2889.86 12624.4 2889.86ZM14702.8 2079.33L14404 2111.93C14395.5 2081.74 14380.7 2053.37 14359.6 2026.8C14339 2000.24 14311.3 1978.8 14276.3 1962.5C14241.2 1946.2 14198.4 1938.05 14147.7 1938.05C14079.4 1938.05 14022.1 1952.84 13975.6 1982.43C13929.7 2012.01 13907.1 2050.35 13907.7 2097.44C13907.1 2137.89 13921.9 2170.8 13952 2196.15C13982.8 2221.51 14033.6 2242.34 14104.2 2258.64L14341.5 2309.36C14473.1 2337.73 14570.9 2382.71 14634.9 2444.3C14699.5 2505.88 14732.1 2586.48 14732.7 2686.1C14732.1 2773.64 14706.4 2850.92 14655.7 2917.94C14605.6 2984.35 14535.9 3036.27 14446.5 3073.71C14357.2 3111.14 14254.5 3129.86 14138.6 3129.86C13968.3 3129.86 13831.3 3094.23 13727.4 3022.99C13623.6 2951.15 13561.7 2851.22 13541.8 2723.23L13861.5 2692.44C13876 2755.23 13906.8 2802.62 13953.9 2834.62C14000.9 2866.62 14062.2 2882.62 14137.7 2882.62C14215.6 2882.62 14278.1 2866.62 14325.2 2834.62C14372.9 2802.62 14396.7 2763.08 14396.7 2715.98C14396.7 2676.14 14381.3 2643.23 14350.5 2617.27C14320.3 2591.31 14273.2 2571.39 14209.2 2557.5L13972 2507.69C13838.5 2479.92 13739.8 2433.13 13675.8 2367.32C13611.8 2300.9 13580.1 2216.98 13580.7 2115.55C13580.1 2029.82 13603.4 1955.56 13650.5 1892.77C13698.2 1829.37 13764.3 1780.47 13848.8 1746.06C13933.9 1711.04 14032 1693.53 14143.1 1693.53C14306.1 1693.53 14434.4 1728.25 14528 1797.68C14622.2 1867.11 14680.5 1960.99 14702.8 2079.33ZM15618.9 3129.86C15479.4 3129.86 15358.9 3100.88 15257.5 3042.92C15156.7 2984.35 15079.1 2901.64 15024.8 2794.77C14970.4 2687.31 14943.3 2560.82 14943.3 2415.32C14943.3 2272.23 14970.4 2146.65 15024.8 2038.57C15079.7 1929.9 15156.4 1845.37 15254.8 1785C15353.2 1724.02 15468.8 1693.53 15601.6 1693.53C15687.4 1693.53 15768.3 1707.42 15844.4 1735.19C15921 1762.36 15988.7 1804.62 16047.2 1861.98C16106.4 1919.33 16152.9 1992.39 16186.7 2081.14C16220.5 2169.29 16237.4 2274.34 16237.4 2396.3V2496.82H15097.2V2275.85H15923.1C15922.5 2213.06 15909 2157.21 15882.4 2108.31C15855.8 2058.8 15818.7 2019.86 15771 1991.48C15723.9 1963.11 15669 1948.92 15606.2 1948.92C15539.2 1948.92 15480.3 1965.22 15429.6 1997.82C15378.9 2029.82 15339.3 2072.08 15310.9 2124.61C15283.2 2176.53 15269 2233.59 15268.4 2295.77V2488.67C15268.4 2569.57 15283.2 2639.01 15312.7 2696.97C15342.3 2754.32 15383.7 2798.4 15436.8 2829.19C15490 2859.38 15552.1 2874.47 15623.4 2874.47C15671.1 2874.47 15714.2 2867.83 15752.9 2854.55C15791.5 2840.66 15825 2820.43 15853.4 2793.87C15881.8 2767.3 15903.2 2734.4 15917.7 2695.15L16223.8 2729.57C16204.5 2810.47 16167.7 2881.11 16113.3 2941.49C16059.6 3001.26 15990.8 3047.75 15906.8 3080.95C15822.9 3113.56 15726.9 3129.86 15618.9 3129.86Z" fill="#161616"/>
<g filter="url(#filter0_d_815_39)">
<rect x="924.441" y="823.426" width="2702.92" height="2702.92" rx="187.964" fill="white"/>
</g>
<rect x="1181.95" y="1080.94" width="2187.9" height="2187.9" rx="152.149" fill="#161616"/>
<path d="M2168.59 2863.13L1808.63 2863.13C1689.87 2863.13 1593.6 2766.86 1593.6 2648.1L1593.6 1701.97C1593.6 1583.21 1689.87 1486.94 1808.63 1486.94L2168.59 1486.94L2168.59 2863.13Z" fill="white"/>
<path d="M2384.16 1556.43C2384.16 1526.74 2408.23 1502.67 2437.92 1502.67L2797.88 1502.67C2886.95 1502.67 2959.15 1574.88 2959.15 1663.94L2959.15 2067.13C2959.15 2096.82 2935.08 2120.88 2905.4 2120.88L2545.44 2120.88C2456.37 2120.88 2384.16 2048.68 2384.16 1959.61L2384.16 1556.43Z" fill="white"/>
<path d="M2384.16 2298.28C2384.16 2268.59 2408.23 2244.52 2437.92 2244.52L2797.88 2244.52C2886.95 2244.52 2959.15 2316.73 2959.15 2405.8L2959.15 2808.98C2959.15 2838.67 2935.08 2862.74 2905.4 2862.74L2545.44 2862.74C2456.37 2862.74 2384.16 2790.53 2384.16 2701.46L2384.16 2298.28Z" fill="white"/>
</g>
<defs>
<filter id="filter0_d_815_39" x="837.978" y="736.962" width="2890.88" height="2890.88" filterUnits="userSpaceOnUse" color-interpolation-filters="sRGB">
<feFlood flood-opacity="0" result="BackgroundImageFix"/>
<feColorMatrix in="SourceAlpha" type="matrix" values="0 0 0 0 0 0 0 0 0 0 0 0 0 0 0 0 0 0 127 0" result="hardAlpha"/>
<feOffset dx="7.51855" dy="7.51855"/>
<feGaussianBlur stdDeviation="46.991"/>
<feColorMatrix type="matrix" values="0 0 0 0 0 0 0 0 0 0 0 0 0 0 0 0 0 0 0.5 0"/>
<feBlend mode="normal" in2="BackgroundImageFix" result="effect1_dropShadow_815_39"/>
<feBlend mode="normal" in="SourceGraphic" in2="effect1_dropShadow_815_39" result="shape"/>
</filter>
<clipPath id="clip0_815_39">
<rect width="16392" height="4349.77" fill="white"/>
</clipPath>
</defs>
</svg>
