<svg width="259" height="82" viewBox="0 0 259 82" fill="none" xmlns="http://www.w3.org/2000/svg">
<path d="M108.965 32.3594V9.68359C108.965 9.24089 109.121 8.85677 109.434 8.53125C109.759 8.20573 110.15 8.04297 110.605 8.04297C111.048 8.04297 111.432 8.20573 111.758 8.53125C112.083 8.85677 112.246 9.24089 112.246 9.68359V19.3516H122.246V9.68359C122.246 9.24089 122.402 8.85677 122.715 8.53125C123.04 8.20573 123.431 8.04297 123.887 8.04297C124.342 8.04297 124.727 8.20573 125.039 8.53125C125.365 8.85677 125.527 9.25391 125.527 9.72266V32.3594C125.527 32.8021 125.358 33.1862 125.02 33.5117C124.694 33.8372 124.316 34 123.887 34C123.418 34 123.027 33.8438 122.715 33.5312C122.402 33.2057 122.246 32.8151 122.246 32.3594V22.6328H112.285V32.3594C112.285 32.8021 112.116 33.1862 111.777 33.5117C111.452 33.8372 111.061 34 110.605 34C110.163 34 109.779 33.8438 109.453 33.5312C109.128 33.2057 108.965 32.8151 108.965 32.3594ZM147.184 21.5586V32.3594C147.184 32.8151 147.021 33.2057 146.695 33.5312C146.37 33.8438 145.986 34 145.543 34C145.074 34 144.677 33.8438 144.352 33.5312C144.026 33.2057 143.863 32.8151 143.863 32.3594V21.5586L137.262 13.1992V9.72266C137.262 9.25391 137.418 8.85677 137.73 8.53125C138.056 8.20573 138.447 8.04297 138.902 8.04297C139.358 8.04297 139.749 8.21224 140.074 8.55078C140.413 8.8763 140.582 9.26693 140.582 9.72266V11.9688L145.504 18.3164L150.504 12.0078V9.72266C150.504 9.26693 150.667 8.8763 150.992 8.55078C151.318 8.21224 151.702 8.04297 152.145 8.04297C152.574 8.04297 152.952 8.19922 153.277 8.51172C153.616 8.8112 153.785 9.21484 153.785 9.72266V13.1602L147.184 21.5586ZM165.402 32.3594V8.04297H177.043C178.384 8.04297 179.536 8.53125 180.5 9.50781C181.477 10.4844 181.965 11.6497 181.965 13.0039V19.1562C181.965 20.5104 181.483 21.6693 180.52 22.6328C179.556 23.5964 178.397 24.0781 177.043 24.0781H168.723V32.3594C168.723 32.8151 168.56 33.2057 168.234 33.5312C167.922 33.8438 167.538 34 167.082 34C166.613 34 166.216 33.8438 165.891 33.5312C165.565 33.2057 165.402 32.8151 165.402 32.3594ZM168.723 20.7969H177.043C177.486 20.7969 177.87 20.6406 178.195 20.3281C178.521 20.0026 178.684 19.612 178.684 19.1562V13.0039C178.684 12.5482 178.521 12.1641 178.195 11.8516C177.87 11.526 177.486 11.3633 177.043 11.3633H168.723V20.7969ZM109.043 73V48.6836C109.043 48.2409 109.206 47.8568 109.531 47.5312C109.857 47.2057 110.241 47.043 110.684 47.043C111.126 47.043 111.51 47.2057 111.836 47.5312C112.161 47.8568 112.324 48.2409 112.324 48.6836V69.7188H123.926C124.382 69.7188 124.772 69.8815 125.098 70.207C125.436 70.5195 125.605 70.9036 125.605 71.3594C125.605 71.8151 125.436 72.2057 125.098 72.5312C124.772 72.8438 124.382 73 123.926 73H109.043ZM137.32 70.7148L143.961 48.2734C144.221 47.4531 144.768 47.043 145.602 47.043C146.409 47.043 146.917 47.388 147.125 48.0781L153.668 70.8711C153.72 71.0404 153.746 71.2031 153.746 71.3594C153.746 71.8151 153.59 72.2057 153.277 72.5312C152.965 72.8438 152.607 73 152.203 73C151.344 73 150.797 72.6029 150.562 71.8086L149.234 67.3555H141.754L140.309 72.1211C140.27 72.3294 140.107 72.5312 139.82 72.7266C139.534 72.9089 139.221 73 138.883 73C138.401 73 138.004 72.8372 137.691 72.5117C137.379 72.1862 137.223 71.7891 137.223 71.3203C137.223 71.125 137.255 70.9232 137.32 70.7148ZM145.562 54.6406L142.75 64.0352H148.277L145.562 54.6406ZM181.926 64.9531V66.3984C181.926 68.2083 181.281 69.7643 179.992 71.0664C178.716 72.3555 177.173 73 175.363 73H165.324V47.043H175.363C177.173 47.043 178.716 47.6875 179.992 48.9766C181.281 50.2656 181.926 51.8216 181.926 53.6445V55.0312C181.926 56.9714 181.177 58.625 179.68 59.9922C181.177 61.3854 181.926 63.0391 181.926 64.9531ZM178.566 54.9922V53.6445C178.566 52.7331 178.241 51.9518 177.59 51.3008C176.952 50.6497 176.184 50.3242 175.285 50.3242H168.605V58.2734H175.285C176.171 58.2734 176.939 57.9544 177.59 57.3164C178.241 56.6654 178.566 55.8906 178.566 54.9922ZM178.566 66.3984V65.0312C178.566 64.1198 178.241 63.3385 177.59 62.6875C176.952 62.0365 176.184 61.7109 175.285 61.7109H168.645V69.6797H175.285C176.171 69.6797 176.939 69.3607 177.59 68.7227C178.241 68.0716 178.566 67.2969 178.566 66.3984ZM197.293 47.043H205.828C206.87 47.043 207.853 47.4857 208.777 48.3711C209.715 49.2435 210.184 50.3047 210.184 51.5547C210.184 52.0234 210.014 52.4206 209.676 52.7461C209.35 53.0716 208.986 53.2344 208.582 53.2344C208.022 53.2344 207.638 53.1107 207.43 52.8633C207.221 52.6029 207.02 52.1276 206.824 51.4375C206.642 50.7474 206.225 50.4023 205.574 50.4023H197.469C197.078 50.4023 196.883 50.526 196.883 50.7734C196.883 50.9297 196.967 51.112 197.137 51.3203L209.305 66.8867C209.891 67.6419 210.184 68.4492 210.184 69.3086C210.184 70.2852 209.826 71.1445 209.109 71.8867C208.406 72.6289 207.618 73 206.746 73H197.898C196.727 73 195.704 72.5573 194.832 71.6719C193.973 70.7734 193.543 69.7904 193.543 68.7227C193.543 67.4987 194.116 66.8867 195.262 66.8867C195.704 66.8867 196.082 67.0495 196.395 67.375C196.707 67.6875 196.863 68.0586 196.863 68.4883C196.863 68.8398 196.98 69.1328 197.215 69.3672C197.462 69.6016 197.768 69.7188 198.133 69.7188H206.297C206.648 69.7188 206.824 69.582 206.824 69.3086C206.824 69.1784 206.74 69.0091 206.57 68.8008L194.422 53.2344C193.849 52.4922 193.562 51.6849 193.562 50.8125C193.562 49.7969 193.927 48.918 194.656 48.1758C195.385 47.4206 196.264 47.043 197.293 47.043Z" fill="#3D3D3D"/>
<path d="M109.434 8.53125L109.08 8.17762L109.073 8.18498L109.434 8.53125ZM112.246 19.3516H111.746V19.8516H112.246V19.3516ZM122.246 19.3516V19.8516H122.746V19.3516H122.246ZM122.715 8.53125L122.361 8.17762L122.354 8.18498L122.715 8.53125ZM125.039 8.53125L124.678 8.87759L124.686 8.8848L125.039 8.53125ZM125.02 33.5117L124.673 33.1512L124.666 33.1582L125.02 33.5117ZM122.715 33.5312L122.354 33.8776L122.361 33.8848L122.715 33.5312ZM122.246 22.6328H122.746V22.1328H122.246V22.6328ZM112.285 22.6328V22.1328H111.785V22.6328H112.285ZM111.777 33.5117L111.431 33.1512L111.424 33.1582L111.777 33.5117ZM109.453 33.5312L109.099 33.8849L109.107 33.8919L109.453 33.5312ZM109.465 32.3594V9.68359H108.465V32.3594H109.465ZM109.465 9.68359C109.465 9.37271 109.569 9.11192 109.794 8.87752L109.073 8.18498C108.673 8.60162 108.465 9.10906 108.465 9.68359H109.465ZM109.787 8.8848C110.02 8.65198 110.284 8.54297 110.605 8.54297V7.54297C110.016 7.54297 109.498 7.75948 109.08 8.1777L109.787 8.8848ZM110.605 8.54297C110.91 8.54297 111.168 8.64888 111.404 8.8848L112.111 8.1777C111.696 7.76258 111.187 7.54297 110.605 7.54297V8.54297ZM111.404 8.8848C111.64 9.12073 111.746 9.37928 111.746 9.68359H112.746C112.746 9.10249 112.526 8.59282 112.111 8.1777L111.404 8.8848ZM111.746 9.68359V19.3516H112.746V9.68359H111.746ZM112.246 19.8516H122.246V18.8516H112.246V19.8516ZM122.746 19.3516V9.68359H121.746V19.3516H122.746ZM122.746 9.68359C122.746 9.37271 122.851 9.11192 123.076 8.87752L122.354 8.18498C121.954 8.60162 121.746 9.10906 121.746 9.68359H122.746ZM123.068 8.8848C123.301 8.65198 123.565 8.54297 123.887 8.54297V7.54297C123.297 7.54297 122.78 7.75948 122.361 8.1777L123.068 8.8848ZM123.887 8.54297C124.208 8.54297 124.461 8.65131 124.678 8.87752L125.4 8.18498C124.992 7.76015 124.477 7.54297 123.887 7.54297V8.54297ZM124.686 8.8848C124.915 9.11466 125.027 9.3838 125.027 9.72266H126.027C126.027 9.12401 125.814 8.59889 125.393 8.1777L124.686 8.8848ZM125.027 9.72266V32.3594H126.027V9.72266H125.027ZM125.027 32.3594C125.027 32.6571 124.92 32.9136 124.673 33.1513L125.366 33.8721C125.796 33.4588 126.027 32.9471 126.027 32.3594H125.027ZM124.666 33.1582C124.427 33.3973 124.174 33.5 123.887 33.5V34.5C124.459 34.5 124.961 34.2772 125.373 33.8653L124.666 33.1582ZM123.887 33.5C123.542 33.5 123.281 33.3903 123.068 33.1777L122.361 33.8848C122.774 34.2972 123.294 34.5 123.887 34.5V33.5ZM123.076 33.185C122.853 32.9536 122.746 32.6875 122.746 32.3594H121.746C121.746 32.9427 121.951 33.4579 122.354 33.8775L123.076 33.185ZM122.746 32.3594V22.6328H121.746V32.3594H122.746ZM122.246 22.1328H112.285V23.1328H122.246V22.1328ZM111.785 22.6328V32.3594H112.785V22.6328H111.785ZM111.785 32.3594C111.785 32.6571 111.678 32.9136 111.431 33.1513L112.124 33.8721C112.554 33.4588 112.785 32.9471 112.785 32.3594H111.785ZM111.424 33.1582C111.191 33.391 110.927 33.5 110.605 33.5V34.5C111.195 34.5 111.713 34.2835 112.131 33.8653L111.424 33.1582ZM110.605 33.5C110.295 33.5 110.034 33.3956 109.799 33.1706L109.107 33.8919C109.523 34.2919 110.031 34.5 110.605 34.5V33.5ZM109.807 33.1777C109.574 32.9449 109.465 32.681 109.465 32.3594H108.465C108.465 32.9492 108.681 33.4666 109.1 33.8848L109.807 33.1777ZM147.184 21.5586L146.79 21.2496L146.684 21.3856V21.5586H147.184ZM146.695 33.5312L147.042 33.892L147.049 33.8848L146.695 33.5312ZM144.352 33.5312L143.998 33.8849L144.005 33.8919L144.352 33.5312ZM143.863 21.5586H144.363V21.385L144.256 21.2487L143.863 21.5586ZM137.262 13.1992H136.762V13.3728L136.869 13.5091L137.262 13.1992ZM137.73 8.53125L137.377 8.17762L137.37 8.18498L137.73 8.53125ZM140.074 8.55078L139.714 8.89734L139.721 8.9044L139.728 8.9112L140.074 8.55078ZM140.582 11.9688H140.082V12.1399L140.187 12.2751L140.582 11.9688ZM145.504 18.3164L145.109 18.6228L145.5 19.1268L145.896 18.627L145.504 18.3164ZM150.504 12.0078L150.896 12.3184L151.004 12.1819V12.0078H150.504ZM150.992 8.55078L151.346 8.9044L151.353 8.89734L150.992 8.55078ZM153.277 8.51172L152.931 8.87241L152.938 8.87947L152.946 8.88622L153.277 8.51172ZM153.785 13.1602L154.178 13.4691L154.285 13.3331V13.1602H153.785ZM146.684 21.5586V32.3594H147.684V21.5586H146.684ZM146.684 32.3594C146.684 32.681 146.575 32.9449 146.342 33.1777L147.049 33.8848C147.467 33.4666 147.684 32.9492 147.684 32.3594H146.684ZM146.349 33.1706C146.115 33.3956 145.854 33.5 145.543 33.5V34.5C146.118 34.5 146.625 34.2919 147.042 33.8919L146.349 33.1706ZM145.543 33.5C145.198 33.5 144.926 33.3899 144.698 33.1706L144.005 33.8919C144.428 34.2976 144.951 34.5 145.543 34.5V33.5ZM144.705 33.1777C144.472 32.9449 144.363 32.681 144.363 32.3594H143.363C143.363 32.9492 143.58 33.4666 143.998 33.8848L144.705 33.1777ZM144.363 32.3594V21.5586H143.363V32.3594H144.363ZM144.256 21.2487L137.654 12.8893L136.869 13.5091L143.471 21.8685L144.256 21.2487ZM137.762 13.1992V9.72266H136.762V13.1992H137.762ZM137.762 9.72266C137.762 9.37743 137.872 9.10599 138.091 8.87752L137.37 8.18498C136.964 8.60755 136.762 9.13038 136.762 9.72266H137.762ZM138.084 8.8848C138.317 8.65198 138.581 8.54297 138.902 8.54297V7.54297C138.312 7.54297 137.795 7.75948 137.377 8.1777L138.084 8.8848ZM138.902 8.54297C139.217 8.54297 139.479 8.65346 139.714 8.89734L140.435 8.20423C140.018 7.77102 139.499 7.54297 138.902 7.54297V8.54297ZM139.728 8.9112C139.972 9.14569 140.082 9.40754 140.082 9.72266H141.082C141.082 9.12631 140.854 8.60691 140.421 8.19036L139.728 8.9112ZM140.082 9.72266V11.9688H141.082V9.72266H140.082ZM140.187 12.2751L145.109 18.6228L145.899 18.01L140.977 11.6624L140.187 12.2751ZM145.896 18.627L150.896 12.3184L150.112 11.6972L145.112 18.0058L145.896 18.627ZM151.004 12.0078V9.72266H150.004V12.0078H151.004ZM151.004 9.72266C151.004 9.40104 151.113 9.13716 151.346 8.90433L150.639 8.19723C150.22 8.61545 150.004 9.13281 150.004 9.72266H151.004ZM151.353 8.89734C151.59 8.65017 151.847 8.54297 152.145 8.54297V7.54297C151.557 7.54297 151.045 7.77431 150.632 8.20423L151.353 8.89734ZM152.145 8.54297C152.438 8.54297 152.694 8.64434 152.931 8.87241L153.624 8.15103C153.21 7.75409 152.71 7.54297 152.145 7.54297V8.54297ZM152.946 8.88622C153.163 9.07847 153.285 9.33837 153.285 9.72266H154.285C154.285 9.09132 154.068 8.54392 153.609 8.13722L152.946 8.88622ZM153.285 9.72266V13.1602H154.285V9.72266H153.285ZM153.392 12.8512L146.79 21.2496L147.577 21.8676L154.178 13.4691L153.392 12.8512ZM165.402 8.04297V7.54297H164.902V8.04297H165.402ZM180.5 9.50781L180.144 9.85899L180.146 9.86137L180.5 9.50781ZM180.52 22.6328L180.873 22.9864L180.52 22.6328ZM168.723 24.0781V23.5781H168.223V24.0781H168.723ZM168.234 33.5312L167.881 33.1777L168.234 33.5312ZM165.891 33.5312L165.537 33.8849L165.544 33.8919L165.891 33.5312ZM168.723 20.7969H168.223V21.2969H168.723V20.7969ZM178.195 20.3281L178.542 20.6889L178.549 20.6817L178.195 20.3281ZM178.195 11.8516L177.842 12.2052L177.849 12.2123L178.195 11.8516ZM168.723 11.3633V10.8633H168.223V11.3633H168.723ZM165.902 32.3594V8.04297H164.902V32.3594H165.902ZM165.402 8.54297H177.043V7.54297H165.402V8.54297ZM177.043 8.54297C178.247 8.54297 179.272 8.97519 180.144 9.85898L180.856 9.15664C179.801 8.08731 178.521 7.54297 177.043 7.54297V8.54297ZM180.146 9.86137C181.031 10.7462 181.465 11.7853 181.465 13.0039H182.465C182.465 11.5142 181.922 10.2225 180.854 9.15426L180.146 9.86137ZM181.465 13.0039V19.1562H182.465V13.0039H181.465ZM181.465 19.1562C181.465 20.3769 181.036 21.4088 180.166 22.2793L180.873 22.9864C181.93 21.9297 182.465 20.644 182.465 19.1562H181.465ZM180.166 22.2793C179.296 23.1497 178.264 23.5781 177.043 23.5781V24.5781C178.531 24.5781 179.816 24.043 180.873 22.9864L180.166 22.2793ZM177.043 23.5781H168.723V24.5781H177.043V23.5781ZM168.223 24.0781V32.3594H169.223V24.0781H168.223ZM168.223 32.3594C168.223 32.681 168.114 32.9449 167.881 33.1777L168.588 33.8848C169.006 33.4666 169.223 32.9492 169.223 32.3594H168.223ZM167.881 33.1777C167.665 33.3932 167.41 33.5 167.082 33.5V34.5C167.666 34.5 168.178 34.2943 168.588 33.8848L167.881 33.1777ZM167.082 33.5C166.737 33.5 166.465 33.3899 166.237 33.1706L165.544 33.8919C165.967 34.2976 166.49 34.5 167.082 34.5V33.5ZM166.244 33.1777C166.011 32.9449 165.902 32.681 165.902 32.3594H164.902C164.902 32.9492 165.119 33.4666 165.537 33.8848L166.244 33.1777ZM168.723 21.2969H177.043V20.2969H168.723V21.2969ZM177.043 21.2969C177.618 21.2969 178.125 21.0888 178.542 20.6888L177.849 19.9674C177.615 20.1925 177.354 20.2969 177.043 20.2969V21.2969ZM178.549 20.6817C178.967 20.2635 179.184 19.7461 179.184 19.1562H178.184C178.184 19.4779 178.075 19.7417 177.842 19.9746L178.549 20.6817ZM179.184 19.1562V13.0039H178.184V19.1562H179.184ZM179.184 13.0039C179.184 12.4136 178.966 11.8987 178.542 11.4909L177.849 12.2123C178.075 12.4294 178.184 12.6828 178.184 13.0039H179.184ZM178.549 11.498C178.134 11.0829 177.624 10.8633 177.043 10.8633V11.8633C177.347 11.8633 177.606 11.9692 177.842 12.2051L178.549 11.498ZM177.043 10.8633H168.723V11.8633H177.043V10.8633ZM168.223 11.3633V20.7969H169.223V11.3633H168.223ZM109.043 73H108.543V73.5H109.043V73ZM112.324 69.7188H111.824V70.2188H112.324V69.7188ZM125.098 70.207L124.744 70.5606L124.751 70.5676L124.759 70.5744L125.098 70.207ZM125.098 72.5312L125.444 72.8919L125.444 72.8917L125.098 72.5312ZM109.543 73V48.6836H108.543V73H109.543ZM109.543 48.6836C109.543 48.3793 109.649 48.1207 109.885 47.8848L109.178 47.1777C108.763 47.5928 108.543 48.1025 108.543 48.6836H109.543ZM109.885 47.8848C110.121 47.6489 110.379 47.543 110.684 47.543V46.543C110.102 46.543 109.593 46.7626 109.178 47.1777L109.885 47.8848ZM110.684 47.543C110.988 47.543 111.246 47.6489 111.482 47.8848L112.189 47.1777C111.774 46.7626 111.265 46.543 110.684 46.543V47.543ZM111.482 47.8848C111.718 48.1207 111.824 48.3793 111.824 48.6836H112.824C112.824 48.1025 112.605 47.5928 112.189 47.1777L111.482 47.8848ZM111.824 48.6836V69.7188H112.824V48.6836H111.824ZM112.324 70.2188H123.926V69.2188H112.324V70.2188ZM123.926 70.2188C124.247 70.2188 124.511 70.3278 124.744 70.5606L125.451 69.8535C125.033 69.4353 124.516 69.2188 123.926 69.2188V70.2188ZM124.759 70.5744C124.996 70.7935 125.105 71.0449 125.105 71.3594H126.105C126.105 70.7624 125.877 70.2456 125.437 69.8396L124.759 70.5744ZM125.105 71.3594C125.105 71.6745 124.995 71.9363 124.751 72.1708L125.444 72.8917C125.877 72.4751 126.105 71.9557 126.105 71.3594H125.105ZM124.751 72.1706C124.52 72.3927 124.254 72.5 123.926 72.5V73.5C124.509 73.5 125.024 73.2948 125.444 72.8919L124.751 72.1706ZM123.926 72.5H109.043V73.5H123.926V72.5ZM137.32 70.7148L137.798 70.864L137.8 70.8567L137.32 70.7148ZM143.961 48.2734L143.484 48.1221L143.481 48.1316L143.961 48.2734ZM147.125 48.0781L147.606 47.9402L147.604 47.9336L147.125 48.0781ZM153.668 70.8711L153.187 71.0091L153.19 71.0181L153.668 70.8711ZM153.277 72.5312L153.631 72.8849L153.638 72.8775L153.277 72.5312ZM150.562 71.8086L151.042 71.6671L151.042 71.6657L150.562 71.8086ZM149.234 67.3555L149.714 67.2126L149.607 66.8555H149.234V67.3555ZM141.754 67.3555V66.8555H141.383L141.275 67.2104L141.754 67.3555ZM140.309 72.1211L139.83 71.976L139.822 72.0021L139.817 72.0289L140.309 72.1211ZM139.82 72.7266L140.089 73.1484L140.095 73.1441L140.102 73.1397L139.82 72.7266ZM145.562 54.6406L146.043 54.5018L145.571 52.8689L145.084 54.4972L145.562 54.6406ZM142.75 64.0352L142.271 63.8918L142.078 64.5352H142.75V64.0352ZM148.277 64.0352V64.5352H148.942L148.758 63.8963L148.277 64.0352ZM137.8 70.8567L144.44 48.4153L143.481 48.1316L136.841 70.573L137.8 70.8567ZM144.438 48.4247C144.544 48.088 144.696 47.8786 144.866 47.7506C145.036 47.6236 145.269 47.543 145.602 47.543V46.543C145.101 46.543 144.644 46.6674 144.266 46.9506C143.89 47.2327 143.638 47.6386 143.484 48.1221L144.438 48.4247ZM145.602 47.543C145.936 47.543 146.158 47.6144 146.307 47.7153C146.45 47.8126 146.569 47.9673 146.646 48.2226L147.604 47.9336C147.472 47.4989 147.233 47.1359 146.869 46.8882C146.51 46.6441 146.074 46.543 145.602 46.543V47.543ZM146.644 48.2161L153.187 71.0091L154.149 70.7331L147.606 47.9402L146.644 48.2161ZM153.19 71.0181C153.229 71.146 153.246 71.2591 153.246 71.3594H154.246C154.246 71.1471 154.211 70.9347 154.146 70.7241L153.19 71.0181ZM153.246 71.3594C153.246 71.6875 153.139 71.9536 152.917 72.185L153.638 72.8775C154.041 72.4579 154.246 71.9427 154.246 71.3594H153.246ZM152.924 72.1777C152.695 72.4062 152.461 72.5 152.203 72.5V73.5C152.753 73.5 153.234 73.2813 153.631 72.8848L152.924 72.1777ZM152.203 72.5C151.85 72.5 151.61 72.4191 151.442 72.2976C151.277 72.1773 151.135 71.9829 151.042 71.6671L150.083 71.9501C150.224 72.4286 150.473 72.8298 150.855 73.1067C151.234 73.3823 151.697 73.5 152.203 73.5V72.5ZM151.042 71.6657L149.714 67.2126L148.755 67.4984L150.083 71.9515L151.042 71.6657ZM149.234 66.8555H141.754V67.8555H149.234V66.8555ZM141.275 67.2104L139.83 71.976L140.787 72.2662L142.232 67.5006L141.275 67.2104ZM139.817 72.0289C139.814 72.0445 139.782 72.1476 139.539 72.3134L140.102 73.1397C140.432 72.9149 140.725 72.6144 140.8 72.2132L139.817 72.0289ZM139.552 72.3047C139.345 72.4361 139.126 72.5 138.883 72.5V73.5C139.317 73.5 139.722 73.3816 140.089 73.1484L139.552 72.3047ZM138.883 72.5C138.527 72.5 138.263 72.3856 138.052 72.1655L137.331 72.858C137.744 73.2889 138.275 73.5 138.883 73.5V72.5ZM138.052 72.1655C137.833 71.937 137.723 71.6655 137.723 71.3203H136.723C136.723 71.9126 136.925 72.4354 137.331 72.858L138.052 72.1655ZM137.723 71.3203C137.723 71.1811 137.746 71.0296 137.798 70.864L136.843 70.5657C136.765 70.8167 136.723 71.0689 136.723 71.3203H137.723ZM145.084 54.4972L142.271 63.8918L143.229 64.1786L146.041 54.784L145.084 54.4972ZM142.75 64.5352H148.277V63.5352H142.75V64.5352ZM148.758 63.8963L146.043 54.5018L145.082 54.7794L147.797 64.174L148.758 63.8963ZM179.992 71.0664L179.637 70.7146L179.637 70.7147L179.992 71.0664ZM165.324 73H164.824V73.5H165.324V73ZM165.324 47.043V46.543H164.824V47.043H165.324ZM179.992 48.9766L179.637 49.3283L179.639 49.3301L179.992 48.9766ZM179.68 59.9922L179.343 59.6229L178.942 59.9887L179.339 60.3582L179.68 59.9922ZM177.59 51.3008L177.233 51.6508L177.236 51.6543L177.59 51.3008ZM168.605 50.3242V49.8242H168.105V50.3242H168.605ZM168.605 58.2734H168.105V58.7734H168.605V58.2734ZM177.59 57.3164L177.94 57.6735L177.943 57.67L177.59 57.3164ZM177.59 62.6875L177.233 63.0375L177.236 63.0411L177.59 62.6875ZM168.645 61.7109V61.2109H168.145V61.7109H168.645ZM168.645 69.6797H168.145V70.1797H168.645V69.6797ZM177.59 68.7227L177.94 69.0798L177.943 69.0762L177.59 68.7227ZM181.426 64.9531V66.3984H182.426V64.9531H181.426ZM181.426 66.3984C181.426 68.0748 180.835 69.5049 179.637 70.7146L180.348 71.4182C181.728 70.0238 182.426 68.3419 182.426 66.3984H181.426ZM179.637 70.7147C178.454 71.9091 177.039 72.5 175.363 72.5V73.5C177.307 73.5 178.978 72.8019 180.348 71.4182L179.637 70.7147ZM175.363 72.5H165.324V73.5H175.363V72.5ZM165.824 73V47.043H164.824V73H165.824ZM165.324 47.543H175.363V46.543H165.324V47.543ZM175.363 47.543C177.039 47.543 178.454 48.1339 179.637 49.3283L180.348 48.6248C178.978 47.2411 177.307 46.543 175.363 46.543V47.543ZM179.639 49.3301C180.834 50.5254 181.426 51.9542 181.426 53.6445H182.426C182.426 51.689 181.729 50.0058 180.346 48.623L179.639 49.3301ZM181.426 53.6445V55.0312H182.426V53.6445H181.426ZM181.426 55.0312C181.426 56.8238 180.741 58.3457 179.343 59.6229L180.017 60.3614C181.613 58.9043 182.426 57.1189 182.426 55.0312H181.426ZM179.339 60.3582C180.743 61.6642 181.426 63.1882 181.426 64.9531H182.426C182.426 62.8899 181.612 61.1067 180.02 59.6261L179.339 60.3582ZM179.066 54.9922V53.6445H178.066V54.9922H179.066ZM179.066 53.6445C179.066 52.599 178.687 51.691 177.943 50.9472L177.236 51.6543C177.795 52.2127 178.066 52.8672 178.066 53.6445H179.066ZM177.947 50.9508C177.216 50.2054 176.32 49.8242 175.285 49.8242V50.8242C176.047 50.8242 176.687 51.0941 177.233 51.6507L177.947 50.9508ZM175.285 49.8242H168.605V50.8242H175.285V49.8242ZM168.105 50.3242V58.2734H169.105V50.3242H168.105ZM168.605 58.7734H175.285V57.7734H168.605V58.7734ZM175.285 58.7734C176.306 58.7734 177.198 58.4001 177.94 57.6735L177.24 56.9593C176.679 57.5087 176.035 57.7734 175.285 57.7734V58.7734ZM177.943 57.67C178.686 56.9278 179.066 56.0269 179.066 54.9922H178.066C178.066 55.7544 177.796 56.403 177.236 56.9629L177.943 57.67ZM179.066 66.3984V65.0312H178.066V66.3984H179.066ZM179.066 65.0312C179.066 63.9857 178.687 63.0777 177.943 62.3339L177.236 63.0411C177.795 63.5994 178.066 64.2539 178.066 65.0312H179.066ZM177.947 62.3375C177.216 61.5921 176.32 61.2109 175.285 61.2109V62.2109C176.047 62.2109 176.687 62.4808 177.233 63.0375L177.947 62.3375ZM175.285 61.2109H168.645V62.2109H175.285V61.2109ZM168.145 61.7109V69.6797H169.145V61.7109H168.145ZM168.645 70.1797H175.285V69.1797H168.645V70.1797ZM175.285 70.1797C176.306 70.1797 177.198 69.8064 177.94 69.0798L177.24 68.3655C176.679 68.915 176.035 69.1797 175.285 69.1797V70.1797ZM177.943 69.0762C178.686 68.334 179.066 67.4331 179.066 66.3984H178.066C178.066 67.1606 177.796 67.8092 177.236 68.3691L177.943 69.0762ZM208.777 48.3711L208.431 48.7322L208.437 48.7371L208.777 48.3711ZM209.676 52.7461L209.329 52.3856L209.322 52.3925L209.676 52.7461ZM207.43 52.8633L207.039 53.1757L207.047 53.1853L207.43 52.8633ZM206.824 51.4375L206.341 51.5652L206.343 51.5737L206.824 51.4375ZM197.137 51.3203L197.531 51.0123L197.525 51.005L197.137 51.3203ZM209.305 66.8867L209.7 66.5802L209.699 66.5788L209.305 66.8867ZM209.109 71.8867L208.75 71.5395L208.746 71.5428L209.109 71.8867ZM194.832 71.6719L194.471 72.0175L194.476 72.0228L194.832 71.6719ZM196.395 67.375L196.034 67.7213L196.041 67.7286L196.395 67.375ZM197.215 69.3672L196.861 69.7209L196.871 69.7302L197.215 69.3672ZM206.57 68.8008L206.176 69.1085L206.182 69.1161L206.57 68.8008ZM194.422 53.2344L194.026 53.5399L194.028 53.542L194.422 53.2344ZM194.656 48.1758L195.013 48.5262L195.016 48.5231L194.656 48.1758ZM197.293 47.543H205.828V46.543H197.293V47.543ZM205.828 47.543C206.713 47.543 207.578 47.9144 208.432 48.7322L209.123 48.01C208.128 47.057 207.027 46.543 205.828 46.543V47.543ZM208.437 48.7371C209.275 49.5176 209.684 50.4473 209.684 51.5547H210.684C210.684 50.162 210.154 48.9694 209.118 48.0051L208.437 48.7371ZM209.684 51.5547C209.684 51.8871 209.57 52.1542 209.329 52.3857L210.022 53.1065C210.459 52.6869 210.684 52.1597 210.684 51.5547H209.684ZM209.322 52.3925C209.076 52.6386 208.834 52.7344 208.582 52.7344V53.7344C209.137 53.7344 209.624 53.5046 210.029 53.0996L209.322 52.3925ZM208.582 52.7344C208.067 52.7344 207.875 52.6156 207.812 52.5412L207.047 53.1853C207.401 53.6058 207.978 53.7344 208.582 53.7344V52.7344ZM207.82 52.5509C207.679 52.3746 207.499 51.9842 207.305 51.3013L206.343 51.5737C206.54 52.271 206.764 52.8311 207.039 53.1756L207.82 52.5509ZM207.308 51.3098C207.198 50.8958 207.005 50.5335 206.694 50.276C206.379 50.0149 205.992 49.9023 205.574 49.9023V50.9023C205.808 50.9023 205.955 50.9623 206.056 51.0462C206.162 51.1339 206.268 51.2891 206.341 51.5652L207.308 51.3098ZM205.574 49.9023H197.469V50.9023H205.574V49.9023ZM197.469 49.9023C197.237 49.9023 196.977 49.9362 196.762 50.0727C196.508 50.2337 196.383 50.4928 196.383 50.7734H197.383C197.383 50.7782 197.382 50.8067 197.362 50.844C197.341 50.8827 197.314 50.9066 197.297 50.9175C197.283 50.9263 197.284 50.9214 197.316 50.9148C197.347 50.9082 197.396 50.9023 197.469 50.9023V49.9023ZM196.383 50.7734C196.383 51.1019 196.554 51.3962 196.749 51.6356L197.525 51.005C197.458 50.9229 197.42 50.8603 197.4 50.8168C197.38 50.7734 197.383 50.7611 197.383 50.7734H196.383ZM196.743 51.6282L208.911 67.1946L209.699 66.5788L197.531 51.0124L196.743 51.6282ZM208.91 67.1932C209.436 67.8711 209.684 68.5727 209.684 69.3086H210.684C210.684 68.3258 210.346 67.4127 209.7 66.5802L208.91 67.1932ZM209.684 69.3086C209.684 70.1478 209.381 70.8848 208.75 71.5395L209.469 72.2339C210.27 71.4043 210.684 70.4225 210.684 69.3086H209.684ZM208.746 71.5428C208.12 72.204 207.457 72.5 206.746 72.5V73.5C207.78 73.5 208.692 73.0538 209.472 72.2306L208.746 71.5428ZM206.746 72.5H197.898V73.5H206.746V72.5ZM197.898 72.5C196.869 72.5 195.973 72.1174 195.188 71.321L194.476 72.0228C195.436 72.9972 196.584 73.5 197.898 73.5V72.5ZM195.193 71.3263C194.407 70.5045 194.043 69.6405 194.043 68.7227H193.043C193.043 69.9402 193.538 71.0424 194.471 72.0175L195.193 71.3263ZM194.043 68.7227C194.043 68.1798 194.171 67.8658 194.338 67.6874C194.499 67.5152 194.775 67.3867 195.262 67.3867V66.3867C194.603 66.3867 194.019 66.5642 193.608 67.004C193.202 67.4376 193.043 68.0415 193.043 68.7227H194.043ZM195.262 67.3867C195.565 67.3867 195.814 67.4918 196.034 67.7213L196.755 67.0287C196.35 66.6071 195.844 66.3867 195.262 66.3867V67.3867ZM196.041 67.7286C196.263 67.9503 196.363 68.1954 196.363 68.4883H197.363C197.363 67.9218 197.151 67.4247 196.748 67.0214L196.041 67.7286ZM196.363 68.4883C196.363 68.9635 196.527 69.3865 196.861 69.7207L197.568 69.0136C197.434 68.8792 197.363 68.7162 197.363 68.4883H196.363ZM196.871 69.7302C197.218 70.059 197.65 70.2188 198.133 70.2188V69.2188C197.886 69.2188 197.706 69.1441 197.559 69.0042L196.871 69.7302ZM198.133 70.2188H206.297V69.2188H198.133V70.2188ZM206.297 70.2188C206.524 70.2188 206.786 70.177 206.999 70.0109C207.237 69.8262 207.324 69.5606 207.324 69.3086H206.324C206.324 69.3241 206.322 69.3144 206.332 69.2911C206.337 69.2793 206.344 69.2662 206.354 69.2531C206.364 69.2401 206.375 69.2295 206.385 69.2215C206.406 69.2057 206.416 69.2054 206.402 69.2091C206.387 69.213 206.354 69.2188 206.297 69.2188V70.2188ZM207.324 69.3086C207.324 68.992 207.136 68.7043 206.958 68.4855L206.182 69.1161C206.253 69.2027 206.293 69.266 206.314 69.3076C206.336 69.352 206.324 69.3482 206.324 69.3086H207.324ZM206.964 68.4932L194.816 52.9268L194.028 53.542L206.176 69.1084L206.964 68.4932ZM194.818 52.9288C194.307 52.2672 194.062 51.5658 194.062 50.8125H193.062C193.062 51.804 193.391 52.7172 194.026 53.5399L194.818 52.9288ZM194.062 50.8125C194.062 49.9315 194.373 49.1774 195.013 48.5262L194.3 47.8254C193.481 48.6585 193.062 49.6623 193.062 50.8125H194.062ZM195.016 48.5231C195.653 47.8632 196.403 47.543 197.293 47.543V46.543C196.126 46.543 195.118 46.9779 194.297 47.8285L195.016 48.5231Z" fill="#3D3D3D"/>
<path fill-rule="evenodd" clip-rule="evenodd" d="M0.712891 0.5H48.1933L92.7152 41L48.1933 81.5H0.712891L43.5858 41L0.712891 0.5ZM44.7264 46.8007L13.287 76.5H44.7264V46.8007ZM49.7264 73.3462V43.5H82.5365L49.7264 73.3462ZM82.5365 38.5H49.7264V8.65378L82.5365 38.5ZM44.7264 5.5H13.287L44.7264 35.1993V5.5Z" fill="url(#paint0_linear)"/>
<defs>
<linearGradient id="paint0_linear" x1="47.9999" y1="3" x2="47.9999" y2="79" gradientUnits="userSpaceOnUse">
<stop stop-color="#33B9E2"/>
<stop offset="1" stop-color="#198EB0"/>
</linearGradient>
</defs>
</svg>
