<svg width="203" height="18" viewBox="0 0 203 18" fill="none" xmlns="http://www.w3.org/2000/svg">
<path fill-rule="evenodd" clip-rule="evenodd" d="M100.122 0.207725C91.9007 0.372106 82.8107 0.687568 79.9221 0.9087C77.0335 1.12944 73.3975 1.30712 71.8421 1.30282C68.3345 1.29382 52.4832 2.27736 50.8341 2.60652C50.1675 2.73959 48.3495 2.93176 46.7941 3.03352C36.1527 3.73018 26.2143 4.65463 22.9581 5.25071C22.0693 5.41353 19.5241 5.72311 17.3021 5.93916C15.0801 6.1552 10.3532 6.83777 6.79805 7.45615L0.334046 8.58061L0.0867981 10.4487C-0.153178 12.2616 -0.0748034 12.3344 2.72653 12.9011C5.53918 13.4706 5.78481 13.4451 12.3248 11.9117C16.0157 11.0463 19.7592 10.3383 20.6431 10.3383C21.5271 10.3383 23.7846 9.97902 25.6608 9.54028C27.5362 9.10154 29.4301 8.84988 29.8705 8.98177C30.31 9.11328 32.4908 8.92815 34.7161 8.57043C36.9421 8.21231 40.6605 7.772 42.9803 7.59158C45.3001 7.41154 52.2885 6.8276 58.5101 6.29453C64.7317 5.76147 73.2763 5.22684 77.4981 5.10707C81.7199 4.98692 86.0831 4.79396 87.1941 4.67851C90.9198 4.29064 121.461 4.39866 127.998 4.82292C140.285 5.62017 149.445 6.78494 156.278 8.41857C158.944 9.05614 161.786 9.57277 162.593 9.56651C164.744 9.55046 167.186 10.28 167.186 10.9391C167.186 11.2545 167.598 11.5125 168.102 11.5125C168.98 11.5125 171.968 12.9481 172.096 13.4314C172.386 14.5257 172.873 15.1054 173.934 15.6196C175.048 16.1594 175.266 16.15 176.089 15.5296C176.78 15.0079 176.909 14.9911 176.614 15.4619C176.039 16.3793 177.228 17.0748 179.587 17.2004C181.068 17.2791 181.813 17.0897 182.171 16.5437C182.588 15.9073 182.883 15.8607 183.9 16.2693C185.636 16.9672 187.361 17.0239 186.84 16.366C185.937 15.2275 187.515 15.8737 188.605 17.0897C189.396 17.9699 189.757 18.1276 189.779 17.602C189.808 16.8869 189.872 16.8826 190.848 17.53C191.829 18.1797 191.971 18.1726 193.408 17.4036C194.29 16.9316 195.503 16.6776 196.296 16.7993C197.841 17.0368 199.681 16.1711 199.332 15.3696C199.206 15.078 198.011 14.523 196.678 14.1363L194.254 13.4338L198.026 13.5954C201.141 13.7293 201.863 13.6353 202.177 13.0557C202.452 12.5453 202.194 12.4083 201.233 12.5532C200.387 12.6804 200.598 12.4584 201.818 11.9367C202.867 11.4882 203.3 11.1211 202.78 11.1211C202.26 11.1211 202.04 10.9602 202.29 10.7641C202.541 10.5677 201.815 10.4565 200.676 10.5168C199.241 10.5931 198.731 10.4694 199.013 10.1137C199.237 9.83147 199.104 9.06632 198.717 8.41388C198.217 7.56888 198.285 7.25264 198.953 7.31526C200.266 7.43776 199.675 5.20453 198.2 4.46755C197.154 3.94583 196.938 3.94583 196.257 4.46755C195.749 4.85737 195.486 4.89024 195.478 4.5654C195.472 4.29651 194.899 4.07617 194.206 4.07617C193.46 4.07617 193.182 4.26012 193.523 4.52821C193.895 4.8194 193.743 4.87302 193.096 4.67968C192.544 4.51451 192.266 4.06012 192.476 3.66991C192.74 3.18107 192.509 3.02569 191.732 3.17011C191.113 3.28518 189.675 3.08401 188.537 2.72315C186.993 2.23275 186.198 2.17639 185.39 2.50085C184.597 2.81983 184.228 2.81474 184 2.48206C183.689 2.03158 182.34 1.89264 175.079 1.56466C172.977 1.46955 170.795 1.24763 170.231 1.07151C169.667 0.895778 165.934 0.730225 161.934 0.704002C150.643 0.63003 118.49 0.143925 116.686 0.0198563C115.797 -0.0411996 108.343 0.0433436 100.122 0.207725ZM198.698 6.62016C198.698 6.72779 198.516 6.81585 198.294 6.81585C198.072 6.81585 197.89 6.72779 197.89 6.62016C197.89 6.51253 198.072 6.42447 198.294 6.42447C198.516 6.42447 198.698 6.51253 198.698 6.62016ZM201.561 6.78885C201.305 6.98924 201.465 7.26359 201.917 7.39901C202.369 7.53404 202.738 7.37005 202.738 7.03463C202.738 6.34697 202.253 6.246 201.561 6.78885ZM198.991 12.0995C198.734 12.4224 198.382 12.6866 198.208 12.6866C198.033 12.6866 197.89 12.4224 197.89 12.0995C197.89 11.7766 198.242 11.5125 198.673 11.5125C199.103 11.5125 199.246 11.7766 198.991 12.0995ZM195.301 16.2584C193.785 16.7124 192.686 15.5187 193.944 14.7844C194.85 14.2557 195.056 14.2901 195.65 15.0678C196.105 15.6647 195.992 16.0517 195.301 16.2584ZM192.234 14.8392C192.234 14.9469 192.052 15.0349 191.83 15.0349C191.608 15.0349 191.426 14.9469 191.426 14.8392C191.426 14.7316 191.608 14.6435 191.83 14.6435C192.052 14.6435 192.234 14.7316 192.234 14.8392ZM201.122 15.622C201.122 15.7296 201.304 15.8177 201.526 15.8177C201.748 15.8177 201.93 15.7296 201.93 15.622C201.93 15.5144 201.748 15.4263 201.526 15.4263C201.304 15.4263 201.122 15.5144 201.122 15.622Z" fill="black"/>
<path fill-rule="evenodd" clip-rule="evenodd" d="M100.122 0.207725C91.9007 0.372106 82.8107 0.687568 79.9221 0.9087C77.0335 1.12944 73.3975 1.30712 71.8421 1.30282C68.3345 1.29382 52.4832 2.27736 50.8341 2.60652C50.1675 2.73959 48.3495 2.93176 46.7941 3.03352C36.1527 3.73018 26.2143 4.65463 22.9581 5.25071C22.0693 5.41353 19.5241 5.72311 17.3021 5.93916C15.0801 6.1552 10.3532 6.83777 6.79805 7.45615L0.334046 8.58061L0.0867981 10.4487C-0.153178 12.2616 -0.0748034 12.3344 2.72653 12.9011C5.53918 13.4706 5.78481 13.4451 12.3248 11.9117C16.0157 11.0463 19.7592 10.3383 20.6431 10.3383C21.5271 10.3383 23.7846 9.97902 25.6608 9.54028C27.5362 9.10154 29.4301 8.84988 29.8705 8.98177C30.31 9.11328 32.4908 8.92815 34.7161 8.57043C36.9421 8.21231 40.6605 7.772 42.9803 7.59158C45.3001 7.41154 52.2885 6.8276 58.5101 6.29453C64.7317 5.76147 73.2763 5.22684 77.4981 5.10707C81.7199 4.98692 86.0831 4.79396 87.1941 4.67851C90.9198 4.29064 121.461 4.39866 127.998 4.82292C140.285 5.62017 149.445 6.78494 156.278 8.41857C158.944 9.05614 161.786 9.57277 162.593 9.56651C164.744 9.55046 167.186 10.28 167.186 10.9391C167.186 11.2545 167.598 11.5125 168.102 11.5125C168.98 11.5125 171.968 12.9481 172.096 13.4314C172.386 14.5257 172.873 15.1054 173.934 15.6196C175.048 16.1594 175.266 16.15 176.089 15.5296C176.78 15.0079 176.909 14.9911 176.614 15.4619C176.039 16.3793 177.228 17.0748 179.587 17.2004C181.068 17.2791 181.813 17.0897 182.171 16.5437C182.588 15.9073 182.883 15.8607 183.9 16.2693C185.636 16.9672 187.361 17.0239 186.84 16.366C185.937 15.2275 187.515 15.8737 188.605 17.0897C189.396 17.9699 189.757 18.1276 189.779 17.602C189.808 16.8869 189.872 16.8826 190.848 17.53C191.829 18.1797 191.971 18.1726 193.408 17.4036C194.29 16.9316 195.503 16.6776 196.296 16.7993C197.841 17.0368 199.681 16.1711 199.332 15.3696C199.206 15.078 198.011 14.523 196.678 14.1363L194.254 13.4338L198.026 13.5954C201.141 13.7293 201.863 13.6353 202.177 13.0557C202.452 12.5453 202.194 12.4083 201.233 12.5532C200.387 12.6804 200.598 12.4584 201.818 11.9367C202.867 11.4882 203.3 11.1211 202.78 11.1211C202.26 11.1211 202.04 10.9602 202.29 10.7641C202.541 10.5677 201.815 10.4565 200.676 10.5168C199.241 10.5931 198.731 10.4694 199.013 10.1137C199.237 9.83147 199.104 9.06632 198.717 8.41388C198.217 7.56888 198.285 7.25264 198.953 7.31526C200.266 7.43776 199.675 5.20453 198.2 4.46755C197.154 3.94583 196.938 3.94583 196.257 4.46755C195.749 4.85737 195.486 4.89024 195.478 4.5654C195.472 4.29651 194.899 4.07617 194.206 4.07617C193.46 4.07617 193.182 4.26012 193.523 4.52821C193.895 4.8194 193.743 4.87302 193.096 4.67968C192.544 4.51451 192.266 4.06012 192.476 3.66991C192.74 3.18107 192.509 3.02569 191.732 3.17011C191.113 3.28518 189.675 3.08401 188.537 2.72315C186.993 2.23275 186.198 2.17639 185.39 2.50085C184.597 2.81983 184.228 2.81474 184 2.48206C183.689 2.03158 182.34 1.89264 175.079 1.56466C172.977 1.46955 170.795 1.24763 170.231 1.07151C169.667 0.895778 165.934 0.730225 161.934 0.704002C150.643 0.63003 118.49 0.143925 116.686 0.0198563C115.797 -0.0411996 108.343 0.0433436 100.122 0.207725ZM198.698 6.62016C198.698 6.72779 198.516 6.81585 198.294 6.81585C198.072 6.81585 197.89 6.72779 197.89 6.62016C197.89 6.51253 198.072 6.42447 198.294 6.42447C198.516 6.42447 198.698 6.51253 198.698 6.62016ZM201.561 6.78885C201.305 6.98924 201.465 7.26359 201.917 7.39901C202.369 7.53404 202.738 7.37005 202.738 7.03463C202.738 6.34697 202.253 6.246 201.561 6.78885ZM198.991 12.0995C198.734 12.4224 198.382 12.6866 198.208 12.6866C198.033 12.6866 197.89 12.4224 197.89 12.0995C197.89 11.7766 198.242 11.5125 198.673 11.5125C199.103 11.5125 199.246 11.7766 198.991 12.0995ZM195.301 16.2584C193.785 16.7124 192.686 15.5187 193.944 14.7844C194.85 14.2557 195.056 14.2901 195.65 15.0678C196.105 15.6647 195.992 16.0517 195.301 16.2584ZM192.234 14.8392C192.234 14.9469 192.052 15.0349 191.83 15.0349C191.608 15.0349 191.426 14.9469 191.426 14.8392C191.426 14.7316 191.608 14.6435 191.83 14.6435C192.052 14.6435 192.234 14.7316 192.234 14.8392ZM201.122 15.622C201.122 15.7296 201.304 15.8177 201.526 15.8177C201.748 15.8177 201.93 15.7296 201.93 15.622C201.93 15.5144 201.748 15.4263 201.526 15.4263C201.304 15.4263 201.122 15.5144 201.122 15.622Z" fill="url(#paint0_linear_1537_4636)"/>
<defs>
<linearGradient id="paint0_linear_1537_4636" x1="-98.1902" y1="12.3489" x2="263.319" y2="0.728939" gradientUnits="userSpaceOnUse">
<stop stop-color="#FD73C5"/>
<stop offset="1" stop-color="#037FF3"/>
</linearGradient>
</defs>
</svg>
