<svg fill="none" height="145" viewBox="0 0 146 145" width="146" xmlns="http://www.w3.org/2000/svg" xmlns:xlink="http://www.w3.org/1999/xlink"><linearGradient id="a" gradientUnits="userSpaceOnUse" x1="113.751" x2="48.927" y1="88.0224" y2="37.742"><stop offset="0" stop-color="#fd73c5"/><stop offset="1" stop-color="#ffe04a"/></linearGradient><linearGradient id="b" gradientUnits="userSpaceOnUse" x1=".500311" x2="145.847" y1="140.517" y2="140.517"><stop offset="0" stop-color="#fd73c5"/><stop offset=".510417" stop-color="#ea9d09"/><stop offset="1" stop-color="#ffe04a"/></linearGradient><g clip-rule="evenodd" fill-rule="evenodd"><path d="m69.9809.982417c.5336-.198538.8765-.138603 1.5785.275493 1.0068.59392.8043.354 4.7354 5.61309 3.875 5.1839 3.9321 5.2824 3.5935 6.2093-.363.9938-.7303 1.2549-1.4377 1.0222-.4189-.1378-.7423-.444-1.1414-1.0804-.3063-.4883-1.3695-1.9698-2.3626-3.29203-1.5927-2.12072-1.8022-2.34188-1.7784-1.87664.0149.29008.0556 1.29507.0904 2.23307.0346.9382.1235 2.0288.197 2.4237.0738.395.0942.8855.0455 1.0902-.1128.4739.0556 1.1822.6907 2.9081.2793.7588.4634 1.62.4093 1.9138-.0541.2937-.0181.6357.08.7598.0979.1242.2355.5203.3056.8803s.3718.9225.6706 1.2498c.5137.5631 1.5888 2.4942 2.9899 5.3708.3444.7069 1.0328 1.8876 1.53 2.6237.4972.736 1.1484 1.8846 1.447 2.5526.2987.6678.8507 1.8338 1.2267 2.5909.376.7572.7276 1.527.7813 1.7107.0536.1837.1822.4117.2857.5065.1034.095.1487.2823.1007.4164-.1123.313.4722 1.0527.8005 1.0134.1378-.0165.3984.1554.579.382.1807.2267.503.4875.7164.5795.6403.2764 1.1603.6287 1.3035.8834.0742.132.5623.6076 1.0845 1.0572.5221.4494 1.2297 1.0877 1.5721 1.4187.3426.3309.8279.747 1.0786.9247.5056.3582 3.4076 4.0383 4.7189 5.9839.4634.6875 1.1103 1.8396 1.4377 2.56.3275.7204.8426 1.7455 1.1449 2.2779.5187.9135.8247 1.8852.717 2.2774-.0507.1851.5258 1.6239 1.0403 2.5957.167.316.349.912.405 1.3246.055.4124.172 1.0986.259 1.5251.087.4262.076.9661-.024 1.1995-.1.2333-.094.4563.015.4953.109.0389.2.3805.202.7593.003.3787.073.8959.157 1.1498.165.501.147 1.9143-.056 4.2248-.071.8105-.101 1.509-.067 1.5521.277.3476-.535 2.2947-1.1791 2.8255-.0911.0751-.1591.3472-.151.6051.0084.2577-.0557.5248-.1422.5937-.0864.0689-.2169.4511-.2904.8492-.0734.3981-.1961.749-.2726.7798-.0768.0307-.2232.3106-.3256.6219-.1025.3115-.5137.8806-.9137 1.2645-.4001.3842-.7228.8592-.7171 1.0559.0057.1964-.2683.5966-.609.8887-.3406.2924-.6533.6261-.6946.7417-.0416.1155-.483.3329-.9811.4829-.6928.2085-1.1113.1693-1.7781-.1664-.4798-.2413-.8221-.5199-.761-.6189.061-.0991.0259-.2871-.0784-.4179-.1042-.1308-.1095-.3017-.0118-.3796.0977-.0778.1913-.0289.2078.1089.0166.1378.1102.1867.2079.1089.0977-.0779.0573-.2928-.0899-.4775-.1472-.1846-.3477-.2719-.4454-.194-.0976.0779-.1913.029-.2078-.1088-.0165-.1379.1237-.3732.3115-.5229.1911-.1523.2682-.4375.1752-.6475-.1424-.3215.0166-.5257 1.1101-1.4237 1.0147-.8333 1.447-1.3552 2.1065-2.5439.4565-.8224.933-1.5774 1.0589-1.6778.1257-.1002.1684-.2578.0948-.3501s-.0286-.2518.1-.3543.187-.3343.1298-.5152c-.0573-.1808.0059-.4165.1402-.5236.2923-.2329.5424-2.6191.3062-2.9206-.0909-.1161-.0994-.2639-.0187-.3283.3552-.2831.4429-2.2831.158-3.6038-.1708-.7928-.2709-1.5152-.2221-1.6052.1276-.2356-.4411-2.5467-.8946-3.635-.2125-.51-.3809-1.0489-.3747-1.1974.0064-.1484-.1219-.4373-.2851-.6421-.1631-.2046-.2357-.4658-.1612-.5804.0744-.1147-.1256-.6142-.4443-1.1101-.3189-.4958-.7389-1.3305-.9336-1.8547-.6838-1.8432-5.0513-7.4935-6.5366-8.4565-.4476-.2903-.9483-.6941-1.1126-.8975-.1645-.2033-.4543-.4236-.644-.4893-.2791-.0967-.3588.0582-.4181.8138-.0402.5133-.1453.9907-.2333 1.0608-.0881.0702-.1071.6108-.0424 1.201.1617 1.4722-.8305 3.8553-2.5523 6.1318-1.0977 1.4513-4.1185 3.342-5.3816 3.3685-.3543.0074-.7543.1014-.8893.209-.3671.2926-1.6392.4241-1.9684.2033-.1588-.1065-.5171-.1338-.7963-.0608-.2793.0729-.797-.0074-1.1504-.1786-.3534-.1713-.8986-.4162-1.2115-.5442-2.6174-1.0709-5.0366-2.8326-6.4449-4.6932-.5211-.6885-1.0277-1.2422-1.1259-1.2303-.0983.0116-.259-.16-.3574-.3819-.0984-.2217-.1037-.4121-.012-.4232.0919-.0111-.0026-.2147-.2101-.4526-.8439-.9689-1.6986-4.3209-1.3008-5.1033.1435-.2821.1971-.6795.1192-.8829-.1582-.4131-.0129-.9338.7818-2.8034.4841-1.1392.7106-1.418 2.0561-2.5331 2.2059-1.8276 3.5375-2.5653 4.6299-2.5648.5036.0001.9397-.0449.969-.1001.1731-.3252 1.9616-.6874 2.9078-.5887.6113.0636 1.4085.1397 1.7715.1691.3629.0292.7366.1492.8301.2665s.2819.1242.4187.0152c.1366-.109.4407-.0515.6754.1276.2349.1792.6597.3405.9442.3583.4834.0303.5017-.0054.2802-.5464-.1305-.3183-.2914-.6589-.3576-.7571s-.138-.3333-.1597-.5225c-.0218-.1891-.5303-.9573-1.1302-1.707-.6959-.8695-1.2068-1.7179-1.4115-2.3429-.1763-.5389-.5781-1.2686-.8927-1.6219-.3146-.3531-.5957-.8702-.6247-1.1491-.0305-.2938-.2166-.6072-.4429-.745-.2147-.1309-.3904-.3793-.3904-.5522-.0001-.1726-.0698-.3641-.155-.4255-.0851-.0612-.2792-.4445-.4312-.8518-.1521-.4072-.4531-1.032-.6689-1.3885-.3832-.6333-.7087-1.489-.9217-2.4223-.0582-.2555-.4066-1.3941-.7737-2.53-.7272-2.2496-1.0943-4.1882-1.0971-5.7928-.001-.5653-.0749-1.0362-.1644-1.0461-.0893-.0101-.3744.6268-.6336 1.4151-.5273 1.6052-1.3484 3.3323-1.7278 3.6347-.2771.2209-.9637-.2193-1.3255-.8497-.2698-.4701-.1079-3.4981.2001-3.7437.1138-.0907.1515-.2341.084-.3189-.0678-.0849.0221-.5532.1995-1.0411.1773-.48776.3453-1.06805.3732-1.2896.0278-.22172.2069-.7719.398-1.22264.4388-1.0358.6289-1.567.9207-2.57432.1282-.44227.3411-.8904.4732-.9957.1323-.10544.3079-.47653.3903-.82498.19-.80403 1.146-1.81337 2.0277-2.141243zm-1.3838 9.187683c.1099.1378.6136-.7304.6594-1.13691.0782-.69323-.0917-.59266-.4108.2434-.1712.4481-.2831.85021-.2486.89351zm-1.8487 31.7753c-.4596 1.0258-.6703 2.5155-.3819 2.7026.1271.0826.1579.2085.0685.2798-.351.2798-.018 1.5744.6448 2.5057.3771.5299.7411 1.0427.8091 1.1394.2718.3868 1.8395 1.8617 2.2116 2.0805 2.0641 1.2143 5.4227 2.1536 5.6302 1.5747.0415-.1157.4272-.1843.8571-.1522 1.1261.084 2.2892-.8865 3.1287-2.6104.3491-.7169.6755-1.5948.7251-1.9506.0498-.356.1536-.6976.2308-.7591.0772-.0616.1273-.7192.1114-1.4614-.016-.7422.0385-1.4033.1209-1.469.0822-.0655.05-.2444-.0719-.3973-.1217-.1528-.2306-.7078-.2418-1.2333-.0238-1.1067-.249-1.5319-1.1402-2.1518-.7747-.539-3.769-1.3226-4.7246-1.2365-.3767.034-.6322.0189-.5675-.0335.1941-.1578-1.499-.296-1.7638-.144-.1349.0773-.5576.1669-.9395.199-.3817.0322-.7462.1339-.8097.226-.0636.0924-.2175.1319-.3418.0879-.3656-.1291-1.9601.7304-2.6096 1.4071-.3301.3436-.7556.9721-.9459 1.3964z" fill="#ffe04a"/><path d="m69.9809.982417c.5336-.198538.8765-.138603 1.5785.275493 1.0068.59392.8043.354 4.7354 5.61309 3.875 5.1839 3.9321 5.2824 3.5935 6.2093-.363.9938-.7303 1.2549-1.4377 1.0222-.4189-.1378-.7423-.444-1.1414-1.0804-.3063-.4883-1.3695-1.9698-2.3626-3.29203-1.5927-2.12072-1.8022-2.34188-1.7784-1.87664.0149.29008.0556 1.29507.0904 2.23307.0346.9382.1235 2.0288.197 2.4237.0738.395.0942.8855.0455 1.0902-.1128.4739.0556 1.1822.6907 2.9081.2793.7588.4634 1.62.4093 1.9138-.0541.2937-.0181.6357.08.7598.0979.1242.2355.5203.3056.8803s.3718.9225.6706 1.2498c.5137.5631 1.5888 2.4942 2.9899 5.3708.3444.7069 1.0328 1.8876 1.53 2.6237.4972.736 1.1484 1.8846 1.447 2.5526.2987.6678.8507 1.8338 1.2267 2.5909.376.7572.7276 1.527.7813 1.7107.0536.1837.1822.4117.2857.5065.1034.095.1487.2823.1007.4164-.1123.313.4722 1.0527.8005 1.0134.1378-.0165.3984.1554.579.382.1807.2267.503.4875.7164.5795.6403.2764 1.1603.6287 1.3035.8834.0742.132.5623.6076 1.0845 1.0572.5221.4494 1.2297 1.0877 1.5721 1.4187.3426.3309.8279.747 1.0786.9247.5056.3582 3.4076 4.0383 4.7189 5.9839.4634.6875 1.1103 1.8396 1.4377 2.56.3275.7204.8426 1.7455 1.1449 2.2779.5187.9135.8247 1.8852.717 2.2774-.0507.1851.5258 1.6239 1.0403 2.5957.167.316.349.912.405 1.3246.055.4124.172 1.0986.259 1.5251.087.4262.076.9661-.024 1.1995-.1.2333-.094.4563.015.4953.109.0389.2.3805.202.7593.003.3787.073.8959.157 1.1498.165.501.147 1.9143-.056 4.2248-.071.8105-.101 1.509-.067 1.5521.277.3476-.535 2.2947-1.1791 2.8255-.0911.0751-.1591.3472-.151.6051.0084.2577-.0557.5248-.1422.5937-.0864.0689-.2169.4511-.2904.8492-.0734.3981-.1961.749-.2726.7798-.0768.0307-.2232.3106-.3256.6219-.1025.3115-.5137.8806-.9137 1.2645-.4001.3842-.7228.8592-.7171 1.0559.0057.1964-.2683.5966-.609.8887-.3406.2924-.6533.6261-.6946.7417-.0416.1155-.483.3329-.9811.4829-.6928.2085-1.1113.1693-1.7781-.1664-.4798-.2413-.8221-.5199-.761-.6189.061-.0991.0259-.2871-.0784-.4179-.1042-.1308-.1095-.3017-.0118-.3796.0977-.0778.1913-.0289.2078.1089.0166.1378.1102.1867.2079.1089.0977-.0779.0573-.2928-.0899-.4775-.1472-.1846-.3477-.2719-.4454-.194-.0976.0779-.1913.029-.2078-.1088-.0165-.1379.1237-.3732.3115-.5229.1911-.1523.2682-.4375.1752-.6475-.1424-.3215.0166-.5257 1.1101-1.4237 1.0147-.8333 1.447-1.3552 2.1065-2.5439.4565-.8224.933-1.5774 1.0589-1.6778.1257-.1002.1684-.2578.0948-.3501s-.0286-.2518.1-.3543.187-.3343.1298-.5152c-.0573-.1808.0059-.4165.1402-.5236.2923-.2329.5424-2.6191.3062-2.9206-.0909-.1161-.0994-.2639-.0187-.3283.3552-.2831.4429-2.2831.158-3.6038-.1708-.7928-.2709-1.5152-.2221-1.6052.1276-.2356-.4411-2.5467-.8946-3.635-.2125-.51-.3809-1.0489-.3747-1.1974.0064-.1484-.1219-.4373-.2851-.6421-.1631-.2046-.2357-.4658-.1612-.5804.0744-.1147-.1256-.6142-.4443-1.1101-.3189-.4958-.7389-1.3305-.9336-1.8547-.6838-1.8432-5.0513-7.4935-6.5366-8.4565-.4476-.2903-.9483-.6941-1.1126-.8975-.1645-.2033-.4543-.4236-.644-.4893-.2791-.0967-.3588.0582-.4181.8138-.0402.5133-.1453.9907-.2333 1.0608-.0881.0702-.1071.6108-.0424 1.201.1617 1.4722-.8305 3.8553-2.5523 6.1318-1.0977 1.4513-4.1185 3.342-5.3816 3.3685-.3543.0074-.7543.1014-.8893.209-.3671.2926-1.6392.4241-1.9684.2033-.1588-.1065-.5171-.1338-.7963-.0608-.2793.0729-.797-.0074-1.1504-.1786-.3534-.1713-.8986-.4162-1.2115-.5442-2.6174-1.0709-5.0366-2.8326-6.4449-4.6932-.5211-.6885-1.0277-1.2422-1.1259-1.2303-.0983.0116-.259-.16-.3574-.3819-.0984-.2217-.1037-.4121-.012-.4232.0919-.0111-.0026-.2147-.2101-.4526-.8439-.9689-1.6986-4.3209-1.3008-5.1033.1435-.2821.1971-.6795.1192-.8829-.1582-.4131-.0129-.9338.7818-2.8034.4841-1.1392.7106-1.418 2.0561-2.5331 2.2059-1.8276 3.5375-2.5653 4.6299-2.5648.5036.0001.9397-.0449.969-.1001.1731-.3252 1.9616-.6874 2.9078-.5887.6113.0636 1.4085.1397 1.7715.1691.3629.0292.7366.1492.8301.2665s.2819.1242.4187.0152c.1366-.109.4407-.0515.6754.1276.2349.1792.6597.3405.9442.3583.4834.0303.5017-.0054.2802-.5464-.1305-.3183-.2914-.6589-.3576-.7571s-.138-.3333-.1597-.5225c-.0218-.1891-.5303-.9573-1.1302-1.707-.6959-.8695-1.2068-1.7179-1.4115-2.3429-.1763-.5389-.5781-1.2686-.8927-1.6219-.3146-.3531-.5957-.8702-.6247-1.1491-.0305-.2938-.2166-.6072-.4429-.745-.2147-.1309-.3904-.3793-.3904-.5522-.0001-.1726-.0698-.3641-.155-.4255-.0851-.0612-.2792-.4445-.4312-.8518-.1521-.4072-.4531-1.032-.6689-1.3885-.3832-.6333-.7087-1.489-.9217-2.4223-.0582-.2555-.4066-1.3941-.7737-2.53-.7272-2.2496-1.0943-4.1882-1.0971-5.7928-.001-.5653-.0749-1.0362-.1644-1.0461-.0893-.0101-.3744.6268-.6336 1.4151-.5273 1.6052-1.3484 3.3323-1.7278 3.6347-.2771.2209-.9637-.2193-1.3255-.8497-.2698-.4701-.1079-3.4981.2001-3.7437.1138-.0907.1515-.2341.084-.3189-.0678-.0849.0221-.5532.1995-1.0411.1773-.48776.3453-1.06805.3732-1.2896.0278-.22172.2069-.7719.398-1.22264.4388-1.0358.6289-1.567.9207-2.57432.1282-.44227.3411-.8904.4732-.9957.1323-.10544.3079-.47653.3903-.82498.19-.80403 1.146-1.81337 2.0277-2.141243zm-1.3838 9.187683c.1099.1378.6136-.7304.6594-1.13691.0782-.69323-.0917-.59266-.4108.2434-.1712.4481-.2831.85021-.2486.89351zm-1.8487 31.7753c-.4596 1.0258-.6703 2.5155-.3819 2.7026.1271.0826.1579.2085.0685.2798-.351.2798-.018 1.5744.6448 2.5057.3771.5299.7411 1.0427.8091 1.1394.2718.3868 1.8395 1.8617 2.2116 2.0805 2.0641 1.2143 5.4227 2.1536 5.6302 1.5747.0415-.1157.4272-.1843.8571-.1522 1.1261.084 2.2892-.8865 3.1287-2.6104.3491-.7169.6755-1.5948.7251-1.9506.0498-.356.1536-.6976.2308-.7591.0772-.0616.1273-.7192.1114-1.4614-.016-.7422.0385-1.4033.1209-1.469.0822-.0655.05-.2444-.0719-.3973-.1217-.1528-.2306-.7078-.2418-1.2333-.0238-1.1067-.249-1.5319-1.1402-2.1518-.7747-.539-3.769-1.3226-4.7246-1.2365-.3767.034-.6322.0189-.5675-.0335.1941-.1578-1.499-.296-1.7638-.144-.1349.0773-.5576.1669-.9395.199-.3817.0322-.7462.1339-.8097.226-.0636.0924-.2175.1319-.3418.0879-.3656-.1291-1.9601.7304-2.6096 1.4071-.3301.3436-.7556.9721-.9459 1.3964z" fill="url(#a)" fill-opacity=".87"/><path d="m54.4565 132.068c-.7971.068-1.659.083-1.9151.033-.2731-.053-.4658-.006-.4658.113 0 .148-.1118.151-.4209.009-.3099-.142-.6114-.133-1.1438.031-.5356.166-.8756.175-1.312.034-.4476-.145-.7544-.131-1.277.057-.6904.249-1.95.246-2.4243-.005-.1398-.074-.254-.068-.254.013s-.3493.153-.7764.161c-.4269.007-1.708.068-2.8467.135-3.4996.205-5.5509.3-6.4618.299-.4797 0-.9135.057-.964.127-.0503.069-.7523.114-1.5602.099-.8076-.014-1.4316.025-1.3867.089.0452.063-.6765.142-1.6036.174s-1.7793.117-1.8937.188c-.1145.071-.5808.118-1.0362.104-.4555-.014-.941.048-1.0791.138s-.7074.185-1.2652.211c-.5577.025-1.1403.113-1.2945.195-.1545.081-1.0292.137-1.944.123-1.2768-.02-1.8741.057-2.5705.332-.5358.211-1.2565.342-1.7598.32-1.0581-.047-3.6785.19-3.958.359-.41.246-1.9364.542-3.21482.623-.71715.045-1.40035.164-1.51857.266-.11801.101-.46002.183-.7598.183-.29999 0-.6093.055-.68755.122-.07826.067-.3033.136-.50019.153-1.05151.092-2.23139.303-2.32352.414-.05776.07-.43393.258-.8362.418-.71902.286-1.84919 1.02-1.57074 1.02.07847 0-.14037.236-.485903.525-.345328.29-.642419.708-.659602.931-.030227.386-.082606.654-.16604.847-.2074451.482-.1376741 1.084.141197 1.217.180738.087.347192.347.369552.578.026086.27.162728.412.381356.396.20599-.015.34056.107.34056.31 0 .184.11925.335.265.335s.57244.279.94841.62c.73517.667.94344.718 1.79807.44.40495-.132.70142-.118 1.10079.053.51261.219.54821.207.57741-.192.02236-.309-.03126-.372-.1971-.23-.31758.272-.55898.243-.55898-.067 0-.205-.11056-.225-.51758-.093-.3327.109-.51758.107-.51758-.004 0-.151.68817-.249.9099-.129.04493.025.26211-.095.4826-.266.22048-.171.47803-.25.57243-.177.09462.073.12898.054.07681-.044-.11904-.222.9892-1.152 1.1896-.998.08095.062.0913-.022.02298-.185s-.00165-.384.14824-.491c.14968-.106.33125-.509.4035-.895.16087-.862.87947-1.241 2.35317-1.241.5523 0 1.0945-.077 1.2051-.172.1107-.095.4321-.208.7142-.252.2824-.045.5365-.097.565-.116.0286-.02.1216-.049.2071-.066s.3741-.095.6417-.173c.2675-.078.9663-.159 1.5528-.181.5863-.021 1.4478-.133 1.9142-.248.4662-.114 1.5059-.228 2.3105-.252.8043-.023 1.433-.084 1.3972-.133-.0358-.05.3687-.111.8985-.136 2.2925-.109 2.6339-.142 2.8807-.277.1432-.079.4426-.094.665-.033.2223.06.5724.033.778-.061.2054-.095.8376-.192 1.4051-.217s1.125-.089 1.2389-.144c.4387-.208.877-.261 2.2773-.273.7971-.007 1.5513-.069 1.6759-.139.1247-.069.87-.126 1.6563-.125 1.3865.001 4.9491-.138 4.9491-.194 0-.086 1.4587-.173 4.7617-.282 2.0496-.069 4.4719-.151 5.3828-.184 2.426-.087 3.0471-.102 3.6231-.087.2846.007 3.8714.012 7.9707.01 7.4798-.003 12.0233.088 12.8833.256.2538.05.5112.022.5718-.062.0609-.084.5054-.117.9878-.072.4826.045 1.0637.071 1.2914.057.2278-.013.647-.011.9317.005.2846.017 1.1231.053 1.8633.081.7401.028 1.4968.107 1.6813.176.1846.069 1.0047.095 1.8225.058.8175-.037 1.5262-.012 1.5746.055.1087.151 2.5941.343 5.6025.434 1.2422.037 2.491.141 2.7751.231.319.101.7324.1 1.0815-.005.4064-.121.843-.091 1.5538.108.9453.265 2.8328.45 5.5669.548.696.024 1.597.098 2.002.163.434.07.791.044.869-.064.086-.119.338-.09.73.084.33.145.911.265 1.293.265.381 0 .791.083.91.185s1.233.233 2.474.29 2.369.179 2.505.271.462.149.725.127c.262-.022.616.005.787.059.676.216 1.247.267 1.353.121.061-.085.364-.066.673.042.673.235 2.317.507 3.46.571.456.026 1.096.142 1.423.258.331.117.906.16 1.296.097.417-.067.818-.03.988.091.157.112.552.234.878.271.325.037 1.103.124 1.73.194.626.071 1.238.195 1.36.277s.495.143.828.136c.99-.021 2.376.213 3.935.663.805.232 1.673.422 1.928.422s.642.082.86.182c.218.099.701.208 1.073.24.373.033.818.105.988.16.171.055.637.146 1.035.203.399.057.992.222 1.318.368s.815.265 1.087.265.494.069.494.154c0 .159.87.374 2.95.731 1.319.226 1.274.244 2.308-.928.679-.77.625-1.347-.17-1.793-.279-.156-.738-.481-1.02-.723-.282-.241-.777-.488-1.1-.547s-.834-.221-1.137-.361c-.302-.14-.695-.254-.873-.254s-.696-.166-1.151-.369-.928-.316-1.051-.251-.452-.009-.73-.166c-.279-.156-.951-.333-1.492-.394-.542-.06-1.088-.179-1.214-.263s-.499-.184-.828-.221c-.33-.037-.739-.115-.91-.173-.262-.088-1.466-.265-6.211-.912-.978-.134-1.76-.312-1.967-.448-.114-.075-.567-.185-1.007-.244-.441-.059-.877-.148-.97-.197-.092-.049-.222-.015-.288.076-.069.097-.377.056-.736-.097-.339-.145-.708-.215-.82-.156s-.463-.006-.779-.145c-.337-.148-1.068-.24-1.763-.222-.653.018-1.213-.034-1.245-.114-.061-.157-3.994-.641-6.123-.753-.72-.037-1.437-.159-1.594-.271-.157-.111-.546-.184-.865-.162-.318.023-.812-.004-1.097-.06-1.841-.359-6.389-.726-8.126-.655-.256.01-.8771-.086-1.3799-.215-.7029-.179-.9335-.184-.9973-.021-.0596.153-.2315.164-.6132.04-.2915-.095-1.2869-.203-2.2117-.24-.9249-.037-1.9346-.151-2.2437-.254-.3093-.104-1.8889-.236-3.5106-.295-1.6214-.06-3.0398-.156-3.1516-.215-.112-.06-1.1095-.126-2.2165-.149-1.107-.022-2.2024-.092-2.4345-.155s-2.4529-.15-4.9354-.194c-2.4823-.043-5.5849-.125-6.8943-.182-1.3095-.056-2.8001-.086-3.3125-.066-.5124.019-1.1878.032-1.501.027-.9588-.014-1.4664-.014-2.3291.004-.4555.009-1.743-.019-2.8612-.063s-2.0686-.031-2.1121.03c-.0899.124-1.148.107-1.4513-.025-.1102-.047-.8526-.031-1.6496.037z" fill="url(#b)"/></g></svg>