<svg width="122" height="94" viewBox="0 0 122 94" fill="none" xmlns="http://www.w3.org/2000/svg">
<path fill-rule="evenodd" clip-rule="evenodd" d="M27.6587 86.2238C27.9692 86.4727 27.762 86.5103 26.8602 86.3684C26.0672 86.2436 25.484 86.3034 25.1865 86.5408C24.8267 86.8273 24.5108 86.8378 23.7031 86.5897C22.9977 86.3729 22.0213 86.3493 20.5763 86.5143C19.4208 86.6463 18.0581 86.6908 17.5491 86.6135C17.0395 86.536 16.0982 86.6119 15.4572 86.7823C14.3774 87.0685 8.72213 87.3979 5.89774 87.3386C5.22802 87.3247 4.68056 87.4397 4.68056 87.5943C4.68056 87.749 4.43983 87.8016 4.14608 87.7115C3.18695 87.4177 0.990085 88.7458 0.658473 89.8199C0.482658 90.3902 0.205679 90.9637 0.0433885 91.0941C-0.118902 91.2245 0.188368 91.3347 0.72663 91.339C1.61706 91.3465 1.6241 91.3707 0.805617 91.6075C0.0498865 91.8264 0.00390112 91.9965 0.518361 92.6725C1.09557 93.4303 1.76691 93.6113 3.54128 93.4882C3.95566 93.4592 4.50312 93.5958 4.75846 93.7916C5.10251 94.0561 5.32647 94.0671 5.63158 93.8345C5.85662 93.6626 6.76977 93.4702 7.66021 93.4077C8.5501 93.345 9.64393 93.2178 10.0902 93.1247C11.5362 92.824 13.5811 92.7371 14.6636 92.9308C15.2451 93.0349 16.3276 92.9638 17.0698 92.773C18.1047 92.5067 18.5959 92.4992 19.1817 92.7403C19.7795 92.9863 20.0927 92.9539 20.6288 92.5904C21.0053 92.3353 21.6777 92.1958 22.1235 92.2805C22.5693 92.3653 23.3093 92.2486 23.768 92.0212C24.7109 91.5539 28.2624 91.3964 31.393 91.6832C32.6837 91.8015 33.7651 91.7631 34.2011 91.5836C34.5912 91.4232 35.3507 91.3191 35.889 91.3527C36.4278 91.3859 37.2955 91.3213 37.8175 91.2089C38.3395 91.0962 39.6784 91.0769 40.7928 91.1654C44.0998 91.4283 50.1294 91.5421 50.3739 91.346C50.4983 91.2459 51.6489 91.203 52.9305 91.2507C56.2174 91.3733 70.1506 91.4036 90.9648 91.3334C100.783 91.3004 111.008 91.3613 113.685 91.4686C121.882 91.7977 121.78 91.8017 121.968 91.1485C122.114 90.641 121.828 90.5469 119.804 90.4345C111.987 90.001 97.7761 89.0723 90.4238 88.5146C87.746 88.3113 82.147 87.954 77.9816 87.7203C73.8161 87.4867 68.8257 87.1793 66.8918 87.0374C60.3737 86.5585 56.8255 86.4759 55.2842 86.7664C54.0779 86.9936 53.5683 86.9695 52.8575 86.6506C51.8886 86.2157 49.6917 86.1597 37.4091 86.2573C33.5412 86.2882 29.6705 86.2176 28.8082 86.1004C27.6122 85.9384 27.3395 85.9676 27.6587 86.2238Z" fill="url(#paint0_linear_2501_5104)"/>
<path fill-rule="evenodd" clip-rule="evenodd" d="M71.7469 13.1357C71.4813 13.1813 70.5448 13.1361 69.6659 13.0349C67.8641 12.8277 62.9637 12.6628 62.3887 12.7902C62.1814 12.8359 61.7635 12.8266 61.4596 12.7694C61.1559 12.7123 60.6673 12.7472 60.3737 12.847C60.0803 12.9469 59.1843 13.1108 58.3827 13.2114C57.5814 13.3119 56.404 13.7544 55.7664 14.1943C55.1289 14.6347 54.3979 15.106 54.1418 15.2417C53.8859 15.3775 53.6387 15.5947 53.5928 15.7242C53.5468 15.854 53.0746 16.254 52.5433 16.6131C52.0122 16.9726 51.3075 17.7359 50.9776 18.3094C50.6473 18.883 50.3228 19.4352 50.2564 19.5365C50.1899 19.6378 50.0302 19.9701 49.9013 20.2749C49.7033 20.7433 49.5621 20.7611 48.992 20.3876C48.6207 20.1441 47.7802 19.4284 47.124 18.7967C45.9338 17.6504 43.9031 16.3647 41.5856 15.2899C40.3478 14.7158 35.5709 14.0138 34.3178 14.2218C33.9644 14.2804 33.0183 14.3032 32.2155 14.2722C30.1593 14.1934 29.8681 14.5166 30.1276 16.5905C30.5396 19.8827 30.8795 21.0144 32.0823 23.0978C34.5562 27.3821 38.0859 29.9184 42.625 30.6727C43.6845 30.8489 44.6588 30.9071 44.7894 30.8022C44.9201 30.697 45.2355 30.6851 45.4905 30.7754C45.7452 30.8657 46.7621 30.7488 47.7501 30.5156L49.5467 30.0917L49.4497 31.7982C49.3962 32.7367 49.4416 34.2499 49.55 35.1608C49.6588 36.0718 49.7295 36.8682 49.7072 36.9311C49.5492 37.3771 51.9657 44.142 52.7727 45.513C54.1736 47.8928 55.6555 49.7998 56.2737 50.0189C57.4139 50.4229 57.1658 49.0861 55.411 45.3701C53.9018 42.1745 51.95 36.5755 52.1493 36.0132C52.183 35.9181 52.1102 34.9219 51.9877 33.7995C51.8649 32.6773 51.9116 31.1716 52.0917 30.4534C52.5585 28.5897 52.4787 27.506 51.8586 27.2863C51.235 27.0653 50.2461 27.1918 49.2633 27.6183C48.0836 28.1305 44.4703 28.5125 43.1037 28.2695C41.5268 27.9893 38.7658 27.0079 37.7154 26.3539C36.1713 25.3931 34.5955 23.61 33.7198 21.833C32.7057 19.7751 31.9257 16.9634 32.2297 16.4612C32.5484 15.9348 36.7952 15.9149 39.1302 16.429C41.4035 16.9294 42.4326 17.3545 44.1418 18.5005C44.7466 18.906 45.4916 19.4013 45.7976 19.601C46.1032 19.801 46.3815 20.0943 46.416 20.2529C46.4502 20.4117 46.7094 20.6233 46.9915 20.7232C47.6967 20.9731 49.2954 22.7308 49.1628 23.1108C49.0261 23.5035 50.2778 24.9713 50.6761 24.885C51.1872 24.7746 51.5805 23.1936 51.226 22.6743C50.9224 22.2295 50.9893 22.0101 51.9356 20.3474C52.9556 18.5551 54.2814 17.3363 56.6407 16.0222C58.079 15.2213 65.4112 14.7046 68.9137 15.1576C69.4703 15.2297 70.227 15.3009 70.5951 15.3161C71.2481 15.3431 71.2473 15.3812 70.5592 16.8674C70.1712 17.7055 69.6795 18.6698 69.467 19.0103C69.2544 19.3508 68.9041 19.9485 68.6888 20.3385C68.3377 20.9744 66.7998 22.6348 65.4842 23.7983C64.7318 24.464 62.307 25.8477 62.0521 25.7574C61.9269 25.713 61.2526 25.8733 60.5533 26.1136C59.8543 26.3537 58.6384 26.6395 57.8514 26.7483C56.3874 26.9508 55.6369 27.7375 56.4819 28.1842C57.1701 28.5481 60.2696 28.51 61.4737 28.1229C62.089 27.9251 62.7001 27.8014 62.832 27.8482C63.3551 28.0335 66.6112 25.8545 68.5427 24.0262C69.6574 22.9712 71.9662 19.3017 72.5676 17.6284C72.8171 16.9345 73.2706 16.1087 73.5756 15.7932C74.4507 14.887 74.2328 13.7414 73.1118 13.3556C72.6268 13.1889 72.0127 13.0899 71.7469 13.1357Z" fill="#16E912"/>
<defs>
<linearGradient id="paint0_linear_2501_5104" x1="0.41664" y1="92.7586" x2="122.417" y2="92.7624" gradientUnits="userSpaceOnUse">
<stop stop-color="#16E912"/>
<stop offset="1" stop-color="#43AFDE"/>
</linearGradient>
</defs>
</svg>
