<svg width="117" height="52" viewBox="0 0 117 52" fill="none" xmlns="http://www.w3.org/2000/svg">
<path fill-rule="evenodd" clip-rule="evenodd" d="M107.357 0.157207C107.258 0.255353 105.045 0.414386 102.439 0.510462C95.1159 0.780467 88.1678 1.39336 87.4572 1.8315C87.2443 1.96278 86.1005 2.11847 84.9147 2.17811C83.7294 2.23733 81.4521 2.5206 79.8542 2.80717C78.2563 3.09374 76.5762 3.31528 76.1209 3.29954C75.6656 3.28381 73.0131 3.73149 70.2261 4.29427C67.4396 4.85747 65.0104 5.27944 64.8286 5.23223C64.6468 5.18502 63.4706 5.38298 62.2151 5.67203C58.9429 6.42531 56.8649 6.79969 49.1618 8.02258C46.8899 8.38328 44.7279 8.84005 44.3573 9.03841C43.9863 9.23636 42.8565 9.4989 41.8467 9.62148C40.8369 9.74447 38.895 10.1362 37.5312 10.4928C36.1678 10.8489 34.5803 11.2121 34.0034 11.2999C33.4269 11.3873 31.4608 11.8523 29.6347 12.3331C25.7898 13.3457 25.3635 13.4455 22.579 13.9813C21.4377 14.2008 18.4494 14.8725 15.9384 15.4738C13.4275 16.0751 10.8127 16.6652 10.1279 16.7857C9.44312 16.9063 8.66659 17.1758 8.40263 17.3854C8.13825 17.5949 7.01765 17.9349 5.9124 18.1411C0.78379 19.0969 0.143369 19.5313 0.0151227 22.1419C-0.0575088 23.6216 0.101885 23.9852 1.15027 24.7302C2.55226 25.7261 4.20785 25.8562 4.89971 25.0242C5.41021 24.4105 12.7871 22.0583 16.7685 21.2396C23.7245 19.8088 25.6254 19.3417 27.4827 18.6058C28.1252 18.3511 29.5355 18.1428 30.6162 18.1428C31.697 18.1428 32.7591 17.9697 32.9757 17.7585C33.3281 17.4152 36.4102 16.6897 41.8783 15.6631C42.9055 15.4705 44.5864 15.092 45.6136 14.8224C46.6408 14.5528 48.5085 14.171 49.764 13.9739C51.0195 13.7763 52.9805 13.4306 54.1219 13.2057C55.2632 12.9804 57.878 12.5311 59.9324 12.2077C61.9868 11.8838 64.4148 11.4246 65.3279 11.1869C66.241 10.9492 68.0152 10.6311 69.2707 10.4799C71.4464 10.2182 76.0267 9.44672 80.0617 8.66279C81.0889 8.46319 83.3301 8.19194 85.0421 8.05984C87.9038 7.83911 88.0545 7.86522 86.9098 8.38577C86.225 8.69718 85.5302 8.86945 85.3654 8.76799C85.2011 8.66694 84.5474 8.84128 83.9128 9.15559C83.2786 9.46991 81.0785 10.0522 79.0241 10.4493C76.9697 10.8469 74.9152 11.3334 74.4587 11.5314C74.0022 11.7289 72.508 12.1857 71.1384 12.5468C69.7688 12.9079 67.9945 13.3954 67.1955 13.6302C66.3966 13.8646 65.0892 14.2198 64.2903 14.4195C63.4913 14.6191 60.7832 15.4647 58.2722 16.2987C53.7629 17.7966 53.1328 18.0198 50.9178 18.9048C50.2969 19.1529 48.6675 19.6461 47.2962 20.0006C45.9253 20.355 43.5384 21.2334 41.992 21.9527C40.4456 22.672 38.7331 23.2269 38.1861 23.1859C37.6391 23.1449 36.9854 23.2808 36.7335 23.4878C35.8059 24.2494 30.4232 26.7557 29.1204 27.0319C28.3813 27.1888 27.657 27.5098 27.5109 27.7458C27.3653 27.9814 26.2505 28.6134 25.0344 29.1501C21.202 30.8409 20.32 33.9029 22.9189 36.4961C23.7237 37.2991 24.1761 37.3637 28.1601 37.2477C30.5586 37.1778 32.8275 36.957 33.2019 36.757C33.5767 36.557 33.9942 36.5036 34.1295 36.639C34.2648 36.774 35.2406 36.6672 36.2973 36.4017C38.096 35.9499 44.901 34.8372 48.0586 34.479C48.8326 34.3912 50.0466 34.1398 50.7563 33.9207C51.466 33.7016 53.2607 33.4006 54.7444 33.2523C56.2282 33.1037 58.3631 32.7181 59.4891 32.3955C60.6147 32.0729 62.3545 31.8087 63.3552 31.8087C64.3563 31.8087 65.5661 31.5996 66.0446 31.3445C66.5228 31.089 68.0879 30.8086 69.5222 30.7217C70.9566 30.6347 72.6197 30.3775 73.2177 30.1506C73.8158 29.9236 74.8999 29.7505 75.627 29.7663C76.9402 29.794 76.9423 29.7969 75.9113 30.2367C75.3406 30.4798 74.2852 30.9333 73.5659 31.2439C72.8467 31.5544 71.9074 31.8087 71.4791 31.8087C71.0508 31.8087 70.332 32.0551 69.8821 32.3562C68.8781 33.0271 63.7296 34.7076 62.6774 34.7076C62.2566 34.7076 61.4352 35.0819 60.8525 35.5391C60.2698 35.9963 58.8906 36.4887 57.7875 36.6332C56.6847 36.7777 55.0889 37.242 54.2422 37.6652C53.3951 38.0884 52.4908 38.4346 52.2326 38.4346C51.974 38.4346 51.2876 38.8073 50.7074 39.2629C50.1267 39.7184 49.246 40.0911 48.7496 40.0911C48.2537 40.0911 47.485 40.3648 47.0417 40.699C46.5989 41.0336 45.839 41.3132 45.353 41.3202C44.8674 41.3277 44.2203 41.6337 43.9149 42.001C43.3056 42.7336 38.7227 45.0605 37.8893 45.0605C37.603 45.0605 36.4093 45.9923 35.2377 47.1311C34.066 48.2699 32.8396 49.2017 32.5121 49.2017C32.1851 49.2017 31.902 49.3413 31.8834 49.5123C31.8647 49.6833 31.7688 50.3045 31.6709 50.8926C31.5447 51.6496 31.6758 51.9626 32.1199 51.9626C32.4652 51.9626 32.7475 51.7941 32.7475 51.5879C32.7475 51.3816 33.0367 50.9244 33.3904 50.5716C33.9714 49.9922 34.0071 50.0349 33.7614 51.0114C33.4966 52.0649 33.534 52.0885 35.2244 51.9258C36.1786 51.8343 37.2722 51.51 37.6548 51.2052C38.7916 50.2995 40.1638 49.6158 40.8436 49.6158C41.1939 49.6158 43.1105 48.8489 45.1035 47.9113C52.0749 44.6311 53.7193 43.908 55.367 43.397C56.2801 43.1137 57.2554 42.7013 57.5343 42.481C57.8132 42.2602 58.6537 41.9194 59.402 41.7231C60.7234 41.3765 64.9577 39.8733 67.3263 38.91C67.9688 38.6483 68.7577 38.4346 69.0794 38.4346C69.401 38.4346 71.0765 37.8747 72.8023 37.1906C75.4162 36.1549 77.9902 35.3884 80.2692 34.968C80.4975 34.9258 80.871 34.7804 81.0993 34.6446C81.3276 34.5092 83.382 33.7977 85.6647 33.0643C87.9474 32.3309 90.0018 31.5793 90.2301 31.3938C90.4584 31.2087 91.7425 30.8554 93.0835 30.609C94.4245 30.3626 96.0875 29.8797 96.779 29.5356C97.47 29.1915 98.3341 28.9041 98.6985 28.8966C99.8731 28.8735 101.685 26.9072 101.932 25.387C102.085 24.4486 102.002 23.9405 101.698 23.9405C101.44 23.9405 101.229 23.6676 101.229 23.3338C101.229 22.0044 99.6045 21.8459 91.8903 22.4219C88.9555 22.6414 87.2277 22.8538 76.3264 24.3376C71.0678 25.0532 66.8486 25.7328 62.4226 26.5759C61.7378 26.7068 60.2985 26.9014 59.2243 27.0091C58.1502 27.1167 56.9122 27.3963 56.4739 27.6307C56.0352 27.8647 55.1399 28.0394 54.4842 28.0187C53.8284 27.998 52.0778 28.2063 50.5941 28.4821C49.1103 28.7579 47.2003 29.0441 46.3499 29.1182C45.4995 29.1923 44.1921 29.4507 43.4446 29.6922C42.6971 29.934 41.7123 30.1295 41.2557 30.127C40.7992 30.1245 39.3984 30.2355 38.1429 30.3734L35.8602 30.6239L38.3505 29.4035C39.7201 28.7322 42.615 27.5946 44.7835 26.8753C46.9521 26.1564 49.0775 25.3712 49.5067 25.1311C49.9358 24.8909 50.7763 24.6134 51.3743 24.5149C52.9042 24.2622 57.5223 22.7582 59.6323 21.826C60.6085 21.3945 61.8225 21.035 62.33 21.0272C62.8376 21.0189 63.7196 20.746 64.2903 20.4205C64.861 20.095 65.8442 19.822 66.475 19.8138C67.1059 19.8059 67.9463 19.6229 68.3427 19.4075C69.5152 18.7706 75.6171 17.0036 76.7414 16.9758C77.9682 16.9452 80.8839 16.0851 81.6102 15.5392C81.8912 15.328 83.1985 15.0025 84.5155 14.8158C85.8324 14.629 88.0304 14.1689 89.4 13.7937C90.7696 13.4181 92.5439 12.9572 93.3429 12.7688C97.8332 11.7111 102.686 10.5516 105.794 9.79499C107.734 9.32248 109.975 8.84294 110.774 8.72947C111.573 8.616 112.507 8.28596 112.85 7.99566C113.192 7.70536 114.09 7.33679 114.846 7.17652C116.415 6.84316 117 5.76065 117 3.18649C117 1.6733 116.871 1.48033 115.444 0.871577C114.039 0.272347 107.794 -0.279688 107.357 0.157207Z" fill="black"/>
<path fill-rule="evenodd" clip-rule="evenodd" d="M107.357 0.157207C107.258 0.255353 105.045 0.414386 102.439 0.510462C95.1159 0.780467 88.1678 1.39336 87.4572 1.8315C87.2443 1.96278 86.1005 2.11847 84.9147 2.17811C83.7294 2.23733 81.4521 2.5206 79.8542 2.80717C78.2563 3.09374 76.5762 3.31528 76.1209 3.29954C75.6656 3.28381 73.0131 3.73149 70.2261 4.29427C67.4396 4.85747 65.0104 5.27944 64.8286 5.23223C64.6468 5.18502 63.4706 5.38298 62.2151 5.67203C58.9429 6.42531 56.8649 6.79969 49.1618 8.02258C46.8899 8.38328 44.7279 8.84005 44.3573 9.03841C43.9863 9.23636 42.8565 9.4989 41.8467 9.62148C40.8369 9.74447 38.895 10.1362 37.5312 10.4928C36.1678 10.8489 34.5803 11.2121 34.0034 11.2999C33.4269 11.3873 31.4608 11.8523 29.6347 12.3331C25.7898 13.3457 25.3635 13.4455 22.579 13.9813C21.4377 14.2008 18.4494 14.8725 15.9384 15.4738C13.4275 16.0751 10.8127 16.6652 10.1279 16.7857C9.44312 16.9063 8.66659 17.1758 8.40263 17.3854C8.13825 17.5949 7.01765 17.9349 5.9124 18.1411C0.78379 19.0969 0.143369 19.5313 0.0151227 22.1419C-0.0575088 23.6216 0.101885 23.9852 1.15027 24.7302C2.55226 25.7261 4.20785 25.8562 4.89971 25.0242C5.41021 24.4105 12.7871 22.0583 16.7685 21.2396C23.7245 19.8088 25.6254 19.3417 27.4827 18.6058C28.1252 18.3511 29.5355 18.1428 30.6162 18.1428C31.697 18.1428 32.7591 17.9697 32.9757 17.7585C33.3281 17.4152 36.4102 16.6897 41.8783 15.6631C42.9055 15.4705 44.5864 15.092 45.6136 14.8224C46.6408 14.5528 48.5085 14.171 49.764 13.9739C51.0195 13.7763 52.9805 13.4306 54.1219 13.2057C55.2632 12.9804 57.878 12.5311 59.9324 12.2077C61.9868 11.8838 64.4148 11.4246 65.3279 11.1869C66.241 10.9492 68.0152 10.6311 69.2707 10.4799C71.4464 10.2182 76.0267 9.44672 80.0617 8.66279C81.0889 8.46319 83.3301 8.19194 85.0421 8.05984C87.9038 7.83911 88.0545 7.86522 86.9098 8.38577C86.225 8.69718 85.5302 8.86945 85.3654 8.76799C85.2011 8.66694 84.5474 8.84128 83.9128 9.15559C83.2786 9.46991 81.0785 10.0522 79.0241 10.4493C76.9697 10.8469 74.9152 11.3334 74.4587 11.5314C74.0022 11.7289 72.508 12.1857 71.1384 12.5468C69.7688 12.9079 67.9945 13.3954 67.1955 13.6302C66.3966 13.8646 65.0892 14.2198 64.2903 14.4195C63.4913 14.6191 60.7832 15.4647 58.2722 16.2987C53.7629 17.7966 53.1328 18.0198 50.9178 18.9048C50.2969 19.1529 48.6675 19.6461 47.2962 20.0006C45.9253 20.355 43.5384 21.2334 41.992 21.9527C40.4456 22.672 38.7331 23.2269 38.1861 23.1859C37.6391 23.1449 36.9854 23.2808 36.7335 23.4878C35.8059 24.2494 30.4232 26.7557 29.1204 27.0319C28.3813 27.1888 27.657 27.5098 27.5109 27.7458C27.3653 27.9814 26.2505 28.6134 25.0344 29.1501C21.202 30.8409 20.32 33.9029 22.9189 36.4961C23.7237 37.2991 24.1761 37.3637 28.1601 37.2477C30.5586 37.1778 32.8275 36.957 33.2019 36.757C33.5767 36.557 33.9942 36.5036 34.1295 36.639C34.2648 36.774 35.2406 36.6672 36.2973 36.4017C38.096 35.9499 44.901 34.8372 48.0586 34.479C48.8326 34.3912 50.0466 34.1398 50.7563 33.9207C51.466 33.7016 53.2607 33.4006 54.7444 33.2523C56.2282 33.1037 58.3631 32.7181 59.4891 32.3955C60.6147 32.0729 62.3545 31.8087 63.3552 31.8087C64.3563 31.8087 65.5661 31.5996 66.0446 31.3445C66.5228 31.089 68.0879 30.8086 69.5222 30.7217C70.9566 30.6347 72.6197 30.3775 73.2177 30.1506C73.8158 29.9236 74.8999 29.7505 75.627 29.7663C76.9402 29.794 76.9423 29.7969 75.9113 30.2367C75.3406 30.4798 74.2852 30.9333 73.5659 31.2439C72.8467 31.5544 71.9074 31.8087 71.4791 31.8087C71.0508 31.8087 70.332 32.0551 69.8821 32.3562C68.8781 33.0271 63.7296 34.7076 62.6774 34.7076C62.2566 34.7076 61.4352 35.0819 60.8525 35.5391C60.2698 35.9963 58.8906 36.4887 57.7875 36.6332C56.6847 36.7777 55.0889 37.242 54.2422 37.6652C53.3951 38.0884 52.4908 38.4346 52.2326 38.4346C51.974 38.4346 51.2876 38.8073 50.7074 39.2629C50.1267 39.7184 49.246 40.0911 48.7496 40.0911C48.2537 40.0911 47.485 40.3648 47.0417 40.699C46.5989 41.0336 45.839 41.3132 45.353 41.3202C44.8674 41.3277 44.2203 41.6337 43.9149 42.001C43.3056 42.7336 38.7227 45.0605 37.8893 45.0605C37.603 45.0605 36.4093 45.9923 35.2377 47.1311C34.066 48.2699 32.8396 49.2017 32.5121 49.2017C32.1851 49.2017 31.902 49.3413 31.8834 49.5123C31.8647 49.6833 31.7688 50.3045 31.6709 50.8926C31.5447 51.6496 31.6758 51.9626 32.1199 51.9626C32.4652 51.9626 32.7475 51.7941 32.7475 51.5879C32.7475 51.3816 33.0367 50.9244 33.3904 50.5716C33.9714 49.9922 34.0071 50.0349 33.7614 51.0114C33.4966 52.0649 33.534 52.0885 35.2244 51.9258C36.1786 51.8343 37.2722 51.51 37.6548 51.2052C38.7916 50.2995 40.1638 49.6158 40.8436 49.6158C41.1939 49.6158 43.1105 48.8489 45.1035 47.9113C52.0749 44.6311 53.7193 43.908 55.367 43.397C56.2801 43.1137 57.2554 42.7013 57.5343 42.481C57.8132 42.2602 58.6537 41.9194 59.402 41.7231C60.7234 41.3765 64.9577 39.8733 67.3263 38.91C67.9688 38.6483 68.7577 38.4346 69.0794 38.4346C69.401 38.4346 71.0765 37.8747 72.8023 37.1906C75.4162 36.1549 77.9902 35.3884 80.2692 34.968C80.4975 34.9258 80.871 34.7804 81.0993 34.6446C81.3276 34.5092 83.382 33.7977 85.6647 33.0643C87.9474 32.3309 90.0018 31.5793 90.2301 31.3938C90.4584 31.2087 91.7425 30.8554 93.0835 30.609C94.4245 30.3626 96.0875 29.8797 96.779 29.5356C97.47 29.1915 98.3341 28.9041 98.6985 28.8966C99.8731 28.8735 101.685 26.9072 101.932 25.387C102.085 24.4486 102.002 23.9405 101.698 23.9405C101.44 23.9405 101.229 23.6676 101.229 23.3338C101.229 22.0044 99.6045 21.8459 91.8903 22.4219C88.9555 22.6414 87.2277 22.8538 76.3264 24.3376C71.0678 25.0532 66.8486 25.7328 62.4226 26.5759C61.7378 26.7068 60.2985 26.9014 59.2243 27.0091C58.1502 27.1167 56.9122 27.3963 56.4739 27.6307C56.0352 27.8647 55.1399 28.0394 54.4842 28.0187C53.8284 27.998 52.0778 28.2063 50.5941 28.4821C49.1103 28.7579 47.2003 29.0441 46.3499 29.1182C45.4995 29.1923 44.1921 29.4507 43.4446 29.6922C42.6971 29.934 41.7123 30.1295 41.2557 30.127C40.7992 30.1245 39.3984 30.2355 38.1429 30.3734L35.8602 30.6239L38.3505 29.4035C39.7201 28.7322 42.615 27.5946 44.7835 26.8753C46.9521 26.1564 49.0775 25.3712 49.5067 25.1311C49.9358 24.8909 50.7763 24.6134 51.3743 24.5149C52.9042 24.2622 57.5223 22.7582 59.6323 21.826C60.6085 21.3945 61.8225 21.035 62.33 21.0272C62.8376 21.0189 63.7196 20.746 64.2903 20.4205C64.861 20.095 65.8442 19.822 66.475 19.8138C67.1059 19.8059 67.9463 19.6229 68.3427 19.4075C69.5152 18.7706 75.6171 17.0036 76.7414 16.9758C77.9682 16.9452 80.8839 16.0851 81.6102 15.5392C81.8912 15.328 83.1985 15.0025 84.5155 14.8158C85.8324 14.629 88.0304 14.1689 89.4 13.7937C90.7696 13.4181 92.5439 12.9572 93.3429 12.7688C97.8332 11.7111 102.686 10.5516 105.794 9.79499C107.734 9.32248 109.975 8.84294 110.774 8.72947C111.573 8.616 112.507 8.28596 112.85 7.99566C113.192 7.70536 114.09 7.33679 114.846 7.17652C116.415 6.84316 117 5.76065 117 3.18649C117 1.6733 116.871 1.48033 115.444 0.871577C114.039 0.272347 107.794 -0.279688 107.357 0.157207Z" fill="url(#paint0_linear_1537_4622)"/>
<defs>
<linearGradient id="paint0_linear_1537_4622" x1="-8.71718e-07" y1="26.0002" x2="67.8068" y2="26.0002" gradientUnits="userSpaceOnUse">
<stop stop-color="#FFE04A"/>
<stop offset="1" stop-color="#FDEBC8"/>
</linearGradient>
</defs>
</svg>
