<svg width="159" height="19" viewBox="0 0 159 19" fill="none" xmlns="http://www.w3.org/2000/svg">
<path fill-rule="evenodd" clip-rule="evenodd" d="M120.059 3.32203C119.921 3.39934 116.274 3.0796 111.954 2.61207C107.634 2.1442 103.038 1.71536 101.74 1.65879C100.442 1.60189 98.5301 1.52213 97.4913 1.48125C96.4525 1.44003 93.9064 1.30728 91.8335 1.1859C89.7605 1.06486 87.7381 1.01612 87.3392 1.07815C85.7808 1.3197 85.0493 1.30692 81.4835 0.975147C79.4534 0.786164 77.6424 0.754632 77.4591 0.905076C77.2759 1.05552 76.2796 1.11785 75.2447 1.04384C74.2098 0.969829 72.6513 0.985069 71.7813 1.0779C70.9114 1.17073 69.9027 1.1231 69.5403 0.972961C69.1775 0.822423 68.8671 0.81544 68.85 0.957526C68.8329 1.09927 68.163 1.17329 67.3608 1.12148C66.5591 1.06939 64.3599 1.16078 62.4731 1.32455C60.5869 1.48804 58.299 1.59819 57.3891 1.56976C52.9098 1.42813 48.989 1.53725 48.0432 1.82988C47.4655 2.00895 45.0967 2.17689 42.7792 2.20305C40.4621 2.22927 38.2389 2.30669 37.8392 2.37521C37.4395 2.44373 37.0046 2.50939 36.8726 2.52152C36.7407 2.53366 35.7868 2.70507 34.7524 2.9021C33.718 3.09914 32.3717 3.19995 31.76 3.12609C31.1483 3.05224 30.6334 3.11205 30.6157 3.25892C30.598 3.40578 30.0125 3.49173 29.3144 3.45007C28.6164 3.40806 27.9119 3.49765 27.7484 3.6491C27.4669 3.91 23.0939 4.02725 22.3668 3.79323C22.1787 3.73274 22.0046 3.84618 21.9806 4.04496C21.9566 4.24374 21.7517 4.29454 21.5253 4.1577C21.2989 4.02052 20.9603 4.05102 20.7727 4.2252C20.5851 4.39939 20.2624 4.43943 20.0559 4.31435C19.849 4.18922 19.2771 4.31249 18.7845 4.58846C18.292 4.86408 17.775 5.02795 17.6347 4.95176C16.9859 4.59966 13.302 5.191 13.2459 5.65619C13.1995 6.04044 13.043 6.05516 12.6105 5.716C12.0223 5.2548 10.8826 5.58154 10.8038 6.23424C10.784 6.39819 10.4243 6.72452 10.0045 6.95972C9.32619 7.33974 9.24842 7.32758 9.30603 6.85043C9.39251 6.13419 9.29676 6.14135 6.73964 7.03957C4.98963 7.6544 4.53467 7.9959 4.55483 8.68169C4.56852 9.15775 4.3984 9.52532 4.17628 9.49851C3.95462 9.47174 3.74534 9.68038 3.71131 9.96216C3.67729 10.2439 3.45585 10.4511 3.21876 10.4225C2.55331 10.3421 1.76832 12.4465 2.37835 12.6754C2.66069 12.7812 2.75597 12.994 2.58979 13.1483C2.42362 13.3025 2.72135 13.4812 3.25071 13.5451C3.78008 13.609 4.19288 13.8328 4.16752 14.0429C4.14191 14.255 3.71946 14.2958 3.21553 14.1352C2.42792 13.8838 2.36508 13.9445 2.73425 14.6003C3.14663 15.3345 2.54925 15.8654 1.44284 15.7474C1.23441 15.725 1.18739 15.8943 1.33811 16.1235C1.53019 16.4149 1.74382 16.4179 2.05106 16.1327C2.39574 15.8125 2.54172 15.861 2.7315 16.36C2.91128 16.8319 3.13983 16.9194 3.62265 16.7008C4.07335 16.4968 4.35146 16.5276 4.53188 16.8016C4.67456 17.0188 4.56858 17.1696 4.29642 17.1367C4.02425 17.1038 3.77026 17.3331 3.73244 17.6463C3.69467 17.9591 3.81437 18.1309 3.99858 18.0277C4.18279 17.9245 4.60344 18.0519 4.93325 18.3107C5.38877 18.6679 5.68237 18.6922 6.15085 18.4116C6.63417 18.1221 6.64559 17.9921 6.20301 17.8146C5.14548 17.39 5.69603 17.0545 6.91942 17.3785C7.75987 17.601 8.04908 17.5673 7.85346 17.2699C7.68667 17.0165 7.87028 16.8751 8.29864 16.9269C9.51309 17.0735 9.72654 17.1564 9.58701 17.4279C9.51326 17.5711 9.87648 17.6594 10.3937 17.6237C10.9142 17.5878 11.3137 17.7296 11.2882 17.9403C11.2192 18.5121 13.0916 18.6245 13.4729 18.0714C13.6552 17.8075 14.1605 17.6346 14.5963 17.6872C16.2532 17.8873 17.8938 17.2627 17.9989 16.3921C18.0555 15.9235 18.3453 15.5115 18.6433 15.4757C18.9413 15.4403 19.2099 15.2038 19.2405 14.9504C19.304 14.4244 20.9867 14.1473 21.6566 14.5525C21.9019 14.701 22.1311 14.5869 22.1659 14.2987C22.2171 13.8745 22.4547 13.8675 23.4138 14.2629C24.517 14.7177 24.5899 14.6915 24.4789 13.8783C24.3726 13.1007 24.4556 13.057 25.2416 13.479C25.8998 13.8322 26.2339 13.8507 26.5551 13.5523C26.7923 13.3322 26.8849 12.9979 26.761 12.8096C26.405 12.2687 27.7617 12.0149 28.6008 12.4652C29.139 12.7544 29.4543 12.7367 29.6832 12.4046C29.8609 12.1468 30.3033 12.0591 30.6661 12.2097C31.0289 12.3602 33.077 12.1532 35.2171 11.7497C37.3572 11.3459 39.2163 11.1167 39.3485 11.2398C39.4807 11.3632 39.6102 11.2846 39.6367 11.0656C39.6631 10.8463 39.9747 10.702 40.3292 10.7448C40.6832 10.7876 41.2515 10.6316 41.5919 10.3979C41.9318 10.1645 42.5002 10.0938 42.8548 10.241C43.2095 10.3884 43.8819 10.4346 44.3497 10.3442C45.5919 10.1043 45.5505 10.1087 47.2351 10.0245C48.0886 9.98162 48.8027 9.8121 48.8225 9.64781C48.8423 9.48353 49.2668 9.39825 49.7663 9.45855C50.2657 9.51885 50.8225 9.43014 51.0042 9.26148C51.1859 9.09283 52.4792 9.09305 53.8789 9.26204C55.6896 9.48066 56.6828 9.42386 57.324 9.06464C57.8573 8.76587 58.7853 8.65995 59.6 8.8051C60.3566 8.93977 61.6226 8.89926 62.4135 8.71441C63.2044 8.52991 64.2345 8.51809 64.7022 8.68788C65.1704 8.85738 66.0913 8.8147 66.7487 8.59225C67.4056 8.36974 68.3857 8.24134 68.9263 8.30662C69.4664 8.37183 70.2844 8.32817 70.7442 8.20973C71.2036 8.09124 73.6883 8.14625 76.2659 8.33202C78.8435 8.51779 81.1092 8.52383 81.301 8.34566C81.4929 8.16715 81.8631 8.15051 82.1235 8.30809C82.384 8.46567 83.6926 8.46878 85.0316 8.31476C86.3706 8.16108 88.0523 8.19468 88.7684 8.38926C89.5499 8.60144 90.4779 8.59359 91.0872 8.36913C91.756 8.12311 92.881 8.13834 94.3825 8.4139C95.6367 8.644 98.1417 8.85011 99.9495 8.87191C106.37 8.94926 113.872 9.71598 126.869 11.6239C139.725 13.5109 140.726 13.7142 148.635 16.0458C150.524 16.6029 152.657 17.1292 153.373 17.2154C154.969 17.4074 156.956 16.4295 157.394 15.2357C157.573 14.7482 157.912 14.0607 158.146 13.7078C158.488 13.1946 158.46 13.1566 158.007 13.5177C157.514 13.9101 157.448 13.8935 157.502 13.3906C157.537 13.0725 157.801 12.7382 158.09 12.6476C158.883 12.3992 157.359 11.0137 156.13 10.8654C155.561 10.7967 154.611 10.3781 154.018 9.93502C153.18 9.30842 151.353 8.80721 145.805 7.68057C141.88 6.88378 137.936 6.12195 137.039 5.98799C136.141 5.85402 135.172 5.60083 134.886 5.42585C134.3 5.06818 120.45 3.10313 120.059 3.32203ZM4.3752 7.03755C3.90816 7.32977 3.50603 7.78784 3.48126 8.05584C3.45305 8.36812 3.65943 8.32096 4.05602 7.92459C4.39646 7.58451 5.0281 7.159 5.46023 6.979C5.89237 6.799 6.01613 6.61885 5.73531 6.57905C5.45453 6.53891 4.84224 6.74532 4.3752 7.03755ZM8.80008 7.11127C8.78874 7.20519 8.67424 7.26934 8.54564 7.25381C8.41704 7.23829 8.3211 7.14873 8.33244 7.05481C8.34379 6.96088 8.45828 6.89673 8.58688 6.91226C8.71548 6.92779 8.81142 7.01734 8.80008 7.11127ZM7.27345 7.96653C7.26211 8.06046 7.14761 8.12461 7.01901 8.10908C6.89041 8.09355 6.79447 8.004 6.80581 7.91007C6.81716 7.81615 6.93165 7.752 7.06025 7.76753C7.18885 7.78305 7.28479 7.87261 7.27345 7.96653ZM5.54297 9.2016C5.35626 9.30588 5.22834 9.18648 5.25856 8.93612C5.28879 8.68576 5.44146 8.60023 5.59798 8.74596C5.75401 8.89197 5.72926 9.09691 5.54297 9.2016ZM5.99008 10.7366C5.94142 11.1397 4.97748 11.4606 4.67171 11.1756C4.36645 10.8903 5.03702 10.2955 5.58884 10.3621C5.83107 10.3914 6.01144 10.5597 5.99008 10.7366ZM2.955 12.2966C2.94366 12.3905 2.82916 12.4546 2.70056 12.4391C2.57196 12.4236 2.47602 12.334 2.48736 12.2401C2.49871 12.1462 2.6132 12.082 2.7418 12.0976C2.8704 12.1131 2.96634 12.2026 2.955 12.2966ZM0.706296 13.2379C0.842611 13.445 1.05927 13.6271 1.18787 13.6426C1.31647 13.6581 1.31025 13.5014 1.17393 13.2944C1.03762 13.0873 0.820956 12.9052 0.692355 12.8897C0.563755 12.8742 0.56998 13.0309 0.706296 13.2379ZM19.0955 16.1513C18.7747 16.4937 18.6179 16.7867 18.7465 16.8022C18.8751 16.8177 19.2423 16.5502 19.5631 16.2078C19.884 15.8653 20.0408 15.5724 19.9122 15.5568C19.7836 15.5413 19.4163 15.8088 19.0955 16.1513ZM0.816397 14.2908C0.793716 14.4787 0.998221 14.6593 1.27039 14.6921C1.54255 14.725 1.65417 14.5825 1.51785 14.3755C1.38154 14.1684 1.1775 13.9879 1.06387 13.9741C0.95023 13.9604 0.839079 14.1029 0.816397 14.2908ZM8.26178 15.4992C8.24153 15.6669 7.90974 15.8528 7.52441 15.9123C7.05593 15.9846 6.92972 15.8668 7.14364 15.5569C7.49273 15.0508 8.32108 15.0081 8.26178 15.4992ZM13.3808 16.3276C13.3694 16.4215 13.2549 16.4857 13.1263 16.4702C12.9977 16.4546 12.9018 16.3651 12.9131 16.2712C12.9245 16.1772 13.039 16.1131 13.1676 16.1286C13.2962 16.1441 13.3921 16.2337 13.3808 16.3276ZM5.03227 15.7223C4.69954 15.7785 4.17344 15.7149 3.86317 15.5811C3.55333 15.4477 3.8255 15.4019 4.46851 15.4796C5.11151 15.5572 5.36543 15.6665 5.03227 15.7223ZM11.2145 16.5859C11.0329 16.7545 10.6865 16.8686 10.4442 16.8394C10.202 16.8101 10.0228 16.6326 10.0454 16.4447C10.0681 16.2569 10.415 16.1428 10.8157 16.1912C11.2165 16.2396 11.3962 16.4172 11.2145 16.5859ZM13.1357 17.049C12.949 17.1533 12.6684 17.1194 12.5118 16.9736C12.3558 16.8276 12.5085 16.7421 12.8513 16.7835C13.194 16.8249 13.322 16.9443 13.1357 17.049ZM2.76282 17.8179C2.75147 17.9118 2.84741 18.0013 2.97601 18.0169C3.10462 18.0324 3.21911 17.9682 3.23045 17.8743C3.24179 17.7804 3.14585 17.6908 3.01725 17.6753C2.88865 17.6598 2.77416 17.7239 2.76282 17.8179Z" fill="black"/>
<path fill-rule="evenodd" clip-rule="evenodd" d="M120.059 3.32203C119.921 3.39934 116.274 3.0796 111.954 2.61207C107.634 2.1442 103.038 1.71536 101.74 1.65879C100.442 1.60189 98.5301 1.52213 97.4913 1.48125C96.4525 1.44003 93.9064 1.30728 91.8335 1.1859C89.7605 1.06486 87.7381 1.01612 87.3392 1.07815C85.7808 1.3197 85.0493 1.30692 81.4835 0.975147C79.4534 0.786164 77.6424 0.754632 77.4591 0.905076C77.2759 1.05552 76.2796 1.11785 75.2447 1.04384C74.2098 0.969829 72.6513 0.985069 71.7813 1.0779C70.9114 1.17073 69.9027 1.1231 69.5403 0.972961C69.1775 0.822423 68.8671 0.81544 68.85 0.957526C68.8329 1.09927 68.163 1.17329 67.3608 1.12148C66.5591 1.06939 64.3599 1.16078 62.4731 1.32455C60.5869 1.48804 58.299 1.59819 57.3891 1.56976C52.9098 1.42813 48.989 1.53725 48.0432 1.82988C47.4655 2.00895 45.0967 2.17689 42.7792 2.20305C40.4621 2.22927 38.2389 2.30669 37.8392 2.37521C37.4395 2.44373 37.0046 2.50939 36.8726 2.52152C36.7407 2.53366 35.7868 2.70507 34.7524 2.9021C33.718 3.09914 32.3717 3.19995 31.76 3.12609C31.1483 3.05224 30.6334 3.11205 30.6157 3.25892C30.598 3.40578 30.0125 3.49173 29.3144 3.45007C28.6164 3.40806 27.9119 3.49765 27.7484 3.6491C27.4669 3.91 23.0939 4.02725 22.3668 3.79323C22.1787 3.73274 22.0046 3.84618 21.9806 4.04496C21.9566 4.24374 21.7517 4.29454 21.5253 4.1577C21.2989 4.02052 20.9603 4.05102 20.7727 4.2252C20.5851 4.39939 20.2624 4.43943 20.0559 4.31435C19.849 4.18922 19.2771 4.31249 18.7845 4.58846C18.292 4.86408 17.775 5.02795 17.6347 4.95176C16.9859 4.59966 13.302 5.191 13.2459 5.65619C13.1995 6.04044 13.043 6.05516 12.6105 5.716C12.0223 5.2548 10.8826 5.58154 10.8038 6.23424C10.784 6.39819 10.4243 6.72452 10.0045 6.95972C9.32619 7.33974 9.24842 7.32758 9.30603 6.85043C9.39251 6.13419 9.29676 6.14135 6.73964 7.03957C4.98963 7.6544 4.53467 7.9959 4.55483 8.68169C4.56852 9.15775 4.3984 9.52532 4.17628 9.49851C3.95462 9.47174 3.74534 9.68038 3.71131 9.96216C3.67729 10.2439 3.45585 10.4511 3.21876 10.4225C2.55331 10.3421 1.76832 12.4465 2.37835 12.6754C2.66069 12.7812 2.75597 12.994 2.58979 13.1483C2.42362 13.3025 2.72135 13.4812 3.25071 13.5451C3.78008 13.609 4.19288 13.8328 4.16752 14.0429C4.14191 14.255 3.71946 14.2958 3.21553 14.1352C2.42792 13.8838 2.36508 13.9445 2.73425 14.6003C3.14663 15.3345 2.54925 15.8654 1.44284 15.7474C1.23441 15.725 1.18739 15.8943 1.33811 16.1235C1.53019 16.4149 1.74382 16.4179 2.05106 16.1327C2.39574 15.8125 2.54172 15.861 2.7315 16.36C2.91128 16.8319 3.13983 16.9194 3.62265 16.7008C4.07335 16.4968 4.35146 16.5276 4.53188 16.8016C4.67456 17.0188 4.56858 17.1696 4.29642 17.1367C4.02425 17.1038 3.77026 17.3331 3.73244 17.6463C3.69467 17.9591 3.81437 18.1309 3.99858 18.0277C4.18279 17.9245 4.60344 18.0519 4.93325 18.3107C5.38877 18.6679 5.68237 18.6922 6.15085 18.4116C6.63417 18.1221 6.64559 17.9921 6.20301 17.8146C5.14548 17.39 5.69603 17.0545 6.91942 17.3785C7.75987 17.601 8.04908 17.5673 7.85346 17.2699C7.68667 17.0165 7.87028 16.8751 8.29864 16.9269C9.51309 17.0735 9.72654 17.1564 9.58701 17.4279C9.51326 17.5711 9.87648 17.6594 10.3937 17.6237C10.9142 17.5878 11.3137 17.7296 11.2882 17.9403C11.2192 18.5121 13.0916 18.6245 13.4729 18.0714C13.6552 17.8075 14.1605 17.6346 14.5963 17.6872C16.2532 17.8873 17.8938 17.2627 17.9989 16.3921C18.0555 15.9235 18.3453 15.5115 18.6433 15.4757C18.9413 15.4403 19.2099 15.2038 19.2405 14.9504C19.304 14.4244 20.9867 14.1473 21.6566 14.5525C21.9019 14.701 22.1311 14.5869 22.1659 14.2987C22.2171 13.8745 22.4547 13.8675 23.4138 14.2629C24.517 14.7177 24.5899 14.6915 24.4789 13.8783C24.3726 13.1007 24.4556 13.057 25.2416 13.479C25.8998 13.8322 26.2339 13.8507 26.5551 13.5523C26.7923 13.3322 26.8849 12.9979 26.761 12.8096C26.405 12.2687 27.7617 12.0149 28.6008 12.4652C29.139 12.7544 29.4543 12.7367 29.6832 12.4046C29.8609 12.1468 30.3033 12.0591 30.6661 12.2097C31.0289 12.3602 33.077 12.1532 35.2171 11.7497C37.3572 11.3459 39.2163 11.1167 39.3485 11.2398C39.4807 11.3632 39.6102 11.2846 39.6367 11.0656C39.6631 10.8463 39.9747 10.702 40.3292 10.7448C40.6832 10.7876 41.2515 10.6316 41.5919 10.3979C41.9318 10.1645 42.5002 10.0938 42.8548 10.241C43.2095 10.3884 43.8819 10.4346 44.3497 10.3442C45.5919 10.1043 45.5505 10.1087 47.2351 10.0245C48.0886 9.98162 48.8027 9.8121 48.8225 9.64781C48.8423 9.48353 49.2668 9.39825 49.7663 9.45855C50.2657 9.51885 50.8225 9.43014 51.0042 9.26148C51.1859 9.09283 52.4792 9.09305 53.8789 9.26204C55.6896 9.48066 56.6828 9.42386 57.324 9.06464C57.8573 8.76587 58.7853 8.65995 59.6 8.8051C60.3566 8.93977 61.6226 8.89926 62.4135 8.71441C63.2044 8.52991 64.2345 8.51809 64.7022 8.68788C65.1704 8.85738 66.0913 8.8147 66.7487 8.59225C67.4056 8.36974 68.3857 8.24134 68.9263 8.30662C69.4664 8.37183 70.2844 8.32817 70.7442 8.20973C71.2036 8.09124 73.6883 8.14625 76.2659 8.33202C78.8435 8.51779 81.1092 8.52383 81.301 8.34566C81.4929 8.16715 81.8631 8.15051 82.1235 8.30809C82.384 8.46567 83.6926 8.46878 85.0316 8.31476C86.3706 8.16108 88.0523 8.19468 88.7684 8.38926C89.5499 8.60144 90.4779 8.59359 91.0872 8.36913C91.756 8.12311 92.881 8.13834 94.3825 8.4139C95.6367 8.644 98.1417 8.85011 99.9495 8.87191C106.37 8.94926 113.872 9.71598 126.869 11.6239C139.725 13.5109 140.726 13.7142 148.635 16.0458C150.524 16.6029 152.657 17.1292 153.373 17.2154C154.969 17.4074 156.956 16.4295 157.394 15.2357C157.573 14.7482 157.912 14.0607 158.146 13.7078C158.488 13.1946 158.46 13.1566 158.007 13.5177C157.514 13.9101 157.448 13.8935 157.502 13.3906C157.537 13.0725 157.801 12.7382 158.09 12.6476C158.883 12.3992 157.359 11.0137 156.13 10.8654C155.561 10.7967 154.611 10.3781 154.018 9.93502C153.18 9.30842 151.353 8.80721 145.805 7.68057C141.88 6.88378 137.936 6.12195 137.039 5.98799C136.141 5.85402 135.172 5.60083 134.886 5.42585C134.3 5.06818 120.45 3.10313 120.059 3.32203ZM4.3752 7.03755C3.90816 7.32977 3.50603 7.78784 3.48126 8.05584C3.45305 8.36812 3.65943 8.32096 4.05602 7.92459C4.39646 7.58451 5.0281 7.159 5.46023 6.979C5.89237 6.799 6.01613 6.61885 5.73531 6.57905C5.45453 6.53891 4.84224 6.74532 4.3752 7.03755ZM8.80008 7.11127C8.78874 7.20519 8.67424 7.26934 8.54564 7.25381C8.41704 7.23829 8.3211 7.14873 8.33244 7.05481C8.34379 6.96088 8.45828 6.89673 8.58688 6.91226C8.71548 6.92779 8.81142 7.01734 8.80008 7.11127ZM7.27345 7.96653C7.26211 8.06046 7.14761 8.12461 7.01901 8.10908C6.89041 8.09355 6.79447 8.004 6.80581 7.91007C6.81716 7.81615 6.93165 7.752 7.06025 7.76753C7.18885 7.78305 7.28479 7.87261 7.27345 7.96653ZM5.54297 9.2016C5.35626 9.30588 5.22834 9.18648 5.25856 8.93612C5.28879 8.68576 5.44146 8.60023 5.59798 8.74596C5.75401 8.89197 5.72926 9.09691 5.54297 9.2016ZM5.99008 10.7366C5.94142 11.1397 4.97748 11.4606 4.67171 11.1756C4.36645 10.8903 5.03702 10.2955 5.58884 10.3621C5.83107 10.3914 6.01144 10.5597 5.99008 10.7366ZM2.955 12.2966C2.94366 12.3905 2.82916 12.4546 2.70056 12.4391C2.57196 12.4236 2.47602 12.334 2.48736 12.2401C2.49871 12.1462 2.6132 12.082 2.7418 12.0976C2.8704 12.1131 2.96634 12.2026 2.955 12.2966ZM0.706296 13.2379C0.842611 13.445 1.05927 13.6271 1.18787 13.6426C1.31647 13.6581 1.31025 13.5014 1.17393 13.2944C1.03762 13.0873 0.820956 12.9052 0.692355 12.8897C0.563755 12.8742 0.56998 13.0309 0.706296 13.2379ZM19.0955 16.1513C18.7747 16.4937 18.6179 16.7867 18.7465 16.8022C18.8751 16.8177 19.2423 16.5502 19.5631 16.2078C19.884 15.8653 20.0408 15.5724 19.9122 15.5568C19.7836 15.5413 19.4163 15.8088 19.0955 16.1513ZM0.816397 14.2908C0.793716 14.4787 0.998221 14.6593 1.27039 14.6921C1.54255 14.725 1.65417 14.5825 1.51785 14.3755C1.38154 14.1684 1.1775 13.9879 1.06387 13.9741C0.95023 13.9604 0.839079 14.1029 0.816397 14.2908ZM8.26178 15.4992C8.24153 15.6669 7.90974 15.8528 7.52441 15.9123C7.05593 15.9846 6.92972 15.8668 7.14364 15.5569C7.49273 15.0508 8.32108 15.0081 8.26178 15.4992ZM13.3808 16.3276C13.3694 16.4215 13.2549 16.4857 13.1263 16.4702C12.9977 16.4546 12.9018 16.3651 12.9131 16.2712C12.9245 16.1772 13.039 16.1131 13.1676 16.1286C13.2962 16.1441 13.3921 16.2337 13.3808 16.3276ZM5.03227 15.7223C4.69954 15.7785 4.17344 15.7149 3.86317 15.5811C3.55333 15.4477 3.8255 15.4019 4.46851 15.4796C5.11151 15.5572 5.36543 15.6665 5.03227 15.7223ZM11.2145 16.5859C11.0329 16.7545 10.6865 16.8686 10.4442 16.8394C10.202 16.8101 10.0228 16.6326 10.0454 16.4447C10.0681 16.2569 10.415 16.1428 10.8157 16.1912C11.2165 16.2396 11.3962 16.4172 11.2145 16.5859ZM13.1357 17.049C12.949 17.1533 12.6684 17.1194 12.5118 16.9736C12.3558 16.8276 12.5085 16.7421 12.8513 16.7835C13.194 16.8249 13.322 16.9443 13.1357 17.049ZM2.76282 17.8179C2.75147 17.9118 2.84741 18.0013 2.97601 18.0169C3.10462 18.0324 3.21911 17.9682 3.23045 17.8743C3.24179 17.7804 3.14585 17.6908 3.01725 17.6753C2.88865 17.6598 2.77416 17.7239 2.76282 17.8179Z" fill="url(#paint0_linear_1537_4625)" fill-opacity="0.87"/>
<defs>
<linearGradient id="paint0_linear_1537_4625" x1="1.73809" y1="3.53681" x2="119.285" y2="17.7294" gradientUnits="userSpaceOnUse">
<stop stop-color="#037FF3"/>
<stop offset="1" stop-color="#43AFDE"/>
</linearGradient>
</defs>
</svg>
