<svg width="158" height="125" viewBox="0 0 158 125" fill="none" xmlns="http://www.w3.org/2000/svg">
<path fill-rule="evenodd" clip-rule="evenodd" d="M5.27202 72.387L25.0521 63.0394C27.0678 58.4221 29.8379 53.846 33.9547 48.7874L27.3663 36.1917C26.8125 34.9101 27.3762 32.9943 28.8566 31.6848L30.9293 29.8514L33.0019 28.018C35.0077 26.5982 36.8797 26.0052 38.6178 26.2392L55.8657 29.4061C61.2239 26.0838 67.0404 23.0645 72.7232 20.8722L81.9603 4.55277C82.4571 3.05045 84.4629 1.63057 86.564 1.18919C87.8335 0.78707 89.0723 0.575117 90.2296 0.377089C90.7789 0.283115 91.3098 0.192276 91.8169 0.0857402C93.3928 -0.245295 95.0641 0.402167 95.6178 1.6838L99.9714 15.5477C105.32 15.4228 110.534 16.1248 115.156 17.3506L134.679 6.45951C136.618 5.4531 138.948 5.16328 140.094 5.9211L141.698 6.98204L143.303 8.04298C144.153 9.0627 144.41 10.6062 143.092 12.4808L131.821 28.8282C134.074 32.1492 135.736 35.9941 136.347 40.0597L154.387 41.4624C156.192 41.283 157.271 42.4542 157.004 44.1081C157.023 45.0521 156.801 46.0468 156.593 46.9762C156.495 47.4173 156.399 47.8436 156.335 48.2428C156.134 49.4832 154.587 51.2063 152.648 52.2127L132.868 61.5602C130.852 66.1775 127.786 71.0155 124.261 75.5504L130.85 88.146C131.404 89.4277 130.84 91.3434 129.359 92.653L127.287 94.4863L125.214 96.3197C123.208 97.7396 121.336 98.3325 119.598 98.0985L102.35 94.9316C96.9921 98.254 91.1756 101.273 85.4928 103.466L76.2557 119.785C75.7589 121.287 73.7531 122.707 71.652 123.149C70.3825 123.551 69.1437 123.763 67.9864 123.961C67.4371 124.055 66.9062 124.145 66.3991 124.252C64.8232 124.583 63.1519 123.936 62.5982 122.654L58.1778 109.203C52.8295 109.328 47.615 108.626 42.9926 107.401L23.5372 117.878C21.5983 118.885 19.2679 119.174 18.122 118.417L16.5176 117.356L14.9132 116.295C13.8341 115.123 13.8057 113.732 14.8277 112.119L26.0991 95.7715C23.8455 92.4504 22.1842 88.6055 21.5734 84.5399L3.53265 83.1372C1.72759 83.3167 0.648513 82.1454 0.916104 80.4915C0.896776 79.5475 1.11904 78.5528 1.3267 77.6234C1.42525 77.1823 1.5205 76.756 1.58509 76.3568C1.78578 75.1164 3.33316 73.3934 5.27202 72.387ZM68.6628 82.7904C81.4399 82.7904 96.1932 73.4114 101.615 61.8418C107.037 50.2722 101.075 40.8932 88.2978 40.8932C75.5207 40.8932 60.7674 50.2722 55.3454 61.8418C49.9233 73.4114 55.8858 82.7904 68.6628 82.7904Z" fill="#23FE1F"/>
</svg>
