<svg width="63" height="79" viewBox="0 0 63 79" fill="none" xmlns="http://www.w3.org/2000/svg">
    <path fill-rule="evenodd" clip-rule="evenodd" d="M51.4255 0.548073C49.6456 1.26451 47.2692 5.27228 46.5516 8.76785C46.0147 11.3846 46.0938 12.0621 47.2393 14.6554C48.7519 18.0798 50.7291 19.4685 54.0939 19.4685C59.7686 19.4685 64.3546 12.1396 62.6171 5.84708C62.2965 4.68496 61.1103 2.89123 59.9757 1.85186C58.2566 0.277301 57.4851 -0.028418 55.3043 0.00198325C53.8674 0.0220595 52.1219 0.268152 51.4255 0.548073ZM56.876 8.31874C57.1576 10.2897 54.8964 14.8797 53.6437 14.8797C52.0938 14.8797 50.5571 11.5992 51.3836 10.0545C52.9949 7.04418 56.5335 5.92565 56.876 8.31874ZM18.9582 37.5034C12.1385 39.4628 8.14504 42.3503 4.24049 48.1461C0.416248 53.8225 -0.54512 57.7092 0.267109 64.2099C1.2996 72.4716 4.45905 76.9125 9.9221 77.781C15.8859 78.7291 19.4067 77.1156 28.2752 69.3713C32.7012 65.5063 34.1938 62.4444 35.2045 55.1538C35.8096 50.787 35.8073 49.2348 35.1935 46.5497C34.1295 41.8983 32.5601 39.2953 30.1148 38.1234C27.3495 36.7989 22.3746 36.5225 18.9582 37.5034ZM26.7598 44.3213C30.0861 48.6973 30.5703 50.865 29.2814 55.6058C28.0992 59.9543 22.4428 67.6137 19.3195 69.0959C15.7293 70.7995 7.16934 69.0059 7.04544 66.5239C7.02135 66.0398 6.91237 65.173 6.80338 64.5977C6.35597 62.2367 9.97945 54.263 12.5005 52.0621C14.0504 50.7084 14.2482 50.1927 14.1645 47.7245C14.0567 44.5358 14.488 44.0981 19.3843 42.426C22.912 41.222 24.7659 41.6981 26.7598 44.3213Z" fill="#FD73C5" />
</svg>
    