<svg width="39" height="42" viewBox="0 0 39 42" fill="none" xmlns="http://www.w3.org/2000/svg">
    <path fill-rule="evenodd" clip-rule="evenodd" d="M28.3406 5.20589C27.6344 5.07239 26.5588 5.18964 25.9506 5.46632C25.3421 5.74326 23.6485 6.19072 22.1874 6.46123C20.6073 6.75338 19.4679 7.15969 19.3758 7.46388C19.2909 7.74481 19.0244 7.95381 18.7842 7.92835C18.5436 7.90268 18.0591 8.1807 17.7075 8.54612C17.3557 8.91181 16.9308 9.22825 16.7632 9.24914C16.5957 9.27052 16.404 9.60912 16.3372 10.0022C16.2468 10.532 15.8454 10.8906 14.7855 11.3884C13.5471 11.97 12.8951 12.6315 9.91242 16.3307C8.01866 18.6794 6.48393 20.7196 6.50244 20.8644C6.52068 21.009 6.11088 21.6962 5.59182 22.3915C4.94459 23.2587 4.71372 23.8823 4.8558 24.3778C4.96973 24.7747 4.96201 25.1906 4.83822 25.3017C4.27357 25.809 4.16352 26.2707 4.59628 26.3168C4.92099 26.3515 4.88939 26.4749 4.49392 26.7147C3.75925 27.1594 2.99654 29.2768 3.48213 29.5236C3.69053 29.6295 3.62419 29.9488 3.33033 30.2561C2.73721 30.8765 3.43641 31.9697 4.96856 32.817C5.45789 33.0877 6.65835 33.7963 7.63598 34.3918C9.40551 35.4696 10.7702 35.6939 11.3115 34.9963C11.4679 34.7948 11.7183 34.7251 11.868 34.8413C12.0178 34.9575 12.3176 34.8242 12.5344 34.5448C12.7512 34.2654 13.4761 33.9008 14.1449 33.7344C15.8811 33.303 17.5448 32.1744 17.3293 31.5744C17.2319 31.3029 17.2837 31.2013 17.4542 31.3297C17.6141 31.4503 18.364 31.1946 19.1203 30.7619C19.8764 30.329 20.7757 29.8515 21.1183 29.7007C21.4611 29.5501 22.3552 28.6358 23.1053 27.6691C23.8555 26.7024 24.6536 25.9309 24.8787 25.9551C25.104 25.979 25.3085 25.81 25.3331 25.5786C25.3578 25.3478 25.5681 25.1791 25.8007 25.2038C26.4127 25.2691 29.9641 22.1565 29.9606 21.5578C29.959 21.2704 30.2693 20.8721 30.7023 20.6065C31.1118 20.3549 31.5565 19.7981 31.6903 19.3693C31.8602 18.8253 32.1575 18.5609 32.6731 18.4959C33.0798 18.4446 33.3057 18.3197 33.1753 18.2185C33.0446 18.1171 33.3463 17.2021 33.8454 16.185C34.3626 15.1318 34.6836 13.9433 34.5916 13.4243C34.5029 12.9231 34.561 12.3444 34.721 12.1382C34.881 11.9321 34.8882 11.559 34.7371 11.3096C34.5791 11.0482 34.6745 10.7274 34.9618 10.5534C35.2779 10.3619 35.2983 10.2338 35.0177 10.2036C34.7739 10.1776 34.5971 9.9388 34.6258 9.67308C34.6618 9.33543 34.4915 9.30017 34.0627 9.55594C33.6469 9.80392 33.5445 9.78514 33.7464 9.49806C34.2136 8.83409 30.0516 5.52978 28.3406 5.20589Z" fill="#037FF3" />
</svg>
    