<svg width="250" height="244" viewBox="0 0 250 244" fill="none" xmlns="http://www.w3.org/2000/svg">
    <path fill-rule="evenodd" clip-rule="evenodd" d="M186.069 59.7234C185.099 59.7566 182.8 59.7006 180.96 59.5986C179.12 59.4968 177.354 59.4594 177.035 59.5158C176.277 59.6495 170.277 58.7762 169.735 58.4533C169.253 58.1659 167.606 57.954 167.478 58.1627C167.43 58.2398 166.888 58.039 166.272 57.7164C164.277 56.6702 162.992 56.1663 162.585 56.2695C162.365 56.3251 161.692 56.0764 161.089 55.717C160.486 55.3575 159.937 55.1561 159.87 55.2696C159.802 55.383 158.505 54.7556 156.986 53.8749C155.468 52.9945 153.778 52.1121 153.231 51.9141C152.684 51.7158 152.131 51.4702 152.002 51.368C151.872 51.2658 151.04 50.7056 150.152 50.1232C149.264 49.5405 148.213 48.6959 147.815 48.2462C147.418 47.7966 146.198 46.7129 145.104 45.8384C141.599 43.0363 140.07 41.3354 136.317 36.0635C134.666 33.7452 134.121 33.2431 132.874 32.89C131.993 32.6408 130.763 33.8015 130.479 35.1493C130.201 36.4709 130.444 38.482 130.916 38.7637C131.127 38.8889 131.489 39.5325 131.721 40.1939C131.954 40.8554 132.495 42.0695 132.923 42.8918C133.352 43.7141 133.783 44.9038 133.881 45.535C133.98 46.1664 134.235 47.3319 134.448 48.1247C135.62 52.4935 136.066 54.2051 136.313 55.2858C136.626 56.6527 136.924 59.384 136.754 59.3231C136.422 59.2039 136.304 60.9282 136.582 61.841C136.76 62.4231 136.837 63.1892 136.754 63.5438C136.671 63.8984 136.668 64.5549 136.748 65.0031C136.83 65.4604 136.539 66.7375 136.084 67.9154C135.639 69.0696 135.338 70.33 135.414 70.7168C135.491 71.1036 135.398 71.7163 135.209 72.0785C135.019 72.4406 134.532 73.6273 134.125 74.7155C133.205 77.1833 130.163 82.1232 128.861 83.2672C128.324 83.7393 127.317 84.7695 126.624 85.5565C125.931 86.3432 124.821 87.3817 124.157 87.8641C123.493 88.3466 122.642 89.1692 122.267 89.6923C121.892 90.2157 121.419 90.6462 121.217 90.6495C120.639 90.6586 117.581 92.6178 116.58 93.6205C116.082 94.1201 115.203 94.6868 114.628 94.8797C114.052 95.0723 113.481 95.3989 113.358 95.6051C113.039 96.14 109.841 98.1466 109.047 98.3097C108.037 98.5172 107.043 99.1539 107.05 99.5894C107.054 99.8251 106.983 99.8373 106.87 99.6205C106.754 99.3969 106.573 99.4495 106.388 99.7608C106.224 100.035 105.885 100.223 105.634 100.179C105.166 100.098 102.5 101.645 102.179 102.183C102.081 102.347 101.219 102.733 100.264 103.04C97.8418 103.818 97.7395 103.864 96.7471 104.599C96.2604 104.959 95.6568 105.256 95.4056 105.26C95.1542 105.263 94.2816 105.616 93.4658 106.044C92.6503 106.472 91.5342 106.993 90.9862 107.2C89.0729 107.925 86.6055 109.176 86.3958 109.528C86.2795 109.723 85.8694 109.889 85.4846 109.897C85.0997 109.905 84.6807 110.086 84.5535 110.299C84.4261 110.513 84.0131 110.657 83.6359 110.62C83.2584 110.582 82.5553 110.783 82.0738 111.066C81.592 111.349 81.091 111.595 80.9603 111.612C80.5768 111.662 78.5086 112.903 78.3414 113.184C78.2572 113.325 77.4034 113.648 76.4443 113.902C74.4447 114.432 73.5966 114.73 73.4959 114.939C73.4571 115.019 72.8581 115.248 72.1649 115.447C71.4712 115.647 70.8276 115.937 70.7342 116.092C70.6407 116.247 70.1457 116.419 69.634 116.473C68.7257 116.569 65.4576 117.984 65.219 118.385C65.1528 118.495 64.287 118.765 63.2946 118.985C62.2532 119.215 61.2368 119.664 60.8899 120.048C60.5594 120.413 60.1887 120.652 60.0658 120.579C59.943 120.506 59.0939 120.647 58.1789 120.893C57.0312 121.202 56.5758 121.456 56.7095 121.713C56.9331 122.143 56.1436 122.438 55.212 122.272C54.9112 122.219 54.5223 122.415 54.3475 122.708C54.1728 123.001 53.9573 123.102 53.8688 122.931C53.7802 122.761 53.6182 122.772 53.5085 122.955C53.3991 123.139 52.5797 123.462 51.688 123.673C50.7962 123.884 50.0388 124.183 50.0052 124.336C49.9716 124.49 49.0059 124.879 47.8592 125.2C45.3861 125.894 40.7028 127.722 39.2622 128.557C38.6995 128.883 37.8551 129.207 37.3855 129.277C36.9159 129.347 36.4496 129.543 36.3488 129.712C36.248 129.881 35.8569 130.081 35.4793 130.156C34.4508 130.361 33.2638 130.829 33.1074 131.091C33.0311 131.219 32.2417 131.5 31.353 131.715C30.4643 131.931 29.6631 132.231 29.5725 132.383C29.482 132.535 28.9286 132.735 28.3427 132.827C27.7568 132.919 26.7898 133.302 26.1939 133.678C25.5978 134.054 24.5427 134.53 23.8496 134.737C22.3683 135.177 21.0908 135.651 19.057 136.515C18.2429 136.86 17.1954 137.261 16.7289 137.406C16.2625 137.551 15.3989 137.966 14.8095 138.328C14.2202 138.691 13.1941 139.075 12.5292 139.182C11.8642 139.289 10.814 139.696 10.1956 140.088C9.57693 140.479 8.60722 140.9 8.04029 141.023C7.47347 141.146 6.91687 141.402 6.80332 141.592C6.68993 141.782 6.37879 141.9 6.11213 141.854C5.21718 141.699 2.02506 143.423 1.59794 144.292C1.38104 144.733 1.1062 145.278 0.987248 145.504C0.560624 146.312 1.0994 147.623 2.10462 148.222C2.85567 148.67 3.35063 148.718 4.38055 148.44C5.10431 148.245 5.76534 147.97 5.8494 147.829C5.93361 147.687 6.65057 147.423 7.44278 147.24C8.23509 147.057 9.5468 146.604 10.3579 146.232C11.1691 145.86 12.0281 145.517 12.267 145.47C12.5058 145.422 13.5516 145.035 14.5906 144.609C15.6297 144.183 16.8677 143.722 17.3416 143.585C17.8159 143.448 18.2437 143.269 18.2925 143.188C18.4057 142.998 19.1133 142.742 20.9406 142.232C21.7419 142.008 22.9197 141.594 23.5577 141.311C24.834 140.747 25.7816 140.387 26.5747 140.164C26.8603 140.084 27.1559 139.914 27.2321 139.786C27.3082 139.658 27.9472 139.434 28.6518 139.288C30.6179 138.881 35.1737 137.478 35.3186 137.235C35.3894 137.117 35.8978 137.046 36.4481 137.08C36.9984 137.113 37.5403 136.987 37.6522 136.799C37.764 136.611 38.5048 136.413 39.2981 136.359C40.0917 136.305 41.2373 135.995 41.8438 135.67C42.9559 135.075 47.204 133.99 47.5694 134.208C47.6777 134.272 47.869 134.153 47.9944 133.943C48.1199 133.732 48.3372 133.629 48.4774 133.712C48.6176 133.796 48.813 133.729 48.9115 133.564C49.1675 133.134 51.7348 132.654 52.5173 132.889C52.8802 132.998 53.591 132.861 54.0972 132.585C54.6032 132.309 55.1853 132.183 55.3908 132.305C55.5962 132.428 56.0527 132.328 56.4052 132.084C56.7577 131.84 57.4077 131.657 57.8495 131.677C58.2916 131.698 58.7467 131.558 58.8609 131.366C59.2575 130.701 60.5937 130.28 61.7593 130.452C62.4039 130.547 63.4401 130.529 64.0619 130.413C64.6836 130.297 65.261 130.241 65.345 130.29C65.4287 130.338 66.0125 130.139 66.6421 129.846C67.2718 129.553 67.8072 129.394 67.8323 129.493C67.8569 129.591 68.1914 129.599 68.5748 129.511C71.456 128.85 72.8827 128.633 72.9369 128.847C72.9714 128.985 73.0762 128.969 73.1696 128.813C73.502 128.255 76.0692 127.85 76.5071 128.285C76.5366 128.315 77.6143 128.19 78.9016 128.008C80.1891 127.825 81.3505 127.741 81.4826 127.819C81.6147 127.898 82.2568 127.814 82.9094 127.633C83.5623 127.452 84.2613 127.403 84.4627 127.523C84.6641 127.643 85.1599 127.527 85.564 127.264C86.0806 126.929 87.0156 126.878 88.7099 127.091C90.0359 127.258 91.2653 127.236 91.4418 127.043C91.6185 126.85 91.985 126.824 92.256 126.986C92.527 127.147 93.1636 127.143 93.6702 126.977C94.1772 126.811 94.6422 126.771 94.704 126.89C94.7658 127.009 95.152 127.04 95.5621 126.958C95.9719 126.876 96.9031 126.854 97.6312 126.908C98.3593 126.962 99.0446 126.943 99.1539 126.865C99.2634 126.788 99.5552 126.846 99.8025 126.993C100.05 127.14 100.654 127.189 101.144 127.102C101.635 127.014 102.11 126.975 102.2 127.014C102.978 127.352 103.483 127.422 104.34 127.311C104.888 127.24 105.494 127.277 105.688 127.392C105.881 127.507 106.3 127.617 106.618 127.637C106.937 127.656 107.832 127.78 108.608 127.913C110.195 128.185 112.086 128.43 114.142 128.63C114.905 128.705 115.778 128.914 116.082 129.096C116.385 129.278 117.257 129.51 118.019 129.613C118.782 129.716 119.92 129.98 120.55 130.198C121.18 130.418 121.761 130.616 121.842 130.641C123.62 131.171 128.15 133.661 129.892 135.064C131.113 136.049 133.699 139.555 134.319 141.067C135.022 142.782 135.49 144.725 135.56 146.218C135.596 146.983 135.751 147.769 135.904 147.963C136.057 148.158 136.075 148.498 135.944 148.718C135.813 148.939 135.749 149.566 135.802 150.113C135.91 151.227 134.899 156.261 133.99 159.132C132.924 162.502 129.021 170.762 126.49 175.007C125.273 177.048 123.185 179.646 121.121 181.69C120.162 182.639 120.142 182.665 115.801 188.635C114.135 190.926 112.565 193.178 112.312 193.64C112.059 194.101 110.347 196.955 108.507 199.982C105.158 205.492 104.673 206.613 105.441 207.071C105.629 207.183 105.994 207.201 106.251 207.11C106.689 206.955 111.009 201.276 112.8 198.5C113.243 197.814 114.155 196.569 114.826 195.734C116.747 193.343 122.221 185.599 124.793 181.634C126.082 179.647 127.511 177.656 127.969 177.211C134.95 170.414 143.495 165.197 150.8 163.27C153.593 162.533 157.437 161.843 158.957 161.805C163.569 161.688 169.357 162.323 172.2 163.256C173.074 163.543 174.335 163.907 175.001 164.064C175.668 164.221 177.734 165.058 179.593 165.925C183.788 167.881 195.936 175.382 197.843 177.195C198.962 178.258 199.191 178.382 199.763 178.237C200.856 177.961 200.844 176.963 199.736 176.022C196.097 172.932 192.777 167.572 187.462 156.206C184.164 149.156 181.169 138.806 180.895 133.515C180.44 124.749 182.472 116.913 186.866 110.481C189.879 106.071 193.549 101.957 196.484 99.6974C198.168 98.4008 198.66 97.4705 197.901 97.018C197.318 96.6702 196.457 96.9792 195.007 98.0566C193.614 99.0907 190.212 100.788 188.402 101.352C187.684 101.575 187.057 101.824 187.009 101.903C186.961 101.983 185.948 102.182 184.758 102.346C180.557 102.925 176.906 102.043 175.126 100.021C174.321 99.1057 172.852 96.1295 172.851 95.4101C172.85 95.1948 172.737 94.4117 172.598 93.6698C172.46 92.9279 172.425 92.1846 172.521 92.0178C172.617 91.8512 172.643 91.4776 172.577 91.1874C172.343 90.1479 173.519 84.0348 174.445 81.4772C174.671 80.8519 174.923 80.147 175.006 79.9109C175.847 77.4903 178.227 73.0526 179.577 71.3873C180.413 70.3556 181.538 68.7719 182.077 67.8677C182.617 66.9638 184.15 64.7977 185.485 63.0541C186.82 61.3108 187.894 59.8345 187.873 59.7735C187.851 59.7128 187.039 59.6902 186.069 59.7234ZM179.752 66.5853C179.655 66.7654 178.621 68.598 177.453 70.6577C172.014 80.2533 169.849 87.7894 170.68 94.2332C171.214 98.3713 172.642 100.936 175.456 102.807C178.484 104.821 183.008 105.163 187.787 103.737L189.853 103.122L188.753 104.531C186.137 107.886 185.397 108.961 183.782 111.752C180.998 116.563 180.016 119.58 178.859 126.873C178.673 128.045 178.617 129.061 178.734 129.131C178.851 129.201 178.882 129.537 178.802 129.877C178.722 130.218 178.71 131.571 178.775 132.885C178.994 137.306 180.377 143.496 182.343 148.852C183.068 150.825 183.863 153.015 184.11 153.718C184.626 155.183 188.678 163.742 188.926 163.89C189.016 163.944 189.402 164.667 189.783 165.496C190.163 166.325 191.041 167.898 191.734 168.992L192.993 170.981L187.037 167.641C180.025 163.709 176.086 162.019 171.563 161.001C167.136 160.004 162.088 159.549 159.178 159.885C158.974 159.908 158.166 159.96 157.382 159.999C156.598 160.038 155.176 160.24 154.22 160.447C153.265 160.654 152.409 160.786 152.317 160.741C152.051 160.611 145.673 162.944 143.454 163.984C141.458 164.919 137.963 166.908 136.404 167.995C135.964 168.303 135.12 168.889 134.53 169.297C133.94 169.706 132.826 170.519 132.054 171.104L130.651 172.167L131.814 170.097C133.424 167.232 133.943 166.233 135.039 163.899C136.031 161.785 138.252 155.089 138.34 153.945C138.368 153.581 138.5 152.987 138.634 152.623C139.074 151.426 139.186 150.664 139.132 149.234C139.103 148.456 139.108 147.448 139.143 146.994C139.341 144.391 138.327 139.604 137.166 137.662C136.836 137.112 136.62 136.573 136.684 136.465C136.749 136.356 136.595 136.144 136.343 135.994C136.091 135.843 135.835 135.555 135.775 135.352C135.669 134.994 134.105 133.117 133.048 132.081C132.758 131.797 131.459 130.738 130.161 129.727C128.223 128.218 127.355 127.708 125.299 126.871C123.923 126.31 121.923 125.491 120.855 125.051C118.205 123.958 118.184 123.95 117.168 123.807C116.675 123.737 116.018 123.53 115.709 123.346C115.4 123.162 114.589 123.04 113.905 123.076C111.841 123.184 110.466 122.984 109.56 122.443C109.037 122.132 108.554 122.044 108.331 122.219C108.129 122.378 107.489 122.416 106.909 122.304C106.329 122.192 105.795 122.199 105.723 122.319C105.652 122.44 105.517 122.393 105.425 122.215C105.332 122.037 104.823 121.913 104.294 121.939C103.764 121.964 103.146 121.912 102.92 121.821C102.694 121.731 102.295 121.748 102.033 121.859C101.772 121.97 101.466 122.012 101.354 121.953C100.589 121.547 98.4986 121.106 98.3694 121.323C98.2826 121.469 97.7235 121.518 97.1265 121.432C96.5297 121.347 95.6193 121.44 95.1035 121.638C94.588 121.836 94.2103 121.923 94.2644 121.832C94.3185 121.742 93.6915 121.684 92.8714 121.706C92.0514 121.726 91.3381 121.684 91.2865 121.611C91.2351 121.538 91.0276 121.659 90.8257 121.882C90.3666 122.387 89.8252 122.414 89.0706 121.971C88.3862 121.569 86.8894 121.646 84.3905 122.21C83.4077 122.432 82.4824 122.542 82.3341 122.456C82.1129 122.327 80.2723 122.467 78.3245 122.762C77.2156 122.93 74.067 123.052 73.8707 122.935C73.7463 122.861 73.558 122.943 73.4526 123.118C73.347 123.293 72.6605 123.466 71.9265 123.504C70.2847 123.588 64.3634 125.036 64.142 125.407C64.0532 125.556 63.7433 125.536 63.4535 125.363C62.9316 125.052 62.9371 125.044 64.002 124.567C64.5936 124.302 65.8654 123.882 66.8285 123.633C67.7913 123.385 68.6467 123.068 68.7294 122.929C68.8119 122.791 69.3904 122.473 70.015 122.222C70.6396 121.971 71.2291 121.635 71.325 121.474C71.4209 121.313 71.8142 121.175 72.1991 121.167C72.5839 121.159 72.9538 121.06 73.0212 120.948C73.0885 120.835 73.6013 120.627 74.1609 120.485C74.7204 120.343 75.2638 120.084 75.3685 119.908C75.4731 119.733 76.2959 119.414 77.1969 119.2C78.7061 118.842 82.4934 117.232 82.7193 116.853C82.7728 116.764 83.3507 116.571 84.0041 116.426C85.14 116.173 90.0904 114.009 91.2528 113.256C91.5583 113.058 91.896 112.948 92.0028 113.012C92.1099 113.076 92.2859 112.98 92.3945 112.797C92.6051 112.444 93.673 111.948 95.0318 111.573C96.6734 111.119 98.4306 110.267 99.4194 109.444C99.972 108.985 100.857 108.533 101.386 108.441C101.916 108.349 102.42 108.154 102.508 108.007C102.595 107.861 103.114 107.643 103.66 107.522C104.207 107.402 104.736 107.168 104.835 107.001C104.934 106.835 105.58 106.435 106.271 106.113C106.961 105.79 107.626 105.403 107.749 105.253C107.871 105.102 108.188 104.898 108.453 104.8C108.718 104.701 109.168 104.409 109.453 104.151C109.738 103.893 110.078 103.746 110.208 103.824C110.339 103.902 110.549 103.794 110.674 103.584C110.8 103.373 111.024 103.274 111.172 103.362C111.321 103.451 111.44 103.395 111.438 103.238C111.435 103.081 111.868 102.825 112.4 102.669C113.246 102.42 114.592 101.761 114.906 101.442C115.185 101.158 116.95 99.8568 119.506 98.0506C120.272 97.5092 121.221 97.0018 121.616 96.9227C122.011 96.8434 122.388 96.6891 122.453 96.5797C122.518 96.4703 122.896 96.1367 123.293 95.8386C123.69 95.5403 124.119 95.2025 124.246 95.0879C125.06 94.3512 126.345 93.0909 126.802 92.5792C127.098 92.2482 127.657 91.8758 128.045 91.7516C128.899 91.4777 129.127 91.2548 130.264 89.5839C130.753 88.8656 131.481 88.1179 131.883 87.9223C132.334 87.7025 133.174 86.7286 134.085 85.3692C134.895 84.1608 135.95 82.6285 136.43 81.9642C137.13 80.9952 139.297 76.5604 140.615 73.4011C141.107 72.2193 141.359 71.0564 141.251 70.4544C141.19 70.1087 141.334 69.3394 141.572 68.7446C141.96 67.7733 142.274 65.9504 142.294 64.5539C142.298 64.2712 142.358 63.3197 142.428 62.4397C142.497 61.5595 142.45 60.5985 142.323 60.3042C142.197 60.0097 142.196 59.4312 142.322 59.0184C142.447 58.6056 142.293 57.1142 141.979 55.704C140.948 51.0716 140.778 50.1957 140.88 50.0246C141.003 49.8194 143.528 51.6301 146.206 53.8429C148.387 55.6451 151.64 57.5588 156.695 60.0142C160.77 61.9937 160.711 61.97 161.605 61.9912C162.002 62.0008 162.353 62.1152 162.387 62.2455C162.535 62.8336 169.186 64.8954 169.8 64.5441C170.02 64.4184 170.572 64.4726 171.028 64.6645C171.484 64.8561 172.286 65.0751 172.812 65.1507C173.337 65.2264 174.207 65.4617 174.746 65.6732C175.285 65.885 176.512 66.0083 177.473 65.947C179.306 65.8304 180.045 66.0372 179.752 66.5853Z" fill="#43AFDE" />
</svg>
    