<svg width="176" height="209" viewBox="0 0 176 209" fill="none" xmlns="http://www.w3.org/2000/svg">
    <path fill-rule="evenodd" clip-rule="evenodd" d="M0.45659 0.11803C0.0819729 0.215066 -0.0482904 0.481175 0.015518 1.01928C0.0884419 1.63414 0.392777 1.8932 1.57632 2.34721C2.38495 2.65743 4.08307 3.36109 5.35013 3.91095C6.61718 4.46082 7.8166 4.91072 8.01508 4.91072C8.21386 4.91072 9.2542 5.44 10.3266 6.08691C11.3993 6.73381 12.5193 7.2631 12.8157 7.2631C13.1118 7.2631 13.6664 7.48158 14.0475 7.74857C14.4289 8.01557 15.4883 8.59631 16.4019 9.03886C17.3158 9.4814 18.2403 10.0568 18.4567 10.3177C18.6731 10.5785 19.1345 10.7917 19.4824 10.7917C19.8299 10.7917 20.5745 11.171 21.137 11.6344C21.6995 12.0978 22.6022 12.5742 23.143 12.693C23.6837 12.8118 24.4083 13.2334 24.7532 13.6304C25.0984 14.0271 25.9129 14.5961 26.5636 14.8948C27.2144 15.1936 28.2315 15.8814 28.824 16.423C29.4165 16.9646 30.6735 17.8626 31.6174 18.4187C32.5613 18.9747 33.6769 19.7687 34.0968 20.183C35.6456 21.7114 36.6706 22.5536 36.9826 22.5536C37.159 22.5536 37.3031 22.6859 37.3031 22.8476C37.3031 23.0094 37.4496 23.1417 37.6287 23.1417C37.8077 23.1417 38.637 23.8695 39.4715 24.759C40.3057 25.6484 41.2022 26.3762 41.4633 26.3762C41.7245 26.3762 42.307 26.8726 42.7577 27.4789C43.9945 29.1426 47.391 32.5512 47.8124 32.5512C48.0162 32.5512 48.1829 32.7538 48.1829 33.0014C48.1829 33.2493 48.3814 33.5281 48.624 33.621C48.8666 33.7142 49.0651 33.9635 49.0651 34.1755C49.0651 34.3873 49.1762 34.6046 49.3124 34.6587C49.4482 34.7125 50.0154 35.352 50.5726 36.0798C51.1302 36.8076 52.0111 37.8626 52.531 38.4242C53.0506 38.9859 53.4758 39.6143 53.4758 39.821C53.4758 40.0274 53.5952 40.1965 53.7407 40.1965C54.0327 40.1965 55.3021 42.1672 55.4183 42.8003C55.4583 43.0193 55.7655 43.3907 56.1007 43.6254C56.436 43.8603 56.7103 44.1861 56.7103 44.3493C56.7103 44.5128 57.0411 45.08 57.4454 45.6102C57.8497 46.1404 58.1805 46.6652 58.1805 46.7767C58.1805 46.8881 58.5822 47.3718 59.0727 47.8517C59.5635 48.3313 59.8931 48.7239 59.8049 48.7239C59.7169 48.7239 60.128 49.4516 60.7185 50.3411C61.3092 51.2306 61.8873 51.9584 62.0035 51.9584C62.1196 51.9584 62.5025 52.8361 62.8547 53.9088C63.207 54.9815 63.8871 56.3347 64.3664 56.9163C64.8457 57.4977 65.2377 58.2063 65.2377 58.4907C65.2377 58.7753 66.0281 60.5646 66.9943 62.4671C67.9603 64.3693 69.1544 67.2418 69.6472 68.8503C70.1404 70.459 70.7599 72.0136 71.024 72.3053C71.2877 72.597 71.423 72.8358 71.3242 72.8358C71.2257 72.8358 71.3324 73.3674 71.5615 74.0173C71.7908 74.6668 71.9032 75.3946 71.8111 75.6345C71.7062 75.908 71.8197 76.0703 72.1164 76.0703C72.4466 76.0703 72.5889 76.3391 72.5889 76.9619C72.5889 77.4523 72.8065 78.3454 73.0726 78.9467C73.3384 79.548 73.5954 80.4369 73.6436 80.9221C73.7892 82.3906 74.3855 84.5977 74.6366 84.5977C74.9974 84.5977 75.1965 86.0571 74.8639 86.2626C74.6952 86.3673 74.7737 86.5564 75.0507 86.7113C75.5752 87.0051 75.7135 88.1263 75.225 88.1263C75.0154 88.1263 75.0154 88.3036 75.2253 88.6959C75.4914 89.1928 75.7405 90.4319 75.8037 91.5722C75.8146 91.7692 76.0122 91.858 76.243 91.7695C76.5494 91.6519 76.6194 91.7734 76.5027 92.2197C76.4147 92.5558 76.2292 92.831 76.0904 92.831C75.8049 92.831 76.0972 94.663 76.4189 94.8894C76.5338 94.9702 76.6118 95.6524 76.5921 96.4058C76.5727 97.1588 76.6562 97.7134 76.7782 97.6382C77.0552 97.4667 77.0714 97.9542 76.7976 98.228C76.5071 98.5185 76.4659 99.5942 76.7455 99.5942C76.8752 99.5942 76.9029 99.7979 76.8073 100.047C76.7017 100.323 76.7776 100.467 77.0002 100.415C77.2022 100.368 77.4277 100.495 77.5018 100.697C77.5759 100.899 77.4933 101.064 77.3181 101.064C76.8617 101.064 76.9255 101.62 77.4407 102.136C77.6833 102.378 77.8818 102.756 77.8818 102.976C77.8818 103.195 77.6833 103.573 77.4407 103.816C77.1981 104.058 76.9996 104.332 76.9996 104.425C76.9996 104.517 77.1981 104.593 77.4407 104.593C77.935 104.593 78.042 105.341 77.5877 105.622C77.426 105.722 77.2937 106.002 77.2937 106.245C77.2937 106.491 77.4369 106.597 77.6171 106.486C77.852 106.341 77.852 106.451 77.6171 106.891C77.1799 107.708 77.2101 107.922 77.7347 107.721C77.9773 107.628 78.1758 107.68 78.1758 107.837C78.1758 107.993 78.0588 108.122 77.9162 108.122C77.5095 108.122 77.3439 109.522 77.705 109.908C77.9417 110.16 77.9297 110.29 77.6595 110.389C77.4563 110.463 77.3536 110.627 77.4313 110.753C77.5089 110.878 77.6427 111.694 77.7283 112.565C77.8138 113.437 77.9688 114.533 78.0726 115.002C78.2058 115.604 78.1623 115.793 77.9244 115.646C77.4689 115.365 77.493 116.135 77.9553 116.633C78.1708 116.865 78.1846 116.952 77.9888 116.842C77.8021 116.738 77.5871 116.914 77.5015 117.24C77.3842 117.689 77.496 117.827 77.9829 117.832L78.6169 117.838L77.9688 118.346C77.3295 118.847 77.2457 119.67 77.7183 120.805C77.8282 121.069 77.7218 121.755 77.4815 122.33C77.1546 123.113 77.0822 124.1 77.1934 126.26C77.3319 128.956 77.2981 129.192 76.68 129.849C76.0316 130.537 76.0295 130.56 76.5824 130.985C76.9179 131.243 77.0146 131.469 76.8208 131.543C76.6415 131.611 76.2445 131.869 75.9387 132.117C75.4123 132.543 75.4262 132.558 76.191 132.395C77.0443 132.213 77.3413 132.709 76.5585 133.009C76.3159 133.102 76.1175 133.438 76.1175 133.756C76.1175 134.074 75.9522 134.518 75.7499 134.744C74.5108 136.125 74.4138 136.35 75.0568 136.35C75.2821 136.35 75.542 136.547 75.6343 136.788C75.7314 137.041 75.6517 137.196 75.4453 137.155C75.2027 137.108 75.0862 137.575 75.0821 138.611C75.0789 139.45 74.9795 140.232 74.8616 140.35C74.7437 140.468 74.6472 140.94 74.6472 141.398C74.6472 141.883 74.5026 142.2 74.3008 142.158C74.1103 142.117 73.8301 142.481 73.6783 142.966C73.5263 143.451 73.2775 144.09 73.1258 144.385C72.9741 144.681 72.77 145.607 72.6724 146.444C72.5565 147.435 72.3063 148.099 71.9538 148.349C71.6562 148.56 71.4127 149.028 71.4127 149.387C71.4127 149.746 71.1551 150.226 70.8405 150.453C70.2868 150.852 70.2912 151.529 70.8449 151.187C71.4712 150.8 71.0507 151.478 70.163 152.287C69.4723 152.916 69.3926 153.066 69.876 152.826C70.4076 152.562 70.6373 152.587 70.9972 152.948C71.2463 153.197 71.3677 153.534 71.2672 153.697C71.1663 153.86 71.2198 153.993 71.3862 153.993C72.0152 153.993 71.3268 154.848 70.452 155.152C69.766 155.392 69.6222 155.555 69.8751 155.808C70.1277 156.06 70.313 156.06 70.6188 155.806C70.8425 155.62 71.1201 155.563 71.2351 155.678C71.3504 155.793 71.5565 155.706 71.6929 155.485C72.0958 154.834 72.865 155.322 72.6615 156.099C72.5648 156.469 72.4319 156.609 72.3657 156.411C72.1655 155.81 71.7509 156.01 71.9129 156.629C71.9958 156.947 72.2137 157.178 72.3966 157.143C72.8482 157.058 72.6454 158.683 72.1414 159.187C71.9255 159.403 71.6194 159.58 71.4612 159.58C71.303 159.58 71.2439 159.848 71.3298 160.176C71.4409 160.602 71.6441 160.722 72.0387 160.597C72.7303 160.378 73.1099 161.208 72.6527 161.94C72.2698 162.552 72.5289 162.936 73.0394 162.513C73.4596 162.164 74.1944 163.145 74.7728 164.827C75.066 165.68 75.3747 165.98 76.2651 166.277C76.8826 166.484 77.6909 166.98 78.0617 167.38C78.7751 168.15 79.2429 168.357 78.8718 167.74C78.7218 167.49 78.8103 167.502 79.1485 167.776C79.579 168.125 79.646 168.112 79.646 167.678C79.646 167.402 79.8116 167.233 80.0136 167.303C80.2159 167.372 80.3759 167.781 80.3697 168.21C80.3632 168.638 80.4623 168.989 80.5902 168.989C80.7178 168.989 80.8222 168.804 80.8222 168.577C80.8222 168.351 81.2389 168.02 81.7482 167.842C83.0217 167.398 83.4687 167.437 83.4687 167.992C83.4687 168.302 83.6286 168.403 83.9338 168.286C84.1897 168.188 84.5205 168.107 84.669 168.107C84.8175 168.107 84.9389 167.931 84.9389 167.716C84.9389 167.17 86.6788 166.694 87.6838 166.963C88.7177 167.242 89.2743 167.043 89.5052 166.316C89.7042 165.689 90.1224 165.574 90.297 166.098C90.365 166.302 90.7022 166.13 91.1301 165.672C91.7632 164.995 92.0052 164.924 93.1549 165.081C94.342 165.243 94.3955 165.284 93.743 165.527C93.0481 165.787 93.0432 165.809 93.5892 166.211C93.965 166.488 94.2685 166.532 94.4984 166.341C94.6884 166.183 94.9306 166.141 95.0371 166.247C95.1435 166.354 95.2306 166.287 95.2306 166.098C95.2306 165.909 95.0653 165.746 94.863 165.736C94.661 165.726 94.8104 165.592 95.195 165.438C95.6114 165.271 96.028 165.265 96.2242 165.422C96.4056 165.568 96.9763 165.777 97.4927 165.888C98.1037 166.018 98.3792 166.225 98.2819 166.479C98.1273 166.882 99.7592 167.891 100.067 167.583C100.159 167.491 99.9359 167.097 99.5704 166.706L98.9062 165.997L99.7883 166.377C100.273 166.586 100.926 166.925 101.239 167.13C101.638 167.392 101.916 167.412 102.177 167.195C102.449 166.969 102.723 167.089 103.206 167.645C103.568 168.061 104.072 168.405 104.325 168.411C104.58 168.416 105.038 168.61 105.345 168.842C105.652 169.075 106.007 169.201 106.134 169.122C106.26 169.044 106.538 169.229 106.752 169.533C106.965 169.838 107.57 170.181 108.095 170.297C108.621 170.412 109.051 170.624 109.051 170.768C109.051 170.913 109.613 171.295 110.301 171.617C110.988 171.939 111.385 172.207 111.183 172.213C110.981 172.219 110.815 172.365 110.815 172.538C110.815 172.724 111.069 172.771 111.44 172.653C111.839 172.527 111.997 172.565 111.876 172.76C111.773 172.928 111.822 173.148 111.987 173.25C112.151 173.352 112.285 173.295 112.285 173.123C112.285 172.952 112.682 172.812 113.168 172.812C113.692 172.812 114.05 172.966 114.05 173.191C114.05 173.4 114.704 173.953 115.503 174.419C116.302 174.886 116.93 175.41 116.899 175.584C116.868 175.758 117.088 175.858 117.387 175.806C117.731 175.748 117.856 175.835 117.726 176.045C117.613 176.228 117.749 176.63 118.028 176.938C118.477 177.435 118.602 177.451 119.132 177.08C119.664 176.707 119.831 176.732 120.639 177.299C121.139 177.649 121.709 178.14 121.906 178.388C122.224 178.789 122.265 178.781 122.274 178.325C122.284 177.774 123.012 177.619 123.312 178.105C123.412 178.267 123.354 178.399 123.182 178.399C123.011 178.399 122.871 178.531 122.871 178.693C122.871 178.855 123.003 178.987 123.165 178.987C123.326 178.987 123.996 179.509 124.654 180.147C125.311 180.785 126.022 181.24 126.233 181.159C126.445 181.078 126.697 181.218 126.794 181.47C126.89 181.721 127.14 181.928 127.349 181.928C127.558 181.928 127.9 182.203 128.111 182.54C128.326 182.884 128.678 183.082 128.912 182.992C129.151 182.901 129.469 183.088 129.65 183.428C129.913 183.919 130.047 183.959 130.412 183.656C130.77 183.359 130.907 183.37 131.122 183.711C131.269 183.943 131.391 184.24 131.394 184.371C131.396 184.502 131.54 184.521 131.712 184.415C131.885 184.308 132.095 184.486 132.18 184.81C132.289 185.226 132.542 185.376 133.046 185.32C133.441 185.277 133.736 185.388 133.708 185.57C133.626 186.105 134.081 186.926 134.459 186.926C135.272 186.926 136.407 187.718 136.671 188.47C136.827 188.915 137.146 189.279 137.38 189.279C137.613 189.279 137.881 189.477 137.974 189.72C138.067 189.964 138.509 190.163 138.961 190.165C139.532 190.169 139.658 190.246 139.38 190.423C139.084 190.61 139.07 190.73 139.326 190.889C139.516 191.006 139.739 191.033 139.823 190.95C140.059 190.714 141.101 191.688 141.574 192.587C141.808 193.032 142.199 193.395 142.442 193.395C142.686 193.395 142.961 193.594 143.054 193.837C143.147 194.079 143.423 194.278 143.666 194.278C144.399 194.278 146.376 195.52 146.559 196.094C146.652 196.389 146.852 196.646 147.003 196.667C147.154 196.687 147.405 196.72 147.562 196.74C147.877 196.781 148.64 197.428 149.375 198.279C150.078 199.092 151.163 199.865 151.6 199.865C151.81 199.865 151.982 199.988 151.982 200.139C151.982 200.29 152.243 200.496 152.563 200.597C152.882 200.699 153.582 201.204 154.118 201.72C155.081 202.648 155.707 203.017 157.422 203.669C157.907 203.854 158.868 204.521 159.559 205.151C160.249 205.781 161.076 206.38 161.396 206.482C161.717 206.584 161.979 206.791 161.979 206.941C161.979 207.092 162.106 207.216 162.261 207.216C162.415 207.216 163.029 207.547 163.625 207.951C164.856 208.787 165.45 208.861 166.246 208.28C166.754 207.908 166.768 207.764 166.415 206.589C165.487 203.509 164.773 201.805 164.111 201.098C163.909 200.882 163.744 200.513 163.744 200.279C163.744 199.793 162.455 197.659 161.987 197.37C161.816 197.264 161.746 197.064 161.832 196.925C162.112 196.471 160.802 193.415 160.394 193.571C160.186 193.651 159.846 193.512 159.638 193.262C159.37 192.939 159.359 192.807 159.601 192.807C159.851 192.807 159.858 192.65 159.627 192.219C159.454 191.896 159.416 191.623 159.543 191.613C159.67 191.602 159.476 191.474 159.113 191.328C158.665 191.148 158.451 190.815 158.451 190.3C158.451 189.863 158.324 189.616 158.155 189.721C157.992 189.822 157.78 189.698 157.683 189.446C157.586 189.194 157.356 189.073 157.17 189.176C156.971 189.288 156.985 189.202 157.204 188.966C157.506 188.642 157.445 188.456 156.88 187.967C156.074 187.271 155.155 185.616 155.424 185.346C155.525 185.245 155.388 185.162 155.118 185.162C154.849 185.162 154.628 185.03 154.628 184.868C154.628 184.706 154.384 184.574 154.086 184.574C153.366 184.574 152.454 183.537 152.672 182.968C152.789 182.663 152.671 182.516 152.312 182.516C152.019 182.516 151.539 182.251 151.247 181.928C150.754 181.383 150.752 181.339 151.219 181.339C151.501 181.339 151.637 181.202 151.528 181.025C151.422 180.853 151.149 180.782 150.923 180.869C150.664 180.968 150.512 180.83 150.512 180.497C150.512 179.777 150.199 179.518 149.764 179.879C149.51 180.09 149.353 180.046 149.232 179.73C149.137 179.483 149.188 179.281 149.345 179.281C149.501 179.281 149.629 179.149 149.629 178.987C149.629 178.825 149.398 178.69 149.115 178.685C148.832 178.68 148.269 178.229 147.865 177.682C147.461 177.135 147.064 176.706 146.983 176.73C146.726 176.804 145.274 175.207 145.444 175.037C145.534 174.947 145.375 174.617 145.09 174.303C144.806 173.988 144.655 173.599 144.755 173.436C144.856 173.274 144.671 172.704 144.344 172.168C144.018 171.633 143.75 170.913 143.75 170.569C143.749 170.225 143.568 169.794 143.347 169.611C143.127 169.428 142.655 168.353 142.298 167.223C141.941 166.092 141.539 165.167 141.405 165.167C141.271 165.167 141.188 164.77 141.222 164.285C141.255 163.8 141.202 163.403 141.104 163.403C141.005 163.403 140.68 162.708 140.381 161.859C140.083 161.01 139.705 160.144 139.542 159.935C139.34 159.676 139.35 159.45 139.575 159.225C139.819 158.981 139.78 158.803 139.424 158.543C139.16 158.349 138.91 158.007 138.87 157.783C138.83 157.558 138.524 156.598 138.189 155.649C137.855 154.701 137.644 153.822 137.721 153.698C137.798 153.573 137.664 153.308 137.423 153.108C137.182 152.908 136.985 152.526 136.985 152.258C136.985 151.991 136.775 151.471 136.518 151.104C136.261 150.737 136.121 150.254 136.206 150.031C136.358 149.636 135.991 148.193 135.476 147.161C135.336 146.88 135.221 146.524 135.221 146.371C135.221 146.218 135.067 145.719 134.88 145.264C134.692 144.809 134.564 144.322 134.597 144.182C134.629 144.042 134.439 143.596 134.174 143.191C133.876 142.737 133.753 142.144 133.854 141.643C133.943 141.196 133.923 140.737 133.81 140.624C133.697 140.511 133.593 140.329 133.58 140.222C133.567 140.114 133.465 139.695 133.354 139.291C133.243 138.886 133.088 138.092 133.009 137.526C132.93 136.96 132.79 136.166 132.7 135.762C132.609 135.358 132.492 134.614 132.44 134.11C132.387 133.605 132.262 132.931 132.16 132.612C132.059 132.292 131.917 131.183 131.845 130.147C131.773 129.111 131.635 127.933 131.54 127.529C131.446 127.124 131.325 126.132 131.273 125.323C131.221 124.515 131.097 123.522 130.998 123.118C130.899 122.714 130.754 121.655 130.676 120.766C130.387 117.495 130.123 115.864 129.839 115.579C129.53 115.271 129.593 114.062 129.929 113.855C130.118 113.738 130.124 113.487 129.947 113.156C129.652 112.603 129.671 111.999 130.002 111.47C130.114 111.291 130.111 111.048 129.994 110.931C129.877 110.814 129.768 110.299 129.752 109.787C129.737 109.275 129.62 107.997 129.493 106.945C129.367 105.894 129.227 103.578 129.183 101.8C129.138 100.021 129.075 98.4988 129.042 98.418C129.008 98.3371 129.005 97.9728 129.035 97.6081C129.065 97.2344 128.884 96.8672 128.619 96.7654C128.326 96.6531 128.152 96.2393 128.155 95.6639C128.157 95.157 128.115 94.2792 128.062 93.7132C128.004 93.0995 128.142 92.4764 128.404 92.1694C128.779 91.7301 128.781 91.6549 128.421 91.6549C128.095 91.6549 128.008 91.2317 128.038 89.7853C128.06 88.757 128.162 87.7781 128.266 87.6105C128.37 87.4426 128.262 86.9327 128.025 86.4773C127.789 86.0218 127.703 85.5781 127.835 85.491C128.138 85.2911 128.143 84.3037 127.84 84.3037C127.717 84.3037 127.626 83.9067 127.64 83.4215C127.654 82.9363 127.778 82.5394 127.915 82.5394C128.296 82.5394 128.211 81.9569 127.765 81.5105C127.498 81.2435 127.397 80.5628 127.459 79.4466C127.535 78.084 127.474 77.8111 127.123 77.9458C126.887 78.036 126.694 78.0804 126.694 78.044C126.694 78.0075 126.816 77.5503 126.966 77.028C127.133 76.4452 127.133 76.0133 126.966 75.9098C126.816 75.8174 126.694 75.4943 126.694 75.1923C126.694 74.89 126.345 74.3684 125.919 74.0334C125.493 73.6982 125.261 73.4198 125.404 73.4145C125.548 73.4095 125.408 73.211 125.094 72.9734C124.606 72.6044 124.594 72.5417 125.011 72.5417C125.324 72.5417 125.438 72.3835 125.33 72.1007C125.237 71.8581 124.985 71.6596 124.771 71.6596C124.556 71.6596 124.303 71.4279 124.207 71.145C123.84 70.0617 122.629 69.5457 120.234 69.451C118.968 69.401 117.663 69.2161 117.334 69.0396C117.004 68.8635 116.386 68.7191 115.961 68.7191C115.535 68.7191 114.964 68.6018 114.692 68.4583C114.42 68.3148 113.667 68.1234 113.02 68.0331C112.374 67.9428 111.261 67.662 110.549 67.4088C109.836 67.1557 109.191 67.011 109.115 67.0869C109.038 67.163 108.596 67.0289 108.131 66.7884C107.667 66.5482 107.282 66.4544 107.277 66.5796C107.272 66.7052 107.095 66.5808 106.885 66.3035C106.674 66.0265 105.917 65.5305 105.204 65.2017C104.489 64.873 103.177 64.1905 102.288 63.6853C101.398 63.1801 99.9009 62.5209 98.9603 62.2204C98.0196 61.9198 96.9102 61.4067 96.4947 61.0798C96.0792 60.7531 95.5728 60.4858 95.3694 60.4858C95.1659 60.4858 94.9201 60.2788 94.823 60.0262C94.726 59.7733 94.5134 59.6486 94.3505 59.7495C94.1876 59.85 94.0544 59.7768 94.0544 59.5866C94.0544 59.3766 93.7662 59.2961 93.3193 59.3816C92.915 59.459 92.5842 59.4225 92.5842 59.3008C92.5842 59.179 92.2533 58.9961 91.849 58.8947C91.4447 58.7932 91.1139 58.5851 91.1139 58.4319C91.1139 57.9981 89.3705 56.3215 89.0956 56.4914C88.9609 56.5746 88.5716 56.3826 88.2302 56.0648C87.8891 55.7469 87.4721 55.487 87.3036 55.487C87.1351 55.487 86.9972 55.3546 86.9972 55.1929C86.9972 55.0312 86.7326 54.8989 86.4091 54.8989C86.0857 54.8989 85.821 54.7865 85.821 54.6495C85.821 54.5122 85.2585 54.1485 84.5713 53.8409C83.8842 53.5333 83.012 52.9179 82.6339 52.473C82.2557 52.0284 81.7688 51.6643 81.5523 51.6643C81.3356 51.6643 80.9813 51.4991 80.7652 51.2968C80.5491 51.0948 79.878 50.6769 79.2741 50.3685C78.6701 50.0597 78.1758 49.696 78.1758 49.5598C78.1758 49.4234 77.9761 49.312 77.7318 49.312C77.4877 49.312 77.0672 49.0541 76.7973 48.7389C76.5274 48.4236 76.198 48.2331 76.0651 48.3151C75.9322 48.3975 75.8234 48.3287 75.8234 48.1625C75.8234 47.9967 75.0627 47.2948 74.1326 46.6032C73.2026 45.9116 72.3637 45.2388 72.2678 45.108C72.1722 44.9771 71.9738 44.9104 71.8267 44.9592C71.68 45.0083 71.5206 44.9551 71.4727 44.841C71.2101 44.2149 68.6698 41.9237 67.6771 41.4171C67.0417 41.0927 66.3489 40.6193 66.1378 40.365C65.9266 40.1106 65.6008 39.9024 65.4141 39.9024C65.2271 39.9024 64.8707 39.6707 64.622 39.3878C64.3732 39.105 63.0588 37.8808 61.7009 36.6679C60.3433 35.4549 58.3673 33.6224 57.3096 32.5959C56.2522 31.5691 54.9901 30.5285 54.5049 30.2835C53.6172 29.8351 52.6039 28.8439 51.7965 27.6339C51.5548 27.2716 50.9126 26.8961 50.3556 26.7917C49.8028 26.6882 49.2536 26.443 49.1345 26.2471C48.9248 25.9016 48.0477 25.4276 47.4478 25.3353C46.7703 25.2312 45.9482 24.7463 45.251 24.0394C44.8419 23.6248 43.6805 22.6383 42.6695 21.847C41.6589 21.0557 40.8317 20.3165 40.8317 20.2042C40.8317 20.0915 40.203 19.681 39.435 19.2917C38.6669 18.9024 37.796 18.2849 37.5001 17.9194C37.204 17.5542 36.8403 17.3304 36.6915 17.4222C36.5427 17.5142 36.421 17.4654 36.421 17.3137C36.421 17.1622 36.024 16.8735 35.5389 16.6726C35.0537 16.4718 34.6567 16.1975 34.6567 16.0631C34.6567 15.5091 24.9434 9.61548 24.0304 9.61548C23.9072 9.61548 23.2183 9.21852 22.4993 8.73334C21.7804 8.24816 20.9894 7.8512 20.7412 7.8512C20.4933 7.8512 20.1154 7.68006 19.9017 7.47129C19.4994 7.07785 17.6928 6.25863 17.5411 6.40065C17.4937 6.44476 16.895 6.12778 16.2111 5.69583C15.5268 5.26417 14.7573 4.91072 14.5009 4.91072C13.9425 4.91072 12.9483 4.41995 12.2223 3.78628C11.9321 3.53281 11.4028 3.28493 11.0461 3.23553C10.6895 3.18583 10.067 2.99911 9.66264 2.82092C3.87842 0.268583 2.00181 -0.282463 0.45659 0.11803ZM154.922 27.1113C154.922 27.1922 154.988 27.2584 155.069 27.2584C155.15 27.2584 155.216 27.1922 155.216 27.1113C155.216 27.0305 155.15 26.9643 155.069 26.9643C154.988 26.9643 154.922 27.0305 154.922 27.1113ZM155.068 29.5031C155.178 30.6134 155.663 34.354 156.145 37.8156C156.627 41.2768 156.954 44.3864 156.872 44.7257C156.79 45.0647 156.64 46.1362 156.539 47.1066C156.438 48.077 156.227 49.6251 156.07 50.5467C155.913 51.4682 155.797 52.6591 155.813 53.1931C155.859 54.7663 155.329 62.6438 155.034 64.7495C154.967 65.2347 154.795 66.4641 154.653 67.4815C154.512 68.4986 154.464 69.591 154.547 69.9088C154.63 70.2267 154.529 70.6901 154.322 70.9392C154.115 71.1882 153.932 72.0145 153.914 72.7755C153.896 73.5365 153.794 74.2963 153.688 74.4645C153.581 74.6324 153.419 75.5587 153.326 76.5229C153.141 78.4595 152.967 79.6724 152.594 81.6572C152.247 83.4977 152.372 86.6681 152.823 87.4844C153.139 88.0569 153.123 88.283 152.719 88.899C152.455 89.3025 152.296 89.7897 152.365 89.982C152.434 90.1743 152.366 90.5728 152.215 90.8671C152.063 91.1617 151.891 93.9055 151.832 96.9645C151.737 101.937 151.778 102.558 152.221 102.825C152.681 103.101 152.678 103.146 152.178 103.445C151.77 103.689 151.689 103.958 151.846 104.548C151.96 104.977 152.08 105.901 152.113 106.602C152.145 107.302 152.32 107.967 152.501 108.079C152.86 108.301 152.845 110.401 152.481 110.976C152.357 111.172 152.383 111.569 152.538 111.859C153.108 112.92 153.502 114.442 153.493 115.546C153.491 115.829 153.615 116.061 153.77 116.061C154.089 116.061 153.866 117.337 153.37 118.358C153.117 118.878 153.13 119.183 153.428 119.659C153.759 120.19 153.746 120.333 153.339 120.63C152.906 120.947 152.92 121.051 153.49 121.776C154.048 122.485 154.073 122.654 153.719 123.316C153.376 123.957 153.384 124.106 153.779 124.397C154.411 124.864 154.814 126.487 154.244 126.268C153.914 126.141 153.841 126.438 153.885 127.71C153.916 128.591 154.089 129.46 154.271 129.641C154.502 129.872 154.51 130.14 154.299 130.534C154.133 130.844 154.065 131.519 154.148 132.033C154.586 134.758 154.706 135.126 155.104 134.973C155.328 134.887 155.51 134.963 155.51 135.142C155.51 135.322 155.378 135.468 155.216 135.468C155.055 135.468 154.922 135.608 154.922 135.779C154.922 135.951 155.031 136.024 155.164 135.942C155.297 135.86 155.644 136.457 155.937 137.271C156.33 138.363 156.419 139.166 156.28 140.351C156.128 141.645 156.179 141.986 156.547 142.128C156.897 142.262 156.973 142.631 156.877 143.723C156.798 144.626 156.875 145.186 157.087 145.257C157.32 145.336 157.293 145.526 156.999 145.881C156.683 146.264 156.665 146.447 156.925 146.607C157.116 146.726 157.323 147.41 157.385 148.129C157.526 149.773 157.86 151.053 158.148 151.053C158.27 151.053 158.306 151.384 158.229 151.789C158.151 152.195 158.219 152.691 158.379 152.892C158.539 153.093 158.632 153.49 158.586 153.772C158.54 154.056 158.687 154.287 158.912 154.287C159.202 154.287 159.288 154.567 159.206 155.243C159.035 156.669 159.321 157.802 159.806 157.615C160.1 157.503 160.215 157.71 160.215 158.348C160.215 159.472 160.493 160.213 160.834 160.002C160.979 159.913 161.097 159.98 161.097 160.151C161.097 160.322 160.951 160.462 160.772 160.462C160.572 160.462 160.533 160.66 160.673 160.977C160.798 161.26 160.926 162.021 160.958 162.667C160.99 163.314 161.233 164.356 161.498 164.982C161.763 165.609 161.979 166.237 161.979 166.379C161.979 166.521 162.079 166.637 162.202 166.637C162.434 166.637 162.842 167.504 163.478 169.347C163.771 170.197 163.94 170.369 164.24 170.12C164.452 169.944 164.636 169.849 164.649 169.909C164.661 169.969 164.733 170.614 164.808 171.342C165.068 173.867 166.058 175.993 166.769 175.553C166.941 175.447 166.979 175.513 166.859 175.707C166.744 175.894 166.796 176.047 166.974 176.047C167.187 176.047 167.231 176.406 167.104 177.085C166.946 177.93 167.027 178.226 167.542 178.672C167.89 178.974 168.154 179.333 168.13 179.471C167.998 180.205 168.217 180.699 168.732 180.834C169.131 180.938 169.272 181.175 169.19 181.603C169.124 181.943 169.175 182.222 169.303 182.222C169.431 182.222 169.784 182.784 170.087 183.471C170.39 184.159 170.76 184.807 170.909 184.912C171.059 185.017 171.103 185.305 171.008 185.552C170.914 185.799 171.012 186.148 171.228 186.327C171.443 186.505 171.779 187.035 171.973 187.504C172.167 187.973 172.479 188.298 172.666 188.227C173.177 188.031 173.009 179.794 172.44 177.144C171.741 173.89 171.702 173.545 171.525 169.149C171.434 166.891 171.218 164.873 171.044 164.665C170.871 164.456 170.844 164.285 170.986 164.285C171.285 164.285 171.281 162.47 170.979 161.983C170.866 161.8 170.918 161.381 171.094 161.052C171.302 160.664 171.316 160.28 171.135 159.956C170.859 159.463 170.983 156.609 171.317 155.757C171.412 155.515 171.515 153.464 171.545 151.2C171.575 148.935 171.766 146.09 171.969 144.878C172.172 143.665 172.373 141.932 172.416 141.028C172.494 139.381 172.659 138.655 173.582 135.909C173.854 135.1 174.106 134.041 174.142 133.554C174.178 133.067 174.308 132.507 174.431 132.308C174.554 132.109 174.727 131.316 174.817 130.546C174.907 129.776 175.157 128.749 175.373 128.264C175.638 127.67 175.737 126.447 175.677 124.518C175.597 121.933 175.506 121.532 174.747 120.401C174.285 119.712 173.935 119.049 173.971 118.928C174.006 118.806 173.903 118.707 173.741 118.707C173.58 118.707 173.447 118.508 173.447 118.265C173.447 117.636 172.391 115.745 172.165 115.971C172.062 116.074 171.977 115.872 171.977 115.522C171.977 115.171 171.793 114.885 171.568 114.885C171.074 114.885 170.756 114.167 170.986 113.569C171.077 113.331 170.931 112.915 170.661 112.645C170.346 112.329 170.233 111.906 170.344 111.461C170.445 111.059 170.387 110.768 170.205 110.768C170.034 110.768 169.923 110.603 169.96 110.4C169.997 110.198 169.791 109.504 169.502 108.857C168.673 106.998 167.775 103.953 167.723 102.829C167.697 102.263 167.594 101.601 167.494 101.358C166.944 100.02 166.39 97.4091 166.39 96.1526C166.39 95.3607 166.231 94.5542 166.037 94.3601C165.843 94.166 165.782 94.0072 165.901 94.0072C166.02 94.0072 165.979 93.7505 165.811 93.4371C165.599 93.0389 165.602 92.8078 165.821 92.6723C165.994 92.5652 166.046 92.2594 165.935 91.9927C165.487 90.9121 165.074 89.121 164.805 87.0971C164.762 86.7737 164.644 86.3105 164.543 86.0679C164.256 85.3784 164.04 83.7747 163.89 81.2162C163.637 76.9128 163.479 75.157 163.294 74.5727C163.142 74.0943 162.938 72.6347 162.825 71.2185C162.812 71.0568 162.819 70.1306 162.84 69.1602C162.898 66.5367 162.688 63.2716 162.436 62.8637C162.314 62.6664 162.281 62.4388 162.362 62.3577C162.692 62.0275 161.902 60.1594 161.087 59.3443C160.378 58.635 160.209 58.2081 160.18 57.0534C160.16 56.2727 160.113 55.0385 160.075 54.3108C160.037 53.583 159.962 51.6937 159.909 50.1124C159.788 46.55 159.311 44.0629 158.656 43.5839C158.378 43.3807 158.157 42.827 158.157 42.3339C158.157 41.1557 157.072 34.8424 156.552 32.9923C156.325 32.1837 155.979 30.6911 155.783 29.6757C155.285 27.0987 154.819 26.9861 155.068 29.5031ZM152.276 87.6852C152.276 87.7661 152.342 87.8322 152.423 87.8322C152.504 87.8322 152.57 87.7661 152.57 87.6852C152.57 87.6043 152.504 87.5382 152.423 87.5382C152.342 87.5382 152.276 87.6043 152.276 87.6852ZM152.374 88.3224C152.482 88.43 152.658 88.43 152.766 88.3224C152.874 88.2145 152.785 88.1263 152.57 88.1263C152.354 88.1263 152.266 88.2145 152.374 88.3224ZM128.311 89.8906C128.211 90.0523 128.27 90.1846 128.441 90.1846C128.612 90.1846 128.752 90.0523 128.752 89.8906C128.752 89.7288 128.694 89.5965 128.622 89.5965C128.551 89.5965 128.411 89.7288 128.311 89.8906ZM75.8234 92.39C75.8234 92.4708 75.8896 92.537 75.9704 92.537C76.0513 92.537 76.1175 92.4708 76.1175 92.39C76.1175 92.3091 76.0513 92.243 75.9704 92.243C75.8896 92.243 75.8234 92.3091 75.8234 92.39ZM76.9996 98.565C76.9996 98.6459 76.9334 98.712 76.8526 98.712C76.7717 98.712 76.7056 98.6459 76.7056 98.565C76.7056 98.4841 76.7717 98.418 76.8526 98.418C76.9334 98.418 76.9996 98.4841 76.9996 98.565ZM152.276 110.621C152.276 110.702 152.342 110.768 152.423 110.768C152.504 110.768 152.57 110.702 152.57 110.621C152.57 110.54 152.504 110.474 152.423 110.474C152.342 110.474 152.276 110.54 152.276 110.621ZM153.452 112.091C153.452 112.172 153.386 112.238 153.305 112.238C153.224 112.238 153.158 112.172 153.158 112.091C153.158 112.01 153.224 111.944 153.305 111.944C153.386 111.944 153.452 112.01 153.452 112.091ZM153.942 114.787C153.834 114.894 153.746 114.806 153.746 114.591C153.746 114.375 153.834 114.287 153.942 114.394C154.05 114.502 154.05 114.679 153.942 114.787ZM130.026 115.375C130.134 115.482 130.311 115.482 130.418 115.375C130.526 115.267 130.438 115.179 130.222 115.179C130.007 115.179 129.919 115.267 130.026 115.375ZM76.7056 122.236C76.7056 122.451 76.7938 122.54 76.9017 122.432C77.0093 122.324 77.0093 122.148 76.9017 122.04C76.7938 121.932 76.7056 122.02 76.7056 122.236ZM75.0392 133.606C75.1471 133.713 75.3235 133.713 75.4314 133.606C75.5391 133.498 75.4509 133.41 75.2353 133.41C75.0198 133.41 74.9316 133.498 75.0392 133.606ZM73.471 140.761C73.471 140.976 73.5592 141.065 73.6672 140.957C73.7748 140.849 73.7748 140.673 73.6672 140.565C73.5592 140.457 73.471 140.545 73.471 140.761ZM156.687 141.496C156.687 141.577 156.62 141.643 156.54 141.643C156.459 141.643 156.393 141.577 156.393 141.496C156.393 141.415 156.459 141.349 156.54 141.349C156.62 141.349 156.687 141.415 156.687 141.496ZM72.5154 143.283C72.3939 143.405 72.2948 143.774 72.2948 144.103C72.2948 144.536 72.3836 144.612 72.6165 144.379C72.7933 144.203 72.8926 143.833 72.8371 143.559C72.7815 143.285 72.6368 143.161 72.5154 143.283ZM157.765 146.544C157.657 146.652 157.569 146.563 157.569 146.348C157.569 146.132 157.657 146.044 157.765 146.152C157.872 146.26 157.872 146.436 157.765 146.544ZM71.7067 146.642C71.7067 146.857 71.795 146.946 71.9029 146.838C72.0105 146.73 72.0105 146.554 71.9029 146.446C71.795 146.338 71.7067 146.426 71.7067 146.642ZM69.9425 151.494C69.9425 151.574 70.0086 151.641 70.0895 151.641C70.1703 151.641 70.2365 151.574 70.2365 151.494C70.2365 151.413 70.1703 151.347 70.0895 151.347C70.0086 151.347 69.9425 151.413 69.9425 151.494ZM71.4127 152.082C71.4127 152.163 71.3465 152.229 71.2657 152.229C71.1848 152.229 71.1187 152.163 71.1187 152.082C71.1187 152.001 71.1848 151.935 71.2657 151.935C71.3465 151.935 71.4127 152.001 71.4127 152.082ZM71.4127 152.67C71.4127 152.751 71.3465 152.817 71.2657 152.817C71.1848 152.817 71.1187 152.751 71.1187 152.67C71.1187 152.589 71.1848 152.523 71.2657 152.523C71.3465 152.523 71.4127 152.589 71.4127 152.67ZM70.0916 154.578C69.9886 154.744 70.1065 154.794 70.3682 154.693C70.8775 154.498 70.9708 154.287 70.5479 154.287C70.3956 154.287 70.1904 154.418 70.0916 154.578ZM72.2948 154.728C72.2948 154.809 72.2287 154.875 72.1478 154.875C72.067 154.875 72.0008 154.809 72.0008 154.728C72.0008 154.647 72.067 154.581 72.1478 154.581C72.2287 154.581 72.2948 154.647 72.2948 154.728ZM71.1187 156.786C71.1187 156.867 71.1848 156.934 71.2657 156.934C71.3465 156.934 71.4127 156.867 71.4127 156.786C71.4127 156.706 71.3465 156.639 71.2657 156.639C71.1848 156.639 71.1187 156.706 71.1187 156.786ZM73.7651 157.651C73.7651 157.723 73.6122 157.875 73.4255 157.991C73.2152 158.121 73.1658 158.071 73.2961 157.861C73.5054 157.522 73.7651 157.406 73.7651 157.651ZM70.0404 158.306C70.1483 158.413 70.3247 158.413 70.4326 158.306C70.5403 158.198 70.452 158.11 70.2365 158.11C70.021 158.11 69.9328 158.198 70.0404 158.306ZM73.324 159.874C73.224 160.036 73.01 160.168 72.8483 160.168C72.6865 160.168 72.6359 160.036 72.7359 159.874C72.8359 159.712 73.05 159.58 73.2117 159.58C73.3734 159.58 73.424 159.712 73.324 159.874ZM75.2353 160.903C75.2353 160.984 75.1692 161.05 75.0883 161.05C75.0074 161.05 74.9413 160.984 74.9413 160.903C74.9413 160.822 75.0074 160.756 75.0883 160.756C75.1692 160.756 75.2353 160.822 75.2353 160.903ZM70.0895 162.226C70.1895 162.388 70.3374 162.52 70.4182 162.52C70.4991 162.52 70.4835 162.388 70.3835 162.226C70.2836 162.065 70.1357 161.932 70.0548 161.932C69.9739 161.932 69.9895 162.065 70.0895 162.226ZM75.5794 162.741C75.4338 163.024 75.3741 163.421 75.4464 163.623C75.6629 164.226 75.2821 164.039 74.9213 163.365C74.6602 162.877 74.674 162.684 74.9845 162.487C75.6223 162.083 75.8646 162.186 75.5794 162.741ZM72.8829 164.726C72.8829 164.807 72.9491 164.873 73.03 164.873C73.1108 164.873 73.177 164.807 73.177 164.726C73.177 164.645 73.1108 164.579 73.03 164.579C72.9491 164.579 72.8829 164.645 72.8829 164.726ZM88.4675 165.755C88.4675 165.917 88.261 166.049 88.009 166.049C87.757 166.049 87.6324 165.917 87.7324 165.755C87.8323 165.593 88.0385 165.461 88.1908 165.461C88.3431 165.461 88.4675 165.593 88.4675 165.755ZM76.7056 167.078C76.7056 167.159 76.7717 167.225 76.8526 167.225C76.9334 167.225 76.9996 167.159 76.9996 167.078C76.9996 166.997 76.9334 166.931 76.8526 166.931C76.7717 166.931 76.7056 166.997 76.7056 167.078ZM75.8234 167.372C75.8234 167.453 75.8896 167.519 75.9704 167.519C76.0513 167.519 76.1175 167.453 76.1175 167.372C76.1175 167.291 76.0513 167.225 75.9704 167.225C75.8896 167.225 75.8234 167.291 75.8234 167.372ZM84.5469 167.715C84.439 167.823 84.3508 167.735 84.3508 167.519C84.3508 167.304 84.439 167.215 84.5469 167.323C84.6546 167.431 84.6546 167.607 84.5469 167.715ZM89.9377 167.684C89.9377 167.936 90.07 168.06 90.2318 167.96C90.3935 167.86 90.5258 167.654 90.5258 167.502C90.5258 167.35 90.3935 167.225 90.2318 167.225C90.07 167.225 89.9377 167.432 89.9377 167.684ZM100.523 167.813C100.523 168.029 100.612 168.117 100.72 168.009C100.827 167.901 100.827 167.725 100.72 167.617C100.612 167.51 100.523 167.598 100.523 167.813ZM76.4115 167.929C76.4115 167.992 76.61 168.121 76.8526 168.214C77.0952 168.307 77.2937 168.255 77.2937 168.098C77.2937 167.941 77.0952 167.813 76.8526 167.813C76.61 167.813 76.4115 167.865 76.4115 167.929ZM87.0952 168.254C87.0952 168.466 87.2716 168.572 87.4874 168.489C87.7029 168.406 87.8794 168.301 87.8794 168.254C87.8794 168.208 87.7029 168.103 87.4874 168.02C87.2716 167.937 87.0952 168.043 87.0952 168.254ZM81.8023 168.598C81.9102 168.705 82.0866 168.705 82.1945 168.598C82.3022 168.49 82.214 168.401 81.9984 168.401C81.7829 168.401 81.6947 168.49 81.8023 168.598ZM82.5865 168.842C82.5865 169.112 82.7288 169.285 82.9026 169.227C83.0764 169.169 83.2187 168.996 83.2187 168.842C83.2187 168.689 83.0764 168.516 82.9026 168.458C82.7288 168.4 82.5865 168.573 82.5865 168.842ZM84.6449 168.678C84.6449 168.83 84.7772 169.037 84.9389 169.136C85.1006 169.236 85.2329 169.112 85.2329 168.86C85.2329 168.608 85.1006 168.401 84.9389 168.401C84.7772 168.401 84.6449 168.526 84.6449 168.678ZM77.5877 168.842C77.5877 168.923 77.6539 168.989 77.7347 168.989C77.8156 168.989 77.8818 168.923 77.8818 168.842C77.8818 168.762 77.8156 168.695 77.7347 168.695C77.6539 168.695 77.5877 168.762 77.5877 168.842ZM79.352 169.284C78.975 169.527 78.9856 169.569 79.4255 169.573C79.7084 169.576 79.9401 169.445 79.9401 169.284C79.9401 168.925 79.9069 168.925 79.352 169.284ZM104.64 169.578C104.64 169.739 104.78 169.872 104.952 169.872C105.123 169.872 105.181 169.739 105.081 169.578C104.981 169.416 104.841 169.284 104.77 169.284C104.698 169.284 104.64 169.416 104.64 169.578ZM106.11 169.725C106.11 169.805 106.177 169.872 106.257 169.872C106.338 169.872 106.404 169.805 106.404 169.725C106.404 169.644 106.338 169.578 106.257 169.578C106.177 169.578 106.11 169.644 106.11 169.725ZM165.802 173.253C165.802 173.334 165.736 173.4 165.655 173.4C165.574 173.4 165.508 173.334 165.508 173.253C165.508 173.172 165.574 173.106 165.655 173.106C165.736 173.106 165.802 173.172 165.802 173.253ZM118.656 176.537C118.549 176.644 118.372 176.644 118.264 176.537C118.157 176.429 118.245 176.341 118.46 176.341C118.676 176.341 118.764 176.429 118.656 176.537ZM172.859 177.664C172.859 177.745 172.925 177.811 173.006 177.811C173.087 177.811 173.153 177.745 173.153 177.664C173.153 177.583 173.087 177.517 173.006 177.517C172.925 177.517 172.859 177.583 172.859 177.664ZM173.447 180.016C173.447 180.097 173.514 180.163 173.594 180.163C173.675 180.163 173.741 180.097 173.741 180.016C173.741 179.935 173.675 179.869 173.594 179.869C173.514 179.869 173.447 179.935 173.447 180.016ZM125.223 181.487C125.223 181.567 125.29 181.634 125.37 181.634C125.451 181.634 125.518 181.567 125.518 181.487C125.518 181.406 125.451 181.339 125.37 181.339C125.29 181.339 125.223 181.406 125.223 181.487ZM126.106 182.075C126.106 182.155 126.172 182.222 126.253 182.222C126.333 182.222 126.4 182.155 126.4 182.075C126.4 181.994 126.333 181.928 126.253 181.928C126.172 181.928 126.106 181.994 126.106 182.075ZM129.046 184.133C129.046 184.214 129.112 184.28 129.193 184.28C129.274 184.28 129.34 184.214 129.34 184.133C129.34 184.052 129.274 183.986 129.193 183.986C129.112 183.986 129.046 184.052 129.046 184.133ZM132.869 184.721C132.869 184.802 132.803 184.868 132.722 184.868C132.641 184.868 132.575 184.802 132.575 184.721C132.575 184.64 132.641 184.574 132.722 184.574C132.803 184.574 132.869 184.64 132.869 184.721ZM134.633 186.485C134.633 186.566 134.567 186.632 134.486 186.632C134.405 186.632 134.339 186.566 134.339 186.485C134.339 186.404 134.405 186.338 134.486 186.338C134.567 186.338 134.633 186.404 134.633 186.485ZM137.279 190.308C137.279 190.389 137.346 190.455 137.426 190.455C137.507 190.455 137.573 190.389 137.573 190.308C137.573 190.227 137.507 190.161 137.426 190.161C137.346 190.161 137.279 190.227 137.279 190.308ZM140.22 190.308C140.22 190.389 140.154 190.455 140.073 190.455C139.992 190.455 139.926 190.389 139.926 190.308C139.926 190.227 139.992 190.161 140.073 190.161C140.154 190.161 140.22 190.227 140.22 190.308ZM142.572 194.425C142.572 194.505 142.638 194.572 142.719 194.572C142.8 194.572 142.866 194.505 142.866 194.425C142.866 194.344 142.8 194.278 142.719 194.278C142.638 194.278 142.572 194.344 142.572 194.425Z" fill="#FD73C5" />
</svg>
    