<svg width="70" height="62" viewBox="0 0 70 62" fill="none" xmlns="http://www.w3.org/2000/svg">
    <path fill-rule="evenodd" clip-rule="evenodd" d="M49.4939 0.215069C48.9704 0.44411 46.3666 1.43441 43.7076 2.41585C41.0485 3.3973 36.8328 5.38564 34.3388 6.83457L29.8046 9.46855L26.7409 8.24755C19.9517 5.54055 16.4031 4.48221 13.0569 4.16465C7.53785 3.64073 6.94393 4.68745 9.27421 10.8295C9.53044 11.5039 9.40061 11.7346 8.90333 11.4884C7.86182 10.9728 7.93361 11.8973 9.00206 12.7493C9.47723 13.1282 10.487 15.9558 11.2467 19.0329C12.3124 23.3499 12.9436 24.7662 14.0093 25.232C16.2457 26.2101 16.4059 26.7965 14.7262 27.8549C13.0652 28.9016 6.69945 37.8088 2.47884 44.9931L0 49.2121L2.77991 50.4636C5.40924 51.6475 6.03366 51.6945 14.2739 51.3338C19.0663 51.1236 24.4272 50.7595 26.1863 50.5244C29.3585 50.1012 31.6211 50.6954 31.6211 51.9518C31.6211 52.2516 32.1736 52.8973 32.849 53.3869C33.5245 53.8765 34.1461 54.9476 34.2311 55.7669C34.316 56.5863 35.2394 58.3483 36.2837 59.6827C38.1125 62.0207 38.2956 62.1037 41.273 61.9532L44.3644 61.7967L47.8971 53.9429C51.8725 45.1049 53.8872 42.5583 57.6858 41.5719C61.242 40.6485 69.3972 37.3435 69.9781 36.5911C70.2516 36.2365 67.942 34.065 64.5219 31.4598C55.9425 24.9244 55.4646 23.8638 56.1498 12.8682C57.0234 -1.15198 57.3349 0.433594 53.6379 0.0927983C51.8815 -0.0687475 50.0167 -0.0139722 49.4939 0.215069ZM8.8294 13.6649C8.8294 13.817 8.98479 13.9415 9.17472 13.9415C9.36465 13.9415 9.52005 13.817 9.52005 13.6649C9.52005 13.5127 9.36465 13.3882 9.17472 13.3882C8.98479 13.3882 8.8294 13.5127 8.8294 13.6649ZM62.6481 25.7636C64.5177 27.3891 64.8865 27.5478 64.392 26.5155C64.2069 26.1288 63.3622 25.4737 62.5148 25.0599C61.0451 24.3424 61.0513 24.375 62.6481 25.7636ZM65.4632 28.0491C65.4632 28.2012 65.6186 28.3257 65.8086 28.3257C65.9985 28.3257 66.1539 28.2012 66.1539 28.0491C66.1539 27.8969 65.9985 27.7725 65.8086 27.7725C65.6186 27.7725 65.4632 27.8969 65.4632 28.0491Z" fill="#16E912" />
</svg>
    