<svg width="80" height="81" viewBox="0 0 80 81" fill="none" xmlns="http://www.w3.org/2000/svg">
    <path fill-rule="evenodd" clip-rule="evenodd" d="M50.2003 0.758655C46.5799 2.80429 42.1034 6.27921 38.1829 10.087C34.1008 14.0518 33.7093 14.2945 32.5646 13.5706C31.8879 13.1429 30.4287 12.6191 29.3219 12.4063C28.2152 12.1936 26.4041 11.6009 25.2974 11.0897C23.1563 10.1009 17.5633 9.09874 14.5954 9.17291C13.6105 9.19705 12.0772 9.59489 11.1872 10.0571C10.2972 10.5188 9.33877 10.754 9.05762 10.5804C8.77647 10.4067 8.4056 10.8051 8.23255 11.4658C8.05949 12.1264 7.72144 12.5455 7.48054 12.3966C6.77336 11.9596 5.50508 17.3198 5.57752 20.4417C5.61432 22.0228 5.8276 24.3513 6.05126 25.6162C6.27548 26.881 6.58249 29.1446 6.73428 30.6463C6.88606 32.1487 7.20689 33.256 7.44664 33.1077C7.68696 32.9593 7.76112 33.4768 7.61164 34.2575C7.44261 35.1418 7.6053 35.6776 8.0434 35.6776C8.43034 35.6776 8.60571 36.0467 8.43208 36.4981C8.25902 36.9494 8.48725 37.6255 8.93915 38.0004C9.39163 38.3758 9.60147 38.941 9.40657 39.2566C9.21109 39.5723 9.3537 40.0173 9.72281 40.2455C10.7727 40.8946 9.60439 43.2835 6.11105 47.6324C2.57115 52.0381 0 56.8061 0 58.9638C0 62.3888 3.7733 65.2548 8.93683 65.751C10.5041 65.9016 15.1497 65.6234 19.2605 65.1329C29.0609 63.9641 30.3948 64.2355 33.1775 67.9668C39.2633 76.1264 46.8708 81.3325 52.1988 80.9835L54.8366 80.8104L55.929 77.6482C57.0449 74.4165 57.1916 73.3615 57.843 63.8497C58.1414 59.4945 58.4553 58.1256 59.393 57.0941C60.0398 56.3829 60.8614 55.8005 61.2185 55.8005C62.703 55.8005 68.3546 52.5176 71.4098 49.8804C77.3685 44.7375 80.2725 38.8892 79.129 34.3334C78.7449 32.8041 73.8303 29.9282 71.6007 29.9282C70.9453 29.9282 69.5085 29.3326 68.4075 28.6047C66.7649 27.5186 62.7984 26.0232 58.7876 24.9774C58.2454 24.836 58.0839 22.4172 58.1282 15.1413C58.1759 7.4659 57.9994 5.0569 57.2669 3.35796C55.8928 0.17164 53.0738 -0.86555 50.2003 0.758655Z" fill="#43AFDE" />
    <path fill-rule="evenodd" clip-rule="evenodd" d="M42.6088 15.4728C42.342 15.7941 41.979 15.9676 41.8026 15.8584C41.6257 15.7496 40.6259 16.4127 39.5802 17.3328C38.5346 18.2529 37.4717 19.0058 37.2184 19.0058C36.9647 19.0058 36.7575 19.1948 36.7575 19.4258C36.7575 19.6568 36.9264 19.8457 37.1327 19.8457C37.3389 19.8457 37.6204 20.1389 37.7582 20.4975C37.8956 20.8561 37.841 21.0459 37.6368 20.9199C37.2323 20.6697 36.5592 21.898 36.7298 22.5754C36.7878 22.8063 36.8878 23.8457 36.9512 24.8851C37.0151 25.9244 37.1718 27.1528 37.3003 27.6147C37.4284 28.0766 37.5477 28.7964 37.5654 29.2143C37.5835 29.6321 37.7671 29.8694 37.9738 29.7417C38.1809 29.6136 38.4581 29.7917 38.5909 30.1369C38.7232 30.4821 38.6791 30.7643 38.4922 30.7643C38.3056 30.7643 37.9372 31.2367 37.6742 31.8142C37.4108 32.3916 36.9079 32.864 36.5563 32.864C36.2051 32.864 35.9173 33.1475 35.9173 33.4939C35.9173 34.3162 35.5367 34.2897 34.5528 33.3999C34.1125 33.0018 33.1547 32.4819 32.4246 32.245C31.6789 32.0031 31.0302 31.4698 30.9458 31.0297C30.8534 30.5468 30.9706 30.3532 31.2508 30.5266C31.7226 30.8176 31.4545 29.6897 30.8588 28.8745C30.69 28.6436 30.5774 27.2733 30.6089 25.8295C30.6404 24.3862 30.5429 23.2049 30.3925 23.2049C30.2421 23.2053 29.7695 22.3537 29.3423 21.313C28.915 20.272 28.2349 19.3145 27.8303 19.1848C27.4257 19.0554 27.0892 18.7257 27.0825 18.4528C27.0754 18.1794 26.8868 18.2693 26.6633 18.6518C26.4133 19.0802 25.9352 19.2637 25.4206 19.1289C24.9602 19.0088 24.674 18.7644 24.7845 18.5859C25.1135 18.0538 24.0086 17.4197 23.1041 17.6209C22.642 17.7238 21.8383 17.796 21.3187 17.7817C20.7498 17.7658 20.3734 18.0043 20.3734 18.3805C20.3734 18.7245 20.0966 19.0058 19.758 19.0058C18.9484 19.0058 18.2939 20.2867 17.8658 22.7085C17.6743 23.7899 17.2151 25.7707 16.8449 27.1104C15.8212 30.8159 15.9489 33.3402 17.2294 34.7214C17.8108 35.3484 18.1599 36.0669 18.0049 36.3176C17.8499 36.5683 17.894 36.6716 18.1027 36.5478C18.312 36.4239 18.9325 36.4919 19.4815 36.699C20.4095 37.0492 20.46 37.2264 20.1974 39.206C19.9777 40.8619 20.0323 41.2637 20.4423 41.0105C20.7326 40.8308 20.5205 41.4288 19.9706 42.3384C18.1637 45.328 16.6551 48.4209 16.3694 49.7214C15.9518 51.6225 16.0291 54.0233 16.5135 54.185C16.7475 54.2627 17.402 54.7557 17.9679 55.2798C18.8228 56.0718 19.379 56.2104 21.2603 56.1008C27.2795 55.7502 29.1956 55.3995 29.1956 54.6482C29.1956 54.4189 29.3763 54.3433 29.5973 54.4798C29.8183 54.6163 30.6215 54.4773 31.3827 54.1711C32.144 53.865 33.0031 53.6466 33.2917 53.6857C33.5807 53.7243 34.0058 53.7798 34.2369 53.8087C34.468 53.8377 34.6272 54.0028 34.5902 54.1762C34.457 54.8049 35.2279 56.1949 36.2958 57.2527C37.7952 58.7376 38.8581 60.0987 38.8581 60.5333C38.8581 61.2733 42.0891 64.2943 43.52 64.8919C46.3246 66.0636 51.4285 65.555 50.892 64.1574C50.763 63.8215 50.8386 63.4351 51.0596 63.2987C51.5637 62.9871 51.5889 60.0462 51.0919 59.5095C50.8886 59.2903 50.4866 58.3546 50.1984 57.4308C49.9102 56.5069 49.4414 55.4675 49.157 55.1211C48.6373 54.4895 47.6803 51.1102 47.6803 49.9087C47.6803 49.4548 48.0794 49.2822 49.0456 49.3174C49.7963 49.3451 50.8365 49.2322 51.3562 49.0663C52.0834 48.8349 52.3014 48.9298 52.3014 49.477C52.3014 50.0742 52.5766 50.1451 54.0037 49.9171C55.8442 49.6227 58.9244 47.888 59.2882 46.9406C59.4163 46.6063 59.7995 46.4652 60.1809 46.6117C60.6922 46.8078 60.7808 46.689 60.5569 46.1057C60.3078 45.4565 60.3603 45.4233 60.9136 45.8823C61.4538 46.3304 61.5223 46.3157 61.3224 45.7937C61.1745 45.4086 61.4946 44.8958 62.1529 44.465C63.2552 43.7427 63.6237 41.9793 62.7809 41.4586C62.5369 41.3078 62.4037 40.8715 62.4844 40.4889C62.6835 39.547 60.814 37.9529 59.8167 38.2137C59.3802 38.3279 59.0231 38.5967 59.0231 38.8104C59.0231 39.0246 58.787 39.1619 58.498 39.1153C57.5301 38.9595 54.4343 40.3378 53.6748 41.2629C53.2152 41.8227 53.1106 41.8227 52.7358 41.2629C52.4531 40.84 52.3124 40.8056 52.3077 41.1579C52.3044 41.4468 52.0405 41.6828 51.7217 41.6828C51.4032 41.6828 50.4341 42.5471 49.5682 43.6033C48.7024 44.6594 47.8567 45.3683 47.6891 45.178C47.4169 44.8698 46.5762 42.0919 46.2498 40.423C46.1822 40.0766 45.9969 39.497 45.8377 39.135C45.4021 38.1427 45.3227 36.2685 45.7167 36.274C46.696 36.2874 47.5761 34.4501 47.4547 32.6465C47.3799 31.5399 47.508 30.7643 47.7656 30.7643C48.0369 30.7643 48.0105 30.5321 47.6954 30.1529C47.4165 29.8165 47.3018 29.357 47.4408 29.132C47.5803 28.9069 47.5017 28.6041 47.2669 28.4588C46.5052 27.988 46.8148 25.6322 47.876 23.8218C49.0788 21.7699 49.7636 19.1045 49.475 17.5957C49.1166 15.7223 43.7733 14.0702 42.6088 15.4728ZM39.4483 16.1313C39.2622 16.4316 39.3328 16.5021 39.6331 16.3161C39.8999 16.1515 40.1184 15.9335 40.1184 15.8315C40.1184 15.4812 39.7474 15.6471 39.4483 16.1313ZM25.5848 16.9712C25.3987 17.2715 25.4693 17.342 25.7697 17.156C26.0364 16.9914 26.2549 16.7734 26.2549 16.6714C26.2549 16.3211 25.884 16.487 25.5848 16.9712ZM24.5745 17.1161C24.5745 17.2316 24.669 17.3261 24.7845 17.3261C24.9001 17.3261 24.9946 17.2316 24.9946 17.1161C24.9946 17.0006 24.9001 16.9061 24.7845 16.9061C24.669 16.9061 24.5745 17.0006 24.5745 17.1161ZM60.7035 38.5333C60.7035 38.6487 60.609 38.7432 60.4935 38.7432C60.378 38.7432 60.2834 38.6487 60.2834 38.5333C60.2834 38.4178 60.378 38.3233 60.4935 38.3233C60.609 38.3233 60.7035 38.4178 60.7035 38.5333ZM48.3104 48.402C48.4533 48.6329 48.4756 48.8219 48.36 48.8219C48.2445 48.8219 48.0332 48.6329 47.8903 48.402C47.7475 48.171 47.7252 47.982 47.8407 47.982C47.9563 47.982 48.1676 48.171 48.3104 48.402Z" fill="#FFE04A" />
</svg>
    