<svg width="69" height="71" viewBox="0 0 69 71" fill="none" xmlns="http://www.w3.org/2000/svg">
    <path fill-rule="evenodd" clip-rule="evenodd" d="M43.6391 0.6595C40.4919 2.43777 36.6005 5.45852 33.1924 8.76867C29.6439 12.2153 29.3035 12.4262 28.3084 11.7969C27.7202 11.4251 26.4517 10.9698 25.4896 10.7848C24.5275 10.5999 22.9531 10.0846 21.991 9.64032C20.1298 8.78067 15.2677 7.90954 12.6878 7.97401C11.8317 7.995 10.4987 8.34084 9.72503 8.74268C8.95134 9.14402 8.11819 9.34845 7.87379 9.19751C7.62939 9.04657 7.307 9.39292 7.15656 9.96718C7.00612 10.5414 6.71225 10.9058 6.50283 10.7764C5.88808 10.3965 4.78557 15.0561 4.84854 17.77C4.88053 19.1444 5.06594 21.1686 5.26036 22.2682C5.45528 23.3677 5.72217 25.3354 5.85411 26.6409C5.98606 27.9468 6.26495 28.9094 6.47336 28.7805C6.68228 28.6516 6.74675 29.1014 6.6168 29.7801C6.46986 30.5488 6.61129 31.0146 6.99213 31.0146C7.3285 31.0146 7.48095 31.3354 7.33001 31.7278C7.17957 32.1201 7.37797 32.7079 7.77081 33.0337C8.16415 33.3601 8.34657 33.8514 8.17714 34.1258C8.00721 34.4002 8.13118 34.787 8.45205 34.9855C9.36467 35.5497 8.3491 37.6264 5.31234 41.4068C2.2351 45.2368 0 49.3816 0 51.2573C0 54.2346 3.28013 56.7261 7.76879 57.1574C9.13124 57.2883 13.1696 57.0464 16.7432 56.6201C25.2627 55.604 26.4222 55.8399 28.8412 59.0836C34.1316 66.1767 40.7449 70.7023 45.3765 70.399L47.6695 70.2485L48.6191 67.4996C49.5892 64.6903 49.7167 63.7732 50.283 55.5046C50.5424 51.7186 50.8152 50.5286 51.6304 49.632C52.1926 49.0137 52.9069 48.5074 53.2172 48.5074C54.5077 48.5074 59.4207 45.6536 62.0766 43.361C67.2565 38.8904 69.781 33.8064 68.7869 29.846C68.453 28.5166 64.1807 26.0166 62.2425 26.0166C61.6728 26.0166 60.4238 25.4988 59.4667 24.8661C58.0388 23.922 54.5907 22.622 51.1041 21.7129C50.6328 21.5899 50.4924 19.4873 50.5308 13.1624C50.5723 6.49011 50.4189 4.39597 49.7821 2.91907C48.5876 0.149206 46.1371 -0.752423 43.6391 0.6595Z" fill="#16E912"/>
    <path fill-rule="evenodd" clip-rule="evenodd" d="M33.0457 14.4558C32.8138 14.7351 32.4983 14.8859 32.3449 14.791C32.1911 14.6964 31.322 15.2728 30.413 16.0727C29.504 16.8725 28.5801 17.5271 28.3599 17.5271C28.1393 17.5271 27.9592 17.6913 27.9592 17.8921C27.9592 18.0929 28.106 18.2572 28.2853 18.2572C28.4646 18.2572 28.7093 18.512 28.8291 18.8238C28.9485 19.1355 28.9011 19.3005 28.7236 19.191C28.3719 18.9734 27.7868 20.0412 27.9351 20.6301C27.9855 20.8308 28.0725 21.7344 28.1276 22.6379C28.1831 23.5414 28.3193 24.6092 28.4311 25.0108C28.5424 25.4123 28.6461 26.038 28.6615 26.4013C28.6772 26.7645 28.8368 26.9707 29.0165 26.8598C29.1965 26.7484 29.4375 26.9032 29.5529 27.2033C29.668 27.5034 29.6296 27.7487 29.4671 27.7487C29.305 27.7487 28.9847 28.1594 28.7561 28.6613C28.5271 29.1633 28.09 29.574 27.7843 29.574C27.479 29.574 27.2288 29.8204 27.2288 30.1216C27.2288 30.8363 26.8979 30.8133 26.0426 30.0398C25.6599 29.6937 24.8273 29.2418 24.1926 29.0359C23.5444 28.8256 22.9805 28.362 22.9071 27.9794C22.8267 27.5596 22.9286 27.3913 23.1722 27.5421C23.5823 27.7951 23.3493 26.8145 22.8315 26.1059C22.6847 25.9051 22.5868 24.714 22.6142 23.4589C22.6416 22.2042 22.5569 21.1773 22.4261 21.1773C22.2954 21.1777 21.8845 20.4373 21.5131 19.5327C21.1417 18.6277 20.5505 17.7954 20.1988 17.6826C19.8471 17.5702 19.5545 17.2836 19.5487 17.0463C19.5425 16.8086 19.3786 16.8867 19.1843 17.2193C18.967 17.5917 18.5514 17.7512 18.104 17.634C17.7038 17.5296 17.455 17.3172 17.5511 17.162C17.837 16.6995 16.8766 16.1483 16.0903 16.3231C15.6886 16.4126 14.99 16.4753 14.5382 16.4629C14.0437 16.4491 13.7165 16.6564 13.7165 16.9835C13.7165 17.2825 13.4759 17.5271 13.1815 17.5271C12.4778 17.5271 11.9088 18.6405 11.5366 20.7458C11.3701 21.6858 10.9709 23.4078 10.6492 24.5723C9.75921 27.7936 9.87024 29.9879 10.9834 31.1886C11.4888 31.7337 11.7923 32.3583 11.6575 32.5762C11.5228 32.7942 11.5611 32.8839 11.7426 32.7763C11.9245 32.6686 12.4639 32.7277 12.9412 32.9077C13.7479 33.2122 13.7918 33.3662 13.5635 35.0871C13.3725 36.5265 13.4199 36.8759 13.7764 36.6557C14.0287 36.4995 13.8443 37.0193 13.3663 37.81C11.7956 40.4089 10.4841 43.0976 10.2358 44.2281C9.8728 45.8808 9.94 47.9678 10.3611 48.1083C10.5645 48.1759 11.1335 48.6044 11.6254 49.06C12.3686 49.7485 12.8521 49.869 14.4874 49.7737C19.72 49.4689 21.3857 49.1641 21.3857 48.511C21.3857 48.3117 21.5427 48.246 21.7348 48.3646C21.9269 48.4833 22.6252 48.3624 23.2869 48.0963C23.9486 47.8302 24.6954 47.6403 24.9463 47.6743C25.1976 47.7079 25.5672 47.7561 25.768 47.7812C25.9689 47.8064 26.1073 47.9499 26.0751 48.1007C25.9594 48.6472 26.6295 49.8555 27.5579 50.7751C28.8613 52.0659 29.7852 53.2491 29.7852 53.6269C29.7852 54.2701 32.594 56.8964 33.8378 57.4159C36.2759 58.4344 40.7127 57.9923 40.2463 56.7774C40.1342 56.4853 40.1999 56.1495 40.392 56.0308C40.8302 55.76 40.8521 53.2034 40.4201 52.7369C40.2434 52.5463 39.8939 51.733 39.6434 50.9299C39.3928 50.1267 38.9853 49.2232 38.738 48.922C38.2863 48.373 37.4544 45.4354 37.4544 44.391C37.4544 43.9963 37.8013 43.8463 38.6413 43.8769C39.2939 43.901 40.1981 43.8028 40.6498 43.6586C41.282 43.4575 41.4715 43.54 41.4715 44.0157C41.4715 44.5348 41.7107 44.5965 42.9513 44.3982C44.5513 44.1423 47.2289 42.6343 47.5451 41.8107C47.6565 41.5201 47.9896 41.3975 48.3212 41.5249C48.7656 41.6954 48.8427 41.592 48.648 41.085C48.4315 40.5206 48.4771 40.4918 48.9581 40.8908C49.4277 41.2803 49.4873 41.2675 49.3134 40.8137C49.1849 40.479 49.4631 40.0333 50.0354 39.6587C50.9937 39.0308 51.314 37.4979 50.5814 37.0453C50.3692 36.9142 50.2534 36.5349 50.3236 36.2023C50.4967 35.3835 48.8716 33.9978 48.0046 34.2245C47.6251 34.3237 47.3147 34.5574 47.3147 34.7432C47.3147 34.9294 47.1095 35.0487 46.8582 35.0082C46.0168 34.8728 43.3257 36.0709 42.6654 36.8751C42.2659 37.3618 42.1749 37.3618 41.8492 36.8751C41.6034 36.5075 41.481 36.4776 41.477 36.7839C41.4741 37.035 41.2447 37.2402 40.9676 37.2402C40.6907 37.2402 39.8482 37.9915 39.0956 38.9096C38.3429 39.8277 37.6077 40.4439 37.462 40.2786C37.2254 40.0106 36.4946 37.5958 36.2109 36.145C36.1521 35.8438 35.991 35.3401 35.8526 35.0254C35.4739 34.1627 35.4049 32.5335 35.7474 32.5382C36.5987 32.5499 37.3638 30.9528 37.2583 29.3849C37.1932 28.4229 37.3046 27.7487 37.5285 27.7487C37.7644 27.7487 37.7414 27.5468 37.4675 27.2172C37.225 26.9248 37.1253 26.5254 37.2462 26.3297C37.3675 26.134 37.2991 25.8708 37.095 25.7445C36.4329 25.3353 36.702 23.2873 37.6245 21.7136C38.6701 19.9299 39.2654 17.6129 39.0145 16.3012C38.703 14.6727 34.058 13.2365 33.0457 14.4558ZM30.2983 15.0283C30.1365 15.2893 30.1979 15.3506 30.459 15.1889C30.6909 15.0458 30.8808 14.8563 30.8808 14.7676C30.8808 14.4631 30.5583 14.6073 30.2983 15.0283ZM18.2468 15.7584C18.085 16.0194 18.1463 16.0807 18.4075 15.919C18.6394 15.7759 18.8293 15.5864 18.8293 15.4977C18.8293 15.1932 18.5068 15.3375 18.2468 15.7584ZM17.3685 15.8843C17.3685 15.9847 17.4507 16.0668 17.5511 16.0668C17.6515 16.0668 17.7337 15.9847 17.7337 15.8843C17.7337 15.7839 17.6515 15.7018 17.5511 15.7018C17.4507 15.7018 17.3685 15.7839 17.3685 15.8843ZM48.7755 34.5023C48.7755 34.6026 48.6933 34.6848 48.5929 34.6848C48.4925 34.6848 48.4103 34.6026 48.4103 34.5023C48.4103 34.4019 48.4925 34.3197 48.5929 34.3197C48.6933 34.3197 48.7755 34.4019 48.7755 34.5023ZM38.0022 43.0811C38.1263 43.2819 38.1457 43.4462 38.0453 43.4462C37.9448 43.4462 37.7611 43.2819 37.637 43.0811C37.5128 42.8803 37.4934 42.7161 37.5939 42.7161C37.6943 42.7161 37.878 42.8803 38.0022 43.0811Z" fill="#FFE04A"/>
    </svg>
    