<svg width="57" height="59" viewBox="0 0 57 59" fill="none" xmlns="http://www.w3.org/2000/svg">
    <path fill-rule="evenodd" clip-rule="evenodd" d="M24.9765 0.187847C24.4285 0.407149 23.0202 3.69172 22.765 5.34654C22.7112 5.69358 22.4544 6.59831 22.1941 7.35706C21.9338 8.11611 21.291 10.4768 20.7658 12.6033C19.8305 16.3893 19.6456 17.217 19.2474 19.4054C19.0613 20.4267 18.5405 21.2284 17.9953 21.3333C17.8601 21.3593 16.201 22.1032 14.3085 22.9862C12.416 23.8693 8.68575 25.5928 6.01906 26.8162C3.35236 28.0398 0.996268 29.208 0.783245 29.4128C0.570222 29.6173 0.306845 30.4274 0.197988 31.213L0 32.6411L1.9929 33.5755C3.08898 34.0893 4.61923 34.673 5.39344 34.8725C7.23057 35.3457 12.3553 37.8187 13.0326 38.5582C13.4783 39.0457 13.5556 39.8032 13.5283 43.4228C13.5105 45.781 13.4251 48.8237 13.3385 50.1846C13.0257 55.1073 13.015 56.077 13.2643 56.9895C13.5568 58.0606 14.5775 59 15.4484 59C16.1516 59 21.5356 55.4927 25.5696 52.4067C29.7929 49.176 30.4269 49.0216 34.3283 50.2743C35.1885 50.5505 36.0103 50.7435 36.1542 50.7036C36.4498 50.6214 42.3534 52.3817 43.5561 52.9109C43.9863 53.0999 44.6901 53.2796 45.1202 53.3099C45.5503 53.3402 46.7218 53.5502 47.7231 53.7767C49.4905 54.1757 49.5874 54.1636 51.0076 53.3631C52.388 52.5855 52.4662 52.4717 52.3817 51.3616C52.2604 49.7603 49.8164 38.0191 49.3863 36.9693C49.1964 36.5056 48.6496 35.9659 48.1713 35.7701C47.1707 35.3603 46.7856 34.2959 47.2964 33.3519C47.5779 32.8319 47.7681 32.7639 48.2408 33.0138C49.3309 33.5907 50.0416 33.3609 50.798 32.187C52.1359 30.1109 52.2845 29.7592 53.5657 25.6324C54.2655 23.3794 55.3925 20.2637 56.0704 18.7088C57.504 15.4211 57.4324 15.1795 54.771 14.3187C52.3564 13.538 47.4281 13.7078 44.8931 14.6599C43.1583 15.3113 38.6832 15.1279 37.493 14.3568C36.765 13.8851 35.521 12.4294 33.7027 9.92124C32.8747 8.77895 32.5765 7.72329 33.0301 7.53956C33.2278 7.45945 33.0073 7.38272 32.5393 7.36942C31.8793 7.35055 31.7339 7.22993 31.8887 6.8303C32.0066 6.52655 31.9613 6.39323 31.778 6.5052C31.5305 6.65646 29.7153 3.83153 27.9454 0.540146C27.6695 0.0269983 25.9021 -0.183017 24.9765 0.187847ZM33.5463 8.5445C33.5463 8.69359 33.7805 9.00692 34.0668 9.24045C34.5385 9.62523 34.5523 9.59987 34.2122 8.96888C33.8244 8.24911 33.5463 8.07187 33.5463 8.5445Z" fill="#EA9D09" />
</svg>
    