<svg fill="none" height="130" viewBox="0 0 124 130" width="124" xmlns="http://www.w3.org/2000/svg"><path clip-rule="evenodd" d="m95.0055.175178c-.8321.159417-2.6474.430158-4.0342.601683-1.3867.171525-3.2021.486309-4.0341.699539-.8321.21323-2.1738.53341-2.9816.71099-.8079.17792-2.5476.83172-3.8661 1.45325-1.3185.62119-3.4041 1.38666-4.6349 1.70079-1.5488.39551-2.2854.75504-2.3933 1.16771-.0857.32825-.5667.69955-1.069.82568-.5019.12612-1.2405.53577-1.6406.91043-.4003.37467-1.2196.9158-1.8204 1.20201-.6007.28622-1.0926.64744-1.0926.80284s-.5146.5267-1.1436.825c-.6287.2986-1.7025 1.1475-2.3859 1.8864-.6835.7389-1.6207 1.4872-2.0826 1.6631-.4623.1756-.9188.6206-1.015.9882-.0961.3676-.3163.6686-.4894.6686-.6815 0-5.4041 5.1807-6.0089 6.5916-.3486.8142-.7773 1.4801-.9524 1.4801-.1755 0-.277.3784-.2262.8408.0679.6205-.067.8408-.5151.8408-.6788 0-1.6537 1.2031-1.6537 2.0408 0 .3-.3049.8217-.6774 1.159s-.7701 1.1929-.8834 1.9019c-.1133.7087-.3194 1.2885-.4582 1.2885-.1389 0-.4112.5677-.6052 1.2612-.5614 2.0055-1.378 4.2144-1.9098 5.1659-.27.4826-.4199.9488-.3328 1.0359.087.0868-.0612.9027-.3292 1.8128-.2679.9101-.5758 2.1672-.6841 2.7941-.2945 1.7035-.6908 2.247-2.0923 2.8689-1.2634.5606-1.5075.6871-3.6621 1.8978-2.9099 1.6349-5.4367 3.5281-9.5448 7.1506-2.9832 2.6311-9.0768 11.4444-9.0768 13.1291 0 .2583-.2121.6457-.4713.861-.2592.2149-.5739.7997-.6989 1.2988-.1254.4991-.3577.9882-.5168 1.0864-.159.0985-.3664.605-.4605 1.1256-.0945.5207-.2996 1.123-.4556 1.3383-.2965.4086-1.0606 2.6872-1.7662 5.2678-.2276.8324-.5319 1.8161-.6761 2.1861-.1446.37-.5217 1.9591-.8384 3.5314-.317 1.5723-.6956 3.2371-.8418 3.6996-.1463.4624-.4465 1.9759-.6673 3.3632-.2206 1.3873-.6284 3.5062-.9061 4.7085-.2776 1.2024-.6296 3.0941-.7822 4.2041s-.4441 2.548-.6482 3.195c-.2037.647-.4414 1.707-.5278 2.354-.0864.648-.31 1.706-.49687 2.352-.18692.647-.33988 1.663-.33988 2.258 0 .596-.29582 1.834-.65721 2.751-.36173.918-.7598 2.44-.88485 3.384-.12506.943-.34792 1.789-.49483 1.88-.14692.091-.98838-.934-1.86984-2.278s-1.97976-2.859-2.44067-3.368c-1.02064-1.126-2.532778-1.248-3.068312-.248-.54562 1.021.062182 3.753 1.363532 6.129.17616.321.32005.813.32005 1.093s.16035.509.356.509c.19566 0 .26592.146.15599.324s.18357 1.081.65254 2.007c.46897.925.85255 1.894.85255 2.153 0 .618 1.62476 2.394 2.68944 2.941 1.18772.61 2.87164.417 4.31256-.495 1.4791-.935 7.0806-6.293 8.2817-7.922.9632-1.306 1.1225-2.868.3244-3.175-.5826-.223-1.8247.316-1.8247.793 0 .166-.2955.396-.6566.51-.3611.115-1.8359 1.377-3.2777 2.805-1.4416 1.428-2.9097 2.82-3.2623 3.093-.61389.476-.63003.44-.3833-.848.1416-.74.4555-2.404.6976-3.699.2424-1.295.908-4.398 1.4795-6.895s1.4964-6.886 2.0551-9.753 1.1134-5.5916 1.2328-6.0541c.1193-.4624.2571-1.1435.3069-1.5134.0881-.6592.9567-5.0627 1.2603-6.3902.0847-.3699.3917-1.732.6825-3.0269.2908-1.2948.7725-3.1867 1.0704-4.204.2981-1.0174.6162-2.2282.7069-2.6906.0908-.4625.5299-1.6396.9756-2.6156.4455-.9764.8102-1.9187.8102-2.0946s.5295-1.4513 1.1767-2.8342c.6471-1.3827 1.1766-2.584 1.1766-2.6694 0-.263 3.7191-5.7199 4.4002-6.4558.3534-.382.6425-.8404.6425-1.019 0-.3464 4.5814-4.8471 7.0742-6.9495 1.651-1.3923 3.3164-2.5109 4.8602-3.2646.5547-.2708 1.4099-.7628 1.9007-1.0931.4909-.3303 1.0314-.6007 1.2012-.6007s.3378 1.0218.3738 2.2702c.1493 5.207.3887 7.4321 1.022 9.5011.3681 1.2024.7715 2.7539.8966 3.4474.1251.6938.36 1.2612.5221 1.2612.1624 0 .3916.6053.51 1.3453.1183.7399.3469 1.3453.5083 1.3453s.2965.265.3008.5885c.0044.3236.4959 1.1499 1.0926 1.8364 1.2674 1.4572 2.4249 3.0406 2.4276 3.3205.0054.5307 2.2863 2.6996 3.4794 3.3087.7433.3794 1.4392.8314 1.5465 1.0049.1069.1733.6844.4228 1.2832.554.599.1315 1.5793.5018 2.1787.8229.8556.4585 1.7593.5641 4.2023.4911 3.5181-.1049 5.6515-.4036 6.1211-.8566.1759-.1695.6583-.3081 1.0728-.3081s.8398-.1396.945-.3104c.1056-.1709.6441-.41 1.1965-.5314.5526-.1214 1.0048-.3599 1.0048-.5301 0-.1705.1735-.3097.3856-.3097s1.0818-.5654 1.933-1.2562c.8512-.6911 1.7542-1.4098 2.0067-1.5975s.8576-.783 1.3447-1.3228 1.453-1.5551 2.1462-2.2567c.6935-.7016 1.2607-1.4617 1.2607-1.689 0-.2277.5903-1.4065 1.3117-2.62 1.6181-2.7215 2.4746-6.0007 2.1647-8.287-.235-1.7361-1.6278-4.9739-2.8898-6.7191-.4091-.566-1.3215-1.4741-2.0275-2.0179-.7063-.5442-1.7676-1.3678-2.359-1.8303-.591-.4624-1.8311-1.2-2.7556-1.6389-.9245-.4392-2.1109-1.0076-2.636-1.2632-1.6348-.7961-5.6835-2.0674-7.7893-2.4461-3.3164-.5969-8.9867-.676-11.6755-.1631-3.5094.6696-3.6415.6494-3.5507-.5425.0423-.5549.1959-1.009.3415-1.009s.2646-.3692.2646-.8209.1513-.9145.3362-1.0288c.1849-.1144.3361-.4695.3361-.7897 0-.3199.3026-1.1751.6724-1.9009s.6724-1.5424.6724-1.8148c0-.7174 1.3497-3.3982 1.7108-3.3982.1684 0 .3062-.1638.3062-.3639s.5295-1.01 1.1767-1.8004c.6471-.79 1.1766-1.5972 1.1766-1.7936s.4448-.7776.9887-1.2908c.5436-.5136.9107-1.0601.8152-1.2144-.2114-.3424 1.6046-3.289 2.0272-3.2896.2941-.0007 1.6392-1.1506 5.2918-4.5246 1.9481-1.7993 2.2215-2.0011 4.1945-3.0945 1.6507-.9148 2.8192-1.9288 2.8192-2.4464 0-.2206.1352-.3172.3006-.2153.4081.2526 2.3979-.6164 3.2495-1.4186.3809-.3588 1.656-.897 2.8333-1.19595 1.1773-.29899 2.2268-.66154 2.3327-.80582.462-.6296 6.2836-2.09932 10.6142-2.67981 4.3038-.57713 10.4702-.09486 12.9432 1.01198.277.12444.83.27242 1.227.32959.399.05718.928.26503 1.177.46212.25.19708.907.48027 1.462.6296.555.14899 1.122.30236 1.26.34037.139.03834.459.08844.711.11165.667.06121 4.921 4.30627 4.921 4.91067 0 .2818.151.5125.336.5125s.336.2348.336.522c0 .707 1.363 3.1941 2.152 3.9283.78.7244 1.835.7728 2.094.0962.136-.3525.358-.4094.761-.1934.683.3656.808-.1514.789-3.2546-.01-1.7129-.188-2.3741-.971-3.6148-.528-.8351-1.148-1.5185-1.379-1.5189-.231-.0003-.444-.1897-.472-.421-.104-.85666-.181-1.11193-.582-1.9339-.225-.46245-.991-1.12197-1.701-1.46569s-1.614-1.06278-2.01-1.59754c-.427-.5778-1.029-.97265-1.485-.97265-.421 0-1.059-.22232-1.418-.49373-.359-.27175-.865-.49877-1.123-.50449-.259-.00605-1.243-.37499-2.186-.81995-1.782-.84114-5.978-1.874658-8.389-2.066362-4.4234-.3511215-5.917-.3743242-7.2765-.11401zm-28.9404 46.909022c.8482.2573 1.9287.4695 2.402.4715.473.002 1.1538.226 1.5128.4974.3587.2718.8845.4988 1.1679.5045.2837.0061 1.494.5304 2.6894 1.1654 1.1958.635 2.7036 1.4243 3.3507 1.7542.6472.3296 2.2481 1.681 3.5572 3.0031 1.8211 1.8383 2.484 2.772 2.8195 3.9709.7658 2.7367.0699 5.7085-1.8856 8.0523-.4361.5227-.7931 1.2316-.7931 1.5747 0 .3433-.3247.7274-.7214.8532-.3967.1261-1.342.7985-2.1011 1.4943-2.0568 1.8858-6.7391 4.2686-8.9438 4.5521-1.0169.1305-2.1401.3908-2.4961.5785-1.0294.5425-7.5892-.7497-7.5892-1.4949 0-.1477-.2307-.2688-.5127-.2688-.2818 0-.6455-.3407-.8079-.7567-.1623-.416-.9534-1.3779-1.7578-2.1373-.8045-.7594-1.6308-1.7432-1.8369-2.1861-.2061-.443-.9316-1.9524-1.612-3.3539-.6808-1.4014-1.2573-2.9149-1.2808-3.3632-.0236-.4483-.1846-1.0022-.3574-1.2309-.1728-.2291-.232-.6303-.1318-.8919.1005-.262.0877-.5708-.0282-.6868-.3843-.3845-.4818-1.3359-.4858-4.7318-.004-3.4385.201-5.9532.5288-6.4836.1009-.1635 1.2872-.488 2.6363-.7211 1.3488-.233 2.6794-.4698 2.9567-.526 1.5125-.3064 8.3601-.0525 9.7203.3609z" fill="#43afde" fill-rule="evenodd"/></svg>