<svg fill="none" height="126" viewBox="0 0 118 126" width="118" xmlns="http://www.w3.org/2000/svg"><path clip-rule="evenodd" d="m46.8449 5.92892c-.0682.02982-1.7757-.52548-3.7946-1.23374-2.0187-.70817-3.7869-1.26663-3.9294-1.24098-.1424.02539-.7549-.14173-1.361-.37152-.9737-.36925-2.724-.71808-5.9138-1.17876-.5319-.07686-1.9564-.29741-3.1655-.49028-1.2091-.19261-2.3428-.30048-2.5196-.23983-.1765.06075-.7039-.04067-1.1717-.225212-.9327-.367992-1.9953-.337911-2.5211.071222-.1856.14454-.6673.13255-1.0706-.026567-1.6802-.662904-13.92018.486337-15.93454 1.496237-.60616.30372-1.21501.50787-1.35274.45354-.27619-.10897-2.90065 1.82637-3.07502 2.26743-.060191.15224-.215264.23489-.344899.18374-.328507-.12961-.6277112 1.08455-.422035 1.71326.093319.28561.301471.49578.462447.46692.160976-.02887.401687.14619.535127.38945.19003.34685.36395.38945.80656.19719.31001-.13466.65845-.20767.77393-.16211s.45234-.19837.74854-.54195c.60095-.69694 2.61757-1.69629 2.76006-1.36731.05014.11625.14657.07185.21396-.09861.06738-.17045.21417-.18708.32621-.03675.11214.15007.35989.05984.55083-.20072.19095-.26057.42277-.37258.51508-.24845.09241.12387.64766.09444 1.23392-.06512 1.35237-.36832 9.10587-.9571 9.71857-.73789.0696.02484.6058.03554 1.1919.02354.5857-.01186 1.2798.06323 1.5424.16682.2625.10359 1.0528.15139 1.7562.10644.7033-.04494 2.0787.04658 3.0564.20374.9778.15717 2.667.36374 3.7538.45929 2.2563.19819 4.3153.58258 6.3929 1.19353.7916.2328 2.477.72793 3.7454 1.10031 3.8911 1.14199 10.932 4.18302 13.617 5.88112.6924.4381 1.6915.967 2.2201 1.1756.5289.2087.983.5001 1.0094.6476.0265.1479.8445.6717 1.8181 1.1646 1.69.8553 4.7014 3.0144 5.0735 3.6374.0967.1618.7088.6085 1.3603.9924 1.7517 1.0326 1.7154 1.004 2.6263 2.0632.4644.5396 1.0085 1.0636 1.2096 1.1646.6415.3221 2.396 2.0673 2.3063 2.2941-.0475.1202.1802.3237.5061.4523.326.1286.7027.5272.8372.8861.1347.3589.6332.895 1.1078 1.1916.4748.2967 1.0078.8423 1.1843 1.2122.1768.37.8841 1.241 1.5718 1.9353.6879.6947 1.431 1.6375 1.6516 2.0955.2206.4581.6522 1.0289.9591 1.2684.6066.4732 1.1383 1.5541.9717 1.9754-.0573.1449.0583.3277.2569.406.1987.0784.6257.7073.949 1.3976.3232.6903.6967 1.2981.8296 1.3506.1332.0525.5373.8951.8983 1.8728s.9877 2.6024 1.3922 3.611c.8046 2.0051.8435 2.1187 1.3434 3.9162.1882.6774.2585 1.1983.1559 1.1579-.1025-.0405-.0592.404.0958.9879.1553.584.2944 1.4278.3091 1.876.015.4482.1304.8554.2565.9051.1261.0498.1043.6302-.0487 1.2897-.1529.6594-.1967 1.3075-.0979 1.4403.0989.1326.1144.4067.0344.609-.1206.305-.6709.1496-3.2187-.91-5.7294-2.383-9.9471-3.5213-17.0903-4.6137-1.2879-.1967-2.6091-.3461-2.936-.3319-.327.0143-1.3751.0054-2.3292-.0197-5.9041-.1552-12.0343 1.319-15.657 3.7653-.5263.3551-1.0469.6759-1.157.7129-.3475.1164-2.6003 2.2799-3.4523 3.3154-1.2248 1.4887-2.1274 3.4526-2.5592 5.5681-.5048 2.4723-.4366 3.5989.3465 5.7365 2.0565 5.6126 9.2384 9.9763 18.1864 11.0501 1.1527.1381 2.3269.2284 2.6092.2.2826-.0282 1.8065-.1625 3.3867-.2989 3.5794-.3085 5.7257-.8702 9.1234-2.3882 3.5091-1.5677 5.4125-2.7271 8.0336-4.8939 3.8603-3.1913 5.7066-5.6593 7.8368-10.4772.5147-1.1636 1.0054-2.2695 1.0905-2.4575.1184-.2618.3907-.2028 1.1617.2513.9856.5807 3.7231 2.6152 4.5719 3.398 2.2214 2.0484 5.7927 6.4779 6.5347 8.1057.155.3383.692 1.481 1.193 2.5393 1.275 2.6869 3.257 9.9656 2.936 10.7784-.055.1389.015.462.155.7179.263.4794 1.06 9.6383.948 10.8975-.034.3884-.03 1.4423.01 2.3423.039.9.08 1.903.09 2.229.011.325.038 1.191.062 1.924.023.733.047 2.913.052 4.844.005 1.932.128 4.759.273 6.283l.265 2.771-1.094-1.397c-.602-.768-1.371-1.596-1.711-1.839-.339-.243-.639-.568-.666-.722-.066-.365-1.563-.95-2.462-.961-1.445-.018-1.9018 2.195-.562 2.724.336.132.636.382.667.555s.373.44.76.593c.387.152.82.586.961.964.142.377.388.737.548.8.159.063.608.622.998 1.241 2.99 4.761 4.698 4.65 7.778-.507.298-.498 1.251-1.767 2.117-2.819 2.989-3.627 3.825-5.522 2.741-6.211-.571-.363-2.479.63-3.074 1.6-.29.474-1.326 1.862-2.301 3.085-.976 1.223-2.193 2.847-2.705 3.61s-.859 1.177-.77.92c.089-.256.123-1.163.075-2.016-.047-.853-.124-2.618-.17-3.923-.047-1.305-.111-3.04-.142-3.856-.032-.817-.069-2.936-.083-4.71-.013-1.774-.055-4.093-.093-5.153s-.092-2.7917-.12-3.8481c-.099-3.6741-.433-7.4794-.664-7.5706-.128-.0505-.173-.2443-.099-.4307.21-.5321-.201-3.1455-.957-6.0765-.38-1.4759-.807-3.1515-.949-3.7237-1.149-4.6377-5.223-11.1116-9.0978-14.4572-.5988-.5173-1.2752-1.1338-1.5031-1.3702-.2279-.2363-1.5012-1.1658-2.8298-2.0657l-2.4152-1.6358.2619-.8596c.144-.4729.2132-1.0242.154-1.2247-.1019-.3457-.0146-1.3263.2322-2.605.1327-.6875-.0098-3.999-.1842-4.2763-.067-.1068-.0746-.539-.0167-.9602.0578-.4212-.1139-1.2015-.382-1.7337-.2679-.5326-.4262-1.1224-.3516-1.3111.169-.4274-.3258-2.8511-.6043-2.961-.1127-.0444-.2715-.502-.3529-1.0165-.0813-.5148-.2989-1.0637-.4835-1.2198-.1847-.1563-.4327-.8332-.5514-1.5045-.1185-.6712-.4357-1.4486-.7045-1.7277-.2689-.2789-.4448-.6187-.391-.7547.0539-.1364-.3056-.7632-.7988-1.3931-.4933-.6299-1.0571-1.5157-1.2532-1.9684s-.5325-.8927-.7473-.9775c-.2148-.0847-.3379-.2868-.2737-.4491.0641-.1621.0204-.2533-.0971-.2021-.1175.0511-.3897-.3133-.6047-.8098-.215-.4964-.7093-1.2124-1.0986-1.5917-.3891-.3789-1.1167-1.2267-1.6166-1.884-.4999-.6574-1.2758-1.5135-1.7248-1.9023-.4486-.3886-.782-.7926-.7405-.8976.0414-.1047-.2943-.423-.7461-.7071-.4517-.2841-.8442-.6442-.872-.8001-.0812-.4551-1.6049-2.0806-2.8409-3.0313-.6275-.4824-1.4227-1.1621-1.7669-1.5105-.3444-.3481-1.1963-1.0195-1.8932-1.4918s-1.6969-1.2679-2.2222-1.7678c-.8542-.8135-1.8894-1.5295-3.3261-2.3007-.2651-.1423-.625-.3957-.7998-.5632-.1748-.1674-.8966-.6692-1.604-1.1149s-1.5988-1.0173-1.9808-1.2703c-.9743-.6455-3.9537-2.21824-6.2835-3.31723-3.8975-1.83858-5.7687-2.67011-5.8904-2.61725zm39.6684 55.23658c.2446.5648-2.4745 7.345-3.4471 8.5948-2.0462 2.6301-2.6883 3.3418-4.3774 4.8508-.9989.8922-2.5097 2.0531-3.3578 2.58-1.8084 1.123-6.752 3.2379-8.3523 3.573-.6131.1282-1.7014.3569-2.4181.508-1.7784.3747-5.6808.4406-8.4496.1425-1.9735-.2123-2.8681-.4779-6.4511-1.9158-3.5603-1.4289-4.3633-1.8414-5.5726-2.8619-2.7496-2.3203-4.062-4.4854-4.4553-7.3495-.2143-1.5603-.1568-1.8978.7019-4.1082.6143-1.581 1.2688-2.8237 1.9065-3.6178 2.8786-3.5868 8.8352-6.4132 14.6257-6.9398 7.5095-.683 17.7363 1.1718 26.1346 4.7399 1.9506.8287 3.4162 1.5815 3.5126 1.804z" fill="#037ff3" fill-rule="evenodd"/></svg>