<svg width="292" height="185" viewBox="0 0 292 185" fill="none" xmlns="http://www.w3.org/2000/svg">
<path fill-rule="evenodd" clip-rule="evenodd" d="M182.091 45.9177L188.516 39.9882C186.708 37.0593 185.412 34.1565 184.657 30.9476L171.96 22.9577C170.743 22.1447 169.817 20.9295 169.888 20.0988L169.988 18.9358L170.087 17.7729C170.422 16.8722 171.226 16.4961 172.5 16.6445L185.709 18.6534C186.918 16.5459 188.626 14.6307 190.803 13.24L185.77 2.88799C185.08 1.93501 185.414 1.03433 186.467 0.754346C187.013 0.499267 187.666 0.364817 188.276 0.239201C188.566 0.17959 188.846 0.121968 189.1 0.0543881C189.89 -0.1556 191.399 0.255109 192.616 1.06809L204.73 9.8625C208.082 9.78324 211.904 10.2285 215.697 11.0061L220.92 4.0975C221.489 3.4591 222.792 3.27526 224.037 3.75597L225.781 4.42896L227.524 5.10195C228.756 5.7488 229.959 6.72792 230.372 7.91703L234.117 18.2868C237.796 20.3934 241.448 22.8324 244.572 25.4113L257.105 26.3011C258.144 26.1873 259.625 26.9303 260.564 27.9794C261.211 28.5782 261.737 29.2092 262.228 29.7988C262.461 30.0785 262.686 30.349 262.913 30.6022C263.618 31.389 263.782 32.482 263.212 33.1204L256.787 39.0499C258.595 41.9788 259.877 45.0477 260.66 47.9244L273.357 55.9142C274.575 56.7272 275.5 57.9425 275.429 58.7731L275.329 59.9361L275.23 61.0991C274.896 61.9998 274.092 62.3759 272.818 62.2275L259.609 60.2186C258.399 62.3261 256.691 64.2413 254.514 65.6319L259.547 75.9839C260.238 76.9369 259.903 77.8376 258.85 78.1176C258.305 78.3727 257.651 78.5071 257.041 78.6327C256.751 78.6924 256.471 78.75 256.217 78.8176C255.427 79.0275 253.918 78.6168 252.701 77.8038L240.822 69.2717C237.47 69.351 233.648 68.9057 229.855 68.1281L224.397 74.7744C223.828 75.4128 222.526 75.5967 221.28 75.116L219.536 74.443L217.793 73.77C216.312 73.027 215.359 72.144 214.931 71.121L211.186 60.7513C207.507 58.6446 203.855 56.2057 200.731 53.6267L188.198 52.737C187.159 52.8508 185.678 52.1078 184.739 51.0587C184.092 50.4599 183.566 49.8289 183.075 49.2393C182.842 48.9596 182.617 48.6891 182.39 48.4359C181.685 47.6491 181.521 46.5561 182.091 45.9177ZM229.81 52.5178C238.018 52.5178 241.193 46.5684 236.901 39.2294C232.609 31.8904 222.476 25.941 214.267 25.941C206.059 25.941 202.884 31.8904 207.176 39.2294C211.468 46.5684 221.602 52.5178 229.81 52.5178Z" fill="#16E912"/>
<path fill-rule="evenodd" clip-rule="evenodd" d="M11.0986 159.545C10.5126 160.844 9.99194 162.47 10.0748 162.741C10.1061 162.843 10.0548 162.95 9.96101 162.979C9.86719 163.008 9.81872 163.124 9.85331 163.237C9.8879 163.35 9.77241 163.796 9.59663 164.227C9.42085 164.659 9.30322 165.098 9.33528 165.203C9.36728 165.307 9.27522 165.818 9.1307 166.338C8.89818 167.175 8.77809 167.324 8.08423 167.643C5.10941 169.012 3.94015 169.865 3.27377 171.153C2.89884 171.878 2.96963 172.205 3.75592 173.387C4.21315 174.074 4.70055 174.465 6.10389 175.27C7.0779 175.829 7.89866 176.365 7.92797 176.461C8.00035 176.698 7.71287 178.155 7.48226 178.721C7.28422 179.207 7.1882 180.657 7.29617 181.532C7.38354 182.239 8.31826 182.79 9.05091 182.566C9.70475 182.366 10.9681 181.624 11.3326 181.226C11.6751 180.852 13.5253 179.79 14.1878 179.587C14.4631 179.503 14.9701 179.157 15.3145 178.818C15.659 178.478 15.9698 178.225 16.0055 178.254C18.2035 180.069 19.2332 180.663 19.8386 180.468C20.961 180.105 20.9541 178.566 19.8116 174.501C19.6652 173.98 19.7718 173.7 20.622 172.375C22.0108 170.211 23.3043 167.575 23.1788 167.164C23.0329 166.687 21.5853 165.775 20.7327 165.624C20.3486 165.555 19.4523 165.569 18.741 165.653L17.4477 165.807L17.0383 164.932C16.813 164.451 16.5732 163.848 16.5051 163.593C16.3249 162.915 16.3091 162.87 15.7999 161.596C15.0358 159.683 14.6638 158.9 14.3289 158.5C13.9848 158.088 14.0007 158.093 13.3464 158.19C13.1009 158.226 12.6094 158.291 12.2541 158.336C11.6595 158.41 11.5675 158.506 11.0986 159.545Z" fill="#16E912"/>
</svg>
