<svg width="50" height="22" viewBox="0 0 50 22" fill="none" xmlns="http://www.w3.org/2000/svg">
<g clip-path="url(#clip0_1537_3672)">
<path fill-rule="evenodd" clip-rule="evenodd" d="M16.0058 0.218659C16.3411 0.364431 16.6327 0.568513 16.8805 0.816326C17.1283 1.06414 17.3178 1.35569 17.4782 1.69096C17.6239 2.02624 17.6968 2.39067 17.6968 2.76968V16.5889C17.6968 16.7201 17.6531 16.8222 17.5656 16.9096C17.4782 16.9971 17.3761 17.0408 17.2449 17.0408H13.9359C13.8047 17.0408 13.7026 16.9971 13.6298 16.9096C13.5569 16.8222 13.5131 16.7201 13.5131 16.5889V4.02332H10.8455V16.5889C10.8455 16.7201 10.8018 16.8222 10.7289 16.9096C10.656 16.9971 10.5394 17.0408 10.4228 17.0408H7.41984C7.28865 17.0408 7.18661 16.9971 7.09914 16.9096C7.01168 16.8222 6.96795 16.7201 6.96795 16.5889V4.02332H4.30031V16.5889C4.30031 16.895 4.15454 17.0408 3.84842 17.0408H0.568533C0.262411 17.0408 0.116638 16.895 0.116638 16.5889V0.451895C0.116638 0.145773 0.262411 0 0.568533 0H14.9126C15.3061 0 15.656 0.0728863 16.0058 0.218659Z" fill="white" fill-opacity="0.87"/>
<path fill-rule="evenodd" clip-rule="evenodd" d="M32.1137 12.9009C32.2449 12.9009 32.3615 12.9446 32.4344 13.0321C32.5219 13.1195 32.5656 13.2362 32.5656 13.3673V16.5889C32.5656 16.7201 32.5219 16.8222 32.4344 16.9242C32.347 17.0117 32.2449 17.0554 32.1137 17.0554H20.7872C20.4665 17.0554 20.3062 16.895 20.3062 16.5889V0.466472C20.3062 0.16035 20.4665 0 20.7872 0H24.2566C24.5773 0 24.7376 0.16035 24.7376 0.466472V12.4781C24.7376 12.6093 24.7814 12.7114 24.8834 12.7988C24.9709 12.8863 25.0875 12.9155 25.2187 12.9155H32.1137V12.9009Z" fill="white" fill-opacity="0.87"/>
<path fill-rule="evenodd" clip-rule="evenodd" d="M49.519 0C49.6502 0 49.7668 0.0437318 49.8543 0.131195C49.9417 0.218659 50 0.335277 50 0.466472V16.6327C50 16.7638 49.9563 16.8659 49.8543 16.9679C49.7668 17.0554 49.6502 17.0991 49.519 17.0991H45.9913C45.8601 17.0991 45.7435 17.0554 45.656 16.9679C45.5686 16.8805 45.5102 16.7638 45.5102 16.6327V10.9913C45.5102 10.8601 45.4665 10.758 45.379 10.6706C45.2916 10.5831 45.1895 10.5539 45.0438 10.5539H40.1021C39.9709 10.5539 39.8543 10.5977 39.7668 10.6706C39.6793 10.758 39.621 10.8601 39.621 10.9913V16.6327C39.621 16.9388 39.4607 17.0991 39.14 17.0991H35.6414C35.3208 17.0991 35.1604 16.9388 35.1604 16.6327V0.466472C35.1604 0.16035 35.3208 0 35.6414 0H39.14C39.4607 0 39.621 0.16035 39.621 0.466472V5.93295C39.621 6.23907 39.7814 6.39942 40.1021 6.39942H45.0438C45.175 6.39942 45.2916 6.35569 45.379 6.26822C45.4665 6.18076 45.5102 6.06414 45.5102 5.93295V0.466472C45.5102 0.335277 45.554 0.233236 45.656 0.131195C45.7435 0.0437318 45.8601 0 45.9913 0H49.519Z" fill="white" fill-opacity="0.87"/>
</g>
<defs>
<clipPath id="clip0_1537_3672">
<rect width="50" height="21.137" fill="white"/>
</clipPath>
</defs>
</svg>
